<svg width="256" height="129" viewBox="0 0 256 129" fill="none" xmlns="http://www.w3.org/2000/svg">
<path fill-rule="evenodd" clip-rule="evenodd" d="M189.471 35.6581V35.6651C189.471 43.2771 183.301 49.4471 175.689 49.4471L147.655 49.4481C142.561 49.4481 138.432 53.5761 138.432 58.6701C138.432 63.7631 142.556 67.8931 147.649 67.8931H225.768C241.265 67.8931 253.825 80.4561 253.825 95.9521V95.9541C253.825 111.451 241.263 124.014 225.766 124.014H30.0063C21.9983 124.014 15.5073 117.522 15.5073 109.514C15.5073 101.507 21.9983 95.0151 30.0063 95.0151H35.2493C39.8613 95.0151 43.6003 91.2761 43.6003 86.6641C43.6003 82.0521 39.8693 78.3131 35.2573 78.3131H30.2233C14.6383 78.3131 2.00031 65.6791 2.00031 50.0951C2.00031 34.5101 14.6343 21.8761 30.2183 21.8761H175.724C183.322 21.8961 189.471 28.0601 189.471 35.6581Z" fill="#4F545C" fill-opacity="0.3"/>
<path fill-rule="evenodd" clip-rule="evenodd" d="M196.936 111.409C196.428 105.548 191.495 100.934 185.505 100.934H182.158C181.606 100.934 181.158 100.486 181.158 99.9336V98.4846C181.158 86.0576 171.048 75.9476 158.621 75.9476H157.627L144.427 112.409H154.166V111.409H196.936ZM211.93 15.8383H219.27C219.272 15.7553 219.273 15.6713 219.273 15.5883C219.273 8.6473 213.626 3.0003 206.685 3.0003C201.876 3.0003 197.556 5.6783 195.411 9.9893C195.272 10.2683 195.011 10.4663 194.705 10.5263C194.4 10.5863 194.082 10.4983 193.85 10.2903C191.709 8.3803 188.951 7.3293 186.083 7.3293C180.79 7.3293 176.24 10.8423 174.846 15.8383H204.935C205.488 15.8383 205.935 16.2863 205.935 16.8383H206.935H210.93C210.93 16.2863 211.378 15.8383 211.93 15.8383Z" fill="#4C596E"/>
<path fill-rule="evenodd" clip-rule="evenodd" d="M66.702 35.397H80.465V29.516H66.702V35.397Z" fill="#E19A77"/>
<path fill-rule="evenodd" clip-rule="evenodd" d="M91.3473 51.3798C93.8423 49.5158 95.4623 46.8508 96.0073 43.8688H66.7893C71.1913 46.8968 74.6423 51.2048 76.6033 56.2548C85.0143 55.8358 89.4463 53.7508 91.1243 52.7368C90.8273 52.2968 90.9183 51.6998 91.3473 51.3798Z" fill="#E19A77"/>
<path fill-rule="evenodd" clip-rule="evenodd" d="M96.2272 36.3974C96.2272 35.8454 96.6752 35.3974 97.2272 35.3974H101.481V32.1434H90.3462V36.3974C90.3462 36.9494 89.8982 37.3974 89.3462 37.3974H57.8212C57.2682 37.3974 56.8212 36.9494 56.8212 36.3974V32.1434H48.3132V39.3914C49.4182 39.2514 50.5422 39.1714 51.6852 39.1714C55.8882 39.1714 59.8652 40.1524 63.4072 41.8894C63.4432 41.8854 63.4742 41.8684 63.5122 41.8684H96.0102C96.0822 41.8684 96.1442 41.8954 96.2122 41.9094C96.2142 41.8224 96.2272 41.7384 96.2272 41.6514V36.3974ZM30.7999 107.015H54.9909C54.8969 102.942 51.5529 99.6576 47.4579 99.6576C46.9049 99.6576 46.4539 99.2096 46.4539 98.6576V96.6896C46.4539 89.5366 40.6339 83.7166 33.4809 83.7166C26.3269 83.7166 20.5079 89.5366 20.5079 96.6896C20.5079 97.2426 20.0599 97.6896 19.5079 97.6896C19.3069 97.6896 19.1209 97.6306 18.9649 97.5296H13.9509C11.2179 97.5296 8.68491 98.6286 6.81891 100.625C5.16591 102.391 4.2499 104.633 4.1869 107.015H8.08291C8.6349 107.015 9.0819 107.462 9.0829 108.015H29.7999C29.7999 107.462 30.2479 107.015 30.7999 107.015Z" fill="#8395B0"/>
<path fill-rule="evenodd" clip-rule="evenodd" d="M97.0403 35.254C96.4883 35.254 96.0403 35.702 96.0403 36.254V41.508C96.0403 41.555 96.0365 41.6012 96.0327 41.6475C96.0295 41.6867 96.0262 41.726 96.0253 41.766C96.0029 41.7614 95.9811 41.7553 95.9594 41.7493C95.9153 41.7371 95.8715 41.725 95.8233 41.725H63.3253C63.3037 41.725 63.2844 41.7305 63.2651 41.736C63.2504 41.7401 63.2358 41.7443 63.2203 41.746C59.6783 40.009 55.7013 39.028 51.4983 39.028C50.3553 39.028 49.2313 39.108 48.1263 39.248V32H56.6343V36.254C56.6343 36.806 57.0813 37.254 57.6343 37.254H89.1593C89.7113 37.254 90.1593 36.806 90.1593 36.254V32H101.294V35.254H97.0403Z" fill="#FBCC85"/>
<path fill-rule="evenodd" clip-rule="evenodd" d="M93.066 101.743V118.633L109.384 107.937L93.066 101.743Z" fill="#B2CEFD"/>
<path fill-rule="evenodd" clip-rule="evenodd" d="M161.634 57.7079L119.455 83.8469C119.291 83.9489 119.109 83.9969 118.929 83.9969C118.594 83.9969 118.267 83.8289 118.078 83.5239C117.787 83.0539 117.932 82.4379 118.401 82.1469L156.68 58.4249L59.5089 86.8659L91.3459 98.9499C91.4029 98.8909 91.4679 98.8369 91.5389 98.7929L100.428 93.2839C100.898 92.9929 101.514 93.1389 101.805 93.6069C102.096 94.0769 101.951 94.6929 101.482 94.9839L93.6629 99.8299L135.448 115.69L141.427 117.96L161.634 57.7079Z" fill="white"/>
<path fill-rule="evenodd" clip-rule="evenodd" d="M149.616 60.4926C150.733 60.1656 151.413 61.6886 150.424 62.3026L118.401 82.1466C117.932 82.4376 117.787 83.0546 118.078 83.5236C118.267 83.8286 118.594 83.9966 118.929 83.9966C119.109 83.9966 119.291 83.9486 119.455 83.8466L159.278 59.1686C160.074 58.6756 161.051 59.4486 160.753 60.3366L143.411 112.044C142.328 115.273 138.778 116.954 135.594 115.746L135.448 115.691L100.879 102.569C97.9258 101.448 97.5388 97.4276 100.224 95.7636L101.482 94.9846C101.951 94.6936 102.096 94.0766 101.805 93.6076C101.514 93.1386 100.898 92.9926 100.429 93.2846C100.429 93.2846 98.9058 94.2296 97.1068 95.3486C93.4658 97.6146 88.9758 98.0506 84.9678 96.5296L62.2948 87.9226C61.3978 87.5826 61.4478 86.2976 62.3678 86.0286L149.616 60.4926ZM93.0658 114.931V104.641C93.0658 103.242 94.4668 102.275 95.7758 102.772L109.385 107.937L96.1618 116.603C94.8318 117.475 93.0658 116.521 93.0658 114.931ZM56.0868 85.7836C55.6738 85.9046 55.3848 86.2746 55.3678 86.7036C55.3508 87.1336 55.6108 87.5256 56.0118 87.6786L89.7758 100.494C90.5528 100.789 91.0658 101.533 91.0658 102.364V120.484C91.0658 120.851 91.2678 121.189 91.5908 121.364C91.7398 121.444 91.9028 121.484 92.0658 121.484C92.2578 121.484 92.4488 121.429 92.6148 121.32L106.579 112.168C109.793 110.061 113.822 109.621 117.415 110.985L141.69 120.2C141.804 120.243 141.925 120.264 142.045 120.264C142.191 120.264 142.338 120.232 142.472 120.168C142.719 120.052 142.907 119.84 142.993 119.582L146.083 110.369L156.687 81.2576C157.943 77.8096 161.667 75.8496 165.178 76.9156C174.427 79.7236 181.158 88.3186 181.158 98.4846C181.158 99.8366 182.254 100.934 183.607 100.934H185.505C191.079 100.934 195.737 104.929 196.767 110.206C196.888 110.827 196.412 111.409 195.78 111.409H155.166C154.614 111.409 154.166 111.856 154.166 112.409C154.166 112.961 154.614 113.409 155.166 113.409L197.979 113.408C198.516 113.408 198.977 112.983 198.978 112.445C198.999 104.998 192.947 98.9336 185.505 98.9336C184.158 98.6756 183.179 97.5446 183.051 96.1796C182.138 86.3826 175.466 78.2576 166.453 75.2236C162.361 73.8466 160.082 69.3466 161.39 65.2306L164.412 55.7156C164.419 55.6976 164.418 55.6776 164.423 55.6596C164.431 55.6286 164.434 55.5996 164.44 55.5696C164.455 55.4786 164.459 55.3896 164.45 55.2996C164.448 55.2716 164.448 55.2456 164.443 55.2186C164.422 55.1046 164.382 54.9956 164.323 54.8946C164.319 54.8866 164.319 54.8786 164.314 54.8706C164.304 54.8546 164.288 54.8466 164.277 54.8316C164.247 54.7886 164.222 54.7426 164.185 54.7046C164.154 54.6726 164.116 54.6506 164.081 54.6226C164.057 54.6036 164.036 54.5836 164.011 54.5676C163.915 54.5046 163.814 54.4566 163.705 54.4296C163.686 54.4256 163.668 54.4266 163.649 54.4226C163.554 54.4046 163.459 54.4016 163.362 54.4116C163.329 54.4146 163.299 54.4186 163.267 54.4256C163.24 54.4306 163.211 54.4296 163.183 54.4376L56.0868 85.7836Z" fill="#1F2225"/>
<path fill-rule="evenodd" clip-rule="evenodd" d="M49.3131 32.1435H55.8211C56.3731 32.1435 56.8211 32.5905 56.8211 33.1435V36.3975C56.8211 36.9495 57.2691 37.3975 57.8211 37.3975H89.3461C89.8981 37.3975 90.3461 36.9495 90.3461 36.3975V33.1435C90.3461 32.5905 90.7931 32.1435 91.3461 32.1435H100.481C101.033 32.1435 101.481 32.5905 101.481 33.1435V34.3975C101.481 34.9495 101.033 35.3975 100.481 35.3975H97.2271C96.6751 35.3975 96.2271 35.8445 96.2271 36.3975V41.6515C96.2271 41.7385 96.2141 41.8225 96.2121 41.9095C96.1451 41.8945 63.4431 41.8855 63.4071 41.8895C59.8651 40.1525 55.8881 39.1715 51.6851 39.1715C50.5421 39.1715 49.4181 39.2515 48.3131 39.3915V33.1435C48.3131 32.5905 48.7611 32.1435 49.3131 32.1435ZM67.7021 29.5165H79.4651C80.0171 29.5165 80.4651 29.9635 80.4651 30.5165V34.3975C80.4651 34.9495 80.0171 35.3975 79.4651 35.3975H67.7021C67.1501 35.3975 66.7021 34.9495 66.7021 34.3975V30.5165C66.7021 29.9635 67.1501 29.5165 67.7021 29.5165ZM56.9931 108.015V107.192C56.9931 102.272 53.2471 98.2105 48.4541 97.7085V96.6895C48.4541 90.0125 44.0591 84.3455 38.0111 82.4215C36.5811 81.9655 35.0601 81.7165 33.4801 81.7165C29.5411 81.7165 25.9521 83.2475 23.2761 85.7435H14.8691C12.8641 85.7435 11.4111 83.8145 11.9891 81.8945C13.2781 77.6205 16.7491 71.2235 26.0121 70.5155C26.5421 70.4745 26.9601 70.0485 26.9601 69.5175V66.4575C26.9601 52.6255 38.2791 40.9405 52.1091 41.1745C65.5471 41.4015 76.4091 52.4045 76.4091 65.8955C76.4091 66.4485 76.8571 66.8955 77.4091 66.8955C77.6871 66.8955 82.7701 66.6015 82.7701 66.6015C84.7791 66.6015 86.7371 66.9285 88.6171 67.5425C89.0401 67.6815 89.4631 67.8185 89.8771 67.9875C90.3911 68.1965 90.9721 67.9495 91.1811 67.4395C91.3901 66.9275 91.1441 66.3445 90.6331 66.1355C88.1371 65.1175 85.4911 64.6015 82.7701 64.6015H80.2131C79.2001 64.6005 78.3511 63.8415 78.2341 62.8355C77.9701 60.5415 77.4111 58.3365 76.6031 56.2555C74.6431 51.2055 71.1911 46.8965 66.7891 43.8685H91.5841C93.9841 43.8685 95.4431 46.5655 94.0831 48.5425C93.3461 49.6125 92.4291 50.5715 91.3471 51.3795C90.9181 51.7005 90.8281 52.2975 91.1241 52.7365C91.1331 52.7505 91.1351 52.7665 91.1451 52.7795C91.3411 53.0425 91.6421 53.1815 91.9471 53.1815C92.1551 53.1815 92.3651 53.1165 92.5441 52.9825C96.1561 50.2845 98.2271 46.1545 98.2271 41.6515V40.3975C98.2271 38.7405 99.5701 37.3975 101.227 37.3975H102.481C103.033 37.3975 103.481 36.9495 103.481 36.3975V31.1435C103.481 30.5905 103.033 30.1435 102.481 30.1435H96.6001C96.0481 30.1435 95.6001 29.6955 95.6001 29.1435V26.3565C95.6001 25.8045 96.0481 25.3565 96.6001 25.3565H97.4201C97.9721 25.3565 98.4201 24.9095 98.4201 24.3565C98.4201 23.8045 97.9721 23.3565 97.4201 23.3565H91.7801C91.2281 23.3565 90.7801 23.8045 90.7801 24.3565C90.7801 24.9095 91.2281 25.3565 91.7801 25.3565H92.6001C93.1521 25.3565 93.6001 25.8045 93.6001 26.3565V29.1435C93.6001 29.6955 93.1521 30.1435 92.6001 30.1435H89.3461C88.7931 30.1435 88.3461 30.5905 88.3461 31.1435V35.3975H85.4651C83.8081 35.3975 82.4651 34.0545 82.4651 32.3975V29.5165C82.4651 28.4115 81.5691 27.5165 80.4651 27.5165H76.5841C75.4791 27.5165 74.5841 26.6205 74.5841 25.5165V18.4385C74.5841 17.8865 75.0311 17.4385 75.5841 17.4385H83.0681C83.6201 17.4385 84.0681 16.9905 84.0681 16.4385C84.0681 15.8865 83.6201 15.4385 83.0681 15.4385H64.0991C63.5471 15.4385 63.0991 15.8865 63.0991 16.4385C63.0991 16.9905 63.5471 17.4385 64.0991 17.4385H71.5841C72.1361 17.4385 72.5841 17.8865 72.5841 18.4385V25.5165C72.5841 26.6205 71.6881 27.5165 70.5841 27.5165H66.7021C65.5981 27.5165 64.7021 28.4115 64.7021 29.5165V32.3975C64.7021 34.0545 63.3591 35.3975 61.7021 35.3975H58.8211V31.1435C58.8211 30.5905 58.3731 30.1435 57.8211 30.1435H54.5671C54.0151 30.1435 53.5671 29.6955 53.5671 29.1435V26.3565C53.5671 25.8045 54.0151 25.3565 54.5671 25.3565H55.3871C55.9391 25.3565 56.3871 24.9095 56.3871 24.3565C56.3871 23.8045 55.9391 23.3565 55.3871 23.3565H49.7471C49.1951 23.3565 48.7471 23.8045 48.7471 24.3565C48.7471 24.9095 49.1951 25.3565 49.7471 25.3565H50.5671C51.1191 25.3565 51.5671 25.8045 51.5671 26.3565V29.1435C51.5671 29.6955 51.1191 30.1435 50.5671 30.1435H47.3131C46.7611 30.1435 46.3131 30.5905 46.3131 31.1435V39.6515C46.3131 39.6725 46.3241 39.6905 46.3251 39.7115C34.1491 42.2005 24.9601 52.9955 24.9601 65.8955V66.7655C24.9601 67.7495 24.2401 68.5755 23.2681 68.7325C15.3251 70.0205 9.2401 76.9285 9.2401 85.2305V85.2335C9.2401 86.6195 10.3631 87.7435 11.7501 87.7435H18.0031C19.4581 87.7435 20.4151 89.2415 19.8171 90.5675C19.1261 92.1025 18.6871 93.7735 18.5521 95.5295H14.3531C10.9031 95.5295 7.5211 96.8575 5.2101 99.4185C3.0671 101.795 2.0021 104.851 2.2091 108.051C2.2441 108.588 2.6711 109.015 3.2091 109.015H8.0831C8.6351 109.015 9.0831 108.567 9.0831 108.015C9.0821 107.462 8.6351 107.015 8.0831 107.015H6.5261C5.1701 107.015 4.2141 105.696 4.6141 104.401C5.0481 102.999 5.8011 101.703 6.8461 100.595C8.7611 98.5635 11.5101 97.5295 14.3021 97.5295C14.3021 97.5295 19.3071 97.6895 19.5071 97.6895C20.0601 97.6895 20.5071 97.2425 20.5071 96.6895C20.5071 89.3195 26.6861 83.3645 34.1351 83.7325C41.1041 84.0775 46.4541 90.0895 46.4541 97.0675V98.6575C46.4541 99.2105 46.9091 99.6575 47.4631 99.6575C50.5611 99.6595 53.2281 101.539 54.3821 104.219C54.9511 105.539 53.9771 107.015 52.5401 107.015H30.8001C30.2481 107.015 29.8001 107.462 29.8001 108.015C29.8001 108.567 30.2481 109.015 30.8001 109.015H55.9931C56.5451 109.015 56.9931 108.567 56.9931 108.015ZM112.891 87.7265C113.071 87.7265 113.253 87.6785 113.417 87.5765L115.602 86.2225C116.072 85.9315 116.217 85.3145 115.926 84.8455C115.635 84.3765 115.018 84.2315 114.549 84.5215L112.363 85.8765C111.894 86.1675 111.749 86.7835 112.04 87.2535C112.229 87.5585 112.556 87.7265 112.891 87.7265ZM203.184 86.915H192.611C192.059 86.915 191.611 87.363 191.611 87.915C191.611 88.467 192.059 88.915 192.611 88.915H203.184C203.736 88.915 204.184 88.467 204.184 87.915C204.184 87.363 203.736 86.915 203.184 86.915ZM61.2838 113.151H51.0838C50.5318 113.151 50.0838 113.599 50.0838 114.151C50.0838 114.703 50.5318 115.151 51.0838 115.151H61.2838C61.8358 115.151 62.2838 114.703 62.2838 114.151C62.2838 113.599 61.8358 113.151 61.2838 113.151ZM116.229 51.518C115.677 51.518 115.229 51.966 115.229 52.518C115.229 53.07 115.677 53.518 116.229 53.518H127.462C128.014 53.518 128.462 53.07 128.462 52.518C128.462 51.966 128.014 51.518 127.462 51.518H116.229ZM112.407 48.4975H119.282C119.834 48.4975 120.282 48.0495 120.282 47.4975C120.282 46.9455 119.834 46.4975 119.282 46.4975H112.407C111.855 46.4975 111.407 46.9455 111.407 47.4975C111.407 48.0495 111.855 48.4975 112.407 48.4975ZM105.081 56.3979H107.336C107.889 56.3979 108.336 55.9499 108.336 55.3979C108.336 54.8459 107.889 54.3979 107.336 54.3979H105.081C104.529 54.3979 104.081 54.8459 104.081 55.3979C104.081 55.9499 104.529 56.3979 105.081 56.3979ZM134.404 33.8608H141.279C141.832 33.8608 142.279 33.4128 142.279 32.8608C142.279 32.3088 141.832 31.8608 141.279 31.8608H134.404C133.852 31.8608 133.404 32.3088 133.404 32.8608C133.404 33.4128 133.852 33.8608 134.404 33.8608ZM173.598 17.8383H204.936C205.488 17.8383 205.936 17.3903 205.936 16.8383C205.935 16.2863 205.488 15.8383 204.936 15.8383H174.847C176.24 10.8423 180.79 7.3293 186.084 7.3293C188.951 7.3293 191.709 8.3803 193.85 10.2903C194.083 10.4983 194.4 10.5863 194.705 10.5263C195.011 10.4663 195.272 10.2683 195.411 9.9893C197.556 5.6783 201.876 3.0003 206.685 3.0003C213.627 3.0003 219.274 8.6473 219.274 15.5883C219.274 15.6713 219.273 15.7553 219.271 15.8383H211.931C211.378 15.8383 210.931 16.2863 210.931 16.8383C210.931 17.3903 211.378 17.8383 211.931 17.8383H220.214C220.731 17.8383 221.163 17.4443 221.21 16.9293C221.25 16.4873 221.274 16.0403 221.274 15.5883C221.274 7.5443 214.729 1.0003 206.685 1.0003C201.528 1.0003 196.856 3.6573 194.218 8.0133C191.871 6.2753 189.027 5.3293 186.084 5.3293C179.41 5.3293 173.744 10.0983 172.613 16.6683C172.562 16.9593 172.643 17.2573 172.833 17.4833C173.023 17.7083 173.303 17.8383 173.598 17.8383Z" fill="#1F2225"/>
</svg>
