<svg width="253" height="203" viewBox="0 0 253 203" fill="none" xmlns="http://www.w3.org/2000/svg">
<path fill-rule="evenodd" clip-rule="evenodd" d="M58.261 17H125.781C154.01 17 176.893 39.884 176.893 68.112C176.893 81.199 187.502 91.809 200.589 91.809H200.592C228.999 91.809 252.027 114.836 252.027 143.243V143.246C252.027 171.653 228.999 194.681 200.592 194.681H174.594H59.759C43.874 194.681 30.998 181.805 30.998 165.921V165.919C30.998 150.035 43.874 137.158 59.759 137.158H62.513C71.802 137.158 79.332 129.628 79.332 120.34C79.332 111.051 71.802 103.521 62.513 103.521H58.261C34.369 103.521 15 84.152 15 60.26C15 36.368 34.369 17 58.261 17Z" fill="#4F545C" fill-opacity="0.3"/>
<path d="M50 150H80.5L104.5 126.5L109 127.5L112 131L110.5 136L102 144.5L110.5 149L85.5 171.5L73 171H50V150Z" fill="#FED2A4"/>
<path fill-rule="evenodd" clip-rule="evenodd" d="M109.439 18.9577C109.274 19.6277 109.822 20.2607 110.509 20.1917L117.234 19.5207C117.268 19.5177 117.301 19.5167 117.335 19.5167C117.835 19.5167 118.266 19.8907 118.327 20.3977L118.831 24.6397C118.965 25.7617 120.566 25.8357 120.802 24.7307L122.649 16.0947C122.787 15.4497 122.275 14.8507 121.617 14.8867L115.672 15.2077C115.15 15.2447 114.71 14.8707 114.63 14.3637L113.825 9.19973C113.657 8.12073 112.127 8.05373 111.866 9.11373L109.439 18.9577Z" fill="#1F2225"/>
<path fill-rule="evenodd" clip-rule="evenodd" d="M171.582 99.816L175.321 96.077L172.956 93.712L169.217 97.451L171.582 99.816Z" fill="#9D6656"/>
<path fill-rule="evenodd" clip-rule="evenodd" d="M102.203 163.777C102.093 163.1 102.118 162.41 102.272 161.739L100.165 163.846C100.835 163.692 101.526 163.668 102.203 163.777ZM122.324 153.665L124.12 151.869C121.896 152.109 119.776 152.805 117.856 153.897L120.681 156.723L122.324 155.079C121.933 154.688 121.933 154.056 122.324 153.665Z" fill="#9D6656"/>
<path fill-rule="evenodd" clip-rule="evenodd" d="M106.88 155.875C107.227 156.222 107.227 156.783 106.88 157.13L106.194 157.816C106.864 157.661 107.554 157.637 108.232 157.747C107.976 156.172 108.433 154.509 109.609 153.274C109.585 153.255 109.555 153.246 109.532 153.224C109.186 152.877 109.186 152.315 109.532 151.969L124.627 136.874L123.136 135.384L82.7634 175.757C82.3084 176.212 82.0574 176.817 82.0574 177.462C82.0574 178.004 82.2434 178.512 82.5694 178.932L105.626 155.875C105.972 155.528 106.533 155.528 106.88 155.875ZM94.3027 181.409L91.9507 179.057C91.5837 179.367 91.2227 179.686 90.8797 180.03L87.2527 183.656L88.0877 184.491C88.7227 185.125 89.6217 185.321 90.4307 185.099L93.9067 181.624C94.0197 181.511 94.1577 181.448 94.3027 181.409ZM167.962 96.1955L171.701 92.4575L170.587 91.3425C170.434 91.1895 170.26 91.0705 170.081 90.9665C169.075 91.4905 167.967 91.7245 166.86 91.6605L165.143 93.3775L167.962 96.1955ZM90.2124 173.798L83.8034 180.207L85.9984 182.402L90.7864 177.614C90.1104 176.445 89.9164 175.082 90.2124 173.798ZM125.904 149.992C125.937 149.992 125.969 149.988 126.001 149.988L127.879 148.11C125.224 148.4 122.711 149.318 120.52 150.807C122.241 150.273 124.05 149.991 125.904 149.992ZM173.878 102.111L175.912 100.077C176.367 99.6225 176.618 99.0165 176.618 98.3725C176.618 98.0565 176.556 97.7505 176.441 97.4655L172.836 101.07L173.878 102.111ZM96.1729 169.806C96.0629 169.129 96.0879 168.439 96.2419 167.769L94.1359 169.874C94.8059 169.72 95.4959 169.696 96.1729 169.806Z" fill="#844D3C"/>
<path d="M93.1298 179.298C91.1422 177.467 90.9687 174.389 92.738 172.346L92.8882 172.173C93.2699 171.732 93.7257 171.362 94.2349 171.078L95.9248 170.138C96.5787 169.773 97.1426 169.267 97.5748 168.656L98.8462 166.858C99.1768 166.39 99.5853 165.983 100.054 165.654L102.082 164.229C102.55 163.9 102.959 163.493 103.289 163.025L104.718 161.005C105.048 160.538 105.457 160.13 105.925 159.801L107.606 158.62C108.298 158.134 108.855 157.48 109.226 156.719L109.442 156.275C110.943 153.196 115.025 152.503 117.457 154.915L123.305 160.713C124.402 161.801 124.412 163.571 123.326 164.671C123.11 164.889 122.86 165.07 122.586 165.207L120.326 166.337C119.461 166.77 118.739 167.444 118.25 168.279L117.114 170.215C116.644 171.017 115.959 171.672 115.137 172.106L113.878 172.772C112.981 173.246 112.249 173.982 111.78 174.882L111.288 175.826C110.791 176.78 110.001 177.548 109.033 178.016L108.085 178.475C107.103 178.951 106.303 179.735 105.808 180.707L105.242 181.82C103.739 184.772 99.8345 185.473 97.3985 183.23L93.1298 179.298Z" fill="#FED2A4"/>
<path d="M84.4444 172.092C84.4124 172.455 84.2622 172.803 84.0047 173.111C83.7471 173.419 83.3887 173.679 82.9551 173.873C82.5216 174.066 82.0263 174.958 81.5 175C80.9737 175.042 80.0179 174.117 79.5 174C78.9821 173.883 78.9123 173.808 78.5023 173.553C78.0923 173.299 77.7637 172.99 77.5403 172.647C77.3169 172.305 77.2042 171.938 77.2103 171.573C77.2165 171.208 77.3413 170.855 77.5759 170.537L81.5 171L84.5 171L84.4444 172.092Z" fill="#FED2A4"/>
<path d="M108.886 148.765C108.951 148.659 108.934 148.503 108.834 148.306C108.734 148.109 108.554 147.874 108.303 147.616C108.053 147.357 107.738 147.079 107.376 146.799C107.013 146.518 106.611 146.24 106.192 145.98C105.772 145.72 105.344 145.483 104.931 145.283C104.519 145.084 104.13 144.925 103.787 144.816C103.444 144.707 103.154 144.649 102.933 144.648C102.712 144.646 102.565 144.699 102.499 144.805L105.692 146.785L108.886 148.765Z" fill="#FED2A4"/>
<path fill-rule="evenodd" clip-rule="evenodd" d="M116.041 152.36L116.874 151.528C120.291 148.11 124.835 146.227 129.667 146.228C129.701 146.228 129.733 146.223 129.766 146.223L131.872 144.118L125.882 138.129L112.225 151.786C113.509 151.49 114.873 151.684 116.041 152.36ZM109.533 153.224C109.555 153.246 109.585 153.255 109.61 153.275C109.639 153.244 109.659 153.206 109.69 153.175C110.412 152.453 111.296 152 112.224 151.787L125.882 138.129L124.627 136.874L109.533 151.969C109.186 152.316 109.186 152.877 109.533 153.224ZM91.6016 171.264C92.3236 170.542 93.2076 170.089 94.1366 169.874L96.2416 167.769C96.4556 166.84 96.9096 165.956 97.6306 165.235C98.3526 164.514 99.2366 164.06 100.165 163.846L102.272 161.739C102.486 160.811 102.94 159.927 103.661 159.205C104.383 158.484 105.267 158.031 106.195 157.817L106.881 157.13C107.227 156.784 107.227 156.222 106.881 155.875C106.534 155.529 105.973 155.529 105.626 155.875L82.5696 178.932C82.6326 179.012 82.6906 179.095 82.7636 179.167L83.8036 180.207L90.2126 173.798C90.4266 172.87 90.8796 171.987 91.6016 171.264Z" fill="#9D6656"/>
<path fill-rule="evenodd" clip-rule="evenodd" d="M116.873 151.529L116.04 152.361C116.429 152.586 116.802 152.843 117.134 153.175L117.856 153.898C119.776 152.805 121.895 152.11 124.12 151.87L126.001 149.989C125.969 149.989 125.936 149.993 125.904 149.993C124.05 149.992 122.241 150.274 120.52 150.808C122.711 149.319 125.224 148.401 127.878 148.111L129.766 146.224C129.732 146.224 129.7 146.229 129.667 146.229C124.835 146.228 120.29 148.111 116.873 151.529ZM91.9512 179.058L91.6012 178.708C91.2692 178.376 91.0112 178.003 90.7862 177.615L85.9982 182.403L87.2532 183.657L90.8792 180.031C91.2222 179.687 91.5832 179.368 91.9512 179.058ZM93.9063 181.624L90.4303 185.1C90.8213 184.993 91.1923 184.798 91.4973 184.491L92.2863 183.703C92.6773 183.312 93.3093 183.312 93.7003 183.703L95.1483 182.255L94.3023 181.409C94.1583 181.448 94.0193 181.511 93.9063 181.624Z" fill="#844D3C"/>
<path fill-rule="evenodd" clip-rule="evenodd" d="M169.217 97.45L172.956 93.711L171.701 92.457L167.963 96.195L169.217 97.45Z" fill="#9D6656"/>
<path fill-rule="evenodd" clip-rule="evenodd" d="M170.081 90.967C169.16 90.439 167.965 90.558 167.178 91.343L166.861 91.66C167.967 91.725 169.075 91.49 170.081 90.967ZM172.836 101.071L176.44 97.4665C176.321 97.1715 176.144 96.8995 175.912 96.6675L175.321 96.0765L171.582 99.8155L172.836 101.071Z" fill="#844D3C"/>
<path fill-rule="evenodd" clip-rule="evenodd" d="M117.716 97.384C118.107 96.993 118.739 96.993 119.13 97.384C119.521 97.775 119.521 98.407 119.13 98.798L110.071 107.857C109.679 108.248 109.464 108.77 109.464 109.324C109.464 109.878 109.679 110.4 110.071 110.791L115.623 116.343C116.014 116.734 116.014 117.366 115.623 117.757C115.428 117.952 115.172 118.05 114.916 118.05C114.66 118.05 114.404 117.952 114.209 117.757L108.657 112.205C107.887 111.436 107.464 110.413 107.464 109.324C107.464 108.236 107.887 107.212 108.657 106.443L117.716 97.384ZM121.705 93.395L122.326 92.774C122.716 92.383 123.349 92.383 123.74 92.774C124.131 93.164 124.131 93.797 123.74 94.188L123.119 94.809C122.924 95.004 122.668 95.102 122.412 95.102C122.156 95.102 121.9 95.004 121.705 94.809C121.314 94.418 121.314 93.785 121.705 93.395ZM164.419 108.599C163.65 109.368 162.626 109.792 161.537 109.792C160.449 109.792 159.425 109.368 158.656 108.599C157.886 107.829 157.462 106.806 157.462 105.717C157.462 104.628 157.886 103.605 158.656 102.835C160.245 101.247 162.829 101.247 164.419 102.835C166.007 104.424 166.007 107.01 164.419 108.599ZM131.367 131.813C131.367 130.724 131.791 129.7 132.561 128.931C133.33 128.161 134.354 127.738 135.442 127.738C136.531 127.738 137.554 128.161 138.324 128.931C139.912 130.52 139.912 133.106 138.324 134.695C137.529 135.488 136.486 135.886 135.442 135.886C134.399 135.886 133.355 135.488 132.561 134.695C131.791 133.925 131.367 132.902 131.367 131.813ZM105.63 115.049L120.237 129.656L146.023 103.87C146.414 103.48 147.047 103.48 147.437 103.87C147.828 104.261 147.828 104.894 147.437 105.284L121.651 131.071L136.184 145.604L175.363 106.425L160.83 91.892L152.198 100.524C152.003 100.719 151.747 100.817 151.491 100.817C151.235 100.817 150.979 100.719 150.784 100.524C150.393 100.133 150.393 99.5 150.784 99.11L159.416 90.478L144.808 75.871C141.652 72.715 136.516 72.715 133.359 75.871L105.63 103.6C102.473 106.756 102.473 111.893 105.63 115.049Z" fill="#7F8080"/>
<path d="M16.5 65.5L27.5 68L31.5 65.5L32 62.5L34 61.5H38L49 68.5L50 71L36.5 69.5L33 78.5L28 76L25 74L14 67L16.5 65.5Z" fill="#E0C310"/>
<path d="M67.5 18H72L90.5 47L98 50L109.5 42.5L114.5 56.5L116.5 70.5L117.5 81L118 86.5V89L116.5 91.5L111.5 86L107.5 81L100 67.5L88 75L81.5 76L67.5 18Z" fill="#FBD907"/>
<path fill-rule="evenodd" clip-rule="evenodd" d="M160.83 91.8918L152.198 100.524C152.003 100.719 151.747 100.817 151.491 100.817C151.235 100.817 150.979 100.719 150.784 100.524L147.437 103.871C147.828 104.261 147.828 104.894 147.437 105.285L121.651 131.071L136.184 145.604L175.363 106.425L160.83 91.8918Z" fill="#C9A926"/>
<path fill-rule="evenodd" clip-rule="evenodd" d="M188.357 131.052L185.44 133.969C185.245 134.164 184.989 134.262 184.733 134.262C184.477 134.262 184.221 134.164 184.026 133.969C183.635 133.578 183.635 132.946 184.026 132.555L186.943 129.638C187.335 129.246 187.55 128.725 187.55 128.17C187.55 127.616 187.335 127.095 186.943 126.703L185.608 125.368C185.218 124.978 185.218 124.345 185.608 123.954C185.999 123.564 186.632 123.564 187.023 123.954L188.357 125.289C189.127 126.059 189.55 127.081 189.55 128.17C189.55 129.259 189.127 130.282 188.357 131.052ZM191.384 122.447L176.777 107.839L137.598 147.018L152.206 161.625C155.362 164.781 160.499 164.781 163.655 161.625L191.384 133.896C194.541 130.74 194.541 125.603 191.384 122.447Z" fill="#7F8080"/>
<path fill-rule="evenodd" clip-rule="evenodd" d="M160.07 104.249C159.261 105.059 159.261 106.375 160.07 107.185C160.854 107.968 162.221 107.968 163.005 107.185C163.814 106.375 163.814 105.059 163.005 104.249C162.6 103.845 162.069 103.643 161.537 103.643C161.006 103.643 160.474 103.845 160.07 104.249ZM136.91 130.345C136.518 129.953 135.996 129.738 135.442 129.738C134.888 129.738 134.367 129.953 133.975 130.345C133.166 131.155 133.166 132.471 133.975 133.281C134.784 134.089 136.1 134.089 136.91 133.281C137.719 132.471 137.719 131.155 136.91 130.345Z" fill="#F1CD3A"/>
<path fill-rule="evenodd" clip-rule="evenodd" d="M220.31 116.527H213.488C212.936 116.527 212.488 116.974 212.488 117.527C212.488 118.08 212.936 118.527 213.488 118.527H220.31C220.862 118.527 221.31 118.08 221.31 117.527C221.31 116.974 220.862 116.527 220.31 116.527ZM209.443 95.5842C209.557 95.5842 209.672 95.5642 209.785 95.5232L216.195 93.1902C216.714 93.0022 216.982 92.4282 216.793 91.9092C216.604 91.3902 216.029 91.1242 215.511 91.3122L209.101 93.6452C208.582 93.8332 208.315 94.4072 208.503 94.9262C208.651 95.3322 209.035 95.5842 209.443 95.5842ZM202.378 69.2585L197.152 73.6435C196.729 73.9975 196.673 74.6285 197.028 75.0515C197.226 75.2875 197.51 75.4085 197.795 75.4085C198.022 75.4085 198.25 75.3315 198.437 75.1745L203.663 70.7895C204.086 70.4355 204.142 69.8045 203.787 69.3815C203.432 68.9575 202.8 68.9045 202.378 69.2585ZM179.448 60.3005C179.605 60.3915 179.778 60.4345 179.947 60.4345C180.293 60.4345 180.629 60.2555 180.814 59.9345L184.225 54.0265C184.501 53.5485 184.338 52.9365 183.859 52.6605C183.381 52.3835 182.769 52.5485 182.493 53.0265L179.082 58.9345C178.806 59.4125 178.969 60.0245 179.448 60.3005ZM157.883 52.4509C157.942 52.4609 158 52.4659 158.058 52.4659C158.534 52.4659 158.956 52.1249 159.042 51.6399L160.226 44.9219C160.322 44.3779 159.959 43.8599 159.415 43.7629C158.868 43.6689 158.352 44.0309 158.257 44.5749L157.072 51.2919C156.976 51.8359 157.339 52.3549 157.883 52.4509ZM134.934 182.604C134.387 182.506 133.871 182.871 133.775 183.415L132.591 190.132C132.495 190.676 132.858 191.195 133.402 191.291C133.461 191.301 133.519 191.306 133.577 191.306C134.053 191.306 134.475 190.965 134.56 190.48L135.745 183.762C135.841 183.218 135.478 182.7 134.934 182.604ZM133.401 43.7634C132.857 43.8594 132.494 44.3784 132.59 44.9224L133.775 51.6394C133.86 52.1244 134.282 52.4664 134.758 52.4664C134.816 52.4664 134.874 52.4614 134.933 52.4514C135.477 52.3544 135.84 51.8364 135.744 51.2924L134.56 44.5744C134.464 44.0314 133.946 43.6684 133.401 43.7634ZM157.883 182.604C157.339 182.7 156.976 183.218 157.072 183.762L158.257 190.48C158.342 190.965 158.764 191.306 159.24 191.306C159.298 191.306 159.356 191.301 159.415 191.291C159.959 191.195 160.322 190.676 160.226 190.132L159.042 183.415C158.946 182.871 158.429 182.505 157.883 182.604ZM180.814 175.12C180.537 174.641 179.925 174.477 179.448 174.754C178.969 175.03 178.806 175.641 179.082 176.12L182.493 182.027C182.678 182.349 183.014 182.527 183.36 182.527C183.529 182.527 183.702 182.484 183.859 182.393C184.337 182.117 184.501 181.506 184.225 181.027L180.814 175.12ZM198.437 159.879C198.015 159.525 197.384 159.578 197.028 160.002C196.673 160.425 196.729 161.056 197.152 161.41L202.378 165.795C202.565 165.952 202.793 166.029 203.02 166.029C203.305 166.029 203.589 165.908 203.787 165.672C204.142 165.249 204.086 164.618 203.663 164.264L198.437 159.879ZM216.195 141.863L209.785 139.53C209.268 139.342 208.693 139.608 208.503 140.128C208.315 140.646 208.582 141.22 209.101 141.409L215.511 143.742C215.624 143.783 215.739 143.802 215.853 143.802C216.261 143.802 216.645 143.55 216.793 143.144C216.982 142.626 216.714 142.051 216.195 141.863ZM46.1318 150.336C46.1318 150.889 46.5798 151.336 47.1318 151.336H77.4488C79.5708 151.336 81.6058 150.493 83.1058 148.993L103.06 129.039C104.878 127.223 107.835 127.223 109.656 129.042C110.677 130.064 111.166 131.473 110.985 132.94C110.852 134.015 110.297 134.996 109.53 135.763L101.213 144.078C100.822 144.469 100.822 145.102 101.213 145.492C101.604 145.883 102.237 145.883 102.627 145.492L110.888 137.232C112.055 136.065 112.865 134.547 112.999 132.902C113.165 130.862 112.424 128.919 110.956 127.517C108.305 124.982 104.037 125.234 101.444 127.828L82.2778 146.993C80.7778 148.493 78.7428 149.336 76.6208 149.336H47.1318C46.5798 149.336 46.1318 149.783 46.1318 150.336ZM77.6401 170.397H20.8581C20.3061 170.397 19.8581 170.844 19.8581 171.397C19.8581 171.95 20.3061 172.397 20.8581 172.397H77.6401C78.1921 172.397 78.6401 171.95 78.6401 171.397C78.6401 170.844 78.1921 170.397 77.6401 170.397ZM122.326 92.7736L121.705 93.3946C121.314 93.7856 121.314 94.4186 121.705 94.8086C121.9 95.0036 122.156 95.1016 122.412 95.1016C122.668 95.1016 122.924 95.0036 123.119 94.8086L123.74 94.1876C124.131 93.7966 124.131 93.1646 123.74 92.7736C123.349 92.3826 122.717 92.3826 122.326 92.7736ZM117.716 97.384L108.811 106.288C108.114 106.986 107.598 107.876 107.49 108.857C107.35 110.117 107.778 111.326 108.657 112.205L114.209 117.757C114.404 117.952 114.66 118.05 114.916 118.05C115.172 118.05 115.428 117.952 115.623 117.757C116.014 117.366 116.014 116.734 115.623 116.343L110.071 110.791C109.679 110.4 109.464 109.878 109.464 109.324C109.464 108.77 109.679 108.248 110.071 107.857L119.13 98.798C119.521 98.407 119.521 97.775 119.13 97.384C118.739 96.993 118.107 96.993 117.716 97.384ZM187.023 123.954C186.632 123.563 186 123.563 185.609 123.954C185.218 124.345 185.218 124.977 185.609 125.368L186.943 126.703C187.335 127.095 187.551 127.616 187.551 128.17C187.551 128.725 187.335 129.246 186.943 129.638L184.026 132.555C183.636 132.945 183.636 133.578 184.026 133.969C184.222 134.164 184.478 134.262 184.733 134.262C184.989 134.262 185.245 134.164 185.44 133.969L188.357 131.052C189.127 130.282 189.551 129.259 189.551 128.17C189.551 127.081 189.127 126.058 188.357 125.289L187.023 123.954Z" fill="#1F2225"/>
<path fill-rule="evenodd" clip-rule="evenodd" d="M191.385 133.896L163.656 161.625C160.494 164.788 155.368 164.788 152.206 161.625L139.013 148.432C138.232 147.652 138.232 146.385 139.013 145.604L175.364 109.253C176.144 108.472 177.411 108.472 178.192 109.253L191.385 122.447C194.547 125.609 194.547 130.735 191.385 133.896ZM124.48 133.9C122.918 132.337 122.918 129.805 124.48 128.243L147.438 105.285C147.828 104.894 147.828 104.261 147.438 103.871C147.047 103.48 146.414 103.48 146.024 103.871L121.652 128.243C120.871 129.024 119.605 129.024 118.823 128.243L105.63 115.049C102.469 111.888 102.469 106.762 105.63 103.6L133.36 75.8707C136.517 72.7147 141.653 72.7147 144.809 75.8707L158.002 89.0637C158.783 89.8447 158.783 91.1117 158.002 91.8917L150.784 99.1097C150.394 99.4997 150.394 100.133 150.784 100.524C150.98 100.719 151.236 100.817 151.491 100.817C151.747 100.817 152.003 100.719 152.198 100.524L158.002 94.7207C159.564 93.1587 162.097 93.1587 163.659 94.7207L172.535 103.597C174.097 105.159 174.097 107.692 172.535 109.253L139.013 142.776C137.451 144.338 134.919 144.338 133.357 142.776L124.48 133.9ZM166.861 91.6607L167.178 91.3427C167.965 90.5577 169.16 90.4387 170.081 90.9667C170.261 91.0707 170.434 91.1897 170.588 91.3427L171.701 92.4577L172.956 93.7107L175.322 96.0767L175.912 96.6667C176.144 96.8997 176.322 97.1707 176.441 97.4657C176.556 97.7497 176.618 98.0567 176.618 98.3727C176.618 99.0167 176.367 99.6227 175.912 100.078L175.293 100.698C174.511 101.479 173.245 101.479 172.464 100.698L166.558 94.7917C165.777 94.0107 165.777 92.7447 166.558 91.9627L166.861 91.6607ZM177.202 101.617L177.204 101.615C177.929 100.889 178.456 99.9617 178.583 98.9437C178.756 97.5557 178.293 96.2197 177.326 95.2527L172.002 89.9287C170.279 88.2067 167.487 88.2067 165.764 89.9287C164.641 91.0527 162.819 91.0527 161.696 89.9287L146.223 74.4567C142.286 70.5207 135.882 70.5207 131.946 74.4567L118.88 87.5227C117.049 89.3537 113.986 88.9887 112.637 86.7787L100.861 67.4857C100.718 67.2517 100.485 67.0867 100.217 67.0287C99.9478 66.9727 99.6688 67.0257 99.4418 67.1817L89.3308 74.1027C85.8508 76.4847 81.0638 74.6277 80.0998 70.5227L68.3688 20.5337C67.8428 18.2937 70.8958 17.0837 72.0478 19.0767L91.9198 53.4667C92.0578 53.7067 92.2888 53.8777 92.5588 53.9407C92.8288 54.0017 93.1118 53.9507 93.3418 53.7977L106.391 45.0617C108.177 43.8647 110.606 44.8817 111.007 46.9947L115.507 70.7127C115.61 71.2547 116.131 71.6097 116.676 71.5087C117.219 71.4057 117.575 70.8827 117.472 70.3397L111.844 40.6787C111.781 40.3487 111.557 40.0727 111.248 39.9427C110.938 39.8127 110.584 39.8467 110.305 40.0337L100.219 46.7867C96.3748 49.3597 91.1558 48.1467 88.8418 44.1417L63.6228 0.499687C63.3748 0.0706868 62.8488 -0.112313 62.3888 0.0706868C61.9278 0.253687 61.6698 0.746687 61.7828 1.22869L80.4878 80.9307C80.5638 81.2517 80.7918 81.5157 81.0998 81.6347C81.4078 81.7527 81.7538 81.7127 82.0268 81.5267L97.0938 71.2117C98.5118 70.2417 100.454 70.6577 101.35 72.1247L112.19 89.8847C113.153 91.4617 112.91 93.4917 111.605 94.7977L104.45 101.953C102.594 103.809 101.379 106.265 101.269 108.888C101.149 111.748 102.207 114.455 104.216 116.463L116.773 129.021C119.507 131.754 119.507 136.187 116.773 138.92L95.0988 160.594C93.5058 162.188 91.3728 163.196 89.1198 163.208C87.6318 163.216 85.9898 162.814 84.5218 161.516C84.1078 161.151 83.4758 161.189 83.1098 161.603C82.7438 162.017 82.7828 162.649 83.1978 163.014C85.1018 164.698 87.1838 165.227 89.0518 165.227C89.5908 165.227 90.0998 165.173 90.5938 165.1L81.4718 174.221C80.7468 174.946 80.2208 175.874 80.0938 176.891C79.9208 178.28 80.3838 179.616 81.3498 180.582L86.5508 185.783C87.2758 186.507 88.2018 187.034 89.2188 187.162C90.6068 187.336 91.9448 186.874 92.9118 185.906L93.6998 185.118C94.0908 184.728 94.0908 184.094 93.7008 183.704H93.6998C93.3098 183.313 92.6768 183.313 92.2858 183.704L91.4978 184.492C91.1918 184.798 90.8208 184.994 90.4308 185.1C89.6218 185.322 88.7228 185.125 88.0878 184.492L87.2528 183.657L85.9988 182.403L83.8028 180.208L82.7638 179.167C82.6908 179.095 82.6328 179.012 82.5698 178.932C82.2438 178.512 82.0578 178.004 82.0578 177.462C82.0578 176.818 82.3088 176.212 82.7638 175.757L121.016 137.506C122.187 136.334 124.087 136.334 125.259 137.506L129.75 141.998C130.922 143.169 130.922 145.069 129.75 146.24L126.001 149.989L124.12 151.87L122.324 153.666C121.933 154.056 121.933 154.689 122.324 155.08C122.715 155.47 123.347 155.47 123.738 155.08L128.336 150.483C131.069 147.749 135.502 147.749 138.235 150.483L150.792 163.04C152.76 165.007 155.345 165.992 157.931 165.992C160.516 165.992 163.101 165.007 165.07 163.04L192.799 135.31C194.809 133.301 195.866 130.594 195.747 127.735C195.637 125.112 194.422 122.655 192.565 120.798L177.202 105.435C176.147 104.381 176.147 102.671 177.202 101.617Z" fill="#1F2225"/>
<path fill-rule="evenodd" clip-rule="evenodd" d="M163.005 107.185C162.221 107.968 160.854 107.968 160.07 107.185C159.261 106.375 159.261 105.059 160.07 104.249C160.474 103.845 161.006 103.643 161.537 103.643C162.069 103.643 162.6 103.845 163.005 104.249C163.814 105.059 163.814 106.375 163.005 107.185ZM164.419 102.835C162.829 101.248 160.245 101.248 158.656 102.835C157.886 103.605 157.462 104.628 157.462 105.717C157.462 106.806 157.886 107.83 158.656 108.599C159.425 109.369 160.449 109.792 161.537 109.792C162.626 109.792 163.65 109.369 164.419 108.599C166.007 107.01 166.007 104.424 164.419 102.835ZM136.91 133.28C136.1 134.089 134.784 134.089 133.975 133.28C133.166 132.47 133.166 131.154 133.975 130.344C134.367 129.953 134.888 129.737 135.442 129.737C135.996 129.737 136.518 129.953 136.91 130.344C137.719 131.154 137.719 132.47 136.91 133.28ZM135.442 127.737C134.354 127.737 133.33 128.161 132.561 128.93C131.791 129.7 131.367 130.723 131.367 131.812C131.367 132.901 131.791 133.925 132.561 134.694C133.355 135.488 134.399 135.885 135.442 135.885C136.486 135.885 137.529 135.488 138.324 134.694C139.912 133.105 139.912 130.519 138.324 128.93C137.555 128.161 136.531 127.737 135.442 127.737ZM121.75 165.235C120.478 166.506 118.407 166.506 117.134 165.235L111.104 159.206C109.832 157.933 109.832 155.862 111.104 154.589C111.741 153.953 112.577 153.635 113.413 153.635C114.248 153.635 115.084 153.954 115.72 154.589L121.75 160.62C123.022 161.892 123.022 163.963 121.75 165.235ZM115.72 171.264C114.447 172.536 112.376 172.535 111.104 171.264L105.075 165.235C103.803 163.963 103.803 161.892 105.075 160.62C105.711 159.984 106.547 159.666 107.383 159.666C108.218 159.666 109.054 159.984 109.69 160.62L115.72 166.649C116.993 167.922 116.993 169.992 115.72 171.264ZM109.69 177.295C108.418 178.566 106.348 178.566 105.075 177.295L99.0445 171.264C97.7725 169.992 97.7725 167.922 99.0445 166.649C100.318 165.377 102.389 165.378 103.661 166.649L109.69 172.678C110.963 173.951 110.963 176.022 109.69 177.295ZM103.661 183.324C102.389 184.594 100.318 184.595 99.0445 183.324L93.0155 177.295C91.7435 176.022 91.7435 173.951 93.0155 172.678C93.6515 172.043 94.4875 171.724 95.3235 171.724C96.1585 171.724 96.9945 172.043 97.6305 172.678L103.661 178.709C104.934 179.981 104.934 182.051 103.661 183.324ZM120.682 156.723L117.856 153.898L117.134 153.175C116.803 152.843 116.429 152.586 116.041 152.361C114.873 151.685 113.509 151.491 112.225 151.787C111.296 152.001 110.412 152.454 109.69 153.175C109.66 153.207 109.64 153.244 109.61 153.275C108.434 154.509 107.977 156.172 108.232 157.748C107.555 157.637 106.865 157.662 106.195 157.817C105.267 158.031 104.383 158.484 103.661 159.206C102.94 159.927 102.486 160.811 102.272 161.739C102.118 162.41 102.093 163.1 102.203 163.777C101.526 163.668 100.835 163.692 100.165 163.846C99.2365 164.06 98.3525 164.514 97.6305 165.235C96.9095 165.957 96.4565 166.84 96.2415 167.769C96.0875 168.439 96.0625 169.13 96.1725 169.806C95.4965 169.696 94.8055 169.72 94.1365 169.875C93.2075 170.089 92.3235 170.543 91.6015 171.264C90.8795 171.987 90.4265 172.871 90.2125 173.798C89.9165 175.083 90.1105 176.446 90.7865 177.615C91.0115 178.004 91.2695 178.377 91.6015 178.709L91.9515 179.058L94.3025 181.41L95.1485 182.256L97.6305 184.738C98.6565 185.764 100.005 186.277 101.353 186.277C102.701 186.277 104.049 185.764 105.075 184.738C106.318 183.496 106.796 181.782 106.533 180.167C106.815 180.213 107.098 180.248 107.383 180.248C108.73 180.248 110.079 179.735 111.104 178.709C112.348 177.465 112.826 175.752 112.563 174.136C112.844 174.182 113.128 174.217 113.412 174.217C114.76 174.217 116.108 173.705 117.134 172.678C118.377 171.436 118.855 169.722 118.592 168.107C118.874 168.153 119.157 168.188 119.442 168.188C120.79 168.188 122.138 167.675 123.164 166.649C125.216 164.597 125.216 161.257 123.164 159.206L120.682 156.723ZM77.6401 162.238C77.0881 162.238 76.6401 162.685 76.6401 163.238V164.804C76.6401 165.357 77.0881 165.804 77.6401 165.804C78.1921 165.804 78.6401 165.357 78.6401 164.804V163.238C78.6401 162.685 78.1921 162.238 77.6401 162.238Z" fill="#1F2225"/>
<mask id="mask0" mask-type="alpha" maskUnits="userSpaceOnUse" x="3" y="58" width="59" height="23">
<path d="M3 80.978V58.288H61.545V80.978H3Z" fill="white"/>
</mask>
<g mask="url(#mask0)">
<path fill-rule="evenodd" clip-rule="evenodd" d="M47.3594 70.6916L37.3034 68.4176C36.8084 68.3056 36.3074 68.5836 36.1394 69.0636L33.7064 76.0286C33.2774 77.2546 31.8124 77.7536 30.7244 77.0436L16.4774 67.7356C15.5064 67.1016 16.2124 65.6006 17.3194 65.9426L29.0474 69.5686C29.5474 69.7226 30.0774 69.4686 30.2714 68.9856L32.7404 62.8326C33.1904 61.7116 34.5224 61.2416 35.5754 61.8326L48.0694 68.8436C49.0754 69.4086 48.4844 70.9456 47.3594 70.6916ZM61.4784 75.0576C61.6564 74.5946 61.4674 74.0696 61.0344 73.8266L33.5734 58.4166C33.3224 58.2746 33.0224 58.2496 32.7524 58.3456C32.4804 58.4406 32.2634 58.6486 32.1564 58.9156L29.1014 66.5306C28.9074 67.0146 28.3754 67.2676 27.8784 67.1136L4.29541 59.8226C3.81841 59.6756 3.30641 59.9016 3.09441 60.3536C2.88241 60.8046 3.03541 61.3426 3.45341 61.6156L32.8384 80.8146C33.0034 80.9216 33.1934 80.9776 33.3854 80.9776C33.4944 80.9776 33.6034 80.9596 33.7084 80.9236C33.9994 80.8246 34.2284 80.5976 34.3294 80.3076L37.4394 71.4076C37.6064 70.9276 38.1074 70.6496 38.6034 70.7616L60.3244 75.6746C60.8084 75.7846 61.2994 75.5226 61.4784 75.0576Z" fill="#1F2225"/>
</g>
<path fill-rule="evenodd" clip-rule="evenodd" d="M87.2949 100.133C86.7429 100.133 86.2949 100.58 86.2949 101.133C86.2949 101.967 85.6189 102.643 84.7849 102.643C84.2319 102.643 83.7849 103.09 83.7849 103.643C83.7849 104.195 84.2319 104.643 84.7849 104.643C85.6189 104.643 86.2949 105.319 86.2949 106.153C86.2949 106.705 86.7429 107.153 87.2949 107.153C87.8469 107.153 88.2949 106.705 88.2949 106.153C88.2949 105.319 88.9709 104.643 89.8049 104.643C90.3579 104.643 90.8049 104.195 90.8049 103.643C90.8049 103.09 90.3579 102.643 89.8049 102.643C88.9709 102.643 88.2949 101.967 88.2949 101.133C88.2949 100.58 87.8469 100.133 87.2949 100.133ZM32.6426 117.747H32.1326C31.5806 117.747 31.1326 117.3 31.1326 116.747V116.237C31.1326 115.684 30.6846 115.237 30.1326 115.237C29.5796 115.237 29.1326 115.684 29.1326 116.237V116.747C29.1326 117.3 28.6846 117.747 28.1326 117.747H27.6226C27.0706 117.747 26.6226 118.194 26.6226 118.747C26.6226 119.3 27.0706 119.747 27.6226 119.747H28.1326C28.6846 119.747 29.1326 120.195 29.1326 120.747V121.258C29.1326 121.81 29.5796 122.258 30.1326 122.258C30.6846 122.258 31.1326 121.81 31.1326 121.258V120.747C31.1326 120.195 31.5806 119.747 32.1326 119.747H32.6426C33.1946 119.747 33.6426 119.3 33.6426 118.747C33.6426 118.194 33.1946 117.747 32.6426 117.747ZM149.507 32.6335C150.341 32.6335 151.017 33.3095 151.017 34.1435C151.017 34.6965 151.465 35.1435 152.017 35.1435C152.569 35.1435 153.017 34.6965 153.017 34.1435C153.017 33.3095 153.693 32.6335 154.527 32.6335C155.079 32.6335 155.527 32.1855 155.527 31.6335C155.527 31.0815 155.079 30.6335 154.527 30.6335C153.693 30.6335 153.017 29.9575 153.017 29.1235C153.017 28.5715 152.569 28.1235 152.017 28.1235C151.465 28.1235 151.017 28.5715 151.017 29.1235C151.017 29.9575 150.341 30.6335 149.507 30.6335C148.955 30.6335 148.507 31.0815 148.507 31.6335C148.507 32.1855 148.955 32.6335 149.507 32.6335ZM61.8179 88.8303L60.6349 90.0133C60.2439 90.4033 60.2439 91.0363 60.6349 91.4273C60.8299 91.6223 61.0859 91.7203 61.3419 91.7203C61.5979 91.7203 61.8539 91.6223 62.0489 91.4273L63.2319 90.2443C63.6229 89.8533 63.6229 89.2213 63.2319 88.8303C62.8409 88.4393 62.2089 88.4393 61.8179 88.8303ZM54.7187 97.3439C54.9137 97.5389 55.1697 97.6369 55.4257 97.6369C55.6817 97.6369 55.9377 97.5389 56.1327 97.3439L57.3157 96.1599C57.7067 95.7699 57.7067 95.1369 57.3157 94.7459C56.9257 94.3559 56.2917 94.3559 55.9017 94.7459L54.7187 95.9299C54.3277 96.3209 54.3277 96.9529 54.7187 97.3439ZM62.5249 97.6369C62.7809 97.6369 63.0369 97.5389 63.2319 97.3439C63.6229 96.9529 63.6229 96.3209 63.2319 95.9299L62.0489 94.7459C61.6579 94.3559 61.0249 94.3559 60.6349 94.7459C60.2439 95.1369 60.2439 95.7699 60.6349 96.1599L61.8179 97.3439C62.0129 97.5389 62.2689 97.6369 62.5249 97.6369ZM55.9018 91.427C56.0968 91.622 56.3528 91.72 56.6088 91.72C56.8648 91.72 57.1208 91.622 57.3158 91.427C57.7068 91.036 57.7068 90.404 57.3158 90.013L56.1328 88.83C55.7418 88.44 55.1088 88.44 54.7188 88.83C54.3278 89.221 54.3278 89.854 54.7188 90.244L55.9018 91.427ZM43.6714 40.196C44.5044 40.196 45.1814 40.873 45.1814 41.706C45.1814 42.538 44.5044 43.216 43.6714 43.216C42.8384 43.216 42.1614 42.538 42.1614 41.706C42.1614 40.873 42.8384 40.196 43.6714 40.196ZM43.6714 45.216C45.6074 45.216 47.1814 43.641 47.1814 41.706C47.1814 39.771 45.6074 38.196 43.6714 38.196C41.7364 38.196 40.1614 39.771 40.1614 41.706C40.1614 43.641 41.7364 45.216 43.6714 45.216Z" fill="#1F2225"/>
</svg>
