<svg width="256" height="212" viewBox="0 0 256 212" fill="none" xmlns="http://www.w3.org/2000/svg">
<g clip-path="url(#clip0)">
<path fill-rule="evenodd" clip-rule="evenodd" d="M58.261 26H125.781C154.01 26 176.893 48.884 176.893 77.112C176.893 90.199 187.502 100.809 200.589 100.809H200.592C228.999 100.809 252.027 123.836 252.027 152.243V152.246C252.027 180.653 228.999 203.681 200.592 203.681H174.594H59.759C43.874 203.681 30.998 190.805 30.998 174.921V174.919C30.998 159.035 43.874 146.158 59.759 146.158H62.513C71.802 146.158 79.332 138.628 79.332 129.34C79.332 120.051 71.802 112.521 62.513 112.521H58.261C34.369 112.521 15 93.152 15 69.26C15 45.368 34.369 26 58.261 26Z" fill="#4F545C" fill-opacity="0.3"/>
<path d="M20.5061 179.612C19.2427 179.604 18.0383 178.512 17.1578 176.576C16.2773 174.641 15.7928 172.021 15.811 169.293C15.8291 166.564 16.3484 163.951 17.2545 162.027C18.1607 160.104 19.3427 158.992 20.6061 159L20.5745 169.324L20.5061 179.612Z" fill="#FED2A4"/>
<path d="M20.5 159H80.5L104.5 135.5L109 136.5L112 140L110.5 145L102 153.5L110.5 158L85.5 180.5L73 180H20.5V159Z" fill="#FED2A4"/>
<path fill-rule="evenodd" clip-rule="evenodd" d="M109.439 27.9577C109.274 28.6277 109.822 29.2607 110.509 29.1917L117.234 28.5207C117.268 28.5177 117.301 28.5167 117.335 28.5167C117.835 28.5167 118.266 28.8907 118.327 29.3977L118.831 33.6397C118.965 34.7617 120.566 34.8357 120.802 33.7307L122.649 25.0947C122.787 24.4497 122.275 23.8507 121.617 23.8867L115.672 24.2077C115.15 24.2447 114.71 23.8707 114.63 23.3637L113.825 18.1997C113.657 17.1207 112.127 17.0537 111.866 18.1137L109.439 27.9577Z" fill="#1F2225"/>
<path fill-rule="evenodd" clip-rule="evenodd" d="M171.582 108.816L175.321 105.077L172.956 102.712L169.217 106.451L171.582 108.816Z" fill="#9D6656"/>
<path fill-rule="evenodd" clip-rule="evenodd" d="M102.203 172.777C102.093 172.1 102.118 171.41 102.272 170.739L100.165 172.846C100.835 172.692 101.526 172.668 102.203 172.777ZM122.324 162.665L124.12 160.869C121.896 161.109 119.776 161.805 117.856 162.897L120.681 165.723L122.324 164.079C121.933 163.688 121.933 163.056 122.324 162.665Z" fill="#9D6656"/>
<path fill-rule="evenodd" clip-rule="evenodd" d="M106.88 164.875C107.227 165.222 107.227 165.783 106.88 166.13L106.194 166.816C106.864 166.661 107.554 166.637 108.232 166.747C107.976 165.172 108.433 163.509 109.609 162.274C109.585 162.255 109.555 162.246 109.532 162.224C109.186 161.877 109.186 161.315 109.532 160.969L124.627 145.874L123.136 144.384L82.7634 184.757C82.3084 185.212 82.0574 185.817 82.0574 186.462C82.0574 187.004 82.2434 187.512 82.5694 187.932L105.626 164.875C105.972 164.528 106.533 164.528 106.88 164.875ZM94.3027 190.409L91.9507 188.057C91.5837 188.367 91.2227 188.686 90.8797 189.03L87.2527 192.656L88.0877 193.491C88.7227 194.125 89.6217 194.321 90.4307 194.099L93.9067 190.624C94.0197 190.511 94.1577 190.448 94.3027 190.409ZM167.962 105.195L171.701 101.457L170.587 100.342C170.434 100.189 170.26 100.07 170.081 99.9665C169.075 100.49 167.967 100.724 166.86 100.66L165.143 102.377L167.962 105.195ZM90.2124 182.798L83.8034 189.207L85.9984 191.402L90.7864 186.614C90.1104 185.445 89.9164 184.082 90.2124 182.798ZM125.904 158.992C125.937 158.992 125.969 158.988 126.001 158.988L127.879 157.11C125.224 157.4 122.711 158.318 120.52 159.807C122.241 159.273 124.05 158.991 125.904 158.992ZM173.878 111.111L175.912 109.077C176.367 108.622 176.618 108.016 176.618 107.372C176.618 107.056 176.556 106.75 176.441 106.465L172.836 110.07L173.878 111.111ZM96.1729 178.806C96.0629 178.129 96.0879 177.439 96.2419 176.769L94.1359 178.874C94.8059 178.72 95.4959 178.696 96.1729 178.806Z" fill="#844D3C"/>
<path d="M93.1298 188.298C91.1422 186.467 90.9687 183.389 92.738 181.346L92.8882 181.173C93.2699 180.732 93.7257 180.362 94.2349 180.078L95.9248 179.138C96.5787 178.773 97.1426 178.267 97.5748 177.656L98.8462 175.858C99.1768 175.39 99.5853 174.983 100.054 174.654L102.082 173.229C102.55 172.9 102.959 172.493 103.289 172.025L104.718 170.005C105.048 169.538 105.457 169.13 105.925 168.801L107.606 167.62C108.298 167.134 108.855 166.48 109.226 165.719L109.442 165.275C110.943 162.196 115.025 161.503 117.457 163.915L123.305 169.713C124.402 170.801 124.412 172.571 123.326 173.671C123.11 173.889 122.86 174.07 122.586 174.207L120.326 175.337C119.461 175.77 118.739 176.444 118.25 177.279L117.114 179.215C116.644 180.017 115.959 180.672 115.137 181.106L113.878 181.772C112.981 182.246 112.249 182.982 111.78 183.882L111.288 184.826C110.791 185.78 110.001 186.548 109.033 187.016L108.085 187.475C107.103 187.951 106.303 188.735 105.808 189.707L105.242 190.82C103.739 193.772 99.8345 194.473 97.3985 192.23L93.1298 188.298Z" fill="#FED2A4"/>
<path d="M84.4444 181.092C84.4124 181.455 84.2622 181.803 84.0047 182.111C83.7471 182.419 83.3887 182.679 82.9551 182.873C82.5216 183.066 82.0263 183.958 81.5 184C80.9737 184.042 80.0179 183.117 79.5 183C78.9821 182.883 78.9123 182.808 78.5023 182.553C78.0923 182.299 77.7637 181.99 77.5403 181.647C77.3169 181.305 77.2042 180.938 77.2103 180.573C77.2165 180.208 77.3413 179.855 77.5759 179.537L81.5 180L84.5 180L84.4444 181.092Z" fill="#FED2A4"/>
<path d="M108.886 157.765C108.951 157.659 108.934 157.503 108.834 157.306C108.734 157.109 108.554 156.874 108.303 156.616C108.053 156.357 107.738 156.079 107.376 155.799C107.013 155.518 106.611 155.24 106.192 154.98C105.772 154.72 105.344 154.483 104.931 154.283C104.519 154.084 104.13 153.925 103.787 153.816C103.444 153.707 103.154 153.649 102.933 153.648C102.712 153.646 102.565 153.699 102.499 153.805L105.692 155.785L108.886 157.765Z" fill="#FED2A4"/>
<path fill-rule="evenodd" clip-rule="evenodd" d="M116.041 161.36L116.874 160.528C120.291 157.11 124.835 155.227 129.667 155.228C129.701 155.228 129.733 155.223 129.766 155.223L131.872 153.118L125.882 147.129L112.225 160.786C113.509 160.49 114.873 160.684 116.041 161.36ZM109.533 162.224C109.555 162.246 109.585 162.255 109.61 162.275C109.639 162.244 109.659 162.206 109.69 162.175C110.412 161.453 111.296 161 112.224 160.787L125.882 147.129L124.627 145.874L109.533 160.969C109.186 161.316 109.186 161.877 109.533 162.224ZM91.6016 180.264C92.3236 179.542 93.2076 179.089 94.1366 178.874L96.2416 176.769C96.4556 175.84 96.9096 174.956 97.6306 174.235C98.3526 173.514 99.2366 173.06 100.165 172.846L102.272 170.739C102.486 169.811 102.94 168.927 103.661 168.205C104.383 167.484 105.267 167.031 106.195 166.817L106.881 166.13C107.227 165.784 107.227 165.222 106.881 164.875C106.534 164.529 105.973 164.529 105.626 164.875L82.5696 187.932C82.6326 188.012 82.6906 188.095 82.7636 188.167L83.8036 189.207L90.2126 182.798C90.4266 181.87 90.8796 180.987 91.6016 180.264Z" fill="#9D6656"/>
<path fill-rule="evenodd" clip-rule="evenodd" d="M116.873 160.529L116.04 161.361C116.429 161.586 116.802 161.843 117.134 162.175L117.856 162.898C119.776 161.805 121.895 161.11 124.12 160.87L126.001 158.989C125.969 158.989 125.936 158.993 125.904 158.993C124.05 158.992 122.241 159.274 120.52 159.808C122.711 158.319 125.224 157.401 127.878 157.111L129.766 155.224C129.732 155.224 129.7 155.229 129.667 155.229C124.835 155.228 120.29 157.111 116.873 160.529ZM91.9512 188.058L91.6012 187.708C91.2692 187.376 91.0112 187.003 90.7862 186.615L85.9982 191.403L87.2532 192.657L90.8792 189.031C91.2222 188.687 91.5832 188.368 91.9512 188.058ZM93.9063 190.624L90.4303 194.1C90.8213 193.993 91.1923 193.798 91.4973 193.491L92.2863 192.703C92.6773 192.312 93.3093 192.312 93.7003 192.703L95.1483 191.255L94.3023 190.409C94.1583 190.448 94.0193 190.511 93.9063 190.624Z" fill="#844D3C"/>
<path fill-rule="evenodd" clip-rule="evenodd" d="M169.217 106.45L172.956 102.711L171.701 101.457L167.963 105.195L169.217 106.45Z" fill="#9D6656"/>
<path fill-rule="evenodd" clip-rule="evenodd" d="M170.081 99.967C169.16 99.439 167.965 99.558 167.178 100.343L166.861 100.66C167.967 100.725 169.075 100.49 170.081 99.967ZM172.836 110.071L176.44 106.467C176.321 106.172 176.144 105.9 175.912 105.668L175.321 105.077L171.582 108.816L172.836 110.071Z" fill="#844D3C"/>
<path fill-rule="evenodd" clip-rule="evenodd" d="M117.716 106.384C118.107 105.993 118.739 105.993 119.13 106.384C119.521 106.775 119.521 107.407 119.13 107.798L110.071 116.857C109.679 117.248 109.464 117.77 109.464 118.324C109.464 118.878 109.679 119.4 110.071 119.791L115.623 125.343C116.014 125.734 116.014 126.366 115.623 126.757C115.428 126.952 115.172 127.05 114.916 127.05C114.66 127.05 114.404 126.952 114.209 126.757L108.657 121.205C107.887 120.436 107.464 119.413 107.464 118.324C107.464 117.236 107.887 116.212 108.657 115.443L117.716 106.384ZM121.705 102.395L122.326 101.774C122.716 101.383 123.349 101.383 123.74 101.774C124.131 102.164 124.131 102.797 123.74 103.188L123.119 103.809C122.924 104.004 122.668 104.102 122.412 104.102C122.156 104.102 121.9 104.004 121.705 103.809C121.314 103.418 121.314 102.785 121.705 102.395ZM164.419 117.599C163.65 118.368 162.626 118.792 161.537 118.792C160.449 118.792 159.425 118.368 158.656 117.599C157.886 116.829 157.462 115.806 157.462 114.717C157.462 113.628 157.886 112.605 158.656 111.835C160.245 110.247 162.829 110.247 164.419 111.835C166.007 113.424 166.007 116.01 164.419 117.599ZM131.367 140.813C131.367 139.724 131.791 138.7 132.561 137.931C133.33 137.161 134.354 136.738 135.442 136.738C136.531 136.738 137.554 137.161 138.324 137.931C139.912 139.52 139.912 142.106 138.324 143.695C137.529 144.488 136.486 144.886 135.442 144.886C134.399 144.886 133.355 144.488 132.561 143.695C131.791 142.925 131.367 141.902 131.367 140.813ZM105.63 124.049L120.237 138.656L146.023 112.87C146.414 112.48 147.047 112.48 147.437 112.87C147.828 113.261 147.828 113.894 147.437 114.284L121.651 140.071L136.184 154.604L175.363 115.425L160.83 100.892L152.198 109.524C152.003 109.719 151.747 109.817 151.491 109.817C151.235 109.817 150.979 109.719 150.784 109.524C150.393 109.133 150.393 108.5 150.784 108.11L159.416 99.478L144.808 84.871C141.652 81.715 136.516 81.715 133.359 84.871L105.63 112.6C102.473 115.756 102.473 120.893 105.63 124.049Z" fill="#7F8080"/>
<path d="M16.5 74.5L27.5 77L31.5 74.5L32 71.5L34 70.5H38L49 77.5L50 80L36.5 78.5L33 87.5L28 85L25 83L14 76L16.5 74.5Z" fill="#E0C310"/>
<path d="M67.5 27H72L90.5 56L98 59L109.5 51.5L114.5 65.5L116.5 79.5L117.5 90L118 95.5V98L116.5 100.5L111.5 95L107.5 90L100 76.5L88 84L81.5 85L67.5 27Z" fill="#FBD907"/>
<path fill-rule="evenodd" clip-rule="evenodd" d="M160.83 100.892L152.198 109.524C152.003 109.719 151.747 109.817 151.491 109.817C151.235 109.817 150.979 109.719 150.784 109.524L147.437 112.871C147.828 113.261 147.828 113.894 147.437 114.285L121.651 140.071L136.184 154.604L175.363 115.425L160.83 100.892Z" fill="#C9A926"/>
<path fill-rule="evenodd" clip-rule="evenodd" d="M188.357 140.052L185.44 142.969C185.245 143.164 184.989 143.262 184.733 143.262C184.477 143.262 184.221 143.164 184.026 142.969C183.635 142.578 183.635 141.946 184.026 141.555L186.943 138.638C187.335 138.246 187.55 137.725 187.55 137.17C187.55 136.616 187.335 136.095 186.943 135.703L185.608 134.368C185.218 133.978 185.218 133.345 185.608 132.954C185.999 132.564 186.632 132.564 187.023 132.954L188.357 134.289C189.127 135.059 189.55 136.081 189.55 137.17C189.55 138.259 189.127 139.282 188.357 140.052ZM191.384 131.447L176.777 116.839L137.598 156.018L152.206 170.625C155.362 173.781 160.499 173.781 163.655 170.625L191.384 142.896C194.541 139.74 194.541 134.603 191.384 131.447Z" fill="#7F8080"/>
<path fill-rule="evenodd" clip-rule="evenodd" d="M160.07 113.249C159.261 114.059 159.261 115.375 160.07 116.185C160.854 116.968 162.221 116.968 163.005 116.185C163.814 115.375 163.814 114.059 163.005 113.249C162.6 112.845 162.069 112.643 161.537 112.643C161.006 112.643 160.474 112.845 160.07 113.249ZM136.91 139.345C136.518 138.953 135.996 138.738 135.442 138.738C134.888 138.738 134.367 138.953 133.975 139.345C133.166 140.155 133.166 141.471 133.975 142.281C134.784 143.089 136.1 143.089 136.91 142.281C137.719 141.471 137.719 140.155 136.91 139.345Z" fill="#F1CD3A"/>
<path fill-rule="evenodd" clip-rule="evenodd" d="M220.31 125.527H213.488C212.936 125.527 212.488 125.974 212.488 126.527C212.488 127.08 212.936 127.527 213.488 127.527H220.31C220.862 127.527 221.31 127.08 221.31 126.527C221.31 125.974 220.862 125.527 220.31 125.527ZM209.443 104.584C209.557 104.584 209.672 104.564 209.785 104.523L216.195 102.19C216.714 102.002 216.982 101.428 216.793 100.909C216.604 100.39 216.029 100.124 215.511 100.312L209.101 102.645C208.582 102.833 208.315 103.407 208.503 103.926C208.651 104.332 209.035 104.584 209.443 104.584ZM202.378 78.2585L197.152 82.6435C196.729 82.9975 196.673 83.6285 197.028 84.0515C197.226 84.2875 197.51 84.4085 197.795 84.4085C198.022 84.4085 198.25 84.3315 198.437 84.1745L203.663 79.7895C204.086 79.4355 204.142 78.8045 203.787 78.3815C203.432 77.9575 202.8 77.9045 202.378 78.2585ZM179.448 69.3005C179.605 69.3915 179.778 69.4345 179.947 69.4345C180.293 69.4345 180.629 69.2555 180.814 68.9345L184.225 63.0265C184.501 62.5485 184.338 61.9365 183.859 61.6605C183.381 61.3835 182.769 61.5485 182.493 62.0265L179.082 67.9345C178.806 68.4125 178.969 69.0245 179.448 69.3005ZM157.883 61.4509C157.942 61.4609 158 61.4659 158.058 61.4659C158.534 61.4659 158.956 61.1249 159.042 60.6399L160.226 53.9219C160.322 53.3779 159.959 52.8599 159.415 52.7629C158.868 52.6689 158.352 53.0309 158.257 53.5749L157.072 60.2919C156.976 60.8359 157.339 61.3549 157.883 61.4509ZM134.934 191.604C134.387 191.506 133.871 191.871 133.775 192.415L132.591 199.132C132.495 199.676 132.858 200.195 133.402 200.291C133.461 200.301 133.519 200.306 133.577 200.306C134.053 200.306 134.475 199.965 134.56 199.48L135.745 192.762C135.841 192.218 135.478 191.7 134.934 191.604ZM133.401 52.7634C132.857 52.8594 132.494 53.3784 132.59 53.9224L133.775 60.6394C133.86 61.1244 134.282 61.4664 134.758 61.4664C134.816 61.4664 134.874 61.4614 134.933 61.4514C135.477 61.3544 135.84 60.8364 135.744 60.2924L134.56 53.5744C134.464 53.0314 133.946 52.6684 133.401 52.7634ZM157.883 191.604C157.339 191.7 156.976 192.218 157.072 192.762L158.257 199.48C158.342 199.965 158.764 200.306 159.24 200.306C159.298 200.306 159.356 200.301 159.415 200.291C159.959 200.195 160.322 199.676 160.226 199.132L159.042 192.415C158.946 191.871 158.429 191.505 157.883 191.604ZM180.814 184.12C180.537 183.641 179.925 183.477 179.448 183.754C178.969 184.03 178.806 184.641 179.082 185.12L182.493 191.027C182.678 191.349 183.014 191.527 183.36 191.527C183.529 191.527 183.702 191.484 183.859 191.393C184.337 191.117 184.501 190.506 184.225 190.027L180.814 184.12ZM198.437 168.879C198.015 168.525 197.384 168.578 197.028 169.002C196.673 169.425 196.729 170.056 197.152 170.41L202.378 174.795C202.565 174.952 202.793 175.029 203.02 175.029C203.305 175.029 203.589 174.908 203.787 174.672C204.142 174.249 204.086 173.618 203.663 173.264L198.437 168.879ZM216.195 150.863L209.785 148.53C209.268 148.342 208.693 148.608 208.503 149.128C208.315 149.646 208.582 150.22 209.101 150.409L215.511 152.742C215.624 152.783 215.739 152.802 215.853 152.802C216.261 152.802 216.645 152.55 216.793 152.144C216.982 151.626 216.714 151.051 216.195 150.863ZM46.1318 159.336C46.1318 159.889 46.5798 160.336 47.1318 160.336H77.4488C79.5708 160.336 81.6058 159.493 83.1058 157.993L103.06 138.039C104.878 136.223 107.835 136.223 109.656 138.042C110.677 139.064 111.166 140.473 110.985 141.94C110.852 143.015 110.297 143.996 109.53 144.763L101.213 153.078C100.822 153.469 100.822 154.102 101.213 154.492C101.604 154.883 102.237 154.883 102.627 154.492L110.888 146.232C112.055 145.065 112.865 143.547 112.999 141.902C113.165 139.862 112.424 137.919 110.956 136.517C108.305 133.982 104.037 134.234 101.444 136.828L82.2778 155.993C80.7778 157.493 78.7428 158.336 76.6208 158.336H47.1318C46.5798 158.336 46.1318 158.783 46.1318 159.336ZM77.6401 179.397H20.8581C20.3061 179.397 19.8581 179.844 19.8581 180.397C19.8581 180.95 20.3061 181.397 20.8581 181.397H77.6401C78.1921 181.397 78.6401 180.95 78.6401 180.397C78.6401 179.844 78.1921 179.397 77.6401 179.397ZM122.326 101.774L121.705 102.395C121.314 102.786 121.314 103.419 121.705 103.809C121.9 104.004 122.156 104.102 122.412 104.102C122.668 104.102 122.924 104.004 123.119 103.809L123.74 103.188C124.131 102.797 124.131 102.165 123.74 101.774C123.349 101.383 122.717 101.383 122.326 101.774ZM117.716 106.384L108.811 115.288C108.114 115.986 107.598 116.876 107.49 117.857C107.35 119.117 107.778 120.326 108.657 121.205L114.209 126.757C114.404 126.952 114.66 127.05 114.916 127.05C115.172 127.05 115.428 126.952 115.623 126.757C116.014 126.366 116.014 125.734 115.623 125.343L110.071 119.791C109.679 119.4 109.464 118.878 109.464 118.324C109.464 117.77 109.679 117.248 110.071 116.857L119.13 107.798C119.521 107.407 119.521 106.775 119.13 106.384C118.739 105.993 118.107 105.993 117.716 106.384ZM187.023 132.954C186.632 132.563 186 132.563 185.609 132.954C185.218 133.345 185.218 133.977 185.609 134.368L186.943 135.703C187.335 136.095 187.551 136.616 187.551 137.17C187.551 137.725 187.335 138.246 186.943 138.638L184.026 141.555C183.636 141.945 183.636 142.578 184.026 142.969C184.222 143.164 184.478 143.262 184.733 143.262C184.989 143.262 185.245 143.164 185.44 142.969L188.357 140.052C189.127 139.282 189.551 138.259 189.551 137.17C189.551 136.081 189.127 135.058 188.357 134.289L187.023 132.954Z" fill="#1F2225"/>
<path fill-rule="evenodd" clip-rule="evenodd" d="M191.385 142.896L163.656 170.625C160.494 173.788 155.368 173.788 152.206 170.625L139.013 157.432C138.232 156.652 138.232 155.385 139.013 154.604L175.364 118.253C176.144 117.472 177.411 117.472 178.192 118.253L191.385 131.447C194.547 134.609 194.547 139.735 191.385 142.896ZM124.48 142.9C122.918 141.337 122.918 138.805 124.48 137.243L147.438 114.285C147.828 113.894 147.828 113.261 147.438 112.871C147.047 112.48 146.414 112.48 146.024 112.871L121.652 137.243C120.871 138.024 119.605 138.024 118.823 137.243L105.63 124.049C102.469 120.888 102.469 115.762 105.63 112.6L133.36 84.8707C136.517 81.7147 141.653 81.7147 144.809 84.8707L158.002 98.0637C158.783 98.8447 158.783 100.112 158.002 100.892L150.784 108.11C150.394 108.5 150.394 109.133 150.784 109.524C150.98 109.719 151.236 109.817 151.491 109.817C151.747 109.817 152.003 109.719 152.198 109.524L158.002 103.721C159.564 102.159 162.097 102.159 163.659 103.721L172.535 112.597C174.097 114.159 174.097 116.692 172.535 118.253L139.013 151.776C137.451 153.338 134.919 153.338 133.357 151.776L124.48 142.9ZM166.861 100.661L167.178 100.343C167.965 99.5577 169.16 99.4387 170.081 99.9667C170.261 100.071 170.434 100.19 170.588 100.343L171.701 101.458L172.956 102.711L175.322 105.077L175.912 105.667C176.144 105.9 176.322 106.171 176.441 106.466C176.556 106.75 176.618 107.057 176.618 107.373C176.618 108.017 176.367 108.623 175.912 109.078L175.293 109.698C174.511 110.479 173.245 110.479 172.464 109.698L166.558 103.792C165.777 103.011 165.777 101.745 166.558 100.963L166.861 100.661ZM177.202 110.617L177.204 110.615C177.929 109.889 178.456 108.962 178.583 107.944C178.756 106.556 178.293 105.22 177.326 104.253L172.002 98.9287C170.279 97.2067 167.487 97.2067 165.764 98.9287C164.641 100.053 162.819 100.053 161.696 98.9287L146.223 83.4567C142.286 79.5207 135.882 79.5207 131.946 83.4567L118.88 96.5227C117.049 98.3537 113.986 97.9887 112.637 95.7787L100.861 76.4857C100.718 76.2517 100.485 76.0867 100.217 76.0287C99.9478 75.9727 99.6688 76.0257 99.4418 76.1817L89.3308 83.1027C85.8508 85.4847 81.0638 83.6277 80.0998 79.5227L68.3688 29.5337C67.8428 27.2937 70.8958 26.0837 72.0478 28.0767L91.9198 62.4667C92.0578 62.7067 92.2888 62.8777 92.5588 62.9407C92.8288 63.0017 93.1118 62.9507 93.3418 62.7977L106.391 54.0617C108.177 52.8647 110.606 53.8817 111.007 55.9947L115.507 79.7127C115.61 80.2547 116.131 80.6097 116.676 80.5087C117.219 80.4057 117.575 79.8827 117.472 79.3397L111.844 49.6787C111.781 49.3487 111.557 49.0727 111.248 48.9427C110.938 48.8127 110.584 48.8467 110.305 49.0337L100.219 55.7867C96.3748 58.3597 91.1558 57.1467 88.8418 53.1417L63.6228 9.49969C63.3748 9.07069 62.8488 8.88769 62.3888 9.07069C61.9278 9.25369 61.6698 9.74669 61.7828 10.2287L80.4878 89.9307C80.5638 90.2517 80.7918 90.5157 81.0998 90.6347C81.4078 90.7527 81.7538 90.7127 82.0268 90.5267L97.0938 80.2117C98.5118 79.2417 100.454 79.6577 101.35 81.1247L112.19 98.8847C113.153 100.462 112.91 102.492 111.605 103.798L104.45 110.953C102.594 112.809 101.379 115.265 101.269 117.888C101.149 120.748 102.207 123.455 104.216 125.463L116.773 138.021C119.507 140.754 119.507 145.187 116.773 147.92L95.0988 169.594C93.5058 171.188 91.3728 172.196 89.1198 172.208C87.6318 172.216 85.9898 171.814 84.5218 170.516C84.1078 170.151 83.4758 170.189 83.1098 170.603C82.7438 171.017 82.7828 171.649 83.1978 172.014C85.1018 173.698 87.1838 174.227 89.0518 174.227C89.5908 174.227 90.0998 174.173 90.5938 174.1L81.4718 183.221C80.7468 183.946 80.2208 184.874 80.0938 185.891C79.9208 187.28 80.3838 188.616 81.3498 189.582L86.5508 194.783C87.2758 195.507 88.2018 196.034 89.2188 196.162C90.6068 196.336 91.9448 195.874 92.9118 194.906L93.6998 194.118C94.0908 193.728 94.0908 193.094 93.7008 192.704H93.6998C93.3098 192.313 92.6768 192.313 92.2858 192.704L91.4978 193.492C91.1918 193.798 90.8208 193.994 90.4308 194.1C89.6218 194.322 88.7228 194.125 88.0878 193.492L87.2528 192.657L85.9988 191.403L83.8028 189.208L82.7638 188.167C82.6908 188.095 82.6328 188.012 82.5698 187.932C82.2438 187.512 82.0578 187.004 82.0578 186.462C82.0578 185.818 82.3088 185.212 82.7638 184.757L121.016 146.506C122.187 145.334 124.087 145.334 125.259 146.506L129.75 150.998C130.922 152.169 130.922 154.069 129.75 155.24L126.001 158.989L124.12 160.87L122.324 162.666C121.933 163.056 121.933 163.689 122.324 164.08C122.715 164.47 123.347 164.47 123.738 164.08L128.336 159.483C131.069 156.749 135.502 156.749 138.235 159.483L150.792 172.04C152.76 174.007 155.345 174.992 157.931 174.992C160.516 174.992 163.101 174.007 165.07 172.04L192.799 144.31C194.809 142.301 195.866 139.594 195.747 136.735C195.637 134.112 194.422 131.655 192.565 129.798L177.202 114.435C176.147 113.381 176.147 111.671 177.202 110.617Z" fill="#1F2225"/>
<path fill-rule="evenodd" clip-rule="evenodd" d="M163.005 116.185C162.221 116.968 160.854 116.968 160.07 116.185C159.261 115.375 159.261 114.059 160.07 113.249C160.474 112.845 161.006 112.643 161.537 112.643C162.069 112.643 162.6 112.845 163.005 113.249C163.814 114.059 163.814 115.375 163.005 116.185ZM164.419 111.835C162.829 110.248 160.245 110.248 158.656 111.835C157.886 112.605 157.462 113.628 157.462 114.717C157.462 115.806 157.886 116.83 158.656 117.599C159.425 118.369 160.449 118.792 161.537 118.792C162.626 118.792 163.65 118.369 164.419 117.599C166.007 116.01 166.007 113.424 164.419 111.835ZM136.91 142.28C136.1 143.089 134.784 143.089 133.975 142.28C133.166 141.47 133.166 140.154 133.975 139.344C134.367 138.953 134.888 138.737 135.442 138.737C135.996 138.737 136.518 138.953 136.91 139.344C137.719 140.154 137.719 141.47 136.91 142.28ZM135.442 136.737C134.354 136.737 133.33 137.161 132.561 137.93C131.791 138.7 131.367 139.723 131.367 140.812C131.367 141.901 131.791 142.925 132.561 143.694C133.355 144.488 134.399 144.885 135.442 144.885C136.486 144.885 137.529 144.488 138.324 143.694C139.912 142.105 139.912 139.519 138.324 137.93C137.555 137.161 136.531 136.737 135.442 136.737ZM121.75 174.235C120.478 175.506 118.407 175.506 117.134 174.235L111.104 168.206C109.832 166.933 109.832 164.862 111.104 163.589C111.741 162.953 112.577 162.635 113.413 162.635C114.248 162.635 115.084 162.954 115.72 163.589L121.75 169.62C123.022 170.892 123.022 172.963 121.75 174.235ZM115.72 180.264C114.447 181.536 112.376 181.535 111.104 180.264L105.075 174.235C103.803 172.963 103.803 170.892 105.075 169.62C105.711 168.984 106.547 168.666 107.383 168.666C108.218 168.666 109.054 168.984 109.69 169.62L115.72 175.649C116.993 176.922 116.993 178.992 115.72 180.264ZM109.69 186.295C108.418 187.566 106.348 187.566 105.075 186.295L99.0445 180.264C97.7725 178.992 97.7725 176.922 99.0445 175.649C100.318 174.377 102.389 174.378 103.661 175.649L109.69 181.678C110.963 182.951 110.963 185.022 109.69 186.295ZM103.661 192.324C102.389 193.594 100.318 193.595 99.0445 192.324L93.0155 186.295C91.7435 185.022 91.7435 182.951 93.0155 181.678C93.6515 181.043 94.4875 180.724 95.3235 180.724C96.1585 180.724 96.9945 181.043 97.6305 181.678L103.661 187.709C104.934 188.981 104.934 191.051 103.661 192.324ZM120.682 165.723L117.856 162.898L117.134 162.175C116.803 161.843 116.429 161.586 116.041 161.361C114.873 160.685 113.509 160.491 112.225 160.787C111.296 161.001 110.412 161.454 109.69 162.175C109.66 162.207 109.64 162.244 109.61 162.275C108.434 163.509 107.977 165.172 108.232 166.748C107.555 166.637 106.865 166.662 106.195 166.817C105.267 167.031 104.383 167.484 103.661 168.206C102.94 168.927 102.486 169.811 102.272 170.739C102.118 171.41 102.093 172.1 102.203 172.777C101.526 172.668 100.835 172.692 100.165 172.846C99.2365 173.06 98.3525 173.514 97.6305 174.235C96.9095 174.957 96.4565 175.84 96.2415 176.769C96.0875 177.439 96.0625 178.13 96.1725 178.806C95.4965 178.696 94.8055 178.72 94.1365 178.875C93.2075 179.089 92.3235 179.543 91.6015 180.264C90.8795 180.987 90.4265 181.871 90.2125 182.798C89.9165 184.083 90.1105 185.446 90.7865 186.615C91.0115 187.004 91.2695 187.377 91.6015 187.709L91.9515 188.058L94.3025 190.41L95.1485 191.256L97.6305 193.738C98.6565 194.764 100.005 195.277 101.353 195.277C102.701 195.277 104.049 194.764 105.075 193.738C106.318 192.496 106.796 190.782 106.533 189.167C106.815 189.213 107.098 189.248 107.383 189.248C108.73 189.248 110.079 188.735 111.104 187.709C112.348 186.465 112.826 184.752 112.563 183.136C112.844 183.182 113.128 183.217 113.412 183.217C114.76 183.217 116.108 182.705 117.134 181.678C118.377 180.436 118.855 178.722 118.592 177.107C118.874 177.153 119.157 177.188 119.442 177.188C120.79 177.188 122.138 176.675 123.164 175.649C125.216 173.597 125.216 170.257 123.164 168.206L120.682 165.723ZM77.6401 171.238C77.0881 171.238 76.6401 171.685 76.6401 172.238V173.804C76.6401 174.357 77.0881 174.804 77.6401 174.804C78.1921 174.804 78.6401 174.357 78.6401 173.804V172.238C78.6401 171.685 78.1921 171.238 77.6401 171.238Z" fill="#1F2225"/>
<mask id="mask0" mask-type="alpha" maskUnits="userSpaceOnUse" x="3" y="67" width="59" height="23">
<path d="M3 89.978V67.288H61.545V89.978H3Z" fill="white"/>
</mask>
<g mask="url(#mask0)">
<path fill-rule="evenodd" clip-rule="evenodd" d="M47.3594 79.6916L37.3034 77.4176C36.8084 77.3056 36.3074 77.5836 36.1394 78.0636L33.7064 85.0286C33.2774 86.2546 31.8124 86.7536 30.7244 86.0436L16.4774 76.7356C15.5064 76.1016 16.2124 74.6006 17.3194 74.9426L29.0474 78.5686C29.5474 78.7226 30.0774 78.4686 30.2714 77.9856L32.7404 71.8326C33.1904 70.7116 34.5224 70.2416 35.5754 70.8326L48.0694 77.8436C49.0754 78.4086 48.4844 79.9456 47.3594 79.6916ZM61.4784 84.0576C61.6564 83.5946 61.4674 83.0696 61.0344 82.8266L33.5734 67.4166C33.3224 67.2746 33.0224 67.2496 32.7524 67.3456C32.4804 67.4406 32.2634 67.6486 32.1564 67.9156L29.1014 75.5306C28.9074 76.0146 28.3754 76.2676 27.8784 76.1136L4.29541 68.8226C3.81841 68.6756 3.30641 68.9016 3.09441 69.3536C2.88241 69.8046 3.03541 70.3426 3.45341 70.6156L32.8384 89.8146C33.0034 89.9216 33.1934 89.9776 33.3854 89.9776C33.4944 89.9776 33.6034 89.9596 33.7084 89.9236C33.9994 89.8246 34.2284 89.5976 34.3294 89.3076L37.4394 80.4076C37.6064 79.9276 38.1074 79.6496 38.6034 79.7616L60.3244 84.6746C60.8084 84.7846 61.2994 84.5226 61.4784 84.0576Z" fill="#1F2225"/>
</g>
<path fill-rule="evenodd" clip-rule="evenodd" d="M87.2949 109.133C86.7429 109.133 86.2949 109.58 86.2949 110.133C86.2949 110.967 85.6189 111.643 84.7849 111.643C84.2319 111.643 83.7849 112.09 83.7849 112.643C83.7849 113.195 84.2319 113.643 84.7849 113.643C85.6189 113.643 86.2949 114.319 86.2949 115.153C86.2949 115.705 86.7429 116.153 87.2949 116.153C87.8469 116.153 88.2949 115.705 88.2949 115.153C88.2949 114.319 88.9709 113.643 89.8049 113.643C90.3579 113.643 90.8049 113.195 90.8049 112.643C90.8049 112.09 90.3579 111.643 89.8049 111.643C88.9709 111.643 88.2949 110.967 88.2949 110.133C88.2949 109.58 87.8469 109.133 87.2949 109.133ZM32.6426 126.747H32.1326C31.5806 126.747 31.1326 126.3 31.1326 125.747V125.237C31.1326 124.684 30.6846 124.237 30.1326 124.237C29.5796 124.237 29.1326 124.684 29.1326 125.237V125.747C29.1326 126.3 28.6846 126.747 28.1326 126.747H27.6226C27.0706 126.747 26.6226 127.194 26.6226 127.747C26.6226 128.3 27.0706 128.747 27.6226 128.747H28.1326C28.6846 128.747 29.1326 129.195 29.1326 129.747V130.258C29.1326 130.81 29.5796 131.258 30.1326 131.258C30.6846 131.258 31.1326 130.81 31.1326 130.258V129.747C31.1326 129.195 31.5806 128.747 32.1326 128.747H32.6426C33.1946 128.747 33.6426 128.3 33.6426 127.747C33.6426 127.194 33.1946 126.747 32.6426 126.747ZM149.507 41.6335C150.341 41.6335 151.017 42.3095 151.017 43.1435C151.017 43.6965 151.465 44.1435 152.017 44.1435C152.569 44.1435 153.017 43.6965 153.017 43.1435C153.017 42.3095 153.693 41.6335 154.527 41.6335C155.079 41.6335 155.527 41.1855 155.527 40.6335C155.527 40.0815 155.079 39.6335 154.527 39.6335C153.693 39.6335 153.017 38.9575 153.017 38.1235C153.017 37.5715 152.569 37.1235 152.017 37.1235C151.465 37.1235 151.017 37.5715 151.017 38.1235C151.017 38.9575 150.341 39.6335 149.507 39.6335C148.955 39.6335 148.507 40.0815 148.507 40.6335C148.507 41.1855 148.955 41.6335 149.507 41.6335ZM61.8179 97.8303L60.6349 99.0133C60.2439 99.4033 60.2439 100.036 60.6349 100.427C60.8299 100.622 61.0859 100.72 61.3419 100.72C61.5979 100.72 61.8539 100.622 62.0489 100.427L63.2319 99.2443C63.6229 98.8533 63.6229 98.2213 63.2319 97.8303C62.8409 97.4393 62.2089 97.4393 61.8179 97.8303ZM54.7187 106.344C54.9137 106.539 55.1697 106.637 55.4257 106.637C55.6817 106.637 55.9377 106.539 56.1327 106.344L57.3157 105.16C57.7067 104.77 57.7067 104.137 57.3157 103.746C56.9257 103.356 56.2917 103.356 55.9017 103.746L54.7187 104.93C54.3277 105.321 54.3277 105.953 54.7187 106.344ZM62.5249 106.637C62.7809 106.637 63.0369 106.539 63.2319 106.344C63.6229 105.953 63.6229 105.321 63.2319 104.93L62.0489 103.746C61.6579 103.356 61.0249 103.356 60.6349 103.746C60.2439 104.137 60.2439 104.77 60.6349 105.16L61.8179 106.344C62.0129 106.539 62.2689 106.637 62.5249 106.637ZM55.9018 100.427C56.0968 100.622 56.3528 100.72 56.6088 100.72C56.8648 100.72 57.1208 100.622 57.3158 100.427C57.7068 100.036 57.7068 99.404 57.3158 99.013L56.1328 97.83C55.7418 97.44 55.1088 97.44 54.7188 97.83C54.3278 98.221 54.3278 98.854 54.7188 99.244L55.9018 100.427ZM43.6714 49.196C44.5044 49.196 45.1814 49.873 45.1814 50.706C45.1814 51.538 44.5044 52.216 43.6714 52.216C42.8384 52.216 42.1614 51.538 42.1614 50.706C42.1614 49.873 42.8384 49.196 43.6714 49.196ZM43.6714 54.216C45.6074 54.216 47.1814 52.641 47.1814 50.706C47.1814 48.771 45.6074 47.196 43.6714 47.196C41.7364 47.196 40.1614 48.771 40.1614 50.706C40.1614 52.641 41.7364 54.216 43.6714 54.216Z" fill="#1F2225"/>
</g>
<defs>
<clipPath id="clip0">
<rect width="256" height="212" fill="white"/>
</clipPath>
</defs>
</svg>
