<svg width="272" height="212" viewBox="0 0 272 212" fill="none" xmlns="http://www.w3.org/2000/svg">
<g clip-path="url(#clip0)">
<mask id="mask0" mask-type="alpha" maskUnits="userSpaceOnUse" x="10" y="36" width="257" height="164">
<path d="M266.121 36.183V199.113H10.0199V36.183H266.121Z" fill="white"/>
</mask>
<g mask="url(#mask0)">
<path fill-rule="evenodd" clip-rule="evenodd" d="M26.1411 36.183H137.174C154.212 36.183 168.024 49.995 168.024 67.033V67.037C168.024 84.075 181.836 97.887 198.874 97.887H215.511C243.462 97.887 266.121 120.545 266.121 148.496V148.503C266.121 176.454 243.462 199.113 215.511 199.113H45.0151C25.6881 199.113 10.0201 183.445 10.0201 164.118C10.0201 144.79 25.6881 129.122 45.0151 129.122H49.3571C67.6101 129.122 82.4071 114.326 82.4071 96.073V96.069C82.4071 77.816 67.6101 63.019 49.3571 63.019H26.1411C18.7301 63.019 12.7231 57.011 12.7231 49.601C12.7231 42.19 18.7301 36.183 26.1411 36.183Z" fill="#4F545C" fill-opacity="0.3"/>
</g>
<ellipse cx="127.5" cy="166" rx="34.5" ry="34" fill="#FDCA59"/>
<path d="M151.5 176.5C151 184 139.926 182 127.5 182C115.074 182 100 183.5 104 176.5C100 169.5 115.074 171 127.5 171C150 168 151.5 173.462 151.5 176.5Z" fill="#C4C4C4"/>
<ellipse cx="91.4999" cy="65" rx="31.5" ry="28" fill="#FDCA59"/>
<path fill-rule="evenodd" clip-rule="evenodd" d="M156.694 103.847C156.536 103.694 156.38 103.554 156.222 103.406C155.655 103.146 153.005 102.041 148.635 101.907C148.013 101.889 147.333 101.894 146.606 101.923C149.42 105.138 151.697 108.83 153.3 112.864C156.212 111.478 157.361 110.016 157.793 108.941C158.801 106.431 156.9 104.089 156.694 103.847Z" fill="#36393E"/>
<path fill-rule="evenodd" clip-rule="evenodd" d="M81.0512 119.991C82.3352 112.934 85.5772 106.553 90.2042 101.442C90.2372 101.373 90.2542 101.296 90.3032 101.234C90.5552 100.916 96.6042 93.4086 107.965 89.6756C109.686 89.1096 111.403 88.6766 113.111 88.3556C112.711 86.3776 112.703 84.2336 113.677 82.3956C115.087 79.7346 118.197 78.3026 122.919 78.1396C128.016 77.9566 131.686 79.2736 133.8 82.0346C135.795 84.6406 135.918 87.9156 135.683 90.1786C138.768 91.1816 141.737 92.4306 144.555 93.8326C144.572 93.5536 144.586 93.2756 144.593 92.9996C144.891 81.3596 137.721 71.5006 126.751 68.4666C124.02 67.7106 121.369 67.3336 118.803 67.3336C111.904 67.3336 105.621 70.0596 100.049 75.4876C94.2732 81.1136 91.4642 87.6856 91.4372 87.7516C91.3462 87.9676 91.1822 88.1436 90.9742 88.2516C90.9252 88.2776 85.9482 90.8816 81.6942 95.2596C76.1392 100.974 74.3682 106.876 76.4292 112.803C77.4902 115.852 78.9682 118.234 81.0512 119.991Z" fill="#0EB04B"/>
<path fill-rule="evenodd" clip-rule="evenodd" d="M133.724 89.5766C133.867 87.6906 133.689 85.1746 132.205 83.2426C130.615 81.1716 127.795 80.1236 123.817 80.1236C123.545 80.1236 123.27 80.1286 122.988 80.1386C119.033 80.2746 116.495 81.3486 115.444 83.3326C114.732 84.6776 114.754 86.3776 115.098 88.0326C121.534 87.1586 127.821 87.8896 133.724 89.5766Z" fill="white"/>
<path fill-rule="evenodd" clip-rule="evenodd" d="M153.963 126.766C153.963 117.223 150.198 108.547 144.086 102.127C139.701 102.644 133.974 104.162 127.207 107.888C124.902 109.158 121.931 109.658 118.679 109.658C108.169 109.658 94.7393 104.437 91.4293 103.08C85.8363 109.395 82.4303 117.688 82.4303 126.766C82.4303 146.488 98.4753 162.533 118.196 162.533C137.918 162.533 153.963 146.488 153.963 126.766Z" fill="#FDCA59"/>
<path fill-rule="evenodd" clip-rule="evenodd" d="M113.893 90.2562C113.552 90.3202 113.212 90.3872 112.877 90.4582C112.869 90.4602 112.861 90.4622 112.853 90.4642C110.972 90.8642 109.201 91.3712 107.539 91.9432C99.7865 94.7472 94.7285 99.4152 92.7775 101.463C98.0205 103.541 117.755 110.809 126.242 106.136C137.58 99.8922 146.241 99.4152 151.5 100.109C138.361 91.5732 125.539 88.2252 113.893 90.2562Z" fill="#0EB04B"/>
<path fill-rule="evenodd" clip-rule="evenodd" d="M84.6347 192.591C86.0797 193.193 87.0537 194.615 87.0537 196.196C87.0537 198.356 85.2977 200.112 83.1377 200.112C82.0017 200.112 80.9477 199.615 80.2207 198.796C79.4937 199.615 78.4397 200.112 77.3037 200.112C75.1447 200.112 73.3877 198.356 73.3877 196.196C73.3877 194.613 74.3617 193.191 75.8057 192.59C76.5987 191.225 78.3087 190.335 80.2207 190.335C82.1327 190.335 83.8417 191.225 84.6347 192.591ZM66.6097 186.502C55.8867 186.502 55.8867 181.051 55.8867 175.779C55.8867 169.867 60.6977 165.057 66.6097 165.057C72.5217 165.057 77.3317 169.867 77.3317 175.779C77.3317 181.051 77.3317 186.502 66.6097 186.502ZM91.2737 153.344C90.0117 153.344 88.7767 153.131 87.6147 152.731C81.6977 156.998 74.4447 159.522 66.6097 159.522C63.6517 159.522 60.7797 159.155 58.0277 158.48C53.0187 163.759 50.1097 171.084 50.1097 179.669C50.1097 189.796 50.1097 197.945 58.9517 202.366C60.6607 203.222 61.7757 204.934 61.7757 206.846V212.509C61.7757 215.031 63.6147 217.289 66.1257 217.534C69.0077 217.816 71.4427 215.549 71.4427 212.725V206.59C71.4427 206.311 71.5597 206.043 71.7657 205.854C71.9717 205.664 72.2497 205.563 72.5267 205.594C73.1467 205.646 73.7877 205.69 74.4397 205.729C74.9687 205.76 75.3867 206.196 75.3867 206.727V212.51C75.3867 215.032 77.2267 217.289 79.7377 217.534C82.6177 217.816 85.0537 215.549 85.0537 212.725V206.727C85.0537 206.195 85.4737 205.76 86.0037 205.728C86.6567 205.69 87.2957 205.646 87.9147 205.594C87.9427 205.591 87.9697 205.59 87.9977 205.59C88.2477 205.59 88.4897 205.684 88.6747 205.854C88.8807 206.043 88.9977 206.311 88.9977 206.59V212.509C88.9977 215.031 90.8377 217.289 93.3477 217.534C96.2297 217.816 98.6647 215.549 98.6647 212.725V206.849C98.6647 204.926 99.7937 203.218 101.512 202.356C104.673 200.77 106.7 198.706 108.001 196.245C103.947 193.612 100.448 190.192 97.7367 186.192C96.6237 186.391 95.3367 186.502 93.8317 186.502C83.1097 186.502 83.1097 181.051 83.1097 175.779C83.1097 170.643 86.7427 166.341 91.5727 165.301C91.6457 161.75 92.2287 158.324 93.2617 155.095C92.6187 154.528 91.9917 153.945 91.3887 153.337C91.3507 153.337 91.3117 153.344 91.2737 153.344Z" fill="#CCD6DD"/>
<path fill-rule="evenodd" clip-rule="evenodd" d="M77.4428 193.781C77.3258 194.065 77.0848 194.28 76.7888 194.363C75.9638 194.594 75.3878 195.349 75.3878 196.197C75.3878 197.254 76.2478 198.113 77.3038 198.113C78.1098 198.113 78.8328 197.596 79.1018 196.827C79.2468 196.414 79.6458 196.102 80.0788 196.158C80.0988 196.158 80.1958 196.165 80.2158 196.167C80.2358 196.165 80.3428 196.158 80.3628 196.158C80.3748 196.157 80.3848 196.157 80.3968 196.157C80.8198 196.157 81.1988 196.425 81.3398 196.827C81.6098 197.596 82.3318 198.113 83.1378 198.113C84.1938 198.113 85.0538 197.254 85.0538 196.197C85.0538 195.35 84.4768 194.596 83.6498 194.362C83.3548 194.279 83.1138 194.065 82.9968 193.781C82.6458 192.93 81.5048 192.336 80.2208 192.336C78.9358 192.336 77.7938 192.93 77.4428 193.781Z" fill="#4F545C"/>
<path d="M172 107C172 108.657 167.09 111 163.5 111C159.91 111 159 108.657 159 107C159 105.343 161.91 104 165.5 104C169.09 104 172 105.343 172 107Z" fill="#36393E"/>
<ellipse cx="152" cy="103" rx="5" ry="3" fill="#36393E"/>
<ellipse cx="187" cy="70" rx="7" ry="6" fill="#292F33"/>
<path d="M194 86.5C194 90.9183 189.209 91 187 91C184.791 91 183 84.4183 183 80C183 75.5817 183.791 72 186 72C188.209 72 194 82.0817 194 86.5Z" fill="#292F33"/>
<path d="M196 102C196 105.866 194.09 107 190.5 107C185.5 102 180 116 179 106.5C179 102.634 181.41 87.5 185 87.5C187 91 196 98.134 196 102Z" fill="#292F33"/>
<path d="M186.193 59.5C193 70.5 184.402 68 182.193 68C179.984 68 178.193 63.0899 178.193 59.5C178.193 55.9101 181 54 182.193 53C184.402 53 190.5 53.5 186.193 59.5Z" fill="#292F33"/>
<path d="M170 51C179 62 170.5 57.5272 166 56.0272C163.238 56.0272 159 56.0376 159 53C159 49.9624 163.238 45.0272 166 45.0272C168.761 45.0272 170 47.9624 170 51Z" fill="#292F33"/>
<path d="M159.5 53.5C159.5 56.2614 154.985 56 152.5 56C138 58 147.5 53.7614 147.5 51C147.5 48.2386 148.515 45 151 45C153.485 45 159.5 50.7386 159.5 53.5Z" fill="#292F33"/>
<path d="M139 61.5C139.5 65 137.155 70.2928 135.5 69.5C119.155 68.7928 131.155 63.2928 130.5 60C127.5 54.5 132.067 53.5 134 53.5C135.933 53.5 139 59.0147 139 61.5Z" fill="#292F33"/>
<path fill-rule="evenodd" clip-rule="evenodd" d="M154.108 115.092C155.034 114.417 155.992 113.786 156.981 113.201C156.893 113.196 156.805 113.19 156.717 113.183C155.942 113.746 155.034 114.27 153.993 114.753C154.031 114.866 154.071 114.978 154.108 115.092ZM158.803 95.8305C158.803 94.6935 159.722 93.7755 160.859 93.7755H162.914C164.051 93.7755 164.97 94.6935 164.97 95.8305C164.97 96.9675 164.051 97.8875 162.914 97.8875H160.859C159.722 97.8875 158.803 96.9675 158.803 95.8305C158.803 96.9675 157.882 97.8875 156.748 97.8875H154.692C153.557 97.8875 152.636 96.9675 152.636 95.8305C152.636 94.6935 153.557 93.7755 154.692 93.7755H156.748C157.882 93.7755 158.803 94.6935 158.803 95.8305ZM161.914 79.3865C161.914 76.5675 164.207 74.2745 167.026 74.2745C169.844 74.2745 172.136 76.5675 172.136 79.3865V85.5535C172.136 88.3715 169.844 90.6645 167.026 90.6645C164.207 90.6645 161.914 88.3715 161.914 85.5535V79.3865ZM145.47 84.4025V79.3865C145.47 76.5675 147.762 74.2745 150.581 74.2745C153.399 74.2745 155.692 76.5675 155.692 79.3865V85.5535C155.692 88.3715 153.399 90.6645 150.581 90.6645C148.812 90.6645 147.253 89.7615 146.335 88.3925C146.544 89.9075 146.634 91.4635 146.593 93.0515C146.578 93.6385 146.539 94.2325 146.486 94.8305C146.8 94.9985 147.114 95.1665 147.423 95.3375C150.794 96.6055 154.407 98.8185 158.121 102.443C158.137 102.459 158.153 102.476 158.167 102.492C158.196 102.523 158.37 102.726 158.6 103.053H171.626C171.743 103.053 171.861 103.073 171.971 103.114L172.709 103.386C172.745 103.398 172.78 103.414 172.814 103.432L173.943 104.001C174.258 104.16 174.466 104.474 174.49 104.825L174.586 106.235C174.587 106.951 174.311 107.618 173.855 108.24C174.317 108.223 174.78 108.205 175.247 108.205C175.714 108.205 176.176 108.223 176.638 108.24C180.374 102.939 182.47 95.5705 182.47 86.7095C182.47 75.7455 180.419 68.6335 177.252 64.0425C175.975 65.3395 174.476 66.5545 172.708 67.6155C172.228 67.9015 171.686 68.0525 171.139 68.0525C170.792 68.0525 170.446 67.9905 170.115 67.8725C169.789 67.9905 169.441 68.0525 169.083 68.0525C167.918 68.0525 166.87 67.4045 166.347 66.3635C165.97 65.6065 165.924 64.7425 166.204 63.9655C166.196 63.9435 166.189 63.9215 166.181 63.8985C165.651 62.3095 166.516 60.5765 168.112 60.0415C168.108 60.0415 169.033 59.6215 170.502 58.2035C166.821 56.4215 162.711 55.9755 158.803 55.9755C154.969 55.9755 150.94 56.4015 147.313 58.1005C148.8 59.6375 149.691 60.0835 149.711 60.0935C151.184 60.6585 151.94 62.3505 151.39 63.9335C151.682 64.7195 151.641 65.5945 151.261 66.3605C150.737 67.4045 149.689 68.0525 148.523 68.0525C148.174 68.0525 147.824 67.9905 147.493 67.8715C146.638 68.1795 145.675 68.0825 144.898 67.6165C143.129 66.5555 141.63 65.3405 140.354 64.0435C138.987 66.0235 137.833 68.4825 136.957 71.5115C141.009 74.8125 143.964 79.2775 145.47 84.4025Z" fill="#D92547"/>
<path fill-rule="evenodd" clip-rule="evenodd" d="M145.925 65.9008C146.25 66.0958 146.653 66.1048 147 65.9048C147.154 65.8168 147.325 65.7728 147.497 65.7728C147.65 65.7728 147.803 65.8078 147.944 65.8788C147.966 65.8888 148.044 65.9328 148.065 65.9458C148.535 66.1798 149.217 65.9708 149.47 65.4668C149.63 65.1468 149.616 64.7668 149.431 64.4538C149.249 64.1448 149.246 63.7628 149.423 63.4518C149.453 63.3998 149.477 63.3438 149.498 63.2848C149.697 62.7278 149.453 62.1348 148.94 61.9378C148.901 61.9228 143.879 59.9248 137.389 46.2198C137.298 46.1458 137.202 46.0528 137.119 45.9268C137.082 45.8718 137.03 45.7988 136.977 45.7458C136.916 45.6848 136.817 45.6198 136.702 45.5618C136.63 45.5488 136.569 45.5358 136.513 45.5188C136.446 45.4988 136.318 45.4578 136.238 45.4498C136.174 45.4658 136.118 45.4788 136.062 45.4868L135.869 45.5058L135.865 45.4968C135.851 45.5038 135.836 45.5088 135.822 45.5148V45.5158L135.658 45.6278C135.65 45.6328 135.562 45.6848 135.554 45.6898C135.523 45.7088 135.491 45.7248 135.463 45.7468L135.369 45.8878C135.304 45.9738 135.27 46.0118 135.246 46.0568C135.243 46.0688 135.213 46.2078 135.21 46.2178C135.184 46.3088 135.157 46.4038 135.155 46.4448C135.153 46.4838 135.146 46.5358 135.137 46.5868C135.155 47.8358 135.608 59.7098 145.925 65.9008ZM168.82 61.9105C168.196 62.1225 167.897 62.7225 168.081 63.2735C168.106 63.3485 168.131 63.4065 168.159 63.4535C168.346 63.7655 168.349 64.1545 168.166 64.4705C167.988 64.7765 167.977 65.1495 168.136 65.4695C168.388 65.9725 169.03 66.2015 169.554 65.9385C169.578 65.9225 169.627 65.8945 169.68 65.8695C169.816 65.8055 169.963 65.7725 170.109 65.7725C170.281 65.7725 170.452 65.8165 170.606 65.9045C170.949 66.1015 171.352 66.0965 171.682 65.8985C181.965 59.7275 182.448 47.9095 182.469 46.5965C182.461 46.5525 182.454 46.5035 182.451 46.4485V46.4465C182.448 46.3955 182.418 46.2915 182.401 46.2355L182.361 46.0805C182.342 46.0235 182.314 45.9915 182.287 45.9575L182.154 45.7755C182.121 45.7295 182.09 45.7135 182.059 45.6945C182.054 45.6915 181.967 45.6385 181.962 45.6355L181.844 45.5585C181.815 45.5475 181.777 45.5275 181.737 45.5055L181.563 45.4885C181.492 45.4775 181.43 45.4645 181.37 45.4485C181.299 45.4515 181.176 45.4895 181.077 45.5215C181.046 45.5325 180.982 45.5485 180.927 45.5605C180.719 45.6635 180.543 45.8485 180.446 46.0765C174.888 59.0425 169.425 61.6545 168.82 61.9105Z" fill="#795A3B"/>
<path fill-rule="evenodd" clip-rule="evenodd" d="M159.649 109.686C159.426 110.241 159.112 110.768 158.726 111.274C158.752 111.274 158.777 111.276 158.803 111.276C159.516 111.276 160.235 111.237 160.95 111.174C163.921 109.883 167.1 108.986 170.42 108.539C171.759 107.791 172.588 106.999 172.588 106.304L172.534 105.531L171.964 105.244L171.447 105.053H170.837C171.023 105.363 171.136 105.721 171.136 106.109C171.136 107.246 170.217 108.165 169.081 108.165C167.944 108.165 167.025 107.246 167.025 106.109C167.025 105.721 167.139 105.363 167.325 105.053H164.67C164.856 105.363 164.97 105.721 164.97 106.109V108.165C164.97 109.301 164.051 110.22 162.914 110.22C161.777 110.22 160.858 109.301 160.858 108.165V106.109C160.858 105.721 160.972 105.363 161.158 105.053H159.648C160.113 106.323 160.347 107.949 159.649 109.686Z" fill="#36393F"/>
<path d="M125.142 66.0199C125.144 64.3459 125.144 62.5949 125.144 60.7349C125.144 47.1329 119.888 37.3879 112.867 31.1199H69.4096C61.7126 38.5209 57.7076 49.2749 57.2456 57.9529C57.1916 58.9379 57.1656 59.8479 57.1656 60.7339C57.1656 61.4009 57.1616 62.1679 57.1566 63.0189C57.1226 68.9989 57.0566 80.9609 58.7556 88.3949C61.2856 87.8299 63.9116 87.5219 66.6096 87.5219C69.9316 87.5219 73.1466 87.9839 76.2026 88.8309C69.0356 82.8439 64.4466 72.8869 63.9596 61.7479C63.9576 61.7099 63.9586 61.6739 63.9606 61.6369C64.3156 56.2699 66.8816 54.1979 69.8526 51.7989L69.8563 51.7959C70.8662 50.9808 71.9109 50.1376 72.9536 49.0939L79.5146 42.5339C79.8396 42.2109 80.3426 42.1469 80.7356 42.3829C80.8436 42.4479 91.5386 48.8009 99.9026 48.8009C108.29 48.8009 117.635 52.8929 118.333 61.8759C118.336 61.9179 118.337 61.9599 118.335 62.0029C118.278 63.1449 118.165 64.2689 118.024 65.3819C120.26 65.3099 122.627 65.4939 125.142 66.0199Z" fill="#FCAA42"/>
<path fill-rule="evenodd" clip-rule="evenodd" d="M99.9013 27.932C98.6923 27.932 97.7143 26.953 97.7143 25.745C97.7143 24.537 98.6923 23.558 99.9013 23.558C101.11 23.558 102.088 24.537 102.088 25.745C102.088 26.953 101.11 27.932 99.9013 27.932ZM91.1543 27.932C89.9473 27.932 88.9673 26.464 88.9673 24.652C88.9673 22.839 89.9473 21.371 91.1543 21.371C92.3633 21.371 93.3403 22.839 93.3403 24.652C93.3403 26.464 92.3633 27.932 91.1543 27.932ZM82.4073 27.932C81.2003 27.932 80.2203 26.953 80.2203 25.745C80.2203 24.537 81.2003 23.558 82.4073 23.558C83.6143 23.558 84.5933 24.537 84.5933 25.745C84.5933 26.953 83.6143 27.932 82.4073 27.932ZM112.022 28.654L106.145 26.695C105.934 26.624 105.753 26.486 105.63 26.301L101.68 20.376L95.8443 22.321C95.4843 22.442 95.0883 22.347 94.8203 22.079L91.1543 18.413L87.4873 22.079C87.2203 22.347 86.8243 22.443 86.4643 22.321L80.6283 20.376L76.6783 26.301C76.5553 26.486 76.3743 26.624 76.1633 26.695L70.2863 28.654V29.119H112.022V28.654Z" fill="#A7A9AC"/>
<path fill-rule="evenodd" clip-rule="evenodd" d="M175.247 110.205C167.538 110.205 160.422 112.788 154.713 117.13C155.526 120.208 155.963 123.436 155.963 126.767C155.963 131.741 154.987 136.489 153.231 140.842C157.475 145.165 160.635 150.552 162.278 156.56H189.659C190.797 156.56 191.717 157.478 191.717 158.618C191.717 159.757 190.797 160.677 189.659 160.677H163.153C163.416 162.429 163.555 164.22 163.555 166.043C163.555 169.358 163.095 172.567 162.251 175.619C166.258 177.283 170.646 178.206 175.247 178.206C193.995 178.206 209.247 162.953 209.247 144.206C209.247 125.458 193.995 110.205 175.247 110.205Z" fill="#FDCA59"/>
<path fill-rule="evenodd" clip-rule="evenodd" d="M54.667 107.012C54.286 107.09 45.388 109.03 41.756 118.111C41.433 118.915 40.661 119.404 39.844 119.406C39.588 119.406 39.331 119.358 39.08 119.257C38.023 118.835 37.511 117.637 37.933 116.58C42.413 105.381 53.389 103.067 53.852 102.976C54.972 102.756 56.053 103.475 56.275 104.59C56.498 105.701 55.777 106.785 54.667 107.012ZM80.669 122.567C80.136 122.52 79.567 122.492 78.962 122.492C73.938 122.492 71.365 124.331 71.34 124.35C70.959 124.623 70.443 124.614 70.083 124.321C69.72 124.029 69.597 123.531 69.786 123.104C69.888 122.875 71.921 118.428 76.034 116.862C75.471 115.82 74.97 114.694 74.541 113.458C71.54 104.832 76.31 97.6571 81.329 92.8761C76.873 90.7271 71.879 89.5221 66.609 89.5221C47.862 89.5221 32.609 104.774 32.609 123.522C32.609 126.989 33.134 130.334 34.103 133.489C37.667 128.389 43.258 122.37 46.131 121.27C47.486 119.257 50.162 116.316 54.256 116.316C60.346 116.316 63.309 122.826 63.433 123.104C63.622 123.533 63.5 124.034 63.134 124.326C62.947 124.475 62.718 124.551 62.492 124.551C62.277 124.551 62.059 124.484 61.878 124.348C61.82 124.307 59.251 122.492 54.256 122.492C52.035 122.492 50.296 122.852 49.041 123.254C49.907 124.966 50.739 127.53 51.422 130.33C56.144 131.184 60.548 131.757 66.609 131.757C72.165 131.757 76.328 131.276 80.62 130.537C80.496 129.297 80.431 128.039 80.431 126.766C80.431 125.346 80.516 123.947 80.669 122.567ZM85.5288 151.756C83.7968 150.732 82.3338 149.254 81.3448 147.431C77.4758 150.358 72.4028 152.346 66.6098 152.346C60.7998 152.346 55.7168 150.347 51.8438 147.407C50.8588 149.234 49.3998 150.715 47.6698 151.744C53.0868 155.391 59.6028 157.522 66.6098 157.522C73.6068 157.522 80.1158 155.395 85.5288 151.756Z" fill="#FDCA59"/>
<path fill-rule="evenodd" clip-rule="evenodd" d="M50.9135 144.337C52.2065 139.238 48.3255 124.886 46.7125 123.117C44.4505 123.9 34.1915 134.66 32.8975 139.762C32.2865 142.169 32.6485 144.669 33.9185 146.803C35.1875 148.937 37.2115 150.446 39.6175 151.056C44.5845 152.318 49.6515 149.304 50.9135 144.337ZM82.2636 144.337C83.1656 147.887 86.0126 150.428 89.3766 151.135C86.2176 147.404 83.7676 143.057 82.2386 138.299C81.9466 140.721 81.8986 142.898 82.2636 144.337Z" fill="#63AEE9"/>
<path fill-rule="evenodd" clip-rule="evenodd" d="M66.6093 184.502C57.8873 184.502 57.8873 181.219 57.8873 175.779C57.8873 170.97 61.7993 167.057 66.6093 167.057C71.4193 167.057 75.3313 170.97 75.3313 175.779C75.3313 181.219 75.3313 184.502 66.6093 184.502ZM77.3313 175.779C77.3313 169.867 72.5213 165.057 66.6093 165.057C60.6973 165.057 55.8873 169.867 55.8873 175.779C55.8873 181.051 55.8873 186.502 66.6093 186.502C77.3313 186.502 77.3313 181.051 77.3313 175.779ZM83.1377 198.113C82.3317 198.113 81.6097 197.596 81.3397 196.827C81.1997 196.425 80.8197 196.157 80.3967 196.157C80.3857 196.157 80.3747 196.157 80.3637 196.158C80.3437 196.158 80.2367 196.165 80.2167 196.167C80.1967 196.165 80.0987 196.158 80.0787 196.158C79.6457 196.102 79.2467 196.414 79.1017 196.827C78.8327 197.596 78.1097 198.113 77.3047 198.113C76.2477 198.113 75.3877 197.254 75.3877 196.197C75.3877 195.349 75.9637 194.594 76.7887 194.363C77.0847 194.28 77.3257 194.065 77.4427 193.781C77.7937 192.93 78.9357 192.336 80.2207 192.336C81.5047 192.336 82.6457 192.93 82.9967 193.781C83.1137 194.065 83.3547 194.279 83.6497 194.362C84.4767 194.596 85.0547 195.35 85.0547 196.197C85.0547 197.254 84.1947 198.113 83.1377 198.113ZM84.6347 192.592C83.8417 191.225 82.1327 190.336 80.2207 190.336C78.3087 190.336 76.5987 191.225 75.8057 192.591C74.3617 193.191 73.3877 194.614 73.3877 196.197C73.3877 198.356 75.1447 200.113 77.3047 200.113C78.4397 200.113 79.4937 199.616 80.2207 198.797C80.9487 199.616 82.0017 200.113 83.1377 200.113C85.2977 200.113 87.0547 198.356 87.0547 196.197C87.0547 194.616 86.0797 193.193 84.6347 192.592ZM162.914 93.7758H160.858C159.722 93.7758 158.803 94.6938 158.803 95.8308C158.803 96.9668 159.722 97.8868 160.858 97.8868H162.914C164.051 97.8868 164.97 96.9668 164.97 95.8308C164.97 94.6938 164.051 93.7758 162.914 93.7758ZM156.747 93.7758H154.691C153.557 93.7758 152.636 94.6938 152.636 95.8308C152.636 96.9668 153.557 97.8868 154.691 97.8868H156.747C157.882 97.8868 158.802 96.9668 158.802 95.8308C158.802 94.6938 157.882 93.7758 156.747 93.7758ZM170.136 85.5531C170.136 87.2691 168.74 88.6641 167.025 88.6641C165.309 88.6641 163.914 87.2691 163.914 85.5531V79.3861C163.914 77.6701 165.309 76.2751 167.025 76.2751C168.74 76.2751 170.136 77.6701 170.136 79.3861V85.5531ZM167.025 74.2751C164.207 74.2751 161.914 76.5681 161.914 79.3861V85.5531C161.914 88.3711 164.207 90.6641 167.025 90.6641C169.844 90.6641 172.136 88.3711 172.136 85.5531V79.3861C172.136 76.5681 169.844 74.2751 167.025 74.2751ZM93.3413 69.4818H88.9673C87.7603 69.4818 86.7803 70.4598 86.7803 71.6688C86.7803 72.8778 87.7603 73.8558 88.9673 73.8558H93.3413C94.5503 73.8558 95.5283 72.8778 95.5283 71.6688C95.5283 70.4598 94.5503 69.4818 93.3413 69.4818ZM80.2202 58.5482C79.0132 58.5482 78.0332 59.5262 78.0332 60.7352V65.1082C78.0332 66.3182 79.0132 67.2952 80.2202 67.2952C81.4282 67.2952 82.4072 66.3182 82.4072 65.1082V60.7352C82.4072 59.5262 81.4282 58.5482 80.2202 58.5482ZM102.088 58.5482C100.879 58.5482 99.9013 59.5262 99.9013 60.7352V65.1082C99.9013 66.3182 100.879 67.2952 102.088 67.2952C103.297 67.2952 104.275 66.3182 104.275 65.1082V60.7352C104.275 59.5262 103.297 58.5482 102.088 58.5482ZM91.1543 21.3715C89.9473 21.3715 88.9673 22.8395 88.9673 24.6515C88.9673 26.4645 89.9473 27.9325 91.1543 27.9325C92.3633 27.9325 93.3413 26.4645 93.3413 24.6515C93.3413 22.8395 92.3633 21.3715 91.1543 21.3715ZM82.4072 23.558C81.2002 23.558 80.2202 24.537 80.2202 25.746C80.2202 26.953 81.2002 27.932 82.4072 27.932C83.6142 27.932 84.5942 26.953 84.5942 25.746C84.5942 24.537 83.6142 23.558 82.4072 23.558ZM99.9013 23.558C98.6923 23.558 97.7143 24.537 97.7143 25.746C97.7143 26.953 98.6923 27.932 99.9013 27.932C101.11 27.932 102.088 26.953 102.088 25.746C102.088 24.537 101.11 23.558 99.9013 23.558ZM162.865 135.517C160.656 135.517 158.865 138.025 158.865 141.118C158.865 144.212 160.656 146.717 162.865 146.717C165.074 146.717 166.865 144.212 166.865 141.118C166.865 138.025 165.074 135.517 162.865 135.517ZM188.629 135.517C186.42 135.517 184.629 138.025 184.629 141.118C184.629 144.212 186.42 146.717 188.629 146.717C190.838 146.717 192.629 144.212 192.629 141.118C192.629 138.025 190.838 135.517 188.629 135.517Z" fill="#1F2225"/>
<mask id="mask1" mask-type="alpha" maskUnits="userSpaceOnUse" x="26" y="15" width="189" height="216">
<path d="M215 15H26V231H215V15Z" fill="white"/>
</mask>
<g mask="url(#mask1)">
<path fill-rule="evenodd" clip-rule="evenodd" d="M178.819 178.021C172.917 178.629 167.283 177.709 162.252 175.619C163.095 172.567 163.555 169.358 163.555 166.042C163.555 164.219 163.416 162.428 163.153 160.676H189.545C190.622 160.676 191.602 159.9 191.707 158.828C191.829 157.594 190.866 156.559 189.659 156.559H162.278C160.793 151.128 158.069 146.207 154.424 142.118C153.72 141.328 153.496 140.21 153.846 139.212C155.214 135.313 155.964 131.126 155.964 126.766C155.964 124.101 155.683 121.501 155.154 118.991C154.903 117.798 155.423 116.577 156.437 115.901C161.828 112.306 168.296 110.206 175.247 110.206C194.768 110.206 210.5 126.742 209.169 146.542C208.069 162.901 195.128 176.339 178.819 178.021ZM124.131 199.874C109.035 198.389 96.5958 186.798 94.0488 171.846C93.4158 168.131 93.4088 164.51 93.9238 161.057C94.2428 158.919 96.6358 157.82 98.4778 158.953C101.958 161.092 105.81 162.684 109.913 163.606C110.071 163.716 110.241 163.813 110.433 163.877C110.799 164 111.171 164.005 111.521 163.93C113.69 164.319 115.918 164.533 118.197 164.533C122.236 164.533 126.127 163.888 129.778 162.708C129.999 163.241 130.432 163.681 131.022 163.877C132.109 164.239 133.264 163.655 133.624 162.576C133.681 162.406 133.777 162.158 133.908 161.862C134.185 161.235 134.689 160.741 135.299 160.429C135.878 160.134 136.448 159.824 137.009 159.5C138.458 158.664 140.305 159.132 141.143 160.58C141.596 161.362 141.92 162.124 142.073 162.576C142.36 163.438 143.163 163.984 144.025 163.984C144.241 163.984 144.46 163.949 144.676 163.877C145.755 163.519 146.337 162.353 145.977 161.275C145.828 160.826 144.948 158.364 143.183 156.365C142.819 155.954 142.87 155.333 143.28 154.967C146.005 152.542 148.376 149.729 150.308 146.616C151.447 144.78 154.073 144.691 155.322 146.455C159.245 151.995 161.555 158.752 161.555 166.042C161.555 185.92 144.409 201.868 124.131 199.874ZM95.3278 182.063C95.8828 183.176 95.1078 184.501 93.8628 184.502H93.8318C85.1098 184.502 85.1098 181.219 85.1098 175.78C85.1098 172.667 86.7498 169.937 89.2098 168.395C90.2558 167.741 91.6218 168.439 91.7448 169.667C92.1888 174.082 93.4308 178.262 95.3278 182.063ZM100.964 202.621C99.5608 203.274 98.6648 204.688 98.6648 206.235V212.509C98.6648 215.032 96.8258 217.29 94.3148 217.535C91.4338 217.816 88.9978 215.549 88.9978 212.725V206.59C88.9978 206.311 88.8808 206.043 88.6748 205.854C88.4898 205.684 88.2478 205.59 87.9978 205.59C87.9698 205.59 87.9428 205.591 87.9148 205.594C87.2958 205.646 86.6568 205.69 86.0038 205.728C85.4738 205.76 85.0538 206.196 85.0538 206.727V212.509C85.0538 215.033 83.2138 217.29 80.7028 217.535C77.8218 217.816 75.3868 215.549 75.3868 212.725V206.727C75.3868 206.197 74.9688 205.76 74.4398 205.729C73.7878 205.69 73.1468 205.646 72.5268 205.594C72.2498 205.563 71.9718 205.665 71.7658 205.854C71.5598 206.043 71.4428 206.311 71.4428 206.59V212.509C71.4428 215.032 69.6038 217.29 67.0928 217.535C64.2118 217.816 61.7758 215.549 61.7758 212.725V206.236C61.7758 204.697 60.8968 203.279 59.5008 202.631C50.1098 198.276 50.1098 190.001 50.1098 179.669C50.1098 171.084 53.0188 163.759 58.0268 158.48C60.7788 159.156 63.6518 159.522 66.6098 159.522C74.4448 159.522 81.6978 156.999 87.6148 152.731C88.7768 153.131 90.0118 153.344 91.2738 153.344C91.3118 153.344 91.3508 153.337 91.3888 153.337C91.9918 153.946 92.6188 154.529 93.2618 155.095C92.2288 158.325 91.6458 161.75 91.5728 165.301C86.7428 166.341 83.1098 170.643 83.1098 175.78C83.1098 181.051 83.1098 186.502 93.8318 186.502C95.3368 186.502 96.6238 186.391 97.7368 186.192C100.448 190.192 103.946 193.612 108.001 196.246C106.626 198.846 104.441 201.002 100.964 202.621ZM49.7988 150.113C50.1628 149.759 50.5038 149.38 50.8188 148.977C51.4528 148.165 52.5928 147.981 53.4628 148.535C57.0898 150.846 61.5778 152.346 66.6098 152.346C71.6288 152.346 76.1068 150.854 79.7308 148.551C80.5988 148 81.7348 148.182 82.3688 148.991C82.6848 149.393 83.0258 149.771 83.3888 150.124C84.3648 151.071 84.1408 152.674 82.9488 153.33C78.0968 156 72.5278 157.522 66.6098 157.522C60.6788 157.522 55.0998 155.996 50.2418 153.315C49.0528 152.66 48.8258 151.06 49.7988 150.113ZM39.6168 151.056C37.2118 150.447 35.1878 148.937 33.9188 146.803C32.6488 144.669 32.2868 142.169 32.8978 139.762C33.9438 135.638 40.8478 127.816 44.6508 124.556C45.7118 123.647 47.3388 124.06 47.8368 125.366C49.6228 130.045 51.9588 140.215 50.9138 144.337C49.6518 149.304 44.5848 152.319 39.6168 151.056ZM80.8308 134.789C80.6048 136.096 80.4228 137.383 80.2938 138.597C77.4138 140.413 73.0378 142.051 66.6098 142.051C60.1478 142.051 55.7598 140.395 52.8808 138.569C52.7518 137.361 52.5698 136.081 52.3448 134.781C55.4278 135.317 60.1718 135.875 66.6098 135.875C73.0168 135.875 77.7468 135.322 80.8308 134.789ZM32.8358 119.566C34.6718 103.502 47.9078 90.8129 64.0318 89.6179C69.1678 89.2369 74.0888 90.0049 78.5638 91.6909C79.8888 92.1909 80.2998 93.8519 79.3568 94.9099C75.1778 99.5909 71.9398 105.98 74.5408 113.458C74.9698 114.694 75.4708 115.82 76.0338 116.862C71.9218 118.428 69.8878 122.875 69.7858 123.104C69.5968 123.531 69.7198 124.029 70.0828 124.321C70.4428 124.614 70.9598 124.624 71.3398 124.35C71.3648 124.332 73.9388 122.493 78.9628 122.493C79.5678 122.493 80.1358 122.52 80.6698 122.567C80.5158 123.947 80.4308 125.346 80.4308 126.766C80.4308 127.435 80.4488 128.099 80.4838 128.758C80.5378 129.788 79.8018 130.681 78.7848 130.837C75.1108 131.403 71.3708 131.757 66.6098 131.757C61.0978 131.757 56.9568 131.284 52.7008 130.555C51.9318 130.424 51.3078 129.849 51.1068 129.095C50.4898 126.784 49.7778 124.711 49.0408 123.254C50.2958 122.852 52.0348 122.493 54.2558 122.493C59.2508 122.493 61.8198 124.307 61.8778 124.348C62.0588 124.484 62.2768 124.551 62.4918 124.551C62.7178 124.551 62.9468 124.475 63.1338 124.327C63.5008 124.035 63.6218 123.533 63.4328 123.104C63.3088 122.827 60.3458 116.316 54.2558 116.316C50.1618 116.316 47.4858 119.257 46.1318 121.27C43.8718 122.135 39.9318 126.042 36.6178 130.152C35.5298 131.5 33.3758 130.916 33.0868 129.207C32.5618 126.114 32.4568 122.88 32.8358 119.566ZM57.1568 63.0189C57.1618 62.1679 57.1658 61.4009 57.1658 60.7339C57.1658 59.8479 57.1918 58.9379 57.2448 57.9529C57.5058 53.0539 58.8958 47.4949 61.4418 42.2499C64.7618 35.4069 71.7668 31.1199 79.3728 31.1199H103.271C111.011 31.1199 118.09 35.5659 121.365 42.5799C123.72 47.6229 125.144 53.6569 125.144 60.7349C125.144 62.1599 125.144 63.5209 125.143 64.8329C125.143 65.4529 124.58 65.9019 123.968 65.7969C122.298 65.5119 120.694 65.3779 119.151 65.3679C118.553 65.3639 118.092 64.8569 118.155 64.2629C118.234 63.5159 118.297 62.7639 118.335 62.0039C118.334 61.9619 118.333 61.9199 118.333 61.8789C117.637 52.8939 108.291 48.8009 99.9018 48.8009C91.5388 48.8009 80.8428 42.4479 80.7358 42.3829C80.3418 42.1469 79.8398 42.2109 79.5148 42.5339L72.9538 49.0939C71.9088 50.1389 70.8638 50.9829 69.8528 51.7989C66.8818 54.1969 64.3178 56.2689 63.9608 61.6329C63.9608 61.6699 63.9598 61.7099 63.9598 61.7489C64.3428 70.5189 67.2698 78.5579 71.9958 84.5009C73.0888 85.8749 71.9728 87.8829 70.2268 87.7059C69.0368 87.5839 67.8308 87.5219 66.6098 87.5219C64.5718 87.5219 62.5748 87.6979 60.6298 88.0269C59.5638 88.2079 58.5478 87.4909 58.3628 86.4249C57.0678 78.9879 57.1258 68.4949 57.1568 63.0189ZM70.2868 28.6539L76.1628 26.6949C76.3738 26.6249 76.5558 26.4859 76.6788 26.2999L79.7808 21.6469C80.2808 20.8969 81.2218 20.5739 82.0778 20.8589L86.4648 22.3209C86.8238 22.4429 87.2198 22.3469 87.4878 22.0799L89.7398 19.8279C90.5208 19.0459 91.7868 19.0459 92.5688 19.8279L94.8198 22.0789C95.0888 22.3469 95.4848 22.4409 95.8438 22.3209L100.231 20.8589C101.087 20.5739 102.027 20.8969 102.527 21.6469L105.63 26.3009C105.753 26.4859 105.934 26.6249 106.145 26.6949L112.022 28.6539V29.1199H70.2868V28.6539ZM127.142 65.8529C128.371 64.6569 130.122 63.2899 132.611 61.7339C132.868 61.5739 133.038 61.3039 133.073 61.0019C133.109 60.7019 133.006 60.3999 132.793 60.1839C131.699 59.0739 129.672 56.3739 130.382 55.1119C130.59 54.7429 131.391 53.9789 134.424 53.9439C135.028 55.8669 135.916 57.9819 137.219 60.0619C138.184 61.5999 138.24 63.5199 137.385 65.1219C136.919 65.9949 136.483 66.9349 136.082 67.9459C135.626 69.0949 134.284 69.5649 133.204 68.9609C131.376 67.9409 129.396 67.1229 127.284 66.5389C127.236 66.5249 127.19 66.5169 127.142 66.5039V65.8529ZM135.155 46.4449C135.158 46.4039 135.184 46.3089 135.21 46.2179C135.213 46.2079 135.244 46.0689 135.247 46.0569C135.271 46.0119 135.305 45.9739 135.37 45.8879L135.463 45.7469C135.491 45.7249 135.524 45.7089 135.554 45.6899C135.563 45.6849 135.65 45.6329 135.658 45.6269L135.822 45.5159C135.837 45.5099 135.851 45.5029 135.866 45.4969L135.87 45.5059L136.062 45.4869C136.119 45.4789 136.174 45.4659 136.238 45.4499C136.318 45.4579 136.446 45.4989 136.513 45.5189C136.569 45.5359 136.63 45.5489 136.702 45.5619C136.818 45.6199 136.916 45.6849 136.977 45.7459C137.031 45.7989 137.082 45.8719 137.119 45.9269C137.202 46.0529 137.298 46.1459 137.39 46.2199C143.879 59.9249 148.902 61.9229 148.941 61.9379C149.453 62.1349 149.697 62.7279 149.498 63.2849C149.477 63.3439 149.453 63.3999 149.423 63.4519C149.247 63.7629 149.25 64.1449 149.432 64.4539C149.616 64.7669 149.631 65.1469 149.471 65.4669C149.218 65.9709 148.536 66.1799 148.066 65.9459C148.044 65.9329 147.966 65.8889 147.944 65.8779C147.803 65.8079 147.65 65.7729 147.497 65.7729C147.326 65.7729 147.154 65.8169 147.001 65.9049C146.653 66.1049 146.25 66.0959 145.925 65.9009C135.609 59.7089 135.156 47.8349 135.137 46.5859C135.146 46.5359 135.153 46.4839 135.155 46.4449ZM146.24 55.6929C146.537 55.7609 146.85 55.6929 147.09 55.5029C147.33 55.3139 147.47 55.0249 147.47 54.7189C147.47 51.6919 148.23 45.4409 150.581 45.4409C153.12 45.4409 156.423 50.1459 157.909 53.1109C158.248 53.7889 159.359 53.7889 159.697 53.1109C161.183 50.1459 164.486 45.4409 167.026 45.4409C169.371 45.4409 170.134 51.6919 170.136 54.7189C170.136 55.0249 170.276 55.3129 170.515 55.5019C170.753 55.6919 171.066 55.7629 171.362 55.6929C171.935 55.5599 172.48 55.4399 173.012 55.3249L173.001 55.3389C172.42 56.1109 171.389 56.3879 170.502 56.0089C166.657 54.3659 162.524 53.9749 158.803 53.9749C155.091 53.9749 150.968 54.3629 147.131 55.9959C146.399 56.3069 145.543 56.0699 145.066 55.4329C145.062 55.4289 145.059 55.4239 145.055 55.4189C145.44 55.5059 145.835 55.5969 146.24 55.6929ZM180.446 46.0769C180.543 45.8479 180.719 45.6639 180.927 45.5609C180.982 45.5479 181.046 45.5329 181.077 45.5219C181.176 45.4899 181.299 45.4519 181.37 45.4489C181.43 45.4639 181.492 45.4779 181.563 45.4889L181.736 45.5049C181.777 45.5279 181.815 45.5469 181.844 45.5589L181.962 45.6349C181.967 45.6379 182.054 45.6919 182.059 45.6949C182.09 45.7129 182.121 45.7299 182.154 45.7759L182.287 45.9579C182.314 45.9919 182.342 46.0239 182.361 46.0809L182.401 46.2359C182.418 46.2919 182.448 46.3959 182.451 46.4469V46.4489C182.454 46.5029 182.461 46.5519 182.469 46.5959C182.448 47.9099 181.965 59.7279 171.682 65.8989C171.352 66.0959 170.949 66.1019 170.606 65.9049C170.452 65.8169 170.281 65.7729 170.109 65.7729C169.963 65.7729 169.816 65.8049 169.68 65.8699C169.627 65.8949 169.578 65.9219 169.554 65.9389C169.03 66.2019 168.388 65.9719 168.136 65.4689C167.977 65.1499 167.988 64.7769 168.166 64.4699C168.349 64.1549 168.346 63.7659 168.159 63.4539C168.131 63.4069 168.106 63.3489 168.081 63.2739C167.897 62.7219 168.196 62.1229 168.82 61.9109C169.425 61.6549 174.888 59.0419 180.446 46.0769ZM147.47 85.5529V79.3859C147.47 77.6699 148.865 76.2749 150.581 76.2749C152.297 76.2749 153.692 77.6699 153.692 79.3859V85.5529C153.692 87.2689 152.297 88.6649 150.581 88.6649C148.865 88.6649 147.47 87.2689 147.47 85.5529ZM167.025 105.053C167.025 106.19 167.944 107.109 169.081 107.109C170.217 107.109 171.136 106.19 171.136 105.053H167.025ZM171.447 105.053L171.965 105.244L172.534 105.531L172.589 106.304C172.589 107 171.759 107.792 170.421 108.539C167.1 108.986 163.922 109.883 160.95 111.174C160.235 111.237 159.516 111.276 158.803 111.276C158.777 111.276 158.752 111.274 158.726 111.274C159.112 110.768 159.426 110.241 159.649 109.686C160.347 107.949 160.113 106.323 159.648 105.053H161.158C160.972 105.363 160.859 105.721 160.859 106.109V107.164C160.859 108.3 161.777 109.219 162.914 109.219C164.051 109.219 164.97 108.3 164.97 107.164V106.109C164.97 105.721 164.856 105.363 164.67 105.053H171.447ZM154.305 112.346C153.781 112.639 153.121 112.408 152.883 111.856C151.559 108.788 149.84 105.929 147.79 103.344C147.285 102.708 147.726 101.775 148.537 101.737C150.612 101.639 153.921 101.792 156.222 103.406C156.38 103.554 156.537 103.694 156.694 103.847C156.9 104.089 158.802 106.431 157.793 108.941C157.415 109.882 156.486 111.122 154.305 112.346ZM82.4778 128.62C82.0858 120.899 84.1608 113.675 87.9798 107.662C89.7138 104.931 93.1338 103.807 96.1838 104.887C101.904 106.914 111.059 109.658 118.679 109.658C121.931 109.658 124.903 109.158 127.208 107.888C131.895 105.307 136.083 103.786 139.672 102.922C142.364 102.275 145.224 103.218 146.88 105.438C151.325 111.396 153.964 118.777 153.964 126.766C153.964 147.33 136.52 163.895 115.653 162.444C97.7668 161.201 83.3878 146.526 82.4778 128.62ZM82.2378 138.299C83.7678 143.057 86.2178 147.405 89.3768 151.135C86.0128 150.428 83.1658 147.887 82.2638 144.337C81.8988 142.898 81.9458 140.721 82.2378 138.299ZM115.444 83.3329C116.495 81.3489 119.033 80.2749 122.988 80.1379C123.27 80.1279 123.546 80.1239 123.817 80.1239C127.795 80.1239 130.615 81.1709 132.206 83.2429C133.361 84.7469 133.724 86.6049 133.761 88.2439C133.777 88.9169 133.152 89.4119 132.499 89.2419C127.248 87.8739 121.711 87.2829 116.048 87.9159C115.504 87.9759 115.002 87.5989 114.936 87.0539C114.774 85.7219 114.872 84.4129 115.444 83.3329ZM144.983 96.2859C146.74 97.2049 146.258 99.8469 144.286 100.054C139.452 100.561 133.377 102.207 126.243 106.136C118.952 110.15 103.362 105.353 95.7868 102.604C94.3408 102.079 94.0058 100.203 95.1708 99.1979C97.8068 96.9229 101.98 93.9549 107.54 91.9439C109.201 91.3719 110.973 90.8649 112.854 90.4639C112.861 90.4619 112.869 90.4599 112.878 90.4579C113.213 90.3869 113.552 90.3209 113.894 90.2559C123.605 88.5619 134.134 90.6099 144.983 96.2859ZM90.9748 88.2509C91.1818 88.1439 91.3458 87.9669 91.4368 87.7509C91.4648 87.6859 94.2728 81.1139 100.049 75.4879C105.621 70.0599 111.904 67.3329 118.804 67.3329C121.369 67.3329 124.02 67.7099 126.751 68.4659C136.946 71.2859 143.86 79.9999 144.546 90.5609C144.644 92.0599 143.104 93.1129 141.73 92.5029C140.227 91.8369 138.686 91.2199 137.113 90.6649C136.306 90.3789 135.755 89.6289 135.769 88.7739C135.802 86.6809 135.411 84.1399 133.8 82.0349C131.686 79.2739 128.016 77.9569 122.92 78.1399C118.197 78.3019 115.088 79.7349 113.677 82.3959C112.978 83.7159 112.785 85.1939 112.88 86.6549C112.943 87.6269 112.304 88.5029 111.356 88.7249C110.228 88.9879 109.097 89.3029 107.965 89.6749C96.6038 93.4089 90.5548 100.916 90.3028 101.234C90.2538 101.295 90.2368 101.373 90.2048 101.442C86.8998 105.092 84.3008 109.391 82.6178 114.122C81.6958 116.712 78.1198 116.879 77.0308 114.354C76.8168 113.858 76.6158 113.34 76.4288 112.802C74.3678 106.875 76.1398 100.974 81.6938 95.2589C85.9488 90.8809 90.9248 88.2779 90.9748 88.2509ZM115.987 65.5239C105.671 66.6389 98.5258 73.4729 94.2978 79.1379C93.7878 79.8219 93.0308 80.2749 92.1828 80.3639C91.8608 80.3969 91.5188 80.4169 91.1538 80.4169C87.8808 80.4169 86.2318 78.9509 86.1178 78.8479C85.2628 78.0169 83.8938 78.0219 83.0478 78.8699C82.1928 79.7249 82.1928 81.1069 83.0478 81.9619C83.3278 82.2439 85.8638 84.6259 90.6888 84.7759C90.2288 85.6249 89.9098 86.2829 89.7408 86.6469C89.0148 87.0519 87.1138 88.1659 84.8608 89.8769C83.9258 90.5879 82.6618 90.6579 81.6248 90.1069C81.3988 89.9869 81.1728 89.8619 80.9488 89.7329C72.2528 84.7249 66.5128 73.9929 65.9598 61.7149C66.2698 57.2619 68.3018 55.6219 71.1098 53.3549C72.1118 52.5449 73.2488 51.6279 74.3678 50.5079L78.2948 46.5819C79.5108 45.3659 81.3658 45.0559 82.9018 45.8279C86.8638 47.8159 93.8228 50.8009 99.9018 50.8009C107.379 50.8009 115.694 54.2959 116.334 61.9679C116.272 63.1709 116.147 64.3549 115.987 65.5239ZM174.49 104.827C174.466 104.474 174.258 104.161 173.943 104.001L172.814 103.432C172.779 103.415 172.745 103.399 172.709 103.386L171.971 103.115C171.861 103.074 171.743 103.053 171.626 103.053H158.6C158.37 102.726 158.195 102.524 158.167 102.493C158.152 102.476 158.137 102.459 158.121 102.444C154.393 98.8049 150.767 96.5889 147.386 95.3239C147.095 94.8749 146.839 94.4809 146.548 94.0339C146.569 93.7049 146.585 93.3759 146.593 93.0509C146.633 91.4629 146.544 89.9079 146.335 88.3919C147.313 89.8499 149.019 90.7809 150.929 90.6529C153.652 90.4709 155.692 88.0579 155.692 85.3309V79.6139C155.692 76.9459 153.746 74.5589 151.091 74.2999C148.044 74.0019 145.47 76.3999 145.47 79.3859V84.4029C144.09 79.7059 141.491 75.5619 137.947 72.3609C137.36 71.8299 137.094 71.0159 137.344 70.2649C137.839 68.7749 138.405 67.4349 139.036 66.2329C139.618 65.1239 141.078 64.7939 142.042 65.5939C142.906 66.3119 143.855 66.9909 144.898 67.6169C145.675 68.0829 146.638 68.1789 147.493 67.8719C147.823 67.9909 148.173 68.0519 148.523 68.0519C149.689 68.0519 150.736 67.4049 151.26 66.3609C151.641 65.5939 151.682 64.7189 151.39 63.9329C151.94 62.3499 151.184 60.6589 149.711 60.0929C149.704 60.0899 149.603 60.0399 149.418 59.9179C148.33 59.2079 148.556 57.5279 149.798 57.1429C152.731 56.2319 155.826 55.9749 158.803 55.9749C161.814 55.9749 164.946 56.2409 167.909 57.1769C169.214 57.5899 169.362 59.4099 168.141 60.0269L168.111 60.0419C166.516 60.5769 165.651 62.3099 166.181 63.8989C166.189 63.9209 166.196 63.9439 166.204 63.9649C165.923 64.7429 165.969 65.6069 166.347 66.3639C166.87 67.4049 167.918 68.0519 169.083 68.0519C169.441 68.0519 169.789 67.9909 170.115 67.8729C170.445 67.9909 170.792 68.0519 171.139 68.0519C171.686 68.0519 172.228 67.9019 172.708 67.6159C173.752 66.9899 174.701 66.3099 175.567 65.5909C176.522 64.7979 177.98 65.1099 178.559 66.2079C180.971 70.7819 182.47 77.3379 182.47 86.7089C182.47 95.3189 180.491 102.52 176.953 107.784C176.759 108.072 176.428 108.232 176.082 108.221C175.805 108.211 175.527 108.206 175.247 108.206C174.78 108.206 174.317 108.223 173.855 108.241C174.311 107.619 174.587 106.952 174.586 106.236L174.49 104.827ZM183.167 53.9869C186.22 54.0279 187.022 54.7949 187.228 55.1659C187.926 56.4179 185.905 59.0849 184.817 60.1809C184.602 60.3969 184.498 60.6989 184.532 60.9999C184.568 61.3029 184.737 61.5729 184.996 61.7339C192.014 66.1209 193.254 69.0409 193.058 70.7169C192.776 73.1299 189.353 74.3149 189.32 74.3269C189.015 74.4279 188.777 74.6689 188.682 74.9769C188.586 75.2839 188.644 75.6179 188.837 75.8749C192.933 81.3359 194.448 85.5309 193.218 88.0019C191.889 90.6719 187.622 90.7199 187.579 90.7199C187.116 90.7219 186.715 91.0419 186.609 91.4919C186.503 91.9419 186.719 92.4069 187.133 92.6149C187.21 92.6529 194.803 96.5279 194.803 101.998C194.803 103.224 194.536 104.07 193.986 104.583C192.823 105.667 190.162 105.481 187.344 105.287C186.09 105.199 184.792 105.109 183.47 105.109C183.088 105.109 182.739 105.327 182.571 105.669C182.404 106.012 182.446 106.421 182.68 106.723C182.832 106.918 182.976 107.107 183.112 107.291C183.664 108.031 183.021 109.044 182.114 108.868C181.57 108.761 181.022 108.667 180.469 108.585C179.79 108.486 179.414 107.725 179.752 107.128C182.793 101.754 184.47 94.8179 184.47 86.7089C184.47 76.9129 182.834 70.0149 180.248 65.1659C179.384 63.5459 179.418 61.6069 180.392 60.0509C181.682 57.9909 182.565 55.8959 183.167 53.9869ZM189.109 110.99C187.922 110.493 186.962 109.599 186.318 108.485C186.075 108.066 185.799 107.628 185.486 107.17C186.065 107.203 186.64 107.243 187.206 107.282C190.611 107.519 193.551 107.722 195.35 106.045C196.328 105.133 196.803 103.809 196.803 101.998C196.803 97.5109 193.039 94.1089 190.438 92.2939C192.083 91.8349 194.014 90.8819 195.004 88.9029C196.534 85.8419 195.247 81.3999 191.178 75.6889C192.59 74.9599 194.746 73.4559 195.043 70.9599C195.417 67.8149 192.802 64.4459 187.058 60.6789C188.269 59.2219 190.193 56.3809 188.977 54.1939C188.225 52.8419 186.504 52.1099 183.719 51.9909C184.446 48.9479 184.47 46.7189 184.47 46.4939C184.47 46.4279 184.459 46.3349 184.442 46.2539C184.421 46.0249 184.366 45.8259 184.306 45.6159C184.282 45.5159 184.246 45.3659 184.17 45.2039C184.075 45.0009 183.958 44.8489 183.872 44.7379L183.799 44.6379C183.733 44.5419 183.641 44.4099 183.497 44.2739C183.349 44.1369 183.201 44.0479 183.093 43.9829L182.496 44.7899L182.955 43.8949C182.868 43.8369 182.756 43.7619 182.608 43.6959C182.551 43.6639 182.49 43.6339 182.436 43.6149C182.219 43.5389 182.029 43.5239 181.861 43.5099C181.757 43.4799 181.539 43.4109 181.268 43.4529C180.986 43.4679 180.731 43.5349 180.501 43.6069C180.417 43.6239 180.281 43.6609 180.215 43.6889C179.485 43.9999 178.913 44.5699 178.607 45.2919C177.249 48.4589 175.902 50.9659 174.647 52.9499C173.83 53.1079 172.991 53.2779 172.102 53.4749C171.953 50.4579 171.161 43.4409 167.026 43.4409C163.523 43.4409 160.326 48.0149 158.803 50.5889C157.281 48.0149 154.084 43.4409 150.581 43.4409C146.447 43.4409 145.654 50.4509 145.504 53.4699C144.773 53.3049 144.074 53.1579 143.392 53.0189C142.115 51.0419 140.701 48.5399 139.204 45.3779C139.105 45.0419 138.861 44.8299 138.711 44.7139C138.614 44.5809 138.502 44.4419 138.387 44.3269C138.132 44.0759 137.799 43.8569 137.408 43.6849C137.257 43.6229 137.124 43.6059 137.103 43.6079C136.881 43.5389 136.64 43.4719 136.352 43.4539C136.083 43.4149 135.87 43.4779 135.718 43.5119C135.588 43.5219 135.39 43.5379 135.149 43.6239C135.109 43.6389 135.06 43.6619 135.015 43.6869C134.861 43.7549 134.742 43.8349 134.653 43.8949L134.537 43.9679C134.418 44.0389 134.256 44.1339 134.109 44.2759C133.975 44.3999 133.886 44.5269 133.827 44.6109L133.744 44.7219C133.655 44.8389 133.533 44.9999 133.441 45.1989C133.362 45.3629 133.325 45.5139 133.283 45.6829C133.239 45.8379 133.186 46.0279 133.165 46.2529C133.148 46.3339 133.136 46.4299 133.136 46.4969C133.136 46.7209 133.16 48.9279 133.876 51.9469C131.11 52.0599 129.394 52.7879 128.638 54.1329C127.403 56.3319 129.34 59.2079 130.552 60.6759C129.254 61.5269 128.124 62.3569 127.144 63.1689V60.7349C127.144 47.0659 122.066 37.0979 115.132 30.4839C114.438 29.8229 114.022 28.9209 114.022 27.9619V27.9329C114.022 27.5029 113.747 27.1209 113.339 26.9849L108.229 25.2819C108.163 25.2429 108.097 25.2049 108.03 25.1669C107.253 24.7169 106.576 24.1149 106.078 23.3679L102.921 18.6319C102.671 18.2559 102.2 18.0949 101.772 18.2379L99.1138 19.1239C97.0818 19.7999 94.8408 19.2719 93.3258 17.7569L91.8608 16.2919C91.4708 15.9019 90.8378 15.9019 90.4468 16.2919L88.9828 17.7569C87.4668 19.2719 85.2268 19.7999 83.1948 19.1239L80.5358 18.2379C80.1078 18.0949 79.6378 18.2559 79.3878 18.6309L76.2468 23.3439C75.7318 24.1169 75.0458 24.7599 74.2418 25.2249L74.2298 25.2319L68.9698 26.9849C68.5618 27.1209 68.2868 27.5019 68.2868 27.9329V27.9659C68.2868 28.8979 67.9128 29.7899 67.2358 30.4279C61.8518 35.5039 55.9798 44.1129 55.2478 57.8449C55.1928 58.8669 55.1658 59.8119 55.1658 60.7339C55.1658 61.3969 55.1618 62.1619 55.1568 63.0069C55.1168 69.9959 55.0538 81.3369 56.8268 88.8829C41.7168 93.1579 30.6098 107.062 30.6098 123.522C30.6098 127.763 31.3518 131.833 32.7048 135.616C31.8268 137.052 31.1988 138.327 30.9598 139.27C30.2168 142.195 30.6568 145.233 32.1998 147.826C33.7428 150.418 36.2018 152.254 39.1258 152.996C40.0548 153.231 40.9858 153.344 41.9038 153.344C43.1758 153.344 44.4188 153.126 45.5898 152.72C48.6728 154.947 52.1168 156.703 55.8218 157.87C50.9298 163.429 48.1098 170.939 48.1098 179.669C48.1098 188.833 48.1098 197.563 55.7518 202.801C58.3018 204.549 59.7758 207.488 59.7758 210.58V212.457C59.7758 216.102 62.5158 219.306 66.1548 219.543C68.4568 219.693 70.5388 218.695 71.8818 217.067C72.6838 216.094 74.1878 216.168 75.0018 217.131C76.2558 218.615 78.1298 219.558 80.2198 219.558C82.3108 219.558 84.1848 218.615 85.4388 217.131C86.2528 216.168 87.7558 216.094 88.5588 217.067C89.9018 218.695 91.9838 219.693 94.2858 219.543C97.9238 219.306 100.665 216.102 100.665 212.457V210.58C100.665 207.399 102.296 204.495 104.892 202.658C106.089 201.812 107.092 200.877 107.935 199.868C109.074 198.5 110.988 198.038 112.607 198.78C117.162 200.872 122.223 202.042 127.555 202.042C142.118 202.042 154.68 193.346 160.343 180.877C161.155 179.088 163.174 178.172 165.059 178.731C169.527 180.055 174.352 180.537 179.357 179.974C195.905 178.115 209.19 164.836 211.021 148.286C212.862 131.636 203.265 116.919 189.109 110.99Z" fill="#1F2225"/>
</g>
<path fill-rule="evenodd" clip-rule="evenodd" d="M39.0796 119.257C39.3306 119.358 39.5886 119.405 39.8436 119.405C40.6606 119.403 41.4336 118.915 41.7566 118.111C45.3876 109.029 54.2866 107.09 54.6666 107.012C55.7766 106.785 56.4976 105.701 56.2746 104.59C56.0526 103.475 54.9716 102.756 53.8516 102.976C53.3886 103.067 42.4126 105.381 37.9336 116.58C37.5106 117.637 38.0236 118.835 39.0796 119.257ZM109.025 171.219C107.587 171.219 106.206 171.83 105.237 172.897C104.269 173.962 103.794 175.399 103.932 176.839C104.18 179.427 106.496 181.454 109.204 181.454C110.792 181.454 112.084 180.162 112.084 178.574V174.099C112.084 172.511 110.792 171.219 109.204 171.219H109.025ZM117.082 171.219C115.494 171.219 114.202 172.511 114.202 174.099V178.574C114.202 180.162 115.494 181.454 117.082 181.454H123.616C125.204 181.454 126.496 180.162 126.496 178.574V174.099C126.496 172.511 125.204 171.219 123.616 171.219H117.082ZM131.493 171.219C129.905 171.219 128.613 172.511 128.613 174.099V178.574C128.613 180.162 129.905 181.454 131.493 181.454H138.028C139.616 181.454 140.908 180.162 140.908 178.574V174.099C140.908 172.511 139.616 171.219 138.028 171.219H131.493ZM145.905 171.219C144.317 171.219 143.025 172.511 143.025 174.099V178.574C143.025 180.162 144.317 181.454 145.905 181.454C148.613 181.454 150.929 179.427 151.178 176.839C151.316 175.399 150.84 173.962 149.872 172.897C148.903 171.83 147.523 171.219 146.084 171.219H145.905ZM109.025 183.573C105.035 183.573 101.79 180.326 101.79 176.336C101.79 172.347 105.035 169.102 109.025 169.102H146.084C150.074 169.102 153.319 172.347 153.319 176.336C153.319 180.326 150.074 183.573 146.084 183.573H109.025ZM116.879 129.123C119.088 129.123 120.879 126.617 120.879 123.522C120.879 120.43 119.088 117.923 116.879 117.923C114.67 117.923 112.879 120.43 112.879 123.522C112.879 126.617 114.67 129.123 116.879 129.123ZM142.995 129.123C145.205 129.123 146.995 126.617 146.995 123.522C146.995 120.43 145.205 117.923 142.995 117.923C140.786 117.923 138.995 120.43 138.995 123.522C138.995 126.617 140.786 129.123 142.995 129.123ZM114.219 141.447C114.723 141.447 116.086 147.015 122.728 145.159C123.464 144.954 124.272 145.075 124.843 145.584C127.024 147.529 132.285 149.503 136.175 145.699C136.736 145.15 137.574 144.966 138.323 145.199C143.887 146.934 145.037 141.447 145.465 141.447C147.692 141.447 149.497 139.333 149.497 136.725C149.497 135.747 148.865 134.666 148.329 133.925C148.013 133.488 147.423 133.524 147.158 134.007C146.469 135.262 144.868 137.195 141.727 136.556C140.414 136.193 139.237 135.4 137.932 135.009C135.954 134.416 135.162 134.385 133.44 134.952C133.048 135.082 132.62 135.113 132.219 135.016C129.581 134.383 125.441 134.393 123.039 135.009C121.512 135.4 120.133 136.193 118.596 136.556C115.976 137.011 114.271 136.162 113.215 135.181C111.954 134.01 109.778 134.704 109.522 136.406C109.506 136.513 109.497 136.62 109.497 136.725C109.497 139.333 111.611 141.447 114.219 141.447ZM216.846 81.9525H216.336C215.784 81.9525 215.336 81.5055 215.336 80.9525V80.4415C215.336 79.8895 214.888 79.4415 214.336 79.4415C213.783 79.4415 213.336 79.8895 213.336 80.4415V80.9525C213.336 81.5055 212.888 81.9525 212.336 81.9525H211.826C211.274 81.9525 210.826 82.3995 210.826 82.9525C210.826 83.5055 211.274 83.9525 211.826 83.9525H212.336C212.888 83.9525 213.336 84.3995 213.336 84.9525V85.4625C213.336 86.0145 213.783 86.4625 214.336 86.4625C214.888 86.4625 215.336 86.0145 215.336 85.4625V84.9525C215.336 84.3995 215.784 83.9525 216.336 83.9525H216.846C217.398 83.9525 217.846 83.5055 217.846 82.9525C217.846 82.3995 217.398 81.9525 216.846 81.9525ZM9.02 81.9525H8.51C7.958 81.9525 7.51 81.5055 7.51 80.9525V80.4415C7.51 79.8895 7.062 79.4415 6.51 79.4415C5.957 79.4415 5.51 79.8895 5.51 80.4415V80.9525C5.51 81.5055 5.062 81.9525 4.51 81.9525H4C3.448 81.9525 3 82.3995 3 82.9525C3 83.5055 3.448 83.9525 4 83.9525H4.51C5.062 83.9525 5.51 84.3995 5.51 84.9525V85.4625C5.51 86.0145 5.957 86.4625 6.51 86.4625C7.062 86.4625 7.51 86.0145 7.51 85.4625V84.9525C7.51 84.3995 7.958 83.9525 8.51 83.9525H9.02C9.572 83.9525 10.02 83.5055 10.02 82.9525C10.02 82.3995 9.572 81.9525 9.02 81.9525ZM23.04 157.533C22.206 157.533 21.53 156.857 21.53 156.023C21.53 155.47 21.082 155.023 20.53 155.023C19.977 155.023 19.53 155.47 19.53 156.023C19.53 156.857 18.854 157.533 18.02 157.533C17.468 157.533 17.02 157.98 17.02 158.533C17.02 159.086 17.468 159.533 18.02 159.533C18.854 159.533 19.53 160.209 19.53 161.043C19.53 161.595 19.977 162.043 20.53 162.043C21.082 162.043 21.53 161.595 21.53 161.043C21.53 160.209 22.206 159.533 23.04 159.533C23.592 159.533 24.04 159.086 24.04 158.533C24.04 157.98 23.592 157.533 23.04 157.533ZM35.6464 63.6791C35.9024 63.6791 36.1584 63.5811 36.3534 63.3861L37.5374 62.2021C37.9274 61.8121 37.9274 61.1791 37.5374 60.7881C37.1464 60.3981 36.5134 60.3981 36.1234 60.7881L34.9394 61.9721C34.5484 62.3631 34.5484 62.9951 34.9394 63.3861C35.1344 63.5811 35.3904 63.6791 35.6464 63.6791ZM31.6206 66.7055C31.2296 66.3145 30.5976 66.3145 30.2066 66.7055L29.0236 67.8885C28.6326 68.2785 28.6326 68.9115 29.0236 69.3025C29.2186 69.4975 29.4746 69.5955 29.7306 69.5955C29.9866 69.5955 30.2426 69.4975 30.4376 69.3025L31.6206 68.1195C32.0116 67.7285 32.0116 67.0965 31.6206 66.7055ZM36.123 69.3021C36.318 69.4971 36.574 69.5951 36.83 69.5951C37.086 69.5951 37.342 69.4971 37.538 69.3021C37.928 68.9111 37.928 68.2781 37.537 67.8881L36.353 66.7051C35.963 66.3151 35.33 66.3151 34.939 66.7051C34.549 67.0961 34.549 67.7301 34.939 68.1191L36.123 69.3021ZM30.2065 63.3861C30.4015 63.5811 30.6575 63.6791 30.9135 63.6791C31.1695 63.6791 31.4255 63.5811 31.6205 63.3861C32.0115 62.9951 32.0115 62.3631 31.6205 61.9721L30.4375 60.7881C30.0465 60.3981 29.4145 60.3981 29.0235 60.7881C28.6325 61.1791 28.6325 61.8121 29.0235 62.2021L30.2065 63.3861ZM221.926 106.965C221.093 106.965 220.416 106.287 220.416 105.455C220.416 104.622 221.093 103.944 221.926 103.944C222.759 103.944 223.436 104.622 223.436 105.455C223.436 106.287 222.759 106.965 221.926 106.965ZM221.926 101.944C219.99 101.944 218.416 103.52 218.416 105.455C218.416 107.391 219.99 108.965 221.926 108.965C223.862 108.965 225.436 107.391 225.436 105.455C225.436 103.52 223.862 101.944 221.926 101.944Z" fill="#1F2225"/>
<ellipse cx="156.5" cy="47" rx="7.5" ry="12" fill="#C4C4C4"/>
</g>
<defs>
<clipPath id="clip0">
<rect width="272" height="212" fill="white"/>
</clipPath>
</defs>
</svg>
