<svg width="177" height="148" viewBox="0 0 177 148" fill="none" xmlns="http://www.w3.org/2000/svg">
<path d="M130.548 18.802C130.548 16.439 128.99 14.478 127.066 14.478H123.448C121.524 14.478 119.967 16.388 119.967 18.802C120.012 19.254 119.692 19.656 119.28 19.656H118.18C116.531 19.656 115.203 21.316 115.203 23.326H135.312C135.312 21.717 134.258 20.36 132.93 20.36H131.83C131.097 20.36 130.502 19.656 130.548 18.802C130.548 18.852 130.548 18.852 130.548 18.802Z" fill="white" fill-opacity="0.1"/>
<path d="M30.398 100.94H33.766C39.725 100.875 44.518 96.082 44.518 90.124C44.583 84.231 49.376 79.438 55.271 79.438H78.2C79.1697 79.4375 80.1301 79.6281 81.0261 79.9989C81.9222 80.3697 82.7363 80.9135 83.4221 81.5992C84.1079 82.2848 84.6518 83.0989 85.0227 83.9949C85.3937 84.8909 85.5844 85.8512 85.584 86.821C85.5836 87.7907 85.7743 88.751 86.1453 89.647C86.5162 90.543 87.0601 91.3571 87.7459 92.0428C88.4317 92.7285 89.2458 93.2722 90.1419 93.6431C91.0379 94.0139 91.9983 94.2045 92.968 94.204H110.975C121.274 94.204 129.565 102.494 129.565 112.791V114.151C129.565 121.34 135.395 127.169 142.585 127.169H147.767C156.706 127.169 165.126 131.573 170.243 138.891L176.332 147.764H6.107C3.257 147.764 0.925003 145.432 0.925003 142.583V130.342C0.990003 114.087 14.14 100.94 30.398 100.94Z" fill="white" fill-opacity="0.06"/>
<path d="M9.83301 69.174H37.985C37.941 66.201 35.655 63.784 32.795 63.784H29.804C29.32 63.784 28.924 63.367 28.924 62.856C28.88 59.232 26.064 56.305 22.634 56.305H22.37C18.939 56.258 16.123 59.185 16.08 62.855V64.807C16.08 65.829 15.244 66.665 14.276 66.665H12.209C10.933 66.665 9.83301 67.78 9.83301 69.174ZM158.086 73.497C158.086 71.134 156.591 69.174 154.744 69.174H151.27C149.423 69.174 147.928 71.084 147.928 73.497C147.972 73.95 147.664 74.352 147.269 74.352H146.213C144.63 74.352 143.355 76.011 143.355 78.022H162.659C162.659 76.413 161.648 75.056 160.373 75.056H159.317C158.614 75.056 158.042 74.352 158.086 73.497C158.086 73.547 158.086 73.547 158.086 73.497ZM58.424 6.7C58.378 2.963 55.332 0 51.594 0H44.486C40.748 0 37.702 2.963 37.656 6.655C37.656 7.384 37.01 7.976 36.271 7.976H34.148C30.964 7.976 28.333 10.529 28.333 13.674H67.746C67.746 11.167 65.623 9.116 63.085 9.116H60.962C59.532 9.207 58.424 8.068 58.424 6.7Z" fill="black" fill-opacity="0.1"/>
<path d="M72.047 122.4H67.25C66.6715 122.4 66.0988 122.285 65.5646 122.063C65.0303 121.842 64.545 121.517 64.1364 121.107C63.7278 120.698 63.4039 120.212 63.1831 119.677C62.9624 119.142 62.8492 118.569 62.85 117.991C62.8493 117.413 62.9626 116.84 63.1834 116.305C63.4042 115.771 63.7282 115.285 64.1368 114.875C64.5454 114.466 65.0306 114.141 65.5648 113.919C66.099 113.698 66.6716 113.583 67.25 113.583H72.047C72.6254 113.583 73.198 113.698 73.7322 113.919C74.2664 114.141 74.7516 114.466 75.1602 114.875C75.5688 115.285 75.8928 115.771 76.1136 116.305C76.3343 116.84 76.4477 117.413 76.447 117.991C76.4478 118.569 76.3346 119.142 76.1138 119.677C75.8931 120.212 75.5692 120.698 75.1606 121.107C74.752 121.517 74.2667 121.842 73.7324 122.063C73.1982 122.285 72.6255 122.4 72.047 122.4Z" fill="#FF7B78"/>
<path d="M106.413 147.992C124.08 147.992 138.402 133.638 138.402 115.931C138.402 98.224 124.08 83.871 106.413 83.871C88.746 83.871 74.423 98.224 74.423 115.931C74.423 133.638 88.746 147.992 106.413 147.992Z" fill="#4F5D7F"/>
<path d="M111.194 81.126C108.715 77.747 104.723 75.543 100.242 75.543H83.349V105.057H113.83V89.157C113.83 86.2677 112.906 83.4541 111.194 81.127V81.126Z" fill="#AABFF2"/>
<path d="M86.77 75.543H78.588C75.069 75.543 72.191 78.427 72.191 81.954V95.82C72.191 99.359 75.057 102.231 78.588 102.231H86.77V75.543Z" fill="#8BA4E8"/>
<path d="M114.936 89.75H73.877V112.783H114.936V89.75Z" fill="#2F3849"/>
<path d="M89.421 125.606H70.231C69.6002 125.605 68.9757 125.48 68.3931 125.238C67.8106 124.996 67.2814 124.642 66.8359 124.195C66.3903 123.749 66.0371 123.219 65.7964 122.636C65.5557 122.053 65.4322 121.428 65.433 120.797V111.18L89.421 116.792V125.606Z" fill="#B7C2CE"/>
<path d="M106.413 136.764C117.893 136.764 127.199 127.437 127.199 115.931C127.199 104.426 117.893 95.098 106.413 95.098C94.933 95.098 85.627 104.426 85.627 115.931C85.627 127.437 94.933 136.764 106.413 136.764Z" fill="#7687B2"/>
<path d="M131.434 137.641C126.537 137.641 114.779 124.576 108.267 116.046C108.304 108.263 109.336 88.906 113.805 84.422C114.446 83.78 114.936 83.705 115.248 83.705C115.429 83.705 115.622 83.735 115.828 83.796C125.39 86.618 132.885 93.042 136.939 101.885C142.041 113.018 140.4 126.174 132.556 137.085C132.268 137.481 131.944 137.641 131.434 137.641Z" fill="#EF8843"/>
<path d="M121.464 102.894C121.364 102.894 121.267 102.864 121.184 102.808C121.102 102.752 121.038 102.673 121 102.581L112.531 81.534C112.39 81.1823 112.147 80.8808 111.834 80.6685C111.52 80.4562 111.15 80.3428 110.771 80.343H98.335C98.2018 80.3424 98.0743 80.2892 97.9803 80.195C97.8862 80.1007 97.8333 79.9731 97.833 79.84C97.833 79.564 98.059 79.338 98.335 79.338H110.771C111.959 79.338 113.016 80.051 113.46 81.158L121.929 102.206C121.954 102.267 121.966 102.333 121.965 102.399C121.965 102.465 121.951 102.531 121.925 102.592C121.899 102.652 121.861 102.708 121.814 102.754C121.766 102.8 121.71 102.836 121.649 102.861C121.59 102.882 121.527 102.893 121.464 102.894Z" fill="white"/>
<path d="M106.668 116.586C106.668 116.586 125.419 85.972 129.214 89.153C133.135 92.4402 136.271 96.562 138.394 101.217C144.142 113.764 141.399 127.534 133.855 138.025C128.503 145.458 106.668 116.586 106.668 116.586Z" fill="#FC964B"/>
<path d="M136.449 133.756C135.426 134.152 134.036 134.242 132.186 133.554C124.675 130.765 112.827 116.075 109.546 111.873C106.82 114.069 105.065 115.865 105.065 116.59V117.126L105.389 117.555C105.994 118.354 120.276 137.143 128.877 140.336C132.503 141.684 134.361 140.052 135.146 138.956C137.416 135.808 137.432 133.373 136.449 133.756Z" fill="#DAE2ED"/>
<path d="M76.574 103.776H69.584V85.638C69.5832 84.7101 69.9509 83.8198 70.6063 83.163C71.2617 82.5061 72.1511 82.1363 73.079 82.135C74.0069 82.1363 74.8963 82.5061 75.5517 83.163C76.2071 83.8198 76.5748 84.7101 76.574 85.638V103.776Z" fill="#2F3849"/>
<path d="M86.532 113.377L74.952 106.778L71.191 113.408L82.771 120.007L86.531 113.377H86.532Z" fill="#72767D"/>
<path d="M71.961 116.207L42.34 102.371C42.0573 102.241 41.8111 102.043 41.6232 101.795C41.4353 101.547 41.3116 101.256 41.263 100.949C41.061 99.589 41.127 96.932 43.29 93.125C45.452 89.317 47.697 87.9 48.963 87.377C49.251 87.2612 49.5633 87.2186 49.8718 87.253C50.1803 87.2874 50.4755 87.3977 50.731 87.574L77.741 106.013C78.1358 106.283 78.4148 106.692 78.523 107.158C78.6311 107.625 78.5604 108.114 78.325 108.531L74.415 115.42C74.1809 115.837 73.7978 116.15 73.3426 116.296C72.8874 116.442 72.3938 116.41 71.961 116.207Z" fill="#DAE2ED"/>
<path d="M93.401 128.264L81.849 121.679C81.183 121.299 80.695 120.671 80.4921 119.931C80.2892 119.192 80.3881 118.402 80.767 117.736L83.559 112.816C83.7457 112.486 83.9957 112.196 84.2946 111.963C84.5935 111.73 84.9355 111.558 85.301 111.457C85.6665 111.357 86.0482 111.329 86.4244 111.376C86.8005 111.423 87.1637 111.544 87.493 111.732L99.046 118.317L93.401 128.264Z" fill="#A7A8AA"/>
<path d="M58.752 95.354C59.1907 95.6048 59.5123 96.0191 59.6463 96.5064C59.7803 96.9937 59.7158 97.5142 59.467 97.954C59.3439 98.1715 59.179 98.3626 58.982 98.5164C58.7849 98.6701 58.5595 98.7836 58.3186 98.8502C58.0777 98.9167 57.826 98.9352 57.578 98.9044C57.3299 98.8737 57.0904 98.7944 56.873 98.671L58.752 95.354ZM67.39 103.273C67.2669 103.491 67.102 103.682 66.9049 103.836C66.7077 103.99 66.4822 104.103 66.2412 104.17C66.0002 104.236 65.7484 104.255 65.5002 104.224C65.2521 104.193 65.0124 104.114 64.795 103.99C64.3563 103.739 64.0347 103.325 63.9007 102.838C63.7667 102.35 63.8312 101.83 64.08 101.39" fill="#D0D9EA"/>
<path d="M86.412 104.663L74.833 98.064L71.072 104.694L82.651 111.293L86.412 104.663Z" fill="#A7A8AA"/>
<path d="M71.842 107.497L42.221 93.657C41.9382 93.527 41.692 93.3292 41.5041 93.0811C41.3162 92.833 41.1925 92.5424 41.144 92.235C40.942 90.875 41.008 88.217 43.17 84.41C45.333 80.603 47.578 79.185 48.844 78.662C49.1321 78.5464 49.4444 78.5039 49.7529 78.5385C50.0614 78.573 50.3566 78.6835 50.612 78.86L77.622 97.299C78.0167 97.5693 78.2957 97.9778 78.4039 98.4438C78.512 98.9098 78.4414 99.3995 78.206 99.816L74.296 106.706C74.0619 107.123 73.679 107.436 73.224 107.582C72.769 107.729 72.2755 107.699 71.842 107.497ZM93.282 119.553L81.729 112.968C81.0633 112.588 80.5757 111.959 80.3732 111.22C80.1708 110.481 80.2699 109.691 80.649 109.025L83.439 104.105C83.6257 103.775 83.8757 103.485 84.1748 103.252C84.4738 103.019 84.8159 102.847 85.1815 102.746C85.5472 102.646 85.929 102.618 86.3053 102.665C86.6815 102.713 87.0447 102.834 87.374 103.022L98.927 109.606L93.282 119.553Z" fill="#EBEFF7"/>
<path d="M71.291 98.7C71.954 98.7 72.491 98.161 72.491 97.497C72.491 96.832 71.954 96.293 71.291 96.293C70.628 96.293 70.091 96.833 70.091 97.497C70.091 98.161 70.628 98.7 71.291 98.7ZM65.618 94.818C66.281 94.818 66.818 94.28 66.818 93.615C66.818 92.951 66.281 92.412 65.618 92.412C64.955 92.412 64.418 92.95 64.418 93.615C64.418 94.28 64.955 94.818 65.618 94.818Z" fill="#A7A8AA"/>
<path d="M106.413 133.558C116.127 133.558 124.001 125.666 124.001 115.931C124.001 106.196 116.127 98.304 106.413 98.304C96.7 98.304 88.825 106.196 88.825 115.931C88.825 125.666 96.7 133.558 106.413 133.558Z" fill="#EBEFF7"/>
<path d="M106.413 130.756C114.583 130.756 121.205 124.119 121.205 115.931C121.205 107.743 114.583 101.106 106.413 101.106C98.243 101.106 91.621 107.743 91.621 115.931C91.621 124.119 98.244 130.756 106.413 130.756Z" fill="#DCDDDE"/>
<path d="M100.814 78.275H90.61C90.2098 78.2748 89.8136 78.1958 89.444 78.0424C89.0744 77.889 88.7387 77.6642 88.4561 77.3809C88.1735 77.0977 87.9495 76.7614 87.7969 76.3915C87.6443 76.0215 87.5662 75.6251 87.567 75.225H81.15V89.655H87.518C88.106 86.301 91.025 83.747 94.54 83.747H100.69C102.01 83.747 103.227 82.861 103.486 81.563C103.567 81.1659 103.56 80.7557 103.463 80.3619C103.367 79.9682 103.184 79.6008 102.929 79.2862C102.673 78.9716 102.351 78.7177 101.985 78.5429C101.619 78.368 101.219 78.2765 100.814 78.275Z" fill="#8BA4E8"/>
<path d="M84.308 75.609H94.82C103.844 75.609 111.228 68.209 111.228 59.164C111.228 50.12 103.844 42.72 94.82 42.72H84.308C75.283 42.72 67.9 50.12 67.9 59.164C67.9 68.213 75.283 75.609 84.308 75.609Z" fill="#8BA4E8"/>
<path d="M89.84 75.609H100.353C109.377 75.609 116.761 68.209 116.761 59.164C116.761 50.12 109.377 42.72 100.353 42.72H89.841C80.817 42.72 73.433 50.12 73.433 59.164C73.437 68.213 80.817 75.609 89.841 75.609H89.84Z" fill="#AABFF2"/>
<path d="M76.73 61.3069V53.5649C76.7304 53.4378 76.7057 53.3119 76.6573 53.1944C76.609 53.0768 76.5379 52.97 76.4481 52.8799C76.3584 52.7899 76.2518 52.7185 76.1344 52.6698C76.017 52.621 75.8911 52.5959 75.764 52.5959H72.446C71.8109 52.5967 71.1822 52.7226 70.5958 52.9664C70.0094 53.2101 69.4767 53.567 69.0282 54.0166C68.5797 54.4662 68.2241 54.9998 67.9818 55.5868C67.7395 56.1739 67.6152 56.8029 67.616 57.4379C67.6147 58.7204 68.1228 59.9508 69.0285 60.8586C69.9343 61.7665 71.1636 62.2774 72.446 62.2789H75.764C76.0208 62.2774 76.2664 62.1743 76.4474 61.9921C76.6284 61.81 76.73 61.5637 76.73 61.3069Z" fill="#80A7FF"/>
<path d="M86.614 60.133C87.3576 60.1296 88.0696 59.8322 88.5947 59.3058C89.1198 58.7793 89.4154 58.0666 89.417 57.323C89.4154 56.5794 89.1198 55.8667 88.5947 55.3402C88.0696 54.8138 87.3576 54.5164 86.614 54.513C85.8703 54.5162 85.158 54.8134 84.6327 55.3399C84.1073 55.8664 83.8116 56.5793 83.81 57.323C83.81 58.067 84.1051 58.7807 84.6306 59.3075C85.156 59.8343 85.869 60.1311 86.613 60.133H86.614Z" fill="black"/>
<path d="M115.736 51H97.261C96.3959 51.0034 95.5674 51.366 94.9564 52.0084C94.3453 52.6508 94.0015 53.5209 94 54.4284V58.4269C94 63.142 97.6694 67 102.153 67H110.848C115.332 67 119 63.142 119 58.4269V54.4284C118.996 52.5426 117.53 51 115.736 51Z" fill="#B2C8F4"/>
<path d="M109.324 67.207C115.417 67.207 120.403 62.209 120.403 56.103V55.703C120.403 53.26 118.409 51.261 115.972 51.261H102.676C100.238 51.261 98.244 53.26 98.244 55.703V56.103C98.244 62.213 103.231 67.207 109.324 67.207Z" fill="#CBDAF7"/>
<path d="M109.06 60.763H105.373C104.592 60.763 103.954 61.402 103.954 62.185C103.954 62.967 104.592 63.606 105.373 63.606H109.06C109.842 63.606 110.479 62.967 110.479 62.184C110.479 61.406 109.842 60.763 109.06 60.763ZM115.733 60.763H114.882H115.166H114.315C113.534 60.763 112.896 61.402 112.896 62.185C112.896 62.967 113.534 63.606 114.315 63.606H115.166H114.882H115.733C116.099 63.5892 116.444 63.4321 116.697 63.1673C116.95 62.9026 117.091 62.5506 117.091 62.1845C117.091 61.8184 116.95 61.4664 116.697 61.2017C116.444 60.9369 116.099 60.7798 115.733 60.763Z" fill="#AABFF2"/>
<path d="M107.498 70.5899H109.772C109.896 70.5898 110.019 70.5652 110.134 70.5175C110.249 70.4697 110.353 70.3998 110.441 70.3118C110.529 70.2238 110.598 70.1193 110.646 70.0043C110.693 69.8894 110.717 69.7663 110.717 69.6419C110.717 69.5177 110.693 69.3947 110.645 69.2799C110.598 69.165 110.528 69.0607 110.441 68.9727C110.353 68.8848 110.249 68.815 110.134 68.7673C110.019 68.7197 109.896 68.6951 109.772 68.6949H107.498C107.256 68.7086 107.028 68.8143 106.862 68.9905C106.695 69.1667 106.602 69.4 106.602 69.6424C106.602 69.8849 106.695 70.1182 106.862 70.2944C107.028 70.4706 107.256 70.5763 107.498 70.5899Z" fill="#8BA4E8"/>
<path d="M68.343 58.171L65.12 60.441V78.876L68.343 81.146L71.567 78.876V60.442L68.343 58.172V58.171ZM68.343 77.348C68.2398 77.3478 68.1376 77.3274 68.0423 77.2877C67.947 77.2481 67.8604 77.1901 67.7875 77.117C67.7146 77.044 67.6568 76.9572 67.6174 76.8618C67.5781 76.7664 67.5579 76.6642 67.558 76.561C67.5581 76.4577 67.5786 76.3556 67.6182 76.2602C67.6578 76.1649 67.7158 76.0784 67.7889 76.0055C67.862 75.9326 67.9487 75.8748 68.0441 75.8354C68.1395 75.796 68.2418 75.7758 68.345 75.776C68.5535 75.7762 68.7533 75.8593 68.9005 76.0069C69.0477 76.1545 69.1303 76.3545 69.13 76.563C69.1297 76.7714 69.0467 76.9712 68.8991 77.1185C68.7515 77.2657 68.5515 77.3482 68.343 77.348ZM68.343 73.149C68.2398 73.1488 68.1376 73.1284 68.0423 73.0887C67.947 73.0491 67.8604 72.9911 67.7875 72.918C67.7146 72.845 67.6568 72.7582 67.6174 72.6628C67.5781 72.5674 67.5579 72.4652 67.558 72.362C67.5581 72.2587 67.5786 72.1566 67.6182 72.0612C67.6578 71.9659 67.7158 71.8794 67.7889 71.8065C67.862 71.7336 67.9487 71.6758 68.0441 71.6364C68.1395 71.597 68.2418 71.5768 68.345 71.577C68.5535 71.5772 68.7533 71.6603 68.9005 71.8079C69.0477 71.9555 69.1303 72.1555 69.13 72.364C69.1297 72.5724 69.0467 72.7722 68.8991 72.9195C68.7515 73.0667 68.5515 73.1492 68.343 73.149Z" fill="#EF8843"/>
<path d="M90.82 33.437C90.82 33.437 80.565 56.222 78.56 61.36C75.678 68.74 63.402 67.837 63.402 57.338L90.819 33.436L90.82 33.437Z" fill="#C7D2EC"/>
<path d="M114.668 42.374C114.668 42.374 107.535 32.098 88.813 32.098C70.091 32.098 61.395 45.502 61.395 56.001C61.395 66.499 73.671 67.401 76.553 60.022C78.56 54.884 82.124 46.841 82.124 46.841L114.668 42.374Z" fill="#EBEFF7"/>
<path d="M106.865 41.257C106.865 41.257 103.075 33.437 89.701 31.652L80.784 32.097C80.784 32.097 95.05 31.426 101.961 41.48L106.865 41.257Z" fill="#FC964B"/>
<path d="M82.124 46.84H126.706C126.706 46.84 119.795 40.808 104.641 41.03C89.487 41.253 82.124 46.84 82.124 46.84Z" fill="#647096"/>
<path d="M73.615 55.425C74.043 51.935 72.014 48.813 69.082 48.451C66.15 48.09 63.426 50.625 62.997 54.115C62.569 57.605 64.598 60.726 67.53 61.088C70.462 61.45 73.186 58.914 73.615 55.425Z" fill="#7687B2"/>
<path d="M71.412 55.2369C71.716 52.7569 70.273 50.5379 68.189 50.2809C66.104 50.0239 64.168 51.8249 63.863 54.3049C63.558 56.7849 65.001 59.005 67.086 59.261C69.17 59.519 71.106 57.7169 71.412 55.2369Z" fill="white"/>
<path d="M70.207 55.105C70.425 53.33 69.393 51.742 67.901 51.557C66.409 51.373 65.023 52.663 64.805 54.438C64.587 56.214 65.619 57.802 67.111 57.986C68.603 58.17 69.989 56.88 70.207 55.106V55.105Z" fill="#FC964B"/>
<path d="M79.337 38.999C79.995 38.664 80.28 37.903 79.974 37.298C79.668 36.693 78.886 36.474 78.228 36.808C77.57 37.144 77.284 37.905 77.591 38.51C77.897 39.115 78.679 39.334 79.337 38.999Z" fill="white"/>
<path d="M113.739 108.79L116.535 113.644C116.961 114.383 117.185 115.222 117.185 116.075C117.185 116.928 116.961 117.767 116.535 118.506L113.739 123.36C113.314 124.099 112.702 124.712 111.965 125.139C111.227 125.566 110.39 125.791 109.538 125.791H103.942C103.09 125.791 102.253 125.566 101.515 125.139C100.778 124.712 100.166 124.099 99.741 123.36L96.945 118.506C96.5188 117.767 96.2944 116.928 96.2944 116.075C96.2944 115.222 96.5188 114.383 96.945 113.644L99.741 108.79C100.166 108.051 100.778 107.438 101.515 107.011C102.253 106.584 103.09 106.359 103.942 106.359H109.538C111.272 106.359 112.872 107.286 113.739 108.79Z" fill="#A7A8AA"/>
<path d="M106.413 121.069C109.244 121.069 111.54 118.769 111.54 115.931C111.541 114.57 111.002 113.264 110.04 112.3C109.079 111.337 107.774 110.795 106.413 110.793C105.052 110.795 103.747 111.337 102.786 112.3C101.824 113.264 101.285 114.57 101.286 115.931C101.285 117.292 101.824 118.598 102.786 119.562C103.747 120.525 105.052 121.067 106.413 121.069Z" fill="#DCDDDE"/>
<path d="M72.442 136.007H71.009C67.246 136.007 63.752 134.484 61.065 131.887C58.4254 129.253 54.85 127.772 51.121 127.767C45.925 127.767 41.625 131.976 41.625 137.261V137.619C41.6213 138.914 41.8737 140.197 42.3676 141.394C42.8615 142.591 43.5872 143.679 44.503 144.595C45.4188 145.51 46.5065 146.236 47.7037 146.73C48.9009 147.224 50.184 147.476 51.479 147.472H83.909C83.9135 145.965 83.6199 144.472 83.0452 143.079C82.4705 141.686 81.626 140.42 80.5603 139.354C79.4945 138.289 78.2286 137.444 76.8354 136.87C75.4421 136.296 73.949 136.002 72.442 136.007ZM30.964 130.454C30.27 130.454 29.5827 130.317 28.9415 130.052C28.3003 129.786 27.7177 129.397 27.2269 128.906C26.7362 128.415 26.3469 127.833 26.0813 127.191C25.8157 126.55 25.679 125.863 25.679 125.169C25.679 124.475 25.8157 123.788 26.0813 123.147C26.3469 122.505 26.7362 121.923 27.2269 121.432C27.7177 120.941 28.3003 120.552 28.9415 120.286C29.5827 120.021 30.27 119.884 30.964 119.884C32.3657 119.884 33.7099 120.441 34.7011 121.432C35.6922 122.423 36.249 123.767 36.249 125.169C36.249 126.571 35.6922 127.915 34.7011 128.906C33.7099 129.897 32.3657 130.454 30.964 130.454Z" fill="#DCDDDE"/>
</svg>
