<svg width="262" height="226" viewBox="0 0 262 226" fill="none" xmlns="http://www.w3.org/2000/svg">
<mask id="mask0" mask-type="alpha" maskUnits="userSpaceOnUse" x="4" y="7" width="254" height="199">
<path d="M4 205.718V7.18503H257.552V205.718H4Z" fill="white"/>
</mask>
<g mask="url(#mask0)">
<path fill-rule="evenodd" clip-rule="evenodd" d="M16.8198 54.7024H54.5698C67.6918 54.7024 78.3288 44.0644 78.3288 30.9434C78.3288 17.8224 88.9658 7.18542 102.087 7.18542H179.312C222.523 7.18542 257.552 42.2154 257.552 85.4264V85.4344C257.552 128.645 222.523 163.675 179.312 163.675H172.336C160.727 163.675 151.316 173.086 151.316 184.694V184.698C151.316 196.306 141.905 205.718 130.296 205.718H53.5658C28.3818 205.718 7.96576 185.303 7.96576 160.119C7.96576 134.935 28.3818 114.519 53.5658 114.519H54.4888C63.9268 114.519 71.5768 106.869 71.5768 97.4314C71.5768 87.9954 63.9268 80.3444 54.4888 80.3444H16.8198C9.73976 80.3444 3.99976 74.6044 3.99976 67.5244V67.5214C3.99976 60.4414 9.73976 54.7024 16.8198 54.7024Z" fill="#4F545C" fill-opacity="0.3"/>
</g>
<path d="M115 44.5L168.5 27.5L193 110.5L141.5 125.5L115 44.5Z" fill="#B2D3E3"/>
<rect x="58" y="65" width="78" height="89" fill="#D8E1FF"/>
<path d="M53.5 31L137.5 52.5L139 56L136.5 59H124L61 43L40 118L41 120L50.5 122.5L52 128.5V136.5H50L30.5 132.5L28 130L50.5 39.5L53.5 31Z" fill="#4FDC81"/>
<path d="M100 42L168 18.5L171.5 21.5L173.5 27.5L202 116L144 136L142 134V121L168 112.5L187.5 106.5L188.5 104.5L163.5 30.5L116.5 46.5L100 42Z" fill="#61B9E3"/>
<path fill-rule="evenodd" clip-rule="evenodd" d="M148.476 189.004C148.467 189.057 148.453 189.108 148.435 189.159C148.418 189.209 148.399 189.262 148.382 189.297C148.352 189.364 148.291 189.462 148.246 189.521C148.226 189.547 148.205 189.571 148.182 189.596C148.154 189.625 148.125 189.653 148.095 189.68C148.066 189.705 148.029 189.734 147.992 189.762V189.763C147.974 189.776 147.953 189.79 147.93 189.804C147.922 189.809 147.914 189.814 147.907 189.817C147.88 189.833 147.852 189.848 147.828 189.859C147.827 189.86 147.826 189.86 147.825 189.861C147.773 189.889 147.718 189.911 147.662 189.929L129.548 195.676C129.508 195.689 129.456 195.7 129.407 195.71C129.378 195.715 129.349 195.72 129.319 195.724C129.307 195.725 129.295 195.727 129.282 195.727C129.255 195.73 129.228 195.731 129.202 195.731V195.73C129.115 195.743 129.038 195.724 128.974 195.712C128.859 195.691 128.749 195.654 128.647 195.602C128.62 195.588 128.584 195.567 128.559 195.552C128.538 195.538 128.488 195.506 128.467 195.49L113.487 183.764C113.455 183.739 113.425 183.713 113.396 183.685C113.373 183.661 113.351 183.639 113.331 183.616C113.31 183.592 113.269 183.542 113.25 183.516C113.218 183.471 113.18 183.406 113.156 183.356C113.145 183.337 113.134 183.314 113.123 183.288C113.107 183.252 113.093 183.214 113.081 183.176C113.063 183.117 113.043 183.019 113.036 182.957C113.027 182.878 113.029 182.75 113.039 182.671L113.075 182.471L109.272 181.785C109.175 182.328 108.659 182.692 108.111 182.592L98.1345 180.792C96.5065 180.498 95.4215 178.935 95.7145 177.307L98.0955 164.108H89.9665L85.5345 188.681C85.2405 190.308 86.3265 191.871 87.9545 192.165L168.652 206.72C169.439 206.866 170.237 206.69 170.895 206.233C171.553 205.775 171.994 205.089 172.136 204.3L186.774 123.146L178.13 126L166.571 190.088C166.309 191.536 165.043 192.555 163.621 192.555C163.444 192.555 163.266 192.539 163.086 192.507L154.064 190.88C153.52 190.781 153.16 190.262 153.257 189.718L148.502 188.86L148.476 189.004Z" fill="#E94656"/>
<path fill-rule="evenodd" clip-rule="evenodd" d="M98.4897 178.824L102.552 179.556L103.948 175.274C105.356 170.954 107.738 167.174 110.778 164.108H100.128L97.6827 177.663C97.5847 178.205 97.9477 178.726 98.4897 178.824ZM159.082 132.29C161.899 137.186 162.896 142.859 161.882 148.483C160.744 154.792 157.218 160.28 151.952 163.936C151.796 164.045 151.634 164.137 151.476 164.241C156.79 169.712 159.905 177.251 159.568 185.305L159.379 189.806L163.442 190.538C163.984 190.638 164.506 190.274 164.604 189.732L175.97 126.714L159.082 132.29Z" fill="#DC8890"/>
<path d="M166 111C168.5 115 147.5 127.5 155.5 121.5C147.5 128.885 149.5 117.5 146 111C146 105.201 146.5 99 157 105.5C162.5 109 160.5 101 166 111Z" fill="#009CE8"/>
<path fill-rule="evenodd" clip-rule="evenodd" d="M115.603 174.051L115.634 174.073L115.602 174.049L115.603 174.051Z" fill="#4F545C"/>
<path fill-rule="evenodd" clip-rule="evenodd" d="M148.961 144.742C149.255 143.111 150.815 142.028 152.446 142.322C154.077 142.616 155.16 144.177 154.866 145.807C154.572 147.437 153.012 148.521 151.381 148.226C149.751 147.933 148.667 146.373 148.961 144.742ZM143.122 159.108C143.122 161.865 140.878 164.108 138.122 164.108H128.856C130.567 164.918 132.408 165.522 134.358 165.874C140.143 166.92 145.984 165.644 150.811 162.295C155.638 158.943 158.871 153.912 159.914 148.129C160.895 142.685 159.77 137.345 157.128 132.936L143.122 137.56V159.108Z" fill="#FED2A4"/>
<path d="M124.5 172L132.5 177.5L148 180L147 188.5L129 194L115 182.5L116.5 174L124.5 172Z" fill="#AA0C19"/>
<path fill-rule="evenodd" clip-rule="evenodd" d="M131.355 177.458L124.682 172.275L123.294 179.97L131.355 177.458Z" fill="#E20F23"/>
<path fill-rule="evenodd" clip-rule="evenodd" d="M123.225 180.064L123.208 180.051L115.183 182.552L121.837 187.76L123.225 180.064Z" fill="#93151C"/>
<path fill-rule="evenodd" clip-rule="evenodd" d="M139.799 182.947L146.557 188.181L146.595 188.17L147.977 180.506L141.215 175.244L133.124 177.777L139.799 182.947Z" fill="#E20F23"/>
<path fill-rule="evenodd" clip-rule="evenodd" d="M130.776 185.878L122.614 188.368L129.35 193.641L129.378 193.632L130.776 185.878Z" fill="#93151C"/>
<path fill-rule="evenodd" clip-rule="evenodd" d="M143.17 120.696L147.071 119.408L143.17 120.696Z" fill="#4F545C"/>
<path fill-rule="evenodd" clip-rule="evenodd" d="M147.071 119.408C147.082 118.277 147.248 117.103 147.504 116.046C146.833 115.264 146.297 114.488 145.863 113.67C144.894 114.224 143.813 115.053 143.435 115.347C143.339 115.423 143.23 115.468 143.121 115.513V120.609C143.135 120.64 143.159 120.663 143.17 120.696L147.071 119.408ZM143.122 111.717C143.548 111.349 144.041 110.981 144.61 110.656C144.377 109.683 144.314 108.491 144.723 107.509C145.027 106.781 145.569 106.257 146.25 106.032C146.394 105.985 146.541 105.95 146.693 105.93C146.607 104.115 147.296 102.836 148.779 102.042C148.926 101.965 149.075 101.901 149.229 101.85C149.755 101.673 150.32 101.958 150.495 102.482C150.521 102.562 150.518 102.643 150.524 102.724C150.774 102.749 151.036 102.802 151.313 102.891C151.324 102.864 151.322 102.836 151.336 102.81C151.589 102.319 152.192 102.123 152.683 102.379C153.728 102.917 154.871 103.772 156.083 104.922C157.091 104.757 157.998 104.67 158.862 104.657C159.717 99.2381 159.753 99.2251 160.521 98.9741C160.689 98.9191 160.95 98.8841 161.121 98.9181C162.437 99.1941 162.518 100.049 162.101 105.01C163.56 105.509 165.292 106.571 165.452 108.081C165.482 108.365 165.467 108.781 165.253 109.221C166.954 110.106 167.819 111.218 167.832 112.539C167.832 112.543 167.831 112.548 167.831 112.552L171.761 111.255C171.588 110.731 171.872 110.165 172.397 109.992L180.804 107.216L178.942 103.416C175.572 96.5371 169.495 91.6991 162.54 89.6591C159.58 94.2381 155.19 97.6541 149.939 99.3871C147.68 100.134 145.388 100.507 143.122 100.572V111.717Z" fill="#5F6C8A"/>
<path fill-rule="evenodd" clip-rule="evenodd" d="M153.971 68.1595C155.545 67.6395 157.241 68.4945 157.761 70.0675C158.28 71.6405 157.426 73.3375 155.852 73.8565C154.279 74.3765 152.583 73.5225 152.063 71.9485C151.544 70.3755 152.398 68.6795 153.971 68.1595ZM143.121 63.1075V80.5015L147.411 79.0855C147.936 78.9075 148.501 79.1975 148.674 79.7215C148.847 80.2455 148.562 80.8105 148.038 80.9835L143.121 82.6065V98.5825C145.179 98.5165 147.26 98.1655 149.312 97.4885C154.892 95.6455 159.42 91.7405 162.063 86.4925C164.706 81.2435 165.147 75.2795 163.304 69.6995C160.254 60.4625 151.633 54.5965 142.396 54.5965C141.484 54.5965 140.565 54.6705 139.645 54.7865C139.74 55.4295 139.708 56.0905 139.545 56.7385L139.171 58.2225C141.425 58.7075 143.121 60.7115 143.121 63.1075ZM42.4247 118.906L46.4277 119.914L48.1127 115.735C48.9177 113.74 49.9327 111.882 51.1217 110.173V80.2725L41.6987 117.692C41.5647 118.227 41.8897 118.771 42.4247 118.906ZM61.227 44.2366C60.967 44.1716 60.699 44.2116 60.47 44.3476C60.241 44.4846 60.079 44.7036 60.013 44.9626L56.703 58.1076H116.313L61.227 44.2366ZM48.3852 120.407L51.1212 121.095V114.011C50.6992 114.808 50.3102 115.632 49.9672 116.483L48.3852 120.407Z" fill="#84C59B"/>
<path fill-rule="evenodd" clip-rule="evenodd" d="M158.093 69.8613C157.573 68.2883 155.877 67.4334 154.303 67.9534C152.73 68.4734 151.876 70.1694 152.395 71.7424C152.915 73.3164 154.611 74.1704 156.184 73.6504C157.758 73.1314 158.612 71.4343 158.093 69.8613ZM143.453 80.2954V62.9014C143.453 60.5054 141.757 58.5014 139.503 58.0164L139.877 56.5324C140.04 55.8844 140.072 55.2234 139.977 54.5804C140.897 54.4644 141.816 54.3904 142.728 54.3904C151.965 54.3904 160.586 60.2564 163.636 69.4934C165.479 75.0734 165.038 81.0374 162.395 86.2864C159.752 91.5344 155.224 95.4394 149.644 97.2824C147.592 97.9594 145.511 98.3103 143.453 98.3764V82.4004L148.37 80.7774C148.894 80.6044 149.179 80.0393 149.006 79.5154C148.833 78.9914 148.268 78.7014 147.743 78.8794L143.453 80.2954Z" fill="#FED2A4"/>
<path fill-rule="evenodd" clip-rule="evenodd" d="M61.1215 71.1077C61.1215 69.4537 62.4675 68.1077 64.1215 68.1077H130.121C131.775 68.1077 133.121 69.4537 133.121 71.1077V146.108C133.121 147.762 131.775 149.108 130.121 149.108H113.953C113.4 149.108 112.953 148.661 112.953 148.108H108.121V158.488C108.121 158.88 107.892 159.236 107.535 159.398C107.402 159.459 107.261 159.488 107.121 159.488C106.884 159.488 106.649 159.404 106.464 159.242L103.24 156.39C103.235 156.398 103.229 156.406 103.224 156.414C103.035 156.665 102.739 156.812 102.424 156.812H89.4605C87.6195 156.812 86.1215 155.31 86.1215 153.463V148.108H81.2595C81.2595 148.661 80.8115 149.108 80.2595 149.108H64.1215C62.4675 149.108 61.1215 147.762 61.1215 146.108V71.1077ZM56.1215 162.108H138.121C139.775 162.108 141.121 160.762 141.121 159.108V63.1077C141.121 61.4537 139.775 60.1077 138.121 60.1077H56.1215C54.4675 60.1077 53.1215 61.4537 53.1215 63.1077V159.108C53.1215 160.762 54.4675 162.108 56.1215 162.108Z" fill="#B2C3FF"/>
<path d="M51 113H52.5L51.5 122.5L47.5 120.5L51 113Z" fill="#7B8294"/>
<path fill-rule="evenodd" clip-rule="evenodd" d="M113.953 147.108H123.974L123.398 142.917C122.354 135.325 118.098 128.824 112.129 124.706C108.016 128.012 102.797 129.997 97.1211 129.997C91.4461 129.997 86.2281 128.012 82.1151 124.707C76.1451 128.824 71.8881 135.326 70.8441 142.917L70.2681 147.108H80.2601C80.8121 147.108 81.2601 147.555 81.2601 148.108H86.1211V138.078C86.1211 136.231 87.6201 134.729 89.4601 134.729H104.782C106.623 134.729 108.121 136.231 108.121 138.078V148.108H112.953C112.953 147.555 113.401 147.108 113.953 147.108Z" fill="#A0B2DC"/>
<path fill-rule="evenodd" clip-rule="evenodd" d="M83.7397 101.608C85.3967 101.608 86.7397 102.951 86.7397 104.608C86.7397 106.265 85.3967 107.608 83.7397 107.608C82.0827 107.608 80.7397 106.265 80.7397 104.608C80.7397 102.951 82.0827 101.608 83.7397 101.608ZM92.3057 110.345C92.6357 109.903 93.2387 109.796 93.6827 110.122L93.7257 110.154C95.7207 111.64 98.5007 111.629 100.484 110.128C100.924 109.794 101.552 109.881 101.885 110.322C102.218 110.763 102.131 111.39 101.69 111.723C100.338 112.746 98.7117 113.257 97.0867 113.257C95.4817 113.257 93.8767 112.759 92.5337 111.76C92.0907 111.43 91.9767 110.789 92.3057 110.345ZM113.742 104.608C113.742 106.265 112.399 107.608 110.742 107.608C109.085 107.608 107.742 106.265 107.742 104.608C107.742 102.951 109.085 101.608 110.742 101.608C112.399 101.608 113.742 102.951 113.742 104.608ZM119.122 105.997C119.122 93.8657 109.253 83.9967 97.1217 83.9967C84.9907 83.9967 75.1217 93.8657 75.1217 105.997C75.1217 118.128 84.9907 127.997 97.1217 127.997C109.253 127.997 119.122 118.128 119.122 105.997Z" fill="#FED2A4"/>
<path fill-rule="evenodd" clip-rule="evenodd" d="M99.2231 147.796C99.8701 147.796 100.393 147.232 100.393 146.536C100.393 145.841 99.8701 145.276 99.2231 145.276C98.5771 145.276 98.0541 145.841 98.0541 146.536C98.0541 147.232 98.5771 147.796 99.2231 147.796ZM95.0576 147.796C95.7036 147.796 96.2266 147.232 96.2266 146.536C96.2266 145.841 95.7036 145.276 95.0576 145.276C94.4106 145.276 93.8876 145.841 93.8876 146.536C93.8876 147.232 94.4106 147.796 95.0576 147.796Z" fill="#7289DA"/>
<path fill-rule="evenodd" clip-rule="evenodd" d="M94.7587 149.653C94.4137 150.088 93.9957 150.593 93.9957 150.593C91.4707 150.516 90.5067 148.858 90.5067 148.858C90.5067 145.196 92.1507 142.226 92.1507 142.226C93.7977 140.993 95.3577 141.032 95.3577 141.032L95.4747 141.166C93.4127 141.756 92.4747 142.662 92.4747 142.662C92.4747 142.662 92.7197 142.52 93.1537 142.337C94.3807 141.799 95.3467 141.655 95.7477 141.617C95.8117 141.607 95.8747 141.597 95.9397 141.59C96.6417 141.501 97.4227 141.476 98.2507 141.569C99.3367 141.691 100.507 142.014 101.695 142.662C101.695 142.662 100.797 141.804 98.8467 141.215L99.0067 141.032C99.0067 141.032 100.568 140.993 102.213 142.226C102.213 142.226 103.859 145.196 103.859 148.858C103.859 148.858 102.894 150.516 100.369 150.593C100.369 150.593 99.9617 150.101 99.6197 149.671C101.121 149.252 101.687 148.316 101.687 148.316C101.215 148.624 100.769 148.839 100.368 148.991C99.7987 149.226 99.2427 149.385 98.7067 149.484C97.6127 149.686 96.6067 149.637 95.7447 149.478C95.0947 149.357 94.5287 149.174 94.0667 148.988C93.8047 148.888 93.5237 148.759 93.2277 148.596C93.1897 148.576 93.1547 148.556 93.1217 148.538C93.1037 148.529 93.0877 148.519 93.0717 148.509C92.8667 148.393 92.7557 148.316 92.7557 148.316C92.7557 148.316 93.3047 149.224 94.7587 149.653ZM106.122 138.078C106.122 137.335 105.521 136.729 104.782 136.729H89.4607C88.7217 136.729 88.1217 137.335 88.1217 138.078V153.464C88.1217 154.207 88.7217 154.812 89.4607 154.812H101.095L100.858 153.988C100.733 153.556 100.912 153.095 101.294 152.859C101.456 152.759 101.637 152.711 101.818 152.711C102.064 152.711 102.308 152.801 102.498 152.977L106.122 156.289V138.078Z" fill="#7289DA"/>
<path fill-rule="evenodd" clip-rule="evenodd" d="M26.9438 31.9339C27.1088 32.0369 27.2908 32.0849 27.4718 32.0849C27.8058 32.0849 28.1318 31.9179 28.3208 31.6139C29.0078 30.5109 29.7498 29.4209 30.5268 28.3749C30.8558 27.9319 30.7628 27.3059 30.3188 26.9769C29.8758 26.6479 29.2488 26.7409 28.9198 27.1839C28.1118 28.2729 27.3398 29.4079 26.6238 30.5569C26.3318 31.0259 26.4748 31.6419 26.9438 31.9339ZM23.082 40.052C23.202 40.099 23.325 40.12 23.445 40.12C23.845 40.12 24.223 39.879 24.377 39.484C24.85 38.273 25.379 37.066 25.951 35.895C26.193 35.399 25.987 34.8 25.491 34.558C24.993 34.313 24.395 34.521 24.154 35.018C23.558 36.238 23.007 37.495 22.514 38.757C22.313 39.271 22.568 39.851 23.082 40.052ZM39.5439 18.8694C39.7539 18.8694 39.9659 18.8044 40.1459 18.6674C41.1859 17.8814 42.2679 17.1294 43.3629 16.4334C43.8289 16.1384 43.9669 15.5194 43.6709 15.0544C43.3749 14.5894 42.7569 14.4474 42.2909 14.7464C41.1499 15.4704 40.0229 16.2534 38.9399 17.0714C38.4999 17.4044 38.4119 18.0324 38.7449 18.4734C38.9419 18.7324 39.2409 18.8694 39.5439 18.8694ZM32.9013 24.9221C33.1723 24.9221 33.4433 24.8131 33.6403 24.5971C34.5163 23.6371 35.4443 22.7011 36.3973 21.8151C36.8013 21.4381 36.8243 20.8051 36.4483 20.4011C36.0713 19.9971 35.4383 19.9751 35.0353 20.3501C34.0423 21.2741 33.0763 22.2481 32.1633 23.2471C31.7913 23.6551 31.8193 24.2871 32.2273 24.6601C32.4193 24.8351 32.6603 24.9221 32.9013 24.9221ZM27.2778 83.3723C27.4558 83.3723 27.6358 83.3243 27.7988 83.2253C28.2698 82.9363 28.4178 82.3213 28.1298 81.8513C27.4518 80.7423 26.8108 79.5913 26.2228 78.4293C25.9738 77.9353 25.3728 77.7363 24.8798 77.9873C24.3868 78.2363 24.1888 78.8383 24.4378 79.3313C25.0498 80.5413 25.7178 81.7403 26.4238 82.8933C26.6118 83.2023 26.9408 83.3723 27.2778 83.3723ZM47.1757 14.1311C47.3257 14.1311 47.4787 14.0971 47.6217 14.0261C48.7827 13.4451 49.9847 12.9051 51.1907 12.4201C51.7037 12.2141 51.9517 11.6321 51.7457 11.1191C51.5397 10.6081 50.9577 10.3601 50.4457 10.5651C49.1887 11.0691 47.9377 11.6321 46.7277 12.2361C46.2337 12.4841 46.0327 13.0841 46.2797 13.5781C46.4557 13.9291 46.8087 14.1311 47.1757 14.1311ZM20.7827 48.7395C20.8447 48.7515 20.9077 48.7575 20.9697 48.7575C21.4407 48.7575 21.8607 48.4235 21.9507 47.9425C22.1927 46.6655 22.4897 45.3825 22.8347 44.1285C22.9817 43.5955 22.6687 43.0455 22.1367 42.8985C21.6057 42.7535 21.0537 43.0645 20.9077 43.5965C20.5477 44.9035 20.2377 46.2405 19.9857 47.5715C19.8837 48.1145 20.2397 48.6365 20.7827 48.7395ZM23.0024 70.2395C22.8484 69.7095 22.2954 69.4015 21.7634 69.5575C21.2324 69.7115 20.9274 70.2655 21.0814 70.7965C21.4604 72.1015 21.8964 73.4035 22.3774 74.6655C22.5294 75.0635 22.9094 75.3085 23.3124 75.3085C23.4304 75.3085 23.5514 75.2885 23.6684 75.2435C24.1844 75.0465 24.4434 74.4685 24.2464 73.9525C23.7844 72.7415 23.3654 71.4915 23.0024 70.2395ZM20.1142 57.6995H20.1172C20.6682 57.6995 21.1152 57.2545 21.1172 56.7035C21.1222 55.3965 21.1802 54.0805 21.2902 52.7915C21.3362 52.2405 20.9282 51.7575 20.3782 51.7105C19.8262 51.6505 19.3432 52.0705 19.2972 52.6215C19.1832 53.9655 19.1222 55.3355 19.1172 56.6955C19.1152 57.2485 19.5612 57.6975 20.1142 57.6995ZM20.2529 60.6975C19.7029 60.7515 19.3009 61.2405 19.3549 61.7895C19.4869 63.1395 19.6759 64.4995 19.9169 65.8295C20.0039 66.3125 20.4249 66.6515 20.8989 66.6515C20.9589 66.6515 21.0189 66.6465 21.0789 66.6355C21.6219 66.5375 21.9829 66.0165 21.8839 65.4735C21.6529 64.1965 21.4719 62.8915 21.3449 61.5955C21.2919 61.0455 20.8119 60.6525 20.2529 60.6975ZM100.703 20.9846C100.893 21.1526 101.129 21.2346 101.365 21.2346C101.641 21.2346 101.917 21.1206 102.115 20.8966C102.48 20.4826 102.441 19.8506 102.027 19.4846C101.012 18.5886 99.9471 17.7216 98.8621 16.9106C98.4191 16.5786 97.7931 16.6706 97.4621 17.1126C97.1321 17.5536 97.2221 18.1806 97.6641 18.5116C98.7061 19.2916 99.7281 20.1236 100.703 20.9846ZM55.5453 10.8723C55.6363 10.8723 55.7293 10.8593 55.8203 10.8343C57.0653 10.4773 58.3453 10.1683 59.6263 9.91331C60.1683 9.80631 60.5193 9.27931 60.4123 8.73731C60.3043 8.19631 59.7803 7.84231 59.2353 7.95231C57.9013 8.21831 56.5673 8.54031 55.2713 8.91031C54.7403 9.06231 54.4323 9.61631 54.5843 10.1463C54.7103 10.5863 55.1103 10.8723 55.5453 10.8723ZM73.2719 9.18291C74.5749 9.29791 75.8829 9.46691 77.1589 9.68691C77.2159 9.69691 77.2729 9.70191 77.3299 9.70191C77.8079 9.70191 78.2299 9.35791 78.3139 8.87091C78.4079 8.32691 78.0429 7.80991 77.4979 7.71591C76.1679 7.48791 74.8049 7.31091 73.4479 7.19091C72.8989 7.13491 72.4119 7.54891 72.3639 8.09891C72.3149 8.64891 72.7219 9.13391 73.2719 9.18291ZM64.3735 9.21321C64.4045 9.21321 64.4365 9.21221 64.4685 9.20821C65.7555 9.08721 67.0715 9.01721 68.3795 9.00021C68.9315 8.99321 69.3735 8.53921 69.3665 7.98721C69.3585 7.43621 68.9465 7.01721 68.3525 7.00021C66.9915 7.01821 65.6215 7.09121 64.2805 7.21821C63.7305 7.27021 63.3275 7.75721 63.3785 8.30721C63.4275 8.82421 63.8635 9.21321 64.3735 9.21321ZM90.1601 13.9085C91.3271 14.4835 92.4851 15.1135 93.5991 15.7825C93.7601 15.8795 93.9371 15.9255 94.1131 15.9255C94.4521 15.9255 94.7841 15.7525 94.9711 15.4395C95.2551 14.9665 95.1021 14.3515 94.6281 14.0675C93.4671 13.3705 92.2611 12.7135 91.0441 12.1135C90.5471 11.8715 89.9491 12.0745 89.7051 12.5685C89.4611 13.0645 89.6641 13.6645 90.1601 13.9085ZM106.74 27.3919C106.937 27.6439 107.231 27.7759 107.528 27.7759C107.744 27.7759 107.961 27.7059 108.144 27.5629C108.579 27.2229 108.656 26.5939 108.315 26.1599C107.481 25.0939 106.592 24.0479 105.672 23.0519C105.298 22.6479 104.665 22.6209 104.259 22.9959C103.853 23.3709 103.828 24.0029 104.203 24.4099C105.086 25.3659 105.94 26.3699 106.74 27.3919ZM81.937 10.762C83.187 11.113 84.441 11.52 85.664 11.973C85.779 12.016 85.896 12.035 86.012 12.035C86.418 12.035 86.8 11.786 86.949 11.383C87.141 10.866 86.877 10.29 86.359 10.098C85.085 9.62501 83.779 9.20001 82.476 8.83601C81.943 8.68601 81.392 8.99701 81.244 9.53001C81.095 10.062 81.405 10.614 81.937 10.762ZM152.446 142.322C150.816 142.028 149.256 143.111 148.961 144.742C148.667 146.373 149.751 147.933 151.381 148.226C153.012 148.521 154.572 147.437 154.866 145.807C155.16 144.176 154.077 142.616 152.446 142.322ZM146.595 188.169L146.557 188.181L129.377 193.632L129.349 193.641L122.614 188.368L121.837 187.76L115.183 182.552L115.102 182.488L116.485 174.824L124.66 172.258L124.682 172.275L131.355 177.458L131.743 177.759C132.002 177.959 132.342 178.022 132.655 177.923L133.123 177.776L141.214 175.243L147.977 180.505L146.595 188.169ZM115.634 174.073L115.603 174.051L115.601 174.049L115.634 174.073ZM149.96 179.713C149.955 179.7 149.949 179.688 149.944 179.677C149.926 179.637 149.887 179.566 149.865 179.529C149.847 179.502 149.822 179.465 149.802 179.44C149.75 179.372 149.657 179.277 149.59 179.226L142.11 173.406C142.07 173.375 142.027 173.347 141.983 173.322L141.978 173.319C141.922 173.285 141.855 173.253 141.793 173.231C141.736 173.209 141.627 173.181 141.567 173.171C141.477 173.156 141.343 173.151 141.253 173.161V173.162C141.229 173.164 141.205 173.167 141.183 173.171C141.17 173.173 141.155 173.176 141.139 173.179C141.099 173.187 141.058 173.196 141.019 173.209L132.556 175.858L125.553 170.419C125.525 170.398 125.46 170.357 125.429 170.338C125.398 170.318 125.364 170.3 125.329 170.283C125.251 170.246 125.17 170.218 125.086 170.199C125.055 170.191 125.024 170.186 124.993 170.181C124.889 170.165 124.738 170.165 124.63 170.186C124.608 170.189 124.588 170.192 124.573 170.195C124.539 170.202 124.506 170.21 124.473 170.221L124.463 170.224L115.403 173.068C115.309 173.099 115.22 173.143 115.18 173.169C115.154 173.184 115.118 173.207 115.093 173.225C115.037 173.264 114.958 173.331 114.912 173.381C114.908 173.385 114.904 173.39 114.9 173.394C114.883 173.412 114.866 173.43 114.851 173.449C114.804 173.506 114.742 173.603 114.709 173.669C114.686 173.716 114.666 173.765 114.65 173.815C114.648 173.823 114.645 173.83 114.642 173.838C114.626 173.888 114.613 173.939 114.603 173.989L113.075 182.471L113.039 182.671C113.03 182.75 113.027 182.878 113.036 182.957C113.043 183.019 113.064 183.117 113.082 183.176C113.094 183.214 113.107 183.252 113.124 183.288C113.135 183.314 113.145 183.337 113.156 183.356C113.18 183.406 113.218 183.471 113.25 183.516C113.269 183.542 113.311 183.592 113.332 183.616C113.351 183.639 113.373 183.661 113.397 183.685C113.425 183.713 113.455 183.739 113.487 183.764L128.468 195.49C128.488 195.506 128.538 195.538 128.559 195.552C128.585 195.567 128.62 195.588 128.647 195.602C128.749 195.654 128.859 195.691 128.974 195.712C129.038 195.724 129.116 195.743 129.202 195.73V195.731C129.228 195.731 129.255 195.73 129.283 195.727C129.295 195.727 129.307 195.725 129.319 195.724C129.349 195.72 129.379 195.715 129.408 195.71C129.457 195.7 129.509 195.689 129.549 195.676L147.662 189.929C147.719 189.911 147.773 189.889 147.825 189.861C147.826 189.86 147.827 189.86 147.828 189.859C147.853 189.848 147.881 189.833 147.907 189.817C147.915 189.814 147.923 189.809 147.93 189.804C147.953 189.79 147.974 189.776 147.992 189.763V189.762C148.03 189.734 148.067 189.705 148.095 189.68C148.125 189.653 148.155 189.625 148.182 189.596C148.205 189.571 148.226 189.547 148.246 189.521C148.291 189.462 148.351 189.364 148.383 189.297C148.399 189.262 148.419 189.209 148.435 189.159C148.453 189.108 148.467 189.057 148.476 189.004L148.502 188.86L150.032 180.38C150.037 180.352 150.041 180.323 150.043 180.295C150.052 180.219 150.053 180.145 150.047 180.078C150.042 180.003 150.02 179.888 149.997 179.815C149.987 179.78 149.974 179.746 149.96 179.713Z" fill="#1F2225"/>
<path fill-rule="evenodd" clip-rule="evenodd" d="M200.679 115.524C200.319 116.24 199.701 116.772 198.94 117.024L145.749 134.587C144.455 135.015 143.122 134.051 143.122 132.688V115.513C143.23 115.467 143.339 115.422 143.436 115.347C143.813 115.052 144.895 114.224 145.864 113.67C146.297 114.488 146.834 115.264 147.505 116.045C147.248 117.103 147.083 118.277 147.072 119.408C147.054 121.09 147.389 122.673 148.354 123.604C148.837 124.071 149.901 124.771 151.605 124.208C152.069 124.054 152.563 123.81 153.08 123.479C153.202 123.639 153.343 123.78 153.503 123.902C153.867 124.179 154.658 124.584 155.884 124.178C156.693 123.912 157.483 123.363 158.116 122.828L161.265 124.751C161.48 124.881 161.721 124.944 161.958 124.944C162.376 124.944 162.787 124.751 163.044 124.394C163.454 123.832 163.36 123.038 162.829 122.587L160.171 120.326C160.857 119.17 161.251 118.054 161.572 117.005C161.734 116.477 161.437 115.918 160.908 115.756C160.384 115.594 159.822 115.891 159.66 116.42C159.317 117.541 158.883 118.744 158.037 119.943C157.898 120.14 157.84 120.372 157.858 120.597C157.657 120.627 157.465 120.716 157.31 120.864C156.562 121.58 155.814 122.095 155.257 122.28C154.957 122.379 154.777 122.358 154.713 122.309C154.628 122.245 154.559 122.052 154.53 121.795C154.488 121.43 154.251 121.119 153.912 120.981C153.573 120.844 153.185 120.901 152.902 121.134C152.171 121.733 151.524 122.128 150.978 122.309C150.168 122.574 149.848 122.267 149.743 122.166C148.902 121.354 148.826 118.735 149.564 116.07C149.66 115.723 149.572 115.354 149.329 115.088C148.367 114.037 147.727 113.066 147.258 111.943C147.161 111.712 146.988 111.537 146.78 111.433C146.836 111.23 146.828 111.007 146.744 110.796C146.397 109.929 146.323 108.87 146.569 108.28C146.648 108.09 146.752 107.973 146.879 107.931C147.027 107.88 147.247 107.906 147.516 108.003C147.857 108.124 148.238 108.054 148.512 107.815C148.784 107.576 148.907 107.208 148.831 106.853C148.376 104.726 149.053 104.165 149.717 103.809C149.762 103.786 149.811 103.764 149.862 103.747C150.305 103.599 150.557 103.17 150.524 102.724C150.518 102.643 150.521 102.562 150.494 102.482C150.32 101.959 149.755 101.673 149.229 101.85C149.075 101.901 148.926 101.965 148.779 102.043C147.296 102.836 146.607 104.116 146.693 105.93C146.541 105.951 146.394 105.985 146.25 106.033C145.569 106.257 145.027 106.782 144.723 107.509C144.314 108.492 144.377 109.683 144.61 110.657C144.041 110.981 143.548 111.349 143.122 111.717V100.573C145.387 100.507 147.679 100.134 149.939 99.3867C154.736 97.8027 158.813 94.8177 161.739 90.8227C162.264 90.1067 163.205 89.8487 164.041 90.1477C170.364 92.4137 175.817 97.0377 178.942 103.417L179.29 104.128C180.091 105.761 179.264 107.725 177.537 108.295L172.397 109.993C171.872 110.166 171.588 110.731 171.761 111.255C171.934 111.78 172.496 112.068 173.024 111.891L187.268 107.188C188.838 106.67 189.694 104.969 189.176 103.399L165.659 32.1807C165.408 31.4197 164.876 30.8017 164.16 30.4417C163.444 30.0817 162.632 30.0207 161.87 30.2727L118.356 44.6407C116.554 45.2367 114.619 45.3057 112.779 44.8427L104.455 42.7477C103.485 42.5027 103.436 41.1407 104.386 40.8277L166.958 20.1667C167.269 20.0637 167.585 20.0147 167.896 20.0147C169.156 20.0147 170.332 20.8157 170.747 22.0757L200.848 113.234C201.099 113.995 201.039 114.808 200.679 115.524ZM172.137 204.3C171.995 205.089 171.554 205.776 170.896 206.233C170.238 206.69 169.44 206.867 168.653 206.72L87.9536 192.166C86.3256 191.872 85.2406 190.308 85.5336 188.681L89.3726 167.398C89.7166 165.494 91.3736 164.108 93.3086 164.108C95.8026 164.108 97.6876 166.364 97.2456 168.818L95.7146 177.307C95.4206 178.938 96.5036 180.499 98.1346 180.793L108.112 182.592C108.659 182.692 109.176 182.329 109.273 181.786C109.371 181.242 109.011 180.722 108.467 180.624L107.507 180.451C105.938 180.168 104.979 178.563 105.474 177.047L105.85 175.893C107.382 171.191 110.149 167.172 113.694 164.108H124.838C127.567 165.952 130.664 167.24 134.003 167.842C135.442 168.101 136.883 168.23 138.314 168.23C142.297 168.23 146.192 167.221 149.713 165.3C154.855 170.412 157.89 177.566 157.57 185.221L157.519 186.434C157.452 188.028 155.994 189.196 154.425 188.913L154.419 188.912C153.875 188.815 153.356 189.175 153.258 189.718C153.16 190.262 153.521 190.782 154.065 190.88L163.087 192.507C163.266 192.54 163.445 192.555 163.621 192.555C165.044 192.555 166.31 191.537 166.572 190.088L178.131 126.001L186.775 123.146L172.137 204.3ZM110.778 164.108C107.738 167.173 105.356 170.954 103.949 175.274L102.553 179.556L98.4896 178.824C97.9486 178.726 97.5846 178.203 97.6826 177.662L99.6826 166.576C99.9396 165.147 101.183 164.108 102.635 164.108H110.778ZM56.1216 162.108C54.4676 162.108 53.1216 160.762 53.1216 159.108V63.1077C53.1216 61.4537 54.4676 60.1077 56.1216 60.1077H138.122C139.776 60.1077 141.122 61.4537 141.122 63.1077V159.108C141.122 160.762 139.776 162.108 138.122 162.108H56.1216ZM100.18 58.1077H59.2686C57.9666 58.1077 57.0116 56.8817 57.3296 55.6197L60.0126 44.9617C60.0786 44.7037 60.2406 44.4847 60.4696 44.3477C60.6986 44.2107 60.9666 44.1707 61.2266 44.2367L100.669 54.1687C102.954 54.7437 102.537 58.1077 100.18 58.1077ZM163.85 87.3917C166.733 81.6667 167.214 75.1607 165.204 69.0727C161.495 57.8427 150.24 51.1847 138.919 52.8577C138.231 51.7647 137.174 50.9857 135.918 50.6697L119.215 46.4627L162.498 32.1707C162.751 32.0867 163.022 32.1077 163.26 32.2277C163.499 32.3477 163.677 32.5537 163.76 32.8077L187.276 104.026C187.449 104.548 187.162 105.118 186.64 105.29L186.637 105.291C184.392 106.032 181.946 105.003 180.906 102.88L180.738 102.538C177.191 95.2957 170.854 90.1557 163.572 87.8837C163.66 87.7167 163.764 87.5617 163.85 87.3917ZM159.914 148.128C158.871 153.912 155.638 158.943 150.811 162.295C145.984 165.644 140.143 166.92 134.358 165.874C132.408 165.522 130.567 164.918 128.856 164.108H138.122C140.883 164.108 143.122 161.87 143.122 159.108V139.729C143.122 138.435 143.952 137.287 145.181 136.88L157.128 132.936C159.77 137.344 160.895 142.685 159.914 148.128ZM151.476 164.242C151.634 164.137 151.796 164.045 151.952 163.937C157.218 160.281 160.744 154.793 161.882 148.484C162.896 142.86 161.899 137.186 159.082 132.291L175.97 126.714L164.604 189.733C164.506 190.275 163.984 190.638 163.442 190.539L159.379 189.806L159.568 185.305C159.905 177.252 156.79 169.712 151.476 164.242ZM148.675 79.7207C148.501 79.1977 147.937 78.9077 147.411 79.0857L144.435 80.0677C143.788 80.2817 143.122 79.7987 143.122 79.1187V63.1077C143.122 60.7107 141.425 58.7077 139.171 58.2227L139.545 56.7387C139.708 56.0897 139.74 55.4287 139.645 54.7867C140.565 54.6697 141.484 54.5957 142.397 54.5957C152.469 54.5957 161.809 61.5717 163.992 72.2887C164.781 76.1587 164.501 80.2087 163.165 83.9247C160.816 90.4637 155.768 95.3567 149.312 97.4887C147.261 98.1657 145.179 98.5167 143.122 98.5827V83.3297C143.122 82.8977 143.399 82.5147 143.808 82.3797L148.038 80.9837C148.563 80.8107 148.847 80.2457 148.675 79.7207ZM51.1216 63.1077V72.0827L39.7596 117.204C39.3546 118.81 40.3296 120.441 41.9366 120.845L49.6096 122.777C50.4986 123.002 51.1216 123.8 51.1216 124.716V133.998C51.1216 135.3 49.8966 136.254 48.6336 135.937L31.1146 131.525C30.4966 131.37 29.9126 131.064 29.4936 130.585C28.8226 129.816 28.5866 128.814 28.8276 127.856L52.2696 34.7617C52.6736 33.1577 54.3076 32.1807 55.9106 32.5857L135.429 52.6087C136.385 52.8487 137.156 53.5297 137.515 54.4857C137.74 55.0817 137.734 55.7407 137.578 56.3577C137.32 57.3857 136.394 58.1077 135.333 58.1077H124.791C124.6 58.1077 124.41 58.0847 124.226 58.0377L61.7156 42.2967C60.7596 42.0567 59.7566 42.2917 58.9876 42.9627C58.5076 43.3817 58.2006 43.9657 58.0456 44.5837L54.5726 58.3777C52.5756 59.0347 51.1216 60.8947 51.1216 63.1077ZM51.1216 110.172C49.9326 111.881 48.9176 113.74 48.1126 115.735L46.4276 119.914L42.4246 118.906C41.8886 118.771 41.5646 118.227 41.6996 117.692L49.1516 88.0947C49.4396 86.9527 51.1216 87.1617 51.1216 88.3387V110.172ZM51.1216 121.095L48.3856 120.407L49.9676 116.483C50.3106 115.631 50.6996 114.808 51.1216 114.011V121.095ZM202.747 112.607L172.647 21.4487C171.783 18.8297 168.948 17.3997 166.331 18.2677L103.019 39.1727C99.4146 40.3637 95.5456 40.5027 91.8646 39.5767L56.3996 30.6457C53.7236 29.9747 51.0036 31.6007 50.3296 34.2737L26.9346 127.181C26.6516 128.308 26.6786 129.515 27.1476 130.579C27.7866 132.029 29.0136 133.058 30.5156 133.437L51.1216 138.626V159.108C51.1216 161.87 53.3606 164.108 56.1216 164.108H85.5416C86.7876 164.108 87.7306 165.236 87.5096 166.463L83.5666 188.326C83.0766 191.039 84.8856 193.644 87.5986 194.134L168.297 208.689C168.597 208.743 168.898 208.77 169.196 208.77C170.205 208.77 171.19 208.463 172.036 207.876C173.134 207.114 173.868 205.97 174.105 204.656L188.935 122.433L199.38 118.984C200.484 118.62 201.49 117.95 202.137 116.985C203.021 115.668 203.234 114.078 202.747 112.607Z" fill="#1F2225"/>
<path fill-rule="evenodd" clip-rule="evenodd" d="M155.852 73.8567C157.425 73.3367 158.28 71.6407 157.76 70.0677C157.241 68.4947 155.544 67.6397 153.971 68.1597C152.397 68.6787 151.543 70.3757 152.063 71.9487C152.582 73.5227 154.279 74.3767 155.852 73.8567ZM154.914 120.896C154.965 120.974 155.166 121.009 155.487 120.904C155.808 120.798 156.165 120.58 156.515 120.277L155.569 119.455C154.845 120.337 154.845 120.791 154.914 120.896ZM163.18 113.154C163.169 112.64 162.405 112.07 161.06 111.562C161.189 112.528 161.158 113.715 160.97 114.904C162.893 114.098 163.186 113.47 163.18 113.154ZM157.793 117.001C157.957 116.931 158.147 116.991 158.24 117.144C158.333 117.296 158.3 117.492 158.163 117.605C157.862 117.855 157.335 118.294 156.943 118.642C157.103 118.818 157.244 118.97 157.408 119.146L157.454 119.194C159.281 116.974 159.722 114.472 159.74 111.458C159.413 112.284 158.136 115.461 157.128 117.292C157.373 117.185 157.614 117.079 157.793 117.001ZM162.044 108.774C162.036 108.699 161.932 108.323 160.716 107.845C160.614 108.215 160.493 108.667 160.411 108.974L161.822 109.108C161.929 109.029 162.058 108.904 162.044 108.774ZM153.689 106.591C152.655 105.763 151.775 105.394 151.234 105.571C150.589 105.784 150.433 106.888 150.802 108.438C151.34 107.95 152.384 107.112 153.689 106.591ZM158.03 111.016C156.023 110.833 154.027 110.874 151.885 111.135C152.712 112.848 153.767 114.416 154.867 116.052L155.085 116.375C156.264 114.739 157.147 113.004 158.03 111.016ZM150.489 119.632C150.679 119.798 150.967 119.819 151.341 119.696C151.726 119.569 152.177 119.3 152.687 118.896C152.209 118.665 151.427 118.175 150.175 117.152C150.004 118.415 150.114 119.306 150.489 119.632ZM150.084 113.315C150.098 113.485 149.982 113.636 149.815 113.668C149.639 113.701 149.468 113.588 149.43 113.413C149.338 112.987 149.181 112.211 149.11 111.586C148.817 111.652 148.456 111.738 148.188 111.801C149.285 113.92 150.299 115.432 153.727 117.455C153.119 116.648 151.231 114.115 150.088 112.261C150.047 112.629 150.06 113.026 150.084 113.315ZM157.136 107.579C157.81 107.725 158.545 108.073 158.96 108.29C159.035 108.074 159.134 107.79 159.225 107.531C157.264 107.362 155.576 107.522 154.074 108.018C153.042 108.359 152.076 108.869 151.202 109.534C151.204 109.54 151.207 109.547 151.209 109.554L151.322 109.538C151.501 109.513 155.3 108.982 157.906 108.848C157.615 108.656 157.275 108.457 156.893 108.254C156.74 108.173 156.664 107.997 156.713 107.831C156.767 107.649 156.951 107.539 157.136 107.579ZM148.219 108.751C148.114 108.73 148.019 108.733 147.937 108.761C147.749 108.822 147.644 109.005 147.59 109.147C147.444 109.526 147.475 110.036 147.659 110.48L148.764 110.149C148.39 109.427 148.256 109.011 148.219 108.751Z" fill="#1F2225"/>
<path fill-rule="evenodd" clip-rule="evenodd" d="M165.253 109.221C165.467 108.782 165.482 108.366 165.451 108.081C165.292 106.572 163.56 105.509 162.1 105.01C162.518 100.049 162.437 99.194 161.121 98.918C160.949 98.884 160.689 98.919 160.521 98.974C159.753 99.225 159.716 99.238 158.862 104.658C157.998 104.67 157.09 104.757 156.083 104.922C154.87 103.772 153.728 102.917 152.682 102.379C152.192 102.123 151.588 102.319 151.336 102.81C151.322 102.836 151.323 102.865 151.313 102.891C151.117 103.367 151.302 103.918 151.767 104.157C152.738 104.658 153.843 105.515 155.051 106.706C155.283 106.936 155.614 107.036 155.934 106.978C157.382 106.711 158.534 106.617 159.669 106.669C159.915 106.686 160.146 106.603 160.328 106.46C160.462 106.594 160.636 106.691 160.834 106.732C162.083 106.985 163.416 107.852 163.462 108.291C163.474 108.404 163.245 108.571 163.045 108.679C162.701 108.867 162.498 109.24 162.527 109.63C162.556 110.022 162.811 110.361 163.18 110.495C164.858 111.112 165.825 111.864 165.832 112.559C165.837 113.123 165.074 114.039 162.915 114.916C162.403 115.124 162.157 115.707 162.365 116.219C162.523 116.608 162.897 116.843 163.292 116.843C163.417 116.843 163.545 116.82 163.668 116.77C167.117 115.368 167.837 113.705 167.831 112.552C167.831 112.548 167.832 112.543 167.832 112.539C167.819 111.218 166.953 110.106 165.253 109.221ZM49.0566 178.826H48.5466C47.9946 178.826 47.5466 178.379 47.5466 177.826V177.315C47.5466 176.763 47.0986 176.315 46.5466 176.315C45.9936 176.315 45.5466 176.763 45.5466 177.315V177.826C45.5466 178.379 45.0986 178.826 44.5466 178.826H44.0366C43.4846 178.826 43.0366 179.273 43.0366 179.826C43.0366 180.379 43.4846 180.826 44.0366 180.826H44.5466C45.0986 180.826 45.5466 181.273 45.5466 181.826V182.336C45.5466 182.888 45.9936 183.336 46.5466 183.336C47.0986 183.336 47.5466 182.888 47.5466 182.336V181.826C47.5466 181.273 47.9946 180.826 48.5466 180.826H49.0566C49.6086 180.826 50.0566 180.379 50.0566 179.826C50.0566 179.273 49.6086 178.826 49.0566 178.826ZM209.986 51.135C210.82 51.135 211.496 51.811 211.496 52.645C211.496 53.198 211.944 53.645 212.496 53.645C213.049 53.645 213.496 53.198 213.496 52.645C213.496 51.811 214.172 51.135 215.006 51.135C215.558 51.135 216.006 50.688 216.006 50.135C216.006 49.582 215.558 49.135 215.006 49.135C214.172 49.135 213.496 48.459 213.496 47.625C213.496 47.073 213.049 46.625 212.496 46.625C211.944 46.625 211.496 47.073 211.496 47.625C211.496 48.459 210.82 49.135 209.986 49.135C209.434 49.135 208.986 49.582 208.986 50.135C208.986 50.688 209.434 51.135 209.986 51.135ZM193.837 193.731H193.327C192.775 193.731 192.327 193.284 192.327 192.731V192.221C192.327 191.668 191.879 191.221 191.327 191.221C190.775 191.221 190.327 191.668 190.327 192.221V192.731C190.327 193.284 189.879 193.731 189.327 193.731H188.817C188.265 193.731 187.817 194.178 187.817 194.731C187.817 195.284 188.265 195.731 188.817 195.731H189.327C189.879 195.731 190.327 196.179 190.327 196.731V197.241C190.327 197.793 190.775 198.241 191.327 198.241C191.879 198.241 192.327 197.793 192.327 197.241V196.731C192.327 196.179 192.775 195.731 193.327 195.731H193.837C194.389 195.731 194.837 195.284 194.837 194.731C194.837 194.178 194.389 193.731 193.837 193.731ZM25.9599 146.155L24.7769 147.339C24.3859 147.729 24.3859 148.362 24.7769 148.753C24.9719 148.948 25.2279 149.046 25.4839 149.046C25.7399 149.046 25.9959 148.948 26.1909 148.753L27.3739 147.569C27.7649 147.178 27.7649 146.546 27.3739 146.155C26.9829 145.764 26.3499 145.764 25.9599 146.155ZM20.0434 152.071L18.8604 153.255C18.4694 153.645 18.4694 154.278 18.8604 154.669C19.0554 154.864 19.3114 154.962 19.5674 154.962C19.8234 154.962 20.0794 154.864 20.2744 154.669L21.4574 153.485C21.8484 153.094 21.8484 152.462 21.4574 152.071C21.0664 151.68 20.4334 151.68 20.0434 152.071ZM26.1909 152.071C25.7999 151.68 25.1679 151.68 24.7769 152.071C24.3859 152.462 24.3859 153.094 24.7769 153.485L25.9599 154.669C26.1549 154.864 26.4109 154.962 26.6669 154.962C26.9229 154.962 27.1789 154.864 27.3739 154.669C27.7649 154.278 27.7649 153.645 27.3739 153.255L26.1909 152.071ZM20.2744 146.155C19.8834 145.764 19.2514 145.764 18.8604 146.155C18.4694 146.546 18.4694 147.178 18.8604 147.569L20.0434 148.753C20.2384 148.948 20.4944 149.046 20.7504 149.046C21.0064 149.046 21.2624 148.948 21.4574 148.753C21.8484 148.362 21.8484 147.729 21.4574 147.339L20.2744 146.155ZM250.43 146.43C250.686 146.43 250.942 146.332 251.137 146.137L252.321 144.953C252.711 144.563 252.711 143.93 252.321 143.539C251.93 143.149 251.297 143.149 250.907 143.539L249.723 144.723C249.332 145.114 249.332 145.746 249.723 146.137C249.918 146.332 250.174 146.43 250.43 146.43ZM244.99 149.456L243.807 150.639C243.416 151.029 243.416 151.662 243.807 152.053C244.002 152.248 244.258 152.346 244.514 152.346C244.77 152.346 245.026 152.248 245.221 152.053L246.404 150.87C246.795 150.479 246.795 149.847 246.404 149.456C246.013 149.065 245.381 149.065 244.99 149.456ZM252.321 150.639L251.137 149.456C250.747 149.066 250.113 149.066 249.723 149.456C249.333 149.847 249.333 150.481 249.723 150.87L250.907 152.053C251.102 152.248 251.358 152.346 251.614 152.346C251.87 152.346 252.126 152.248 252.321 152.053C252.712 151.662 252.712 151.029 252.321 150.639ZM245.221 143.539C244.83 143.148 244.198 143.148 243.807 143.539C243.416 143.93 243.416 144.562 243.807 144.953L244.99 146.137C245.185 146.332 245.441 146.43 245.697 146.43C245.953 146.43 246.209 146.332 246.404 146.137C246.795 145.746 246.795 145.113 246.404 144.723L245.221 143.539ZM209.986 132.453C210.819 132.453 211.496 133.131 211.496 133.963C211.496 134.795 210.819 135.473 209.986 135.473C209.153 135.473 208.476 134.795 208.476 133.963C208.476 133.131 209.153 132.453 209.986 132.453ZM209.986 137.473C211.922 137.473 213.496 135.898 213.496 133.963C213.496 132.027 211.922 130.453 209.986 130.453C208.051 130.453 206.476 132.027 206.476 133.963C206.476 135.898 208.051 137.473 209.986 137.473ZM83.7397 101.608C82.0827 101.608 80.7397 102.951 80.7397 104.608C80.7397 106.265 82.0827 107.608 83.7397 107.608C85.3967 107.608 86.7397 106.265 86.7397 104.608C86.7397 102.951 85.3967 101.608 83.7397 101.608ZM110.742 101.608C109.085 101.608 107.742 102.951 107.742 104.608C107.742 106.265 109.085 107.608 110.742 107.608C112.399 107.608 113.742 106.265 113.742 104.608C113.742 102.951 112.399 101.608 110.742 101.608ZM100.484 110.127C98.5008 111.628 95.7208 111.64 93.7258 110.153L93.6828 110.121C93.2388 109.795 92.6348 109.902 92.3058 110.345C91.9768 110.788 92.0908 111.43 92.5338 111.76C93.8768 112.759 95.4818 113.257 97.0868 113.257C98.7118 113.257 100.338 112.745 101.69 111.723C102.13 111.39 102.218 110.763 101.885 110.321C101.551 109.881 100.923 109.793 100.484 110.127Z" fill="#1F2225"/>
<path fill-rule="evenodd" clip-rule="evenodd" d="M131.121 146.108C131.121 146.66 130.673 147.108 130.121 147.108H128.608C127.11 147.108 125.841 146.002 125.637 144.516L125.379 142.645C124.336 135.059 120.311 128.484 114.596 124.038C114.117 123.665 114.068 122.975 114.488 122.536C119.203 117.587 121.837 110.64 120.951 103.108C119.663 92.1587 110.824 83.3737 99.8685 82.1497C85.4105 80.5357 73.1215 91.8587 73.1215 105.997C73.1215 112.402 75.6485 118.226 79.7535 122.534C80.1725 122.974 80.1245 123.665 79.6445 124.038C73.9305 128.484 69.9055 135.059 68.8625 142.645L68.6055 144.516C68.4015 146.002 67.1325 147.108 65.6335 147.108H64.1215C63.5695 147.108 63.1215 146.66 63.1215 146.108V71.1077C63.1215 70.5557 63.5695 70.1077 64.1215 70.1077H130.121C130.673 70.1077 131.121 70.5557 131.121 71.1077V146.108ZM97.1215 127.997C84.9905 127.997 75.1215 118.128 75.1215 105.997C75.1215 93.8657 84.9905 83.9967 97.1215 83.9967C109.252 83.9967 119.121 93.8657 119.121 105.997C119.121 118.128 109.252 127.997 97.1215 127.997ZM130.121 68.1077H64.1215C62.4645 68.1077 61.1215 69.4507 61.1215 71.1077V148.11C61.1215 149.766 62.4645 151.11 64.1215 151.11H81.1425C82.2475 151.11 83.1425 150.214 83.1425 149.11V149.108C83.1425 148.004 82.2475 147.108 81.1425 147.108H72.5615C71.3495 147.108 70.4155 146.038 70.5805 144.836L70.8445 142.917C71.8125 135.87 75.5515 129.761 80.8575 125.628C81.5535 125.086 82.5235 125.048 83.2425 125.559C87.1635 128.35 91.9535 129.997 97.1215 129.997C102.29 129.997 107.079 128.35 111 125.559C111.719 125.047 112.689 125.086 113.385 125.628C118.691 129.761 122.429 135.87 123.398 142.917L123.662 144.836C123.827 146.037 122.893 147.108 121.681 147.108H113.53C112.425 147.108 111.53 148.004 111.53 149.108V149.11C111.53 150.214 112.425 151.11 113.53 151.11H130.121C131.778 151.11 133.121 149.766 133.121 148.11V71.1077C133.121 69.4507 131.778 68.1077 130.121 68.1077Z" fill="#1F2225"/>
<path fill-rule="evenodd" clip-rule="evenodd" d="M99.2231 147.796C98.5771 147.796 98.0541 147.232 98.0541 146.536C98.0541 145.841 98.5771 145.276 99.2231 145.276C99.8701 145.276 100.393 145.841 100.393 146.536C100.393 147.232 99.8701 147.796 99.2231 147.796ZM95.0571 147.796C94.4111 147.796 93.8871 147.232 93.8871 146.536C93.8871 145.841 94.4111 145.276 95.0571 145.276C95.7031 145.276 96.2271 145.841 96.2271 146.536C96.2271 147.232 95.7031 147.796 95.0571 147.796ZM99.0071 141.031L98.8471 141.214C100.797 141.804 101.695 142.661 101.695 142.661C100.506 142.014 99.3361 141.691 98.2511 141.568C97.4221 141.476 96.6421 141.5 95.9391 141.589C95.8741 141.597 95.8111 141.607 95.7471 141.616C95.3471 141.654 94.3801 141.799 93.1531 142.336C92.7201 142.52 92.4741 142.661 92.4741 142.661C92.4741 142.661 93.4131 141.755 95.4751 141.165L95.3571 141.031C95.3571 141.031 93.7981 140.992 92.1511 142.226C92.1511 142.226 90.5061 145.195 90.5061 148.858C90.5061 148.858 91.4711 150.516 93.9961 150.593C93.9961 150.593 94.4141 150.087 94.7591 149.652C93.3051 149.224 92.7561 148.316 92.7561 148.316C92.7561 148.316 92.8671 148.393 93.0711 148.509C93.0881 148.519 93.1041 148.528 93.1211 148.537C93.1541 148.556 93.1901 148.575 93.2271 148.596C93.5231 148.759 93.8051 148.888 94.0671 148.987C94.5291 149.173 95.0951 149.357 95.7441 149.478C96.6061 149.637 97.6131 149.686 98.7071 149.483C99.2431 149.385 99.7981 149.226 100.368 148.99C100.769 148.838 101.214 148.623 101.686 148.316C101.686 148.316 101.121 149.251 99.6201 149.67C99.9611 150.101 100.369 150.593 100.369 150.593C102.894 150.516 103.859 148.858 103.859 148.858C103.859 145.195 102.213 142.226 102.213 142.226C100.567 140.992 99.0071 141.031 99.0071 141.031Z" fill="#1F2225"/>
<path fill-rule="evenodd" clip-rule="evenodd" d="M106.122 154.02C106.122 154.889 105.089 155.344 104.447 154.758L102.498 152.977C102.309 152.801 102.064 152.71 101.818 152.71C101.638 152.71 101.456 152.759 101.294 152.859C100.912 153.095 100.733 153.556 100.858 153.988L101.096 154.812H89.4605C88.7215 154.812 88.1215 154.212 88.1215 153.473V138.068C88.1215 137.332 88.7245 136.729 89.4605 136.729H104.773C105.518 136.729 106.122 137.333 106.122 138.078V154.02ZM104.783 134.729H89.4605C87.6195 134.729 86.1215 136.231 86.1215 138.078V148.108V153.463C86.1215 155.31 87.6195 156.812 89.4605 156.812H102.425C102.74 156.812 103.036 156.665 103.225 156.414C103.23 156.406 103.236 156.398 103.241 156.39L106.465 159.242C106.65 159.404 106.885 159.488 107.122 159.488C107.262 159.488 107.403 159.458 107.536 159.398C107.893 159.236 108.122 158.88 108.122 158.488V148.108V138.078C108.122 136.231 106.624 134.729 104.783 134.729ZM199.447 171.454C198.397 172.23 197.308 172.979 196.21 173.681C195.744 173.977 195.608 174.596 195.905 175.061C196.095 175.36 196.419 175.523 196.749 175.523C196.933 175.523 197.119 175.473 197.286 175.366C198.423 174.641 199.55 173.865 200.636 173.061C201.08 172.733 201.174 172.107 200.846 171.663C200.517 171.22 199.891 171.123 199.447 171.454ZM218.506 103.797C218.664 104.185 219.038 104.42 219.433 104.42C219.558 104.42 219.686 104.397 219.809 104.346C220.321 104.138 220.567 103.555 220.359 103.043C219.851 101.794 219.292 100.546 218.698 99.3321C218.455 98.8371 217.855 98.6301 217.36 98.8731C216.864 99.1161 216.658 99.7151 216.901 100.211C217.475 101.384 218.015 102.591 218.506 103.797ZM220.158 108.42C220.544 109.668 220.891 110.943 221.188 112.209C221.296 112.67 221.707 112.981 222.16 112.981C222.236 112.981 222.313 112.972 222.39 112.954C222.928 112.828 223.261 112.29 223.135 111.752C222.827 110.441 222.469 109.121 222.069 107.828C221.906 107.301 221.343 107.006 220.818 107.169C220.29 107.332 219.995 107.892 220.158 108.42ZM217.808 150.961C217.316 150.711 216.714 150.905 216.462 151.397C215.87 152.556 215.228 153.712 214.555 154.832C214.27 155.306 214.423 155.92 214.896 156.205C215.058 156.302 215.235 156.348 215.411 156.348C215.75 156.348 216.081 156.175 216.268 155.863C216.966 154.702 217.63 153.506 218.244 152.307C218.495 151.815 218.3 151.213 217.808 150.961ZM222.104 117.035C222.292 118.326 222.438 119.64 222.537 120.94C222.577 121.465 223.015 121.864 223.533 121.864C223.559 121.864 223.584 121.863 223.61 121.861C224.161 121.819 224.573 121.339 224.531 120.788C224.429 119.442 224.278 118.083 224.083 116.746C224.003 116.2 223.489 115.811 222.95 115.901C222.403 115.98 222.024 116.488 222.104 117.035ZM223.104 133.83C222.559 133.738 222.045 134.111 221.956 134.656C221.746 135.945 221.488 137.241 221.19 138.51C221.064 139.047 221.397 139.586 221.935 139.712C222.012 139.729 222.089 139.738 222.165 139.738C222.618 139.738 223.029 139.428 223.137 138.967C223.445 137.654 223.712 136.312 223.93 134.978C224.019 134.434 223.649 133.919 223.104 133.83ZM221.124 142.602C220.598 142.428 220.034 142.715 219.862 143.241C219.455 144.48 218.999 145.721 218.507 146.93C218.299 147.442 218.545 148.025 219.057 148.234C219.18 148.284 219.308 148.307 219.433 148.307C219.828 148.307 220.202 148.072 220.36 147.684C220.869 146.432 221.341 145.147 221.762 143.864C221.935 143.339 221.649 142.775 221.124 142.602ZM211.845 158.932C211.079 159.991 210.267 161.035 209.432 162.035C209.078 162.458 209.135 163.089 209.559 163.443C209.746 163.599 209.973 163.675 210.199 163.675C210.486 163.675 210.77 163.553 210.968 163.316C211.832 162.281 212.672 161.201 213.465 160.106C213.789 159.658 213.689 159.033 213.241 158.709C212.794 158.384 212.169 158.487 211.845 158.932ZM212.665 91.2073C212.212 91.5233 212.101 92.1463 212.417 92.6003C213.166 93.6723 213.885 94.7813 214.555 95.8963C214.743 96.2093 215.074 96.3823 215.414 96.3823C215.589 96.3823 215.767 96.3363 215.928 96.2393C216.401 95.9553 216.554 95.3403 216.27 94.8673C215.576 93.7123 214.832 92.5643 214.057 91.4553C213.741 91.0023 213.118 90.8933 212.665 91.2073ZM188.822 179.762C188.956 179.762 189.092 179.736 189.223 179.678C190.455 179.138 191.688 178.545 192.889 177.916C193.378 177.659 193.567 177.056 193.31 176.567C193.054 176.076 192.451 175.887 191.96 176.145C190.801 176.752 189.61 177.324 188.42 177.846C187.914 178.068 187.684 178.658 187.905 179.163C188.07 179.538 188.437 179.762 188.822 179.762ZM223.711 124.861C223.13 124.864 222.707 125.3 222.703 125.852C222.692 127.16 222.636 128.481 222.537 129.78C222.495 130.331 222.908 130.811 223.458 130.853C223.484 130.855 223.51 130.856 223.535 130.856C224.053 130.856 224.491 130.457 224.531 129.932C224.634 128.589 224.691 127.221 224.703 125.87C224.707 125.317 224.263 124.866 223.711 124.861ZM206.127 165.67C205.211 166.596 204.249 167.503 203.268 168.368C202.853 168.733 202.814 169.365 203.179 169.779C203.376 170.004 203.652 170.118 203.929 170.118C204.164 170.118 204.4 170.036 204.59 169.868C205.605 168.974 206.601 168.034 207.548 167.078C207.937 166.686 207.934 166.052 207.541 165.663C207.149 165.275 206.515 165.277 206.127 165.67ZM209.434 88.6975C209.632 88.9345 209.916 89.0565 210.203 89.0565C210.428 89.0565 210.655 88.9805 210.842 88.8255C211.267 88.4705 211.324 87.8415 210.97 87.4165C210.108 86.3825 209.196 85.3615 208.261 84.3845C207.878 83.9855 207.246 83.9705 206.847 84.3525C206.448 84.7345 206.434 85.3675 206.815 85.7665C207.72 86.7125 208.601 87.6975 209.434 88.6975ZM203.27 82.3636C203.46 82.5316 203.696 82.6136 203.931 82.6136C204.208 82.6136 204.484 82.4996 204.681 82.2746C205.046 81.8606 205.007 81.2286 204.592 80.8636C203.582 79.9726 202.525 79.1036 201.451 78.2806C201.013 77.9466 200.385 78.0286 200.048 78.4666C199.712 78.9046 199.796 79.5326 200.234 79.8686C201.272 80.6636 202.294 81.5036 203.27 82.3636ZM95.581 218.347C94.295 218.26 92.997 218.101 91.722 217.874C91.18 217.773 90.659 218.139 90.562 218.683C90.465 219.227 90.828 219.746 91.372 219.843C92.717 220.083 94.088 220.251 95.446 220.343C95.469 220.344 95.492 220.345 95.515 220.345C96.036 220.345 96.476 219.941 96.511 219.412C96.549 218.862 96.132 218.384 95.581 218.347ZM87.0121 216.691C85.7801 216.29 84.5611 215.817 83.3891 215.285C82.8871 215.055 82.2931 215.278 82.0651 215.781C81.8371 216.284 82.0591 216.877 82.5621 217.105C83.8011 217.669 85.0901 218.169 86.3931 218.593C86.4961 218.627 86.6001 218.642 86.7021 218.642C87.1241 218.642 87.5161 218.374 87.6531 217.952C87.8241 217.426 87.5371 216.862 87.0121 216.691ZM104.3 217.873C103.026 218.101 101.727 218.26 100.441 218.346C99.8897 218.383 99.4727 218.859 99.5097 219.41C99.5457 219.938 99.9847 220.344 100.507 220.344C100.529 220.344 100.552 220.343 100.575 220.342C101.934 220.251 103.305 220.083 104.652 219.842C105.196 219.744 105.557 219.225 105.46 218.682C105.363 218.139 104.845 217.776 104.3 217.873ZM120.08 210.734C119.072 211.536 118.004 212.294 116.909 212.985C116.442 213.28 116.302 213.897 116.597 214.364C116.787 214.666 117.111 214.831 117.443 214.831C117.625 214.831 117.81 214.781 117.976 214.676C119.133 213.946 120.26 213.146 121.325 212.298C121.757 211.955 121.829 211.326 121.485 210.893C121.141 210.461 120.512 210.39 120.08 210.734ZM112.633 215.286C111.457 215.818 110.237 216.292 109.008 216.693C108.483 216.864 108.196 217.429 108.368 217.954C108.506 218.376 108.897 218.643 109.319 218.643C109.421 218.643 109.526 218.628 109.629 218.594C110.927 218.171 112.215 217.671 113.457 217.108C113.961 216.881 114.184 216.288 113.956 215.785C113.728 215.282 113.135 215.059 112.633 215.286ZM79.1093 212.98C78.0213 212.293 76.9533 211.536 75.9383 210.728C75.5053 210.385 74.8763 210.457 74.5333 210.889C74.1893 211.322 74.2613 211.951 74.6933 212.294C75.7663 213.146 76.8923 213.946 78.0423 214.671C78.2083 214.776 78.3923 214.826 78.5743 214.826C78.9063 214.826 79.2313 214.661 79.4213 214.359C79.7163 213.892 79.5763 213.275 79.1093 212.98ZM69.8232 204.497C69.4872 204.058 68.8592 203.976 68.4212 204.311C67.9832 204.647 67.8992 205.275 68.2352 205.714C69.0662 206.798 69.9642 207.848 70.9052 208.832C71.1022 209.038 71.3652 209.142 71.6282 209.142C71.8772 209.142 72.1252 209.05 72.3192 208.864C72.7192 208.483 72.7332 207.851 72.3512 207.451C71.4602 206.518 70.6102 205.524 69.8232 204.497ZM63.8017 192.387C63.4587 191.143 63.1817 189.865 62.9777 188.589C62.8907 188.043 62.3697 187.664 61.8327 187.759C61.2877 187.846 60.9157 188.359 61.0037 188.904C61.2187 190.252 61.5107 191.603 61.8727 192.918C61.9957 193.362 62.3977 193.653 62.8367 193.653C62.9247 193.653 63.0137 193.641 63.1027 193.616C63.6347 193.47 63.9477 192.919 63.8017 192.387ZM62.2162 175.816C62.2902 175.833 62.3652 175.84 62.4382 175.84C62.8952 175.84 63.3072 175.526 63.4122 175.062C63.6852 173.86 64.0262 172.658 64.4242 171.489C64.6032 170.965 64.3242 170.397 63.8012 170.219C63.2772 170.038 62.7102 170.321 62.5322 170.842C62.1102 172.078 61.7502 173.348 61.4622 174.619C61.3402 175.158 61.6772 175.693 62.2162 175.816ZM61.5634 184.773C62.1154 184.761 62.5534 184.303 62.5424 183.752C62.5364 183.485 62.5334 183.218 62.5334 182.951C62.5334 181.92 62.5774 180.881 62.6654 179.863C62.7134 179.313 62.3054 178.828 61.7554 178.781C61.1984 178.73 60.7204 179.14 60.6734 179.691C60.5804 180.766 60.5334 181.863 60.5334 182.951C60.5334 183.232 60.5364 183.514 60.5424 183.794C60.5534 184.339 60.9994 184.773 61.5414 184.773H61.5634ZM126.198 204.501C125.412 205.527 124.561 206.522 123.669 207.454C123.287 207.854 123.302 208.486 123.701 208.868C123.895 209.054 124.143 209.146 124.392 209.146C124.655 209.146 124.918 209.042 125.115 208.837C126.057 207.851 126.956 206.802 127.786 205.718C128.122 205.279 128.038 204.651 127.6 204.315C127.162 203.98 126.534 204.064 126.198 204.501ZM65.4106 196.97C65.1916 196.463 64.6026 196.231 64.0966 196.447C63.5896 196.665 63.3556 197.253 63.5736 197.761C64.1126 199.012 64.7276 200.248 65.4026 201.437C65.5866 201.761 65.9246 201.943 66.2726 201.943C66.4406 201.943 66.6096 201.901 66.7656 201.812C67.2456 201.539 67.4136 200.929 67.1416 200.449C66.5026 199.324 65.9206 198.154 65.4106 196.97Z" fill="#1F2225"/>
</svg>
