<svg width="272" height="130" viewBox="0 0 272 130" fill="none" xmlns="http://www.w3.org/2000/svg">
<mask id="mask0" mask-type="alpha" maskUnits="userSpaceOnUse" x="1" y="3" width="270" height="118">
<path d="M1 120.808V3H270.341V120.808H1Z" fill="white"/>
</mask>
<g mask="url(#mask0)">
<path fill-rule="evenodd" clip-rule="evenodd" d="M39.4547 3.0004H180.753C202.069 3.0004 219.349 20.2804 219.349 41.5964V54.1924C219.349 68.5524 230.989 80.1924 245.349 80.1924H250.034C261.249 80.1924 270.342 89.2854 270.342 100.5C270.342 111.716 261.249 120.808 250.034 120.808H27.1847C12.7237 120.808 0.999695 109.084 0.999695 94.6234V92.1694C0.999695 77.7084 12.7237 65.9844 27.1847 65.9844H41.1967C52.2727 65.9844 61.2517 57.0054 61.2517 45.9284C61.2517 34.8524 52.2727 25.8734 41.1967 25.8734H39.4547C33.1387 25.8734 28.0177 20.7524 28.0177 14.4374V14.4364C28.0177 8.1204 33.1387 3.0004 39.4547 3.0004Z" fill="#4F545C" fill-opacity="0.3"/>
</g>
<path fill-rule="evenodd" clip-rule="evenodd" d="M73.443 62.9828H72.297C71.744 62.9828 71.297 63.4308 71.297 63.9828C71.297 64.5348 71.744 64.9828 72.297 64.9828H73.443C73.995 64.9828 74.443 64.5348 74.443 63.9828C74.443 63.4308 73.995 62.9828 73.443 62.9828Z" fill="#1F2225"/>
<path fill-rule="evenodd" clip-rule="evenodd" d="M92.424 103.487C91.451 104.706 90.039 105.383 88.503 105.383H49.08C47.544 105.383 46.132 104.706 45.159 103.487C44.353 102.478 44.017 101.169 44.102 99.8797L45.359 80.8037C45.528 78.2287 47.092 75.9647 49.441 74.8937L53.733 72.9397C55.515 72.1287 56.659 70.3497 56.659 68.3917V66.9827C56.659 65.8787 57.554 64.9827 58.659 64.9827H67.528C68.08 64.9827 68.528 64.5347 68.528 63.9827C68.528 63.4307 68.08 62.9827 67.528 62.9827H53.57C52.466 62.9827 51.57 62.0877 51.57 60.9827V58.4027C51.57 57.2977 52.466 56.4027 53.57 56.4027H84.013C85.117 56.4027 86.013 57.2977 86.013 58.4027V60.9827C86.013 62.0877 85.117 62.9827 84.013 62.9827H77.211C76.658 62.9827 76.211 63.4307 76.211 63.9827C76.211 64.5347 76.658 64.9827 77.211 64.9827H78.924C80.028 64.9827 80.924 65.8787 80.924 66.9827V68.3887C80.924 70.3487 82.069 72.1277 83.852 72.9397L88.142 74.8937C90.487 75.9627 92.056 78.2337 92.226 80.8057L93.481 99.8787C93.566 101.169 93.23 102.477 92.424 103.487ZM95.488 99.9237L94.222 80.6737C94.004 77.3667 91.987 74.4477 88.972 73.0737L84.68 71.1197C83.611 70.6317 82.924 69.5647 82.924 68.3887V67.0717C82.924 65.9177 83.859 64.9827 85.013 64.9827C86.67 64.9827 88.013 63.6397 88.013 61.9827V57.4027C88.013 55.7457 86.67 54.4027 85.013 54.4027H52.57C50.913 54.4027 49.57 55.7457 49.57 57.4027V61.9827C49.57 63.6397 50.913 64.9827 52.57 64.9827C53.724 64.9827 54.659 65.9177 54.659 67.0717V68.3887C54.659 69.5657 53.972 70.6327 52.902 71.1197L48.611 73.0737C45.597 74.4457 43.58 77.3637 43.362 80.6697L42.095 99.9237C41.959 102 42.72 103.973 44.231 105.432C45.581 106.735 47.436 107.383 49.312 107.383H88.271C90.147 107.383 92.002 106.735 93.352 105.432C94.863 103.973 95.624 102 95.488 99.9237Z" fill="#1F2225"/>
<path d="M45.5498 103.175L45.5497 103.175C44.8335 102.278 44.5228 101.098 44.6009 99.9126L44.102 99.8797L44.6009 99.9126L45.8579 80.8366L45.8579 80.8364C46.0149 78.4453 47.4667 76.3433 49.6484 75.3486L53.9401 73.3948C55.9006 72.5025 57.159 70.5455 57.159 68.3917V66.9827C57.159 66.1547 57.8303 65.4827 58.659 65.4827H67.528C68.3561 65.4827 69.028 64.8108 69.028 63.9827C69.028 63.1546 68.3561 62.4827 67.528 62.4827H53.57C52.742 62.4827 52.07 61.8114 52.07 60.9827V58.4027C52.07 57.574 52.742 56.9027 53.57 56.9027H84.013C84.841 56.9027 85.513 57.574 85.513 58.4027V60.9827C85.513 61.8114 84.841 62.4827 84.013 62.4827H77.211C76.3815 62.4827 75.711 63.1549 75.711 63.9827C75.711 64.8105 76.3815 65.4827 77.211 65.4827H78.924C79.7519 65.4827 80.424 66.1548 80.424 66.9827V68.3887C80.424 70.5447 81.6835 72.5015 83.6448 73.3947L87.9346 75.3487C90.1122 76.3413 91.5692 78.4503 91.7271 80.8387L92.9821 99.9115L92.9821 99.9116C93.0602 101.098 92.7495 102.277 92.0332 103.175C91.1546 104.275 89.8862 104.883 88.503 104.883H49.08C47.6968 104.883 46.4283 104.275 45.5498 103.175Z" fill="#ADCDFF" stroke="black"/>
<path fill-rule="evenodd" clip-rule="evenodd" d="M47.2711 82.1913L46.0871 100.187C46.0321 101.024 46.3171 101.821 46.8901 102.434C47.4641 103.046 48.2411 103.383 49.0801 103.383H88.5031C89.3421 103.383 90.1191 103.046 90.6931 102.434C91.2671 101.821 91.5521 101.023 91.4971 100.187L90.3131 82.1913H47.2711Z" fill="#1F2225"/>
<path fill-rule="evenodd" clip-rule="evenodd" d="M90.3126 82.1913C90.3126 79.9823 80.6776 78.1913 68.7916 78.1913C56.9056 78.1913 47.2706 79.9823 47.2706 82.1913C47.2706 84.4003 56.9056 86.1913 68.7916 86.1913C80.6776 86.1913 90.3126 84.4003 90.3126 82.1913Z" fill="#1F2225"/>
<path fill-rule="evenodd" clip-rule="evenodd" d="M81.1315 86.1523C80.6315 86.1523 80.1985 85.7783 80.1395 85.2683C80.0745 84.7203 80.4675 84.2233 81.0165 84.1593C81.6625 84.0833 82.2825 84.0023 82.8725 83.9143C83.4265 83.8423 83.9285 84.2103 84.0085 84.7563C84.0895 85.3023 83.7125 85.8113 83.1655 85.8923C82.5565 85.9823 81.9165 86.0673 81.2485 86.1453C81.2095 86.1503 81.1705 86.1523 81.1315 86.1523ZM68.7916 86.8056C63.5936 86.8056 58.5556 86.4916 54.6066 85.9196C54.0616 85.8416 53.6826 85.3336 53.7616 84.7866C53.8386 84.2406 54.3476 83.8536 54.8946 83.9416C58.7496 84.4986 63.6866 84.8056 68.7916 84.8056C71.5586 84.8056 74.2456 84.7186 76.7816 84.5456C77.3306 84.5326 77.8106 84.9256 77.8476 85.4766C77.8846 86.0276 77.4686 86.5036 76.9166 86.5416C74.3366 86.7166 71.6036 86.8056 68.7916 86.8056Z" fill="#4F545C"/>
<path fill-rule="evenodd" clip-rule="evenodd" d="M67.0343 39.6498C69.4173 42.3278 72.8783 44.0268 76.7363 44.0268C76.9173 44.0268 77.0973 44.0228 77.2773 44.0148C80.1023 43.8958 82.4453 46.1768 82.4453 49.0048V119.99C82.4453 124.625 85.9503 128.675 90.5763 128.955H93.7543L95.2513 44.9258V29.9258" fill="#1F2225"/>
<path fill-rule="evenodd" clip-rule="evenodd" d="M154.324 22.9037H156.929C161.432 22.9037 165.095 26.5667 165.095 31.0697V33.8507C165.095 34.6157 165.623 35.2257 166.377 35.3357C166.455 35.3457 166.532 35.3517 166.608 35.3517C167.275 35.3517 167.847 34.9287 168.044 34.2637C168.506 32.7027 168.626 31.0777 168.401 29.4317C167.713 24.3677 163.694 20.3407 158.631 19.6387C157.029 19.4177 155.445 19.5227 153.922 19.9507H153.921C153.178 20.1597 152.731 20.8407 152.838 21.6067C152.942 22.3707 153.553 22.9037 154.324 22.9037Z" fill="#9D6B6B"/>
<path fill-rule="evenodd" clip-rule="evenodd" d="M169.511 31.0268C169.511 33.1268 168.975 35.2078 167.961 37.0458L167.333 38.1818L168.562 37.7588C171.441 36.7688 173.375 34.0628 173.375 31.0268C173.375 27.9908 171.441 25.2848 168.562 24.2948L167.333 23.8718L167.961 25.0078C168.975 26.8458 169.511 28.9268 169.511 31.0268ZM74.4796 31.0268C74.4796 27.0988 71.2846 23.9038 67.3566 23.9038C63.4286 23.9038 60.2336 27.0988 60.2336 31.0268C60.2336 34.9548 63.4286 38.1498 67.3566 38.1498C71.2846 38.1498 74.4796 34.9548 74.4796 31.0268Z" fill="#9D6B6B"/>
<path fill-rule="evenodd" clip-rule="evenodd" d="M101.144 120.071V111.643C101.144 110.264 102.265 109.143 103.644 109.143L160.597 109.13C162.527 109.13 164.096 107.559 164.096 105.63V31.0707C164.096 27.1187 160.881 23.9037 156.929 23.9037H95.1747C94.1067 23.9037 93.1147 24.3827 92.4517 25.2167C91.7777 26.0657 91.5327 27.1657 91.7807 28.2327C91.9937 29.1437 92.1007 30.0847 92.1007 31.0267C92.1007 34.5387 90.5947 37.9127 87.9697 40.2847C87.2327 40.9497 86.8097 41.8947 86.8097 42.8787V120.304C86.8097 122.361 87.6987 124.323 89.2477 125.685C90.5627 126.842 92.2527 127.469 93.9947 127.469C94.3017 127.469 94.6107 127.45 94.9187 127.411C98.4677 126.955 101.144 123.8 101.144 120.071Z" fill="#FEDA9B"/>
<path fill-rule="evenodd" clip-rule="evenodd" d="M104.644 110.143H172.38C173.759 110.143 174.88 111.264 174.88 112.643V120.304C174.88 124.256 171.665 127.471 167.713 127.471H98.089L99.16 126.585C101.056 125.019 102.144 122.729 102.144 120.304V112.643C102.144 111.264 103.265 110.143 104.644 110.143Z" fill="#F3C87B"/>
<path fill-rule="evenodd" clip-rule="evenodd" d="M88.1725 23.3663C90.3505 25.8033 91.3915 29.0723 91.0275 32.3393C90.4565 37.4603 86.3405 41.6963 81.2405 42.4113C80.6905 42.4883 80.1415 42.5273 79.5975 42.5273C78.5515 42.5273 77.5195 42.3853 76.5125 42.1033C75.7675 41.8943 75.3225 41.2123 75.4275 40.4463C75.5325 39.6833 76.1435 39.1503 76.9145 39.1503H79.0895C83.5215 39.1503 87.2145 35.8263 87.4995 31.5833C87.6515 29.3103 86.8805 27.1433 85.3265 25.4833C83.7935 23.8443 81.6315 22.9033 79.3945 22.9033H78.6645C78.3885 22.9033 78.1645 23.1283 78.1645 23.4033C78.1645 23.6793 78.3885 23.9033 78.6645 23.9033H79.1645C82.8695 23.9033 86.0055 26.5643 86.4585 30.0923C86.7195 32.1373 86.0945 34.1913 84.7425 35.7283C83.3875 37.2673 81.4385 38.1503 79.3945 38.1503H71.4905L72.5495 37.2663C74.4125 35.7133 75.4795 33.4393 75.4795 31.0273C75.4795 28.6143 74.4125 26.3403 72.5495 24.7873L71.4905 23.9033H74.8965C75.1725 23.9033 75.3965 23.6793 75.3965 23.4033C75.3965 23.1283 75.1725 22.9033 74.8965 22.9033C74.0185 22.7963 73.7795 22.4043 73.7215 22.0943C73.6135 21.5013 74.1695 20.9123 74.5985 20.6843C76.1835 19.9133 77.8615 19.5263 79.6005 19.5263C82.8645 19.5263 85.9885 20.9263 88.1725 23.3663Z" fill="#9D6B6B"/>
<path fill-rule="evenodd" clip-rule="evenodd" d="M101.98 96.0717H138.311C138.864 96.0717 139.311 95.6247 139.311 95.0717C139.311 94.5187 138.864 94.0717 138.311 94.0717H101.98C101.427 94.0717 100.98 94.5187 100.98 95.0717C100.98 95.6247 101.427 96.0717 101.98 96.0717ZM101.98 86.0639H129.568C130.121 86.0639 130.568 85.6169 130.568 85.0639C130.568 84.5109 130.121 84.0639 129.568 84.0639H101.98C101.427 84.0639 100.98 84.5109 100.98 85.0639C100.98 85.6169 101.427 86.0639 101.98 86.0639ZM142.638 62.0448C142.638 61.4918 142.191 61.0448 141.638 61.0448H101.979C101.427 61.0448 100.979 61.4918 100.979 62.0448C100.979 62.5978 101.427 63.0448 101.979 63.0448H141.638C142.191 63.0448 142.638 62.5978 142.638 62.0448ZM101.98 53.037H133.977C134.53 53.037 134.977 52.59 134.977 52.037C134.977 51.484 134.53 51.037 133.977 51.037H101.98C101.427 51.037 100.98 51.484 100.98 52.037C100.98 52.59 101.427 53.037 101.98 53.037ZM149.307 52.037C149.307 51.484 148.86 51.037 148.307 51.037H139.645C139.092 51.037 138.645 51.484 138.645 52.037C138.645 52.59 139.092 53.037 139.645 53.037H148.307C148.86 53.037 149.307 52.59 149.307 52.037ZM101.98 43.0292H144.144C144.697 43.0292 145.144 42.5822 145.144 42.0292C145.144 41.4762 144.697 41.0292 144.144 41.0292H101.98C101.427 41.0292 100.98 41.4762 100.98 42.0292C100.98 42.5822 101.427 43.0292 101.98 43.0292Z" fill="#1F2225"/>
<mask id="mask1" mask-type="alpha" maskUnits="userSpaceOnUse" x="58" y="18" width="121" height="111">
<path d="M178.381 128.971H58.734V18.026H178.381V128.971Z" fill="white"/>
</mask>
<g mask="url(#mask1)">
<path fill-rule="evenodd" clip-rule="evenodd" d="M81.171 41.9164C79.588 42.1384 78.061 42.0184 76.647 41.6214C75.525 41.3054 75.748 39.6494 76.914 39.6494H79.09C83.678 39.6494 87.691 36.1944 87.998 31.6164C88.334 26.5964 84.345 22.4034 79.395 22.4034H78.664C78.111 22.4034 77.664 22.8514 77.664 23.4034C77.664 23.9564 78.111 24.4034 78.664 24.4034H79.164C82.53 24.4034 85.533 26.8164 85.962 30.1554C86.48 34.1944 83.333 37.6494 79.395 37.6494H72.87C74.768 36.0664 75.98 33.6864 75.98 31.0264C75.98 28.3674 74.768 25.9864 72.87 24.4034H74.896C75.448 24.4034 75.896 23.9564 75.896 23.4034C75.896 22.8514 75.448 22.4034 74.896 22.4034C73.645 22.2454 74.398 21.3574 74.834 21.1244C76.276 20.4244 77.891 20.0264 79.601 20.0264C86.08 20.0264 91.269 25.6584 90.53 32.2834C89.982 37.1984 86.068 41.2294 81.171 41.9164ZM67.357 37.6494C63.704 37.6494 60.734 34.6794 60.734 31.0264C60.734 27.3744 63.704 24.4034 67.357 24.4034C71.009 24.4034 73.98 27.3744 73.98 31.0264C73.98 34.6794 71.009 37.6494 67.357 37.6494ZM154.057 20.4324C155.464 20.0364 156.986 19.9164 158.563 20.1344C163.37 20.8004 167.252 24.6904 167.907 29.4994C168.127 31.1194 167.99 32.6824 167.565 34.1224C167.235 35.2374 165.596 35.0144 165.596 33.8514V31.0694C165.596 26.2834 161.716 22.4034 156.93 22.4034H154.324C153.159 22.4034 152.934 20.7474 154.057 20.4324ZM168.398 24.7674C170.998 25.6614 172.875 28.1254 172.875 31.0264C172.875 33.9274 170.998 36.3924 168.398 37.2864C169.423 35.4274 170.011 33.2954 170.011 31.0264C170.011 28.7584 169.423 26.6254 168.398 24.7674ZM175.381 108.643H166.596C166.043 108.643 165.596 108.195 165.596 107.643V87.0644C165.596 86.5124 165.149 86.0644 164.596 86.0644C164.043 86.0644 163.596 86.5124 163.596 87.0644V105.629C163.596 107.286 162.253 108.628 160.596 108.629L103.644 108.643C101.986 108.643 100.644 109.986 100.644 111.643V120.07C100.644 123.458 98.215 126.482 94.855 126.914C90.79 127.437 87.31 124.269 87.31 120.304V42.8774C87.31 42.0284 87.674 41.2244 88.305 40.6554C90.938 38.2764 92.601 34.8454 92.601 31.0264C92.601 30.0264 92.485 29.0534 92.268 28.1194C91.826 26.2224 93.227 24.4034 95.174 24.4034H156.929C160.61 24.4034 163.596 27.3884 163.596 31.0704V76.0574C163.596 76.6094 164.043 77.0574 164.596 77.0574C165.149 77.0574 165.596 76.6094 165.596 76.0574V41.1954C165.596 40.9194 165.714 40.6604 165.915 40.4714C166.201 40.2014 166.474 39.9194 166.734 39.6254C171.264 39.3734 174.875 35.6194 174.875 31.0264C174.875 26.4344 171.264 22.6804 166.734 22.4284C164.351 19.7354 160.88 18.0264 157.011 18.0264C153.548 18.0264 150.406 19.3954 148.076 21.6104C147.532 22.1284 146.803 22.4034 146.052 22.4034H90.948C89.947 22.4034 88.994 22.0154 88.249 21.3474C85.951 19.2864 82.923 18.0264 79.601 18.0264C75.743 18.0264 72.282 19.7254 69.899 22.4034H67.859C67.823 22.4034 67.793 22.4204 67.758 22.4234C67.624 22.4174 67.492 22.4034 67.357 22.4034C62.602 22.4034 58.734 26.2714 58.734 31.0264C58.734 35.7814 62.602 39.6494 67.357 39.6494C67.492 39.6494 67.624 39.6354 67.758 39.6294C67.793 39.6324 67.823 39.6494 67.859 39.6494H69.899C72.282 42.3274 75.743 44.0264 79.601 44.0264C79.782 44.0264 79.962 44.0224 80.141 44.0154C82.967 43.8954 85.31 46.1774 85.31 49.0054V119.989C85.31 124.624 88.815 128.674 93.442 128.954C95.139 129.057 96.739 128.667 98.116 127.916C100.811 126.445 102.644 123.585 102.644 120.304V112.643C102.644 111.538 103.539 110.643 104.644 110.643H172.379C173.484 110.643 174.379 111.538 174.379 112.643V120.304C174.379 123.986 171.395 126.971 167.713 126.971H106.31C105.809 126.971 105.414 127.343 105.339 127.822C105.332 127.873 105.31 127.918 105.31 127.971C105.31 128.523 105.757 128.971 106.31 128.971H169.714C174.501 128.971 178.381 125.09 178.381 120.304V111.643C178.381 109.986 177.038 108.643 175.381 108.643Z" fill="#1F2225"/>
</g>
<path fill-rule="evenodd" clip-rule="evenodd" d="M175.787 74.2943C175.361 74.4093 175.061 74.7893 175.048 75.2313C175.035 75.6713 175.312 76.0683 175.73 76.2083L179.627 77.5113C178.434 78.7083 177.445 79.8033 176.664 80.7863C176.202 81.3673 175.464 81.6413 174.734 81.5033L162.143 79.1243C160.567 78.8263 159.957 76.8893 161.087 75.7503C169.912 66.8543 181.076 57.6973 194.146 51.3473C194.642 51.1063 194.849 50.5073 194.608 50.0103C194.367 49.5153 193.772 49.3083 193.271 49.5483C180.409 55.7983 169.36 64.7083 160.541 73.4563C159.336 74.6513 157.292 73.9063 157.143 72.2163L156.564 65.6783C156.515 65.1233 156.694 64.5783 157.069 64.1643C159.975 60.9633 170.232 50.5033 185.257 44.4043C188.582 43.0543 191.976 41.9853 195.347 41.2303C204.846 39.0973 214.438 39.3543 223.924 41.9853C224.75 42.2143 224.941 43.2963 224.229 43.7733C216.639 48.8513 198.343 61.3263 186.31 71.4553L175.787 74.2943Z" fill="#ECECEC"/>
<path fill-rule="evenodd" clip-rule="evenodd" d="M198.065 47.3861C197.583 47.5861 197.101 47.7911 196.623 48.0011C196.117 48.2231 195.886 48.8131 196.108 49.3191C196.272 49.6941 196.639 49.9171 197.025 49.9171C197.159 49.9171 197.294 49.8911 197.425 49.8331C197.892 49.6291 198.362 49.4281 198.833 49.2321C199.342 49.0201 199.585 48.4351 199.372 47.9251C199.161 47.4141 198.573 47.1721 198.065 47.3861Z" fill="#1F2225"/>
<path fill-rule="evenodd" clip-rule="evenodd" d="M175.787 74.2943C175.361 74.4093 175.061 74.7893 175.048 75.2313C175.035 75.6713 175.312 76.0683 175.73 76.2083L179.627 77.5113C178.434 78.7083 177.445 79.8033 176.664 80.7863C176.202 81.3673 175.464 81.6413 174.734 81.5033L162.143 79.1243C160.567 78.8263 159.957 76.8893 161.087 75.7503C169.912 66.8543 181.076 57.6973 194.146 51.3473C194.642 51.1063 194.849 50.5073 194.608 50.0103C194.367 49.5153 193.772 49.3083 193.271 49.5483C180.409 55.7983 169.36 64.7083 160.541 73.4563C159.336 74.6513 157.292 73.9063 157.143 72.2163L156.564 65.6783C156.515 65.1233 156.694 64.5783 157.069 64.1643C159.975 60.9633 170.232 50.5033 185.257 44.4043C188.582 43.0543 191.976 41.9853 195.347 41.2303C204.846 39.0973 214.438 39.3543 223.924 41.9853C224.75 42.2143 224.941 43.2963 224.229 43.7733C216.639 48.8513 198.343 61.3263 186.31 71.4553L175.787 74.2943ZM228.593 41.3523C217.45 37.4613 206.116 36.7643 194.909 39.2783C191.432 40.0583 187.932 41.1593 184.505 42.5513C166.23 49.9703 154.796 63.7153 154.683 63.8533C154.516 64.0553 154.435 64.3153 154.459 64.5753L155.457 75.8583C155.603 77.5093 155.058 79.1523 153.951 80.3863C149.162 85.7193 145.303 90.6873 142.483 94.5833C142.159 95.0303 142.259 95.6553 142.707 95.9793C142.884 96.1073 143.089 96.1693 143.292 96.1693C143.601 96.1693 143.907 96.0253 144.102 95.7553C146.717 92.1443 150.242 87.5963 154.575 82.6973C155.971 81.1183 158.105 80.3963 160.177 80.7873L176.227 83.8203C176.289 83.8323 176.351 83.8383 176.413 83.8383C176.75 83.8383 177.069 83.6673 177.256 83.3773C178.19 81.9153 179.849 80.0403 182.185 77.8043C182.438 77.5623 182.547 77.2043 182.47 76.8623C182.393 76.5213 182.143 76.2443 181.811 76.1333L179.507 75.3623L187.046 73.3283C187.187 73.2903 187.315 73.2233 187.427 73.1293C202.74 60.2043 228.551 43.3023 228.809 43.1333C229.129 42.9253 229.302 42.5533 229.255 42.1753C229.209 41.7973 228.952 41.4783 228.593 41.3523Z" fill="#1F2225"/>
</svg>
