<svg width="323" height="126" viewBox="0 0 323 126" fill="none" xmlns="http://www.w3.org/2000/svg">
<g clip-path="url(#clip0)">
<mask id="mask0" mask-type="alpha" maskUnits="userSpaceOnUse" x="0" y="10" width="314" height="117">
<path d="M0 68.207V126.082H313.999V10.331H0V68.207Z" fill="white"/>
</mask>
<g mask="url(#mask0)">
<path fill-rule="evenodd" clip-rule="evenodd" d="M313.999 57.2392C313.999 83.1452 292.998 104.147 267.091 104.147H235.437C229.38 104.147 224.47 109.057 224.47 115.114C224.47 121.172 219.56 126.082 213.503 126.082H38.33C17.161 126.082 0 108.921 0 87.7522V87.7482C0 66.5792 17.161 49.4182 38.33 49.4182H94.887C105.678 49.4182 114.427 40.6702 114.427 29.8782V29.8712C114.427 19.0802 123.175 10.3312 133.967 10.3312H267.091C292.998 10.3312 313.999 31.3332 313.999 57.2392Z" fill="#4F545C" fill-opacity="0.3"/>
</g>
<path d="M33 65C33 62.7909 34.7909 61 37 61H62C64.2091 61 66 62.7909 66 65C66 67.2091 64.2091 69 62 69H37C34.7909 69 33 67.2091 33 65Z" fill="#B97C51"/>
<path d="M213 65C213 62.7909 214.791 61 217 61H242C244.209 61 246 62.7909 246 65C246 67.2091 244.209 69 242 69H217C214.791 69 213 67.2091 213 65Z" fill="#B97C51"/>
<path d="M138 34H215L224 40L229.5 49V67L221.5 66.5L125 66V59L126.5 46.5L138 34L143 41L136 46.5L134.5 52.5L135.5 59H221V51.5L219 47L213.5 41H138V34Z" fill="#FCA62F"/>
<path fill-rule="evenodd" clip-rule="evenodd" d="M224.277 79.128L227.5 82C230.541 80.545 226.739 82.611 228.5 85.5C229.355 86.901 232.255 86.183 227.5 95.5C220.387 110.183 243.691 120.429 244.5 119L251 111.5C253.5 110.5 256.5 107 258 102.5V92.512L246.988 79.128L240.038 74.311C239.768 74.123 239.607 73.817 239.607 73.489V70H226.5L226.5 72C226.5 73.489 226.769 73.301 226.5 73.489L227.5 79.128C223.728 81.743 225.242 74.659 224.277 79.128Z" fill="#E1A45B"/>
<path d="M89 33H130L135 36L129.5 41.5L124 52.5V67L69.5 66.5V58.5L70.5 47.5L79 37L89 33V40L84.5 42.5L79 49L79.5 58.5L97 59.5L114.5 58.5L117.5 41L89 40V33Z" fill="#DE9024"/>
<path d="M69 68H125V117H115V74.5L79 74V93H69V68Z" fill="#DE9024"/>
<path d="M89 41H116.5L114 58H79L80.5 45.5L89 41Z" fill="#934C3D"/>
<path d="M124.5 68H170V74.5H134.5V109.5H124.5V68Z" fill="#FCA62F"/>
<path d="M198 67H230.5V125L162.5 124.5L169 118H220.5V74H198V67Z" fill="#FCA62F"/>
<rect x="169" y="66" width="29" height="37" fill="#FCC32F"/>
<path fill-rule="evenodd" clip-rule="evenodd" d="M20.1572 92.8184L33.8652 86.2594C36.9062 84.8044 40.5282 85.8844 42.2892 88.7734L45.4342 93.9284C46.2892 95.3294 47.7642 96.1784 49.4022 96.1234C51.0332 96.0964 52.4902 95.2284 53.2992 93.7994L56.1132 88.8324C57.7612 85.9224 61.3162 84.7114 64.3812 86.0154L68.1452 87.6154V79.4344L61.1952 74.6174C60.9252 74.4294 60.7642 74.1234 60.7642 73.7954V70.3064H38.2482V73.7954C38.2482 74.1234 38.0872 74.4294 37.8182 74.6174L27.5052 81.7654C23.7332 84.3804 21.1222 88.3494 20.1572 92.8184Z" fill="#E1A45B"/>
<path fill-rule="evenodd" clip-rule="evenodd" d="M37.703 124.082H53.053V118.253H51.443C50.891 118.253 50.443 117.806 50.443 117.253V109.423C50.443 108.87 50.891 108.423 51.443 108.423H53.053V101.594C53.053 101.041 53.5 100.594 54.053 100.594H59.578V93.7641C59.578 93.2111 60.025 92.7641 60.578 92.7641H68.145V89.7871L63.599 87.8551C61.47 86.9541 58.999 87.7941 57.853 89.8181L55.039 94.7861C53.877 96.8381 51.782 98.0851 49.434 98.1231C49.398 98.1241 49.361 98.1241 49.325 98.1241C47.021 98.1241 44.935 96.9511 43.727 94.9701L40.582 89.8141C39.357 87.8061 36.84 87.0551 34.728 88.0641L19.817 95.1991C19.428 100.058 20.984 104.893 24.191 108.573L37.703 124.082Z" fill="#B97C51"/>
<path fill-rule="evenodd" clip-rule="evenodd" d="M242.681 118.253H239.766H231.609V124.082H239.825H242.681V118.253Z" fill="#D24230"/>
<path fill-rule="evenodd" clip-rule="evenodd" d="M231.609 116.253H238.766V110.423H231.609V116.253Z" fill="#E24D3A"/>
<path fill-rule="evenodd" clip-rule="evenodd" d="M62.448 124.082V118.253H60.838H55.052V124.082H61.309H62.448Z" fill="#A53B2E"/>
<path fill-rule="evenodd" clip-rule="evenodd" d="M52.443 116.253H54.053H59.839V110.423H54.053H52.443V116.253Z" fill="#A53B2E"/>
<path fill-rule="evenodd" clip-rule="evenodd" d="M55.053 108.423H60.839H62.449V102.594H55.053V108.423Z" fill="#A53B2E"/>
<path fill-rule="evenodd" clip-rule="evenodd" d="M61.578 100.593H68.145V94.7641H61.578V100.593Z" fill="#A53B2E"/>
<path fill-rule="evenodd" clip-rule="evenodd" d="M103.596 124.082H114.427V118.427H103.596V124.082Z" fill="#D24230"/>
<path fill-rule="evenodd" clip-rule="evenodd" d="M79.8886 92.7637H81.4566H90.8516C91.4046 92.7637 91.8516 93.2107 91.8516 93.7637V100.594H94.5056H103.902C104.454 100.594 104.902 101.041 104.902 101.594V109.423C104.902 109.976 104.454 110.423 103.902 110.423H99.6816V116.253H102.597C102.796 116.253 102.971 116.326 103.127 116.427H114.079V75.2767H79.8886V92.7637ZM219.865 57.9659V53.3979C219.865 47.0409 214.694 41.8699 208.338 41.8699H147.093C140.737 41.8699 135.566 47.0409 135.566 53.3979V57.9659H219.865ZM219.865 87.8389V75.2759H199.058C199.001 75.2759 198.952 75.2529 198.898 75.2439V87.1449C198.898 87.6969 198.45 88.1449 197.898 88.1449V94.6239C198.45 94.6239 198.898 95.0709 198.898 95.6239V99.3309C198.898 102.953 195.952 105.9 192.33 105.9H175.627C172.006 105.9 169.06 102.953 169.06 99.3309V74.2759H162.477C162.476 74.8289 162.029 75.2759 161.477 75.2759H135.565V108.423H138.36C139.894 102.209 145.5 97.5819 152.181 97.5819H156.999C164.857 97.5819 171.249 103.975 171.249 111.832C171.249 113.442 170.969 114.983 170.475 116.427H219.865V93.6669C219.865 93.1139 220.313 92.6669 220.865 92.6669V88.8389C220.313 88.8389 219.865 88.3919 219.865 87.8389Z" fill="#934C3D"/>
<path fill-rule="evenodd" clip-rule="evenodd" d="M187.765 85.7628C189.66 84.5268 190.791 82.4428 190.791 80.1888C190.791 76.5188 187.806 73.5338 184.136 73.5338C180.466 73.5338 177.48 76.5188 177.48 80.1888C177.48 82.4428 178.611 84.5268 180.506 85.7628C180.844 85.9838 181.016 86.3858 180.943 86.7828L179.573 94.2108C179.603 94.3968 179.765 94.5388 179.96 94.5388H188.311C188.506 94.5388 188.667 94.3968 188.698 94.2108L187.328 86.7828C187.255 86.3858 187.427 85.9838 187.765 85.7628Z" fill="#36393E"/>
<path fill-rule="evenodd" clip-rule="evenodd" d="M80.717 124.082V118.253H77.802H73.931H73.321H72.321H68.407H64.448V124.082H70.145H73.321H73.931H80.717Z" fill="#D24230"/>
<path fill-rule="evenodd" clip-rule="evenodd" d="M76.803 110.423H74.932H73.627H71.322H69.407H63.448H61.839V116.253H63.448H69.407H71.322H72.322H74.932H76.803V110.423Z" fill="#E24D3A"/>
<path fill-rule="evenodd" clip-rule="evenodd" d="M68.407 108.423H72.322H73.931H74.627H77.803H81.717H82.022V102.594H74.627H73.931H64.448V108.423H68.407Z" fill="#D24230"/>
<path fill-rule="evenodd" clip-rule="evenodd" d="M70.973 100.593H80.456H89.852V94.7641H80.456H70.973V100.593Z" fill="#D24230"/>
<path fill-rule="evenodd" clip-rule="evenodd" d="M101.596 124.082V118.253H98.681H92.2H89.286H83.327H82.717V124.082H83.327H92.2H101.596Z" fill="#E24D3A"/>
<path fill-rule="evenodd" clip-rule="evenodd" d="M88.286 110.423H84.327H83.022H80.717H78.803V116.253H80.717H81.717H84.327H88.286H93.201H97.682V110.423H94.506H88.286Z" fill="#D24230"/>
<path fill-rule="evenodd" clip-rule="evenodd" d="M93.506 102.594H84.023V108.423H89.286H93.506H98.682H102.902V102.594H93.506Z" fill="#E24D3A"/>
<path fill-rule="evenodd" clip-rule="evenodd" d="M123.822 118.253H119.863H116.426V124.082H123.822V118.253Z" fill="#A53B2E"/>
<path fill-rule="evenodd" clip-rule="evenodd" d="M124.822 116.253H128.259V110.423H120.863V116.253H124.822Z" fill="#A53B2E"/>
<path fill-rule="evenodd" clip-rule="evenodd" d="M144.701 124.082V123.937C142.479 122.561 140.665 120.595 139.477 118.253H135.305H129.259H125.822V124.082H135.305H144.701ZM130.259 110.423V116.253H136.306H138.642C138.186 114.86 137.931 113.376 137.931 111.832C137.931 111.357 137.957 110.887 138.003 110.423H130.259ZM139.931 111.832C139.931 117.512 143.822 122.287 149.075 123.668C145.264 121.107 142.749 116.759 142.749 111.832C142.749 106.905 145.264 102.557 149.075 99.9961C143.822 101.377 139.931 106.152 139.931 111.832Z" fill="#D24230"/>
<path fill-rule="evenodd" clip-rule="evenodd" d="M139.5 112C139.5 117.68 143.833 123.228 149.253 123.672C145.442 121.111 142.927 116.763 142.927 111.836C142.927 106.909 145.442 102.561 149.253 100C144.5 100 139.5 106.32 139.5 112Z" fill="#C7961A"/>
<path fill-rule="evenodd" clip-rule="evenodd" d="M156.999 120.06C152.462 120.06 148.772 116.37 148.772 111.832C148.772 111.28 149.22 110.832 149.772 110.832C150.324 110.832 150.772 111.28 150.772 111.832C150.772 115.266 153.565 118.06 156.999 118.06C160.433 118.06 163.227 115.266 163.227 111.832C163.227 108.399 160.433 105.605 156.999 105.605C156.447 105.605 155.999 105.158 155.999 104.605C155.999 104.052 156.447 103.605 156.999 103.605C161.536 103.605 165.227 107.295 165.227 111.832C165.227 116.37 161.536 120.06 156.999 120.06ZM156.999 99.5816C150.244 99.5816 144.749 105.078 144.749 111.832C144.749 118.587 150.244 124.082 156.999 124.082C163.754 124.082 169.249 118.587 169.249 111.832C169.249 105.078 163.754 99.5816 156.999 99.5816Z" fill="#FCC32F"/>
<path fill-rule="evenodd" clip-rule="evenodd" d="M262.324 81.1866H264.45C265.003 81.1866 265.45 81.6336 265.45 82.1866C265.45 82.7396 265.003 83.1866 264.45 83.1866H263.324V92.2786C263.324 92.4616 263.473 92.6116 263.657 92.6116H270.217C270.401 92.6116 270.55 92.4616 270.55 92.2786V82.1866C270.55 81.6336 270.998 81.1866 271.55 81.1866H281.395C281.257 80.3906 281.149 79.5846 281.102 78.7596C281.01 77.1326 281.125 75.5286 281.396 73.9606H240.773C240.589 73.9606 240.439 74.1106 240.439 74.2936V80.8536C240.439 81.0376 240.589 81.1866 240.773 81.1866H247.216C247.768 81.1866 248.216 81.6336 248.216 82.1866C248.216 82.7396 247.768 83.1866 247.216 83.1866H245.266C245.304 83.2916 245.334 83.4016 245.334 83.5196V92.2786C245.334 92.4616 245.483 92.6116 245.667 92.6116H254.893C255.077 92.6116 255.226 92.4616 255.226 92.2786V82.1866C255.226 81.6336 255.674 81.1866 256.226 81.1866C256.779 81.1866 257.226 81.6336 257.226 82.1866H261.324C261.324 81.6336 261.772 81.1866 262.324 81.1866ZM308.781 83.5684C307.18 85.3614 304.976 86.4234 302.576 86.5584C302.405 86.5684 302.233 86.5734 302.063 86.5734C297.331 86.5734 293.353 82.8644 293.082 78.0824C292.947 75.6814 293.754 73.3724 295.355 71.5794C296.956 69.7864 299.16 68.7234 301.56 68.5894C303.955 68.4514 306.269 69.2594 308.062 70.8604C309.855 72.4624 310.918 74.6654 311.053 77.0654C311.189 79.4654 310.382 81.7754 308.781 83.5684ZM316.24 90.2274C319.62 86.4424 321.323 81.5674 321.037 76.5014C320.751 71.4334 318.508 66.7814 314.722 63.4014C310.938 60.0224 306.067 58.3234 300.995 58.6044C295.928 58.8914 291.276 61.1334 287.896 64.9194C284.516 68.7044 282.812 73.5794 283.099 78.6464C283.691 89.1054 292.681 97.1264 303.141 96.5434C308.208 96.2564 312.86 94.0134 316.24 90.2274Z" fill="#FFB800"/>
<path fill-rule="evenodd" clip-rule="evenodd" d="M124.822 102.855C124.27 102.855 123.822 103.302 123.822 103.855V106.72C123.822 107.273 124.27 107.72 124.822 107.72C125.374 107.72 125.822 107.273 125.822 106.72V103.855C125.822 103.302 125.374 102.855 124.822 102.855ZM187.765 85.7627C187.427 85.9837 187.255 86.3857 187.328 86.7827L188.698 94.2107C188.667 94.3967 188.506 94.5387 188.311 94.5387H179.96C179.765 94.5387 179.603 94.3967 179.573 94.2107L180.943 86.7827C181.016 86.3857 180.844 85.9837 180.506 85.7627C178.611 84.5267 177.48 82.4427 177.48 80.1887C177.48 76.5187 180.466 73.5337 184.136 73.5337C187.806 73.5337 190.791 76.5187 190.791 80.1887C190.791 82.4427 189.66 84.5267 187.765 85.7627ZM184.136 71.5337C179.363 71.5337 175.48 75.4157 175.48 80.1887C175.48 82.8947 176.732 85.4107 178.861 87.0467L177.584 93.9657C177.573 94.0267 177.568 94.0867 177.568 94.1477C177.568 95.4657 178.641 96.5387 179.96 96.5387H188.311C189.63 96.5387 190.703 95.4657 190.703 94.1477C190.703 94.0867 190.698 94.0267 190.686 93.9657L189.411 87.0457C191.539 85.4107 192.791 82.8947 192.791 80.1887C192.791 75.4157 188.908 71.5337 184.136 71.5337ZM114.079 53.3974V54.9654C114.079 56.6234 112.736 57.9654 111.079 57.9654H82.8886C81.2316 57.9654 79.8886 56.6234 79.8886 54.9654V53.3974C79.8886 47.0314 85.0496 41.8704 91.4156 41.8704H114.746C115.434 41.8704 115.902 42.5444 115.689 43.1994C114.62 46.4784 114.079 49.8974 114.079 53.3974ZM77.8886 53.3974V58.9654C77.8886 59.5184 78.3356 59.9654 78.8886 59.9654H115.079C115.631 59.9654 116.079 59.5184 116.079 58.9654V53.3974C116.079 49.1884 116.911 45.1054 118.552 41.2624C118.683 40.9544 118.651 40.5994 118.466 40.3194C118.281 40.0394 117.968 39.8704 117.632 39.8704H91.4156C83.9566 39.8704 77.8886 45.9384 77.8886 53.3974ZM216.865 57.9658H138.566C136.909 57.9658 135.566 56.6228 135.566 54.9658V53.3978C135.566 47.0308 140.727 41.8698 147.093 41.8698H208.338C214.704 41.8698 219.865 47.0308 219.865 53.3978V54.9658C219.865 56.6228 218.522 57.9658 216.865 57.9658ZM221.865 58.9658V53.3978C221.865 45.9388 215.797 39.8698 208.338 39.8698H147.093C139.634 39.8698 133.566 45.9388 133.566 53.3978V58.9658C133.566 59.5188 134.013 59.9658 134.566 59.9658H220.865C221.417 59.9658 221.865 59.5188 221.865 58.9658ZM156.999 103.604C156.447 103.604 155.999 104.051 155.999 104.604C155.999 105.158 156.447 105.604 156.999 105.604C160.433 105.604 163.227 108.398 163.227 111.832C163.227 115.265 160.433 118.06 156.999 118.06C153.565 118.06 150.772 115.265 150.772 111.832C150.772 111.279 150.324 110.832 149.772 110.832C149.22 110.832 148.772 111.279 148.772 111.832C148.772 116.369 152.462 120.06 156.999 120.06C161.536 120.06 165.227 116.369 165.227 111.832C165.227 107.294 161.536 103.604 156.999 103.604ZM260.015 34.2148H261.525V35.7248C261.525 36.2778 261.973 36.7248 262.525 36.7248C263.077 36.7248 263.525 36.2778 263.525 35.7248V34.2148H265.035C265.587 34.2148 266.035 33.7678 266.035 33.2148C266.035 32.6618 265.587 32.2148 265.035 32.2148H263.525V30.7048C263.525 30.1528 263.077 29.7048 262.525 29.7048C261.973 29.7048 261.525 30.1528 261.525 30.7048V32.2148H260.015C259.463 32.2148 259.015 32.6618 259.015 33.2148C259.015 33.7678 259.463 34.2148 260.015 34.2148ZM247.103 4.1826C247.359 4.1826 247.615 4.0846 247.81 3.8896L248.994 2.7066C249.384 2.3176 249.384 1.6836 248.994 1.2926C248.603 0.902599 247.97 0.902599 247.58 1.2926L246.396 2.4756C246.005 2.8656 246.005 3.4986 246.395 3.8896C246.591 4.0846 246.847 4.1826 247.103 4.1826ZM241.187 10.0996C241.443 10.0996 241.699 10.0016 241.894 9.8066L243.077 8.6226C243.468 8.2326 243.468 7.5996 243.077 7.2086C242.687 6.8186 242.053 6.8186 241.663 7.2086L240.48 8.3926C240.089 8.7836 240.089 9.4156 240.48 9.8066C240.675 10.0016 240.931 10.0996 241.187 10.0996ZM247.811 7.209C247.42 6.818 246.788 6.818 246.397 7.209C246.006 7.6 246.006 8.232 246.397 8.623L247.581 9.807C247.776 10.002 248.032 10.1 248.288 10.1C248.543 10.1 248.799 10.002 248.995 9.807C249.385 9.416 249.385 8.783 248.995 8.393L247.811 7.209ZM241.664 3.8896C241.859 4.0846 242.115 4.1826 242.371 4.1826C242.627 4.1826 242.883 4.0846 243.078 3.8896C243.469 3.4986 243.469 2.8666 243.078 2.4756L241.895 1.2926C241.503 0.902599 240.87 0.902599 240.48 1.2926C240.089 1.6836 240.089 2.3166 240.48 2.7066L241.664 3.8896ZM286.995 102.464C286.604 102.073 285.971 102.073 285.58 102.464L284.397 103.647C284.006 104.036 284.006 104.67 284.396 105.061C284.592 105.256 284.848 105.354 285.104 105.354C285.36 105.354 285.616 105.256 285.811 105.061L286.995 103.878C287.385 103.488 287.385 102.855 286.995 102.464ZM279.664 108.38L278.481 109.564C278.09 109.954 278.09 110.587 278.481 110.978C278.676 111.173 278.932 111.271 279.188 111.271C279.444 111.271 279.7 111.173 279.895 110.978L281.078 109.794C281.469 109.403 281.469 108.771 281.078 108.38C280.687 107.989 280.054 107.989 279.664 108.38ZM285.811 108.38C285.42 107.989 284.788 107.989 284.397 108.38C284.006 108.771 284.006 109.403 284.397 109.794L285.581 110.978C285.776 111.173 286.032 111.271 286.288 111.271C286.543 111.271 286.799 111.173 286.995 110.978C287.385 110.587 287.385 109.954 286.995 109.564L285.811 108.38ZM281.078 103.646L279.895 102.464C279.504 102.074 278.87 102.074 278.481 102.464C278.09 102.854 278.09 103.488 278.481 103.878L279.664 105.061C279.859 105.256 280.115 105.354 280.371 105.354C280.627 105.354 280.883 105.256 281.078 105.061C281.469 104.67 281.469 104.037 281.078 103.646ZM230.609 18.3515C231.442 18.3515 232.119 19.0295 232.119 19.8625C232.119 20.6945 231.442 21.3725 230.609 21.3725C229.776 21.3725 229.099 20.6945 229.099 19.8625C229.099 19.0295 229.776 18.3515 230.609 18.3515ZM230.609 23.3725C232.544 23.3725 234.119 21.7975 234.119 19.8625C234.119 17.9265 232.544 16.3515 230.609 16.3515C228.673 16.3515 227.099 17.9265 227.099 19.8625C227.099 21.7975 228.673 23.3725 230.609 23.3725Z" fill="#1F2225"/>
<path fill-rule="evenodd" clip-rule="evenodd" d="M316.24 90.2276C312.86 94.0136 308.208 96.2556 303.141 96.5426C292.681 97.1256 283.691 89.1056 283.099 78.6466C282.812 73.5796 284.516 68.7046 287.896 64.9186C291.276 61.1336 295.928 58.8916 300.995 58.6046C306.067 58.3236 310.938 60.0226 314.722 63.4016C318.508 66.7816 320.751 71.4336 321.037 76.5006C321.323 81.5676 319.62 86.4426 316.24 90.2276ZM240.772 83.1866H243.401C243.364 83.2916 243.334 83.4016 243.334 83.5196V92.2786C243.334 93.5666 244.378 94.6116 245.667 94.6116H254.893C256.181 94.6116 257.226 93.5666 257.226 92.2776V92.1716C257.49 93.2206 257.674 94.2966 257.751 95.4006C258.087 100.243 256.52 104.921 253.337 108.574L244.681 118.509V117.253C244.681 116.701 244.233 116.253 243.681 116.253H240.766V109.423C240.766 108.871 240.318 108.423 239.766 108.423H231.609V79.7066C231.609 79.1546 231.161 78.7066 230.609 78.7066C230.057 78.7066 229.609 79.1546 229.609 79.7066V124.082H223.802H216.219H164.243C166.517 122.732 168.387 120.776 169.62 118.427H220.865C221.418 118.427 221.865 117.98 221.865 117.427V93.6666C221.865 93.1146 221.418 92.6666 220.865 92.6666C220.313 92.6666 219.865 93.1146 219.865 93.6666V116.427H170.475C171.326 113.941 171.544 111.164 170.785 108.251C169.13 101.897 163.207 97.5816 156.64 97.5816H152.181C145.501 97.5816 139.895 102.209 138.361 108.423H135.566V75.2766H161.477C162.03 75.2766 162.477 74.8296 162.477 74.2766C162.477 73.7236 162.03 73.2766 161.477 73.2766H134.566C134.013 73.2766 133.566 73.7236 133.566 74.2766V108.423H129.259H124.823H119.864C119.311 108.423 118.864 108.871 118.864 109.423V116.253H116.079V74.2766C116.079 73.7236 115.631 73.2766 115.079 73.2766H78.8887C78.3367 73.2766 77.8887 73.7236 77.8887 74.2766V92.7636H70.1447V71.6226C70.1447 69.9646 71.4887 68.6226 73.1447 68.6226H120.823C122.479 68.6226 123.823 69.9646 123.823 71.6226V99.3466C123.823 99.8996 124.27 100.347 124.823 100.347C125.375 100.347 125.823 99.8996 125.823 99.3466V71.6226C125.823 69.9646 127.166 68.6226 128.823 68.6226H165.06C167.269 68.6226 169.06 70.4136 169.06 72.6226V74.2766V99.3316C169.06 102.959 172.001 105.9 175.629 105.9H192.331C195.958 105.9 198.899 102.959 198.899 99.3316V95.6236C198.899 95.0716 198.451 94.6236 197.899 94.6236C197.346 94.6236 196.899 95.0716 196.899 95.6236V98.3306C196.899 100.854 194.853 102.899 192.33 102.899H175.628C173.105 102.899 171.06 100.854 171.06 98.3316V69.6216C171.06 68.5166 171.956 67.6216 173.06 67.6216H179.108H194.899C196.003 67.6216 196.899 68.5166 196.899 69.6216V87.1446C196.899 87.6976 197.346 88.1446 197.899 88.1446C198.451 88.1446 198.899 87.6976 198.899 87.1446V75.2446C198.953 75.2526 199.002 75.2766 199.059 75.2766H219.865V87.8386C219.865 88.3916 220.313 88.8386 220.865 88.8386C221.418 88.8386 221.865 88.3916 221.865 87.8386V74.2766C221.865 73.7236 221.418 73.2766 220.865 73.2766H199.059C199.002 73.2766 198.953 73.2996 198.899 73.3086V72.6226C198.899 70.4136 200.69 68.6226 202.899 68.6226H226.609C228.266 68.6226 229.609 69.9646 229.609 71.6226V74.5646C229.609 75.1176 230.057 75.5646 230.609 75.5646C231.161 75.5646 231.609 75.1176 231.609 74.5646V72.5156C231.609 71.2956 232.598 70.3066 233.818 70.3066H237.071C238.291 70.3066 239.28 71.2956 239.28 72.5156C238.77 72.9446 238.439 73.5786 238.439 74.2936V80.8536C238.439 82.1416 239.484 83.1866 240.772 83.1866ZM231.609 116.253H238.766V110.423H231.609V116.253ZM242.681 124.082H239.825H231.609V118.253H239.766H242.681V124.082ZM144.75 111.832C144.75 105.078 150.245 99.5816 157 99.5816C163.755 99.5816 169.25 105.078 169.25 111.832C169.25 118.587 163.755 124.082 157 124.082C150.245 124.082 144.75 118.587 144.75 111.832ZM139.931 111.832C139.931 106.153 143.823 101.377 149.075 99.9966C145.264 102.557 142.75 106.906 142.75 111.832C142.75 116.759 145.264 121.108 149.075 123.668C143.823 122.288 139.931 117.512 139.931 111.832ZM138.642 116.253H136.306H130.259V110.423H138.003C137.957 110.887 137.931 111.357 137.931 111.832C137.931 113.376 138.186 114.86 138.642 116.253ZM144.701 124.082H135.306H125.823V118.253H129.259H135.306H139.477C140.666 120.595 142.48 122.561 144.701 123.938V124.082ZM120.864 116.253V110.423H128.259V116.253H124.823H120.864ZM123.823 124.082H116.427V118.253H119.864H123.823V124.082ZM103.596 124.082H114.427V118.427H103.596V124.082ZM102.596 116.253H99.6817V110.423H103.902C104.454 110.423 104.902 109.976 104.902 109.423V101.594C104.902 101.041 104.454 100.594 103.902 100.594H94.5057H91.8517V93.7636C91.8517 93.2106 91.4047 92.7636 90.8517 92.7636H81.4567H79.8887V75.2766H114.079V116.427H103.127C102.971 116.327 102.796 116.253 102.596 116.253ZM101.596 124.082H92.2007H83.3267H82.7177V118.253H83.3267H89.2857H92.2007H98.6817H101.596V124.082ZM80.7177 116.253H78.8027V110.423H80.7177H83.0227H84.3267H88.2857H94.5057H97.6817V116.253H93.2007H88.2857H84.3267H81.7177H80.7177ZM80.7177 124.082H73.9317H73.3217H70.1447H64.4477V118.253H68.4067H72.3217H73.3217H73.9317H77.8027H80.7177V124.082ZM61.8387 116.253V110.423H63.4477H69.4067H71.3217H73.6267H74.9317H76.8027V116.253H74.9317H72.3217H71.3217H69.4067H63.4477H61.8387ZM62.4477 124.082H61.3097H55.0527V118.253H60.8387H62.4477V124.082ZM52.4427 116.253V110.423H54.0527H59.8387V116.253H54.0527H52.4427ZM53.0527 124.082H39.5237C38.3667 124.082 37.2667 123.582 36.5077 122.71L24.1907 108.574C21.6717 105.681 20.1707 102.077 19.8317 98.3066C19.6687 96.4816 20.7277 94.7636 22.3807 93.9726L34.7277 88.0646C36.8407 87.0546 39.3567 87.8056 40.5827 89.8146L43.7267 94.9696C44.9347 96.9516 47.0217 98.1236 49.3247 98.1236H49.4337C51.7817 98.0846 53.8777 96.8376 55.0397 94.7866L57.8527 89.8186C58.9987 87.7936 61.4697 86.9546 63.5987 87.8556L65.4067 88.6236C67.0667 89.3296 68.1447 90.9586 68.1447 92.7636H60.5777C60.0257 92.7636 59.5777 93.2106 59.5777 93.7636V100.594H54.0527C53.5007 100.594 53.0527 101.041 53.0527 101.594V108.423H51.4427C50.8907 108.423 50.4427 108.871 50.4427 109.423V117.253C50.4427 117.806 50.8907 118.253 51.4427 118.253H53.0527V124.082ZM27.5057 81.7656L37.8177 74.6176C38.0867 74.4306 38.2477 74.1236 38.2477 73.7946V73.3066C38.2477 71.6496 39.5917 70.3066 41.2477 70.3066H57.7647C59.4217 70.3066 60.7647 71.6496 60.7647 73.3066V73.7956C60.7647 74.1236 60.9257 74.4306 61.1947 74.6176L68.1447 79.4346V87.6156L64.3817 86.0156C61.3157 84.7106 57.7607 85.9226 56.1127 88.8316L53.2997 93.7996C52.4897 95.2286 51.0327 96.0966 49.4017 96.1236C47.7637 96.1786 46.2887 95.3296 45.4347 93.9286L42.2897 88.7736C40.5277 85.8846 36.9067 84.8046 33.8647 86.2596L20.1567 92.8186C21.1227 88.3496 23.7337 84.3796 27.5057 81.7656ZM33.7907 64.8036C33.7907 62.8886 35.3477 61.3316 37.2627 61.3316H61.7497C63.6647 61.3316 65.2227 62.8886 65.2227 64.8336C65.2227 66.7486 63.6647 68.3066 61.7497 68.3066H37.2627C35.3477 68.3066 33.7907 66.7486 33.7907 64.8036ZM62.4477 102.594V108.423H60.8387H55.0527V102.594H62.4477ZM61.5777 100.593H68.1447V94.7636H61.5777V100.593ZM93.5057 102.594H102.902V108.423H98.6817H93.5057H89.2857H84.0227V102.594H93.5057ZM89.8517 100.593H80.4567H70.9727V94.7636H80.4567H89.8517V100.593ZM73.9317 102.594H74.6267H82.0227V108.423H81.7177H77.8027H74.6267H73.9317H72.3217H68.4067H64.4477V102.594H73.9317ZM125.823 55.4856C125.823 43.7386 135.345 34.2146 147.093 34.2146H162.405H208.338C220.086 34.2146 229.609 43.7386 229.609 55.4866V63.6216C229.609 64.7256 228.714 65.6216 227.609 65.6216H197.899H178.108H170.06H127.823C126.718 65.6216 125.823 64.7256 125.823 63.6216V55.4856ZM231.609 63.3316C231.609 62.2266 232.505 61.3316 233.609 61.3316H240.265C242.23 61.3316 243.819 62.9706 243.734 64.9876C243.656 66.8746 241.977 68.3066 240.088 68.3066H233.609C232.505 68.3066 231.609 67.4116 231.609 66.3066V63.3316ZM322.344 72.0296C321.68 69.4906 320.51 67.0886 318.915 65.0036C314.511 59.2396 307.867 56.2046 300.882 56.6086C295.282 56.9246 290.14 59.4036 286.405 63.5866C284.222 66.0316 282.693 68.8926 281.844 71.9606H241.28C241.28 70.9946 241.863 70.1546 242.725 69.7166C244.587 68.7756 245.842 66.7976 245.731 64.5256C245.591 61.6606 242.91 59.3316 240.041 59.3316H231.609V55.4856C231.609 42.6336 221.191 32.2146 208.339 32.2146H162.405H147.094H97.6337C97.0817 32.2146 96.6337 32.6626 96.6337 33.2146C96.6337 33.7676 97.0817 34.2146 97.6337 34.2146H130.733C132.585 34.2146 133.483 36.5376 132.07 37.7346C127.029 42.0046 123.823 48.3756 123.823 55.4856V63.6216C123.823 64.7256 122.927 65.6216 121.823 65.6216H72.1447C71.0407 65.6216 70.1447 64.7256 70.1447 63.6216V55.4856C70.1447 43.7566 79.6867 34.2146 91.4157 34.2146C91.9687 34.2146 92.4157 33.7676 92.4157 33.2146C92.4157 32.6626 91.9687 32.2146 91.4157 32.2146C78.5847 32.2146 68.1447 42.6546 68.1447 55.4856V66.6216V75.0906C68.1447 75.8976 67.2387 76.3726 66.5747 75.9136L62.7647 73.2716V71.9606C62.7647 70.9946 63.3477 70.1546 64.2097 69.7176C66.0717 68.7756 67.3267 66.7966 67.2157 64.5256C67.0757 61.6606 64.3947 59.3316 61.5257 59.3316H37.2627C34.2457 59.3316 31.7907 61.7866 31.7907 64.8336C31.7907 66.9746 33.0267 68.8296 34.8217 69.7276C35.6787 70.1566 36.2477 70.9996 36.2477 71.9586V73.2716L26.3657 80.1216C21.6857 83.3656 18.5957 88.4806 17.8887 94.1556C17.1807 99.8426 18.9277 105.578 22.6827 109.888L30.7187 119.112C32.4107 121.053 31.0317 124.082 28.4577 124.082H24.1367C23.5847 124.082 23.1367 124.53 23.1367 125.082C23.1367 125.635 23.5847 126.082 24.1367 126.082H37.2477H54.0527H61.7647H63.4477H69.1447H72.3217H74.9317H81.7177H84.3267H93.2007H102.596H115.427H124.823H136.306H145.701H152.181H157H215.763H222.802H230.609H240.28H243.681H290.508C291.06 126.082 291.508 125.635 291.508 125.082C291.508 124.53 291.06 124.082 290.508 124.082H247.209C245.813 124.082 244.681 122.951 244.681 121.554L254.497 110.289C258.065 106.192 260.082 100.888 259.76 95.4646C259.575 92.3646 258.687 89.4336 257.226 86.8186V82.1866C257.226 81.6336 256.779 81.1866 256.226 81.1866C255.674 81.1866 255.226 81.6336 255.226 82.1866V92.2786C255.226 92.4616 255.077 92.6116 254.893 92.6116H245.667C245.483 92.6116 245.334 92.4616 245.334 92.2786V83.5196C245.334 83.4016 245.304 83.2916 245.266 83.1866H247.216C247.768 83.1866 248.216 82.7396 248.216 82.1866C248.216 81.6336 247.768 81.1866 247.216 81.1866H240.773C240.589 81.1866 240.439 81.0376 240.439 80.8536V74.2936C240.439 74.1106 240.588 73.9606 240.772 73.9606H281.396C281.125 75.5286 281.01 77.1326 281.102 78.7596C281.149 79.5846 281.257 80.3906 281.395 81.1866H271.55C270.998 81.1866 270.55 81.6336 270.55 82.1866V92.2786C270.55 92.4616 270.401 92.6116 270.217 92.6116H263.657C263.473 92.6116 263.324 92.4616 263.324 92.2776V83.1866H264.45C265.003 83.1866 265.45 82.7396 265.45 82.1866C265.45 81.6336 265.003 81.1866 264.45 81.1866H262.324C261.772 81.1866 261.324 81.6336 261.324 82.1866V92.2786C261.324 93.5666 262.368 94.6116 263.657 94.6116H270.217C271.505 94.6116 272.55 93.5666 272.55 92.2776V83.1866H281.845C284.325 92.1236 292.527 98.5746 302.054 98.5736C302.452 98.5736 302.852 98.5626 303.254 98.5396C308.854 98.2226 313.996 95.7446 317.732 91.5596C322.431 86.2966 324.199 79.1296 322.344 72.0296Z" fill="#1F2225"/>
<path fill-rule="evenodd" clip-rule="evenodd" d="M307.289 82.2364C306.043 83.6314 304.33 84.4574 302.463 84.5624C298.61 84.7624 295.297 81.8224 295.079 77.9684C294.973 76.1024 295.601 74.3054 296.847 72.9114C298.092 71.5164 299.806 70.6904 301.672 70.5854C301.808 70.5774 301.943 70.5744 302.077 70.5744C303.797 70.5744 305.436 71.1974 306.73 72.3524C308.124 73.5974 308.951 75.3114 309.056 77.1784C309.162 79.0454 308.534 80.8414 307.289 82.2364ZM308.062 70.8604C306.268 69.2594 303.955 68.4514 301.56 68.5894C299.16 68.7234 296.956 69.7864 295.354 71.5794C293.753 73.3724 292.946 75.6814 293.082 78.0824C293.352 82.8644 297.331 86.5734 302.063 86.5734C302.233 86.5734 302.404 86.5684 302.576 86.5584C304.976 86.4234 307.18 85.3614 308.781 83.5684C310.382 81.7754 311.189 79.4654 311.053 77.0654C310.917 74.6654 309.855 72.4624 308.062 70.8604Z" fill="#1F2225"/>
</g>
<defs>
<clipPath id="clip0">
<rect width="323" height="126" fill="white"/>
</clipPath>
</defs>
</svg>
