<svg width="415" height="200" viewBox="0 0 415 200" fill="none" xmlns="http://www.w3.org/2000/svg">
<g clip-path="url(#clip0)">
<path fill-rule="evenodd" clip-rule="evenodd" d="M322.922 36.2354V36.2384C322.922 52.5694 336.161 65.8084 352.492 65.8084H375.132C385.657 65.8084 394.189 74.3404 394.189 84.8654C394.189 95.3894 385.657 103.922 375.132 103.922H342.725C330.746 103.922 321.035 113.632 321.035 125.611V125.615C321.035 137.595 330.746 147.306 342.725 147.306H388.447C402.585 147.306 414.045 158.766 414.045 172.903C414.045 187.041 402.585 198.502 388.447 198.502H46.6553C25.3323 198.502 8.04529 181.215 8.04529 159.892V159.883C8.04529 138.559 25.3323 121.273 46.6553 121.273H123.978C140.547 121.273 153.978 107.841 153.978 91.2734V36.6654C153.978 20.0964 167.41 6.66541 183.978 6.66541H293.352C309.683 6.66541 322.922 19.9044 322.922 36.2354Z" fill="#4F545C" fill-opacity="0.3"/>
<path fill-rule="evenodd" clip-rule="evenodd" d="M231.8 112.974V120.774C231.8 127.037 228.74 132.585 224.051 136.049C223.664 142.918 219.629 148.818 213.84 151.829L202.973 197.503H235.075V196.526C235.075 193.071 237.657 190.215 240.991 189.767L253.814 135.87C252.324 135.453 251.223 134.102 251.223 132.487V114.794C251.223 113.522 251.908 112.415 252.925 111.794C253.387 111.308 254.038 111.002 254.764 111.002H259.73L262.081 101.123H260.102C259.572 101.123 259.055 100.959 258.624 100.653L258.157 100.321C258.146 100.313 258.133 100.308 258.121 100.301L244.284 91.4532C243.264 90.8022 242.655 89.6922 242.655 88.4862C242.655 87.2782 243.264 86.1682 244.284 85.5162L258.121 76.6702C258.132 76.6632 258.144 76.6582 258.154 76.6512L258.272 76.5682L245.009 20.8232L228.35 90.8422C228.222 91.3792 227.682 91.7132 227.146 91.5832L224.106 104.36V104.8C228.391 105.063 231.8 108.623 231.8 112.974Z" fill="#DCE6F8"/>
<path fill-rule="evenodd" clip-rule="evenodd" d="M34.099 197.503H47.011L40.555 170.368L34.099 197.503Z" fill="#AEB9CF"/>
<path d="M80.4999 131L104 37L135 162.5L143 198.5H64.4999L80.4999 131Z" fill="#DCE6F8"/>
<path fill-rule="evenodd" clip-rule="evenodd" d="M95.6103 111.185C101.366 105.429 103.197 84.7551 103.565 79.6831C98.4923 80.0501 77.8183 81.8811 72.0623 87.6371C68.7413 90.9571 66.9683 95.6101 67.2163 100.298C67.3943 103.642 68.4143 108.628 70.7223 111.18C73.3883 114.126 79.9053 116.062 83.8363 116.062C88.2833 116.062 92.4653 114.33 95.6103 111.185Z" fill="#46965B"/>
<path fill-rule="evenodd" clip-rule="evenodd" d="M372.528 146.017C375.252 141.577 378.508 137.421 382.285 133.644L383.7 135.058C379.894 138.863 376.623 143.06 373.921 147.557C380.424 153.913 390.88 153.874 397.326 147.428C403.085 141.67 404.914 120.997 405.28 115.925C400.21 116.292 379.534 118.123 373.778 123.88C367.736 129.922 367.324 139.486 372.528 146.017Z" fill="#46965B"/>
<path fill-rule="evenodd" clip-rule="evenodd" d="M336.491 197.474C336.491 197.47 336.49 197.466 336.49 197.462C336.49 194.689 338.165 192.302 340.556 191.252C339.905 190.979 339.191 190.827 338.442 190.827H335.27C332.249 190.827 329.791 193.285 329.791 196.306V197.447L336.491 197.474Z" fill="#72767D"/>
<path d="M281 32L282.5 29.5L322.5 198H240.5L260 114.5L281 32Z" fill="#AEB9CF"/>
<path fill-rule="evenodd" clip-rule="evenodd" d="M244.755 191.699H241.902C239.24 191.699 237.075 193.864 237.075 196.526V197.553L249.582 197.503V196.526C249.582 193.864 247.417 191.699 244.755 191.699Z" fill="#36393E"/>
<path fill-rule="evenodd" clip-rule="evenodd" d="M351.466 192.68H343.272C340.635 192.68 338.49 194.826 338.49 197.462L356.207 197.503C356.23 197.503 356.248 197.485 356.248 197.462C356.248 194.826 354.103 192.68 351.466 192.68Z" fill="#4F545C"/>
<path fill-rule="evenodd" clip-rule="evenodd" d="M121.398 185.525V195.211C121.398 196.865 122.744 198.211 124.398 198.211H126.978C128.632 198.211 129.978 196.865 129.978 195.211V185.525H121.398Z" fill="#7A8EC7"/>
<path fill-rule="evenodd" clip-rule="evenodd" d="M140.415 153.974C129.921 153.974 121.415 145.468 121.415 134.974V133.584C118.4 133.269 115.779 131.608 114.166 129.215H106.176C96.991 129.215 89.544 136.662 89.544 145.847V195.21C89.544 196.867 90.887 198.21 92.544 198.21H95.123C96.78 198.21 98.123 196.867 98.123 195.21V186.524C98.123 184.867 99.467 183.524 101.123 183.524H146.609C145.352 182.277 144.57 180.553 144.57 178.647V164.541C144.57 163.989 145.018 163.541 145.57 163.541V153.974H140.415Z" fill="#7A8EC7"/>
<path fill-rule="evenodd" clip-rule="evenodd" d="M185.523 195.21V183.827C185.523 183.393 185.807 183.023 186.214 182.875C190.477 181.331 193.339 177.273 193.339 172.77V153.974H145.57V163.541C146.122 163.541 146.57 163.989 146.57 164.541V178.647C146.57 181.325 148.739 183.506 151.413 183.524C151.979 183.528 152.447 183.959 152.447 184.524V195.21C152.447 196.867 153.791 198.21 155.447 198.21H158.027C159.684 198.21 161.027 196.867 161.027 195.21V185.524C161.027 184.42 161.922 183.524 163.027 183.524H174.944C176.048 183.524 176.944 184.42 176.944 185.524V195.21C176.944 196.867 178.287 198.21 179.944 198.21H182.523C184.18 198.21 185.523 196.867 185.523 195.21Z" fill="#8FA1D2"/>
<path fill-rule="evenodd" clip-rule="evenodd" d="M144.568 84.1744H140.415C131.696 84.1744 124.497 90.7754 123.533 99.2404H132.524C133.281 92.2344 138.106 86.4144 144.568 84.1744ZM132.415 134.974V133.641H123.415V134.974C123.415 144.348 131.041 151.974 140.415 151.974H144.569C137.519 149.531 132.415 142.827 132.415 134.974Z" fill="#7A8EC7"/>
<path fill-rule="evenodd" clip-rule="evenodd" d="M184 120.774V112.974C184 110.339 185.439 108.029 187.566 106.774H182.8C179.381 106.774 176.6 109.555 176.6 112.974V120.774C176.6 130.148 184.226 137.774 193.6 137.774H196.153C189.104 135.331 184 128.627 184 120.774Z" fill="#B3CAFB"/>
<path fill-rule="evenodd" clip-rule="evenodd" d="M122.464 131.641H137.064C137.616 131.641 138.064 132.089 138.064 132.641C138.064 133.193 137.616 133.641 137.064 133.641H132.415V134.974C132.415 142.828 137.52 149.531 144.569 151.974H205.107C213.64 151.974 220.704 145.648 221.906 137.443C219.2 138.927 216.098 139.774 212.8 139.774H193.6C183.124 139.774 174.6 131.251 174.6 120.774V112.974C174.6 108.453 178.279 104.774 182.8 104.774H193.6C194.152 104.774 194.6 105.222 194.6 105.774H204.154C204.154 105.222 204.602 104.774 205.154 104.774H222.107V101.175C222.107 92.0267 214.839 84.5637 205.777 84.2077C205.68 85.8877 205.211 87.4777 204.368 88.9297C204.09 89.4087 203.478 89.5707 203.001 89.2927C202.984 89.2827 202.975 89.2657 202.959 89.2547C202.514 89.8757 202.005 90.4557 201.433 90.9907C201.442 91.0007 201.455 91.0047 201.463 91.0157C201.81 91.4447 201.742 92.0747 201.312 92.4207C199.392 93.9697 196.907 95.1877 194.128 95.9447C192.051 96.5107 189.897 96.8007 187.811 96.8007C187.253 96.8007 186.7 96.7797 186.155 96.7377C176.405 95.9917 167.568 92.4727 160.602 86.5617C160.106 86.1407 159.599 85.6717 159.335 84.9747C159.233 84.7087 159.195 84.4407 159.183 84.1747H144.568C138.106 86.4147 133.281 92.2337 132.524 99.2407H137.064C137.616 99.2407 138.064 99.6887 138.064 100.241C138.064 100.793 137.616 101.241 137.064 101.241H122.464C118.053 101.241 114.464 104.83 114.464 109.241V123.641C114.464 128.052 118.053 131.641 122.464 131.641Z" fill="#A0B2DC"/>
<path fill-rule="evenodd" clip-rule="evenodd" d="M121.464 110.241V122.641C121.464 125.402 123.703 127.641 126.464 127.641H133.064C134.169 127.641 135.064 126.745 135.064 125.641V107.241C135.064 106.137 134.169 105.241 133.064 105.241H126.464C123.703 105.241 121.464 107.479 121.464 110.241Z" fill="#8BA0D2"/>
<path fill-rule="evenodd" clip-rule="evenodd" d="M200.032 124.649H205.909C207.526 124.649 208.848 125.972 208.848 127.588C208.848 129.204 207.526 130.526 205.909 130.526H200.032C198.415 130.526 197.093 129.204 197.093 127.588C197.093 125.972 198.415 124.649 200.032 124.649ZM216.456 124.649H219.982C221.598 124.649 222.921 125.972 222.921 127.588C222.921 129.204 221.598 130.526 219.982 130.526H216.456C214.84 130.526 213.517 129.204 213.517 127.588C213.517 125.972 214.84 124.649 216.456 124.649ZM193.6 106.774H187.566C185.439 108.029 184 110.339 184 112.975V120.774C184 128.628 189.105 135.331 196.154 137.774H212.801C222.175 137.774 229.801 130.149 229.801 120.774V112.975C229.801 109.556 227.019 106.774 223.6 106.774H205.155C204.602 106.774 204.155 106.327 204.155 105.774H194.6C194.6 106.327 194.153 106.774 193.6 106.774Z" fill="#C2D2F1"/>
<path fill-rule="evenodd" clip-rule="evenodd" d="M200.032 130.526H205.909C207.526 130.526 208.848 129.204 208.848 127.588C208.848 125.971 207.526 124.649 205.909 124.649H200.032C198.415 124.649 197.093 125.971 197.093 127.588C197.093 129.204 198.415 130.526 200.032 130.526ZM216.455 130.526H219.981C221.598 130.526 222.92 129.204 222.92 127.588C222.92 125.971 221.598 124.649 219.981 124.649H216.455C214.839 124.649 213.516 125.971 213.516 127.588C213.516 129.204 214.839 130.526 216.455 130.526Z" fill="#A0B2DC"/>
<path fill-rule="evenodd" clip-rule="evenodd" d="M156.552 51.7541C157.094 51.8591 157.449 52.3821 157.345 52.9241C157.254 53.4031 156.835 53.7361 156.365 53.7361C156.303 53.7361 156.24 53.7311 156.178 53.7191C155.861 53.6591 149.912 52.4501 145.519 47.3671C145.007 48.6591 144.989 49.8261 145.47 50.9341C146.182 52.5701 148.071 54.0811 150.652 55.0801C155.045 56.7791 159.655 57.0491 163.633 55.8381C162.816 55.0771 161.9 53.9661 161.509 53.4921L161.389 53.3471C160.661 52.4741 160.013 51.5711 159.387 50.6971C157.916 48.6431 156.525 46.7031 154.295 45.4311C152.971 44.6761 151.506 44.2791 150.167 44.2791C149.507 44.2791 148.878 44.3751 148.312 44.5731C147.67 44.7971 147.115 45.1411 146.652 45.6001C150.658 50.5561 156.48 51.7401 156.552 51.7541Z" fill="#25AF49"/>
<path fill-rule="evenodd" clip-rule="evenodd" d="M214.48 19.923C215.737 20.761 217.105 20.895 218.656 20.331C216.414 18.266 214.985 15.913 214.1 13.984C213.869 13.482 214.089 12.888 214.591 12.657C215.092 12.426 215.686 12.646 215.917 13.149C216.771 15.008 218.204 17.298 220.471 19.238C220.938 18.79 221.297 18.251 221.538 17.62C222.187 15.924 221.925 13.623 220.857 11.614C219.651 9.34596 217.752 7.89996 215.742 6.36696C214.888 5.71596 214.004 5.04296 213.153 4.28896L213.009 4.16296C212.547 3.75796 211.464 2.80996 210.643 1.98596C209.401 5.91296 209.534 10.529 211.105 14.971C211.285 15.481 211.023 16.033 210.524 16.23C211.16 17.727 212.036 19.131 213.153 20.14C213.474 19.739 214.044 19.632 214.48 19.923Z" fill="#46965B"/>
<path fill-rule="evenodd" clip-rule="evenodd" d="M64.2143 159.526C67.3563 160.349 70.7333 159.12 72.6103 156.466L80.0743 145.919C80.3093 145.586 80.1963 145.265 80.1373 145.143C80.0773 145.021 79.8953 144.735 79.4883 144.715H79.4873L66.5803 144.092C66.4563 144.086 66.3313 144.083 66.2073 144.083C63.1023 144.083 60.2373 145.949 58.9973 148.818C58.0883 150.922 58.1423 153.31 59.1463 155.371C60.1503 157.431 61.9973 158.945 64.2143 159.526Z" fill="#25AF49"/>
<path fill-rule="evenodd" clip-rule="evenodd" d="M249.536 89.4707C251.271 89.4707 252.684 90.8757 252.684 92.6017C252.684 93.1757 252.517 93.7067 252.245 94.1697L245.361 89.7687C245.23 89.6847 245.122 89.5817 245.025 89.4707H249.536Z" fill="#E7AA6C"/>
<path fill-rule="evenodd" clip-rule="evenodd" d="M202.638 87.9261C202.37 88.3861 202.52 88.9651 202.958 89.2551C202.514 89.8761 202.004 90.4561 201.433 90.9911C201.082 90.5881 200.476 90.5251 200.057 90.8641C198.349 92.2411 196.117 93.3301 193.602 94.0151C191.187 94.6731 188.665 94.9251 186.307 94.7441C176.98 94.0291 168.539 90.6731 161.895 85.0361C161.585 84.7741 161.299 84.5171 161.204 84.2651C161.04 83.8351 161.428 83.2391 161.894 82.9531C162.504 82.5771 163.309 82.4631 164.161 82.3431L164.368 82.3141C165.594 82.1381 166.829 81.9021 168.037 81.6101C171.565 80.7601 174.954 79.4371 178.111 77.6761C179.061 77.1471 179.997 76.5731 180.901 76.0181L180.908 76.0138C182.65 74.9464 184.295 73.9381 186.087 73.1771C189.426 71.7581 193.472 71.8091 196.909 73.3121C199.05 74.2491 200.778 75.6931 201.957 77.4761C197.621 80.3691 192.559 82.3381 187.093 83.1861C186.547 83.2711 186.174 83.7821 186.258 84.3281C186.335 84.8221 186.761 85.1741 187.245 85.1741C187.296 85.1741 187.348 85.1711 187.4 85.1631C193.083 84.2801 198.356 82.2431 202.894 79.2521C202.917 79.309 202.942 79.3651 202.967 79.4214C203.005 79.5064 203.042 79.5916 203.074 79.6801C204.176 82.7541 204.03 85.5281 202.638 87.9261Z" fill="#25AF49"/>
<path fill-rule="evenodd" clip-rule="evenodd" d="M254.318 92.6016C254.318 89.9786 252.172 87.8446 249.536 87.8446H244.804C244.712 88.0416 244.655 88.2556 244.655 88.4856C244.655 88.8596 244.79 89.2006 245.025 89.4706H249.536C251.272 89.4706 252.683 90.8756 252.683 92.6016C252.683 93.1756 252.516 93.7066 252.244 94.1696L253.616 95.0466C254.052 94.3306 254.318 93.4986 254.318 92.6016Z" fill="#36393E"/>
<path fill-rule="evenodd" clip-rule="evenodd" d="M308.234 163.678V186.392C308.234 188.315 309.383 189.966 311.026 190.719V186.713C310.629 186.253 310.379 185.661 310.379 185.007V165.128C310.379 164.474 310.629 163.883 311.026 163.423V159.352C309.383 160.105 308.234 161.755 308.234 163.678ZM288.429 65.086V75.847H286.523V64.482C286.079 64.309 285.66 64.128 285.296 63.928V75.847H283.273C283.296 75.933 283.316 76.021 283.316 76.111H290.281V67.619C290.281 67.092 290.707 66.666 291.234 66.666C291.761 66.666 292.187 67.092 292.187 67.619V76.111H294.492V66.013C292.307 65.853 290.211 65.547 288.429 65.086Z" fill="#E7AA6C"/>
<path fill-rule="evenodd" clip-rule="evenodd" d="M303.349 151.39C302.822 151.39 302.395 150.964 302.395 150.437V138.059C302.395 137.532 302.822 137.106 303.349 137.106C303.876 137.106 304.302 137.532 304.302 138.059V150.437C304.302 150.964 303.876 151.39 303.349 151.39ZM296.875 165.676C296.349 165.676 295.922 165.249 295.922 164.723V138.059C295.922 137.532 296.349 137.106 296.875 137.106C297.402 137.106 297.828 137.532 297.828 138.059V164.723C297.828 165.249 297.402 165.676 296.875 165.676ZM301.73 137.519C301.463 137.519 301.464 137.106 301.73 137.106C301.996 137.106 301.996 137.519 301.73 137.519ZM308.234 144.248C308.234 144.775 307.808 145.201 307.281 145.201C306.754 145.201 306.328 144.775 306.328 144.248V138.059C306.328 137.532 306.754 137.106 307.281 137.106C307.808 137.106 308.234 137.532 308.234 138.059V144.248ZM285.296 136.015V197.503H289.488V145.155C289.488 144.628 289.914 144.202 290.441 144.202C290.968 144.202 291.394 144.628 291.394 145.155V197.503H295.922V171.667C295.922 171.14 296.349 170.714 296.875 170.714C297.402 170.714 297.828 171.14 297.828 171.667V197.503H302.395V181.833C302.395 181.306 302.822 180.88 303.349 180.88C303.876 180.88 304.302 181.306 304.302 181.833V197.503H307.963C308.769 196.572 309.824 195.863 311.027 195.49V192.766C308.308 191.923 306.328 189.385 306.328 186.392V163.678C306.328 160.686 308.308 158.147 311.027 157.304V154.5C307.177 155.398 304.302 158.846 304.302 162.957V176.028C304.302 176.555 303.876 176.981 303.349 176.981C302.822 176.981 302.395 176.555 302.395 176.028V162.957C302.395 157.787 306.12 153.475 311.027 152.549V145.921C310.503 144.833 310.201 143.619 310.201 142.332V138.059C310.201 137.577 310.563 137.196 311.027 137.132V136.015H285.296Z" fill="#E7AA6C"/>
<path d="M56.5 129.5C62.5 131 50 150.5 39.5 148C29.5 150.5 23.4454 138.953 22.5 129.5C22 124.5 7 101.5 39 114C46.5 113.5 58 119 56.5 129.5Z" fill="#46965B"/>
<path d="M61.5 80C64.5 88.5 51.5 99.5 44.5 98.5C31.5 100 26 82 24.5 74C24.5 67.3726 29.4249 62 35.5 62C41.5751 62 61 66.5 61.5 80Z" fill="#25AF49"/>
<path d="M356.5 163.5C365 152 356.075 175.5 350 175.5C343.925 175.5 331.5 177 332 163C323.5 136 338 147.055 344 148C350.075 148 366 155.5 356.5 163.5Z" fill="#25AF49"/>
<path fill-rule="evenodd" clip-rule="evenodd" d="M300.829 111.002H302.735V101.124H300.829V111.002Z" fill="#A6723E"/>
<path fill-rule="evenodd" clip-rule="evenodd" d="M308.602 101.124H306.696C306.982 104.727 308.265 108.12 310.4 111.002H311.026V108.521C309.673 106.28 308.836 103.768 308.602 101.124ZM306.62 71.4322V75.8472H308.526V71.4322V64.9162C307.999 65.0682 307.443 65.2122 306.826 65.3422C306.756 65.3562 306.689 65.3432 306.62 65.3432V71.4322ZM286.46 104.63C285.933 104.63 285.507 105.056 285.507 105.584C285.507 106.11 285.933 106.537 286.46 106.537C287.861 106.537 289.002 107.676 289.002 109.078V111.002H290.908V109.078C290.908 106.626 288.913 104.63 286.46 104.63ZM293.133 105.107V109.238C293.133 109.765 293.559 110.191 294.086 110.191C294.613 110.191 295.039 109.765 295.039 109.238V105.107C295.039 103.484 294.439 102.002 293.453 100.859H290.488C290.453 100.873 290.418 100.884 290.383 100.897C291.999 101.613 293.133 103.228 293.133 105.107ZM286.251 101.124H285.295V101.829C285.578 101.55 285.904 101.323 286.251 101.124ZM294.545 75.8467H296.398V66.1147C295.759 66.0927 295.123 66.0587 294.491 66.0127V76.1107H294.569C294.553 76.0477 294.53 75.9877 294.53 75.9197C294.53 75.8937 294.543 75.8717 294.545 75.8467ZM292.187 67.6192C292.187 67.0922 291.76 66.6662 291.233 66.6662C290.707 66.6662 290.28 67.0922 290.28 67.6192V76.1112H292.187V67.6192ZM286.522 75.8467H288.428V65.0857C287.739 64.9087 287.101 64.7057 286.522 64.4817V75.8467Z" fill="#A6723E"/>
<path fill-rule="evenodd" clip-rule="evenodd" d="M300.83 74.0797C300.83 74.6067 301.256 75.0337 301.783 75.0337C302.31 75.0337 302.736 74.6067 302.736 74.0797V64.7237L305.641 64.4547C305.595 63.9557 305.913 63.4907 306.414 63.3847C309.934 62.6447 311.027 61.6467 311.027 61.3667C311.027 60.5597 306.518 58.5857 298.161 58.5857C289.804 58.5857 285.296 60.5597 285.296 61.3667C285.296 62.1737 289.804 64.1487 298.161 64.1487C298.681 64.1487 299.094 64.5497 299.143 65.0577L300.83 64.9007V74.0797ZM291.394 145.155C291.394 144.628 290.968 144.202 290.441 144.202C289.914 144.202 289.488 144.628 289.488 145.155V197.503H291.394V145.155ZM297.828 171.668C297.828 171.141 297.402 170.714 296.875 170.714C296.348 170.714 295.922 171.141 295.922 171.668V197.503H297.828V171.668ZM297.828 138.06C297.828 137.533 297.402 137.106 296.875 137.106C296.348 137.106 295.922 137.533 295.922 138.06V164.723C295.922 165.25 296.348 165.676 296.875 165.676C297.402 165.676 297.828 165.25 297.828 164.723V138.06ZM302.395 162.958V176.028C302.395 176.555 302.822 176.981 303.349 176.981C303.875 176.981 304.302 176.555 304.302 176.028V162.958C304.302 158.846 307.177 155.399 311.026 154.5V152.549C306.12 153.476 302.395 157.788 302.395 162.958ZM304.302 181.833C304.302 181.306 303.876 180.88 303.349 180.88C302.822 180.88 302.395 181.306 302.395 181.833V197.503H304.302V181.833Z" fill="#A6723E"/>
<path fill-rule="evenodd" clip-rule="evenodd" d="M306.328 163.678V186.392C306.328 189.385 308.307 191.923 311.026 192.766V190.719C309.383 189.966 308.233 188.315 308.233 186.392V163.678C308.233 161.755 309.383 160.105 311.026 159.352V157.303C308.307 158.147 306.328 160.686 306.328 163.678ZM307.962 197.503H311.026V195.49C309.823 195.863 308.768 196.572 307.962 197.503Z" fill="#A6723E"/>
<path fill-rule="evenodd" clip-rule="evenodd" d="M310.379 185.007C310.379 185.661 310.629 186.253 311.026 186.713V163.423C310.629 163.883 310.379 164.475 310.379 165.129V185.007ZM304.302 138.06C304.302 137.533 303.876 137.106 303.349 137.106C302.822 137.106 302.395 137.533 302.395 138.06V150.437C302.395 150.964 302.822 151.391 303.349 151.391C303.876 151.391 304.302 150.964 304.302 150.437V138.06ZM308.234 138.06C308.234 137.533 307.808 137.106 307.281 137.106C306.754 137.106 306.328 137.533 306.328 138.06V144.248C306.328 144.775 306.754 145.202 307.281 145.202C307.808 145.202 308.234 144.775 308.234 144.248V138.06ZM310.2 138.06V142.332C310.2 143.619 310.502 144.833 311.026 145.922V137.132C310.562 137.197 310.2 137.578 310.2 138.06Z" fill="#A6723E"/>
<path fill-rule="evenodd" clip-rule="evenodd" d="M301.729 137.106C301.463 137.106 301.462 137.52 301.729 137.52C301.995 137.52 301.996 137.106 301.729 137.106Z" fill="#D5DBED"/>
<path fill-rule="evenodd" clip-rule="evenodd" d="M337.451 113.51C337.201 113.351 336.913 113.266 336.616 113.266H333.794L345.376 120.672C346.396 121.324 347.005 122.434 347.005 123.641C347.005 124.848 346.396 125.958 345.376 126.61L333.793 134.015H336.616C336.912 134.015 337.201 133.931 337.451 133.771L351.288 124.925C351.736 124.637 351.993 124.17 351.993 123.641C351.993 123.112 351.736 122.644 351.288 122.357L337.451 113.51ZM280.823 79.172H303.944C304.395 79.172 304.761 79.535 304.761 79.985C304.761 80.434 304.395 80.798 303.944 80.798H280.823C280.371 80.798 280.006 80.434 280.006 79.985C280.006 79.535 280.371 79.172 280.823 79.172ZM262.099 87.845H265.384C265.441 87.845 265.494 87.86 265.552 87.861C265.608 87.86 265.661 87.845 265.719 87.845H269.003C271.639 87.845 273.785 89.979 273.785 92.602C273.785 95.224 271.639 97.359 269.003 97.359H265.719C265.661 97.359 265.608 97.344 265.552 97.342C265.494 97.344 265.441 97.359 265.384 97.359H262.099C259.463 97.359 257.317 95.224 257.317 92.602C257.317 89.979 259.463 87.845 262.099 87.845ZM277.017 87.845H279.977C280.429 87.845 280.795 88.209 280.795 88.658C280.795 89.107 280.429 89.471 279.977 89.471H277.017C276.565 89.471 276.199 89.107 276.199 88.658C276.199 88.209 276.565 87.845 277.017 87.845ZM266.388 78.111H260.034C259.737 78.111 259.448 78.195 259.198 78.355L257.921 79.172H272.112C272.564 79.172 272.929 79.535 272.929 79.985C272.929 80.434 272.564 80.798 272.112 80.798H255.377L245.362 87.201C245.108 87.364 244.924 87.588 244.804 87.845H249.536C252.173 87.845 254.319 89.979 254.319 92.602C254.319 93.499 254.053 94.33 253.616 95.047L259.198 98.616C259.448 98.776 259.738 98.86 260.034 98.86H266.388H274.683C276.195 98.142 277.596 97.181 278.815 95.968C281.938 92.864 286.09 91.153 290.504 91.153H306.854H307.634H336.437V85.405H253.548C253.095 85.405 252.73 85.042 252.73 84.592C252.73 84.143 253.095 83.779 253.548 83.779H336.437V79.638C336.437 78.796 335.745 78.111 334.895 78.111H266.388Z" fill="#E7AA6C"/>
<path fill-rule="evenodd" clip-rule="evenodd" d="M307.633 92.7795H306.854C302.875 92.7795 299.133 94.3215 296.32 97.1185C295.67 97.7655 294.965 98.3365 294.232 98.8605H334.895C335.745 98.8605 336.436 98.1745 336.436 97.3325V97.1195H306.451C305.999 97.1195 305.634 96.7565 305.634 96.3065C305.634 95.8575 305.999 95.4935 306.451 95.4935H336.436V92.7795H307.633ZM262.099 95.7326H262.145C261.402 94.8936 260.935 93.8056 260.935 92.6016C260.935 91.3986 261.402 90.3096 262.145 89.4706H262.099C260.363 89.4706 258.952 90.8756 258.952 92.6016C258.952 94.3276 260.363 95.7326 262.099 95.7326ZM265.551 95.7155C267.207 95.6275 268.532 94.2705 268.532 92.6015C268.532 90.9325 267.207 89.5765 265.551 89.4875C263.894 89.5765 262.57 90.9325 262.57 92.6015C262.57 94.2705 263.894 95.6275 265.551 95.7155ZM269.003 95.7326C270.739 95.7326 272.15 94.3276 272.15 92.6016C272.15 90.8756 270.739 89.4706 269.003 89.4706H268.957C269.7 90.3096 270.167 91.3986 270.167 92.6016C270.167 93.8056 269.7 94.8936 268.957 95.7326H269.003ZM299.711 92.7795H290.503C286.524 92.7795 282.784 94.3215 279.97 97.1185C279.321 97.7635 278.624 98.3415 277.89 98.8605H291.032C292.544 98.1425 293.945 97.1815 295.164 95.9685C296.507 94.6335 298.048 93.5735 299.711 92.7795Z" fill="#E7AA6C"/>
<path fill-rule="evenodd" clip-rule="evenodd" d="M306.854 91.1535H307.633H336.436V92.7795H307.633H306.854C302.875 92.7795 299.133 94.3205 296.32 97.1185C295.67 97.7655 294.965 98.3365 294.232 98.8605H291.032C292.544 98.1425 293.945 97.1815 295.164 95.9685C296.508 94.6335 298.049 93.5735 299.711 92.7795H290.504C286.525 92.7795 282.784 94.3205 279.97 97.1185C279.321 97.7635 278.624 98.3415 277.89 98.8605H274.683C276.195 98.1425 277.595 97.1815 278.814 95.9685C281.938 92.8635 286.089 91.1535 290.504 91.1535H306.854ZM252.729 84.5925C252.729 84.1435 253.095 83.7795 253.547 83.7795H336.436V85.4055H253.547C253.095 85.4055 252.729 85.0425 252.729 84.5925ZM262.145 89.4709H262.099C260.363 89.4709 258.952 90.8759 258.952 92.6019C258.952 94.3279 260.363 95.7329 262.099 95.7329H262.145C261.402 94.8939 260.935 93.8049 260.935 92.6019C260.935 91.3979 261.402 90.3099 262.145 89.4709ZM268.532 92.6019C268.532 90.9329 267.207 89.5759 265.551 89.4879C263.894 89.5759 262.57 90.9329 262.57 92.6019C262.57 94.2709 263.894 95.6269 265.551 95.7159C267.207 95.6269 268.532 94.2709 268.532 92.6019ZM269.003 89.4709H268.956C269.7 90.3099 270.167 91.3979 270.167 92.6019C270.167 93.8049 269.7 94.8939 268.956 95.7329H269.003C270.739 95.7329 272.15 94.3279 272.15 92.6019C272.15 90.8759 270.739 89.4709 269.003 89.4709ZM265.383 97.3589H262.099C259.463 97.3589 257.317 95.2239 257.317 92.6019C257.317 89.9789 259.463 87.8449 262.099 87.8449H265.383C265.414 87.8449 265.444 87.8492 265.473 87.8535C265.499 87.8572 265.525 87.861 265.551 87.8619C265.577 87.861 265.603 87.8572 265.629 87.8535C265.658 87.8492 265.688 87.8449 265.719 87.8449H269.003C271.639 87.8449 273.785 89.9789 273.785 92.6019C273.785 95.2239 271.639 97.3589 269.003 97.3589H265.719C265.688 97.3589 265.658 97.3546 265.629 97.3503C265.603 97.3465 265.577 97.3428 265.551 97.3419C265.525 97.3428 265.499 97.3465 265.473 97.3503C265.444 97.3546 265.414 97.3589 265.383 97.3589ZM303.944 80.798H280.823C280.371 80.798 280.006 80.434 280.006 79.985C280.006 79.535 280.371 79.172 280.823 79.172H303.944C304.395 79.172 304.761 79.535 304.761 79.985C304.761 80.434 304.395 80.798 303.944 80.798ZM272.929 79.985C272.929 80.434 272.564 80.798 272.112 80.798H255.377L257.921 79.172H272.112C272.564 79.172 272.929 79.535 272.929 79.985ZM311.026 75.8468H313.148C313.163 75.9378 313.188 76.0258 313.22 76.1108H294.57C294.566 76.0959 294.562 76.0811 294.558 76.0664C294.544 76.019 294.531 75.9717 294.531 75.9198C294.531 75.9056 294.534 75.8925 294.538 75.8795C294.541 75.8688 294.544 75.8581 294.545 75.8468H296.398V66.1148C296.986 66.1348 297.575 66.1488 298.161 66.1488C298.713 66.1488 299.161 65.7008 299.161 65.1488C299.161 65.1311 299.156 65.1146 299.151 65.0982C299.147 65.0849 299.143 65.0716 299.142 65.0578L300.83 64.9008V74.0798C300.83 74.6068 301.256 75.0338 301.783 75.0338C302.31 75.0338 302.736 74.6068 302.736 74.0798V64.7238L305.64 64.4538C305.642 64.471 305.64 64.4878 305.639 64.5046C305.638 64.5259 305.636 64.547 305.641 64.5688C305.74 65.0398 306.158 65.3418 306.62 65.3438V75.8468H308.526V64.9168C309.53 64.6288 310.358 64.2998 311.026 63.9358V75.8468Z" fill="#36393E"/>
<path fill-rule="evenodd" clip-rule="evenodd" d="M306.854 91.1535H307.633H336.436V92.7795H307.633H306.854C302.875 92.7795 299.133 94.3205 296.32 97.1185C295.67 97.7655 294.965 98.3365 294.232 98.8605H291.032C292.544 98.1425 293.945 97.1815 295.164 95.9685C296.508 94.6335 298.049 93.5735 299.711 92.7795H290.504C286.525 92.7795 282.784 94.3205 279.97 97.1185C279.321 97.7635 278.624 98.3415 277.89 98.8605H274.683C276.195 98.1425 277.595 97.1815 278.814 95.9685C281.938 92.8635 286.089 91.1535 290.504 91.1535H306.854ZM252.729 84.5925C252.729 84.1435 253.095 83.7795 253.547 83.7795H336.436V85.4055H253.547C253.095 85.4055 252.729 85.0425 252.729 84.5925ZM262.145 89.4709H262.099C260.363 89.4709 258.952 90.8759 258.952 92.6019C258.952 94.3279 260.363 95.7329 262.099 95.7329H262.145C261.402 94.8939 260.935 93.8049 260.935 92.6019C260.935 91.3979 261.402 90.3099 262.145 89.4709ZM268.532 92.6019C268.532 90.9329 267.207 89.5759 265.551 89.4879C263.894 89.5759 262.57 90.9329 262.57 92.6019C262.57 94.2709 263.894 95.6269 265.551 95.7159C267.207 95.6269 268.532 94.2709 268.532 92.6019ZM269.003 89.4709H268.956C269.7 90.3099 270.167 91.3979 270.167 92.6019C270.167 93.8049 269.7 94.8939 268.956 95.7329H269.003C270.739 95.7329 272.15 94.3279 272.15 92.6019C272.15 90.8759 270.739 89.4709 269.003 89.4709ZM265.383 97.3589H262.099C259.463 97.3589 257.317 95.2239 257.317 92.6019C257.317 89.9789 259.463 87.8449 262.099 87.8449H265.383C265.414 87.8449 265.444 87.8492 265.473 87.8535C265.499 87.8572 265.525 87.861 265.551 87.8619C265.577 87.861 265.603 87.8572 265.629 87.8535C265.658 87.8492 265.688 87.8449 265.719 87.8449H269.003C271.639 87.8449 273.785 89.9789 273.785 92.6019C273.785 95.2239 271.639 97.3589 269.003 97.3589H265.719C265.688 97.3589 265.658 97.3546 265.629 97.3503C265.603 97.3465 265.577 97.3428 265.551 97.3419C265.525 97.3428 265.499 97.3465 265.473 97.3503C265.444 97.3546 265.414 97.3589 265.383 97.3589ZM303.944 80.798H280.823C280.371 80.798 280.006 80.434 280.006 79.985C280.006 79.535 280.371 79.172 280.823 79.172H303.944C304.395 79.172 304.761 79.535 304.761 79.985C304.761 80.434 304.395 80.798 303.944 80.798ZM272.929 79.985C272.929 80.434 272.564 80.798 272.112 80.798H255.377L257.921 79.172H272.112C272.564 79.172 272.929 79.535 272.929 79.985ZM311.026 75.8468H313.148C313.163 75.9378 313.188 76.0258 313.22 76.1108H294.57C294.566 76.0959 294.562 76.0811 294.558 76.0664C294.544 76.019 294.531 75.9717 294.531 75.9198C294.531 75.9056 294.534 75.8925 294.538 75.8795C294.541 75.8688 294.544 75.8581 294.545 75.8468H296.398V66.1148C296.986 66.1348 297.575 66.1488 298.161 66.1488C298.713 66.1488 299.161 65.7008 299.161 65.1488C299.161 65.1311 299.156 65.1146 299.151 65.0982C299.147 65.0849 299.143 65.0716 299.142 65.0578L300.83 64.9008V74.0798C300.83 74.6068 301.256 75.0338 301.783 75.0338C302.31 75.0338 302.736 74.6068 302.736 74.0798V64.7238L305.64 64.4538C305.642 64.471 305.64 64.4878 305.639 64.5046C305.638 64.5259 305.636 64.547 305.641 64.5688C305.74 65.0398 306.158 65.3418 306.62 65.3438V75.8468H308.526V64.9168C309.53 64.6288 310.358 64.2998 311.026 63.9358V75.8468Z" fill="#A6723E"/>
<path fill-rule="evenodd" clip-rule="evenodd" d="M300.83 111.002H302.736V101.124H300.83V111.002ZM290.908 111.002H289.001V109.079C289.001 107.676 287.861 106.537 286.46 106.537C285.933 106.537 285.507 106.111 285.507 105.584C285.507 105.057 285.933 104.63 286.46 104.63C288.913 104.63 290.908 106.627 290.908 109.079V111.002ZM311.026 108.521V101.124H311.612C311.624 101.035 311.646 100.947 311.675 100.86H293.453C294.438 102.002 295.039 103.484 295.039 105.107V109.239C295.039 109.766 294.613 110.192 294.086 110.192C293.559 110.192 293.133 109.766 293.133 109.239V105.107C293.133 103.228 291.998 101.614 290.382 100.898C290.4 100.892 290.417 100.885 290.435 100.879C290.453 100.873 290.471 100.867 290.488 100.86H282.791C282.823 100.945 282.846 101.033 282.86 101.124H286.251C285.905 101.322 285.578 101.549 285.295 101.828V111.002H284.081C284.103 111.089 284.117 111.177 284.122 111.266H311.386C311.392 111.177 311.405 111.089 311.427 111.002H310.4C308.265 108.119 306.982 104.727 306.696 101.124H308.602C308.836 103.768 309.673 106.279 311.026 108.521Z" fill="#A6723E"/>
<path fill-rule="evenodd" clip-rule="evenodd" d="M300.83 111.002H302.736V101.124H300.83V111.002ZM290.908 111.002H289.001V109.079C289.001 107.676 287.861 106.537 286.46 106.537C285.933 106.537 285.507 106.111 285.507 105.584C285.507 105.057 285.933 104.63 286.46 104.63C288.913 104.63 290.908 106.627 290.908 109.079V111.002ZM311.026 108.521V101.124H311.612C311.624 101.035 311.646 100.947 311.675 100.86H293.453C294.438 102.002 295.039 103.484 295.039 105.107V109.239C295.039 109.766 294.613 110.192 294.086 110.192C293.559 110.192 293.133 109.766 293.133 109.239V105.107C293.133 103.228 291.998 101.614 290.382 100.898C290.4 100.892 290.417 100.885 290.435 100.879C290.453 100.873 290.471 100.867 290.488 100.86H282.791C282.823 100.945 282.846 101.033 282.86 101.124H286.251C285.905 101.322 285.578 101.549 285.295 101.828V111.002H284.081C284.103 111.089 284.117 111.177 284.122 111.266H311.386C311.392 111.177 311.405 111.089 311.427 111.002H310.4C308.265 108.119 306.982 104.727 306.696 101.124H308.602C308.836 103.768 309.673 106.279 311.026 108.521Z" fill="#E7AA6C"/>
<path d="M313.148 75.8468H311.026V63.9358C310.358 64.2998 309.53 64.6288 308.526 64.9168V75.8468H306.62V65.3438C306.158 65.3418 305.74 65.0398 305.641 64.5688C305.637 64.547 305.638 64.5259 305.639 64.5046C305.641 64.4878 305.642 64.471 305.64 64.4538L302.736 64.7238V74.0798C302.736 74.6068 302.31 75.0338 301.783 75.0338C301.256 75.0338 300.83 74.6068 300.83 74.0798V64.9008L299.142 65.0578C299.143 65.0716 299.147 65.0849 299.151 65.0982C299.156 65.1146 299.161 65.1311 299.161 65.1488C299.161 65.7008 298.713 66.1488 298.161 66.1488C297.575 66.1488 296.986 66.1348 296.398 66.1148V75.8468H294.545C294.544 75.8581 294.541 75.8688 294.538 75.8795C294.535 75.8925 294.531 75.9056 294.531 75.9198C294.531 75.9717 294.544 76.019 294.558 76.0664C294.562 76.0811 294.566 76.0959 294.57 76.1108H313.22C313.188 76.0258 313.163 75.9378 313.148 75.8468Z" fill="#A6723E"/>
<path d="M313.148 75.8468H311.026V63.9358C310.358 64.2998 309.53 64.6288 308.526 64.9168V75.8468H306.62V65.3438C306.158 65.3418 305.74 65.0398 305.641 64.5688C305.637 64.547 305.638 64.5259 305.639 64.5046C305.641 64.4878 305.642 64.471 305.64 64.4538L302.736 64.7238V74.0798C302.736 74.6068 302.31 75.0338 301.783 75.0338C301.256 75.0338 300.83 74.6068 300.83 74.0798V64.9008L299.142 65.0578C299.143 65.0716 299.147 65.0849 299.151 65.0982C299.156 65.1146 299.161 65.1311 299.161 65.1488C299.161 65.7008 298.713 66.1488 298.161 66.1488C297.575 66.1488 296.986 66.1348 296.398 66.1148V75.8468H294.545C294.544 75.8581 294.541 75.8688 294.538 75.8795C294.535 75.8925 294.531 75.9056 294.531 75.9198C294.531 75.9717 294.544 76.019 294.558 76.0664C294.562 76.0811 294.566 76.0959 294.57 76.1108H313.22C313.188 76.0258 313.163 75.9378 313.148 75.8468Z" fill="#E7AA6C"/>
<path fill-rule="evenodd" clip-rule="evenodd" d="M306.452 95.4932C306 95.4932 305.635 95.8572 305.635 96.3062C305.635 96.7562 306 97.1192 306.452 97.1192H336.437V95.4932H306.452ZM277.016 89.4708H279.976C280.428 89.4708 280.794 89.1068 280.794 88.6578C280.794 88.2088 280.428 87.8448 279.976 87.8448H277.016C276.564 87.8448 276.199 88.2088 276.199 88.6578C276.199 89.1068 276.564 89.4708 277.016 89.4708Z" fill="#A6723E"/>
<path fill-rule="evenodd" clip-rule="evenodd" d="M286.313 117.981C285.861 117.981 285.496 117.617 285.496 117.168C285.496 116.718 285.861 116.355 286.313 116.355H303.864C304.315 116.355 304.681 116.718 304.681 117.168C304.681 117.617 304.315 117.981 303.864 117.981H286.313ZM319.271 120.42C319.724 120.42 320.089 120.784 320.089 121.233C320.089 121.683 319.724 122.046 319.271 122.046H296.151C295.699 122.046 295.334 121.683 295.334 121.233C295.334 120.784 295.699 120.42 296.151 120.42H319.271ZM295.306 129.093C295.757 129.093 296.123 129.457 296.123 129.906C296.123 130.356 295.757 130.719 295.306 130.719H292.345C291.894 130.719 291.528 130.356 291.528 129.906C291.528 129.457 291.894 129.093 292.345 129.093H295.306ZM264.865 129.093C267.501 129.093 269.647 131.228 269.647 133.85C269.647 133.907 269.632 133.959 269.63 134.015H272.662C272.66 133.959 272.646 133.907 272.646 133.85C272.646 131.228 274.792 129.093 277.427 129.093H280.712C280.769 129.093 280.823 129.108 280.879 129.11C280.937 129.108 280.99 129.093 281.047 129.093H284.332C286.968 129.093 289.113 131.228 289.113 133.85C289.113 133.907 289.099 133.959 289.097 134.015H298.717C300.913 132.971 303.326 132.402 305.833 132.402H322.182H322.961H332.604L341.593 126.654H268.876C268.424 126.654 268.058 126.29 268.058 125.841C268.058 125.392 268.424 125.028 268.876 125.028H344.137L344.298 124.924C344.747 124.637 345.004 124.169 345.004 123.641C345.004 123.111 344.747 122.644 344.298 122.356L337.455 117.981H310.677C310.225 117.981 309.859 117.617 309.859 117.168C309.859 116.718 310.225 116.355 310.677 116.355H334.911L330.461 113.51C330.212 113.351 329.923 113.266 329.626 113.266H261.753H254.765C253.915 113.266 253.223 113.952 253.223 114.794V116.355H280.706C281.157 116.355 281.523 116.718 281.523 117.168C281.523 117.617 281.157 117.981 280.706 117.981H253.223V120.42H287.44C287.892 120.42 288.258 120.784 288.258 121.233C288.258 121.683 287.892 122.046 287.44 122.046H253.223V125.028H263.107C263.559 125.028 263.924 125.392 263.924 125.841C263.924 126.29 263.559 126.654 263.107 126.654H253.223V129.093H264.865Z" fill="#E7AA6C"/>
<path fill-rule="evenodd" clip-rule="evenodd" d="M254.765 134.015H261.754H267.995C267.998 133.959 268.012 133.907 268.012 133.85C268.012 132.124 266.6 130.719 264.865 130.719H253.223V132.487C253.223 133.329 253.915 134.015 254.765 134.015ZM277.474 130.719H277.427C275.692 130.719 274.28 132.124 274.28 133.85C274.28 133.907 274.294 133.959 274.297 134.015H276.279C276.277 133.959 276.264 133.906 276.264 133.85C276.264 132.646 276.73 131.558 277.474 130.719ZM284.332 130.719H284.285C285.029 131.558 285.496 132.646 285.496 133.85C285.496 133.906 285.482 133.959 285.48 134.015H287.462C287.465 133.959 287.479 133.907 287.479 133.85C287.479 132.124 286.067 130.719 284.332 130.719ZM280.88 130.736C279.224 130.825 277.899 132.181 277.899 133.85C277.899 133.906 277.912 133.96 277.915 134.015H283.845C283.848 133.96 283.861 133.906 283.861 133.85C283.861 132.181 282.536 130.825 280.88 130.736Z" fill="#E7AA6C"/>
<path fill-rule="evenodd" clip-rule="evenodd" d="M311.867 136.015C311.754 136.104 311.635 136.186 311.524 136.279H313.027H314.307C314.453 136.188 314.601 136.1 314.75 136.015H311.867ZM322.962 132.402H322.183H305.833C303.327 132.402 300.914 132.971 298.717 134.015H329.626C329.923 134.015 330.212 133.931 330.462 133.771L332.604 132.402H322.962ZM264.865 130.719C266.6 130.719 268.012 132.124 268.012 133.85C268.012 133.907 267.998 133.959 267.995 134.015H269.63C269.632 133.959 269.647 133.907 269.647 133.85C269.647 131.227 267.501 129.093 264.865 129.093H253.223V130.719H264.865ZM263.107 126.654C263.559 126.654 263.924 126.29 263.924 125.841C263.924 125.392 263.559 125.028 263.107 125.028H253.223V126.654H263.107ZM268.876 125.028C268.424 125.028 268.059 125.392 268.059 125.841C268.059 126.29 268.424 126.654 268.876 126.654H341.594L344.137 125.028H268.876ZM283.295 136.279H284.802C284.854 136.196 284.889 136.102 284.935 136.015H282.973C282.879 136.112 282.773 136.196 282.668 136.279H283.295ZM284.332 129.093H281.047C280.99 129.093 280.937 129.108 280.88 129.11C280.823 129.108 280.769 129.093 280.712 129.093H277.428C274.792 129.093 272.646 131.228 272.646 133.85C272.646 133.907 272.661 133.959 272.663 134.015H274.298C274.294 133.96 274.281 133.907 274.281 133.85C274.281 132.124 275.692 130.719 277.428 130.719H277.475C276.73 131.558 276.264 132.647 276.264 133.85C276.264 133.906 276.278 133.959 276.28 134.015H277.915C277.912 133.96 277.899 133.906 277.899 133.85C277.899 132.181 279.224 130.825 280.88 130.736C282.536 130.825 283.861 132.181 283.861 133.85C283.861 133.906 283.848 133.96 283.845 134.015H285.48C285.482 133.959 285.496 133.906 285.496 133.85C285.496 132.647 285.029 131.558 284.285 130.719H284.332C286.067 130.719 287.479 132.124 287.479 133.85C287.479 133.907 287.465 133.96 287.462 134.015H289.097C289.099 133.959 289.114 133.907 289.114 133.85C289.114 131.228 286.968 129.093 284.332 129.093ZM296.152 120.42C295.7 120.42 295.334 120.784 295.334 121.233C295.334 121.683 295.7 122.046 296.152 122.046H319.272C319.724 122.046 320.089 121.683 320.089 121.233C320.089 120.784 319.724 120.42 319.272 120.42H296.152ZM287.441 122.046C287.893 122.046 288.258 121.683 288.258 121.233C288.258 120.784 287.893 120.42 287.441 120.42H253.224V122.046H287.441ZM280.706 117.981C281.158 117.981 281.523 117.617 281.523 117.168C281.523 116.718 281.158 116.355 280.706 116.355H253.224V117.981H280.706ZM303.864 117.981C304.316 117.981 304.681 117.617 304.681 117.168C304.681 116.718 304.316 116.355 303.864 116.355H286.313C285.861 116.355 285.496 116.718 285.496 117.168C285.496 117.617 285.861 117.981 286.313 117.981H303.864ZM310.677 116.355C310.225 116.355 309.86 116.719 309.86 117.168C309.86 117.618 310.225 117.981 310.677 117.981H337.455L334.911 116.355H310.677ZM291.528 129.906C291.528 130.355 291.894 130.719 292.345 130.719H295.306C295.757 130.719 296.123 130.355 296.123 129.906C296.123 129.456 295.757 129.093 295.306 129.093H292.345C291.894 129.093 291.528 129.456 291.528 129.906ZM340.796 99.356H337.796V77.11H340.796C342.453 77.11 343.796 78.453 343.796 80.11V96.356C343.796 98.013 342.453 99.356 340.796 99.356Z" fill="#A6723E"/>
<path fill-rule="evenodd" clip-rule="evenodd" d="M107.324 54.547L108.102 57.817C108.211 58.276 108.621 58.585 109.074 58.585C109.15 58.585 109.228 58.576 109.305 58.558H109.306C109.843 58.43 110.175 57.891 110.047 57.354L109.269 54.084C109.142 53.547 108.602 53.212 108.065 53.343C107.528 53.47 107.196 54.01 107.324 54.547Z" fill="#202225"/>
<path fill-rule="evenodd" clip-rule="evenodd" d="M356.207 197.503L338.49 197.462C338.49 194.825 340.635 192.68 343.272 192.68H351.466C354.103 192.68 356.248 194.825 356.248 197.462C356.248 197.484 356.229 197.503 356.207 197.503ZM336.491 197.474L329.791 197.446V196.306C329.791 193.284 332.249 190.826 335.27 190.826H338.441C339.19 190.826 339.905 190.979 340.556 191.252C338.165 192.302 336.49 194.689 336.49 197.462C336.49 197.466 336.491 197.47 336.491 197.474ZM315.053 197.503C313.933 197.503 313.026 196.596 313.026 195.476V160.139L321.915 197.503H315.053ZM311.026 194.503C311.026 196.16 309.683 197.503 308.026 197.503H288.295C286.638 197.503 285.295 196.16 285.295 194.503V140.017C285.295 138.912 286.19 138.017 287.295 138.017H309.026C310.13 138.017 311.026 138.912 311.026 140.017V194.503ZM277.915 134.015H276.279H274.297H272.662H269.63H267.995H261.753H254.765C253.915 134.015 253.223 133.33 253.223 132.487V130.719V129.093V126.654V125.028V122.046V120.42V117.981V116.355V114.794C253.223 113.952 253.915 113.266 254.765 113.266H261.753H329.625C329.923 113.266 330.212 113.351 330.461 113.51L334.911 116.355L337.455 117.981L344.298 122.357C344.747 122.644 345.004 123.111 345.004 123.641C345.004 124.17 344.747 124.637 344.298 124.924L344.137 125.028L341.593 126.654L332.603 132.402L330.462 133.771C330.211 133.931 329.922 134.015 329.625 134.015H298.717H289.097H287.462H285.479H283.844H277.915ZM283.295 195.476C283.295 196.707 282.197 197.682 280.928 197.476C279.931 197.314 279.241 196.377 279.241 195.367V194.164C279.241 193.611 278.793 193.164 278.241 193.164C277.689 193.164 277.241 193.611 277.241 194.164V195.476C277.241 196.596 276.333 197.503 275.214 197.503H251.582V196.526C251.582 192.756 248.525 189.699 244.754 189.699H243.062L255.834 136.015H278.295C281.056 136.015 283.295 138.254 283.295 141.015V195.476ZM249.582 197.503L237.075 197.553V196.526C237.075 193.864 239.24 191.699 241.901 191.699H244.754C247.416 191.699 249.582 193.864 249.582 196.526V197.503ZM264.043 100.86H266.387H280.295C281.952 100.86 283.295 102.203 283.295 103.86V111.266H261.753H261.739L264.043 100.86ZM311.026 104.86V111.266H285.295V104.86C285.295 102.651 287.086 100.86 289.295 100.86H307.026C309.235 100.86 311.026 102.651 311.026 104.86ZM260.034 98.8601C259.737 98.8601 259.448 98.775 259.198 98.6161L253.616 95.0471L252.244 94.1701L245.361 89.7691C245.23 89.6851 245.121 89.5821 245.024 89.4711C244.79 89.2001 244.655 88.8601 244.655 88.4851C244.655 88.2561 244.712 88.0421 244.804 87.8451C244.923 87.5881 245.107 87.3641 245.361 87.201L255.376 80.798L257.92 79.1721L259.198 78.3551C259.447 78.1951 259.736 78.1111 260.034 78.1111H266.387H334.895C335.745 78.1111 336.436 78.7961 336.436 79.6381V83.7791V85.4051V91.1531V92.7791V95.493V97.1201V97.3321C336.436 98.1741 335.745 98.8601 334.895 98.8601H294.232H291.032H277.89H274.683H266.387H260.034ZM270.673 73.6481L280.587 31.9751C280.832 30.9501 282.29 30.9501 282.533 31.9751L288.629 57.5971C285.497 58.3761 283.295 59.6141 283.295 61.3671V73.1111C283.295 74.7681 281.952 76.1111 280.295 76.1111H272.619C271.327 76.1111 270.374 74.9051 270.673 73.6481ZM298.16 58.5861C306.518 58.5861 311.026 60.5601 311.026 61.3671C311.026 61.647 309.933 62.645 306.414 63.385C305.912 63.49 305.594 63.9561 305.64 64.4541C305.643 64.4931 305.632 64.5301 305.641 64.5691C305.74 65.0401 306.157 65.3421 306.619 65.3431C306.688 65.3431 306.755 65.3571 306.825 65.3421C307.442 65.2121 307.999 65.0681 308.526 64.9171C309.53 64.6281 310.357 64.3 311.026 63.9361V72.1091C311.026 73.2141 310.13 74.1091 309.026 74.1091H287.295C286.19 74.1091 285.295 73.2141 285.295 72.1091V63.9281C285.659 64.1281 286.079 64.3091 286.522 64.4821C287.101 64.7061 287.739 64.9081 288.428 65.0861C290.21 65.5471 292.307 65.8531 294.491 66.0131C295.123 66.0591 295.759 66.0931 296.398 66.1141C296.986 66.1351 297.575 66.1491 298.16 66.1491C298.712 66.1491 299.16 65.7011 299.16 65.1491C299.16 65.1161 299.144 65.0891 299.142 65.0581C299.093 64.5501 298.68 64.1491 298.16 64.1491C289.803 64.1491 285.295 62.174 285.295 61.3671C285.295 60.5601 289.803 58.5861 298.16 58.5861ZM338.072 78.1111H341.248C342.098 78.1111 342.79 78.7961 342.79 79.6381V97.3321C342.79 98.1741 342.098 98.8601 341.248 98.8601H338.072C338.298 98.3961 338.436 97.8821 338.436 97.3321V79.6381C338.436 79.0891 338.298 78.5751 338.072 78.1111ZM336.615 113.266C336.912 113.266 337.201 113.351 337.45 113.51L351.287 122.357C351.735 122.644 351.993 123.111 351.993 123.641C351.993 124.17 351.735 124.637 351.287 124.924L337.45 133.771C337.201 133.931 336.912 134.015 336.615 134.015H333.792L345.375 126.609C346.395 125.958 347.004 124.848 347.004 123.641C347.004 122.434 346.395 121.324 345.375 120.672L333.793 113.266H336.615ZM196.178 197.503H196.048C194.661 197.503 193.695 196.125 194.168 194.821L194.71 193.327C194.898 192.808 194.63 192.234 194.111 192.046C193.594 191.861 193.019 192.127 192.83 192.646L191.547 196.185C191.26 196.976 190.509 197.503 189.666 197.503H186.94C187.3 196.813 187.523 196.041 187.523 195.21V185.78C187.523 185.056 187.911 184.38 188.55 184.04C190.953 182.76 192.893 180.729 194.076 178.267C194.092 178.232 194.109 178.198 194.125 178.164C194.243 177.914 194.353 177.661 194.455 177.403C194.481 177.336 194.503 177.268 194.529 177.2C194.67 176.821 194.793 176.435 194.898 176.04C194.945 175.864 194.995 175.69 195.034 175.512C195.07 175.349 195.098 175.185 195.127 175.021C195.17 174.789 195.205 174.557 195.234 174.322C195.251 174.187 195.269 174.052 195.281 173.916C195.315 173.537 195.339 173.155 195.339 172.77V157.974C195.339 155.765 197.13 153.974 199.339 153.974H205.106C207.37 153.974 209.532 153.556 211.547 152.826L202.015 192.892C201.372 195.595 198.957 197.503 196.178 197.503ZM185.523 183.827V195.21C185.523 196.867 184.18 198.21 182.523 198.21H179.944C178.287 198.21 176.944 196.867 176.944 195.21V185.524C176.944 184.42 176.048 183.524 174.944 183.524H163.027C161.922 183.524 161.027 184.42 161.027 185.524V195.21C161.027 196.867 159.684 198.21 158.027 198.21H155.447C153.791 198.21 152.447 196.867 152.447 195.21V184.524C152.447 183.958 151.979 183.528 151.413 183.524C148.739 183.506 146.57 181.325 146.57 178.647V164.541C146.57 163.989 146.122 163.541 145.57 163.541C145.018 163.541 144.57 163.989 144.57 164.541V178.647C144.57 180.553 145.352 182.277 146.608 183.524H101.123C99.4664 183.524 98.1234 184.867 98.1234 186.524V195.21C98.1234 196.867 96.7804 198.21 95.1234 198.21H92.5434C90.8874 198.21 89.5434 196.867 89.5434 195.21V145.847C89.5434 136.662 96.9904 129.215 106.176 129.215H112.704C113.588 129.215 114.407 129.623 114.995 130.283C116.609 132.096 118.872 133.318 121.415 133.585V134.974C121.415 145.468 129.921 153.974 140.415 153.974H145.57H191.339C192.443 153.974 193.339 154.87 193.339 155.974V172.77C193.339 177.273 190.477 181.33 186.215 182.875C185.807 183.023 185.523 183.393 185.523 183.827ZM162.444 197.503C162.804 196.813 163.027 196.041 163.027 195.21V187.524C163.027 186.42 163.922 185.524 165.027 185.524H172.944C174.048 185.524 174.944 186.42 174.944 187.524V195.21C174.944 196.041 175.167 196.813 175.527 197.503H162.444ZM142.476 193.66L140.541 185.524H148.447C149.552 185.524 150.447 186.42 150.447 187.524V195.21C150.447 196.041 150.67 196.813 151.03 197.503H147.34C145.025 197.503 143.012 195.913 142.476 193.66ZM131.395 197.503C131.754 196.813 131.978 196.041 131.978 195.21V187.524C131.978 186.42 132.873 185.524 133.978 185.524H138.485L141.335 197.503H131.395ZM129.978 195.21C129.978 196.867 128.634 198.21 126.978 198.21H124.398C122.741 198.21 121.398 196.867 121.398 195.21V186.524C121.398 185.972 121.846 185.524 122.398 185.524H128.978C129.53 185.524 129.978 185.972 129.978 186.524V195.21ZM99.5404 197.503C99.9004 196.813 100.123 196.041 100.123 195.21V188.524C100.123 186.867 101.466 185.524 103.123 185.524H117.398C118.502 185.524 119.398 186.42 119.398 187.524V195.21C119.398 196.041 119.621 196.813 119.981 197.503H99.5404ZM114.463 109.241C114.463 104.822 118.045 101.241 122.463 101.241H137.063C137.616 101.241 138.063 100.793 138.063 100.241C138.063 99.689 137.616 99.2411 137.063 99.2411H132.523H125.955C124.634 99.2411 123.672 97.9811 124.02 96.7071C125.985 89.4941 132.587 84.1741 140.415 84.1741H144.567H159.183C159.194 84.4401 159.232 84.7091 159.334 84.9751C159.598 85.6721 160.105 86.1411 160.601 86.562C167.568 92.472 176.404 95.9911 186.154 96.7381C186.699 96.7801 187.252 96.8001 187.81 96.8001C189.896 96.8001 192.05 96.5101 194.127 95.9451C196.906 95.188 199.391 93.9701 201.312 92.4211C201.742 92.0751 201.809 91.4451 201.462 91.0151C201.454 91.0051 201.441 91.0011 201.433 90.9911C201.082 90.5871 200.476 90.5251 200.057 90.8641C198.349 92.2411 196.117 93.3301 193.602 94.0151C191.187 94.673 188.665 94.9251 186.307 94.7441C176.98 94.0291 168.539 90.6731 161.895 85.0361C161.585 84.7741 161.299 84.5171 161.204 84.2651C161.04 83.8351 161.428 83.2391 161.894 82.9531C162.504 82.5771 163.309 82.4631 164.161 82.3431L164.368 82.3141C165.594 82.1381 166.829 81.9021 168.037 81.6101C171.565 80.7601 174.954 79.4371 178.111 77.6761C179.061 77.1471 179.997 76.5731 180.901 76.0181C182.645 74.9491 184.292 73.9391 186.087 73.1771C189.426 71.7581 193.472 71.8091 196.909 73.312L196.978 73.3431C199.972 74.6631 199.964 78.882 196.987 80.2411C193.91 81.646 190.584 82.6441 187.093 83.1861C186.547 83.271 186.174 83.7821 186.258 84.3281C186.335 84.8221 186.761 85.1741 187.245 85.1741C187.296 85.1741 187.348 85.1701 187.4 85.1631C193.083 84.2801 198.356 82.243 202.894 79.2521C202.903 79.2551 202.906 79.2561 202.916 79.2591C204.187 82.5011 204.093 85.4191 202.638 87.9261C202.37 88.3861 202.52 88.965 202.958 89.2551C202.974 89.2661 202.983 89.2831 203 89.2931C203.478 89.5701 204.09 89.4081 204.367 88.9301C204.648 88.4461 204.888 87.9461 205.086 87.4331C205.854 85.4431 207.939 84.2951 209.982 84.9081C216.986 87.0051 222.106 93.4961 222.106 101.174V102.774C222.106 103.878 221.21 104.774 220.106 104.774H205.154C204.602 104.774 204.154 105.222 204.154 105.774C204.154 106.326 204.602 106.774 205.154 106.774H223.6C227.024 106.774 229.8 109.55 229.8 112.974V120.774C229.8 130.163 222.188 137.774 212.8 137.774H196.153H193.6C184.211 137.774 176.6 130.163 176.6 120.774V112.974C176.6 109.55 179.375 106.774 182.8 106.774H187.565H193.6C194.152 106.774 194.6 106.326 194.6 105.774C194.6 105.222 194.152 104.774 193.6 104.774H182.8C178.271 104.774 174.6 108.445 174.6 112.974V120.774C174.6 131.268 183.106 139.774 193.6 139.774H212.8C215.387 139.774 217.853 139.253 220.103 138.312C220.895 137.98 221.698 138.689 221.468 139.516C219.477 146.69 212.905 151.974 205.106 151.974H144.568H140.415C135.34 151.974 130.785 149.751 127.67 146.226C123.676 141.705 126.441 134.525 132.409 133.642L132.415 133.641H137.063C137.616 133.641 138.063 133.193 138.063 132.641C138.063 132.088 137.616 131.641 137.063 131.641H122.463C118.045 131.641 114.463 128.059 114.463 123.641V109.241ZM63.5014 197.503H63.2764V190.503V180.503V174.523V161.322C63.4204 161.367 63.5604 161.421 63.7074 161.46C64.5244 161.674 65.3534 161.777 66.1764 161.777H66.2464C69.1664 161.756 71.3864 164.36 70.7104 167.201L63.5014 197.503ZM59.1454 155.37C58.1424 153.31 58.0884 150.921 58.9974 148.818C60.2374 145.949 63.1024 144.083 66.2074 144.083C66.3314 144.083 66.4564 144.086 66.5804 144.092L79.4874 144.715H79.4884C79.8954 144.734 80.0774 145.021 80.1374 145.143C80.1964 145.265 80.3094 145.585 80.0744 145.918L72.6094 156.466C70.7324 159.12 67.3564 160.348 64.2144 159.525C61.9974 158.945 60.1494 157.43 59.1454 155.37ZM44.4794 197.503H36.6304C35.3384 197.503 34.3864 196.297 34.6854 195.04L39.5824 174.457C39.8264 173.432 41.2844 173.432 41.5274 174.457L46.4254 195.04C46.7244 196.297 45.7714 197.503 44.4794 197.503ZM43.7574 127.4C43.3674 127.01 42.7344 127.01 42.3444 127.401C41.9534 127.792 41.9544 128.425 42.3444 128.815C45.9454 132.417 49.0624 136.372 51.6774 140.598C52.1074 141.294 51.9904 142.199 51.4124 142.778L51.4004 142.791C44.9084 149.282 34.3444 149.283 27.8524 142.791C22.4654 137.404 20.5164 118.953 19.9864 112.45C19.9364 111.834 20.4444 111.327 21.0594 111.377C27.5624 111.905 46.0114 113.854 51.4004 119.242C56.1804 124.022 57.4344 131.006 55.1734 136.949C54.6454 138.34 52.7634 138.539 51.9294 137.305C49.5534 133.787 46.8264 130.469 43.7574 127.4ZM58.1904 90.9181C57.3874 92.2261 55.4934 92.205 54.7394 90.8671C51.7924 85.633 48.1214 80.7641 43.7574 76.4001C43.3674 76.0101 42.7344 76.0101 42.3444 76.4011C41.9534 76.7921 41.9544 77.4251 42.3444 77.8151C45.7574 81.2281 48.7344 84.9591 51.2574 88.937C53.6034 92.635 51.3744 97.5011 47.0414 98.1381C42.0144 98.8761 36.7144 97.3191 32.8524 93.4571C29.3854 89.9901 27.3424 81.1131 26.1854 73.4921C25.2734 67.4891 30.4584 62.334 36.4614 63.246C44.0764 64.403 53.1034 66.286 56.4004 69.909C64.0574 78.327 60.7574 86.7401 58.1904 90.9181ZM72.0614 87.6371C77.1474 82.5511 93.8824 80.5291 101.208 79.8741C102.449 79.7631 103.484 80.7981 103.373 82.0401C102.718 89.3651 100.696 106.099 95.6104 111.185C92.4654 114.33 88.2834 116.062 83.8364 116.062C80.9214 116.062 78.1244 115.313 75.6574 113.911C73.6724 112.783 73.1044 110.145 74.3884 108.258C76.4874 105.172 78.8674 102.248 81.5184 99.5171C81.8984 99.1251 81.8994 98.5041 81.5134 98.118C81.1184 97.7241 80.4714 97.7251 80.0824 98.1251C78.1214 100.147 76.3044 102.272 74.6354 104.488C72.5994 107.19 68.2744 106.232 67.5654 102.923C66.4204 97.581 67.9184 91.7801 72.0614 87.6371ZM354.89 166.062C353.319 163.853 351.576 161.745 349.662 159.759C349.274 159.357 348.624 159.357 348.229 159.752V159.753C347.844 160.138 347.846 160.756 348.224 161.149C349.888 162.875 351.88 166.118 353.263 168.544C354.384 170.508 353.658 173.021 351.65 174.064C346.579 176.699 340.168 175.891 335.918 171.641C331.935 167.658 330.263 154.806 329.67 148.534C329.552 147.283 330.596 146.239 331.847 146.357C338.119 146.948 350.969 148.619 354.954 152.604C358.442 156.092 359.603 161.031 358.451 165.493C358.031 167.12 355.864 167.431 354.89 166.062ZM368.915 135.341C368.99 131.182 370.61 127.047 373.778 123.879C378.863 118.794 395.592 116.772 402.919 116.117C404.163 116.005 405.2 117.042 405.088 118.286C404.434 125.613 402.413 142.34 397.326 147.428C392.314 152.439 384.881 153.577 378.765 150.851C375.852 149.552 374.837 145.93 376.689 143.333C378.584 140.675 380.693 138.144 383.007 135.76C383.388 135.368 383.389 134.747 383.002 134.361V134.36C382.607 133.966 381.96 133.967 381.572 134.367C380.236 135.744 378.968 137.169 377.769 138.638C374.768 142.311 368.83 140.083 368.915 135.341ZM368.339 159.51C370.005 154.724 375.156 151.93 379.992 153.445C381.798 154.011 383.674 154.296 385.552 154.296C390.328 154.296 395.104 152.478 398.74 148.842C405.823 141.759 407.293 115.999 407.352 114.906C407.367 114.622 407.261 114.345 407.061 114.145C406.86 113.943 406.579 113.84 406.299 113.853C405.207 113.912 379.446 115.383 372.364 122.465C366.572 128.257 365.405 136.935 368.844 143.901C370.177 146.603 370.343 149.73 369.06 152.456C364.946 161.201 362.767 170.813 362.767 180.765V182.253C361.784 178.905 360.478 175.67 358.871 172.577C358.39 171.652 358.414 170.561 358.922 169.65C362.206 163.767 361.362 156.185 356.368 151.19C350.517 145.339 329.346 144.131 328.448 144.082C328.168 144.069 327.888 144.173 327.687 144.374C327.486 144.574 327.38 144.851 327.395 145.135C327.444 146.033 328.653 167.204 334.504 173.055C337.518 176.069 341.477 177.576 345.436 177.576C348.288 177.576 351.139 176.794 353.637 175.231C355.172 174.27 357.199 174.938 357.882 176.614C359.635 180.912 362.335 188.155 362.767 192.923V194.893C362.767 196.334 361.598 197.503 360.157 197.503H358.244C358.244 197.489 358.248 197.476 358.248 197.462C358.248 193.723 355.206 190.68 351.466 190.68H343.353C342.038 189.529 340.322 188.826 338.441 188.826H335.27C331.139 188.826 327.791 192.175 327.791 196.305V197.446C327.791 197.466 327.796 197.483 327.797 197.503H327.794C325.553 197.503 323.605 195.964 323.086 193.783L314.384 157.206C313.481 153.415 313.026 149.53 313.026 145.633V141.015C313.026 138.254 315.265 136.015 318.026 136.015H336.615C337.292 136.015 337.956 135.821 338.527 135.456L352.262 126.675C353.057 126.168 353.68 125.395 353.894 124.477C354.249 122.963 353.617 121.472 352.364 120.672L338.528 111.825C337.957 111.46 337.293 111.266 336.616 111.266H330.686C330.709 111.277 330.489 111.289 330.123 111.301C329.958 111.278 329.792 111.266 329.625 111.266H313.026V103.86C313.026 102.203 314.369 100.86 316.026 100.86H334.895C334.921 100.86 334.946 100.855 334.973 100.854C335.257 100.858 335.593 100.86 336.004 100.86H341.248C343.196 100.86 344.79 99.2661 344.79 97.3181V79.6381C344.79 77.6901 343.21 76.1111 341.262 76.1111H336.005C335.593 76.1111 335.259 76.113 334.98 76.1171C334.952 76.1161 334.924 76.1111 334.895 76.1111H316.026C314.369 76.1111 313.026 74.7681 313.026 73.1111V61.3671C313.026 58.0821 305.32 56.5861 298.16 56.5861C297.298 56.5861 296.428 56.6071 295.565 56.6521C292.659 56.8011 290.045 54.9071 289.371 52.076L282.533 23.3351C282.426 22.8841 282.023 22.5661 281.561 22.5661C281.098 22.5661 280.695 22.8841 280.588 23.3351L268.944 72.2761C268.513 74.0901 267.129 75.5861 265.31 75.9911C262.656 76.5811 260.149 74.9331 259.543 72.4251L245.981 16.2711C245.874 15.8201 245.472 15.5031 245.009 15.5031C244.546 15.5031 244.143 15.8201 244.036 16.2711L226.404 90.3791C226.276 90.9171 226.608 91.4561 227.145 91.5841C227.682 91.7131 228.222 91.3791 228.35 90.8421L242.09 33.0891C242.822 30.0161 247.196 30.0161 247.927 33.0891L258.271 76.5681L258.154 76.6511C258.144 76.6581 258.131 76.6631 258.121 76.6701L244.387 85.4501C243.593 85.9581 242.97 86.7291 242.754 87.6471C242.398 89.1601 243.031 90.6531 244.284 91.4541L258.121 100.301C258.138 100.312 258.157 100.317 258.172 100.333C258.583 100.756 259.228 100.859 259.818 100.859L261.988 100.86L260.378 108.131C259.973 109.962 258.349 111.266 256.473 111.266H254.765C254.088 111.266 253.462 111.466 252.924 111.795C251.908 112.416 251.223 113.523 251.223 114.794V132.487C251.223 134.103 252.324 135.453 253.813 135.87L240.991 189.768C237.657 190.215 235.075 193.071 235.075 196.526V197.503H202.973L213.84 151.83C219.628 148.818 223.664 142.918 224.051 136.049C228.74 132.586 231.8 127.037 231.8 120.774V112.974C231.8 108.624 228.391 105.064 224.106 104.8V104.36V101.174C224.106 91.7951 217.27 83.9991 208.321 82.4681C206.864 82.2191 205.629 81.1961 205.209 79.7781C205.134 79.5221 205.049 79.264 204.957 79.0051C204.843 78.6901 204.707 78.3861 204.569 78.0831C206.897 76.3531 209.004 74.3581 210.833 72.1191C211.182 71.6911 211.118 71.0611 210.69 70.7111C210.263 70.3621 209.632 70.426 209.283 70.854C208.511 71.799 207.687 72.7001 206.814 73.5521C205.325 75.0071 202.944 75.1811 201.382 73.8041C200.321 72.8681 199.088 72.0831 197.71 71.4801C193.779 69.7601 189.141 69.7061 185.305 71.3361C183.374 72.1561 181.585 73.2531 179.856 74.3131C178.957 74.8651 178.057 75.4171 177.137 75.9291C174.139 77.6021 170.919 78.8591 167.568 79.6661C166.421 79.9431 165.249 80.1681 164.084 80.3341L163.881 80.3631C162.911 80.5001 161.811 80.6551 160.845 81.2501C160.473 81.479 160.132 81.8011 159.851 82.1741H140.415C130.574 82.1741 122.46 89.6941 121.51 99.2891C121.022 99.3361 120.548 99.4251 120.083 99.5391L111.846 64.9171C111.717 64.3791 111.177 64.0471 110.642 64.1751C110.104 64.3031 109.772 64.8421 109.9 65.3791L118.188 100.214C114.81 101.821 112.463 105.257 112.463 109.241V123.641C112.463 123.795 112.467 123.949 112.474 124.101C112.555 125.801 111.186 127.215 109.483 127.215H106.176C95.8854 127.215 87.5434 135.557 87.5434 145.847V195.21C87.5434 196.041 87.7674 196.813 88.1264 197.503H65.5574L75.2544 156.742C75.3854 156.194 75.6194 155.676 75.9454 155.215L81.6264 147.187C82.0874 146.535 82.3234 145.722 82.1634 144.94C81.9024 143.662 80.8234 142.777 79.5844 142.717L77.5864 142.62L66.6774 142.094C66.3064 142.077 65.9374 142.081 65.5734 142.106C64.3584 142.189 63.3694 141.167 63.4534 139.952C64.1114 130.471 66.8104 121.395 71.3424 113.229C73.1334 114.852 75.1854 116.092 77.4004 116.908C80.1954 117.936 81.7094 120.973 81.0204 123.871L78.5824 134.118C78.4544 134.655 78.7864 135.195 79.3234 135.322C79.4004 135.341 79.4784 135.35 79.5554 135.35C80.0084 135.35 80.4184 135.041 80.5274 134.581L84.4644 118.031C89.2094 117.875 93.6514 115.973 97.0244 112.599C104.106 105.517 105.577 79.7561 105.636 78.6641C105.651 78.3801 105.545 78.1031 105.345 77.9021C105.144 77.7011 104.869 77.5921 104.583 77.6111C104.136 77.6351 99.5614 77.8961 93.8274 78.6801L102.473 42.3391C102.717 41.3151 104.175 41.3151 104.418 42.3391L105.666 47.579C105.793 48.116 106.332 48.4481 106.869 48.3201H106.87C107.407 48.1931 107.739 47.6531 107.611 47.1161L104.418 33.6991C104.312 33.2481 103.909 32.9301 103.446 32.9301C102.983 32.9301 102.58 33.2481 102.473 33.6991L93.2084 72.6411C92.3154 76.3961 89.3384 79.2961 85.5624 80.1021C79.4474 81.4081 73.5164 83.3551 70.6474 86.2231C63.6484 93.2231 63.4064 104.435 69.8814 111.751C66.9524 116.919 64.7224 122.442 63.2764 128.212V123.523C63.2764 116.106 60.1754 103.597 58.6454 97.8821C58.1724 96.1111 58.5464 94.232 59.6364 92.7561C65.0244 85.4621 64.4174 75.0991 57.8144 68.4951C50.7314 61.4131 24.9714 59.942 23.8784 59.883C23.5924 59.8661 23.3174 59.974 23.1174 60.174C22.9164 60.375 22.8104 60.6521 22.8254 60.9361C22.8844 62.028 24.3554 87.7891 31.4374 94.8711C35.0744 98.5071 39.8494 100.325 44.6254 100.325C46.8814 100.325 49.1344 99.9121 51.2674 99.0951C53.8294 98.1131 56.7294 99.4961 57.6384 102.085C60.0264 108.882 61.2764 116.105 61.2764 123.523V142.343C61.2764 142.974 60.9834 143.574 60.4704 143.941C60.0614 144.233 59.6734 144.557 59.3114 144.908C58.3274 145.866 56.7244 145.639 56.1024 144.413C55.9384 144.092 55.7734 143.772 55.6044 143.454C55.1114 142.521 55.1254 141.407 55.6634 140.499C59.8924 133.348 58.9534 123.967 52.8144 117.828C45.7314 110.746 19.9714 109.275 18.8784 109.216C18.5954 109.204 18.3184 109.306 18.1174 109.507C17.9164 109.708 17.8104 109.985 17.8254 110.269C17.8844 111.361 19.3554 137.122 26.4374 144.205C30.0744 147.841 34.8494 149.659 39.6254 149.659C44.4014 149.659 49.1784 147.84 52.8144 144.205C53.0214 143.997 53.2024 143.774 53.3984 143.559C54.4744 145.524 55.4474 147.54 56.3094 149.603C56.4514 149.942 56.4824 150.313 56.4354 150.676C56.1924 152.563 56.4964 154.498 57.3484 156.246C57.8684 157.315 58.5774 158.257 59.4174 159.057C60.6404 164.059 61.2764 169.242 61.2764 174.523V180.503V190.503V197.503H60.7544C59.7884 197.503 58.9594 196.812 58.7874 195.859L58.2334 192.808C58.1354 192.265 57.6134 191.904 57.0714 192.002C56.5284 192.101 56.1674 192.621 56.2664 193.165L56.6244 195.147C56.8474 196.374 55.9044 197.503 54.6574 197.503H52.2264C50.3744 197.503 48.7644 196.231 48.3344 194.429L41.5274 165.816C41.4204 165.365 41.0184 165.047 40.5554 165.047C40.0924 165.047 39.6894 165.365 39.5824 165.816L32.7744 194.429C32.3464 196.231 30.7364 197.503 28.8834 197.503H25.7924C25.1244 197.503 24.5834 196.961 24.5834 196.293V195.826C24.5834 195.274 24.1354 194.826 23.5834 194.826C23.0314 194.826 22.5834 195.274 22.5834 195.826V196.293C22.5834 196.961 22.0414 197.503 21.3734 197.503C20.7054 197.503 20.1644 196.961 20.1644 196.293V192.986C20.1644 192.434 19.7164 191.986 19.1644 191.986C18.6114 191.986 18.1644 192.434 18.1644 192.986V196.293C18.1644 196.961 17.6224 197.503 16.9544 197.503H0.99939C0.44739 197.503 -0.000610352 197.95 -0.000610352 198.503C-0.000610352 199.056 0.44739 199.503 0.99939 199.503H64.2914H288.31H323.181H329.847H338.531H343.864H356.207H388.816C389.369 199.503 389.816 199.056 389.816 198.503C389.816 197.95 389.369 197.503 388.816 197.503H376.549C375.76 197.503 375.175 196.769 375.353 196L375.724 194.389C375.848 193.851 375.512 193.314 374.974 193.19C374.438 193.067 373.899 193.4 373.775 193.94L373.173 196.551C373.044 197.108 372.548 197.503 371.977 197.503C371.299 197.503 370.749 196.953 370.749 196.275V192.982C370.749 192.429 370.302 191.982 369.749 191.982C369.197 191.982 368.749 192.429 368.749 192.982V196.275C368.749 196.953 368.2 197.503 367.522 197.503H367.519C366.126 197.503 364.988 196.408 364.917 195.017C364.88 194.295 364.83 193.576 364.767 192.86V180.765C364.767 173.414 365.993 166.253 368.339 159.51ZM394.979 197.503H393.345C392.793 197.503 392.345 197.95 392.345 198.503C392.345 199.056 392.793 199.503 393.345 199.503H394.979C395.531 199.503 395.979 199.056 395.979 198.503C395.979 197.95 395.531 197.503 394.979 197.503Z" fill="#202225"/>
<path fill-rule="evenodd" clip-rule="evenodd" d="M145.435 50.8511C144.909 49.5711 146.517 48.5031 147.573 49.3981C151.567 52.7871 155.908 53.6681 156.178 53.7191C156.24 53.7311 156.303 53.7361 156.365 53.7361C156.835 53.7361 157.253 53.4031 157.345 52.9241C157.449 52.3821 157.093 51.8591 156.552 51.7541C156.486 51.7421 151.619 50.7511 147.723 46.7991C147.06 46.1271 147.288 44.9641 148.169 44.6251C148.216 44.6071 148.264 44.5891 148.312 44.5731C148.878 44.3751 149.507 44.2791 150.167 44.2791C151.505 44.2791 152.971 44.6761 154.295 45.4311C156.525 46.7031 157.915 48.6431 159.387 50.6971C160.013 51.5711 160.661 52.4741 161.389 53.3471L161.508 53.4921C161.899 53.9661 162.815 55.0771 163.632 55.8381C159.654 57.0491 155.044 56.7791 150.651 55.0801C148.07 54.0811 146.182 52.5701 145.47 50.9341C145.458 50.9061 145.447 50.8781 145.435 50.8511ZM142.975 41.0341C142.464 41.2421 142.218 41.8261 142.427 42.3371C142.921 43.5481 143.512 44.6301 144.162 45.6041C143.98 45.9191 143.811 46.2471 143.669 46.6001C142.949 48.3981 142.937 50.1241 143.636 51.7311C144.9 54.6381 148.122 56.2451 149.93 56.9451C152.743 58.0341 155.647 58.5841 158.456 58.5841C160.446 58.5841 162.389 58.3081 164.215 57.7511C164.869 57.5521 165.364 57.0401 165.538 56.3821C165.711 55.7281 165.536 55.0431 165.07 54.5511C164.315 53.7521 163.397 52.6391 163.051 52.2191L162.925 52.0671V52.0661C162.244 51.2501 161.618 50.3771 161.013 49.5321C159.48 47.3931 157.896 45.1821 155.286 43.6931C152.785 42.2661 149.931 41.8901 147.653 42.6841C146.839 42.9681 146.122 43.3991 145.501 43.9511C145.051 43.2221 144.631 42.4451 144.279 41.5811C144.07 41.0701 143.488 40.8221 142.975 41.0341ZM210.495 16.2471C210.506 16.2431 210.514 16.2341 210.524 16.2291C211.023 16.0331 211.285 15.4801 211.104 14.9711C209.534 10.5291 209.401 5.91314 210.643 1.98614C211.464 2.81014 212.547 3.75814 213.009 4.16314L213.153 4.28914C214.004 5.04214 214.888 5.71614 215.742 6.36714C217.752 7.89914 219.651 9.34614 220.857 11.6141C221.925 13.6221 222.186 15.9241 221.538 17.6201L221.529 17.6431C221.163 18.5921 219.942 18.8081 219.241 18.0721C217.668 16.4231 216.605 14.6461 215.917 13.1481C215.686 12.6461 215.092 12.4261 214.591 12.6571C214.089 12.8881 213.869 13.4811 214.099 13.9831C214.797 15.5011 215.829 17.2821 217.331 18.9781C217.92 19.6441 217.45 20.7251 216.563 20.6621C215.831 20.6091 215.141 20.3631 214.48 19.9231C214.044 19.6321 213.474 19.7391 213.153 20.1401C213.135 20.1631 213.109 20.1761 213.093 20.2001C212.787 20.6601 212.911 21.2801 213.37 21.5871C214.448 22.3051 215.632 22.6671 216.874 22.6661C217.687 22.6661 218.525 22.5121 219.374 22.2001C219.734 22.0681 220.069 21.9071 220.391 21.7331C221.343 22.4141 222.404 23.0391 223.599 23.5681C223.73 23.6261 223.868 23.6541 224.003 23.6541C224.387 23.6541 224.752 23.4321 224.918 23.0591C225.141 22.5541 224.913 21.9631 224.408 21.7391C223.553 21.3611 222.795 20.9141 222.079 20.4431C222.647 19.8401 223.099 19.1371 223.406 18.3331C224.267 16.0801 223.975 13.2171 222.622 10.6741C221.211 8.02114 219.047 6.37214 216.954 4.77614C216.128 4.14714 215.275 3.49714 214.479 2.79214L214.327 2.65814C213.918 2.30014 212.833 1.35014 212.059 0.574137C211.58 0.094137 210.903 -0.103863 210.243 0.053137C209.58 0.207137 209.054 0.686137 208.835 1.33414C207.364 5.69614 207.5 10.7761 209.219 15.6381C209.403 16.1581 209.972 16.4331 210.495 16.2471ZM138.554 22.6705H140.064V24.1805C140.064 24.7325 140.512 25.1805 141.064 25.1805C141.617 25.1805 142.064 24.7325 142.064 24.1805V22.6705H143.574C144.126 22.6705 144.574 22.2225 144.574 21.6705C144.574 21.1185 144.126 20.6705 143.574 20.6705H142.064V19.1605C142.064 18.6085 141.617 18.1605 141.064 18.1605C140.512 18.1605 140.064 18.6085 140.064 19.1605V20.6705H138.554C138.002 20.6705 137.554 21.1185 137.554 21.6705C137.554 22.2225 138.002 22.6705 138.554 22.6705ZM204.225 53.7364H205.735V55.2464C205.735 55.7984 206.183 56.2464 206.735 56.2464C207.288 56.2464 207.735 55.7984 207.735 55.2464V53.7364H209.245C209.797 53.7364 210.245 53.2884 210.245 52.7364C210.245 52.1844 209.797 51.7364 209.245 51.7364H207.735V50.2264C207.735 49.6744 207.288 49.2264 206.735 49.2264C206.183 49.2264 205.735 49.6744 205.735 50.2264V51.7364H204.225C203.673 51.7364 203.225 52.1844 203.225 52.7364C203.225 53.2884 203.673 53.7364 204.225 53.7364ZM347.668 34.9312H349.178V36.4412C349.178 36.9932 349.626 37.4412 350.178 37.4412C350.73 37.4412 351.178 36.9932 351.178 36.4412V34.9312H352.688C353.24 34.9312 353.688 34.4832 353.688 33.9312C353.688 33.3792 353.24 32.9312 352.688 32.9312H351.178V31.4212C351.178 30.8692 350.73 30.4212 350.178 30.4212C349.626 30.4212 349.178 30.8692 349.178 31.4212V32.9312H347.668C347.116 32.9312 346.668 33.3792 346.668 33.9312C346.668 34.4832 347.116 34.9312 347.668 34.9312ZM182.885 26.3638C183.141 26.3638 183.397 26.2658 183.592 26.0708L184.775 24.8868C185.166 24.4968 185.166 23.8638 184.775 23.4728C184.385 23.0828 183.751 23.0828 183.361 23.4728L182.178 24.6568C181.787 25.0478 181.787 25.6808 182.178 26.0708C182.373 26.2658 182.629 26.3638 182.885 26.3638ZM176.968 32.2799C177.224 32.2799 177.48 32.1819 177.675 31.9869L178.859 30.8039C179.249 30.4139 179.249 29.7799 178.859 29.3899C178.468 28.9989 177.835 28.9989 177.445 29.3899L176.261 30.5729C175.87 30.9629 175.87 31.5959 176.261 31.9869C176.456 32.1819 176.712 32.2799 176.968 32.2799ZM183.361 31.9869C183.556 32.1819 183.812 32.2799 184.068 32.2799C184.324 32.2799 184.58 32.1819 184.775 31.9869C185.166 31.5959 185.166 30.9639 184.775 30.5729L183.592 29.3899C183.201 28.9989 182.569 28.9989 182.178 29.3899C181.787 29.7799 181.787 30.4129 182.178 30.8039L183.361 31.9869ZM177.445 26.0709C177.64 26.2659 177.896 26.3639 178.152 26.3639C178.408 26.3639 178.664 26.2659 178.859 26.0709C179.25 25.6799 179.25 25.0479 178.859 24.6569L177.675 23.4729C177.285 23.0829 176.652 23.0829 176.261 23.4729C175.871 23.8639 175.871 24.4969 176.261 24.8869L177.445 26.0709ZM161.799 120.441C164.274 120.441 166.299 118.416 166.299 115.941C166.299 113.466 164.274 111.441 161.799 111.441C159.324 111.441 157.299 113.466 157.299 115.941C157.299 118.416 159.324 120.441 161.799 120.441Z" fill="#202225"/>
</g>
<defs>
<clipPath id="clip0">
<rect width="415" height="200" fill="white"/>
</clipPath>
</defs>
</svg>
