<svg width="421" height="218" viewBox="0 0 421 218" fill="none" xmlns="http://www.w3.org/2000/svg">
<g clip-path="url(#clip0)">
<path fill-rule="evenodd" clip-rule="evenodd" d="M-123 146.639C-123 156.075 -115.351 163.724 -105.915 163.724H-76.465C-59.959 163.724 -46.579 177.105 -46.579 193.612C-46.579 210.118 -33.197 223.499 -16.691 223.499H248.873C254.495 223.499 259.053 218.941 259.053 213.319V213.318C259.053 207.696 254.495 203.138 248.873 203.138H217.712C213.752 203.138 210.542 199.928 210.542 195.968V195.963C210.542 192.003 213.752 188.793 217.712 188.793H242.921C269.387 188.793 290.841 167.339 290.841 140.873C290.841 114.408 269.387 92.9532 242.921 92.9532H191.52C180.491 92.9532 171.55 84.0132 171.55 72.9832V72.9822C171.55 61.9532 162.609 53.0122 151.58 53.0122H-43.85C-51.112 53.0122 -57 58.9002 -57 66.1622V66.1682C-57 73.4312 -51.112 79.3182 -43.85 79.3182H-29.2C-15.328 79.3182 -4.083 90.5632 -4.083 104.435V104.436C-4.083 118.308 -15.328 129.554 -29.2 129.554H-105.915C-115.351 129.554 -123 137.203 -123 146.639" fill="#4F545C" fill-opacity="0.3"/>
<path fill-rule="evenodd" clip-rule="evenodd" d="M-5.42715 213H9.98486C9.97886 212.874 9.95486 212.75 9.95486 212.623V169.191C9.95486 163.157 16.2019 157.672 26.7839 153.322V152.57C26.7839 147.056 31.2699 142.57 36.7839 142.57H39.4359C39.6359 139.72 40.4539 137.042 41.7779 134.674V115.788C41.6169 116.125 41.2799 116.361 40.8819 116.361C40.3289 116.361 39.8819 115.914 39.8819 115.361V45.9996H-20.7751V51.1296C-17.8451 51.5696 -15.2771 53.2466 -13.7191 55.8646C-11.8741 58.9676 -11.8311 62.6986 -13.6051 65.8426C-13.7801 66.1526 -14.1051 66.3456 -14.4601 66.3516C-14.5161 66.3526 -14.5721 66.3526 -14.6281 66.3526C-16.9201 66.3526 -19.0551 65.5856 -20.7751 64.2236V213H-11.4251C-11.0981 213 -10.8231 213.167 -10.6401 213.408H-6.21214C-6.02914 213.167 -5.75315 213 -5.42715 213Z" fill="#885C3F"/>
<path fill-rule="evenodd" clip-rule="evenodd" d="M248.354 162.394C249.501 161.549 251.086 161.498 252.815 162.246C254.672 163.049 256.805 164.94 257.101 166.863C257.434 169.024 256.411 171.404 254.496 172.925C253.352 173.833 252.036 174.305 250.75 174.306C250.105 174.306 249.468 174.186 248.864 173.944C247.759 173.5 247.033 172.143 246.764 170.018C246.463 167.636 246.76 163.565 248.354 162.394ZM242.028 180.054C241.607 180.574 240.922 180.756 240.191 180.756C239.239 180.756 238.208 180.448 237.576 180.176C235.739 179.384 235.585 178.367 235.657 177.832V177.831C235.774 176.964 236.36 176.34 237.264 176.117C238.708 175.766 241.044 176.524 241.808 177.6C242.704 178.865 242.331 179.681 242.028 180.054ZM235.42 181.166C239.884 183.612 247.41 182.34 252.864 178.132C255.111 176.397 260.11 171.646 257.994 165.004C256.836 161.371 254.173 158.111 250.494 155.823C247.835 154.171 244.976 153.301 242.333 153.301C241.433 153.301 240.559 153.402 239.726 153.607C238.096 154.008 236.66 154.791 235.42 155.928V158.359C235.585 158.291 235.754 158.234 235.93 158.194C236.808 157.995 237.767 158.163 238.634 158.671V158.672C240.133 159.553 240.933 161.14 240.625 162.62C240.331 164.037 238.863 166.071 237.606 166.804C236.874 167.231 236.24 167.38 235.713 167.38C235.608 167.38 235.516 167.364 235.42 167.353V181.166Z" fill="#B0B8C7"/>
<path fill-rule="evenodd" clip-rule="evenodd" d="M248.748 169.767C248.964 171.474 249.442 172.021 249.608 172.088C250.759 172.549 252.086 172.283 253.251 171.359C254.593 170.293 255.346 168.608 255.124 167.167C254.985 166.265 253.705 164.81 252.021 164.082C251.71 163.948 251.105 163.725 250.506 163.725C250.162 163.725 249.82 163.799 249.538 164.006C249.062 164.355 248.401 167.028 248.748 169.767ZM236.599 165.077C237.351 164.638 238.492 163.059 238.668 162.213C238.814 161.511 238.252 160.767 237.621 160.396C237.302 160.209 236.973 160.112 236.669 160.112C236.569 160.112 236.471 160.122 236.377 160.143C235.984 160.234 235.669 160.502 235.42 160.848V165.298C235.688 165.448 236.081 165.379 236.599 165.077Z" fill="#CAD5EB"/>
<path fill-rule="evenodd" clip-rule="evenodd" d="M240.183 178.766C240.181 178.763 240.179 178.76 240.176 178.757C240.032 178.568 239.251 178.154 238.414 178.048C238.13 178.013 237.93 178.023 237.8 178.046C238.304 178.405 239.495 178.758 240.183 178.766Z" fill="#4F545C"/>
<path fill-rule="evenodd" clip-rule="evenodd" d="M208.024 136.379C211.049 138.35 212.732 141.68 212.526 145.285C212.506 145.639 212.299 145.956 211.983 146.118C210.536 146.858 208.984 147.225 207.44 147.225C205.555 147.225 203.681 146.678 202.018 145.594C201 144.931 200.149 144.104 199.456 143.174V186.063C199.456 186.615 199.008 187.063 198.456 187.063C198.273 187.063 198.11 187 197.962 186.914V195.977C201.198 195.977 203.83 198.608 203.83 201.843V205.297C203.83 206.286 203.025 207.09 202.036 207.09H200.98C201.466 209.021 201.714 211.001 201.731 213H233.42V196.61C231.558 196.254 229.862 195.507 229.237 194.051C228.809 193.054 229.022 192.376 229.275 191.983C229.962 190.919 231.527 190.889 232.909 190.862C233.082 190.859 233.254 190.855 233.42 190.849V104.528C231.821 107.004 229.414 108.882 226.466 109.805C225.172 110.21 223.856 110.408 222.557 110.408C219.374 110.408 216.289 109.218 213.851 106.96C213.59 106.719 213.476 106.358 213.553 106.011C214.469 101.857 217.265 98.5545 221.118 96.9345C220.441 95.4775 220.108 93.8555 220.205 92.1655C220.226 91.8115 220.432 91.4945 220.749 91.3325C223.963 89.6875 227.689 89.8845 230.713 91.8565C231.799 92.5645 232.705 93.4525 233.42 94.4605V64.5905H199.456V135.276C202.318 134.312 205.429 134.687 208.024 136.379Z" fill="#603C1C"/>
<path fill-rule="evenodd" clip-rule="evenodd" d="M199.738 213C199.72 210.996 199.429 209.017 198.898 207.09H197.026C196.496 209.016 196.205 210.995 196.187 213H199.738Z" fill="#7A7A73"/>
<path fill-rule="evenodd" clip-rule="evenodd" d="M201.83 205.09V201.843C201.83 199.711 200.095 197.976 197.963 197.976C195.83 197.976 194.096 199.711 194.096 201.843V205.09H201.83Z" fill="#B1361B"/>
<path fill-rule="evenodd" clip-rule="evenodd" d="M-15.078 64.3404C-13.941 61.9434 -14.064 59.1974 -15.439 56.8874C-16.813 54.5764 -19.167 53.1574 -21.815 53.0124C-22.953 55.4094 -22.829 58.1544 -21.454 60.4654C-20.08 62.7764 -17.726 64.1954 -15.078 64.3404ZM274.72 110.977C275.592 113.52 277.605 115.392 280.168 116.077C281.772 113.963 282.214 111.251 281.342 108.707C280.47 106.164 278.457 104.293 275.894 103.608C274.29 105.721 273.848 108.434 274.72 110.977Z" fill="#21A147"/>
<path fill-rule="evenodd" clip-rule="evenodd" d="M223.023 96.2779C226.425 95.4199 229.92 95.9609 232.845 97.7559C232.302 96.0489 231.196 94.5569 229.622 93.5309C227.37 92.0639 224.631 91.8259 222.19 92.8649C222.207 94.0779 222.503 95.2339 223.023 96.2779ZM203.11 143.918C205.363 145.387 208.102 145.623 210.542 144.585C210.506 141.932 209.185 139.522 206.932 138.054C204.68 136.586 201.942 136.349 199.5 137.388C199.537 140.04 200.858 142.45 203.11 143.918ZM145.92 85.9532C146.4 87.5212 147.558 88.7192 149.074 89.2492C150.033 87.9612 150.322 86.3202 149.842 84.7522C149.363 83.1842 148.205 81.9872 146.689 81.4562C145.729 82.7452 145.44 84.3862 145.92 85.9532ZM-59.1327 155.005C-56.5687 155.683 -53.8917 155.06 -51.8707 153.286C-49.8507 151.512 -48.8867 148.939 -49.2287 146.308C-51.7947 145.629 -54.4697 146.252 -56.4897 148.026C-58.5097 149.8 -59.4747 152.374 -59.1327 155.005Z" fill="#46965B"/>
<path fill-rule="evenodd" clip-rule="evenodd" d="M235.395 59.5396C236.541 63.0806 239.334 65.7346 242.968 66.6966C246.602 67.6546 250.343 66.7326 253.091 64.2236C251.945 60.6826 249.151 58.0276 245.518 57.0666C241.884 56.1036 238.143 57.0276 235.395 59.5396Z" fill="#46965B"/>
<path fill-rule="evenodd" clip-rule="evenodd" d="M222.892 98.3883C226.481 97.2663 230.259 98.0233 233.116 100.408C232.129 103.996 229.456 106.772 225.869 107.895C222.282 109.019 218.503 108.262 215.645 105.876C216.633 102.287 219.305 99.5123 222.892 98.3883Z" fill="#25AF49"/>
<path d="M173 172C173 188.016 136.959 201 92.5 201C48.0411 201 11.5 186.516 11.5 170.5C11.5 154.484 48.0411 143 92.5 143C136.959 143 173 155.984 173 172Z" fill="#BA966B"/>
<path fill-rule="evenodd" clip-rule="evenodd" d="M249.114 185.662C248.427 189.239 245.417 193.764 239.191 194.743C236.72 195.132 231.762 194.865 231.075 193.262C231.036 193.171 231.015 193.104 231.003 193.057C231.368 192.892 232.42 192.872 232.946 192.862L232.973 192.861C233.557 192.849 234.108 192.838 234.557 192.745C236.118 192.423 239.905 191.44 241.337 189.287C241.643 188.827 241.518 188.207 241.058 187.901C240.598 187.597 239.978 187.721 239.671 188.18C238.999 189.191 237.202 189.976 235.42 190.474V183.4C237.042 184.087 238.902 184.421 240.87 184.421C243.483 184.421 246.284 183.821 248.967 182.686C249.18 183.001 249.429 184.022 249.114 185.662Z" fill="#AFB8C7"/>
<path fill-rule="evenodd" clip-rule="evenodd" d="M121.772 218C120.666 218 119.61 217.785 118.636 217.408V220.538C118.636 226.212 116.427 231.545 112.414 235.558C112.408 235.564 112.403 235.571 112.397 235.577C116.477 235.234 120.433 234.793 124.241 234.265V217.639C123.457 217.871 122.63 218 121.772 218Z" fill="#36393E"/>
<path fill-rule="evenodd" clip-rule="evenodd" d="M116.553 220.538V216.251C116.436 216.164 116.317 216.08 116.205 215.988C115.219 217.885 113.969 219.654 112.414 221.207C108.792 224.831 106.799 229.643 106.799 234.761V235.982C107.678 235.929 108.551 235.869 109.421 235.807C109.895 235.213 110.392 234.635 110.937 234.09C114.559 230.467 116.553 225.655 116.553 220.538ZM59.8521 220.017V217.92C58.2651 217.716 56.8121 217.086 55.6091 216.147V233.767C59.0221 234.3 62.5671 234.76 66.2271 235.142C66.1571 235.069 66.0961 234.99 66.0251 234.919C62.0451 230.939 59.8521 225.646 59.8521 220.017ZM149.926 222.608C148.348 222.608 147.063 221.323 147.063 219.745V198.029C147.063 196.451 148.348 195.165 149.926 195.165C151.505 195.165 152.79 196.451 152.79 198.029V219.745C152.79 221.323 151.505 222.608 149.926 222.608ZM155.133 196.444C155.133 193.573 152.798 191.238 149.926 191.238C147.054 191.238 144.719 193.573 144.719 196.444V221.257C144.719 224.129 147.054 226.464 149.926 226.464C152.798 226.464 155.133 224.129 155.133 221.257V196.444Z" fill="#502D16"/>
<path fill-rule="evenodd" clip-rule="evenodd" d="M67.1899 215.377C65.8189 216.776 63.9839 217.715 61.9349 217.942V220.017C61.9349 225.091 63.9109 229.861 67.4979 233.446C68.1249 234.074 68.6879 234.745 69.2209 235.436C70.0039 235.507 70.7889 235.577 71.5819 235.641V227.51C71.5819 223.023 70.0289 218.779 67.1899 215.377ZM40.9922 205.947C41.5492 205.947 42.0032 205.493 42.0032 204.936V189.831C41.3192 189.668 40.6462 189.501 39.9802 189.331V204.936C39.9802 205.493 40.4342 205.947 40.9922 205.947Z" fill="#502D16"/>
<path fill-rule="evenodd" clip-rule="evenodd" d="M40.9921 212.656C44.0871 212.656 46.6031 210.138 46.6031 207.045V190.847C45.7521 190.673 44.9141 190.491 44.0861 190.307V204.936C44.0861 206.642 42.6981 208.029 40.9921 208.029C39.2851 208.029 37.8981 206.642 37.8981 204.936V188.778C37.0421 188.544 36.2021 188.305 35.3801 188.06V207.045C35.3801 210.138 37.8981 212.656 40.9921 212.656ZM75.8187 200.122V200.062C74.7447 201.011 73.3507 201.605 71.8087 201.605C71.0597 201.605 70.3467 201.459 69.6867 201.206V203.51C70.3037 203.897 71.0277 204.131 71.8087 204.131C74.0197 204.131 75.8187 202.333 75.8187 200.122ZM161.511 195.657V223.858C162.979 223.061 164.279 222.236 165.438 221.39V185.64C165.438 185.065 165.904 184.599 166.48 184.599C167.055 184.599 167.521 185.065 167.521 185.64V219.702C169.95 217.455 171.274 215.075 171.274 212.622V174.974C168.529 178.906 163.037 182.472 155.428 185.47C159.048 187.431 161.511 191.261 161.511 195.657ZM107.145 200.245C108.131 198.372 109.398 196.637 110.937 195.099C111.197 194.839 111.44 194.567 111.683 194.295C111.67 194.282 111.66 194.266 111.647 194.253C110.87 194.313 110.086 194.367 109.299 194.42C108.27 196.23 107.537 198.19 107.145 200.245ZM106.799 210.118V225.619C107.827 223.468 109.202 221.474 110.938 219.738C112.522 218.155 113.773 216.335 114.704 214.37C113.667 212.935 113.049 211.18 113.049 209.28V197.707C113.049 197.166 112.941 196.654 112.781 196.166C112.656 196.298 112.543 196.437 112.414 196.566C108.792 200.189 106.799 204.999 106.799 210.118ZM75.7973 195.725C75.7893 195.583 75.7563 195.449 75.7353 195.311C75.0943 195.046 74.4723 194.747 73.8693 194.416C72.9473 194.354 72.0243 194.291 71.1153 194.22C70.2343 195.121 69.6873 196.35 69.6873 197.707V198.903C70.3013 199.292 71.0273 199.522 71.8093 199.522C73.9463 199.522 75.6833 197.835 75.7973 195.725Z" fill="#502D16"/>
<path fill-rule="evenodd" clip-rule="evenodd" d="M126.324 216.703V233.968C128.007 233.717 129.653 233.446 131.27 233.161V205.172C131.27 204.596 131.736 204.13 132.312 204.13C132.887 204.13 133.353 204.596 133.353 205.172V232.782C135.058 232.46 136.723 232.12 138.342 231.763V216.277C138.342 215.701 138.808 215.235 139.383 215.235C139.959 215.235 140.425 215.701 140.425 216.277V231.283C143.971 230.445 147.297 229.525 150.337 228.526C150.2 228.534 150.065 228.547 149.927 228.547C145.908 228.547 142.637 225.276 142.637 221.257V196.444C142.637 192.426 145.908 189.155 149.927 189.155C153.946 189.155 157.216 192.426 157.216 196.444V221.257C157.216 223.68 156.023 225.825 154.199 227.151C156.073 226.436 157.829 225.695 159.429 224.922V195.657C159.429 191.336 156.524 187.685 152.566 186.54C149.563 187.598 146.274 188.57 142.748 189.454C141.304 191.12 140.425 193.286 140.425 195.657V209.935C140.425 210.511 139.959 210.976 139.383 210.976C138.808 210.976 138.342 210.511 138.342 209.935V195.657C138.342 193.676 138.844 191.809 139.725 190.177C137.673 190.643 135.548 191.08 133.353 191.486V197.585C133.353 198.161 132.887 198.627 132.312 198.627C131.736 198.627 131.27 198.161 131.27 197.585V191.86C131.011 191.905 130.753 191.949 130.492 191.993V209.28C130.492 212.418 128.819 215.167 126.324 216.703Z" fill="#502D16"/>
<path fill-rule="evenodd" clip-rule="evenodd" d="M150.707 198.029C150.707 197.598 150.357 197.248 149.926 197.248C149.503 197.248 149.145 197.606 149.145 198.029V219.745C149.145 220.168 149.503 220.526 149.926 220.526C150.357 220.526 150.707 220.175 150.707 219.745V198.029ZM15.7686 178.919C14.1836 177.653 12.9056 176.336 11.9556 174.975V212.623C11.9556 215.095 13.3026 217.492 15.7686 219.755V178.919ZM28.4575 185.733C26.5175 184.989 24.7245 184.206 23.0575 183.393V204.082C23.0575 204.657 22.5915 205.123 22.0165 205.123C21.4405 205.123 20.9755 204.657 20.9755 204.082V182.319C19.8615 181.712 18.8085 181.091 17.8515 180.452V221.436C18.7905 222.117 19.8335 222.782 20.9755 223.432V209.88C20.9755 209.305 21.4405 208.839 22.0165 208.839C22.5915 208.839 23.0575 209.305 23.0575 209.88V224.547C24.7025 225.375 26.5025 226.172 28.4575 226.934V185.733ZM75.8188 214.101V210.33C75.8188 209.754 76.2848 209.289 76.8608 209.289C77.4358 209.289 77.9018 209.754 77.9018 210.33V214.101C77.9018 214.676 77.4358 215.142 76.8608 215.142C76.2848 215.142 75.8188 214.676 75.8188 214.101ZM81.0258 196.658C79.9528 196.547 78.9138 196.329 77.9018 196.046V200.122C77.9018 203.48 75.1678 206.214 71.8088 206.214C71.0618 206.214 70.3488 206.072 69.6868 205.825V209.28C69.6868 210.893 69.2388 212.399 68.4728 213.696C71.8188 217.53 73.6638 222.374 73.6638 227.51V235.796C76.0818 235.97 78.5368 236.11 81.0258 236.214V196.658ZM47.2017 230.585C47.2017 231.161 46.7357 231.626 46.1597 231.626C45.5847 231.626 45.1187 231.161 45.1187 230.585V226.072C45.1187 223.295 42.8607 221.038 40.0847 221.038C37.3097 221.038 35.0527 223.295 35.0527 226.072C35.0527 226.647 34.5867 227.113 34.0117 227.113C33.4357 227.113 32.9697 226.647 32.9697 226.072C32.9697 222.148 36.1617 218.955 40.0847 218.955C44.0097 218.955 47.2017 222.148 47.2017 226.072V230.585ZM53.5267 213.81C52.7187 212.487 52.2437 210.94 52.2437 209.28V191.911C51.0377 191.706 49.8527 191.49 48.6867 191.266V207.045C48.6867 211.288 45.2347 214.739 40.9927 214.739C36.7497 214.739 33.2977 211.288 33.2977 207.045V187.424C32.3537 187.122 31.4357 186.812 30.5407 186.496V227.717C33.5937 228.813 36.9687 229.826 40.6057 230.748V230.41C40.6057 228.878 39.3607 227.634 37.8297 227.634C37.2537 227.634 36.7877 227.168 36.7877 226.592C36.7877 226.017 37.2537 225.551 37.8297 225.551C40.5097 225.551 42.6887 227.731 42.6887 230.41V231.256C46.0987 232.065 49.7187 232.796 53.5267 233.434V213.81ZM93.1748 226.044C92.5988 226.044 92.1328 225.578 92.1328 225.002V202.646C92.1328 202.071 92.5988 201.605 93.1748 201.605C93.7508 201.605 94.2168 202.071 94.2168 202.646V225.002C94.2168 225.578 93.7508 226.044 93.1748 226.044ZM104.716 203.871C104.716 200.952 105.31 198.128 106.424 195.523C104.738 196.16 102.944 196.563 101.071 196.694V210.33C101.071 210.906 100.606 211.372 100.03 211.372C99.4548 211.372 98.9888 210.906 98.9888 210.33V196.761H89.0098V204.082C89.0098 204.658 88.5438 205.124 87.9678 205.124C87.3928 205.124 86.9268 204.658 86.9268 204.082V196.761H83.1088V236.296C84.3738 236.338 85.6468 236.371 86.9268 236.394V215.178C86.9268 214.603 87.3928 214.137 87.9678 214.137C88.5438 214.137 89.0098 214.603 89.0098 215.178V236.421C89.8768 236.43 90.7418 236.441 91.6148 236.441C91.7888 236.441 91.9598 236.438 92.1328 236.438V233.681C92.1328 233.106 92.5988 232.64 93.1748 232.64C93.7508 232.64 94.2168 233.106 94.2168 233.681V236.421C95.8178 236.405 97.4098 236.377 98.9888 236.331V216.816C98.9888 216.24 99.4548 215.774 100.03 215.774C100.606 215.774 101.071 216.24 101.071 216.816V236.259C102.294 236.213 103.509 236.16 104.716 236.097V203.871Z" fill="#502D16"/>
<path d="M165 100.5C169.5 102.5 165.5 113 163.5 103C170.5 110.5 154.5 110 157 107.5C151.5 101 166.672 92.5 167.5 92.5C175.5 102 165 110.5 165 100.5Z" fill="#25AF49"/>
<path fill-rule="evenodd" clip-rule="evenodd" d="M53.5269 213.81V233.434C54.2139 233.549 54.9119 233.658 55.6099 233.767V216.147C54.7819 215.501 54.0769 214.709 53.5269 213.81ZM68.4731 213.696C68.1121 214.307 67.6831 214.873 67.1901 215.377C70.0291 218.779 71.5811 223.024 71.5811 227.51V235.641C72.2711 235.697 72.9681 235.746 73.6641 235.796V227.51C73.6641 222.374 71.8191 217.53 68.4731 213.696ZM61.9351 220.017V217.942C61.6171 217.978 61.2941 217.999 60.9671 217.999C60.5881 217.999 60.2181 217.967 59.8521 217.92V220.017C59.8521 225.646 62.0451 230.939 66.0251 234.919C66.0961 234.99 66.1571 235.069 66.2271 235.142C67.2181 235.245 68.2141 235.344 69.2211 235.435C68.6881 234.745 68.1241 234.074 67.4971 233.446C63.9111 229.861 61.9351 225.091 61.9351 220.017ZM37.8296 225.552C37.2536 225.552 36.7876 226.017 36.7876 226.593C36.7876 227.169 37.2536 227.635 37.8296 227.635C39.3606 227.635 40.6056 228.879 40.6056 230.41V230.748C41.2896 230.922 41.9866 231.09 42.6886 231.257V230.41C42.6886 227.732 40.5096 225.552 37.8296 225.552Z" fill="#331D0E"/>
<path fill-rule="evenodd" clip-rule="evenodd" d="M40.085 218.955C36.162 218.955 32.97 222.148 32.97 226.072C32.97 226.647 33.436 227.113 34.011 227.113C34.586 227.113 35.052 226.647 35.052 226.072C35.052 223.295 37.31 221.038 40.085 221.038C42.86 221.038 45.119 223.295 45.119 226.072V230.585C45.119 231.161 45.585 231.626 46.16 231.626C46.736 231.626 47.202 231.161 47.202 230.585V226.072C47.202 222.148 44.009 218.955 40.085 218.955ZM30.5405 186.496C29.8325 186.246 29.1335 185.993 28.4575 185.733V226.934C29.1365 227.199 29.8265 227.462 30.5405 227.718V186.496ZM40.9922 214.739C45.2352 214.739 48.6862 211.288 48.6862 207.045V191.266C47.9822 191.131 47.2932 190.989 46.6032 190.848V207.045C46.6032 210.138 44.0872 212.656 40.9922 212.656C37.8982 212.656 35.3802 210.138 35.3802 207.045V188.061C34.6762 187.852 33.9762 187.641 33.2972 187.424V207.045C33.2972 211.288 36.7492 214.739 40.9922 214.739Z" fill="#331D0E"/>
<path fill-rule="evenodd" clip-rule="evenodd" d="M40.9922 208.03C42.6982 208.03 44.0862 206.643 44.0862 204.937V190.308C43.3852 190.152 42.6862 189.995 42.0032 189.832V204.937C42.0032 205.494 41.5492 205.947 40.9922 205.947C40.4342 205.947 39.9802 205.494 39.9802 204.937V189.332C39.2742 189.152 38.5842 188.966 37.8982 188.779V204.937C37.8982 206.643 39.2852 208.03 40.9922 208.03ZM22.0166 205.123C22.5916 205.123 23.0576 204.657 23.0576 204.081V183.393C22.3366 183.04 21.6426 182.683 20.9746 182.319V204.081C20.9746 204.657 21.4406 205.123 22.0166 205.123ZM23.0576 209.881C23.0576 209.305 22.5916 208.839 22.0166 208.839C21.4406 208.839 20.9746 209.305 20.9746 209.881V223.433C21.6376 223.81 22.3306 224.182 23.0576 224.548V209.881ZM17.8511 180.452C17.1011 179.951 16.4181 179.438 15.7681 178.919V219.755C16.3891 220.325 17.0911 220.885 17.8511 221.436V180.452ZM83.1084 196.761H82.9984C82.3324 196.761 81.6744 196.725 81.0254 196.657V236.214C81.7184 236.243 82.4104 236.273 83.1084 236.296V196.761ZM77.9019 200.122V196.046C77.1619 195.84 76.4359 195.602 75.7349 195.311C75.7569 195.449 75.7899 195.583 75.7979 195.725C75.6839 197.835 73.9469 199.522 71.8089 199.522C71.0269 199.522 70.3019 199.292 69.6869 198.903V201.206C70.3469 201.459 71.0599 201.605 71.8089 201.605C73.3509 201.605 74.7449 201.011 75.8189 200.062V200.122C75.8189 202.333 74.0199 204.131 71.8089 204.131C71.0279 204.131 70.3039 203.897 69.6869 203.51V205.825C70.3489 206.072 71.0619 206.214 71.8089 206.214C75.1679 206.214 77.9019 203.48 77.9019 200.122ZM87.9683 214.136C87.3923 214.136 86.9263 214.602 86.9263 215.178V236.393C87.6183 236.406 88.3143 236.413 89.0103 236.42V215.178C89.0103 214.602 88.5443 214.136 87.9683 214.136ZM87.9683 205.123C88.5443 205.123 89.0103 204.657 89.0103 204.081V196.761H86.9263V204.081C86.9263 204.657 87.3923 205.123 87.9683 205.123ZM94.2163 202.646C94.2163 202.071 93.7503 201.605 93.1743 201.605C92.5993 201.605 92.1333 202.071 92.1333 202.646V225.002C92.1333 225.578 92.5993 226.044 93.1743 226.044C93.7503 226.044 94.2163 225.578 94.2163 225.002V202.646ZM93.1748 232.639C92.5988 232.639 92.1328 233.105 92.1328 233.68V236.437C92.8308 236.435 93.5228 236.427 94.2168 236.42V233.68C94.2168 233.105 93.7508 232.639 93.1748 232.639ZM77.9019 214.101V210.33C77.9019 209.754 77.4359 209.289 76.8599 209.289C76.2849 209.289 75.8189 209.754 75.8189 210.33V214.101C75.8189 214.676 76.2849 215.142 76.8599 215.142C77.4359 215.142 77.9019 214.676 77.9019 214.101ZM100.03 211.371C100.606 211.371 101.072 210.905 101.072 210.329V196.693C100.629 196.724 100.188 196.761 99.7378 196.761H98.9888V210.329C98.9888 210.905 99.4548 211.371 100.03 211.371ZM100.03 215.774C99.4548 215.774 98.9888 216.24 98.9888 216.816V236.33C99.6858 236.31 100.379 236.284 101.072 236.258V216.816C101.072 216.24 100.606 215.774 100.03 215.774ZM112.414 221.207C113.969 219.654 115.219 217.885 116.205 215.988C115.637 215.516 115.136 214.97 114.704 214.371C113.773 216.335 112.521 218.156 110.937 219.739C109.202 221.475 107.827 223.469 106.799 225.62V210.119C106.799 204.999 108.792 200.189 112.414 196.567C112.543 196.438 112.656 196.298 112.781 196.166C112.55 195.462 112.18 194.824 111.683 194.295C111.44 194.567 111.197 194.839 110.937 195.099C109.399 196.637 108.131 198.373 107.145 200.245C107.538 198.19 108.271 196.23 109.3 194.42C109.133 194.432 108.968 194.445 108.801 194.456C108.041 194.87 107.241 195.214 106.423 195.523C105.31 198.128 104.716 200.952 104.716 203.871V236.097C105.412 236.061 106.108 236.024 106.799 235.982V234.761C106.799 229.644 108.792 224.832 112.414 221.207ZM118.636 220.538V217.408C117.886 217.117 117.187 216.726 116.553 216.251V220.538C116.553 225.655 114.56 230.467 110.938 234.09C110.393 234.635 109.896 235.213 109.422 235.807C110.42 235.735 111.412 235.659 112.398 235.577C112.404 235.571 112.408 235.564 112.414 235.558C116.427 231.545 118.636 226.212 118.636 220.538ZM124.241 217.638V234.264C124.939 234.168 125.637 234.071 126.324 233.968V216.703C125.679 217.1 124.982 217.418 124.241 217.638ZM133.352 205.172C133.352 204.596 132.886 204.13 132.311 204.13C131.735 204.13 131.269 204.596 131.269 205.172V233.161C131.97 233.037 132.665 232.912 133.352 232.782V205.172ZM132.311 198.627C132.886 198.627 133.352 198.161 133.352 197.585V191.486C132.663 191.613 131.972 191.739 131.269 191.86V197.585C131.269 198.161 131.735 198.627 132.311 198.627ZM159.429 195.657V224.922C160.152 224.573 160.848 224.219 161.512 223.858V195.657C161.512 191.261 159.049 187.431 155.428 185.47C154.502 185.835 153.553 186.193 152.566 186.54C156.524 187.685 159.429 191.336 159.429 195.657ZM138.342 209.935C138.342 210.511 138.808 210.977 139.383 210.977C139.959 210.977 140.425 210.511 140.425 209.935V195.657C140.425 193.287 141.304 191.121 142.748 189.455C141.759 189.703 140.752 189.944 139.725 190.177C138.844 191.81 138.342 193.676 138.342 195.657V209.935ZM139.383 215.236C138.808 215.236 138.342 215.702 138.342 216.278V231.763C139.047 231.608 139.737 231.446 140.425 231.284V216.278C140.425 215.702 139.959 215.236 139.383 215.236Z" fill="#331D0E"/>
<path fill-rule="evenodd" clip-rule="evenodd" d="M149.926 226.465C147.054 226.465 144.719 224.13 144.719 221.258V196.445C144.719 193.573 147.054 191.238 149.926 191.238C152.798 191.238 155.133 193.573 155.133 196.445V221.258C155.133 224.13 152.798 226.465 149.926 226.465ZM157.216 221.258V196.445C157.216 192.426 153.945 189.156 149.926 189.156C145.907 189.156 142.637 192.426 142.637 196.445V221.258C142.637 225.277 145.907 228.548 149.926 228.548C150.065 228.548 150.2 228.534 150.337 228.527C151.684 228.084 152.962 227.622 154.198 227.152C156.023 225.825 157.216 223.681 157.216 221.258Z" fill="#331D0E"/>
<path fill-rule="evenodd" clip-rule="evenodd" d="M84.1167 97.2223L90.6758 109.183C90.8968 109.586 91.2777 109.63 91.4307 109.63C91.5837 109.63 91.9647 109.586 92.1857 109.183L98.7448 97.2223C100.406 94.1943 100.01 90.3983 97.7598 87.7773C96.1738 85.9303 93.8667 84.8693 91.4307 84.8693C88.9947 84.8693 86.6877 85.9303 85.1017 87.7773C82.8517 90.3983 82.4557 94.1943 84.1167 97.2223Z" fill="#7A8EC7"/>
<path fill-rule="evenodd" clip-rule="evenodd" d="M152.79 198.029C152.79 196.451 151.505 195.166 149.926 195.166C148.348 195.166 147.063 196.451 147.063 198.029V219.745C147.063 221.323 148.348 222.609 149.926 222.609C151.505 222.609 152.79 221.323 152.79 219.745V198.029ZM149.145 219.745C149.145 220.168 149.503 220.526 149.926 220.526C150.358 220.526 150.707 220.176 150.707 219.745V198.029C150.707 197.598 150.358 197.249 149.926 197.249C149.503 197.249 149.145 197.607 149.145 198.029V219.745Z" fill="#7A8EC7"/>
<path d="M167.522 185.641C167.522 185.065 167.056 184.599 166.48 184.599C165.905 184.599 165.439 185.065 165.439 185.641V221.391C166.199 220.837 166.903 220.275 167.522 219.703V185.641Z" fill="#7A8EC7"/>
<path fill-rule="evenodd" clip-rule="evenodd" d="M149.145 219.745C149.145 220.168 149.503 220.526 149.926 220.526C150.358 220.526 150.707 220.176 150.707 219.745V198.029C150.707 197.598 150.358 197.249 149.926 197.249C149.503 197.249 149.145 197.607 149.145 198.029V219.745ZM149.926 195.166C151.505 195.166 152.79 196.451 152.79 198.029V219.745C152.79 221.323 151.505 222.609 149.926 222.609C148.348 222.609 147.063 221.323 147.063 219.745V198.029C147.063 196.451 148.348 195.166 149.926 195.166ZM166.48 184.599C167.056 184.599 167.522 185.065 167.522 185.641V219.703C166.903 220.275 166.199 220.837 165.439 221.391V185.641C165.439 185.065 165.905 184.599 166.48 184.599Z" fill="#331D0E"/>
<path fill-rule="evenodd" clip-rule="evenodd" d="M124.368 192.909H113.132C114.317 194.163 115.049 195.85 115.049 197.707V209.28C115.049 212.985 118.064 216 121.769 216C125.477 216 128.492 212.985 128.492 209.28V192.445C127.162 192.741 125.785 192.909 124.368 192.909ZM69.604 192.909H58.368C56.95 192.909 55.573 192.741 54.244 192.445V209.28C54.244 212.985 57.258 216 60.964 216C64.672 216 67.687 212.985 67.687 209.28V197.707C67.687 195.85 68.419 194.163 69.604 192.909Z" fill="#7A8EC7"/>
<path fill-rule="evenodd" clip-rule="evenodd" d="M45.3677 130.09C48.7697 126.887 53.3377 124.908 58.3677 124.908H124.368C129.398 124.908 133.966 126.887 137.368 130.09V129.361C137.368 122.192 131.536 116.361 124.368 116.361H58.3677C51.1997 116.361 45.3677 122.192 45.3677 129.361V130.09Z" fill="#7A8EC7"/>
<path fill-rule="evenodd" clip-rule="evenodd" d="M122.797 161.331C123.373 160.734 124.323 160.72 124.918 161.295C126.658 162.977 130.074 162.978 131.814 161.295C132.409 160.72 133.359 160.734 133.935 161.331C134.511 161.927 134.495 162.876 133.899 163.452C132.451 164.852 130.409 165.551 128.366 165.551C126.323 165.551 124.281 164.852 122.833 163.452C122.237 162.876 122.221 161.927 122.797 161.331ZM59.9024 163.452C58.4544 164.852 56.4114 165.552 54.3694 165.552C52.3264 165.552 50.2844 164.852 48.8364 163.452C48.2404 162.876 48.2244 161.926 48.8004 161.331C49.3764 160.734 50.3264 160.72 50.9214 161.295C52.6614 162.978 56.0774 162.977 57.8174 161.295C58.4124 160.72 59.3624 160.734 59.9384 161.331C60.5144 161.927 60.4984 162.876 59.9024 163.452ZM41.4354 142.569H43.7774C44.3294 142.569 44.7774 143.017 44.7774 143.569C44.7774 144.122 44.3294 144.569 43.7774 144.569H36.7844C32.3734 144.569 28.7844 148.158 28.7844 152.569V163.111C28.7844 167.522 32.3734 171.111 36.7844 171.111H43.7774C44.3294 171.111 44.7774 171.559 44.7774 172.111C44.7774 172.663 44.3294 173.111 43.7774 173.111H41.3674V173.909C41.3674 183.283 48.9934 190.909 58.3674 190.909H69.3144C66.0304 187.492 63.9984 182.863 63.9984 177.761V163.19C63.9984 158.779 67.5874 155.19 71.9984 155.19H99.4194C99.9714 155.19 100.419 155.638 100.419 156.19H104.666C104.666 155.638 105.114 155.19 105.666 155.19H110.737C115.148 155.19 118.737 158.779 118.737 163.19V165.934C119.266 165.86 119.802 165.809 120.351 165.809C126.818 165.809 132.081 171.071 132.081 177.539C132.081 184.007 126.818 189.269 120.351 189.269H114.819C114.382 189.841 113.919 190.391 113.421 190.909H124.367C133.741 190.909 141.367 183.283 141.367 173.909V173.111H139.374C138.822 173.111 138.374 172.663 138.374 172.111C138.374 171.559 138.822 171.111 139.374 171.111H146.367C150.778 171.111 154.367 167.522 154.367 163.111V152.569C154.367 148.158 150.778 144.569 146.367 144.569H139.374C138.822 144.569 138.374 144.122 138.374 143.569C138.374 143.017 138.822 142.569 139.374 142.569H141.299C140.612 133.821 133.289 126.909 124.367 126.909H58.3674C49.4454 126.909 42.1224 133.821 41.4354 142.569Z" fill="#A0B2DC"/>
<path fill-rule="evenodd" clip-rule="evenodd" d="M99.4194 157.19H71.9984C68.6904 157.19 65.9984 159.881 65.9984 163.19V167.057C67.2244 165.014 69.4554 163.635 71.9984 163.635H110.737C113.048 163.635 115.102 164.776 116.378 166.516C116.498 166.473 116.615 166.424 116.737 166.385V163.19C116.737 159.881 114.045 157.19 110.737 157.19H105.666C105.114 157.19 104.666 156.742 104.666 156.19H100.419C100.419 156.742 99.9714 157.19 99.4194 157.19Z" fill="#B3CAFB"/>
<path fill-rule="evenodd" clip-rule="evenodd" d="M85.9985 183.269C87.6485 183.269 88.9985 184.619 88.9985 186.269C88.9985 187.919 87.6485 189.269 85.9985 189.269H79.9985C78.3485 189.269 76.9985 187.919 76.9985 186.269C76.9985 184.619 78.3485 183.269 79.9985 183.269H85.9985ZM110.738 163.635H71.9985C69.4555 163.635 67.2245 165.014 65.9985 167.057V177.761C65.9985 187.135 73.6245 194.761 82.9985 194.761H99.7375C104.67 194.761 109.105 192.636 112.214 189.269H103.255C103.188 189.269 103.126 189.248 103.062 189.236C102.955 189.248 102.849 189.269 102.738 189.269H96.7375C95.0875 189.269 93.7375 187.919 93.7375 186.269C93.7375 184.619 95.0875 183.269 96.7375 183.269H102.738C104.035 183.269 105.136 184.109 105.552 185.268C107.057 183.701 108.621 181.202 108.621 177.539C108.621 172.467 111.863 168.149 116.379 166.516C115.103 164.776 113.049 163.635 110.738 163.635Z" fill="#C2D2F1"/>
<path fill-rule="evenodd" clip-rule="evenodd" d="M102.737 183.269H96.7373C95.0873 183.269 93.7373 184.619 93.7373 186.269C93.7373 187.919 95.0873 189.269 96.7373 189.269H102.737C102.848 189.269 102.954 189.248 103.062 189.236C102.682 189.16 102.368 188.881 102.279 188.492C102.175 188.037 102.4 187.571 102.82 187.369C102.929 187.314 104.217 186.656 105.551 185.268C105.135 184.109 104.034 183.269 102.737 183.269ZM79.9985 183.269C78.3485 183.269 76.9985 184.619 76.9985 186.269C76.9985 187.919 78.3485 189.269 79.9985 189.269H85.9985C87.6485 189.269 88.9985 187.919 88.9985 186.269C88.9985 184.619 87.6485 183.269 85.9985 183.269H79.9985ZM32.7842 162.111C32.7842 164.872 35.0232 167.111 37.7842 167.111H40.7772C41.3302 167.111 41.7772 166.663 41.7772 166.111V149.57C41.7772 149.018 41.3302 148.57 40.7772 148.57H37.7842C35.0232 148.57 32.7842 150.808 32.7842 153.57V162.111ZM142.374 167.111H145.367C148.128 167.111 150.367 164.872 150.367 162.111V153.57C150.367 150.808 148.128 148.57 145.367 148.57H142.374C141.822 148.57 141.374 149.018 141.374 149.57V166.111C141.374 166.663 141.822 167.111 142.374 167.111Z" fill="#A0B2DC"/>
<path fill-rule="evenodd" clip-rule="evenodd" d="M106.369 187.269H120.351C125.716 187.269 130.081 182.904 130.081 177.539C130.081 172.174 125.716 167.809 120.351 167.809C114.986 167.809 110.62 172.174 110.62 177.539C110.62 182.356 108.321 185.483 106.369 187.269Z" fill="#DCE3ED"/>
<path fill-rule="evenodd" clip-rule="evenodd" d="M249.538 164.006C249.82 163.799 250.163 163.725 250.507 163.725C251.105 163.725 251.711 163.948 252.021 164.082C253.705 164.81 254.985 166.265 255.124 167.168C255.346 168.609 254.594 170.293 253.252 171.359C252.086 172.283 250.759 172.549 249.609 172.089C249.443 172.022 248.964 171.474 248.748 169.767C248.402 167.028 249.062 164.356 249.538 164.006ZM248.864 173.944C249.468 174.187 250.105 174.306 250.75 174.306C252.036 174.305 253.352 173.833 254.496 172.925C256.411 171.404 257.434 169.025 257.101 166.863C256.805 164.94 254.672 163.049 252.815 162.246C251.086 161.499 249.501 161.549 248.354 162.394C246.76 163.566 246.463 167.636 246.764 170.018C247.033 172.143 247.759 173.501 248.864 173.944ZM237.264 176.117C236.36 176.34 235.775 176.964 235.658 177.83V177.831C235.586 178.367 235.74 179.384 237.576 180.176C238.208 180.448 239.239 180.756 240.191 180.756C240.923 180.756 241.607 180.574 242.028 180.054C242.331 179.68 242.704 178.865 241.808 177.599C241.045 176.524 238.708 175.765 237.264 176.117ZM206.932 138.054C209.184 139.522 210.506 141.932 210.542 144.585C208.102 145.623 205.363 145.387 203.11 143.918C201.403 142.806 200.231 141.152 199.747 139.262C199.462 138.146 200.25 137.024 201.388 136.846C203.289 136.547 205.247 136.956 206.932 138.054ZM197.962 186.913C198.11 187 198.272 187.062 198.456 187.062C199.008 187.062 199.456 186.615 199.456 186.062V143.174C200.149 144.103 200.999 144.93 202.017 145.594C203.681 146.678 205.555 147.225 207.44 147.225C208.984 147.225 210.535 146.858 211.982 146.118C212.295 145.958 212.506 145.633 212.526 145.282C212.731 141.678 211.048 138.349 208.024 136.379C206.078 135.11 203.841 134.581 201.637 134.804C200.459 134.923 199.456 133.94 199.456 132.755V64.5909V61.9999C199.456 61.4479 199.008 60.9999 198.456 60.9999C197.904 60.9999 197.456 61.4479 197.456 61.9999V65.9999V186.062C197.456 186.431 197.665 186.74 197.962 186.913ZM-80.7749 102.389C-80.2229 102.389 -79.7749 101.941 -79.7749 101.389V99.6403C-79.7749 99.0883 -80.2229 98.6403 -80.7749 98.6403C-81.3269 98.6403 -81.7749 99.0883 -81.7749 99.6403V101.389C-81.7749 101.941 -81.3269 102.389 -80.7749 102.389ZM40.8813 116.361C41.2793 116.361 41.6163 116.124 41.7773 115.788C41.8393 115.657 41.8813 115.515 41.8813 115.361V22C41.8813 21.447 41.4333 21 40.8813 21C40.3293 21 39.8813 21.447 39.8813 22V46V115.361C39.8813 115.913 40.3293 116.361 40.8813 116.361ZM234.42 48.0012C234.972 48.0012 235.42 47.5532 235.42 47.0012V44.7182C235.42 44.1662 234.972 43.7182 234.42 43.7182C233.868 43.7182 233.42 44.1662 233.42 44.7182V47.0012C233.42 47.5532 233.868 48.0012 234.42 48.0012ZM275.894 103.608C278.457 104.293 280.47 106.164 281.342 108.708C281.353 108.742 281.365 108.776 281.376 108.81C282.769 113.051 276.235 115.262 274.746 111.053L274.72 110.977C273.848 108.434 274.29 105.721 275.894 103.608ZM280.36 118.171C280.423 118.184 280.486 118.19 280.549 118.19C280.834 118.19 281.109 118.067 281.301 117.849C283.682 115.135 284.405 111.475 283.234 108.059C282.063 104.644 279.248 102.196 275.702 101.513C275.352 101.443 274.995 101.568 274.761 101.836C272.38 104.55 271.657 108.21 272.828 111.626C273.998 115.041 276.814 117.488 280.36 118.171ZM146.689 81.4567C148.205 81.9867 149.363 83.1847 149.842 84.7527C150.322 86.3207 150.033 87.9607 149.074 89.2497C147.558 88.7187 146.399 87.5207 145.919 85.9537C145.439 84.3857 145.73 82.7447 146.689 81.4567ZM149.202 91.3637C149.275 91.3797 149.349 91.3887 149.422 91.3887C149.695 91.3887 149.96 91.2767 150.152 91.0727C151.906 89.2017 152.505 86.6197 151.754 84.1667C151.003 81.7147 149.062 79.9107 146.561 79.3427C146.215 79.2657 145.854 79.3737 145.611 79.6337C143.855 81.5047 143.257 84.0857 144.008 86.5387C144.759 88.9917 146.701 90.7947 149.202 91.3637ZM-67.5381 71.676C-66.5431 70.373 -65.0251 69.667 -63.4341 69.682C-62.9831 71.224 -63.2831 72.863 -64.2781 74.166C-65.2731 75.469 -66.7961 76.187 -68.3811 76.159C-68.8321 74.618 -68.5331 72.979 -67.5381 71.676ZM-69.2351 78.097C-68.9131 78.14 -68.5941 78.161 -68.2771 78.161C-66.0881 78.161 -64.0481 77.16 -62.6881 75.38C-61.1311 73.342 -60.7951 70.713 -61.7891 68.348C-61.9271 68.021 -62.2281 67.791 -62.5801 67.744C-65.1221 67.408 -67.5711 68.424 -69.1271 70.462C-70.6841 72.501 -71.0201 75.129 -70.0261 77.494C-69.8881 77.821 -69.5871 78.051 -69.2351 78.097ZM-56.4902 148.027C-55.5572 147.208 -54.4852 146.634 -53.3492 146.32C-50.9242 145.651 -48.7962 148.074 -49.7732 150.392C-50.2312 151.479 -50.9382 152.468 -51.8712 153.287C-53.8922 155.061 -56.5692 155.684 -59.1332 155.006C-59.4742 152.375 -58.5102 149.801 -56.4902 148.027ZM-60.3402 156.728C-59.2642 157.096 -58.1652 157.277 -57.0782 157.277C-54.7142 157.277 -52.4102 156.422 -50.5522 154.79C-47.8382 152.407 -46.6472 148.872 -47.3652 145.333C-47.4352 144.985 -47.6852 144.701 -48.0212 144.586C-51.4372 143.418 -55.0962 144.142 -57.8092 146.524C-60.5232 148.907 -61.7142 152.442 -60.9962 155.981C-60.9262 156.329 -60.6762 156.613 -60.3402 156.728ZM159.15 98.3576C161.438 95.3746 164.964 93.8206 168.672 94.1266C169.93 97.6296 169.342 101.438 167.054 104.421C164.766 107.404 161.24 108.958 157.531 108.652C156.274 105.149 156.862 101.34 159.15 98.3576ZM156.686 110.571C157.282 110.651 157.875 110.691 158.462 110.691C162.445 110.691 166.159 108.874 168.641 105.638C171.489 101.925 172.112 97.1296 170.307 92.8126C170.17 92.4846 169.87 92.2546 169.518 92.2076C164.879 91.5866 160.411 93.4276 157.563 97.1406C154.715 100.854 154.092 105.648 155.897 109.966C156.034 110.294 156.334 110.524 156.686 110.571Z" fill="#202225"/>
<path fill-rule="evenodd" clip-rule="evenodd" d="M231.075 193.261C231.036 193.17 231.015 193.103 231.004 193.056C231.368 192.891 232.42 192.871 232.947 192.861C233.54 192.85 234.101 192.839 234.557 192.745C236.118 192.422 239.906 191.44 241.337 189.287C241.643 188.827 241.518 188.206 241.058 187.901C240.598 187.596 239.978 187.72 239.672 188.179C239.4 188.588 238.945 188.96 238.381 189.29C237.07 190.059 235.42 189.055 235.42 187.535V183.4C237.042 184.086 238.902 184.421 240.87 184.421C243.484 184.421 246.284 183.82 248.967 182.686C249.18 183.001 249.429 184.022 249.115 185.661C248.428 189.239 245.417 193.763 239.191 194.742C236.72 195.131 231.762 194.864 231.075 193.261ZM245.518 57.0663C248.635 57.8913 251.134 59.9623 252.505 62.7693C252.918 63.6153 252.639 64.6663 251.863 65.1963C249.282 66.9573 246.085 67.5183 242.968 66.6963C239.85 65.8713 237.351 63.8003 235.981 60.9923C235.568 60.1473 235.846 59.0963 236.622 58.5663C239.203 56.8033 242.4 56.2403 245.518 57.0663ZM235.42 165.297V160.847C235.668 160.501 235.983 160.233 236.377 160.143C236.471 160.121 236.568 160.111 236.668 160.111C236.972 160.111 237.302 160.208 237.621 160.396C238.251 160.767 238.813 161.51 238.667 162.212C238.492 163.058 237.35 164.637 236.598 165.076C236.081 165.378 235.688 165.447 235.42 165.297ZM239.726 153.607C240.559 153.402 241.433 153.301 242.333 153.301C244.975 153.301 247.835 154.171 250.494 155.823C254.173 158.111 256.836 161.371 257.994 165.004C260.11 171.646 255.111 176.397 252.864 178.132C247.409 182.34 239.884 183.612 235.42 181.166V167.353C235.516 167.364 235.608 167.38 235.713 167.38C236.24 167.38 236.873 167.231 237.606 166.804C238.863 166.071 240.331 164.037 240.625 162.619C240.933 161.139 240.133 159.553 238.634 158.672C238.634 158.671 238.634 158.671 238.634 158.671C237.766 158.163 236.807 157.994 235.93 158.194C235.754 158.234 235.585 158.291 235.42 158.359V155.928C236.659 154.791 238.096 154.008 239.726 153.607ZM194.096 205.09V201.843C194.096 199.71 195.83 197.976 197.962 197.976C200.095 197.976 201.829 199.71 201.829 201.843V205.09H194.096ZM196.187 212.999C196.205 210.994 196.496 209.015 197.026 207.09H198.898C199.429 209.016 199.72 210.995 199.738 212.999H196.187ZM144.783 186.751C142.235 187.444 140.133 184.807 141.327 182.453C142.631 179.885 143.367 176.982 143.367 173.908V173.111H146.367C151.89 173.111 156.367 168.634 156.367 163.111V160.23C156.367 157.974 158.766 156.531 160.767 157.571C167.426 161.032 171.274 165.004 171.274 169.19C171.274 176.058 160.947 182.358 144.783 186.751ZM171.274 212.622C171.274 215.075 169.95 217.455 167.521 219.702C166.903 220.274 166.198 220.836 165.438 221.39C164.279 222.236 162.979 223.061 161.511 223.858C160.848 224.219 160.151 224.573 159.429 224.922C157.828 225.695 156.073 226.436 154.199 227.151C152.962 227.621 151.684 228.083 150.337 228.526C147.297 229.525 143.971 230.445 140.424 231.283C139.737 231.446 139.046 231.607 138.342 231.762C136.722 232.12 135.057 232.46 133.352 232.782C132.665 232.911 131.97 233.037 131.27 233.16C129.653 233.446 128.007 233.717 126.324 233.968C125.636 234.071 124.939 234.168 124.241 234.264C120.433 234.793 116.477 235.233 112.397 235.576C111.412 235.658 110.42 235.735 109.421 235.806C108.551 235.868 107.679 235.928 106.799 235.982C106.108 236.024 105.412 236.06 104.716 236.096C103.509 236.159 102.294 236.213 101.071 236.258C100.378 236.284 99.6862 236.31 98.9892 236.33C97.4092 236.376 95.8172 236.404 94.2162 236.42C93.5232 236.427 92.8302 236.435 92.1332 236.437C91.9602 236.437 91.7882 236.441 91.6152 236.441C90.7422 236.441 89.8762 236.429 89.0102 236.42C88.3142 236.413 87.6182 236.406 86.9272 236.393C85.6472 236.37 84.3732 236.338 83.1082 236.296C82.4102 236.272 81.7182 236.242 81.0252 236.214C78.5362 236.11 76.0822 235.969 73.6642 235.796C72.9682 235.745 72.2712 235.697 71.5812 235.641C70.7882 235.577 70.0042 235.507 69.2212 235.435C68.2142 235.344 67.2182 235.245 66.2272 235.142C62.5672 234.76 59.0222 234.3 55.6092 233.766C54.9112 233.657 54.2132 233.549 53.5272 233.433C49.7182 232.796 46.0992 232.065 42.6882 231.256C41.9862 231.089 41.2892 230.921 40.6062 230.747C36.9692 229.825 33.5932 228.812 30.5402 227.717C29.8262 227.461 29.1372 227.199 28.4572 226.934C26.5032 226.172 24.7022 225.374 23.0572 224.547C22.3302 224.181 21.6382 223.809 20.9752 223.432C19.8342 222.782 18.7902 222.116 17.8512 221.435C17.0912 220.884 16.3892 220.324 15.7682 219.755C13.3022 217.492 11.9552 215.094 11.9552 212.622V180.63C11.9552 178.685 14.1972 177.657 15.7132 178.875C15.7322 178.889 15.7502 178.904 15.7682 178.919C16.4182 179.438 17.1012 179.95 17.8512 180.451C18.8082 181.091 19.8612 181.711 20.9752 182.319C21.6422 182.682 22.3362 183.04 23.0572 183.392C24.7242 184.205 26.5172 184.989 28.4572 185.733C29.1342 185.992 29.8322 186.245 30.5402 186.495C31.4352 186.812 32.3532 187.122 33.2972 187.424C33.9762 187.641 34.6762 187.851 35.3802 188.06C36.2022 188.305 37.0422 188.544 37.8982 188.778C38.5842 188.965 39.2742 189.151 39.9802 189.331C40.6462 189.5 41.3192 189.668 42.0032 189.831C42.6862 189.994 43.3852 190.151 44.0862 190.307C44.9142 190.491 45.7522 190.673 46.6032 190.847C47.2932 190.989 47.9822 191.131 48.6862 191.266C49.8532 191.49 51.0372 191.705 52.2432 191.911V209.28C52.2432 210.94 52.7182 212.487 53.5272 213.809C54.0762 214.708 54.7822 215.5 55.6092 216.147C56.8122 217.086 58.2652 217.716 59.8522 217.92C60.2182 217.967 60.5882 217.999 60.9672 217.999C61.2942 217.999 61.6172 217.978 61.9352 217.942C63.9842 217.715 65.8192 216.776 67.1902 215.377C67.6832 214.873 68.1122 214.306 68.4732 213.696C69.2392 212.398 69.6872 210.892 69.6872 209.28V205.824V203.509V201.205V198.902V197.707C69.6872 196.35 70.2342 195.121 71.1152 194.219C72.0242 194.291 72.9472 194.353 73.8692 194.415C74.4722 194.747 75.0952 195.045 75.7352 195.311C76.4352 195.602 77.1622 195.839 77.9022 196.046C78.9142 196.328 79.9532 196.546 81.0252 196.657C81.6742 196.724 82.3322 196.761 82.9982 196.761H83.1082H86.9272H89.0102H98.9892H99.7372C100.187 196.761 100.629 196.724 101.071 196.693C102.944 196.562 104.738 196.159 106.423 195.523C107.241 195.214 108.041 194.869 108.801 194.455L108.81 194.452C109.761 194.389 110.71 194.324 111.648 194.252C111.66 194.265 111.67 194.282 111.683 194.295C112.179 194.823 112.55 195.461 112.781 196.166C112.94 196.654 113.049 197.166 113.049 197.707V209.28C113.049 211.18 113.667 212.935 114.703 214.37C115.136 214.969 115.637 215.515 116.205 215.987C116.317 216.08 116.436 216.163 116.553 216.25C117.187 216.726 117.885 217.116 118.636 217.407C119.61 217.784 120.665 217.999 121.772 217.999C122.63 217.999 123.457 217.87 124.241 217.638C124.982 217.418 125.679 217.1 126.324 216.703C128.819 215.167 130.492 212.418 130.492 209.28V191.993C130.752 191.949 131.011 191.905 131.27 191.86C131.972 191.739 132.663 191.613 133.352 191.486C135.548 191.08 137.672 190.643 139.724 190.177C140.752 189.944 141.759 189.702 142.748 189.454C146.274 188.57 149.562 187.597 152.565 186.54C153.552 186.193 154.502 185.835 155.428 185.47C160.457 183.489 164.561 181.259 167.558 178.84C169.054 177.633 171.274 178.703 171.274 180.625V212.622ZM26.7842 160.27V163.111C26.7842 168.634 31.2612 173.111 36.7842 173.111H39.3672V173.908C39.3672 176.924 40.0752 179.775 41.3312 182.309C42.5022 184.67 40.3902 187.287 37.8502 186.583C22.0312 182.198 11.9552 175.972 11.9552 169.19C11.9552 165.021 15.7712 161.064 22.3812 157.613C24.3812 156.569 26.7842 158.013 26.7842 160.27ZM69.6042 192.908C68.4192 194.163 67.6872 195.849 67.6872 197.707V209.041C67.6872 212.457 65.2382 215.506 61.8502 215.942C57.7512 216.469 54.2432 213.276 54.2432 209.28V195.877C54.2432 194.186 55.6432 192.782 57.3312 192.879C57.6742 192.898 58.0192 192.908 58.3672 192.908H69.6042ZM108.826 184.266C109.851 182.544 110.62 180.324 110.62 177.54C110.621 173.751 112.679 170.176 116.165 168.691C123.446 165.59 130.471 171.124 130.064 178.117C129.762 183.315 125.235 187.269 120.029 187.269H110.55C109.005 187.269 108.036 185.593 108.826 184.266ZM113.132 192.908H124.367C124.716 192.908 125.061 192.898 125.404 192.879C127.092 192.782 128.492 194.186 128.492 195.877V209.041C128.492 212.457 126.043 215.506 122.656 215.942C118.557 216.47 115.049 213.277 115.049 209.28V197.707C115.049 195.849 114.316 194.163 113.132 192.908ZM28.7842 152.569C28.7842 148.151 32.3662 144.569 36.7842 144.569H43.7772C44.3292 144.569 44.7772 144.121 44.7772 143.569C44.7772 143.017 44.3292 142.569 43.7772 142.569H43.3612C42.3192 142.569 41.5042 141.623 41.7062 140.602C43.2492 132.806 50.1262 126.908 58.3672 126.908H124.367C132.609 126.908 139.486 132.806 141.029 140.602C141.231 141.623 140.416 142.569 139.374 142.569C138.822 142.569 138.374 143.017 138.374 143.569C138.374 144.121 138.822 144.569 139.374 144.569H146.367C150.786 144.569 154.367 148.151 154.367 152.569V163.111C154.367 167.529 150.786 171.111 146.367 171.111H139.374C138.822 171.111 138.374 171.558 138.374 172.111C138.374 172.663 138.822 173.111 139.374 173.111H140.57C141.01 173.111 141.367 173.468 141.367 173.908C141.367 183.297 133.756 190.908 124.367 190.908H113.421C113.919 190.39 114.383 189.841 114.82 189.269H120.007C126.112 189.269 131.455 184.747 132.028 178.67C132.684 171.696 127.192 165.809 120.351 165.809H120.266C119.426 165.81 118.737 165.122 118.737 164.281V163.19C118.737 158.771 115.156 155.19 110.737 155.19H105.666C105.114 155.19 104.666 155.637 104.666 156.19C104.666 156.742 105.114 157.19 105.666 157.19H110.737C114.051 157.19 116.737 159.876 116.737 163.19V164.398C116.165 165.348 115.717 166.094 115.145 167.044C111.283 168.965 108.62 172.942 108.62 177.539C108.62 181.201 107.056 183.701 105.552 185.268C104.218 186.656 102.929 187.314 102.82 187.368C102.4 187.571 102.176 188.037 102.28 188.492C102.368 188.881 102.682 189.16 103.062 189.236C103.126 189.248 103.187 189.269 103.254 189.269H112.213C109.105 192.636 104.67 194.761 99.7372 194.761H82.9982C73.6102 194.761 65.9982 187.149 65.9982 177.761V167.056V163.19C65.9982 159.876 68.6852 157.19 71.9982 157.19H99.4192C99.9712 157.19 100.419 156.742 100.419 156.19C100.419 155.637 99.9712 155.19 99.4192 155.19H71.9982C67.5802 155.19 63.9982 158.771 63.9982 163.19V177.761C63.9982 182.109 65.4742 186.114 67.9442 189.317C68.4442 189.967 67.9592 190.908 67.1392 190.908H58.3672C48.9792 190.908 41.3672 183.297 41.3672 173.908C41.3672 173.468 41.7252 173.111 42.1652 173.111H43.7772C44.3292 173.111 44.7772 172.663 44.7772 172.111C44.7772 171.558 44.3292 171.111 43.7772 171.111H36.7842C32.3662 171.111 28.7842 167.529 28.7842 163.111V152.569ZM45.3672 129.361C45.3672 122.192 51.1992 116.361 58.3672 116.361H124.367C131.536 116.361 137.367 122.192 137.367 129.361V130.09C133.965 126.887 129.398 124.908 124.367 124.908H58.3672C53.3372 124.908 48.7702 126.887 45.3672 130.09V129.361ZM225.869 107.895C222.506 108.948 218.975 108.349 216.192 106.304C215.856 106.057 215.715 105.607 215.85 105.212C216.971 101.946 219.53 99.4413 222.892 98.3883C226.256 97.3373 229.787 97.9353 232.569 99.9793C232.906 100.226 233.047 100.677 232.911 101.072C231.79 104.338 229.231 106.843 225.869 107.895ZM229.621 93.5313C230.234 93.9303 230.776 94.4013 231.242 94.9273C231.906 95.6783 231.112 96.8233 230.158 96.5103C227.89 95.7643 225.433 95.6703 223.022 96.2783C222.623 95.4753 222.355 94.6063 222.245 93.6973C222.183 93.1893 222.495 92.7253 222.984 92.5743C225.212 91.8913 227.611 92.2213 229.621 93.5313ZM296.615 212.999H246.42C240.345 212.999 235.42 208.074 235.42 201.999V196.853C235.883 196.882 236.338 196.896 236.768 196.896C237.953 196.896 238.962 196.803 239.502 196.718C246.532 195.613 250.416 190.362 251.146 185.648C251.244 185.015 251.278 184.422 251.252 183.879C251.188 182.519 251.895 181.251 253.021 180.485C253.383 180.24 253.738 179.984 254.085 179.715C259.541 175.505 261.66 169.922 259.899 164.397C258.598 160.311 255.633 156.663 251.55 154.125C247.53 151.626 243.044 150.73 239.248 151.665L239.206 151.675C237.282 152.153 235.42 150.697 235.42 148.713V63.8863C237.122 66.1793 239.559 67.8633 242.456 68.6293C243.576 68.9263 244.704 69.0713 245.819 69.0713C249.2 69.0713 252.449 67.7343 254.922 65.2363C255.176 64.9803 255.277 64.5973 255.184 64.2493C253.97 59.7363 250.548 56.3283 246.03 55.1333C243.332 54.4193 240.587 54.5853 238.112 55.5403C236.812 56.0423 235.42 55.0643 235.42 53.6713V51.9993C235.42 51.4473 234.972 50.9993 234.42 50.9993C233.867 50.9993 233.42 51.4473 233.42 51.9993V90.4313C233.42 91.8043 231.895 92.6293 230.745 91.8773L230.713 91.8563C227.693 89.8863 223.973 89.6883 220.761 91.3263C220.441 91.4903 220.224 91.8223 220.204 92.1803C220.11 93.8653 220.443 95.4813 221.118 96.9343C217.27 98.5523 214.476 101.848 213.556 105.995C213.478 106.346 213.596 106.724 213.861 106.969C216.298 109.22 219.378 110.407 222.557 110.407C223.856 110.407 225.172 110.209 226.466 109.804C228.023 109.317 229.429 108.563 230.645 107.594C231.768 106.7 233.42 107.469 233.42 108.904V187.273C232.368 188.687 231.628 189.683 230.577 191.097C230.035 191.254 229.573 191.521 229.275 191.982C229.021 192.375 228.809 193.053 229.237 194.05C229.599 194.892 230.319 195.497 231.221 195.927C232.584 196.574 233.42 197.985 233.42 199.494V205.999C233.42 209.865 230.286 212.999 226.42 212.999H203.636C202.592 212.999 201.733 212.196 201.649 211.155C201.538 209.783 201.316 208.425 200.98 207.09H202.036C203.027 207.09 203.829 206.287 203.829 205.296V201.843C203.829 198.602 201.203 195.976 197.963 195.976H197.962C194.722 195.976 192.096 198.602 192.096 201.843V205.297C192.096 206.287 192.898 207.09 193.888 207.09H194.945C194.609 208.424 194.387 209.782 194.276 211.155C194.192 212.196 193.333 212.999 192.289 212.999H181.245C176.828 212.999 173.249 209.42 173.252 205.003C173.261 192.365 173.274 169.19 173.274 169.19C173.274 163.142 166.996 157.646 156.367 153.29V152.569C156.367 147.046 151.89 142.569 146.367 142.569H145.951C144.525 142.569 143.259 141.586 142.98 140.188C142.396 137.257 141.137 134.569 139.367 132.289V129.361C139.367 121.076 132.652 114.361 124.367 114.361H58.3672C50.0832 114.361 43.3672 121.076 43.3672 129.361V132.289C42.9662 132.807 42.5932 133.345 42.2462 133.903C42.0872 134.157 41.9242 134.41 41.7772 134.673C40.8362 136.357 40.1502 138.199 39.7612 140.148C39.4782 141.561 38.2252 142.569 36.7842 142.569C31.2612 142.569 26.7842 147.046 26.7842 152.569V153.322C16.2012 157.672 9.95522 163.157 9.95522 169.19C9.95522 169.19 9.96822 192.366 9.97622 205.005C9.97922 209.42 6.40122 212.999 1.98522 212.999H-5.42678C-5.75378 212.999 -6.02878 213.166 -6.21178 213.407C-6.33878 213.575 -6.42678 213.773 -6.42678 213.999C-6.42678 214.552 -5.97978 214.999 -5.42678 214.999H10.2992C13.9822 228.321 48.3642 238.441 91.6152 238.441C134.865 238.441 169.246 228.321 172.929 214.999H195.979H199.946H296.615C297.167 214.999 297.615 214.552 297.615 213.999C297.615 213.447 297.167 212.999 296.615 212.999ZM-21.8154 53.0123C-19.1674 53.1573 -16.8134 54.5763 -15.4394 56.8873C-14.8094 57.9453 -14.4424 59.0953 -14.3384 60.2603C-14.1144 62.7773 -16.8884 64.4473 -18.9964 63.0553C-19.9794 62.4063 -20.8214 61.5303 -21.4544 60.4653C-22.8294 58.1553 -22.9524 55.4093 -21.8154 53.0123ZM-70.3244 203.138H-71.7744V200.255C-71.7744 198.238 -70.1334 196.596 -68.1154 196.596C-66.0984 196.596 -64.4574 198.238 -64.4574 200.255V203.138H-65.9074H-70.3244ZM-67.7734 212.999H-68.4594C-68.9374 212.999 -69.3244 212.612 -69.3244 212.134V205.138H-66.9074V212.134C-66.9074 212.612 -67.2954 212.999 -67.7734 212.999ZM-80.7904 212.999H-81.3054C-81.7824 212.999 -82.1704 212.612 -82.1704 212.134V195.597H-79.9254V212.134C-79.9254 212.612 -80.3134 212.999 -80.7904 212.999ZM-85.2704 192.427V186.548C-85.2704 184.22 -83.3764 182.326 -81.0474 182.326C-78.7194 182.326 -76.8264 184.22 -76.8264 186.548V193.597H-84.0364C-84.3874 193.148 -84.8014 192.753 -85.2704 192.427ZM-85.0354 212.999H-85.0364C-85.5134 212.999 -85.9014 212.612 -85.9014 212.134V201.954H-84.1704V212.134C-84.1704 212.612 -84.5584 212.999 -85.0354 212.999ZM-90.0854 199.954H-92.1524V197.071C-92.1524 195.054 -90.5104 193.413 -88.4934 193.413C-86.4764 193.413 -84.8354 195.054 -84.8354 197.071V199.954H-86.9014H-90.0854ZM-89.0854 212.999H-87.9014V201.954H-89.0854V212.999ZM-43.7294 108.983C-46.9484 107.041 -48.8864 103.711 -48.9944 99.9903C-45.6524 98.3503 -41.8014 98.5123 -38.5844 100.453C-36.2144 101.882 -34.5394 104.064 -33.7764 106.599C-33.2614 108.314 -34.4114 110.068 -36.1724 110.392C-38.7334 110.863 -41.3974 110.39 -43.7294 108.983ZM-11.4244 212.999H-20.7744H-21.1184V63.9273C-21.0044 64.0263 -20.8934 64.1303 -20.7744 64.2233C-19.0554 65.5853 -16.9204 66.3523 -14.6284 66.3523C-14.5724 66.3523 -14.5164 66.3523 -14.4604 66.3513C-14.1054 66.3453 -13.7804 66.1523 -13.6054 65.8433C-11.8314 62.6983 -11.8744 58.9683 -13.7194 55.8653C-15.3354 53.1493 -18.0384 51.4463 -21.1044 51.0863C-21.1094 51.0793 -21.1124 51.0753 -21.1184 51.0693V41.9993C-21.1184 41.4473 -21.5664 40.9993 -22.1184 40.9993C-22.6704 40.9993 -23.1184 41.4473 -23.1184 41.9993V51.2913C-23.1844 51.3553 -23.2414 51.4283 -23.2884 51.5103C-25.0624 54.6543 -25.0194 58.3853 -23.1734 61.4883C-23.1574 61.5163 -23.1354 61.5403 -23.1184 61.5683V61.9993V208.999C-23.1184 211.208 -24.9094 212.999 -27.1184 212.999C-29.3274 212.999 -31.1184 211.208 -31.1184 208.999V61.9993V58.6763C-31.1184 58.1243 -31.5664 57.6763 -32.1184 57.6763C-32.6704 57.6763 -33.1184 58.1243 -33.1184 58.6763V103.178C-34.1814 101.397 -35.6804 99.8693 -37.5504 98.7413C-41.5544 96.3253 -46.3854 96.2383 -50.4744 98.5083C-50.7854 98.6813 -50.9874 99.0163 -50.9954 99.3713C-51.0974 104.047 -48.7674 108.28 -44.7624 110.696C-42.6914 111.945 -40.4004 112.571 -38.1054 112.571H-38.0534C-35.3544 112.559 -33.1184 114.637 -33.1184 117.336V210.999C-33.1184 212.104 -34.0144 212.999 -35.1184 212.999H-64.0424C-64.5204 212.999 -64.9074 212.612 -64.9074 212.134V205.138H-63.4574C-62.9054 205.138 -62.4574 204.69 -62.4574 204.138V200.453C-62.4574 197.577 -64.5194 195.011 -67.3714 194.644C-70.8224 194.201 -73.7744 196.89 -73.7744 200.255V204.138C-73.7744 204.69 -73.3274 205.138 -72.7744 205.138H-71.3244V212.134C-71.3244 212.612 -71.7124 212.999 -72.1904 212.999H-77.0604C-77.5374 212.999 -77.9254 212.612 -77.9254 212.134V195.597H-75.8264C-75.2734 195.597 -74.8264 195.149 -74.8264 194.597V186.548C-74.8264 183.981 -76.3884 181.774 -78.6124 180.825C-79.3394 180.514 -79.7744 179.758 -79.7744 178.967V111.908C-79.7744 111.356 -80.2224 110.908 -80.7744 110.908C-81.3274 110.908 -81.7744 111.356 -81.7744 111.908V178.802C-81.7744 179.643 -82.3004 180.399 -83.0954 180.677C-85.5234 181.524 -87.2704 183.835 -87.2704 186.548V191.55C-88.1284 191.36 -89.0544 191.348 -90.0214 191.637C-92.5324 192.387 -94.1524 194.839 -94.1524 197.459V200.954C-94.1524 201.506 -93.7044 201.954 -93.1524 201.954H-91.0854V212.134C-91.0854 212.612 -91.4734 212.999 -91.9504 212.999H-113.385C-113.937 212.999 -114.385 213.447 -114.385 213.999C-114.385 214.552 -113.937 214.999 -113.385 214.999H-11.4244C-10.8724 214.999 -10.4244 214.552 -10.4244 213.999C-10.4244 213.773 -10.5134 213.575 -10.6404 213.408C-10.8224 213.166 -11.0984 212.999 -11.4244 212.999Z" fill="#202225"/>
<path fill-rule="evenodd" clip-rule="evenodd" d="M85.1016 87.7774C86.6876 85.9294 88.9956 84.8694 91.4306 84.8694C93.8666 84.8694 96.1736 85.9294 97.7596 87.7774C100.01 90.3984 100.406 94.1944 98.7446 97.2224L92.1856 109.183C91.9646 109.586 91.5836 109.63 91.4306 109.63C91.2776 109.63 90.8966 109.586 90.6756 109.183L84.1166 97.2224C82.4556 94.1944 82.8516 90.3984 85.1016 87.7774ZM88.9216 110.145C89.4326 111.075 90.3706 111.63 91.4316 111.63C92.4916 111.63 93.4296 111.074 93.9396 110.145L100.499 98.1844C102.558 94.4294 102.067 89.7234 99.2776 86.4744C97.3096 84.1834 94.4506 82.8694 91.4306 82.8694C88.4116 82.8694 85.5516 84.1834 83.5836 86.4744C80.7946 89.7244 80.3036 94.4294 82.3626 98.1844L88.9216 110.145ZM54.3691 165.552C56.4111 165.552 58.4541 164.852 59.9021 163.452C60.4981 162.877 60.5141 161.927 59.9381 161.331C59.3621 160.735 58.4121 160.72 57.8171 161.295C56.0771 162.977 52.6611 162.978 50.9211 161.295C50.3271 160.72 49.3761 160.735 48.8001 161.331C48.2241 161.927 48.2411 162.876 48.8361 163.452C50.2841 164.852 52.3261 165.552 54.3691 165.552ZM128.367 165.551C130.409 165.551 132.452 164.851 133.9 163.452C134.495 162.876 134.512 161.926 133.936 161.331C133.359 160.734 132.409 160.719 131.815 161.295C130.075 162.978 126.659 162.977 124.919 161.295C124.324 160.719 123.374 160.734 122.798 161.331C122.222 161.926 122.238 162.876 122.834 163.452C124.282 164.851 126.324 165.551 128.367 165.551ZM260.861 137.338H261.371C261.923 137.338 262.371 137.786 262.371 138.338V138.848C262.371 139.401 262.819 139.848 263.371 139.848C263.924 139.848 264.371 139.401 264.371 138.848V138.338C264.371 137.786 264.819 137.338 265.371 137.338H265.882C266.434 137.338 266.882 136.89 266.882 136.338C266.882 135.786 266.434 135.338 265.882 135.338H265.371C264.819 135.338 264.371 134.89 264.371 134.338V133.828C264.371 133.276 263.924 132.828 263.371 132.828C262.819 132.828 262.371 133.276 262.371 133.828V134.338C262.371 134.89 261.923 135.338 261.371 135.338H260.861C260.309 135.338 259.861 135.786 259.861 136.338C259.861 136.89 260.309 137.338 260.861 137.338ZM23.1748 89.0396C24.0088 89.0396 24.6848 89.7156 24.6848 90.5496C24.6848 91.1026 25.1328 91.5496 25.6848 91.5496C26.2378 91.5496 26.6848 91.1026 26.6848 90.5496C26.6848 89.7156 27.3608 89.0396 28.1948 89.0396C28.7468 89.0396 29.1948 88.5916 29.1948 88.0396C29.1948 87.4876 28.7468 87.0396 28.1948 87.0396C27.3608 87.0396 26.6848 86.3636 26.6848 85.5296C26.6848 84.9776 26.2378 84.5296 25.6848 84.5296C25.1328 84.5296 24.6848 84.9776 24.6848 85.5296C24.6848 86.3636 24.0088 87.0396 23.1748 87.0396C22.6228 87.0396 22.1748 87.4876 22.1748 88.0396C22.1748 88.5916 22.6228 89.0396 23.1748 89.0396ZM47.9106 97.4639C48.7446 97.4639 49.4206 98.1399 49.4206 98.9739C49.4206 99.5259 49.8686 99.9739 50.4206 99.9739C50.9726 99.9739 51.4206 99.5259 51.4206 98.9739C51.4206 98.1399 52.0966 97.4639 52.9306 97.4639C53.4826 97.4639 53.9306 97.0159 53.9306 96.4639C53.9306 95.9119 53.4826 95.4639 52.9306 95.4639C52.0966 95.4639 51.4206 94.7879 51.4206 93.9539C51.4206 93.4019 50.9726 92.9539 50.4206 92.9539C49.8686 92.9539 49.4206 93.4019 49.4206 93.9539C49.4206 94.7879 48.7446 95.4639 47.9106 95.4639C47.3586 95.4639 46.9106 95.9119 46.9106 96.4639C46.9106 97.0159 47.3586 97.4639 47.9106 97.4639ZM18.2515 114.231C18.5075 114.231 18.7635 114.133 18.9585 113.938L20.1415 112.755C20.5325 112.364 20.5325 111.731 20.1415 111.341C19.7515 110.95 19.1185 110.95 18.7275 111.341L17.5445 112.524C17.1535 112.915 17.1535 113.547 17.5445 113.938C17.7395 114.133 17.9955 114.231 18.2515 114.231ZM12.335 120.147C12.591 120.147 12.847 120.049 13.042 119.854L14.226 118.67C14.616 118.28 14.616 117.647 14.226 117.256C13.835 116.866 13.202 116.866 12.812 117.256L11.628 118.44C11.237 118.831 11.237 119.463 11.628 119.854C11.823 120.049 12.079 120.147 12.335 120.147ZM18.7275 119.854C18.9225 120.049 19.1785 120.147 19.4345 120.147C19.6905 120.147 19.9465 120.049 20.1415 119.854C20.5325 119.464 20.5325 118.831 20.1415 118.44L18.9585 117.256C18.5675 116.866 17.9355 116.866 17.5445 117.256C17.1535 117.646 17.1535 118.28 17.5445 118.67L18.7275 119.854ZM12.8115 113.938C13.0065 114.133 13.2625 114.231 13.5185 114.231C13.7745 114.231 14.0305 114.133 14.2255 113.938C14.6165 113.547 14.6165 112.914 14.2255 112.524L13.0415 111.341C12.6515 110.95 12.0175 110.95 11.6275 111.341C11.2375 111.731 11.2375 112.365 11.6275 112.755L12.8115 113.938ZM252.614 123.957C251.781 123.957 251.104 123.279 251.104 122.447C251.104 121.614 251.781 120.937 252.614 120.937C253.447 120.937 254.124 121.614 254.124 122.447C254.124 123.279 253.447 123.957 252.614 123.957ZM252.614 118.937C250.679 118.937 249.104 120.512 249.104 122.447C249.104 124.382 250.679 125.957 252.614 125.957C254.55 125.957 256.124 124.382 256.124 122.447C256.124 120.512 254.55 118.937 252.614 118.937Z" fill="#202225"/>
</g>
<defs>
<clipPath id="clip0">
<rect width="421" height="218" fill="white"/>
</clipPath>
</defs>
</svg>
