<svg width="433" height="232" viewBox="0 0 433 232" fill="none" xmlns="http://www.w3.org/2000/svg">
<path fill-rule="evenodd" clip-rule="evenodd" d="M114.276 17.0398H292.615C303.479 17.0398 312.285 25.8468 312.285 36.7098V36.7108C312.285 47.5738 303.479 56.3808 292.615 56.3808H287.702C274.879 56.3808 264.484 66.7758 264.484 79.5998C264.484 92.4228 274.879 102.818 287.702 102.818H409.987C422.446 102.818 432.546 112.918 432.546 125.377C432.546 137.836 422.446 147.936 409.987 147.936H407.262C396.89 147.936 388.482 156.344 388.482 166.716V166.72C388.482 177.092 380.074 185.499 369.702 185.499H110.129C92.5605 185.499 78.3185 171.258 78.3185 153.689V153.687C78.3185 136.119 64.0765 121.878 46.5085 121.878H36.6905C16.4265 121.878 0.00050354 105.451 0.00050354 85.1868V85.1828C0.00050354 64.9188 16.4265 48.4918 36.6905 48.4918H82.8235C91.5085 48.4918 98.5495 41.4518 98.5495 32.7668C98.5495 24.0808 105.59 17.0398 114.276 17.0398Z" fill="#4F545C" fill-opacity="0.3"/>
<circle cx="80.5" cy="148.5" r="22.5" fill="black"/>
<rect x="111" y="49" width="35" height="24" fill="#21A147"/>
<path fill-rule="evenodd" clip-rule="evenodd" d="M135.055 59.3931C135.055 60.3971 135.252 61.3541 135.6 62.2371C135.672 62.4201 135.752 62.5971 135.837 62.7721C134.346 64.5201 133.44 66.7801 133.44 69.2521V72.7401H117.455C118.044 72.1171 118.532 71.4011 118.898 70.6161C119.379 69.5871 119.656 68.4431 119.656 67.2331V60.2761C119.656 59.8321 119.847 59.4031 120.181 59.1011C120.519 58.7961 120.951 58.6511 121.406 58.6991C122.203 58.7791 122.827 59.5251 122.827 60.3971V62.9781C122.827 64.8801 123.961 66.5121 125.584 67.2621C126.185 67.5401 126.849 67.7061 127.554 67.7061C129.826 67.7061 131.726 66.0931 132.178 63.9541C132.245 63.6381 132.282 63.3131 132.282 62.9781V57.7671C132.282 57.3791 132.449 57.0051 132.742 56.7401C133.037 56.4731 133.415 56.3461 133.812 56.3881C134.509 56.4591 135.055 57.1141 135.055 57.8811V59.3931Z" fill="#D6784B"/>
<path fill-rule="evenodd" clip-rule="evenodd" d="M99.9874 63.1958C100.582 63.2288 101.057 63.4728 101.446 63.9138V72.7398H93.6134C93.5734 72.4188 93.5564 72.0898 93.5864 71.7488C93.7814 69.4658 95.2144 66.3288 96.8464 64.6078C97.7034 63.7048 98.9764 63.1418 99.9874 63.1958Z" fill="#7A8EC7"/>
<path fill-rule="evenodd" clip-rule="evenodd" d="M87.4464 68.242C87.9984 68.242 88.4464 68.689 88.4464 69.242V72.74H91.5954C91.5624 72.359 91.5594 71.97 91.5934 71.577C91.8304 68.814 93.4294 65.304 95.3954 63.231C96.6544 61.905 98.5014 61.108 100.1 61.199C100.582 61.226 101.026 61.35 101.446 61.524V59.558C101.446 59.283 101.222 59.058 100.946 59.058H88.3954C88.4284 59.22 88.4464 59.388 88.4464 59.558V62.448C88.4464 63.001 87.9984 63.448 87.4464 63.448V68.242Z" fill="#99ABD8"/>
<path fill-rule="evenodd" clip-rule="evenodd" d="M54.851 70.5404C54.175 71.2104 53.835 71.9164 53.837 72.6394C53.837 72.658 53.84 72.6761 53.8431 72.6944C53.8456 72.7094 53.8481 72.7246 53.849 72.7404H48.446V72.7334C48.553 72.6844 48.655 72.6234 48.743 72.5354C50.198 71.0824 52.682 69.2564 54.894 68.8894C55.493 68.7944 55.962 68.9294 56.018 69.0354C56.1579 69.3092 55.5518 69.8777 55.1497 70.2547L55.149 70.2554C55.043 70.3554 54.942 70.4514 54.851 70.5404ZM70.1482 59.1458C66.3732 60.4832 62.4707 61.8658 58.608 62.617C57.73 62.789 56.231 62.947 56.056 62.086C55.709 60.386 58.761 59.395 59.111 59.288C59.26 59.242 59.385 59.159 59.492 59.058H63.946H70.396C70.3638 59.0698 70.331 59.0812 70.2982 59.0925C70.2617 59.1052 70.2253 59.1178 70.19 59.131L70.1482 59.1458Z" fill="#6074AA"/>
<path fill-rule="evenodd" clip-rule="evenodd" d="M72.5426 66.198C72.6566 66.038 72.7856 65.884 72.9236 65.734C73.6276 64.979 77.1976 62.302 79.4946 63.074C80.0376 63.258 80.9716 63.802 81.1246 65.377C81.3316 67.508 79.0346 69.927 76.7606 70.848C76.1056 71.113 75.4796 71.244 74.9016 71.244C73.9016 71.244 73.0446 70.853 72.4346 70.089C71.5986 69.04 71.6436 67.44 72.5426 66.198ZM54.5666 66.917C55.7266 66.721 57.1866 66.939 57.7946 68.119C58.6276 69.735 57.2546 71.022 56.5176 71.715L56.2596 71.961C55.8776 72.34 55.8366 72.556 55.8366 72.632C55.8366 72.665 55.8556 72.703 55.8706 72.74H58.0366C58.4466 72.473 58.9096 72.116 59.4566 71.658C59.7356 71.423 59.9996 71.203 60.2406 71.02C61.4126 70.136 63.2356 69.495 64.6676 70.05C65.6016 70.412 66.2316 71.235 66.4416 72.366C66.4646 72.493 66.4756 72.616 66.4866 72.74H86.4466V69.242C86.4466 68.689 86.8946 68.242 87.4466 68.242V63.448C86.8946 63.448 86.4466 63.001 86.4466 62.448V59.558C86.4466 59.283 86.2226 59.058 85.9466 59.058H76.5086C76.4676 59.078 76.4356 59.11 76.3906 59.124C74.5606 59.703 72.6786 60.37 70.8586 61.015C67.0016 62.384 63.0136 63.798 58.9896 64.58C58.3876 64.697 57.8576 64.749 57.3926 64.749C54.8676 64.749 54.2476 63.23 54.0956 62.486C53.8106 61.09 54.3956 59.942 55.3796 59.058H48.9466C48.6706 59.058 48.4466 59.283 48.4466 59.558V70.108C50.1526 68.667 52.4016 67.275 54.5666 66.917Z" fill="#6074AA"/>
<path fill-rule="evenodd" clip-rule="evenodd" d="M63.943 71.9138C63.363 71.6888 62.266 71.9978 61.444 72.6178C61.398 72.6528 61.342 72.7018 61.295 72.7398H64.476C64.475 72.7368 64.476 72.7338 64.475 72.7308C64.353 72.0728 64.055 71.9568 63.943 71.9138ZM76.0089 68.9949C77.7689 68.2809 79.2229 66.4849 79.1339 65.5699C79.0829 65.0469 78.9169 64.9899 78.8539 64.9689C78.7639 64.9379 78.6599 64.9249 78.5449 64.9249C77.4019 64.9249 75.1189 66.3109 74.3879 67.0979C74.3879 67.0979 74.3869 67.0979 74.3869 67.0989C74.3069 67.1829 74.2329 67.2719 74.1659 67.3659C73.8119 67.8549 73.7379 68.5149 73.9979 68.8419C74.4809 69.4449 75.3579 69.2569 76.0089 68.9949Z" fill="#6074AA"/>
<path fill-rule="evenodd" clip-rule="evenodd" d="M130.294 92.8308C130.294 93.3838 129.846 93.8308 129.294 93.8308H32.3075L47.1445 145.76C47.5125 147.048 48.6895 147.935 50.0285 147.935H56.6625C57.1115 135.095 67.6915 124.785 80.6405 124.785C93.5885 124.785 104.169 135.095 104.619 147.935H119.945C118.548 146.335 117.65 144.305 117.483 142.106C117.261 139.185 118.321 136.321 120.393 134.25C122.97 131.672 126.768 130.658 130.393 131.738C133.717 132.727 136.228 135.475 137.199 138.804L139.863 147.935H144.992V130.985C144.992 124.541 148.219 118.842 153.141 115.406C154.414 114.518 154.26 112.642 152.874 111.943C146.664 108.819 142.391 102.398 142.391 94.9848V93.5958C141.367 93.4878 140.391 93.2238 139.482 92.8308H130.294Z" fill="#B78355"/>
<path fill-rule="evenodd" clip-rule="evenodd" d="M78.0079 138.619C78.5449 138.475 79.0889 138.802 79.2259 139.337C79.2319 139.358 79.2259 139.38 79.2299 139.401C79.6909 139.333 80.1599 139.285 80.6409 139.285C81.9409 139.285 83.1789 139.548 84.3069 140.02C84.3149 140.004 84.3139 139.985 84.3229 139.969C84.5889 139.484 85.1969 139.305 85.6809 139.572C89.0489 141.418 91.1409 144.947 91.1409 148.785C91.1409 154.575 86.4299 159.285 80.6409 159.285C74.8509 159.285 70.1409 154.575 70.1409 148.785C70.1409 143.995 73.3759 139.814 78.0079 138.619ZM67.9749 142.811C67.0899 144.686 66.6409 146.696 66.6409 148.785C66.6409 156.505 72.9209 162.785 80.6409 162.785C88.3609 162.785 94.6409 156.505 94.6409 148.785C94.6409 141.065 88.3609 134.785 80.6409 134.785C78.8209 134.785 77.0509 135.129 75.3789 135.807C74.8839 136.008 74.3289 135.778 74.1049 135.3C73.0219 135.826 72.0039 136.464 71.0859 137.223C71.4409 137.625 71.4209 138.236 71.0279 138.607C70.5049 139.101 70.0149 139.641 69.5729 140.211C69.3759 140.465 69.0809 140.598 68.7819 140.598C68.5789 140.598 68.3759 140.531 68.1989 140.403C67.9599 140.759 67.7399 141.129 67.5299 141.505C68.0029 141.753 68.2049 142.325 67.9749 142.811Z" fill="#5E534E"/>
<rect x="282" y="132" width="40" height="27" fill="#218541"/>
<rect x="322" y="132" width="14" height="24" fill="#21A147"/>
<path fill-rule="evenodd" clip-rule="evenodd" d="M78.5079 140.555C74.7589 141.523 72.1409 144.908 72.1409 148.785C72.1409 153.472 75.9539 157.285 80.6409 157.285C85.3279 157.285 89.1409 153.472 89.1409 148.785C89.1409 145.679 87.4469 142.821 84.7199 141.326C84.2519 141.07 84.0799 140.496 84.3069 140.021C83.1789 139.548 81.9409 139.285 80.6409 139.285C80.1599 139.285 79.6909 139.333 79.2299 139.402C79.3269 139.915 79.0209 140.423 78.5079 140.555Z" fill="#202223"/>
<path fill-rule="evenodd" clip-rule="evenodd" d="M322.711 161.005V170.285C322.711 170.456 322.693 170.624 322.66 170.785H335.211C335.487 170.785 335.711 170.561 335.711 170.285V143.425C334.957 142.271 333.657 141.539 332.292 141.606C330.123 141.645 328.358 143.442 328.358 145.61V148.635C328.358 152.558 325.47 155.81 321.711 156.401V160.005C322.263 160.005 322.711 160.452 322.711 161.005Z" fill="#E79874"/>
<path fill-rule="evenodd" clip-rule="evenodd" d="M320.711 170.285V161.005C320.711 160.452 321.159 160.005 321.711 160.005V156.4C321.312 156.463 320.905 156.505 320.488 156.505C316.139 156.505 312.608 152.974 312.608 148.635V145.314C312.608 143.318 310.984 141.694 308.988 141.694C306.982 141.694 305.358 143.318 305.358 145.314V148.165C305.358 151.815 302.389 154.785 298.738 154.785C295.078 154.785 292.108 151.815 292.108 148.165C292.108 144.153 288.844 140.889 284.833 140.889H283.987C283.551 140.889 283.126 140.934 282.711 141.009V170.285C282.711 170.56 282.935 170.785 283.211 170.785H298.211H320.211C320.487 170.785 320.711 170.56 320.711 170.285Z" fill="#8E5134"/>
<path d="M114 163.5L122 164L112 177.5L110 204L121 227V229.5L111.5 223.5L102.5 209L114 163.5Z" fill="#8C99B4"/>
<path d="M89 189.5L176 190L175.5 194L123.5 194.5L119.5 195.5L95 196L89.5 193.5L89 189.5Z" fill="#463317"/>
<path fill-rule="evenodd" clip-rule="evenodd" d="M103.496 177.93H109.44C110.442 173.677 112.564 168.595 116.962 163.796C112.545 166.151 106.495 170.557 103.496 177.93Z" fill="#BECCE8"/>
<path fill-rule="evenodd" clip-rule="evenodd" d="M89.5147 186.82C89.5147 187.608 90.1557 188.249 90.9427 188.249H93.5847V185.606V181.75H90.9427C90.1557 181.75 89.5147 182.39 89.5147 183.178V186.82Z" fill="#36393F"/>
<path fill-rule="evenodd" clip-rule="evenodd" d="M108.659 192.004H101.666C102.028 208.804 111.453 217.782 117.426 221.798C108.157 209.613 108.363 195.999 108.659 192.004Z" fill="#BECCE8"/>
<path fill-rule="evenodd" clip-rule="evenodd" d="M248.53 153.785V158.585C248.53 159.357 249.158 159.985 249.93 159.985H260.73C264.259 159.985 267.13 162.856 267.13 166.385C267.13 168.09 266.456 169.637 265.365 170.785H280.21C280.486 170.785 280.71 170.56 280.71 170.285V141.678C278.341 142.879 276.71 145.332 276.71 148.165V153.155C276.71 156.81 273.736 159.785 270.08 159.785C266.42 159.785 263.446 156.812 263.446 153.158V143.954C263.446 143.641 263.324 143.347 263.104 143.128C262.883 142.906 262.589 142.785 262.277 142.785C261.632 142.785 261.108 143.309 261.108 143.953V147.033C261.108 150.476 258.306 153.28 254.862 153.282H254.704H254.7C253.073 153.282 251.544 152.649 250.393 151.499C249.241 150.347 248.607 148.817 248.607 147.188V146.402C248.607 144.672 247.933 143.044 246.709 141.82C245.624 140.734 244.22 140.084 242.71 139.95V142.958C246.214 145.289 248.53 149.27 248.53 153.785Z" fill="#D6784B"/>
<path d="M21.9417 74.5L134 73L142.5 93L24.7667 92L21 78L21.9417 74.5Z" fill="#5E534E"/>
<path fill-rule="evenodd" clip-rule="evenodd" d="M246.93 137.985H243.117C245.01 138.205 246.759 139.041 248.124 140.406C249.725 142.007 250.607 144.137 250.607 146.402V147.188C250.607 148.282 251.033 149.31 251.807 150.084C252.58 150.856 253.608 151.282 254.701 151.282H254.704H254.862C257.202 151.28 259.108 149.375 259.108 147.033V143.953C259.108 142.206 260.529 140.785 262.277 140.785C263.123 140.785 263.919 141.114 264.518 141.713C265.117 142.311 265.446 143.107 265.446 143.954V153.158C265.446 155.71 267.523 157.785 270.076 157.785C272.633 157.785 274.71 155.708 274.71 153.155V148.165C274.71 144.205 277.21 140.826 280.71 139.498V133.285C280.71 133.009 280.486 132.785 280.21 132.785H253.213C252.649 135.742 250.048 137.985 246.93 137.985Z" fill="#21A147"/>
<path fill-rule="evenodd" clip-rule="evenodd" d="M161.392 44.1853H165.544C159.082 46.4253 154.258 52.2453 153.5 59.2513H144.51C145.474 50.7863 152.672 44.1853 161.392 44.1853ZM153.391 93.6511V94.9851C153.391 102.839 158.495 109.542 165.545 111.985H163.991H161.391C152.017 111.985 144.391 104.359 144.391 94.9851V93.6511H153.391Z" fill="#7A8EC7"/>
<path fill-rule="evenodd" clip-rule="evenodd" d="M165.545 111.985H168.483H175.891H192.204V88.2851C192.204 86.9061 193.325 85.7851 194.704 85.7851H196.266C195.829 84.1881 195.576 82.5171 195.576 80.7851V72.9851C195.576 68.4641 199.255 64.7851 203.776 64.7851H214.576C215.128 64.7851 215.576 65.2321 215.576 65.7851H225.13C225.13 65.2321 225.578 64.7851 226.13 64.7851H243.083V61.1851C243.083 51.8111 235.457 44.1851 226.083 44.1851H165.544C159.082 46.4251 154.257 52.2451 153.5 59.2521H158.04C158.592 59.2521 159.04 59.6991 159.04 60.2521C159.04 60.8041 158.592 61.2521 158.04 61.2521H143.44C139.029 61.2521 135.44 64.8401 135.44 69.2521V83.6511C135.44 88.0621 139.029 91.6511 143.44 91.6511H158.04C158.592 91.6511 159.04 92.0981 159.04 92.6511C159.04 93.2041 158.592 93.6511 158.04 93.6511H153.391V94.9851C153.391 102.839 158.496 109.542 165.545 111.985Z" fill="#99ABD8"/>
<rect x="351" y="132" width="39" height="39" fill="#6074AA"/>
<path fill-rule="evenodd" clip-rule="evenodd" d="M204.976 72.9852C204.976 70.3502 206.415 68.0402 208.542 66.7852H203.776C200.357 66.7852 197.576 69.5662 197.576 72.9852V80.7852C197.576 82.5242 197.841 84.2032 198.329 85.7852H205.702C205.238 84.1942 204.976 82.5202 204.976 80.7852V72.9852Z" fill="#B3CAFB"/>
<path fill-rule="evenodd" clip-rule="evenodd" d="M147.44 65.2517C144.679 65.2517 142.44 67.4897 142.44 70.2517V82.6507C142.44 85.4127 144.679 87.6507 147.44 87.6507H154.04C155.145 87.6507 156.04 86.7567 156.04 85.6507V67.2517C156.04 66.1477 155.145 65.2517 154.04 65.2517H147.44Z" fill="#8BA0D2"/>
<path fill-rule="evenodd" clip-rule="evenodd" d="M214.576 66.7849H208.542C206.415 68.0399 204.976 70.3499 204.976 72.9849V80.7849C204.976 82.5199 205.238 84.1939 205.701 85.7849H224.703H231.703H246.703C246.713 85.7849 246.722 85.7879 246.732 85.7879C246.738 85.7879 246.742 85.7849 246.747 85.7849C247.986 85.7849 249.01 86.6929 249.205 87.8779C250.203 85.7159 250.776 83.3179 250.776 80.7849V72.9849C250.776 69.5659 247.995 66.7849 244.576 66.7849H226.13C225.578 66.7849 225.13 66.3379 225.13 65.7849H215.576C215.576 66.3379 215.128 66.7849 214.576 66.7849Z" fill="#C2D2F1"/>
<path fill-rule="evenodd" clip-rule="evenodd" d="M265.13 166.385C265.13 163.958 263.156 161.985 260.73 161.985H249.93C248.055 161.985 246.531 160.459 246.531 158.584V153.784C246.531 149.828 244.425 146.364 241.283 144.426V153.784C241.283 161.23 236.968 167.67 230.717 170.784H240.21H243.21H260.73C263.156 170.784 265.13 168.811 265.13 166.385ZM248.093 127.361C247.696 127.629 247.218 127.785 246.703 127.785H237.25C238.718 130.367 239.808 133.117 240.474 135.985H246.93C249.356 135.985 251.33 134.011 251.33 131.585C251.33 129.564 249.953 127.875 248.093 127.361Z" fill="#7A8EC7"/>
<path fill-rule="evenodd" clip-rule="evenodd" d="M182.62 113.985C186.024 116.196 188.287 120.022 188.291 124.372C188.292 125.151 188.92 125.785 189.691 125.785H192.254C192.222 125.624 192.204 125.456 192.204 125.285V113.985H182.62ZM222.282 170.785C231.656 170.785 239.282 163.159 239.282 153.785V142.985C239.282 137.566 237.791 132.356 234.95 127.785H231.703H224.703H210.459C211.363 128.701 212.007 129.861 212.212 131.177C212.502 133.035 211.969 134.917 210.751 136.339C209.529 137.766 207.758 138.585 205.891 138.585H175.582C174.976 138.585 174.482 139.079 174.482 139.685C174.482 140.292 174.976 140.785 175.582 140.785H177.875C185.044 140.785 190.875 146.617 190.875 153.785V158.585C190.875 159.357 191.503 159.985 192.275 159.985H207.275C210.804 159.985 213.676 162.856 213.676 166.385C213.676 168.09 213.001 169.637 211.911 170.785H216.974H222.282ZM138.692 152.548C138.793 152.447 139.014 152.169 138.894 151.759L135.2 139.096C134.269 135.902 131.415 133.587 128.097 133.334C127.893 133.319 127.689 133.311 127.485 133.311C125.363 133.311 123.321 134.151 121.808 135.664C120.149 137.322 119.3 139.615 119.478 141.954C119.73 145.272 122.045 148.126 125.239 149.058L137.902 152.751C138.312 152.87 138.591 152.65 138.692 152.548Z" fill="#99ABD8"/>
<path fill-rule="evenodd" clip-rule="evenodd" d="M245.383 107.823C245.411 107.834 245.44 107.845 245.472 107.849C246.413 107.977 247.328 107.94 248.204 107.783V107.946C247.652 107.946 247.204 108.393 247.204 108.946V125.285C247.204 125.56 246.98 125.785 246.704 125.785H234.153C234.186 125.623 234.204 125.455 234.204 125.285V119.477C234.204 118.924 233.756 118.477 233.204 118.477V114.785C233.756 114.785 234.204 114.337 234.204 113.785V99.1524C234.347 98.5274 234.43 97.8794 234.43 97.2124V97.0104C234.43 94.5634 236.421 92.5724 238.869 92.5724C241.317 92.5724 243.308 94.5634 243.308 97.0104C243.308 98.2364 243.722 99.2854 244.474 99.9634C244.486 99.9753 244.501 99.9844 244.515 99.9934C244.524 99.9995 244.534 100.006 244.543 100.012C243.298 101.888 242.737 104.14 242.993 106.437C243.018 106.668 243.079 106.892 243.162 107.108L240.197 109.998C239.802 110.384 239.794 111.017 240.18 111.412C240.375 111.614 240.635 111.714 240.895 111.714C241.147 111.714 241.399 111.62 241.594 111.43L245.316 107.8C245.339 107.806 245.361 107.814 245.383 107.823Z" fill="#E79874"/>
<path fill-rule="evenodd" clip-rule="evenodd" d="M207.276 161.985C209.702 161.985 211.676 163.958 211.676 166.385C211.676 168.811 209.702 170.784 207.276 170.784H203.211H200.211H168.483H163.211H162.076C161.354 170.784 160.651 170.628 159.986 170.322C159.93 170.295 159.873 170.275 159.813 170.26C152.264 168.334 146.991 161.559 146.991 153.784V130.985C146.991 121.611 154.617 113.985 163.991 113.985H168.483H175.891C181.62 113.985 186.285 118.645 186.291 124.373C186.293 126.254 187.819 127.784 189.691 127.784H194.704H205.728C207.969 127.784 209.908 129.375 210.236 131.485C210.439 132.783 210.082 134.045 209.233 135.037C208.391 136.021 207.173 136.584 205.891 136.584H175.583C173.873 136.584 172.483 137.975 172.483 139.685C172.483 141.394 173.873 142.784 175.583 142.784H177.876C183.941 142.784 188.876 147.719 188.876 153.784V158.584C188.876 160.459 190.401 161.985 192.276 161.985H207.276Z" fill="#7A8EC7"/>
<path fill-rule="evenodd" clip-rule="evenodd" d="M233.204 114.785C232.652 114.785 232.204 114.338 232.204 113.785V103.003C230.61 104.782 228.304 105.91 225.733 105.91C221.437 105.91 217.942 102.416 217.942 98.1199V96.6059C217.942 95.8409 217.396 95.1849 216.7 95.1149C216.304 95.0749 215.924 95.1999 215.629 95.4669C215.336 95.7299 215.169 96.1049 215.169 96.4939V101.704C215.169 104.311 213.048 106.432 210.441 106.432C207.834 106.432 205.714 104.311 205.714 101.704V99.1239C205.714 98.2519 205.09 97.5059 204.293 97.4259C203.842 97.3759 203.406 97.5209 203.069 97.8269C202.735 98.1289 202.543 98.5559 202.543 99.0019V105.959C202.543 110.389 198.939 113.993 194.509 113.993C194.4 113.993 194.302 113.964 194.204 113.931V125.285C194.204 125.56 194.428 125.785 194.704 125.785H205.728H224.704H231.704C231.98 125.785 232.204 125.56 232.204 125.285V119.477C232.204 118.925 232.652 118.477 233.204 118.477V114.785Z" fill="#D6784B"/>
<path d="M95 180L113.5 179.5L144.5 181H175.5V190H141H95.5L95 180Z" fill="#6C4F24"/>
<path fill-rule="evenodd" clip-rule="evenodd" d="M232.204 98.907V88.285C232.204 88.01 231.98 87.785 231.704 87.785H224.704H194.704C194.428 87.785 194.204 88.01 194.204 88.285V112.054C194.302 112.022 194.4 111.993 194.509 111.993C197.836 111.993 200.543 109.286 200.543 105.959V99.002C200.543 97.992 200.975 97.023 201.728 96.343C202.479 95.664 203.487 95.335 204.495 95.435C206.299 95.617 207.714 97.237 207.714 99.124V101.704C207.714 103.209 208.937 104.432 210.441 104.432C211.945 104.432 213.169 103.209 213.169 101.704V96.494C213.169 95.541 213.577 94.626 214.287 93.983C214.997 93.342 215.948 93.024 216.901 93.125C218.606 93.297 219.942 94.826 219.942 96.606V98.12C219.942 101.312 222.54 103.91 225.733 103.91C228.839 103.91 231.451 101.781 232.204 98.907Z" fill="#21A147"/>
<path fill-rule="evenodd" clip-rule="evenodd" d="M247.247 97.3035V94.2745C247.231 94.2025 247.204 94.1355 247.204 94.0595V88.2845C247.204 88.0095 246.979 87.7845 246.704 87.7845H234.153C234.186 87.9465 234.204 88.1145 234.204 88.2845V92.5845C235.377 91.3485 237.032 90.5725 238.869 90.5725C242.419 90.5725 245.308 93.4605 245.308 97.0105C245.308 97.6485 245.49 98.1795 245.807 98.4715C245.828 98.4505 245.844 98.4285 245.864 98.4085C246.293 97.9905 246.761 97.6305 247.247 97.3035Z" fill="#21A147"/>
<path fill-rule="evenodd" clip-rule="evenodd" d="M251.568 105.161C253.577 103.494 254.605 100.953 254.318 98.3639C254.28 98.0309 254.023 97.7659 253.691 97.7219C251.319 97.3949 248.975 98.1699 247.261 99.8409C245.748 101.316 244.926 103.299 244.934 105.38L248.634 101.771C249.029 101.387 249.663 101.392 250.048 101.789C250.434 102.184 250.426 102.817 250.031 103.203L245.316 107.801C245.37 107.813 245.416 107.842 245.472 107.849C246.413 107.977 247.328 107.94 248.204 107.783C249.365 107.573 250.448 107.136 251.404 106.51C251.1 106.087 251.161 105.499 251.568 105.161Z" fill="#21A147"/>
<path fill-rule="evenodd" clip-rule="evenodd" d="M391.301 160.508C394.826 158.781 398.642 155.968 398.712 153.205C398.741 152.035 398.514 151.201 398.037 150.726C397.67 150.36 397.107 150.175 396.362 150.175C396.318 150.175 396.273 150.175 396.227 150.177H396.226C394.778 150.218 392.955 150.919 391.301 151.835V160.508Z" fill="#7A8EC7"/>
<path fill-rule="evenodd" clip-rule="evenodd" d="M394.84 143.097C393.965 143.343 392.741 143.882 391.301 144.576V149.573C392.933 148.78 394.657 148.219 396.169 148.176H396.17C397.556 148.13 398.655 148.518 399.449 149.308C400.33 150.186 400.755 151.514 400.711 153.255C400.588 158.13 393.557 161.694 391.405 162.67C391.369 162.687 391.337 162.697 391.301 162.712V169.561C391.302 169.561 391.304 169.56 391.306 169.56C395.456 170.008 402.157 167.563 404.301 164.043V143.062C401.544 141.698 397.681 142.299 394.84 143.097Z" fill="#99ABD8"/>
<path fill-rule="evenodd" clip-rule="evenodd" d="M403.801 170.585C404.077 170.585 404.301 170.36 404.301 170.085V167.121C402.668 168.616 400.458 169.807 398.149 170.585H403.801ZM391.301 133.085V142.364C392.47 141.822 393.49 141.399 394.299 141.172C398.316 140.044 401.722 139.962 404.301 140.887V133.085C404.301 132.81 404.077 132.585 403.801 132.585H391.25C391.283 132.747 391.301 132.914 391.301 133.085Z" fill="#7A8EC7"/>
<path fill-rule="evenodd" clip-rule="evenodd" d="M351.801 170.585H366.801H376.177C376.152 169.616 376.254 168.417 376.38 167.047L376.381 167.036C376.657 164.012 377.034 159.876 375.578 158.871C374.719 158.278 373.097 158.858 371.888 159.449C370.161 160.293 368.719 162.093 367.193 163.998L367.191 164C365.35 166.298 363.446 168.674 360.687 169.927C360.384 170.065 360.032 170.042 359.749 169.868C359.466 169.693 359.288 169.39 359.275 169.057C359.24 168.215 359.564 167.231 359.907 166.189C360.216 165.253 360.731 163.688 360.418 163.305C360.392 163.273 360.136 163.007 358.914 163.148C358.163 163.235 357.436 164.161 356.667 165.141C355.532 166.586 353.886 168.677 351.301 167.899V170.085C351.301 170.36 351.525 170.585 351.801 170.585ZM356.152 153.162C356.45 149.089 354.682 144.233 351.3 142.808V159.53C355.393 159.046 356.05 154.55 356.152 153.162ZM373.878 132.788C369.524 136.828 363.668 144.804 366.492 149.007C369.415 153.356 380.079 147.975 387.136 144.414L387.137 144.413C387.887 144.034 388.61 143.67 389.301 143.328V133.085C389.301 132.809 389.077 132.585 388.801 132.585H374.024C374.021 132.59 374.018 132.595 374.015 132.599C374.009 132.609 374.002 132.619 373.996 132.63C373.962 132.685 373.928 132.741 373.878 132.788ZM387.202 155.033C385.237 157.717 384.995 160.172 385.765 161.12C386.337 161.823 387.622 161.886 389.301 161.341V153.101C388.373 153.775 387.621 154.461 387.202 155.033Z" fill="#6074AA"/>
<path fill-rule="evenodd" clip-rule="evenodd" d="M320.211 130.785H335.211H336.712H342.85C343.126 130.785 343.35 130.56 343.35 130.285V120.582C338.135 120.517 333.914 116.264 333.914 111.038V98.6669C333.914 97.6579 333.093 96.8369 332.084 96.8369C331.068 96.8369 330.248 97.6579 330.248 98.6669V102.436C330.248 105.717 327.579 108.385 324.299 108.385C321.019 108.385 318.35 105.717 318.35 102.436V100.468C318.35 99.9819 317.956 99.5879 317.47 99.5879C316.976 99.5879 316.581 99.9819 316.581 100.468V110.785C316.581 112.807 314.936 114.452 312.914 114.452C310.893 114.452 309.248 112.807 309.248 110.785V103.734C309.248 102.659 308.374 101.785 307.299 101.785C306.224 101.785 305.35 102.659 305.35 103.734V107.385V130.285C305.35 130.56 305.574 130.785 305.85 130.785H320.211Z" fill="#8E5134"/>
<path fill-rule="evenodd" clip-rule="evenodd" d="M305.35 93.2849V100.32C305.927 99.9889 306.587 99.7849 307.299 99.7849C309.476 99.7849 311.247 101.556 311.247 103.734V110.785C311.247 111.704 311.995 112.452 312.914 112.452C313.833 112.452 314.581 111.704 314.581 110.785V100.468C314.581 98.8799 315.873 97.5879 317.461 97.5879C319.058 97.5879 320.35 98.8799 320.35 100.468V102.436C320.35 104.613 322.121 106.385 324.299 106.385C326.476 106.385 328.247 104.613 328.247 102.436V98.6669C328.247 96.5549 329.966 94.8369 332.078 94.8369C334.196 94.8369 335.914 96.5549 335.914 98.6669V111.038C335.914 115.163 339.24 118.52 343.35 118.582V106.785C343.35 106.232 343.798 105.785 344.35 105.785C344.902 105.785 345.35 106.232 345.35 106.785V118.341C348.605 117.5 351.018 114.55 351.018 111.038L350.969 100.876C350.963 99.6249 351.446 98.4469 352.329 97.5589C353.212 96.6729 354.387 96.1839 355.638 96.1839C356.65 96.1839 357.583 96.5189 358.35 97.0719V93.2849C358.35 93.0099 358.126 92.7849 357.85 92.7849H345.299C345.332 92.9459 345.35 93.1139 345.35 93.2849V100.972C345.35 101.525 344.902 101.973 344.35 101.973C343.798 101.973 343.35 101.525 343.35 100.972V93.2849C343.35 93.0099 343.126 92.7849 342.85 92.7849H305.85C305.574 92.7849 305.35 93.0099 305.35 93.2849Z" fill="#218541"/>
<rect x="344" y="92" width="15" height="23" fill="#21A147"/>
<path fill-rule="evenodd" clip-rule="evenodd" d="M359.843 166.384L359.907 166.189L365.137 166.461C363.865 167.866 362.451 169.126 360.687 169.927C360.384 170.065 360.032 170.042 359.749 169.868C359.466 169.693 359.288 169.39 359.275 169.057C359.242 168.268 359.525 167.354 359.843 166.384ZM358.35 122.651C358.265 122.588 358.183 122.521 358.107 122.449L354.467 124.278C354.323 124.35 354.17 124.384 354.019 124.384C353.653 124.384 353.3 124.183 353.124 123.834C352.876 123.339 353.076 122.739 353.569 122.491L357.271 120.63C357.258 120.403 357.264 120.172 357.31 119.94C357.51 118.936 357.87 117.994 358.35 117.126V101.047C358.345 101.026 358.339 101.006 358.334 100.986C358.324 100.952 358.336 100.754 358.344 100.62C358.347 100.562 358.35 100.516 358.35 100.5C358.341 99.037 357.1 98.1841 355.638 98.1841C354.923 98.1841 354.251 98.4641 353.746 98.9701C353.242 99.4781 352.966 100.151 352.969 100.866L353.018 111.033C353.018 115.659 349.717 119.522 345.35 120.399V130.285C345.35 130.456 345.332 130.624 345.299 130.785H357.85C358.126 130.785 358.35 130.56 358.35 130.285V122.651Z" fill="#E79874"/>
<path fill-rule="evenodd" clip-rule="evenodd" d="M359.843 166.384L359.907 166.189L365.137 166.461C363.865 167.866 362.451 169.126 360.687 169.927C360.384 170.065 360.032 170.042 359.749 169.868C359.466 169.693 359.288 169.39 359.275 169.057C359.242 168.268 359.525 167.354 359.843 166.384ZM311.771 87.1052L309.097 82.6832C308.811 82.2102 308.962 81.5952 309.435 81.3102C309.907 81.0242 310.522 81.1752 310.808 81.6482L313.554 86.1892C314.161 84.1182 313.888 81.9112 312.758 80.0432C311.52 77.9952 309.445 76.6582 307.068 76.3762C307.039 76.3722 307.01 76.3712 306.981 76.3712C306.681 76.3712 306.408 76.5542 306.299 76.8402C305.445 79.0772 305.666 81.5352 306.905 83.5842C307.998 85.3912 309.743 86.6412 311.771 87.1052Z" fill="#21A147"/>
<path fill-rule="evenodd" clip-rule="evenodd" d="M359.481 119.52L364.099 117.2C364.591 116.952 365.193 117.15 365.441 117.644C365.689 118.138 365.49 118.739 364.997 118.987L360.255 121.37C362.273 122.135 364.495 122.037 366.444 121.057C368.584 119.982 370.078 118.019 370.545 115.67C370.611 115.341 370.445 115.011 370.143 114.868C367.979 113.842 365.513 113.87 363.373 114.945C361.485 115.893 360.102 117.535 359.481 119.52Z" fill="#21A147"/>
<path fill-rule="evenodd" clip-rule="evenodd" d="M182.775 80.4519C185.25 80.4519 187.275 78.4269 187.275 75.9519V75.9509C187.275 73.4759 185.25 71.4519 182.775 71.4519C180.3 71.4519 178.275 73.4759 178.275 75.9509V75.9519C178.275 78.4269 180.3 80.4519 182.775 80.4519ZM74.1656 67.366C74.2326 67.272 74.3076 67.183 74.3866 67.098C74.3876 67.097 74.3876 67.097 74.3876 67.097C75.1186 66.311 77.4016 64.925 78.5446 64.925C78.6606 64.925 78.7646 64.938 78.8536 64.969C78.9166 64.99 79.0826 65.047 79.1346 65.57C79.2226 66.485 77.7696 68.281 76.0086 68.995C75.3576 69.257 74.4806 69.445 73.9986 68.842C73.7376 68.514 73.8116 67.855 74.1656 67.366ZM74.9016 71.244C75.4796 71.244 76.1056 71.113 76.7606 70.848C79.0346 69.927 81.3316 67.508 81.1246 65.377C80.9716 63.802 80.0376 63.258 79.4946 63.074C77.1976 62.303 73.6276 64.979 72.9236 65.734C72.7856 65.884 72.6566 66.038 72.5426 66.198C71.6436 67.44 71.5986 69.04 72.4346 70.089C73.0446 70.853 73.9016 71.244 74.9016 71.244ZM80.6407 132.785C78.5627 132.785 76.5387 133.179 74.6267 133.954C74.1147 134.162 73.8687 134.745 74.0757 135.257C74.0827 135.273 74.0967 135.284 74.1047 135.3C74.3287 135.778 74.8837 136.008 75.3787 135.807C77.0507 135.129 78.8217 134.785 80.6407 134.785C88.3607 134.785 94.6407 141.065 94.6407 148.785C94.6407 156.505 88.3607 162.785 80.6407 162.785C72.9207 162.785 66.6407 156.505 66.6407 148.785C66.6407 146.696 67.0897 144.686 67.9747 142.811C68.2047 142.325 68.0027 141.753 67.5307 141.505C67.5177 141.498 67.5107 141.486 67.4977 141.48C66.9987 141.245 66.4027 141.459 66.1667 141.958C65.1537 144.101 64.6407 146.398 64.6407 148.785C64.6407 157.607 71.8187 164.785 80.6407 164.785C89.4627 164.785 96.6407 157.607 96.6407 148.785C96.6407 139.963 89.4627 132.785 80.6407 132.785Z" fill="#202225"/>
<path fill-rule="evenodd" clip-rule="evenodd" d="M68.1993 140.403C68.3753 140.531 68.5783 140.597 68.7823 140.597C69.0803 140.597 69.3753 140.465 69.5733 140.211C70.0143 139.641 70.5043 139.101 71.0273 138.607C71.4203 138.236 71.4403 137.625 71.0853 137.222C71.0783 137.214 71.0753 137.203 71.0683 137.194C70.6883 136.793 70.0553 136.775 69.6543 137.154C69.0563 137.717 68.4973 138.334 67.9923 138.984C67.6543 139.421 67.7333 140.049 68.1693 140.387C68.1783 140.394 68.1903 140.397 68.1993 140.403ZM78.5079 140.555C79.0209 140.423 79.3269 139.915 79.2299 139.402C79.2259 139.38 79.2319 139.359 79.2259 139.337C79.0889 138.802 78.5449 138.476 78.0079 138.619C73.3759 139.815 70.1409 143.995 70.1409 148.785C70.1409 154.576 74.8509 159.285 80.6409 159.285C86.4299 159.285 91.1409 154.576 91.1409 148.785C91.1409 144.948 89.0489 141.418 85.6809 139.573C85.1969 139.305 84.5889 139.485 84.3229 139.969C84.3139 139.986 84.3149 140.004 84.3069 140.021C84.0799 140.496 84.2519 141.07 84.7199 141.326C87.4469 142.821 89.1409 145.679 89.1409 148.785C89.1409 153.472 85.3279 157.285 80.6409 157.285C75.9539 157.285 72.1409 153.472 72.1409 148.785C72.1409 144.908 74.7589 141.523 78.5079 140.555Z" fill="#202225"/>
<path fill-rule="evenodd" clip-rule="evenodd" d="M404.301 140.887C401.722 139.962 398.316 140.044 394.299 141.172C393.49 141.4 392.47 141.823 391.301 142.365V136.585C391.301 134.376 393.092 132.585 395.301 132.585H400.301C402.51 132.585 404.301 134.376 404.301 136.585V140.887ZM404.301 161.13C404.301 163.582 403.03 165.872 400.923 167.125C397.992 168.867 394.079 169.861 391.306 169.561C391.304 169.561 391.302 169.562 391.301 169.562V162.713C391.337 162.698 391.369 162.688 391.405 162.671C393.557 161.695 400.588 158.131 400.711 153.256C400.755 151.515 400.33 150.187 399.449 149.309C398.655 148.519 397.556 148.131 396.17 148.177H396.169C394.657 148.22 392.933 148.781 391.301 149.574V144.577C392.741 143.883 393.966 143.344 394.84 143.098C395.61 142.882 396.454 142.68 397.332 142.528C400.977 141.896 404.301 144.752 404.301 148.452V161.13ZM404.301 168.585C404.301 169.69 403.405 170.585 402.301 170.585H398.149C400.458 169.807 402.668 168.616 404.301 167.121V168.585ZM389.301 143.328C388.611 143.67 387.887 144.034 387.137 144.413C380.08 147.974 369.415 153.357 366.492 149.007C364.184 145.572 368.082 139.285 371.96 134.898C373.254 133.434 375.103 132.585 377.057 132.585H388.301C388.853 132.585 389.301 133.033 389.301 133.585V143.328ZM389.301 150.683C387.663 151.716 386.292 152.892 385.589 153.852C383.233 157.067 382.68 160.494 384.212 162.381C384.699 162.981 385.642 163.716 387.338 163.716C387.903 163.716 388.559 163.624 389.301 163.429V170.085C389.301 170.362 389.077 170.585 388.801 170.585H380.26C379.09 170.585 378.174 169.586 378.267 168.419C378.298 168.036 378.333 167.638 378.371 167.23C378.729 163.323 379.134 158.895 376.714 157.225C375.366 156.295 373.501 156.436 371.01 157.653C368.881 158.693 367.302 160.662 365.632 162.747C364.435 164.241 363.21 165.771 361.775 166.912C361.785 166.88 361.797 166.847 361.807 166.815C362.354 165.155 362.973 163.273 361.967 162.04C361.334 161.264 360.26 160.977 358.681 161.161C357.104 161.346 356.082 162.648 355.093 163.907C354.882 164.177 354.683 164.422 354.496 164.644C353.403 165.933 351.301 165.166 351.301 163.476V163.05C351.301 162.212 351.888 161.525 352.694 161.292C355.797 160.398 357.843 157.462 358.147 153.309C358.451 149.155 356.939 144.469 353.881 142.046C352.183 140.7 351.301 138.57 351.301 136.404V133.585C351.301 133.033 351.749 132.585 352.301 132.585H368.966C369.819 132.585 370.284 133.584 369.727 134.23C365.783 138.798 361.765 145.56 364.832 150.122C366.035 151.911 367.923 152.616 370.198 152.616C375.319 152.616 382.4 149.044 388.038 146.199C388.47 145.982 388.889 145.771 389.301 145.564V150.683ZM389.301 161.341C387.622 161.886 386.337 161.824 385.765 161.12C384.995 160.172 385.237 157.717 387.202 155.033C387.621 154.461 388.373 153.776 389.301 153.102V161.341ZM376.38 167.047C376.325 167.636 376.276 168.195 376.239 168.716C376.164 169.769 375.299 170.585 374.244 170.585H366.801H351.801C351.525 170.585 351.301 170.362 351.301 170.085V167.9C353.886 168.677 355.532 166.586 356.667 165.141C357.436 164.161 358.163 163.236 358.914 163.148C360.136 163.007 360.392 163.273 360.418 163.305C360.731 163.688 360.216 165.253 359.907 166.189C359.564 167.231 359.24 168.215 359.275 169.057C359.288 169.39 359.466 169.694 359.749 169.868C360.032 170.042 360.384 170.066 360.687 169.927C363.447 168.674 365.351 166.297 367.193 163.998C368.719 162.093 370.161 160.293 371.888 159.449C373.097 158.859 374.719 158.279 375.578 158.871C377.036 159.877 376.656 164.022 376.38 167.047ZM349.301 168.785C349.301 169.89 348.405 170.785 347.301 170.785H339.711C338.606 170.785 337.711 169.89 337.711 168.785V143.138C337.711 143.135 337.712 143.132 337.712 143.129V133.785C337.712 133.234 338.16 132.785 338.712 132.785H342.85H348.327C348.881 132.785 349.329 133.228 349.327 133.781C349.316 139.583 349.301 168.785 349.301 168.785ZM337.66 170.785C337.667 170.752 337.673 170.761 337.678 170.785H337.66ZM335.211 130.785H320.211H305.85C305.574 130.785 305.35 130.561 305.35 130.285V107.385V103.735C305.35 102.659 306.224 101.785 307.299 101.785C308.373 101.785 309.247 102.659 309.247 103.735V110.785C309.247 112.808 310.892 114.452 312.914 114.452C314.936 114.452 316.581 112.808 316.581 110.785V100.468C316.581 99.9825 316.975 99.5875 317.47 99.5875C317.955 99.5875 318.35 99.9825 318.35 100.468V102.437C318.35 105.717 321.018 108.385 324.299 108.385C327.579 108.385 330.247 105.717 330.247 102.437V98.6665C330.247 97.6575 331.068 96.8365 332.084 96.8365C333.093 96.8365 333.914 97.6575 333.914 98.6665V111.038C333.914 116.264 338.134 120.518 343.35 120.582V130.285C343.35 130.561 343.126 130.785 342.85 130.785H336.712H335.211ZM335.712 139.004C335.712 139.712 335.007 140.169 334.339 139.931C333.679 139.697 332.974 139.577 332.256 139.606C329.004 139.665 326.358 142.359 326.358 145.611V148.635C326.358 151.93 323.629 154.6 320.301 154.502C317.087 154.408 314.608 151.605 314.608 148.389V145.315C314.608 142.036 311.785 139.404 308.43 139.72C305.507 139.997 303.358 142.619 303.358 145.556V147.967C303.358 150.218 301.556 152.468 299.322 152.748C296.467 153.106 294.032 150.838 294.11 148.034C294.25 143.005 289.78 138.89 284.749 138.89H283.987C283.552 138.89 282.711 138.989 282.711 138.989L282.69 134.8C282.682 133.69 283.579 132.785 284.69 132.785H333.712C334.817 132.785 335.712 133.681 335.712 134.785V139.004ZM335.711 167.783C335.711 168.336 335.263 168.783 334.711 168.783H323.711C323.158 168.783 322.711 168.336 322.711 167.783V160.004C322.711 159.451 322.263 159.004 321.711 159.004C321.158 159.004 320.711 159.451 320.711 160.004V164.783C320.711 166.993 318.92 168.783 316.711 168.783H298.211H286.711C284.502 168.783 282.711 166.993 282.711 164.783V142.926C282.711 141.851 283.551 140.962 284.625 140.902C288.664 140.675 292.262 143.871 292.113 147.915C291.964 151.921 295.397 155.183 299.469 154.746C302.876 154.381 305.358 151.316 305.358 147.889V145.431C305.358 143.7 306.526 142.124 308.221 141.774C310.551 141.293 312.608 143.068 312.608 145.315V146.283C312.608 149.465 312.874 152.562 315.242 154.687C317.34 156.57 320.083 156.656 321.711 156.401C325.47 155.81 328.358 152.558 328.358 148.635V145.611C328.358 143.442 330.123 141.645 332.292 141.606C332.305 141.605 332.319 141.605 332.333 141.604C334.206 141.534 335.711 143.162 335.711 145.036V167.783ZM280.711 137.636C280.711 138.679 280.174 139.658 279.276 140.189C276.547 141.804 274.711 144.771 274.711 148.165V152.945C274.711 155.363 272.948 157.527 270.542 157.763C267.78 158.033 265.446 155.864 265.446 153.158V144.054C265.446 143.403 265.289 142.747 264.926 142.208C264.227 141.172 263.055 140.651 261.832 140.816C260.237 141.031 259.108 142.503 259.108 144.113V147.036C259.108 149.371 257.197 151.283 254.862 151.283H254.704H254.701C253.431 151.283 252.248 150.707 251.452 149.681C250.869 148.93 250.607 147.977 250.607 147.026V146.653C250.607 144.65 250.006 142.661 248.749 141.103C247.316 139.325 245.314 138.241 243.117 137.986H246.93C250.049 137.986 252.65 135.742 253.214 132.785H277.711C279.367 132.785 280.711 134.128 280.711 135.785V137.636ZM280.711 168.785C280.711 169.89 279.815 170.785 278.711 170.785H265.366C266.442 169.653 267.112 168.132 267.13 166.454C267.169 162.896 264.016 159.986 260.456 159.986H249.931C249.157 159.986 248.53 159.359 248.53 158.585V153.785C248.53 149.454 246.4 145.615 243.133 143.251C242.872 143.062 242.711 142.767 242.711 142.445V141.16C242.711 140.482 243.37 140.007 244.02 140.203C245.277 140.584 246.402 141.346 247.252 142.435C248.176 143.617 248.607 145.115 248.607 146.616V146.957C248.607 148.45 249.056 149.94 250.014 151.085C251.197 152.496 252.888 153.283 254.7 153.283H254.705H254.863C258.312 153.283 261.108 150.487 261.108 147.036V143.953C261.108 143.31 261.633 142.785 262.277 142.785C262.59 142.785 262.883 142.907 263.104 143.128C263.324 143.348 263.446 143.642 263.446 143.954V152.918C263.446 156.289 265.862 159.298 269.205 159.729C273.249 160.249 276.711 157.099 276.711 153.156V148.165C276.711 147.912 276.723 147.662 276.749 147.416C277.002 144.96 280.711 145.232 280.711 147.701V168.785ZM260.536 170.785H243.211H240.211H230.717C236.968 167.671 241.282 161.231 241.282 153.785V146.44C241.282 145.575 242.316 145.106 242.953 145.69C245.149 147.699 246.53 150.581 246.53 153.785V158.585C246.53 160.463 248.053 161.986 249.931 161.986H260.73C263.301 161.986 265.364 164.201 265.109 166.824C264.887 169.111 262.832 170.785 260.536 170.785ZM216.974 170.785H215.322C214.011 170.785 212.998 169.529 213.389 168.278C213.569 167.7 213.669 167.089 213.676 166.454C213.714 162.849 210.608 159.986 207.002 159.986H192.276C191.503 159.986 190.876 159.359 190.876 158.585V153.785C190.876 146.606 185.055 140.785 177.876 140.785H175.583C174.976 140.785 174.483 140.292 174.483 139.686C174.483 139.079 174.976 138.585 175.583 138.585H205.891C207.758 138.585 209.53 137.767 210.752 136.339C211.969 134.917 212.502 133.035 212.213 131.177C212.17 130.902 212.108 130.634 212.028 130.373C211.634 129.085 212.586 127.785 213.933 127.785H224.704H231.704H233.808C234.516 127.785 235.185 128.152 235.535 128.768C237.995 133.097 239.282 137.95 239.282 142.986V153.785C239.282 163.174 231.671 170.785 222.282 170.785H216.974ZM207.276 170.785H203.211H200.211H168.483H163.211H162.076C161.354 170.785 160.651 170.629 159.986 170.323C159.93 170.296 159.873 170.276 159.813 170.261C152.264 168.335 146.991 161.56 146.991 153.785V130.986C146.991 121.612 154.617 113.986 163.991 113.986H168.483H175.891C181.62 113.986 186.285 118.646 186.291 124.374C186.293 126.255 187.819 127.785 189.691 127.785H194.704H205.728C207.969 127.785 209.908 129.376 210.236 131.486C210.439 132.784 210.082 134.046 209.233 135.038C208.391 136.022 207.173 136.585 205.891 136.585H175.583C173.873 136.585 172.483 137.976 172.483 139.686C172.483 141.395 173.873 142.785 175.583 142.785H177.876C183.941 142.785 188.876 147.72 188.876 153.785V158.585C188.876 160.46 190.401 161.986 192.276 161.986H207.276C209.702 161.986 211.676 163.959 211.676 166.386C211.676 168.812 209.702 170.785 207.276 170.785ZM147.047 170.785H123.811C121.739 170.785 120.831 168.169 122.458 166.886L122.511 166.844C122.754 166.653 122.902 166.361 122.902 166.051V160.588C122.902 160.563 122.893 160.539 122.891 160.514C122.888 160.477 122.883 160.442 122.876 160.405C122.862 160.329 122.839 160.259 122.809 160.19C122.8 160.169 122.8 160.148 122.789 160.127C122.784 160.118 122.777 160.113 122.772 160.104C122.72 160.012 122.658 159.927 122.58 159.855C122.572 159.847 122.561 159.843 122.552 159.835C122.494 159.784 122.432 159.737 122.363 159.7C122.348 159.693 122.331 159.691 122.316 159.684C122.289 159.671 122.261 159.664 122.233 159.655C122.16 159.629 122.088 159.612 122.013 159.603C121.979 159.599 121.947 159.597 121.913 159.597C121.835 159.596 121.758 159.605 121.68 159.622C121.658 159.627 121.636 159.624 121.614 159.63C121.477 159.671 112.959 162.325 106.574 169.465C105.821 170.307 104.742 170.785 103.613 170.785H94.1729C93.1759 170.785 92.7959 169.491 93.6339 168.95C99.0509 165.449 102.974 159.827 104.218 153.269C104.582 151.352 106.209 149.936 108.16 149.936H120.043C121.335 149.936 122.609 150.197 123.807 150.677C124.091 150.79 124.382 150.891 124.679 150.978L137.343 154.671C137.601 154.746 137.864 154.783 138.126 154.783C139.093 154.783 140.03 154.282 140.557 153.376C140.966 152.676 141.003 151.817 140.768 151.041C140.6 150.487 141.052 149.936 141.631 149.936H144.991V153.785C144.991 158.324 146.602 162.552 149.342 165.864C150.966 167.825 149.594 170.785 147.047 170.785ZM120.537 165.867C116.329 169.353 113.584 173.158 111.798 176.797C112.941 172.942 115.121 168.521 119.183 164.371C119.807 163.734 120.902 164.184 120.902 165.076V165.103C120.902 165.399 120.765 165.679 120.537 165.867ZM103.496 177.93C105.469 173.076 108.766 169.509 112.048 166.966C112.932 166.281 114.103 167.351 113.502 168.294C111.359 171.658 110.132 174.991 109.44 177.93H103.496ZM118.295 179.93C119.399 179.93 120.295 180.825 120.295 181.93V185.607V188.071C120.295 189.17 119.395 190.071 118.295 190.071H97.5849C96.4809 190.071 95.5849 189.175 95.5849 188.071V185.607V181.93C95.5849 180.825 96.4809 179.93 97.5849 179.93H118.295ZM118.565 195.533H110.607C110.571 194.021 110.618 192.827 110.669 192.071H118.565C119.52 192.071 120.295 192.845 120.295 193.801V193.803C120.295 194.759 119.52 195.533 118.565 195.533ZM112.462 217.78C107.285 212.77 101.937 204.577 101.666 192.004H108.659C108.405 195.435 108.217 205.956 114.036 216.575C114.596 217.598 113.3 218.59 112.462 217.78ZM119.401 228.494C115.074 225.992 106.994 219.98 103.428 208.575C108.481 219.179 117.175 224.239 120.343 225.792C120.687 225.961 120.902 226.306 120.902 226.689V227.627C120.902 228.4 120.069 228.88 119.401 228.494ZM97.3149 195.533C96.3599 195.533 95.5849 194.759 95.5849 193.803V193.801C95.5849 192.845 96.3599 192.071 97.3149 192.071H99.6819C99.7089 193.259 99.7689 194.418 99.8779 195.533H97.3149ZM58.6409 148.785C58.6409 136.655 68.5099 126.785 80.6409 126.785C92.7719 126.785 102.641 136.655 102.641 148.785C102.641 160.916 92.7719 170.785 80.6409 170.785C68.5099 170.785 58.6409 160.916 58.6409 148.785ZM138.692 152.548C138.591 152.65 138.312 152.87 137.902 152.751L125.239 149.058C122.045 148.126 119.73 145.272 119.478 141.954C119.3 139.616 120.149 137.323 121.808 135.664C123.322 134.151 125.363 133.311 127.486 133.311C127.689 133.311 127.893 133.319 128.097 133.334C131.415 133.587 134.269 135.903 135.2 139.096L138.894 151.759C139.014 152.169 138.793 152.448 138.692 152.548ZM57.0189 144.567C56.6749 146.501 55.0379 147.936 53.0719 147.936H50.0289C48.6899 147.936 47.5119 147.048 47.1449 145.76L33.4009 97.6555C32.8529 95.7395 34.2919 93.8305 36.2849 93.8305H129.295C129.847 93.8305 130.295 93.3835 130.295 92.8305C130.294 92.2785 129.847 91.8305 129.295 91.8305H27.3369C25.9969 91.8305 24.8199 90.9435 24.4519 89.6555L21.3199 78.6905C21.0889 77.8845 21.1359 77.0005 21.5509 76.2725C22.1009 75.3055 23.0839 74.7405 24.1679 74.7405H128.44C131.201 74.7405 133.44 76.9785 133.44 79.7405V83.6515C133.44 87.7585 135.932 91.2935 139.482 92.8305C140.39 93.2235 141.367 93.4885 142.391 93.5955V94.9855C142.391 102.399 146.665 108.82 152.874 111.944C154.261 112.642 154.414 114.519 153.141 115.407C148.219 118.842 144.991 124.541 144.991 130.986V147.936C141.952 147.936 139.278 145.93 138.426 143.012L137.199 138.805C136.228 135.476 133.718 132.729 130.394 131.739C126.769 130.658 122.971 131.671 120.394 134.25C118.322 136.322 117.261 139.185 117.484 142.107C117.602 143.667 118.089 145.143 118.861 146.441C119.254 147.102 118.769 147.936 118 147.936H108.209C106.244 147.936 104.607 146.501 104.263 144.567C102.264 133.338 92.4349 124.785 80.6409 124.785C68.8469 124.785 59.0179 133.338 57.0189 144.567ZM48.4469 72.7335C48.5529 72.6845 48.6549 72.6235 48.7429 72.5355C50.1979 71.0825 52.6819 69.2565 54.8939 68.8895C55.4929 68.7945 55.9619 68.9295 56.0179 69.0355C56.1579 69.3095 55.5509 69.8785 55.1489 70.2555C55.0429 70.3555 54.9419 70.4505 54.8509 70.5405C54.1759 71.2105 53.8349 71.9165 53.8369 72.6395C53.8369 72.6735 53.8469 72.7055 53.8489 72.7405H48.4469V72.7335ZM64.4759 72.7405H61.2949C61.3429 72.7015 61.3979 72.6535 61.4449 72.6175C62.2659 71.9975 63.3629 71.6895 63.9429 71.9135C64.0549 71.9565 64.3529 72.0735 64.4749 72.7315C64.4759 72.7345 64.4749 72.7375 64.4759 72.7405ZM101.447 63.9135V72.7405H93.6139C93.5739 72.4185 93.5569 72.0895 93.5859 71.7485C93.7819 69.4655 95.2139 66.3285 96.8469 64.6085C97.7039 63.7045 98.9759 63.1415 99.9869 63.1965C100.582 63.2295 101.057 63.4725 101.447 63.9135ZM48.4469 59.5585C48.4469 59.2825 48.6709 59.0585 48.9469 59.0585H55.3799C54.3949 59.9425 53.8109 61.0895 54.0959 62.4865C54.2479 63.2305 54.8679 64.7485 57.3929 64.7485C57.8579 64.7485 58.3869 64.6975 58.9899 64.5795C63.0129 63.7975 67.0019 62.3835 70.8589 61.0155C72.6789 60.3695 74.5609 59.7025 76.3909 59.1235C76.4359 59.1105 76.4679 59.0775 76.5089 59.0585H85.9469C86.2219 59.0585 86.4469 59.2825 86.4469 59.5585V62.4485C86.4469 63.0005 86.8939 63.4485 87.4469 63.4485C87.9989 63.4485 88.4469 63.0005 88.4469 62.4485V59.5585C88.4469 59.3875 88.4289 59.2195 88.3959 59.0585H100.947C101.222 59.0585 101.447 59.2825 101.447 59.5585V61.5245C101.027 61.3505 100.583 61.2265 100.101 61.1985C98.5019 61.1085 96.6539 61.9055 95.3959 63.2315C93.4289 65.3045 91.8299 68.8145 91.5929 71.5765C91.5599 71.9695 91.5629 72.3595 91.5959 72.7405H88.4469V69.2415C88.4469 68.6895 87.9989 68.2415 87.4469 68.2415C86.8939 68.2415 86.4469 68.6895 86.4469 69.2415V72.7405H66.4869C66.4749 72.6155 66.4649 72.4925 66.4419 72.3655C66.2319 71.2355 65.6009 70.4115 64.6669 70.0495C63.2359 69.4945 61.4129 70.1365 60.2399 71.0205C59.9989 71.2025 59.7359 71.4225 59.4559 71.6575C58.9089 72.1155 58.4469 72.4735 58.0359 72.7405H55.8699C55.8559 72.7025 55.8369 72.6645 55.8369 72.6315C55.8369 72.5565 55.8779 72.3395 56.2589 71.9605L56.5179 71.7145C57.2549 71.0225 58.6279 69.7355 57.7949 68.1185C57.1859 66.9395 55.7269 66.7215 54.5669 66.9165C52.4019 67.2755 50.1529 68.6665 48.4469 70.1085V59.5585ZM59.1109 59.2875C59.2599 59.2415 59.3849 59.1585 59.4919 59.0585H63.9469H70.3959C70.3279 59.0825 70.2579 59.1065 70.1899 59.1305C66.4029 60.4735 62.4859 61.8635 58.6079 62.6165C57.7299 62.7885 56.2309 62.9475 56.0559 62.0855C55.7089 60.3855 58.7609 59.3955 59.1109 59.2875ZM111.317 49.5595C111.317 49.2835 111.541 49.0595 111.817 49.0595H141.817H146.778C144.534 51.7585 143.038 55.0915 142.567 58.7415C142.542 58.9285 142.506 59.1125 142.487 59.2995C141.924 59.3535 141.379 59.4615 140.847 59.6055C139.576 59.9475 138.406 60.5325 137.388 61.3095C137.176 60.7085 137.055 60.0655 137.055 59.3935V57.8805C137.055 56.1005 135.719 54.5705 134.014 54.3985C133.062 54.3025 132.11 54.6155 131.401 55.2565C130.69 55.8995 130.282 56.8145 130.282 57.7675V62.9785C130.282 64.4825 129.058 65.7055 127.554 65.7055C126.051 65.7055 124.827 64.4825 124.827 62.9785V60.3975C124.827 58.5115 123.413 56.8915 121.607 56.7085C120.598 56.6145 119.592 56.9385 118.84 57.6175C118.088 58.2975 117.656 59.2675 117.656 60.2765V67.2335C117.656 69.6865 116.183 71.7975 114.077 72.7405H111.317V49.5595ZM125.584 67.2625C126.186 67.5395 126.849 67.7055 127.554 67.7055C129.826 67.7055 131.727 66.0935 132.178 63.9535C132.245 63.6385 132.282 63.3135 132.282 62.9785V57.7675C132.282 57.3785 132.449 57.0045 132.742 56.7405C133.037 56.4735 133.416 56.3465 133.813 56.3885C134.509 56.4585 135.055 57.1145 135.055 57.8805V59.3935C135.055 60.3975 135.253 61.3545 135.6 62.2375C135.672 62.4195 135.752 62.5975 135.837 62.7725C134.346 64.5205 133.44 66.7805 133.44 69.2515V69.7405C133.44 71.3975 132.097 72.7405 130.44 72.7405H117.456C118.044 72.1165 118.532 71.4015 118.899 70.6155C119.38 69.5865 119.656 68.4435 119.656 67.2335V60.2765C119.656 59.8315 119.847 59.4035 120.181 59.1015C120.519 58.7955 120.951 58.6515 121.406 58.6985C122.203 58.7795 122.827 59.5255 122.827 60.3975V62.9785C122.827 64.8795 123.962 66.5125 125.584 67.2625ZM192.227 123.242C192.234 124.648 191.097 125.785 189.691 125.785C188.915 125.785 188.292 125.149 188.291 124.372C188.288 120.982 186.912 117.908 184.693 115.672C184.074 115.048 184.536 113.986 185.415 113.986H190.204C191.308 113.986 192.204 114.881 192.204 115.986C192.204 115.986 192.212 120.338 192.227 123.242ZM161.391 44.1855H165.544H226.083C235.471 44.1855 243.083 51.7965 243.083 61.1855V62.7845C243.083 63.8895 242.187 64.7845 241.083 64.7845H226.131C225.578 64.7845 225.131 65.2325 225.131 65.7845C225.131 66.3375 225.578 66.7845 226.131 66.7845H244.576C248.001 66.7845 250.777 69.5615 250.777 72.9855V80.7845C250.777 82.5495 250.499 84.2465 249.993 85.8465C249.774 86.5385 248.918 86.8615 248.367 86.3875C247.932 86.0125 247.366 85.7845 246.747 85.7845C246.742 85.7845 246.738 85.7875 246.733 85.7875C246.723 85.7875 246.714 85.7845 246.704 85.7845H231.704H224.704H205.702H201.621C199.552 85.7845 197.796 84.2115 197.631 82.1495C197.595 81.6985 197.576 81.2435 197.576 80.7845V72.9855C197.576 69.5615 200.352 66.7845 203.777 66.7845H208.542H214.576C215.129 66.7845 215.576 66.3375 215.576 65.7845C215.576 65.2325 215.129 64.7845 214.576 64.7845H203.777C199.248 64.7845 195.576 68.4555 195.576 72.9855V80.7845C195.576 82.5175 195.829 84.1885 196.266 85.7845H194.704C193.323 85.7845 192.204 86.9045 192.204 88.2845V109.986C192.204 111.09 191.308 111.986 190.204 111.986H175.891H168.483H165.545H163.991H161.391C156.319 111.986 151.765 109.764 148.651 106.241C144.653 101.72 147.421 94.5355 153.391 93.6515H158.04C158.593 93.6515 159.04 93.2035 159.04 92.6515C159.04 92.0985 158.593 91.6515 158.04 91.6515H143.44C139.022 91.6515 135.44 88.0695 135.44 83.6515V69.2515C135.44 64.8335 139.022 61.2515 143.44 61.2515H158.04C158.593 61.2515 159.04 60.8045 159.04 60.2515C159.04 59.6985 158.593 59.2515 158.04 59.2515H153.5H146.931C145.611 59.2515 144.649 57.9915 144.996 56.7175C146.962 49.5045 153.564 44.1855 161.391 44.1855ZM247.247 97.3035C246.761 97.6305 246.294 97.9905 245.864 98.4085C245.844 98.4285 245.828 98.4505 245.807 98.4715C245.49 98.1795 245.308 97.6485 245.308 97.0105C245.308 93.4605 242.42 90.5725 238.869 90.5725C237.032 90.5725 235.378 91.3485 234.204 92.5845V88.2845C234.204 88.1145 234.186 87.9465 234.153 87.7845H246.704C246.98 87.7845 247.204 88.0095 247.204 88.2845V94.0595C247.204 94.1355 247.231 94.2025 247.247 94.2745V97.3035ZM232.204 97.1665C232.204 100.546 229.733 103.561 226.369 103.88C226.133 103.903 225.893 103.913 225.65 103.909C222.457 103.871 219.942 101.146 219.942 97.9515V96.6065C219.942 94.8255 218.606 93.2965 216.901 93.1245C215.947 93.0245 214.997 93.3415 214.287 93.9835C213.576 94.6255 213.169 95.5405 213.169 96.4935V101.597C213.169 102.916 212.28 104.128 210.985 104.38C209.244 104.718 207.714 103.387 207.714 101.704V99.1235C207.714 97.2375 206.299 95.6165 204.494 95.4355C203.487 95.3345 202.479 95.6635 201.728 96.3425C200.975 97.0235 200.543 97.9916 200.543 99.0015V106.097C200.543 108.429 199.052 110.433 197.013 111.392C195.706 112.007 194.204 111.002 194.204 109.558V89.7845C194.204 88.6805 195.099 87.7845 196.204 87.7845H224.704H230.204C231.308 87.7845 232.204 88.6805 232.204 89.7845V97.1665ZM240.493 127.785H246.704C247.218 127.785 247.696 127.629 248.093 127.362C250.157 127.932 251.626 129.949 251.28 132.26C250.952 134.442 248.952 135.986 246.746 135.986H242.042C241.155 135.986 240.35 135.415 240.107 134.562C239.718 133.197 239.231 131.863 238.654 130.562C238.072 129.254 239.062 127.785 240.493 127.785ZM351.301 144.639C351.301 143.761 352.344 143.316 352.993 143.909C355.261 145.985 356.396 149.834 356.153 153.162C356.063 154.374 355.551 157.96 352.693 159.169C352.035 159.448 351.301 158.955 351.301 158.241V144.639ZM357.271 120.631L353.569 122.491C353.075 122.74 352.876 123.34 353.124 123.834C353.3 124.184 353.653 124.385 354.019 124.385C354.17 124.385 354.323 124.351 354.467 124.279L358.107 122.45C358.213 122.515 358.243 122.533 358.35 122.599V129.785C358.35 130.337 357.902 130.785 357.35 130.785H346.35C345.798 130.785 345.35 130.337 345.35 129.785V120.4C349.717 119.523 353.018 115.659 353.018 111.033L352.969 100.866C352.966 100.152 353.241 99.4785 353.746 98.9705C354.692 98.0205 356.223 97.8695 357.529 98.8585C358.132 99.3155 358.321 100.074 358.306 100.83C358.305 100.908 358.333 100.976 358.35 101.048V115.382C358.35 116.439 358.105 117.47 357.734 118.458C357.555 118.935 357.411 119.43 357.31 119.941C357.263 120.173 357.258 120.404 357.271 120.631ZM305.35 97.7845C305.35 95.0235 307.588 92.7845 310.35 92.7845H339.35C341.559 92.7845 343.35 94.5755 343.35 96.7845V100.973C343.35 101.526 343.798 101.973 344.35 101.973C344.902 101.973 345.35 101.526 345.35 100.973V97.7845C345.35 95.0235 347.588 92.7845 350.35 92.7845H354.062C356.43 92.7845 358.35 94.7035 358.35 97.0725C357.583 96.5195 356.65 96.1845 355.637 96.1845C354.187 96.1845 352.839 96.8405 351.93 98.0135C351.262 98.8735 350.965 99.9665 350.969 101.056L351.018 111.038C351.018 111.269 351.007 111.497 350.987 111.722C350.669 115.243 345.35 114.888 345.35 111.354V106.785C345.35 106.233 344.902 105.785 344.35 105.785C343.798 105.785 343.35 106.233 343.35 106.785V114.711C343.35 117.073 340.615 118.412 338.767 116.942C337.03 115.559 335.914 113.427 335.914 111.038V98.7835C335.914 96.9545 334.678 95.2885 332.885 94.9195C330.422 94.4125 328.247 96.2895 328.247 98.6665V102.26C328.247 104.322 326.744 106.165 324.693 106.366C322.34 106.595 320.35 104.743 320.35 102.437V100.595C320.35 99.1985 319.411 97.9135 318.04 97.6445C316.2 97.2825 314.581 98.6905 314.581 100.468V110.691C314.581 111.522 314.015 112.294 313.196 112.429C312.153 112.601 311.247 111.796 311.247 110.785V103.896C311.247 102.171 310.205 100.562 308.573 100.003C307.372 99.5915 306.259 99.7985 305.35 100.321V97.7845ZM360.001 118.261C360.737 116.845 361.902 115.685 363.373 114.946C365.512 113.87 367.977 113.843 370.14 114.867C370.439 115.009 370.61 115.348 370.546 115.671C370.078 118.02 368.583 119.983 366.445 121.058C364.894 121.837 363.171 122.059 361.515 121.732C361.055 121.641 360.985 121.003 361.403 120.793L364.997 118.988C365.49 118.74 365.69 118.139 365.442 117.645C365.194 117.151 364.592 116.952 364.099 117.2L360.679 118.919C360.255 119.132 359.782 118.681 360.001 118.261ZM391.301 151.835C392.955 150.919 394.778 150.218 396.226 150.177H396.227C396.273 150.175 396.318 150.175 396.362 150.175C397.107 150.175 397.67 150.36 398.037 150.726C398.514 151.201 398.741 152.035 398.712 153.205C398.642 155.968 394.826 158.782 391.301 160.508V151.835ZM122.295 191.98C122.295 191.024 123.069 190.249 124.025 190.249H139.231C139.783 190.249 140.231 189.802 140.231 189.249C140.231 188.697 139.783 188.249 139.231 188.249H124.295C123.19 188.249 122.295 187.354 122.295 186.249V185.607V183.75C122.295 182.646 123.19 181.75 124.295 181.75H173.857C174.646 181.75 175.285 182.39 175.285 183.179V186.821C175.285 187.61 174.646 188.249 173.857 188.249H155.062C154.51 188.249 154.062 188.697 154.062 189.249C154.062 189.802 154.51 190.249 155.062 190.249H173.857C174.368 190.249 174.849 190.129 175.285 189.928V192.284C175.285 193.073 174.646 193.712 173.858 193.712H124.025C123.069 193.712 122.295 192.938 122.295 191.982V191.98ZM93.5849 185.607V186.249C93.5849 187.354 92.6899 188.249 91.5849 188.249H90.9429C90.1539 188.249 89.5149 187.61 89.5149 186.822V183.179C89.5149 182.39 90.1549 181.75 90.9439 181.75H91.5849C92.6899 181.75 93.5849 182.646 93.5849 183.75V185.607ZM91.8549 193.712H90.9429C90.1539 193.712 89.5149 193.073 89.5149 192.284V189.928C89.9509 190.129 90.4309 190.249 90.9429 190.249H91.8549C92.8109 190.249 93.5849 191.024 93.5849 191.98V191.982C93.5849 192.938 92.8109 193.712 91.8549 193.712ZM311.928 83.5005L310.808 81.6485C310.522 81.1755 309.907 81.0245 309.435 81.3105C308.962 81.5955 308.811 82.2105 309.097 82.6835L309.996 84.1695C310.586 85.1455 309.344 86.1915 308.48 85.4485C307.869 84.9225 307.336 84.2966 306.905 83.5835C305.666 81.5345 305.445 79.0765 306.299 76.8405C306.408 76.5545 306.681 76.3705 306.981 76.3705C307.01 76.3705 307.039 76.3715 307.069 76.3755C309.446 76.6576 311.52 77.9945 312.759 80.0425C313.29 80.9216 313.632 81.8755 313.782 82.8565C313.945 83.9245 312.488 84.4255 311.928 83.5005ZM420.975 170.785H412.301C408.987 170.785 406.301 168.099 406.301 164.785V133.085C406.301 131.704 405.182 130.585 403.801 130.585H388.801H366.801H363.35C361.693 130.585 360.35 129.242 360.35 127.585V125.864C360.35 124.729 361.293 123.797 362.426 123.868C362.611 123.88 362.797 123.886 362.983 123.886C364.473 123.886 365.963 123.538 367.343 122.845C370.031 121.493 371.911 119.029 372.504 116.079C372.752 114.846 372.121 113.591 370.983 113.054C368.262 111.77 365.162 111.808 362.475 113.158C362.275 113.259 362.08 113.366 361.891 113.479C361.211 113.885 360.35 113.43 360.35 112.639V95.0725C360.35 92.7035 358.43 90.7845 356.062 90.7845H342.85H333.172C332.093 90.7845 331.373 89.6715 331.816 88.6875L331.818 88.6825C332.054 88.1835 331.84 87.5875 331.341 87.3515C330.843 87.1155 330.246 87.3295 330.009 87.8285L329.011 89.9425C328.769 90.4565 328.251 90.7845 327.682 90.7845H317.163C316.648 90.7845 316.171 90.5165 315.905 90.0755L314.799 88.2465C314.978 88.0265 315.127 87.7765 315.233 87.4985C316.308 84.6825 316.03 81.5875 314.47 79.0075C312.904 76.4185 310.279 74.7325 307.271 74.3855C306.032 74.2425 304.868 74.9775 304.425 76.1435C303.285 79.1435 303.679 82.4555 305.522 85.1245C306.576 86.6525 308.162 87.7135 309.887 88.3985C310.854 88.7825 311.787 89.2565 312.685 89.2565C312.81 89.2565 312.933 89.2445 313.055 89.2285L313.997 90.7845H308.35C305.588 90.7845 303.35 93.0235 303.35 95.7845V103.735V107.385C303.35 107.385 303.35 119.726 303.351 126.484C303.351 128.863 301.422 130.785 299.043 130.785H298.211H283.211H280.211H256.103C254.594 130.785 253.28 129.89 252.563 128.562C251.833 127.208 250.629 126.146 249.172 125.599C249.185 125.495 249.204 125.393 249.204 125.285V108.947C249.204 108.394 248.756 107.947 248.204 107.947C247.652 107.947 247.204 108.394 247.204 108.947V122.249C247.204 123.65 246.069 124.784 244.668 124.784H236.739C235.339 124.784 234.204 123.65 234.204 122.249V119.478C234.204 118.925 233.756 118.478 233.204 118.478C232.652 118.478 232.204 118.925 232.204 119.478V122.249C232.204 123.65 231.069 124.784 229.668 124.784H224.704H205.728H196.739C195.339 124.784 194.204 123.65 194.204 122.249V113.932C194.301 113.964 194.4 113.993 194.509 113.993C198.939 113.993 202.543 110.389 202.543 105.959V99.0015C202.543 98.5565 202.735 98.1285 203.069 97.8265C203.406 97.5215 203.842 97.3755 204.293 97.4255C205.09 97.5055 205.714 98.2515 205.714 99.1235V101.494C205.714 103.962 207.513 106.17 209.969 106.409C212.787 106.684 215.169 104.467 215.169 101.704V96.4935C215.169 96.1055 215.336 95.7305 215.629 95.4665C215.924 95.1995 216.304 95.0745 216.699 95.1155C217.396 95.1855 217.942 95.8405 217.942 96.6065V97.8965C217.942 102.209 221.469 105.933 225.78 105.91C228.332 105.897 230.62 104.771 232.204 103.003V113.785C232.204 114.338 232.652 114.785 233.204 114.785C233.756 114.785 234.204 114.338 234.204 113.785V99.1525C234.347 98.5275 234.429 97.8795 234.429 97.2125V97.1385C234.429 95.0345 235.838 93.1155 237.894 92.6765C240.765 92.0625 243.308 94.2445 243.308 97.0105C243.308 98.2365 243.722 99.2845 244.474 99.9635C244.495 99.9835 244.521 99.9945 244.543 100.013C243.298 101.889 242.737 104.141 242.992 106.438C243.018 106.669 243.079 106.893 243.162 107.109L240.197 109.999C239.801 110.385 239.794 111.018 240.179 111.413C240.375 111.615 240.635 111.715 240.895 111.715C241.147 111.715 241.399 111.62 241.593 111.431L245.316 107.801L250.031 103.203C250.426 102.818 250.434 102.185 250.049 101.789C249.663 101.393 249.03 101.387 248.634 101.772L247.391 102.984C246.575 103.78 245.275 102.808 245.802 101.798C246.175 101.083 246.664 100.423 247.261 99.8405C248.973 98.1715 251.313 97.3975 253.682 97.7205C254.014 97.7665 254.282 98.0415 254.319 98.3735C254.602 100.96 253.574 103.496 251.568 105.161C251.161 105.499 251.1 106.087 251.405 106.51C251.418 106.529 251.422 106.552 251.437 106.57C251.79 106.995 252.421 107.054 252.844 106.7C255.357 104.616 256.65 101.448 256.313 98.2095C256.181 96.9415 255.206 95.9045 253.942 95.7365C252.324 95.5215 250.722 95.7215 249.247 96.2735V91.7745C251.46 88.6685 252.777 84.8815 252.777 80.7845V72.9855C252.777 68.6345 249.368 65.0735 245.083 64.8105V61.1855C245.083 50.6925 236.576 42.1855 226.083 42.1855H161.391C156.525 42.1855 152.094 44.0395 148.73 47.0595H141.817H140.456L141.287 43.7345C141.421 43.1985 141.095 42.6565 140.56 42.5225C140.025 42.3895 139.482 42.7125 139.347 43.2495L138.394 47.0595H136.239L135.287 43.2495C135.154 42.7125 134.61 42.3895 134.074 42.5225C133.539 42.6565 133.213 43.1985 133.347 43.7345L134.178 47.0595H111.817C110.436 47.0595 109.317 48.1785 109.317 49.5595V72.7405H103.447V59.5585C103.447 58.1775 102.327 57.0585 100.947 57.0585H85.9469H63.9469H48.9469C47.5659 57.0585 46.4469 58.1775 46.4469 59.5585V72.7405L24.3719 72.7395C22.8989 72.7395 21.4409 73.2885 20.4579 74.3855C19.2839 75.6965 18.8849 77.4495 19.3609 79.1135L22.5299 90.2045C23.1429 92.3515 25.1049 93.8305 27.3369 93.8305H27.3389C29.0489 93.8305 30.5519 94.9645 31.0219 96.6085L45.2219 146.309C45.8319 148.445 47.8079 149.936 50.0289 149.936H53.1209C55.0729 149.936 56.6989 151.352 57.0639 153.27C58.3079 159.828 62.2319 165.449 67.6479 168.95C68.4859 169.491 68.1059 170.785 67.1089 170.785H36.3719C35.8199 170.785 35.3719 171.233 35.3719 171.785C35.3719 172.338 35.8199 172.785 36.3719 172.785H97.9819C100.606 172.785 102.345 175.42 101.411 177.871L101.389 177.93H95.7989C94.7129 177.93 93.8119 178.717 93.6249 179.75H90.9429C89.0499 179.75 87.5149 181.284 87.5149 183.178V186.821C87.5149 187.138 87.5719 187.44 87.6529 187.732C87.5719 188.023 87.5149 188.325 87.5149 188.642V192.284C87.5149 194.177 89.0499 195.712 90.9429 195.712H93.6249C93.8109 196.745 94.7129 197.533 95.7989 197.533H99.6819C100.257 223.371 121.33 231.718 121.546 231.8C121.661 231.844 121.781 231.866 121.902 231.866C122.101 231.866 122.3 231.806 122.469 231.689C122.74 231.502 122.902 231.195 122.902 230.866V225.403C122.902 225.388 122.892 225.376 122.892 225.363C122.886 225.224 122.859 225.088 122.797 224.962C122.788 224.946 122.774 224.933 122.764 224.917C122.721 224.839 122.675 224.761 122.609 224.696C113.469 215.556 111.171 204.402 110.701 197.533H120.08C121.167 197.533 122.069 196.745 122.255 195.712H173.857C175.75 195.712 177.285 194.177 177.285 192.284V183.179C177.285 181.285 175.75 179.75 173.857 179.75H122.255C122.068 178.717 121.167 177.93 120.08 177.93H113.455C114.009 176.777 114.67 175.603 115.452 174.427C116.135 173.399 117.3 172.785 118.534 172.785H162.076H163.211H168.483H200.211H203.211H207.276H216.974H222.282H240.211H243.211H260.731H280.211H283.211H298.211H320.211H335.211H420.975C421.528 172.785 421.975 172.338 421.975 171.785C421.975 171.233 421.528 170.785 420.975 170.785ZM29.3717 170.785H26.1727C25.6207 170.785 25.1727 171.232 25.1727 171.785C25.1727 172.338 25.6207 172.785 26.1727 172.785H29.3717C29.9237 172.785 30.3717 172.338 30.3717 171.785C30.3717 171.232 29.9237 170.785 29.3717 170.785ZM20.8824 170.785H19.9984C19.4454 170.785 18.9984 171.232 18.9984 171.785C18.9984 172.338 19.4454 172.785 19.9984 172.785H20.8824C21.4344 172.785 21.8824 172.338 21.8824 171.785C21.8824 171.232 21.4344 170.785 20.8824 170.785Z" fill="#202225"/>
<path fill-rule="evenodd" clip-rule="evenodd" d="M150.839 188.249H149.092C148.54 188.249 148.093 188.696 148.092 189.249C148.092 189.802 148.54 190.249 149.092 190.249H150.839C151.391 190.249 151.839 189.802 151.839 189.249C151.839 188.696 151.391 188.249 150.839 188.249ZM236.005 18.0398H237.514V19.5498C237.514 20.1028 237.962 20.5498 238.514 20.5498C239.067 20.5498 239.514 20.1028 239.514 19.5498V18.0398H241.025C241.577 18.0398 242.025 17.5928 242.025 17.0398C242.025 16.4868 241.577 16.0398 241.025 16.0398H239.514V14.5298C239.514 13.9778 239.067 13.5298 238.514 13.5298C237.962 13.5298 237.514 13.9778 237.514 14.5298V16.0398H236.005C235.452 16.0398 235.005 16.4868 235.005 17.0398C235.005 17.5928 235.452 18.0398 236.005 18.0398ZM256.694 5.50951H257.204C257.756 5.50951 258.204 5.95651 258.204 6.50951V7.02051C258.204 7.57251 258.652 8.02051 259.204 8.02051C259.756 8.02051 260.204 7.57251 260.204 7.02051V6.50951C260.204 5.95651 260.652 5.50951 261.204 5.50951H261.714C262.266 5.50951 262.714 5.06251 262.714 4.50951C262.714 3.95651 262.266 3.50951 261.714 3.50951H261.204C260.652 3.50951 260.204 3.06251 260.204 2.50951V1.99951C260.204 1.44751 259.756 0.999512 259.204 0.999512C258.652 0.999512 258.204 1.44751 258.204 1.99951V2.50951C258.204 3.06251 257.756 3.50951 257.204 3.50951H256.694C256.142 3.50951 255.694 3.95651 255.694 4.50951C255.694 5.06251 256.142 5.50951 256.694 5.50951ZM267.297 34.0642C267.553 34.0642 267.809 33.9662 268.004 33.7712L269.188 32.5872C269.578 32.1972 269.578 31.5642 269.188 31.1732C268.797 30.7832 268.164 30.7832 267.774 31.1732L266.59 32.3572C266.199 32.7482 266.199 33.3802 266.59 33.7712C266.785 33.9662 267.041 34.0642 267.297 34.0642ZM261.857 37.0896L260.674 38.2736C260.283 38.6636 260.283 39.2966 260.674 39.6876C260.869 39.8826 261.125 39.9806 261.381 39.9806C261.637 39.9806 261.893 39.8826 262.088 39.6876L263.271 38.5036C263.662 38.1126 263.662 37.4806 263.271 37.0896C262.88 36.6986 262.247 36.6986 261.857 37.0896ZM267.773 39.6873C267.968 39.8823 268.225 39.9803 268.48 39.9803C268.736 39.9803 268.993 39.8823 269.188 39.6873C269.578 39.2963 269.578 38.6643 269.188 38.2733L268.004 37.0893C267.614 36.6993 266.981 36.6993 266.59 37.0893C266.2 37.4803 266.2 38.1133 266.59 38.5033L267.773 39.6873ZM260.674 31.1736C260.283 31.5646 260.283 32.1966 260.674 32.5876L261.857 33.7716C262.052 33.9666 262.308 34.0646 262.564 34.0646C262.82 34.0646 263.076 33.9666 263.271 33.7716C263.662 33.3806 263.662 32.7476 263.271 32.3576L262.088 31.1736C261.697 30.7826 261.065 30.7826 260.674 31.1736ZM352.667 65.7214C352.923 65.7214 353.179 65.6234 353.374 65.4284L354.557 64.2444C354.948 63.8544 354.948 63.2214 354.557 62.8304C354.167 62.4404 353.533 62.4404 353.143 62.8304L351.96 64.0144C351.569 64.4054 351.569 65.0374 351.96 65.4284C352.155 65.6234 352.411 65.7214 352.667 65.7214ZM346.751 71.6375C347.007 71.6375 347.263 71.5395 347.458 71.3445L348.641 70.1605C349.032 69.7705 349.032 69.1375 348.641 68.7465C348.251 68.3565 347.617 68.3565 347.227 68.7465L346.044 69.9305C345.653 70.3215 345.653 70.9535 346.044 71.3445C346.239 71.5395 346.495 71.6375 346.751 71.6375ZM353.143 71.3445C353.338 71.5395 353.594 71.6375 353.85 71.6375C354.106 71.6375 354.362 71.5395 354.557 71.3445C354.948 70.9535 354.948 70.3215 354.557 69.9305L353.374 68.7465C352.983 68.3565 352.351 68.3565 351.96 68.7465C351.569 69.1375 351.569 69.7705 351.96 70.1605L353.143 71.3445ZM347.227 65.4285C347.422 65.6235 347.678 65.7215 347.934 65.7215C348.19 65.7215 348.446 65.6235 348.641 65.4285C349.032 65.0375 349.032 64.4055 348.641 64.0145L347.458 62.8305C347.067 62.4405 346.435 62.4405 346.044 62.8305C345.653 63.2215 345.653 63.8545 346.044 64.2445L347.227 65.4285ZM373.887 46.9822C374.72 46.9822 375.397 47.6602 375.397 48.4922C375.397 49.3252 374.72 50.0032 373.887 50.0032C373.054 50.0032 372.377 49.3252 372.377 48.4922C372.377 47.6602 373.054 46.9822 373.887 46.9822ZM373.887 52.0032C375.823 52.0032 377.397 50.4272 377.397 48.4922C377.397 46.5562 375.823 44.9822 373.887 44.9822C371.951 44.9822 370.377 46.5562 370.377 48.4922C370.377 50.4272 371.951 52.0032 373.887 52.0032Z" fill="#202225"/>
</svg>
