<svg width="256" height="130" viewBox="0 0 256 130" fill="none" xmlns="http://www.w3.org/2000/svg">
<g clip-path="url(#clip0)">
<path fill-rule="evenodd" clip-rule="evenodd" d="M189.471 36.6581V36.6651C189.471 44.2771 183.301 50.4471 175.689 50.4471L147.655 50.4481C142.561 50.4481 138.432 54.5761 138.432 59.6701C138.432 64.7631 142.556 68.8931 147.649 68.8931H225.768C241.265 68.8931 253.825 81.4561 253.825 96.9521V96.9541C253.825 112.451 241.263 125.014 225.766 125.014H30.0063C21.9983 125.014 15.5073 118.522 15.5073 110.514C15.5073 102.507 21.9983 96.0151 30.0063 96.0151H35.2493C39.8613 96.0151 43.6003 92.2761 43.6003 87.6641C43.6003 83.0521 39.8693 79.3131 35.2573 79.3131H30.2233C14.6383 79.3131 2.00031 66.6791 2.00031 51.0951C2.00031 35.5101 14.6343 22.8761 30.2183 22.8761H175.724C183.322 22.8961 189.471 29.0601 189.471 36.6581Z" fill="#4F545C" fill-opacity="0.3"/>
<path fill-rule="evenodd" clip-rule="evenodd" d="M196.936 112.409C196.428 106.548 191.495 101.934 185.505 101.934H182.158C181.606 101.934 181.158 101.486 181.158 100.934V99.4846C181.158 87.0576 171.048 76.9476 158.621 76.9476H157.627L144.427 113.409H154.166V112.409H196.936ZM211.93 16.8383H219.27C219.272 16.7553 219.273 16.6713 219.273 16.5883C219.273 9.6473 213.626 4.0003 206.685 4.0003C201.876 4.0003 197.556 6.6783 195.411 10.9893C195.272 11.2683 195.011 11.4663 194.705 11.5263C194.4 11.5863 194.082 11.4983 193.85 11.2903C191.709 9.3803 188.951 8.3293 186.083 8.3293C180.79 8.3293 176.24 11.8423 174.846 16.8383H204.935C205.488 16.8383 205.935 17.2863 205.935 17.8383H206.935H210.93C210.93 17.2863 211.378 16.8383 211.93 16.8383Z" fill="#4F545C"/>
<path fill-rule="evenodd" clip-rule="evenodd" d="M66.702 36.397H80.465V30.516H66.702V36.397Z" fill="#E19A77"/>
<path fill-rule="evenodd" clip-rule="evenodd" d="M91.3473 52.3798C93.8423 50.5158 95.4623 47.8508 96.0073 44.8688H66.7893C71.1913 47.8968 74.6423 52.2048 76.6033 57.2548C85.0143 56.8358 89.4463 54.7508 91.1243 53.7368C90.8273 53.2968 90.9183 52.6998 91.3473 52.3798Z" fill="#E19A77"/>
<path fill-rule="evenodd" clip-rule="evenodd" d="M96.2272 37.3974C96.2272 36.8454 96.6752 36.3974 97.2272 36.3974H101.481V33.1434H90.3462V37.3974C90.3462 37.9494 89.8982 38.3974 89.3462 38.3974H57.8212C57.2682 38.3974 56.8212 37.9494 56.8212 37.3974V33.1434H48.3132V40.3914C49.4182 40.2514 50.5422 40.1714 51.6852 40.1714C55.8882 40.1714 59.8652 41.1524 63.4072 42.8894C63.4432 42.8854 63.4742 42.8684 63.5122 42.8684H96.0102C96.0822 42.8684 96.1442 42.8954 96.2122 42.9094C96.2142 42.8224 96.2272 42.7384 96.2272 42.6514V37.3974ZM30.7999 108.015H54.9909C54.8969 103.942 51.5529 100.658 47.4579 100.658C46.9049 100.658 46.4539 100.21 46.4539 99.6576V97.6896C46.4539 90.5366 40.6339 84.7166 33.4809 84.7166C26.3269 84.7166 20.5079 90.5366 20.5079 97.6896C20.5079 98.2426 20.0599 98.6896 19.5079 98.6896C19.3069 98.6896 19.1209 98.6306 18.9649 98.5296H13.9509C11.2179 98.5296 8.68491 99.6286 6.81891 101.625C5.16591 103.391 4.2499 105.633 4.1869 108.015H8.08291C8.6349 108.015 9.0819 108.462 9.0829 109.015H29.7999C29.7999 108.462 30.2479 108.015 30.7999 108.015Z" fill="#72767D"/>
<path fill-rule="evenodd" clip-rule="evenodd" d="M97.0403 36.254C96.4883 36.254 96.0403 36.702 96.0403 37.254V42.508C96.0403 42.555 96.0365 42.6012 96.0327 42.6475C96.0295 42.6867 96.0262 42.726 96.0253 42.766C96.0029 42.7614 95.9811 42.7553 95.9594 42.7493C95.9153 42.7371 95.8715 42.725 95.8233 42.725H63.3253C63.3037 42.725 63.2844 42.7305 63.2651 42.736C63.2504 42.7401 63.2358 42.7443 63.2203 42.746C59.6783 41.009 55.7013 40.028 51.4983 40.028C50.3553 40.028 49.2313 40.108 48.1263 40.248V33H56.6343V37.254C56.6343 37.806 57.0813 38.254 57.6343 38.254H89.1593C89.7113 38.254 90.1593 37.806 90.1593 37.254V33H101.294V36.254H97.0403Z" fill="#FBCC85"/>
<path fill-rule="evenodd" clip-rule="evenodd" d="M93.066 102.743V119.633L109.384 108.937L93.066 102.743Z" fill="#B2CEFD"/>
<path fill-rule="evenodd" clip-rule="evenodd" d="M161.634 58.7079L119.455 84.8469C119.291 84.9489 119.109 84.9969 118.929 84.9969C118.594 84.9969 118.267 84.8289 118.078 84.5239C117.787 84.0539 117.932 83.4379 118.401 83.1469L156.68 59.4249L59.5089 87.8659L91.3459 99.9499C91.4029 99.8909 91.4679 99.8369 91.5389 99.7929L100.428 94.2839C100.898 93.9929 101.514 94.1389 101.805 94.6069C102.096 95.0769 101.951 95.6929 101.482 95.9839L93.6629 100.83L135.448 116.69L141.427 118.96L161.634 58.7079Z" fill="white"/>
<path fill-rule="evenodd" clip-rule="evenodd" d="M149.616 61.4926C150.733 61.1656 151.413 62.6886 150.424 63.3026L118.401 83.1466C117.932 83.4376 117.787 84.0546 118.078 84.5236C118.267 84.8286 118.594 84.9966 118.929 84.9966C119.109 84.9966 119.291 84.9486 119.455 84.8466L159.278 60.1686C160.074 59.6756 161.051 60.4486 160.753 61.3366L143.411 113.044C142.328 116.273 138.778 117.954 135.594 116.746L135.448 116.691L100.879 103.569C97.9258 102.448 97.5388 98.4276 100.224 96.7636L101.482 95.9846C101.951 95.6936 102.096 95.0766 101.805 94.6076C101.514 94.1386 100.898 93.9926 100.429 94.2846C100.429 94.2846 98.9058 95.2296 97.1068 96.3486C93.4658 98.6146 88.9758 99.0506 84.9678 97.5296L62.2948 88.9226C61.3978 88.5826 61.4478 87.2976 62.3678 87.0286L149.616 61.4926ZM93.0658 115.931V105.641C93.0658 104.242 94.4668 103.275 95.7758 103.772L109.385 108.937L96.1618 117.603C94.8318 118.475 93.0658 117.521 93.0658 115.931ZM56.0868 86.7836C55.6738 86.9046 55.3848 87.2746 55.3678 87.7036C55.3508 88.1336 55.6108 88.5256 56.0118 88.6786L89.7758 101.494C90.5528 101.789 91.0658 102.533 91.0658 103.364V121.484C91.0658 121.851 91.2678 122.189 91.5908 122.364C91.7398 122.444 91.9028 122.484 92.0658 122.484C92.2578 122.484 92.4488 122.429 92.6148 122.32L106.579 113.168C109.793 111.061 113.822 110.621 117.415 111.985L141.69 121.2C141.804 121.243 141.925 121.264 142.045 121.264C142.191 121.264 142.338 121.232 142.472 121.168C142.719 121.052 142.907 120.84 142.993 120.582L146.083 111.369L156.687 82.2576C157.943 78.8096 161.667 76.8496 165.178 77.9156C174.427 80.7236 181.158 89.3186 181.158 99.4846C181.158 100.837 182.254 101.934 183.607 101.934H185.505C191.079 101.934 195.737 105.929 196.767 111.206C196.888 111.827 196.412 112.409 195.78 112.409H155.166C154.614 112.409 154.166 112.856 154.166 113.409C154.166 113.961 154.614 114.409 155.166 114.409L197.979 114.408C198.516 114.408 198.977 113.983 198.978 113.445C198.999 105.998 192.947 99.9336 185.505 99.9336C184.158 99.6756 183.179 98.5446 183.051 97.1796C182.138 87.3826 175.466 79.2576 166.453 76.2236C162.361 74.8466 160.082 70.3466 161.39 66.2306L164.412 56.7156C164.419 56.6976 164.418 56.6776 164.423 56.6596C164.431 56.6286 164.434 56.5996 164.44 56.5696C164.455 56.4786 164.459 56.3896 164.45 56.2996C164.448 56.2716 164.448 56.2456 164.443 56.2186C164.422 56.1046 164.382 55.9956 164.323 55.8946C164.319 55.8866 164.319 55.8786 164.314 55.8706C164.304 55.8546 164.288 55.8466 164.277 55.8316C164.247 55.7886 164.222 55.7426 164.185 55.7046C164.154 55.6726 164.116 55.6506 164.081 55.6226C164.057 55.6036 164.036 55.5836 164.011 55.5676C163.915 55.5046 163.814 55.4566 163.705 55.4296C163.686 55.4256 163.668 55.4266 163.649 55.4226C163.554 55.4046 163.459 55.4016 163.362 55.4116C163.329 55.4146 163.299 55.4186 163.267 55.4256C163.24 55.4306 163.211 55.4296 163.183 55.4376L56.0868 86.7836Z" fill="#1F2225"/>
<path fill-rule="evenodd" clip-rule="evenodd" d="M49.3131 33.1435H55.8211C56.3731 33.1435 56.8211 33.5905 56.8211 34.1435V37.3975C56.8211 37.9495 57.2691 38.3975 57.8211 38.3975H89.3461C89.8981 38.3975 90.3461 37.9495 90.3461 37.3975V34.1435C90.3461 33.5905 90.7931 33.1435 91.3461 33.1435H100.481C101.033 33.1435 101.481 33.5905 101.481 34.1435V35.3975C101.481 35.9495 101.033 36.3975 100.481 36.3975H97.2271C96.6751 36.3975 96.2271 36.8445 96.2271 37.3975V42.6515C96.2271 42.7385 96.2141 42.8225 96.2121 42.9095C96.1451 42.8945 63.4431 42.8855 63.4071 42.8895C59.8651 41.1525 55.8881 40.1715 51.6851 40.1715C50.5421 40.1715 49.4181 40.2515 48.3131 40.3915V34.1435C48.3131 33.5905 48.7611 33.1435 49.3131 33.1435ZM67.7021 30.5165H79.4651C80.0171 30.5165 80.4651 30.9635 80.4651 31.5165V35.3975C80.4651 35.9495 80.0171 36.3975 79.4651 36.3975H67.7021C67.1501 36.3975 66.7021 35.9495 66.7021 35.3975V31.5165C66.7021 30.9635 67.1501 30.5165 67.7021 30.5165ZM56.9931 109.015V108.192C56.9931 103.272 53.2471 99.2105 48.4541 98.7085V97.6895C48.4541 91.0125 44.0591 85.3455 38.0111 83.4215C36.5811 82.9655 35.0601 82.7165 33.4801 82.7165C29.5411 82.7165 25.9521 84.2475 23.2761 86.7435H14.8691C12.8641 86.7435 11.4111 84.8145 11.9891 82.8945C13.2781 78.6205 16.7491 72.2235 26.0121 71.5155C26.5421 71.4745 26.9601 71.0485 26.9601 70.5175V67.4575C26.9601 53.6255 38.2791 41.9405 52.1091 42.1745C65.5471 42.4015 76.4091 53.4045 76.4091 66.8955C76.4091 67.4485 76.8571 67.8955 77.4091 67.8955C77.6871 67.8955 82.7701 67.6015 82.7701 67.6015C84.7791 67.6015 86.7371 67.9285 88.6171 68.5425C89.0401 68.6815 89.4631 68.8185 89.8771 68.9875C90.3911 69.1965 90.9721 68.9495 91.1811 68.4395C91.3901 67.9275 91.1441 67.3445 90.6331 67.1355C88.1371 66.1175 85.4911 65.6015 82.7701 65.6015H80.2131C79.2001 65.6005 78.3511 64.8415 78.2341 63.8355C77.9701 61.5415 77.4111 59.3365 76.6031 57.2555C74.6431 52.2055 71.1911 47.8965 66.7891 44.8685H91.5841C93.9841 44.8685 95.4431 47.5655 94.0831 49.5425C93.3461 50.6125 92.4291 51.5715 91.3471 52.3795C90.9181 52.7005 90.8281 53.2975 91.1241 53.7365C91.1331 53.7505 91.1351 53.7665 91.1451 53.7795C91.3411 54.0425 91.6421 54.1815 91.9471 54.1815C92.1551 54.1815 92.3651 54.1165 92.5441 53.9825C96.1561 51.2845 98.2271 47.1545 98.2271 42.6515V41.3975C98.2271 39.7405 99.5701 38.3975 101.227 38.3975H102.481C103.033 38.3975 103.481 37.9495 103.481 37.3975V32.1435C103.481 31.5905 103.033 31.1435 102.481 31.1435H96.6001C96.0481 31.1435 95.6001 30.6955 95.6001 30.1435V27.3565C95.6001 26.8045 96.0481 26.3565 96.6001 26.3565H97.4201C97.9721 26.3565 98.4201 25.9095 98.4201 25.3565C98.4201 24.8045 97.9721 24.3565 97.4201 24.3565H91.7801C91.2281 24.3565 90.7801 24.8045 90.7801 25.3565C90.7801 25.9095 91.2281 26.3565 91.7801 26.3565H92.6001C93.1521 26.3565 93.6001 26.8045 93.6001 27.3565V30.1435C93.6001 30.6955 93.1521 31.1435 92.6001 31.1435H89.3461C88.7931 31.1435 88.3461 31.5905 88.3461 32.1435V36.3975H85.4651C83.8081 36.3975 82.4651 35.0545 82.4651 33.3975V30.5165C82.4651 29.4115 81.5691 28.5165 80.4651 28.5165H76.5841C75.4791 28.5165 74.5841 27.6205 74.5841 26.5165V19.4385C74.5841 18.8865 75.0311 18.4385 75.5841 18.4385H83.0681C83.6201 18.4385 84.0681 17.9905 84.0681 17.4385C84.0681 16.8865 83.6201 16.4385 83.0681 16.4385H64.0991C63.5471 16.4385 63.0991 16.8865 63.0991 17.4385C63.0991 17.9905 63.5471 18.4385 64.0991 18.4385H71.5841C72.1361 18.4385 72.5841 18.8865 72.5841 19.4385V26.5165C72.5841 27.6205 71.6881 28.5165 70.5841 28.5165H66.7021C65.5981 28.5165 64.7021 29.4115 64.7021 30.5165V33.3975C64.7021 35.0545 63.3591 36.3975 61.7021 36.3975H58.8211V32.1435C58.8211 31.5905 58.3731 31.1435 57.8211 31.1435H54.5671C54.0151 31.1435 53.5671 30.6955 53.5671 30.1435V27.3565C53.5671 26.8045 54.0151 26.3565 54.5671 26.3565H55.3871C55.9391 26.3565 56.3871 25.9095 56.3871 25.3565C56.3871 24.8045 55.9391 24.3565 55.3871 24.3565H49.7471C49.1951 24.3565 48.7471 24.8045 48.7471 25.3565C48.7471 25.9095 49.1951 26.3565 49.7471 26.3565H50.5671C51.1191 26.3565 51.5671 26.8045 51.5671 27.3565V30.1435C51.5671 30.6955 51.1191 31.1435 50.5671 31.1435H47.3131C46.7611 31.1435 46.3131 31.5905 46.3131 32.1435V40.6515C46.3131 40.6725 46.3241 40.6905 46.3251 40.7115C34.1491 43.2005 24.9601 53.9955 24.9601 66.8955V67.7655C24.9601 68.7495 24.2401 69.5755 23.2681 69.7325C15.3251 71.0205 9.2401 77.9285 9.2401 86.2305V86.2335C9.2401 87.6195 10.3631 88.7435 11.7501 88.7435H18.0031C19.4581 88.7435 20.4151 90.2415 19.8171 91.5675C19.1261 93.1025 18.6871 94.7735 18.5521 96.5295H14.3531C10.9031 96.5295 7.5211 97.8575 5.2101 100.419C3.0671 102.795 2.0021 105.851 2.2091 109.051C2.2441 109.588 2.6711 110.015 3.2091 110.015H8.0831C8.6351 110.015 9.0831 109.567 9.0831 109.015C9.0821 108.462 8.6351 108.015 8.0831 108.015H6.5261C5.1701 108.015 4.2141 106.696 4.6141 105.401C5.0481 103.999 5.8011 102.703 6.8461 101.595C8.7611 99.5635 11.5101 98.5295 14.3021 98.5295C14.3021 98.5295 19.3071 98.6895 19.5071 98.6895C20.0601 98.6895 20.5071 98.2425 20.5071 97.6895C20.5071 90.3195 26.6861 84.3645 34.1351 84.7325C41.1041 85.0775 46.4541 91.0895 46.4541 98.0675V99.6575C46.4541 100.211 46.9091 100.658 47.4631 100.658C50.5611 100.66 53.2281 102.539 54.3821 105.219C54.9511 106.539 53.9771 108.015 52.5401 108.015H30.8001C30.2481 108.015 29.8001 108.462 29.8001 109.015C29.8001 109.567 30.2481 110.015 30.8001 110.015H55.9931C56.5451 110.015 56.9931 109.567 56.9931 109.015ZM112.891 88.7265C113.071 88.7265 113.253 88.6785 113.417 88.5765L115.602 87.2225C116.072 86.9315 116.217 86.3145 115.926 85.8455C115.635 85.3765 115.018 85.2315 114.549 85.5215L112.363 86.8765C111.894 87.1675 111.749 87.7835 112.04 88.2535C112.229 88.5585 112.556 88.7265 112.891 88.7265ZM203.184 87.915H192.611C192.059 87.915 191.611 88.363 191.611 88.915C191.611 89.467 192.059 89.915 192.611 89.915H203.184C203.736 89.915 204.184 89.467 204.184 88.915C204.184 88.363 203.736 87.915 203.184 87.915ZM61.2838 114.151H51.0838C50.5318 114.151 50.0838 114.599 50.0838 115.151C50.0838 115.703 50.5318 116.151 51.0838 116.151H61.2838C61.8358 116.151 62.2838 115.703 62.2838 115.151C62.2838 114.599 61.8358 114.151 61.2838 114.151ZM116.229 52.518C115.677 52.518 115.229 52.966 115.229 53.518C115.229 54.07 115.677 54.518 116.229 54.518H127.462C128.014 54.518 128.462 54.07 128.462 53.518C128.462 52.966 128.014 52.518 127.462 52.518H116.229ZM112.407 49.4975H119.282C119.834 49.4975 120.282 49.0495 120.282 48.4975C120.282 47.9455 119.834 47.4975 119.282 47.4975H112.407C111.855 47.4975 111.407 47.9455 111.407 48.4975C111.407 49.0495 111.855 49.4975 112.407 49.4975ZM105.081 57.3979H107.336C107.889 57.3979 108.336 56.9499 108.336 56.3979C108.336 55.8459 107.889 55.3979 107.336 55.3979H105.081C104.529 55.3979 104.081 55.8459 104.081 56.3979C104.081 56.9499 104.529 57.3979 105.081 57.3979ZM134.404 34.8608H141.279C141.832 34.8608 142.279 34.4128 142.279 33.8608C142.279 33.3088 141.832 32.8608 141.279 32.8608H134.404C133.852 32.8608 133.404 33.3088 133.404 33.8608C133.404 34.4128 133.852 34.8608 134.404 34.8608ZM173.598 18.8383H204.936C205.488 18.8383 205.936 18.3903 205.936 17.8383C205.935 17.2863 205.488 16.8383 204.936 16.8383H174.847C176.24 11.8423 180.79 8.3293 186.084 8.3293C188.951 8.3293 191.709 9.3803 193.85 11.2903C194.083 11.4983 194.4 11.5863 194.705 11.5263C195.011 11.4663 195.272 11.2683 195.411 10.9893C197.556 6.6783 201.876 4.0003 206.685 4.0003C213.627 4.0003 219.274 9.6473 219.274 16.5883C219.274 16.6713 219.273 16.7553 219.271 16.8383H211.931C211.378 16.8383 210.931 17.2863 210.931 17.8383C210.931 18.3903 211.378 18.8383 211.931 18.8383H220.214C220.731 18.8383 221.163 18.4443 221.21 17.9293C221.25 17.4873 221.274 17.0403 221.274 16.5883C221.274 8.5443 214.729 2.0003 206.685 2.0003C201.528 2.0003 196.856 4.6573 194.218 9.0133C191.871 7.2753 189.027 6.3293 186.084 6.3293C179.41 6.3293 173.744 11.0983 172.613 17.6683C172.562 17.9593 172.643 18.2573 172.833 18.4833C173.023 18.7083 173.303 18.8383 173.598 18.8383Z" fill="#1F2225"/>
</g>
<defs>
<clipPath id="clip0">
<rect width="256" height="130" fill="white"/>
</clipPath>
</defs>
</svg>
