<svg width="388" height="236" viewBox="0 0 388 236" fill="none" xmlns="http://www.w3.org/2000/svg">
<g clip-path="url(#clip0)">
<path fill-rule="evenodd" clip-rule="evenodd" d="M327.341 101.601C300.271 101.601 278.123 79.4526 278.123 52.3836V52.3826C278.123 25.3136 300.271 3.1656 327.341 3.1656C354.411 3.1656 376.559 25.3136 376.559 52.3826V52.3836C376.559 79.4526 354.411 101.601 327.341 101.601ZM34.5298 222.99C15.4598 222.99 -0.000183105 207.531 -0.000183105 188.46V188.453C-0.000183105 169.383 15.4598 153.924 34.5298 153.924H83.6098C106.508 153.924 125.07 135.361 125.07 112.464V112.46C125.07 89.5618 106.508 70.9998 83.6098 70.9998H71.4888C52.1588 70.9998 36.4888 55.3298 36.4888 35.9998C36.4888 16.6698 52.1588 0.999802 71.4888 0.999802H211.136C240.407 0.999802 264.136 24.7288 264.136 53.9998V64.5718C264.136 93.8428 287.865 117.572 317.136 117.572H334.181C363.291 117.572 386.89 141.17 386.89 170.281C386.89 199.391 363.291 222.99 334.181 222.99H34.5298Z" fill="#4F545C" fill-opacity="0.3"/>
<rect x="183" y="150" width="92" height="73" fill="#F3D74A"/>
<path d="M189 14L333 13V223.5H275.5V150H253V123H279L301 45H189V14Z" fill="#F3D74A"/>
<path d="M92 50H165L152 137H75L92 50Z" fill="#627CA8"/>
<path fill-rule="evenodd" clip-rule="evenodd" d="M367.306 183.053C367.306 183.605 366.858 184.053 366.306 184.053C365.754 184.053 365.306 183.605 365.306 183.053V182.111C365.306 181.559 365.754 181.111 366.306 181.111C366.858 181.111 367.306 181.559 367.306 182.111V183.053ZM363.539 183.053C363.539 183.605 363.092 184.053 362.539 184.053C361.987 184.053 361.539 183.605 361.539 183.053V182.111C361.539 181.559 361.987 181.111 362.539 181.111C363.092 181.111 363.539 181.559 363.539 182.111V183.053ZM366.298 179.816H362.532C361.006 179.816 359.765 181.056 359.765 182.582C359.765 184.107 361.006 185.348 362.532 185.348H366.298C367.823 185.348 369.064 184.107 369.064 182.582C369.064 181.056 367.823 179.816 366.298 179.816ZM367.306 170.812C367.306 171.365 366.858 171.812 366.306 171.812C365.754 171.812 365.306 171.365 365.306 170.812V169.872C365.306 169.319 365.754 168.872 366.306 168.872C366.858 168.872 367.306 169.319 367.306 169.872V170.812ZM363.539 170.812C363.539 171.365 363.092 171.812 362.539 171.812C361.987 171.812 361.539 171.365 361.539 170.812V169.872C361.539 169.319 361.987 168.872 362.539 168.872C363.092 168.872 363.539 169.319 363.539 169.872V170.812ZM366.298 167.576H362.532C361.006 167.576 359.765 168.817 359.765 170.342C359.765 171.868 361.006 173.107 362.532 173.107H366.298C367.823 173.107 369.064 171.868 369.064 170.342C369.064 168.817 367.823 167.576 366.298 167.576Z" fill="#4F545C"/>
<path fill-rule="evenodd" clip-rule="evenodd" d="M120.514 189.645C120.514 190.197 120.066 190.645 119.514 190.645H111.981H109.157H93.1497C92.5967 190.645 92.1497 190.197 92.1497 189.645V146.332C92.1497 145.78 92.5967 145.332 93.1497 145.332H109.157H111.981H119.514C120.066 145.332 120.514 145.78 120.514 146.332V189.645ZM125.717 132.108C125.717 132.66 125.269 133.108 124.717 133.108H50.2997V211.36H128.424V132.108H125.717ZM183.745 14.3741H172.634L149.48 132.3C149.388 132.769 148.977 133.107 148.499 133.107H130.424V211.359H182.309V156.179C182.309 155.627 182.757 155.179 183.309 155.179V151.53H160.205C159.653 151.53 159.205 151.082 159.205 150.53V122.282C159.205 121.73 159.653 121.282 160.205 121.282C160.758 121.282 161.205 121.73 161.205 122.282H163.913C163.913 121.73 164.361 121.282 164.913 121.282H166.203C166.755 121.282 167.203 121.73 167.203 122.282H167.937C167.937 121.73 168.385 121.282 168.937 121.282H174.777V113.817C171.584 113.332 169.127 110.577 169.127 107.251C169.127 103.584 172.11 100.602 175.777 100.602C179.443 100.602 182.426 103.584 182.426 107.251C182.426 110.577 179.969 113.332 176.777 113.817V121.282H182.309V118.455C182.309 116.865 183.602 115.571 185.192 115.571H189.702L209.603 46.3871H188.453C187.9 46.3871 187.453 45.9391 187.453 45.3871V13.3741H184.745C184.745 13.9261 184.297 14.3741 183.745 14.3741ZM129.424 222.99H182.309V213.36H130.424V219.578C130.424 220.131 129.976 220.578 129.424 220.578V222.99ZM83.4932 115.623L95.8002 52.9401H84.9372L74.2362 107.444C74.1422 107.921 73.7232 108.251 73.2552 108.251C73.1912 108.251 73.1272 108.246 73.0612 108.233C72.9662 108.214 72.8852 108.168 72.8032 108.125L71.3042 115.758C73.2482 114.979 75.3642 114.539 77.5832 114.539C79.6642 114.539 81.6502 114.934 83.4932 115.623ZM207.848 118.455V121.283H216.295V113.817C213.102 113.332 210.645 110.577 210.645 107.251C210.645 103.585 213.628 100.602 217.295 100.602C220.961 100.602 223.944 103.585 223.944 107.251C223.944 110.577 221.487 113.332 218.295 113.817V121.283H224.68V118.455C224.68 116.865 225.973 115.572 227.562 115.572H233.212C234.802 115.572 236.095 116.865 236.095 118.455V121.283H238.803V118.455C238.803 116.865 240.097 115.572 241.686 115.572H247.335C248.925 115.572 250.219 116.865 250.219 118.455V121.283H252.479H278.596L300.141 46.3876H280.726H222.041L202.139 115.572H204.965C206.555 115.572 207.848 116.865 207.848 118.455Z" fill="#36393E"/>
<path fill-rule="evenodd" clip-rule="evenodd" d="M293.017 141.846L294.381 137.241C294.456 136.987 294.629 136.773 294.863 136.646C295.096 136.52 295.369 136.491 295.624 136.566L314.025 142.017C315.701 139.813 316.708 137.074 316.708 134.097C316.708 126.861 310.821 120.974 303.585 120.974C296.349 120.974 290.461 126.861 290.461 134.097C290.461 136.997 291.418 139.671 293.017 141.846Z" fill="#98B0D1"/>
<path fill-rule="evenodd" clip-rule="evenodd" d="M236.095 194.725H243.511V162.829H236.095V194.725Z" fill="#36393E"/>
<path fill-rule="evenodd" clip-rule="evenodd" d="M196.043 37.796H273.135V20.964H196.043V37.796Z" fill="#4F545C"/>
<path fill-rule="evenodd" clip-rule="evenodd" d="M207.319 190.639H201.67C201.117 190.639 200.67 190.191 200.67 189.639V183.048C200.67 182.495 201.117 182.048 201.67 182.048H207.319C207.871 182.048 208.319 182.495 208.319 183.048V189.639C208.319 190.191 207.871 190.639 207.319 190.639ZM211.587 178.777C211.587 178.629 211.624 178.491 211.681 178.365H198.845C198.293 178.365 197.845 177.917 197.845 177.365V167.008C197.845 166.455 198.293 166.008 198.845 166.008H211.587V162.829H194.666V194.725H211.587V178.777ZM216.676 183.047C216.676 182.495 217.124 182.047 217.676 182.047H226.15C226.702 182.047 227.15 182.495 227.15 183.047V189.638C227.15 190.191 226.702 190.638 226.15 190.638H217.676C217.124 190.638 216.676 190.191 216.676 189.638V183.047ZM213.587 194.725H230.858H234.095V162.828H230.858H213.587V166.007H229.916C230.468 166.007 230.916 166.455 230.916 167.007V177.364C230.916 177.916 230.468 178.364 229.916 178.364H213.492C213.55 178.49 213.587 178.628 213.587 178.776V194.725Z" fill="#4F545C"/>
<path fill-rule="evenodd" clip-rule="evenodd" d="M296.014 138.768L292.838 149.49L324.324 158.816L327.5 148.095L296.014 138.768Z" fill="#D2685B"/>
<path fill-rule="evenodd" clip-rule="evenodd" d="M112.981 188.645H118.514V147.332H112.981V188.645Z" fill="#4F545C"/>
<path fill-rule="evenodd" clip-rule="evenodd" d="M104.507 162.339C104.507 162.891 104.059 163.339 103.507 163.339H99.7408C99.1888 163.339 98.7408 162.891 98.7408 162.339V152.923C98.7408 152.371 99.1888 151.923 99.7408 151.923H103.507C104.059 151.923 104.507 152.371 104.507 152.923V162.339ZM104.507 183.485C104.507 184.037 104.059 184.485 103.507 184.485H99.7408C99.1888 184.485 98.7408 184.037 98.7408 183.485V174.069C98.7408 173.517 99.1888 173.069 99.7408 173.069H103.507C104.059 173.069 104.507 173.517 104.507 174.069V183.485ZM110.981 188.645V147.332H109.156H94.1498V188.645H109.156H110.981Z" fill="#72767D"/>
<path fill-rule="evenodd" clip-rule="evenodd" d="M100.741 161.339H102.507V153.923H100.741V161.339Z" fill="#4F545C"/>
<path fill-rule="evenodd" clip-rule="evenodd" d="M100.741 182.484H102.507V175.068H100.741V182.484Z" fill="#4F545C"/>
<path d="M211 45H221.5L198 122H189L211 45Z" fill="#F3D74A"/>
<path fill-rule="evenodd" clip-rule="evenodd" d="M361.099 231.837C361.099 232.468 361.613 232.982 362.244 232.982H366.604V230.691H362.244C361.613 230.691 361.099 231.206 361.099 231.837Z" fill="#4F545C"/>
<path fill-rule="evenodd" clip-rule="evenodd" d="M171.127 107.251C171.127 109.814 173.213 111.9 175.776 111.9C178.34 111.9 180.426 109.814 180.426 107.251C180.426 104.688 178.34 102.602 175.776 102.602C173.213 102.602 171.127 104.688 171.127 107.251ZM217.295 111.9C219.858 111.9 221.944 109.814 221.944 107.251C221.944 104.687 219.858 102.601 217.295 102.601C214.732 102.601 212.646 104.687 212.646 107.251C212.646 109.814 214.732 111.9 217.295 111.9Z" fill="#FF6243"/>
<path fill-rule="evenodd" clip-rule="evenodd" d="M190.841 117.571H185.192C184.705 117.571 184.308 117.967 184.308 118.454V121.282H191.724V118.454C191.724 117.967 191.328 117.571 190.841 117.571ZM198.433 121.282H205.849V118.454C205.849 117.968 205.452 117.571 204.965 117.571H199.316C198.829 117.571 198.433 117.968 198.433 118.454V121.282ZM234.095 121.282V118.454C234.095 117.968 233.699 117.571 233.212 117.571H227.562C227.075 117.571 226.679 117.968 226.679 118.454V121.282H234.095ZM248.219 121.282V118.454C248.219 117.968 247.823 117.571 247.336 117.571H241.686C241.199 117.571 240.803 117.968 240.803 118.454V121.282H248.219ZM109.931 125.009C106.848 125.009 104.34 127.517 104.34 130.6V131.108H115.522V130.6C115.522 127.517 113.014 125.009 109.931 125.009Z" fill="#FFDA44"/>
<path fill-rule="evenodd" clip-rule="evenodd" d="M77.5835 116.539C69.4685 116.539 62.8585 123.042 62.6555 131.108H92.5115C92.3085 123.042 85.6975 116.539 77.5835 116.539Z" fill="#FF6243"/>
<path d="M92 13.5H170.5L163.5 51.5H85L92 13.5Z" fill="#981302"/>
<path fill-rule="evenodd" clip-rule="evenodd" d="M207.548 118.08V120.909H215.995V113.442C212.802 112.957 210.345 110.202 210.345 106.877C210.345 103.211 213.328 100.228 216.995 100.228C220.661 100.228 223.644 103.211 223.644 106.877C223.644 110.202 221.187 112.957 217.995 113.442V120.909H224.38V118.08C224.38 116.491 225.673 115.198 227.262 115.198H232.912C234.502 115.198 235.795 116.491 235.795 118.08V120.909H238.503V118.08C238.503 116.491 239.797 115.198 241.386 115.198H247.035C248.625 115.198 249.919 116.491 249.919 118.08V120.909H252.179H278.296L299.841 46.0135H280.426H221.741L201.839 115.198H204.665C206.255 115.198 207.548 116.491 207.548 118.08Z" fill="#627CA8"/>
<path fill-rule="evenodd" clip-rule="evenodd" d="M168.937 123.282C168.385 123.282 167.937 122.834 167.937 122.282H167.202C167.202 122.834 166.754 123.282 166.202 123.282H164.913C164.361 123.282 163.913 122.834 163.913 122.282H161.205V149.53H251.479V123.282H168.937Z" fill="#C4A300"/>
<path fill-rule="evenodd" clip-rule="evenodd" d="M280.727 31.834C280.175 31.834 279.727 32.282 279.727 32.834V33.147C279.727 33.699 280.175 34.147 280.727 34.147C281.279 34.147 281.727 33.699 281.727 33.147V32.834C281.727 32.282 281.279 31.834 280.727 31.834ZM264.72 37.7964H204.459C199.812 37.7964 196.044 34.0284 196.044 29.3804C196.044 24.7334 199.812 20.9644 204.459 20.9644H264.72C269.367 20.9644 273.136 24.7334 273.136 29.3804C273.136 34.0284 269.367 37.7964 264.72 37.7964ZM274.136 18.9644H195.044C194.491 18.9644 194.044 19.4124 194.044 19.9644V38.7964C194.044 39.3484 194.491 39.7964 195.044 39.7964H274.136C274.688 39.7964 275.136 39.3484 275.136 38.7964V19.9644C275.136 19.4124 274.688 18.9644 274.136 18.9644ZM243.511 191.017C243.511 193.065 241.851 194.725 239.803 194.725C237.756 194.725 236.095 193.065 236.095 191.017V166.537C236.095 164.489 237.756 162.829 239.803 162.829C241.851 162.829 243.511 164.489 243.511 166.537V191.017ZM234.095 191.725C234.095 193.382 232.752 194.725 231.095 194.725H230.859H213.587V181.364C213.587 179.707 214.93 178.364 216.587 178.364H229.917C230.469 178.364 230.917 177.916 230.917 177.364V167.007C230.917 166.455 230.469 166.007 229.917 166.007H215.587C214.483 166.007 213.587 165.112 213.587 164.007V162.829H230.859H231.095C232.752 162.829 234.095 164.172 234.095 165.829V191.725ZM213.493 178.364H213.516C213.509 178.378 213.501 178.382 213.493 178.364ZM199.845 175.364V169.007C199.845 168.455 200.293 168.007 200.845 168.007H227.917C228.469 168.007 228.917 168.455 228.917 169.007V175.364C228.917 175.916 228.469 176.364 227.917 176.364H200.845C200.293 176.364 199.845 175.916 199.845 175.364ZM194.666 192.725V164.829C194.666 163.724 195.562 162.829 196.666 162.829H211.587V164.007C211.587 165.112 210.692 166.007 209.587 166.007H198.845C198.293 166.007 197.845 166.455 197.845 167.007V177.364C197.845 177.916 198.293 178.364 198.845 178.364H208.587C210.244 178.364 211.587 179.707 211.587 181.364V194.725H196.666C195.562 194.725 194.666 193.83 194.666 192.725ZM244.511 160.829H235.095H230.859H193.666C193.114 160.829 192.666 161.276 192.666 161.829V195.725C192.666 196.277 193.114 196.725 193.666 196.725H230.859H235.095H244.511C245.063 196.725 245.511 196.277 245.511 195.725V161.829C245.511 161.276 245.063 160.829 244.511 160.829Z" fill="#1F2225"/>
<rect x="353" y="161" width="22" height="30" fill="#7F7F7F"/>
<path fill-rule="evenodd" clip-rule="evenodd" d="M202.67 188.639H206.319V184.048H202.67V188.639ZM207.319 182.047H201.669C201.117 182.047 200.669 182.495 200.669 183.047V189.639C200.669 190.191 201.117 190.639 201.669 190.639H207.319C207.871 190.639 208.319 190.191 208.319 189.639V183.047C208.319 182.495 207.871 182.047 207.319 182.047ZM218.676 188.639H225.15V184.048H218.676V188.639ZM226.15 182.047H217.676C217.124 182.047 216.676 182.495 216.676 183.047V189.639C216.676 190.191 217.124 190.639 217.676 190.639H226.15C226.703 190.639 227.15 190.191 227.15 189.639V183.047C227.15 182.495 226.703 182.047 226.15 182.047ZM305.922 121.177C311.063 122.07 315.263 126.07 316.385 131.165C317.17 134.73 316.477 138.108 314.822 140.844C314.393 141.552 313.527 141.869 312.733 141.634L295.624 136.566C295.369 136.491 295.095 136.52 294.862 136.646C294.629 136.773 294.456 136.987 294.38 137.241C293.851 139.028 291.274 138.993 290.832 137.183C290.59 136.194 290.461 135.161 290.461 134.097C290.461 126.095 297.66 119.743 305.922 121.177ZM327.501 148.094L324.324 158.816L292.839 149.489L296.014 138.768L327.501 148.094ZM288.467 133.673C288.37 137.174 289.479 140.409 291.397 143.016C291.962 143.783 292.153 144.76 291.883 145.673L290.637 149.88C290.48 150.41 290.782 150.966 291.312 151.123L324.715 161.018C324.81 161.046 324.905 161.059 325 161.059C325.431 161.059 325.829 160.778 325.958 160.343L329.702 147.704C329.777 147.449 329.749 147.176 329.622 146.943C329.496 146.709 329.281 146.536 329.027 146.461L319.571 143.659C317.86 143.153 317.002 141.288 317.658 139.629C318.335 137.915 318.708 136.05 318.708 134.097C318.708 125.521 311.532 118.589 302.869 118.99C295.058 119.352 288.684 125.856 288.467 133.673ZM10.4683 222.99H9.38531C8.83331 222.99 8.38531 223.438 8.38531 223.99C8.38531 224.542 8.83331 224.99 9.38531 224.99H10.4683C11.0203 224.99 11.4683 224.542 11.4683 223.99C11.4683 223.438 11.0203 222.99 10.4683 222.99Z" fill="#1F2225"/>
<path fill-rule="evenodd" clip-rule="evenodd" d="M362.244 230.692H365.465C366.095 230.692 366.605 231.202 366.605 231.832V231.841C366.605 232.471 366.095 232.981 365.465 232.981H362.244C361.613 232.981 361.099 232.467 361.099 231.837C361.099 231.206 361.613 230.692 362.244 230.692ZM334.455 213.99V184.852C334.455 181.917 338.221 180.737 339.919 183.131C340.834 184.421 341.372 185.995 341.372 187.693V214.109C341.372 217.321 342.187 220.345 343.617 222.99H343.455C338.484 222.99 334.455 218.961 334.455 213.99ZM305.455 222.99H303.583C288.672 222.99 276.583 210.901 276.583 195.99V150.53C276.583 149.978 276.136 149.53 275.583 149.53H257.479C255.27 149.53 253.479 147.739 253.479 145.53V127.282C253.479 125.073 255.27 123.282 257.479 123.282H279.349C279.795 123.282 280.187 122.987 280.31 122.559L302.431 45.6639C302.517 45.3619 302.457 45.0369 302.268 44.7859C302.079 44.5349 301.784 44.3869 301.47 44.3869H286.727C283.966 44.3869 281.727 42.1489 281.727 39.3869V36.5999C281.727 36.0469 281.279 35.5999 280.727 35.5999H280.726C280.175 35.5999 279.727 36.0469 279.727 36.5999V42.3869C279.727 43.4919 278.831 44.3869 277.727 44.3869H191.452C190.348 44.3869 189.452 43.4919 189.452 42.3869V16.3739C189.452 15.2699 190.348 14.3739 191.452 14.3739H277.727C278.831 14.3739 279.727 15.2699 279.727 16.3739V26.8699C279.727 27.4219 280.175 27.8699 280.726 27.8699H280.727C281.279 27.8699 281.727 27.4219 281.727 26.8699V19.3739C281.727 16.6129 283.966 14.3739 286.727 14.3739H326.455C329.768 14.3739 332.455 17.0609 332.455 20.3739V195.99C332.455 210.901 320.367 222.99 305.455 222.99ZM217.295 111.9C214.732 111.9 212.646 109.815 212.646 107.251C212.646 104.688 214.732 102.602 217.295 102.602C219.859 102.602 221.945 104.688 221.945 107.251C221.945 109.815 219.859 111.9 217.295 111.9ZM250.219 121.282V118.455C250.219 116.862 248.928 115.571 247.336 115.571H241.686C240.094 115.571 238.804 116.862 238.804 118.454V121.282H236.096V118.455C236.096 116.862 234.805 115.571 233.212 115.571H227.563C225.971 115.571 224.68 116.862 224.68 118.454V121.282H221.295C219.639 121.282 218.295 119.939 218.295 118.282V113.817C221.824 113.281 224.454 109.972 223.861 106.184C223.438 103.484 221.319 101.261 218.637 100.734C214.386 99.8979 210.646 103.146 210.646 107.251C210.646 110.577 213.103 113.332 216.295 113.817V118.282C216.295 119.939 214.952 121.282 213.295 121.282H207.848V118.455C207.848 116.862 206.557 115.571 204.965 115.571H202.14L219.544 55.0699C221.023 49.9289 225.726 46.3869 231.076 46.3869H280.727H284.203C292.184 46.3869 297.942 54.0339 295.735 61.7049L282.343 108.258C280.124 115.97 273.069 121.282 265.045 121.282H252.479H250.219ZM248.219 121.282H240.804V118.455C240.804 117.968 241.2 117.571 241.686 117.571H247.336C247.823 117.571 248.219 117.968 248.219 118.455V121.282ZM234.096 121.282H226.68V118.455C226.68 117.968 227.076 117.571 227.563 117.571H233.212C233.699 117.571 234.096 117.968 234.096 118.455V121.282ZM205.848 121.282H198.433V118.455C198.433 117.968 198.829 117.571 199.316 117.571H204.965C205.452 117.571 205.848 117.968 205.848 118.455V121.282ZM196.433 118.455V121.282H193.725V118.455C193.725 117.179 192.887 116.108 191.737 115.728L211.684 46.3869H219.961L200.059 115.571H199.316C197.726 115.571 196.433 116.865 196.433 118.455ZM191.725 121.282H184.309V118.455C184.309 117.968 184.705 117.571 185.192 117.571H190.842C191.328 117.571 191.725 117.968 191.725 118.455V121.282ZM182.309 218.175C182.309 220.834 180.153 222.99 177.494 222.99H129.424H35.9217C33.2627 222.99 31.1067 220.834 31.1067 218.175V218.174C31.1067 215.515 33.2627 213.359 35.9217 213.359H126.424C127.529 213.359 128.424 214.255 128.424 215.359V219.578C128.424 220.13 128.872 220.578 129.424 220.578C129.976 220.578 130.424 220.13 130.424 219.578V215.359C130.424 214.255 131.32 213.359 132.424 213.359H177.494C180.153 213.359 182.309 215.515 182.309 218.174V218.175ZM115.522 131.108H104.34V130.6C104.34 127.517 106.848 125.009 109.932 125.009C113.015 125.009 115.522 127.517 115.522 130.6V131.108ZM50.2997 135.108C50.2997 134.003 51.1957 133.108 52.2997 133.108H124.717C125.269 133.108 125.717 132.66 125.717 132.108C125.716 131.555 125.269 131.108 124.717 131.108H117.763C117.63 131.108 117.522 131 117.522 130.867V130.864C117.522 127.257 115.129 123.945 111.602 123.189C106.691 122.134 102.34 125.869 102.34 130.6V131.108H98.1027C96.2267 131.108 94.5397 129.836 94.1547 128C93.0997 122.97 89.8097 118.758 85.3697 116.449L97.2047 56.1699C97.5737 54.2929 99.2187 52.9399 101.13 52.9399H158.161C160.68 52.9399 162.572 55.2389 162.087 57.7109L147.676 131.108H129.424C128.872 131.108 128.424 131.555 128.424 132.108V209.359C128.424 210.464 127.529 211.359 126.424 211.359H52.2997C51.1957 211.359 50.2997 210.464 50.2997 209.359V135.108ZM77.5837 116.539C85.6977 116.539 92.3077 123.042 92.5117 131.108H62.6557C62.8587 123.042 69.4687 116.539 77.5837 116.539ZM87.2027 41.3989L90.9247 22.4469C91.8457 17.7569 95.9567 14.3739 100.737 14.3739H157.225C164.151 14.3739 169.354 20.6969 168.019 27.4929L165.952 38.0229C164.479 45.5269 157.9 50.9399 150.252 50.9399H95.0537C90.0167 50.9399 86.2327 46.3409 87.2027 41.3989ZM171.127 107.251C171.127 104.688 173.213 102.602 175.777 102.602C178.34 102.602 180.426 104.688 180.426 107.251C180.426 109.815 178.34 111.9 175.777 111.9C173.213 111.9 171.127 109.815 171.127 107.251ZM385.89 222.99H345.95C344.327 220.413 343.372 217.374 343.372 214.109V187.693C343.372 183.831 341.152 180.477 337.92 178.84C335.84 177.787 334.455 175.735 334.455 173.404V18.3739C334.455 15.0609 331.768 12.3739 328.455 12.3739H280.727H188.452C187.9 12.3739 187.452 12.8219 187.452 13.3739V45.3869C187.452 45.9399 187.9 46.3869 188.452 46.3869H206.947C208.277 46.3869 209.237 47.6619 208.869 48.9399L189.702 115.571H185.192C183.6 115.571 182.309 116.862 182.309 118.455V121.282H179.777C178.12 121.282 176.777 119.939 176.777 118.282V113.817C180.306 113.281 182.936 109.97 182.342 106.182C181.918 103.483 179.799 101.261 177.119 100.734C172.867 99.8979 169.127 103.146 169.127 107.251C169.127 110.577 171.584 113.332 174.777 113.817V118.282C174.777 119.939 173.433 121.282 171.777 121.282H168.937C168.385 121.282 167.937 121.73 167.937 122.282C167.937 122.835 168.385 123.282 168.937 123.282H251.479V144.53C251.479 147.291 249.241 149.53 246.479 149.53H166.205C163.444 149.53 161.205 147.291 161.205 144.53V122.282C161.205 121.73 160.758 121.282 160.205 121.282C159.653 121.282 159.205 121.73 159.205 122.282V150.53C159.205 151.082 159.653 151.53 160.205 151.53H183.309H252.479H272.583C273.688 151.53 274.583 152.425 274.583 153.53V220.99C274.583 222.094 273.688 222.99 272.583 222.99H186.309C185.204 222.99 184.309 222.094 184.309 220.99V156.179C184.309 155.627 183.861 155.179 183.309 155.179C182.757 155.179 182.309 155.627 182.309 156.179V211.359H134.424C132.215 211.359 130.424 209.568 130.424 207.359V133.108H148.499C148.977 133.108 149.388 132.769 149.48 132.3L171.683 19.2179C172.235 16.4039 174.702 14.3739 177.57 14.3739H183.745C184.297 14.3739 184.745 13.9259 184.745 13.3739C184.745 12.8219 184.297 12.3739 183.745 12.3739H91.6867C91.2087 12.3739 90.7977 12.7129 90.7047 13.1809L72.2727 107.059C72.1847 107.505 72.4187 107.926 72.8027 108.126C72.8847 108.169 72.9657 108.214 73.0617 108.233C73.1267 108.246 73.1917 108.252 73.2557 108.252C73.7237 108.252 74.1417 107.921 74.2357 107.444L84.0927 57.2429C84.5827 54.7429 86.7747 52.9399 89.3227 52.9399C92.6787 52.9399 95.1987 56.0039 94.5527 59.2969L83.4937 115.623C81.6497 114.934 79.6637 114.539 77.5837 114.539C75.3637 114.539 73.2487 114.979 71.3037 115.758C66.0997 117.844 62.1687 122.434 61.0057 128.032C60.6287 129.846 58.9667 131.108 57.1147 131.108H49.2997C48.7477 131.108 48.2997 131.555 48.2997 132.108V201.359C48.2997 206.882 43.8227 211.359 38.2997 211.359H30.1067C29.5547 211.359 29.1067 211.807 29.1067 212.359V212.99C29.1067 218.513 24.6297 222.99 19.1067 222.99H15.6737C15.1207 222.99 14.6737 223.438 14.6737 223.99C14.6737 224.542 15.1207 224.99 15.6737 224.99H344.887C348.135 229.518 353.343 232.531 359.265 232.794C359.672 234.058 360.846 234.981 362.244 234.981H367.605H370.286C370.838 234.981 371.286 234.533 371.286 233.981C371.286 233.429 370.838 232.981 370.286 232.981H369.745C369.115 232.981 368.605 232.471 368.605 231.841V231.832C368.605 231.202 369.115 230.692 369.745 230.692H370.286C370.838 230.692 371.286 230.244 371.286 229.692C371.286 229.14 370.838 228.692 370.286 228.692H367.605H362.244C360.877 228.692 359.723 229.574 359.29 230.796C354.551 230.567 350.326 228.37 347.421 224.99H385.89C386.442 224.99 386.89 224.542 386.89 223.99C386.89 223.438 386.442 222.99 385.89 222.99Z" fill="#1F2225"/>
<path fill-rule="evenodd" clip-rule="evenodd" d="M115.748 188.645C114.22 188.645 112.981 187.406 112.981 185.879V150.099C112.981 148.571 114.22 147.332 115.748 147.332C117.275 147.332 118.514 148.571 118.514 150.099V185.879C118.514 187.406 117.275 188.645 115.748 188.645ZM110.981 186.825C110.981 187.83 110.166 188.645 109.162 188.645H109.157H95.9696C94.9646 188.645 94.1496 187.83 94.1496 186.825V149.152C94.1496 148.147 94.9646 147.332 95.9696 147.332H109.157H109.162C110.166 147.332 110.981 148.147 110.981 149.152V186.825ZM119.514 145.332H111.981H109.157H93.1496C92.5976 145.332 92.1496 145.78 92.1496 146.332V189.645C92.1496 190.197 92.5976 190.645 93.1496 190.645H109.157H111.981H119.514C120.066 190.645 120.514 190.197 120.514 189.645V146.332C120.514 145.78 120.066 145.332 119.514 145.332Z" fill="#1F2225"/>
<path fill-rule="evenodd" clip-rule="evenodd" d="M101.627 161.339H101.621C101.135 161.339 100.741 160.945 100.741 160.459V154.803C100.741 154.318 101.135 153.923 101.621 153.923H101.627C102.113 153.923 102.507 154.318 102.507 154.803V160.459C102.507 160.945 102.113 161.339 101.627 161.339ZM103.507 151.923H99.741C99.189 151.923 98.741 152.371 98.741 152.923V162.339C98.741 162.891 99.189 163.339 99.741 163.339H103.507C104.059 163.339 104.507 162.891 104.507 162.339V152.923C104.507 152.371 104.059 151.923 103.507 151.923ZM101.627 182.484H101.621C101.135 182.484 100.741 182.09 100.741 181.604V175.948C100.741 175.463 101.135 175.068 101.621 175.068H101.627C102.113 175.068 102.507 175.463 102.507 175.948V181.604C102.507 182.09 102.113 182.484 101.627 182.484ZM103.507 173.068H99.741C99.189 173.068 98.741 173.516 98.741 174.068V183.484C98.741 184.036 99.189 184.484 99.741 184.484H103.507C104.059 184.484 104.507 184.036 104.507 183.484V174.068C104.507 173.516 104.059 173.068 103.507 173.068ZM356.586 161.965H372.242C373.347 161.965 374.242 162.861 374.242 163.965V189.037C374.242 190.141 373.347 191.037 372.242 191.037H356.586C355.482 191.037 354.586 190.141 354.586 189.037V163.965C354.586 162.861 355.482 161.965 356.586 161.965ZM354.586 193.037H374.242C375.347 193.037 376.242 192.141 376.242 191.037V161.965C376.242 160.861 375.347 159.965 374.242 159.965H354.586C353.482 159.965 352.586 160.861 352.586 161.965V191.037C352.586 192.141 353.482 193.037 354.586 193.037Z" fill="#1F2225"/>
<path fill-rule="evenodd" clip-rule="evenodd" d="M366.297 173.108H362.531C361.005 173.108 359.764 171.867 359.764 170.342C359.764 168.816 361.005 167.576 362.531 167.576H366.297C367.822 167.576 369.063 168.816 369.063 170.342C369.063 171.867 367.822 173.108 366.297 173.108ZM366.297 165.576H362.531C359.902 165.576 357.764 167.714 357.764 170.342C357.764 172.97 359.902 175.108 362.531 175.108H366.297C368.925 175.108 371.063 172.97 371.063 170.342C371.063 167.714 368.925 165.576 366.297 165.576Z" fill="#1F2225"/>
<path fill-rule="evenodd" clip-rule="evenodd" d="M362.539 168.871C361.987 168.871 361.539 169.319 361.539 169.871V170.812C361.539 171.365 361.987 171.812 362.539 171.812C363.091 171.812 363.539 171.365 363.539 170.812V169.871C363.539 169.319 363.091 168.871 362.539 168.871ZM366.306 168.871C365.754 168.871 365.306 169.319 365.306 169.871V170.812C365.306 171.365 365.754 171.812 366.306 171.812C366.858 171.812 367.306 171.365 367.306 170.812V169.871C367.306 169.319 366.858 168.871 366.306 168.871ZM366.297 185.349H362.531C361.005 185.349 359.764 184.108 359.764 182.582C359.764 181.057 361.005 179.816 362.531 179.816H366.297C367.822 179.816 369.063 181.057 369.063 182.582C369.063 184.108 367.822 185.349 366.297 185.349ZM366.297 177.816H362.531C359.902 177.816 357.764 179.954 357.764 182.582C357.764 185.211 359.902 187.349 362.531 187.349H366.297C368.925 187.349 371.063 185.211 371.063 182.582C371.063 179.954 368.925 177.816 366.297 177.816Z" fill="#1F2225"/>
<path fill-rule="evenodd" clip-rule="evenodd" d="M362.539 181.111C361.987 181.111 361.539 181.559 361.539 182.111V183.053C361.539 183.605 361.987 184.053 362.539 184.053C363.091 184.053 363.539 183.605 363.539 183.053V182.111C363.539 181.559 363.091 181.111 362.539 181.111ZM366.306 181.111C365.754 181.111 365.306 181.559 365.306 182.111V183.053C365.306 183.605 365.754 184.053 366.306 184.053C366.858 184.053 367.306 183.605 367.306 183.053V182.111C367.306 181.559 366.858 181.111 366.306 181.111ZM164.913 121.282C164.361 121.282 163.913 121.73 163.913 122.282C163.913 122.834 164.361 123.282 164.913 123.282H166.202C166.754 123.282 167.202 122.834 167.202 122.282C167.202 121.73 166.754 121.282 166.202 121.282H164.913ZM25.3188 99.0914H26.8288V100.601C26.8288 101.154 27.2768 101.601 27.8288 101.601C28.3808 101.601 28.8288 101.154 28.8288 100.601V99.0914H30.3388C30.8908 99.0914 31.3388 98.6434 31.3388 98.0914C31.3388 97.5394 30.8908 97.0914 30.3388 97.0914H28.8288V95.5814C28.8288 95.0294 28.3808 94.5814 27.8288 94.5814C27.2768 94.5814 26.8288 95.0294 26.8288 95.5814V97.0914H25.3188C24.7668 97.0914 24.3188 97.5394 24.3188 98.0914C24.3188 98.6434 24.7668 99.0914 25.3188 99.0914ZM65.584 49.897H67.094V51.407C67.094 51.96 67.542 52.407 68.094 52.407C68.646 52.407 69.094 51.96 69.094 51.407V49.897H70.604C71.156 49.897 71.604 49.449 71.604 48.897C71.604 48.345 71.156 47.897 70.604 47.897H69.094V46.387C69.094 45.835 68.646 45.387 68.094 45.387C67.542 45.387 67.094 45.835 67.094 46.387V47.897H65.584C65.032 47.897 64.584 48.345 64.584 48.897C64.584 49.449 65.032 49.897 65.584 49.897ZM361.131 77.919C361.387 77.919 361.643 77.821 361.838 77.626L363.021 76.443C363.412 76.052 363.412 75.419 363.021 75.029C362.631 74.638 361.998 74.638 361.607 75.029L360.424 76.212C360.033 76.603 360.033 77.235 360.424 77.626C360.619 77.821 360.875 77.919 361.131 77.919ZM355.215 83.835C355.471 83.835 355.727 83.737 355.922 83.542L357.105 82.359C357.496 81.968 357.496 81.335 357.105 80.945C356.715 80.554 356.082 80.554 355.691 80.945L354.508 82.128C354.117 82.519 354.117 83.151 354.508 83.542C354.703 83.737 354.959 83.835 355.215 83.835ZM361.607 83.542C361.802 83.737 362.058 83.835 362.314 83.835C362.57 83.835 362.826 83.737 363.021 83.542C363.412 83.151 363.412 82.519 363.021 82.128L361.838 80.945C361.447 80.554 360.815 80.554 360.424 80.945C360.033 81.335 360.033 81.968 360.424 82.359L361.607 83.542ZM355.691 77.626C355.886 77.821 356.142 77.919 356.398 77.919C356.654 77.919 356.91 77.821 357.105 77.626C357.496 77.235 357.496 76.603 357.105 76.212L355.922 75.029C355.531 74.638 354.899 74.638 354.508 75.029C354.117 75.419 354.117 76.052 354.508 76.443L355.691 77.626ZM375.242 100.091C376.075 100.091 376.752 100.768 376.752 101.601C376.752 102.433 376.075 103.111 375.242 103.111C374.409 103.111 373.732 102.433 373.732 101.601C373.732 100.768 374.409 100.091 375.242 100.091ZM375.242 105.111C377.178 105.111 378.752 103.536 378.752 101.601C378.752 99.6664 377.178 98.0914 375.242 98.0914C373.307 98.0914 371.732 99.6664 371.732 101.601C371.732 103.536 373.307 105.111 375.242 105.111Z" fill="#1F2225"/>
<path fill-rule="evenodd" clip-rule="evenodd" d="M120.214 189.271C120.214 189.823 119.766 190.271 119.214 190.271H111.681H108.857H92.85C92.297 190.271 91.85 189.823 91.85 189.271V145.958C91.85 145.406 92.297 144.958 92.85 144.958H108.857H111.681H119.214C119.766 144.958 120.214 145.406 120.214 145.958V189.271ZM125.417 131.734C125.417 132.286 124.969 132.734 124.417 132.734H50V210.986H128.124V131.734H125.417ZM183.445 14H172.334L149.18 131.926C149.088 132.395 148.677 132.733 148.199 132.733H130.124V210.985H182.009V155.805C182.009 155.253 182.457 154.805 183.009 154.805V151.156H159.905C159.353 151.156 158.905 150.708 158.905 150.156V121.908C158.905 121.356 159.353 120.908 159.905 120.908C160.458 120.908 160.905 121.356 160.905 121.908H163.613C163.613 121.356 164.061 120.908 164.613 120.908H165.903C166.455 120.908 166.903 121.356 166.903 121.908H167.637C167.637 121.356 168.085 120.908 168.637 120.908H174.477V113.443C171.284 112.958 168.827 110.203 168.827 106.877C168.827 103.21 171.81 100.228 175.477 100.228C179.143 100.228 182.126 103.21 182.126 106.877C182.126 110.203 179.669 112.958 176.477 113.443V120.908H182.009V118.081C182.009 116.491 183.302 115.197 184.892 115.197H189.402L209.303 46.013H188.153C187.6 46.013 187.153 45.565 187.153 45.013V13H184.445C184.445 13.552 183.997 14 183.445 14ZM83.1935 115.249L95.5005 52.566H84.6375L73.9365 107.07C73.8425 107.547 73.4235 107.877 72.9555 107.877C72.8915 107.877 72.8275 107.872 72.7615 107.859C72.6754 107.842 72.6007 107.802 72.5264 107.763L72.5035 107.751L71.0045 115.384C72.9485 114.605 75.0645 114.165 77.2835 114.165C79.3645 114.165 81.3505 114.56 83.1935 115.249Z" fill="#981302"/>
</g>
<defs>
<clipPath id="clip0">
<rect width="388" height="236" fill="white"/>
</clipPath>
</defs>
</svg>
