<svg width="256" height="212" viewBox="0 0 256 212" fill="none" xmlns="http://www.w3.org/2000/svg">
<g clip-path="url(#clip0)">
<path fill-rule="evenodd" clip-rule="evenodd" d="M8.261 35H75.781C104.01 35 126.893 57.884 126.893 86.112C126.893 99.199 137.502 109.809 150.589 109.809H150.592C178.999 109.809 202.027 132.836 202.027 161.243V161.246C202.027 189.653 178.999 212.681 150.592 212.681H124.594H9.759C-6.126 212.681 -19.002 199.805 -19.002 183.921V183.919C-19.002 168.035 -6.126 155.158 9.759 155.158H12.513C21.802 155.158 29.332 147.628 29.332 138.34C29.332 129.051 21.802 121.521 12.513 121.521H8.261C-15.631 121.521 -35 102.152 -35 78.26C-35 54.368 -15.631 35 8.261 35Z" fill="#4F545C" fill-opacity="0.3"/>
<path d="M0 168H30.5L54.5 144.5L59 145.5L62 149L60.5 154L52 162.5L60.5 167L35.5 189.5L23 189H0V168Z" fill="#FED2A4"/>
<path fill-rule="evenodd" clip-rule="evenodd" d="M59.439 36.9577C59.274 37.6277 59.822 38.2607 60.509 38.1917L67.234 37.5207C67.268 37.5177 67.301 37.5167 67.335 37.5167C67.835 37.5167 68.266 37.8907 68.327 38.3977L68.831 42.6397C68.965 43.7617 70.566 43.8357 70.802 42.7307L72.649 34.0947C72.787 33.4497 72.275 32.8507 71.617 32.8867L65.672 33.2077C65.15 33.2447 64.71 32.8707 64.63 32.3637L63.825 27.1997C63.657 26.1207 62.127 26.0537 61.866 27.1137L59.439 36.9577Z" fill="#1F2225"/>
<path fill-rule="evenodd" clip-rule="evenodd" d="M121.582 117.816L125.321 114.077L122.956 111.712L119.217 115.451L121.582 117.816Z" fill="#9D6656"/>
<path fill-rule="evenodd" clip-rule="evenodd" d="M52.2026 181.777C52.0926 181.1 52.1176 180.41 52.2716 179.739L50.1646 181.846C50.8346 181.692 51.5256 181.668 52.2026 181.777ZM72.3237 171.665L74.1197 169.869C71.8957 170.109 69.7757 170.805 67.8557 171.897L70.6807 174.723L72.3237 173.079C71.9327 172.688 71.9327 172.056 72.3237 171.665Z" fill="#9D6656"/>
<path fill-rule="evenodd" clip-rule="evenodd" d="M56.8804 173.875C57.2274 174.222 57.2274 174.783 56.8804 175.13L56.1944 175.816C56.8644 175.661 57.5544 175.637 58.2324 175.747C57.9764 174.172 58.4334 172.509 59.6094 171.274C59.5854 171.255 59.5554 171.246 59.5324 171.224C59.1864 170.877 59.1864 170.315 59.5324 169.969L74.6274 154.874L73.1364 153.384L32.7634 193.757C32.3084 194.212 32.0574 194.817 32.0574 195.462C32.0574 196.004 32.2434 196.512 32.5694 196.932L55.6264 173.875C55.9724 173.528 56.5334 173.528 56.8804 173.875ZM44.3027 199.409L41.9507 197.057C41.5837 197.367 41.2227 197.686 40.8797 198.03L37.2527 201.656L38.0877 202.491C38.7227 203.125 39.6217 203.321 40.4307 203.099L43.9067 199.624C44.0197 199.511 44.1577 199.448 44.3027 199.409ZM117.962 114.195L121.701 110.457L120.587 109.342C120.434 109.189 120.26 109.07 120.081 108.966C119.075 109.49 117.967 109.724 116.86 109.66L115.143 111.377L117.962 114.195ZM40.2124 191.798L33.8034 198.207L35.9984 200.402L40.7864 195.614C40.1104 194.445 39.9164 193.082 40.2124 191.798ZM75.9038 167.992C75.9368 167.992 75.9688 167.988 76.0008 167.988L77.8788 166.11C75.2238 166.4 72.7108 167.318 70.5198 168.807C72.2408 168.273 74.0498 167.991 75.9038 167.992ZM123.878 120.111L125.912 118.077C126.367 117.622 126.618 117.016 126.618 116.372C126.618 116.056 126.556 115.75 126.441 115.465L122.836 119.07L123.878 120.111ZM46.1729 187.806C46.0629 187.129 46.0879 186.439 46.2419 185.769L44.1359 187.874C44.8059 187.72 45.4959 187.696 46.1729 187.806Z" fill="#844D3C"/>
<path d="M43.1298 197.298C41.1422 195.467 40.9687 192.389 42.738 190.346L42.8882 190.173C43.2699 189.732 43.7257 189.362 44.2349 189.078L45.9248 188.138C46.5787 187.773 47.1426 187.267 47.5748 186.656L48.8462 184.858C49.1768 184.39 49.5853 183.983 50.0539 183.654L52.0815 182.229C52.5501 181.9 52.9586 181.493 53.2892 181.025L54.7175 179.005C55.0482 178.538 55.4567 178.13 55.9252 177.801L57.6057 176.62C58.2979 176.134 58.8553 175.48 59.2258 174.719L59.4422 174.275C60.9426 171.196 65.0248 170.503 67.4573 172.915L73.3052 178.713C74.4024 179.801 74.4115 181.571 73.3255 182.671C73.11 182.889 72.8601 183.07 72.5858 183.207L70.3265 184.337C69.4608 184.77 68.7393 185.444 68.2497 186.279L67.114 188.215C66.6437 189.017 65.9591 189.672 65.1372 190.106L63.8782 190.772C62.9807 191.246 62.2488 191.982 61.7798 192.882L61.2883 193.826C60.7915 194.78 60.0005 195.548 59.0328 196.016L58.0853 196.475C57.1031 196.951 56.3034 197.735 55.8084 198.707L55.2417 199.82C53.7393 202.772 49.8345 203.473 47.3985 201.23L43.1298 197.298Z" fill="#FED2A4"/>
<path d="M34.4444 190.092C34.4124 190.455 34.2622 190.803 34.0047 191.111C33.7471 191.419 33.3887 191.679 32.9551 191.873C32.5216 192.066 32.0263 192.958 31.5 193C30.9737 193.042 30.0179 192.117 29.5 192C28.9821 191.883 28.9123 191.808 28.5023 191.553C28.0923 191.299 27.7637 190.99 27.5403 190.647C27.3169 190.305 27.2042 189.938 27.2103 189.573C27.2165 189.208 27.3413 188.855 27.5759 188.537L31.5 189L34.5 189L34.4444 190.092Z" fill="#FED2A4"/>
<path d="M58.8859 166.765C58.9514 166.659 58.9337 166.503 58.8338 166.306C58.7338 166.109 58.5536 165.874 58.3034 165.616C58.0532 165.357 57.738 165.079 57.3756 164.799C57.0132 164.518 56.6109 164.24 56.1915 163.98C55.7722 163.72 55.344 163.483 54.9315 163.283C54.519 163.084 54.1302 162.925 53.7873 162.816C53.4444 162.707 53.1542 162.649 52.9331 162.648C52.7121 162.646 52.5646 162.699 52.4991 162.805L55.6925 164.785L58.8859 166.765Z" fill="#FED2A4"/>
<path fill-rule="evenodd" clip-rule="evenodd" d="M66.0405 170.36L66.8735 169.528C70.2905 166.11 74.8345 164.227 79.6665 164.228C79.7005 164.228 79.7325 164.223 79.7655 164.223L81.8715 162.118L75.8815 156.129L62.2245 169.786C63.5085 169.49 64.8725 169.684 66.0405 170.36ZM59.5327 171.224C59.5547 171.246 59.5847 171.255 59.6097 171.275C59.6387 171.244 59.6587 171.206 59.6897 171.175C60.4117 170.453 61.2957 170 62.2237 169.787L75.8817 156.129L74.6267 154.874L59.5327 169.969C59.1857 170.316 59.1857 170.877 59.5327 171.224ZM41.6016 189.264C42.3236 188.542 43.2076 188.089 44.1366 187.874L46.2416 185.769C46.4556 184.84 46.9096 183.956 47.6306 183.235C48.3526 182.514 49.2366 182.06 50.1646 181.846L52.2716 179.739C52.4856 178.811 52.9396 177.927 53.6606 177.205C54.3826 176.484 55.2666 176.031 56.1946 175.817L56.8806 175.13C57.2266 174.784 57.2266 174.222 56.8806 173.875C56.5336 173.529 55.9726 173.529 55.6256 173.875L32.5696 196.932C32.6326 197.012 32.6906 197.095 32.7636 197.167L33.8036 198.207L40.2126 191.798C40.4266 190.87 40.8796 189.987 41.6016 189.264Z" fill="#9D6656"/>
<path fill-rule="evenodd" clip-rule="evenodd" d="M66.873 169.529L66.04 170.361C66.429 170.586 66.802 170.843 67.134 171.175L67.856 171.898C69.776 170.805 71.895 170.11 74.12 169.87L76.001 167.989C75.969 167.989 75.936 167.993 75.904 167.993C74.05 167.992 72.241 168.274 70.52 168.808C72.711 167.319 75.224 166.401 77.878 166.111L79.766 164.224C79.732 164.224 79.7 164.229 79.667 164.229C74.835 164.228 70.29 166.111 66.873 169.529ZM41.9512 197.058L41.6012 196.708C41.2692 196.376 41.0112 196.003 40.7862 195.615L35.9982 200.403L37.2532 201.657L40.8792 198.031C41.2222 197.687 41.5832 197.368 41.9512 197.058ZM43.9063 199.624L40.4303 203.1C40.8213 202.993 41.1923 202.798 41.4973 202.491L42.2863 201.703C42.6773 201.312 43.3093 201.312 43.7003 201.703L45.1483 200.255L44.3023 199.409C44.1583 199.448 44.0193 199.511 43.9063 199.624Z" fill="#844D3C"/>
<path fill-rule="evenodd" clip-rule="evenodd" d="M119.217 115.45L122.956 111.711L121.701 110.457L117.963 114.195L119.217 115.45Z" fill="#9D6656"/>
<path fill-rule="evenodd" clip-rule="evenodd" d="M120.081 108.967C119.16 108.439 117.965 108.558 117.178 109.343L116.861 109.66C117.967 109.725 119.075 109.49 120.081 108.967ZM122.836 119.071L126.44 115.467C126.321 115.172 126.144 114.9 125.912 114.668L125.321 114.077L121.582 117.816L122.836 119.071Z" fill="#844D3C"/>
<path fill-rule="evenodd" clip-rule="evenodd" d="M67.7163 115.384C68.1073 114.993 68.7393 114.993 69.1303 115.384C69.5213 115.775 69.5213 116.407 69.1303 116.798L60.0713 125.857C59.6793 126.248 59.4643 126.77 59.4643 127.324C59.4643 127.878 59.6793 128.4 60.0713 128.791L65.6233 134.343C66.0143 134.734 66.0143 135.366 65.6233 135.757C65.4283 135.952 65.1723 136.05 64.9163 136.05C64.6603 136.05 64.4043 135.952 64.2093 135.757L58.6573 130.205C57.8873 129.436 57.4643 128.413 57.4643 127.324C57.4643 126.236 57.8873 125.212 58.6573 124.443L67.7163 115.384ZM71.7053 111.395L72.3263 110.774C72.7163 110.383 73.3493 110.383 73.7403 110.774C74.1313 111.164 74.1313 111.797 73.7403 112.188L73.1193 112.809C72.9243 113.004 72.6683 113.102 72.4123 113.102C72.1563 113.102 71.9003 113.004 71.7053 112.809C71.3143 112.418 71.3143 111.785 71.7053 111.395ZM114.419 126.599C113.65 127.368 112.626 127.792 111.537 127.792C110.449 127.792 109.425 127.368 108.656 126.599C107.886 125.829 107.462 124.806 107.462 123.717C107.462 122.628 107.886 121.605 108.656 120.835C110.245 119.247 112.829 119.247 114.419 120.835C116.007 122.424 116.007 125.01 114.419 126.599ZM81.3673 149.813C81.3673 148.724 81.7913 147.7 82.5613 146.931C83.3303 146.161 84.3543 145.738 85.4423 145.738C86.5313 145.738 87.5543 146.161 88.3243 146.931C89.9123 148.52 89.9123 151.106 88.3243 152.695C87.5293 153.488 86.4863 153.886 85.4423 153.886C84.3993 153.886 83.3553 153.488 82.5613 152.695C81.7913 151.925 81.3673 150.902 81.3673 149.813ZM55.6303 133.049L70.2373 147.656L96.0233 121.87C96.4143 121.48 97.0473 121.48 97.4373 121.87C97.8283 122.261 97.8283 122.894 97.4373 123.284L71.6513 149.071L86.1843 163.604L125.363 124.425L110.83 109.892L102.198 118.524C102.003 118.719 101.747 118.817 101.491 118.817C101.235 118.817 100.979 118.719 100.784 118.524C100.393 118.133 100.393 117.5 100.784 117.11L109.416 108.478L94.8083 93.871C91.6523 90.715 86.5163 90.715 83.3593 93.871L55.6303 121.6C52.4733 124.756 52.4733 129.893 55.6303 133.049Z" fill="#7F8080"/>
<path d="M17.5 36H22L40.5 65L48 68L59.5 60.5L64.5 74.5L66.5 88.5L67.5 99L68 104.5V107L66.5 109.5L61.5 104L57.5 99L50 85.5L38 93L31.5 94L17.5 36Z" fill="#FBD907"/>
<path fill-rule="evenodd" clip-rule="evenodd" d="M110.83 109.892L102.198 118.524C102.003 118.719 101.747 118.817 101.491 118.817C101.235 118.817 100.979 118.719 100.784 118.524L97.4371 121.871C97.8281 122.261 97.8281 122.894 97.4371 123.285L71.6511 149.071L86.1841 163.604L125.363 124.425L110.83 109.892Z" fill="#C9A926"/>
<path fill-rule="evenodd" clip-rule="evenodd" d="M138.357 149.052L135.44 151.969C135.245 152.164 134.989 152.262 134.733 152.262C134.477 152.262 134.221 152.164 134.026 151.969C133.635 151.578 133.635 150.946 134.026 150.555L136.943 147.638C137.335 147.246 137.55 146.725 137.55 146.17C137.55 145.616 137.335 145.095 136.943 144.703L135.608 143.368C135.218 142.978 135.218 142.345 135.608 141.954C135.999 141.564 136.632 141.564 137.023 141.954L138.357 143.289C139.127 144.059 139.55 145.081 139.55 146.17C139.55 147.259 139.127 148.282 138.357 149.052ZM141.384 140.447L126.777 125.839L87.5984 165.018L102.206 179.625C105.362 182.781 110.499 182.781 113.655 179.625L141.384 151.896C144.541 148.74 144.541 143.603 141.384 140.447Z" fill="#7F8080"/>
<path fill-rule="evenodd" clip-rule="evenodd" d="M110.07 122.249C109.261 123.059 109.261 124.375 110.07 125.185C110.854 125.968 112.221 125.968 113.005 125.185C113.814 124.375 113.814 123.059 113.005 122.249C112.6 121.845 112.069 121.643 111.537 121.643C111.006 121.643 110.474 121.845 110.07 122.249ZM86.9101 148.345C86.5181 147.953 85.9961 147.738 85.4421 147.738C84.8881 147.738 84.3671 147.953 83.9751 148.345C83.1661 149.155 83.1661 150.471 83.9751 151.281C84.7841 152.089 86.1001 152.089 86.9101 151.281C87.7191 150.471 87.7191 149.155 86.9101 148.345Z" fill="#F1CD3A"/>
<path fill-rule="evenodd" clip-rule="evenodd" d="M170.31 134.527H163.488C162.936 134.527 162.488 134.974 162.488 135.527C162.488 136.08 162.936 136.527 163.488 136.527H170.31C170.862 136.527 171.31 136.08 171.31 135.527C171.31 134.974 170.862 134.527 170.31 134.527ZM159.443 113.584C159.557 113.584 159.672 113.564 159.785 113.523L166.195 111.19C166.714 111.002 166.982 110.428 166.793 109.909C166.604 109.39 166.029 109.124 165.511 109.312L159.101 111.645C158.582 111.833 158.315 112.407 158.503 112.926C158.651 113.332 159.035 113.584 159.443 113.584ZM152.378 87.2585L147.152 91.6435C146.729 91.9975 146.673 92.6285 147.028 93.0515C147.226 93.2875 147.51 93.4085 147.795 93.4085C148.022 93.4085 148.25 93.3315 148.437 93.1745L153.663 88.7895C154.086 88.4355 154.142 87.8045 153.787 87.3815C153.432 86.9575 152.8 86.9045 152.378 87.2585ZM129.448 78.3005C129.605 78.3915 129.778 78.4345 129.947 78.4345C130.293 78.4345 130.629 78.2555 130.814 77.9345L134.225 72.0265C134.501 71.5485 134.338 70.9365 133.859 70.6605C133.381 70.3835 132.769 70.5485 132.493 71.0265L129.082 76.9345C128.806 77.4125 128.969 78.0245 129.448 78.3005ZM107.883 70.4509C107.942 70.4609 108 70.4659 108.058 70.4659C108.534 70.4659 108.956 70.1249 109.042 69.6399L110.226 62.9219C110.322 62.3779 109.959 61.8599 109.415 61.7629C108.868 61.6689 108.352 62.0309 108.257 62.5749L107.072 69.2919C106.976 69.8359 107.339 70.3549 107.883 70.4509ZM84.9336 200.604C84.3866 200.506 83.8706 200.871 83.7746 201.415L82.5906 208.132C82.4946 208.676 82.8576 209.195 83.4016 209.291C83.4606 209.301 83.5186 209.306 83.5766 209.306C84.0526 209.306 84.4746 208.965 84.5596 208.48L85.7446 201.762C85.8406 201.218 85.4776 200.7 84.9336 200.604ZM83.4014 61.7634C82.8574 61.8594 82.4944 62.3784 82.5904 62.9224L83.7754 69.6394C83.8604 70.1244 84.2824 70.4664 84.7584 70.4664C84.8164 70.4664 84.8744 70.4614 84.9334 70.4514C85.4774 70.3544 85.8404 69.8364 85.7444 69.2924L84.5604 62.5744C84.4644 62.0314 83.9464 61.6684 83.4014 61.7634ZM107.883 200.604C107.339 200.7 106.976 201.218 107.072 201.762L108.257 208.48C108.342 208.965 108.764 209.306 109.24 209.306C109.298 209.306 109.356 209.301 109.415 209.291C109.959 209.195 110.322 208.676 110.226 208.132L109.042 201.415C108.946 200.871 108.429 200.505 107.883 200.604ZM130.814 193.12C130.537 192.641 129.925 192.477 129.448 192.754C128.969 193.03 128.806 193.641 129.082 194.12L132.493 200.027C132.678 200.349 133.014 200.527 133.36 200.527C133.529 200.527 133.702 200.484 133.859 200.393C134.337 200.117 134.501 199.506 134.225 199.027L130.814 193.12ZM148.437 177.879C148.015 177.525 147.384 177.578 147.028 178.002C146.673 178.425 146.729 179.056 147.152 179.41L152.378 183.795C152.565 183.952 152.793 184.029 153.02 184.029C153.305 184.029 153.589 183.908 153.787 183.672C154.142 183.249 154.086 182.618 153.663 182.264L148.437 177.879ZM166.195 159.863L159.785 157.53C159.268 157.342 158.693 157.608 158.503 158.128C158.315 158.646 158.582 159.22 159.101 159.409L165.511 161.742C165.624 161.783 165.739 161.802 165.853 161.802C166.261 161.802 166.645 161.55 166.793 161.144C166.982 160.626 166.714 160.051 166.195 159.863ZM-3.86821 168.336C-3.86821 168.889 -3.42021 169.336 -2.86821 169.336H27.4488C29.5708 169.336 31.6058 168.493 33.1058 166.993L53.0598 147.039C54.8778 145.223 57.8348 145.223 59.6558 147.042C60.6768 148.064 61.1658 149.473 60.9848 150.94C60.8518 152.015 60.2968 152.996 59.5298 153.763L51.2128 162.078C50.8218 162.469 50.8218 163.102 51.2128 163.492C51.6038 163.883 52.2368 163.883 52.6268 163.492L60.8878 155.232C62.0548 154.065 62.8648 152.547 62.9988 150.902C63.1648 148.862 62.4238 146.919 60.9558 145.517C58.3048 142.982 54.0368 143.234 51.4438 145.828L32.2778 164.993C30.7778 166.493 28.7428 167.336 26.6208 167.336H-2.86821C-3.42021 167.336 -3.86821 167.783 -3.86821 168.336ZM27.6401 188.397H-29.1419C-29.6939 188.397 -30.1419 188.844 -30.1419 189.397C-30.1419 189.95 -29.6939 190.397 -29.1419 190.397H27.6401C28.1921 190.397 28.6401 189.95 28.6401 189.397C28.6401 188.844 28.1921 188.397 27.6401 188.397ZM72.3262 110.774L71.7052 111.395C71.3142 111.786 71.3142 112.419 71.7052 112.809C71.9002 113.004 72.1562 113.102 72.4122 113.102C72.6682 113.102 72.9242 113.004 73.1192 112.809L73.7402 112.188C74.1312 111.797 74.1312 111.165 73.7402 110.774C73.3492 110.383 72.7172 110.383 72.3262 110.774ZM67.7163 115.384L58.8113 124.288C58.1143 124.986 57.5983 125.876 57.4903 126.857C57.3503 128.117 57.7783 129.326 58.6573 130.205L64.2093 135.757C64.4043 135.952 64.6603 136.05 64.9163 136.05C65.1723 136.05 65.4283 135.952 65.6233 135.757C66.0143 135.366 66.0143 134.734 65.6233 134.343L60.0713 128.791C59.6793 128.4 59.4643 127.878 59.4643 127.324C59.4643 126.77 59.6793 126.248 60.0713 125.857L69.1303 116.798C69.5213 116.407 69.5213 115.775 69.1303 115.384C68.7393 114.993 68.1073 114.993 67.7163 115.384ZM137.023 141.954C136.632 141.563 136 141.563 135.609 141.954C135.218 142.345 135.218 142.977 135.609 143.368L136.943 144.703C137.335 145.095 137.551 145.616 137.551 146.17C137.551 146.725 137.335 147.246 136.943 147.638L134.026 150.555C133.636 150.945 133.636 151.578 134.026 151.969C134.222 152.164 134.478 152.262 134.733 152.262C134.989 152.262 135.245 152.164 135.44 151.969L138.357 149.052C139.127 148.282 139.551 147.259 139.551 146.17C139.551 145.081 139.127 144.058 138.357 143.289L137.023 141.954Z" fill="#1F2225"/>
<path fill-rule="evenodd" clip-rule="evenodd" d="M141.385 151.896L113.656 179.625C110.494 182.788 105.368 182.788 102.206 179.625L89.0128 166.432C88.2318 165.652 88.2318 164.385 89.0128 163.604L125.364 127.253C126.144 126.472 127.411 126.472 128.192 127.253L141.385 140.447C144.547 143.609 144.547 148.735 141.385 151.896ZM74.4798 151.9C72.9178 150.337 72.9178 147.805 74.4798 146.243L97.4378 123.285C97.8278 122.894 97.8278 122.261 97.4378 121.871C97.0468 121.48 96.4138 121.48 96.0238 121.871L71.6518 146.243C70.8708 147.024 69.6048 147.024 68.8228 146.243L55.6298 133.049C52.4688 129.888 52.4688 124.762 55.6298 121.6L83.3598 93.8707C86.5168 90.7147 91.6528 90.7147 94.8088 93.8707L108.002 107.064C108.783 107.845 108.783 109.112 108.002 109.892L100.784 117.11C100.394 117.5 100.394 118.133 100.784 118.524C100.98 118.719 101.236 118.817 101.491 118.817C101.747 118.817 102.003 118.719 102.198 118.524L108.002 112.721C109.564 111.159 112.097 111.159 113.659 112.721L122.535 121.597C124.097 123.159 124.097 125.692 122.535 127.253L89.0128 160.776C87.4508 162.338 84.9188 162.338 83.3568 160.776L74.4798 151.9ZM116.861 109.661L117.178 109.343C117.965 108.558 119.16 108.439 120.081 108.967C120.261 109.071 120.434 109.19 120.588 109.343L121.701 110.458L122.956 111.711L125.322 114.077L125.912 114.667C126.144 114.9 126.322 115.171 126.441 115.466C126.556 115.75 126.618 116.057 126.618 116.373C126.618 117.017 126.367 117.623 125.912 118.078L125.293 118.698C124.511 119.479 123.245 119.479 122.464 118.698L116.558 112.792C115.777 112.011 115.777 110.745 116.558 109.963L116.861 109.661ZM127.202 119.617L127.204 119.615C127.929 118.889 128.456 117.962 128.583 116.944C128.756 115.556 128.293 114.22 127.326 113.253L122.002 107.929C120.279 106.207 117.487 106.207 115.764 107.929C114.641 109.053 112.819 109.053 111.696 107.929L96.2228 92.4567C92.2858 88.5207 85.8818 88.5207 81.9458 92.4567L68.8798 105.523C67.0488 107.354 63.9858 106.989 62.6368 104.779L50.8608 85.4857C50.7178 85.2517 50.4848 85.0867 50.2168 85.0287C49.9478 84.9727 49.6688 85.0257 49.4418 85.1817L39.3308 92.1027C35.8508 94.4847 31.0638 92.6277 30.0998 88.5227L18.3688 38.5337C17.8428 36.2937 20.8958 35.0837 22.0478 37.0767L41.9198 71.4667C42.0578 71.7067 42.2888 71.8777 42.5588 71.9407C42.8288 72.0017 43.1118 71.9507 43.3418 71.7977L56.3908 63.0617C58.1768 61.8647 60.6058 62.8817 61.0068 64.9947L65.5068 88.7127C65.6098 89.2547 66.1308 89.6097 66.6758 89.5087C67.2188 89.4057 67.5748 88.8827 67.4718 88.3397L61.8438 58.6787C61.7808 58.3487 61.5568 58.0727 61.2478 57.9427C60.9378 57.8127 60.5838 57.8467 60.3048 58.0337L50.2188 64.7867C46.3748 67.3597 41.1558 66.1467 38.8418 62.1417L13.6228 18.4997C13.3748 18.0707 12.8488 17.8877 12.3888 18.0707C11.9278 18.2537 11.6698 18.7467 11.7828 19.2287L30.4878 98.9307C30.5638 99.2517 30.7918 99.5157 31.0998 99.6347C31.4078 99.7527 31.7538 99.7127 32.0268 99.5267L47.0938 89.2117C48.5118 88.2417 50.4538 88.6577 51.3498 90.1247L62.1898 107.885C63.1528 109.462 62.9098 111.492 61.6048 112.798L54.4498 119.953C52.5938 121.809 51.3788 124.265 51.2688 126.888C51.1488 129.748 52.2068 132.455 54.2158 134.463L66.7728 147.021C69.5068 149.754 69.5068 154.187 66.7728 156.92L45.0988 178.594C43.5058 180.188 41.3728 181.196 39.1198 181.208C37.6318 181.216 35.9898 180.814 34.5218 179.516C34.1078 179.151 33.4758 179.189 33.1098 179.603C32.7438 180.017 32.7828 180.649 33.1978 181.014C35.1018 182.698 37.1838 183.227 39.0518 183.227C39.5908 183.227 40.0998 183.173 40.5938 183.1L31.4718 192.221C30.7468 192.946 30.2208 193.874 30.0938 194.891C29.9208 196.28 30.3838 197.616 31.3498 198.582L36.5508 203.783C37.2758 204.507 38.2018 205.034 39.2188 205.162C40.6068 205.336 41.9448 204.874 42.9118 203.906L43.6998 203.118C44.0908 202.728 44.0908 202.094 43.7008 201.704H43.6998C43.3098 201.313 42.6768 201.313 42.2858 201.704L41.4978 202.492C41.1918 202.798 40.8208 202.994 40.4308 203.1C39.6218 203.322 38.7228 203.125 38.0878 202.492L37.2528 201.657L35.9988 200.403L33.8028 198.208L32.7638 197.167C32.6908 197.095 32.6328 197.012 32.5698 196.932C32.2438 196.512 32.0578 196.004 32.0578 195.462C32.0578 194.818 32.3088 194.212 32.7638 193.757L71.0158 155.506C72.1868 154.334 74.0868 154.334 75.2588 155.506L79.7498 159.998C80.9218 161.169 80.9218 163.069 79.7498 164.24L76.0008 167.989L74.1198 169.87L72.3238 171.666C71.9328 172.056 71.9328 172.689 72.3238 173.08C72.7148 173.47 73.3468 173.47 73.7378 173.08L78.3358 168.483C81.0688 165.749 85.5018 165.749 88.2348 168.483L100.792 181.04C102.76 183.007 105.345 183.992 107.931 183.992C110.516 183.992 113.101 183.007 115.07 181.04L142.799 153.31C144.809 151.301 145.866 148.594 145.747 145.735C145.637 143.112 144.422 140.655 142.565 138.798L127.202 123.435C126.147 122.381 126.147 120.671 127.202 119.617Z" fill="#1F2225"/>
<path fill-rule="evenodd" clip-rule="evenodd" d="M113.005 125.185C112.221 125.968 110.854 125.968 110.07 125.185C109.261 124.375 109.261 123.059 110.07 122.249C110.474 121.845 111.006 121.643 111.537 121.643C112.069 121.643 112.6 121.845 113.005 122.249C113.814 123.059 113.814 124.375 113.005 125.185ZM114.419 120.835C112.829 119.248 110.245 119.248 108.656 120.835C107.886 121.605 107.462 122.628 107.462 123.717C107.462 124.806 107.886 125.83 108.656 126.599C109.425 127.369 110.449 127.792 111.537 127.792C112.626 127.792 113.65 127.369 114.419 126.599C116.007 125.01 116.007 122.424 114.419 120.835ZM86.9101 151.28C86.1001 152.089 84.7841 152.089 83.9751 151.28C83.1661 150.47 83.1661 149.154 83.9751 148.344C84.3671 147.953 84.8881 147.737 85.4421 147.737C85.9961 147.737 86.5181 147.953 86.9101 148.344C87.7191 149.154 87.7191 150.47 86.9101 151.28ZM85.4421 145.737C84.3541 145.737 83.3301 146.161 82.5611 146.93C81.7911 147.7 81.3671 148.723 81.3671 149.812C81.3671 150.901 81.7911 151.925 82.5611 152.694C83.3551 153.488 84.3991 153.885 85.4421 153.885C86.4861 153.885 87.5291 153.488 88.3241 152.694C89.9121 151.105 89.9121 148.519 88.3241 146.93C87.5551 146.161 86.5311 145.737 85.4421 145.737ZM71.7495 183.235C70.4775 184.506 68.4065 184.506 67.1335 183.235L61.1035 177.206C59.8315 175.933 59.8315 173.862 61.1035 172.589C61.7405 171.953 62.5765 171.635 63.4125 171.635C64.2475 171.635 65.0835 171.954 65.7195 172.589L71.7495 178.62C73.0215 179.892 73.0215 181.963 71.7495 183.235ZM65.7195 189.264C64.4465 190.536 62.3755 190.535 61.1035 189.264L55.0745 183.235C53.8025 181.963 53.8025 179.892 55.0745 178.62C55.7105 177.984 56.5465 177.666 57.3825 177.666C58.2175 177.666 59.0535 177.984 59.6895 178.62L65.7195 184.649C66.9925 185.922 66.9925 187.992 65.7195 189.264ZM59.6895 195.295C58.4175 196.566 56.3475 196.566 55.0745 195.295L49.0445 189.264C47.7725 187.992 47.7725 185.922 49.0445 184.649C50.3175 183.377 52.3885 183.378 53.6605 184.649L59.6895 190.678C60.9625 191.951 60.9625 194.022 59.6895 195.295ZM53.6605 201.324C52.3885 202.594 50.3175 202.595 49.0445 201.324L43.0155 195.295C41.7435 194.022 41.7435 191.951 43.0155 190.678C43.6515 190.043 44.4875 189.724 45.3235 189.724C46.1585 189.724 46.9945 190.043 47.6305 190.678L53.6605 196.709C54.9335 197.981 54.9335 200.051 53.6605 201.324ZM70.6815 174.723L67.8555 171.898L67.1335 171.175C66.8025 170.843 66.4285 170.586 66.0405 170.361C64.8725 169.685 63.5085 169.491 62.2245 169.787C61.2955 170.001 60.4115 170.454 59.6895 171.175C59.6595 171.207 59.6395 171.244 59.6095 171.275C58.4335 172.509 57.9765 174.172 58.2315 175.748C57.5545 175.637 56.8645 175.662 56.1945 175.817C55.2665 176.031 54.3825 176.484 53.6605 177.206C52.9395 177.927 52.4855 178.811 52.2715 179.739C52.1175 180.41 52.0925 181.1 52.2025 181.777C51.5255 181.668 50.8345 181.692 50.1645 181.846C49.2365 182.06 48.3525 182.514 47.6305 183.235C46.9095 183.957 46.4565 184.84 46.2415 185.769C46.0875 186.439 46.0625 187.13 46.1725 187.806C45.4965 187.696 44.8055 187.72 44.1365 187.875C43.2075 188.089 42.3235 188.543 41.6015 189.264C40.8795 189.987 40.4265 190.871 40.2125 191.798C39.9165 193.083 40.1105 194.446 40.7865 195.615C41.0115 196.004 41.2695 196.377 41.6015 196.709L41.9515 197.058L44.3025 199.41L45.1485 200.256L47.6305 202.738C48.6565 203.764 50.0045 204.277 51.3525 204.277C52.7005 204.277 54.0485 203.764 55.0745 202.738C56.3175 201.496 56.7955 199.782 56.5325 198.167C56.8145 198.213 57.0975 198.248 57.3825 198.248C58.7295 198.248 60.0785 197.735 61.1035 196.709C62.3475 195.465 62.8255 193.752 62.5625 192.136C62.8435 192.182 63.1275 192.217 63.4115 192.217C64.7595 192.217 66.1075 191.705 67.1335 190.678C68.3765 189.436 68.8545 187.722 68.5915 186.107C68.8735 186.153 69.1565 186.188 69.4415 186.188C70.7895 186.188 72.1375 185.675 73.1635 184.649C75.2155 182.597 75.2155 179.257 73.1635 177.206L70.6815 174.723ZM27.6401 180.238C27.0881 180.238 26.6401 180.685 26.6401 181.238V182.804C26.6401 183.357 27.0881 183.804 27.6401 183.804C28.1921 183.804 28.6401 183.357 28.6401 182.804V181.238C28.6401 180.685 28.1921 180.238 27.6401 180.238Z" fill="#1F2225"/>
<mask id="mask0" mask-type="alpha" maskUnits="userSpaceOnUse" x="-47" y="76" width="59" height="23">
<path d="M-47 98.978V76.288H11.545V98.978H-47Z" fill="white"/>
</mask>
<g mask="url(#mask0)">
<path fill-rule="evenodd" clip-rule="evenodd" d="M-2.6406 88.6916L-12.6966 86.4176C-13.1916 86.3056 -13.6926 86.5836 -13.8606 87.0636L-16.2936 94.0286C-16.7226 95.2546 -18.1876 95.7536 -19.2756 95.0436L-33.5226 85.7356C-34.4936 85.1016 -33.7876 83.6006 -32.6806 83.9426L-20.9526 87.5686C-20.4526 87.7226 -19.9226 87.4686 -19.7286 86.9856L-17.2596 80.8326C-16.8096 79.7116 -15.4776 79.2416 -14.4246 79.8326L-1.9306 86.8436C-0.924603 87.4086 -1.5156 88.9456 -2.6406 88.6916ZM11.4784 93.0576C11.6564 92.5946 11.4674 92.0696 11.0344 91.8266L-16.4266 76.4166C-16.6776 76.2746 -16.9776 76.2496 -17.2476 76.3456C-17.5196 76.4406 -17.7366 76.6486 -17.8436 76.9156L-20.8986 84.5306C-21.0926 85.0146 -21.6246 85.2676 -22.1216 85.1136L-45.7046 77.8226C-46.1816 77.6756 -46.6936 77.9016 -46.9056 78.3536C-47.1176 78.8046 -46.9646 79.3426 -46.5466 79.6156L-17.1616 98.8146C-16.9966 98.9216 -16.8066 98.9776 -16.6146 98.9776C-16.5056 98.9776 -16.3966 98.9596 -16.2916 98.9236C-16.0006 98.8246 -15.7716 98.5976 -15.6706 98.3076L-12.5606 89.4076C-12.3936 88.9276 -11.8926 88.6496 -11.3966 88.7616L10.3244 93.6746C10.8084 93.7846 11.2994 93.5226 11.4784 93.0576Z" fill="#1F2225"/>
</g>
<path fill-rule="evenodd" clip-rule="evenodd" d="M37.2949 118.133C36.7429 118.133 36.2949 118.58 36.2949 119.133C36.2949 119.967 35.6189 120.643 34.7849 120.643C34.2319 120.643 33.7849 121.09 33.7849 121.643C33.7849 122.195 34.2319 122.643 34.7849 122.643C35.6189 122.643 36.2949 123.319 36.2949 124.153C36.2949 124.705 36.7429 125.153 37.2949 125.153C37.8469 125.153 38.2949 124.705 38.2949 124.153C38.2949 123.319 38.9709 122.643 39.8049 122.643C40.3579 122.643 40.8049 122.195 40.8049 121.643C40.8049 121.09 40.3579 120.643 39.8049 120.643C38.9709 120.643 38.2949 119.967 38.2949 119.133C38.2949 118.58 37.8469 118.133 37.2949 118.133ZM-17.3574 135.747H-17.8674C-18.4194 135.747 -18.8674 135.3 -18.8674 134.747V134.237C-18.8674 133.684 -19.3154 133.237 -19.8674 133.237C-20.4204 133.237 -20.8674 133.684 -20.8674 134.237V134.747C-20.8674 135.3 -21.3154 135.747 -21.8674 135.747H-22.3774C-22.9294 135.747 -23.3774 136.194 -23.3774 136.747C-23.3774 137.3 -22.9294 137.747 -22.3774 137.747H-21.8674C-21.3154 137.747 -20.8674 138.195 -20.8674 138.747V139.258C-20.8674 139.81 -20.4204 140.258 -19.8674 140.258C-19.3154 140.258 -18.8674 139.81 -18.8674 139.258V138.747C-18.8674 138.195 -18.4194 137.747 -17.8674 137.747H-17.3574C-16.8054 137.747 -16.3574 137.3 -16.3574 136.747C-16.3574 136.194 -16.8054 135.747 -17.3574 135.747ZM99.5073 50.6335C100.341 50.6335 101.017 51.3095 101.017 52.1435C101.017 52.6965 101.465 53.1435 102.017 53.1435C102.569 53.1435 103.017 52.6965 103.017 52.1435C103.017 51.3095 103.693 50.6335 104.527 50.6335C105.079 50.6335 105.527 50.1855 105.527 49.6335C105.527 49.0815 105.079 48.6335 104.527 48.6335C103.693 48.6335 103.017 47.9575 103.017 47.1235C103.017 46.5715 102.569 46.1235 102.017 46.1235C101.465 46.1235 101.017 46.5715 101.017 47.1235C101.017 47.9575 100.341 48.6335 99.5073 48.6335C98.9553 48.6335 98.5073 49.0815 98.5073 49.6335C98.5073 50.1855 98.9553 50.6335 99.5073 50.6335ZM11.8179 106.83L10.6349 108.013C10.2439 108.403 10.2439 109.036 10.6349 109.427C10.8299 109.622 11.0859 109.72 11.3419 109.72C11.5979 109.72 11.8539 109.622 12.0489 109.427L13.2319 108.244C13.6229 107.853 13.6229 107.221 13.2319 106.83C12.8409 106.439 12.2089 106.439 11.8179 106.83ZM4.71869 115.344C4.91369 115.539 5.16969 115.637 5.42569 115.637C5.68169 115.637 5.93769 115.539 6.13269 115.344L7.31569 114.16C7.70669 113.77 7.70669 113.137 7.31569 112.746C6.92569 112.356 6.29169 112.356 5.90169 112.746L4.71869 113.93C4.32769 114.321 4.32769 114.953 4.71869 115.344ZM12.5249 115.637C12.7809 115.637 13.0369 115.539 13.2319 115.344C13.6229 114.953 13.6229 114.321 13.2319 113.93L12.0489 112.746C11.6579 112.356 11.0249 112.356 10.6349 112.746C10.2439 113.137 10.2439 113.77 10.6349 114.16L11.8179 115.344C12.0129 115.539 12.2689 115.637 12.5249 115.637ZM5.90179 109.427C6.09679 109.622 6.35279 109.72 6.60879 109.72C6.86479 109.72 7.12079 109.622 7.31579 109.427C7.70679 109.036 7.70679 108.404 7.31579 108.013L6.13279 106.83C5.74179 106.44 5.10879 106.44 4.71879 106.83C4.32779 107.221 4.32779 107.854 4.71879 108.244L5.90179 109.427ZM-6.32861 58.196C-5.49561 58.196 -4.81861 58.873 -4.81861 59.706C-4.81861 60.538 -5.49561 61.216 -6.32861 61.216C-7.16161 61.216 -7.83861 60.538 -7.83861 59.706C-7.83861 58.873 -7.16161 58.196 -6.32861 58.196ZM-6.32861 63.216C-4.39261 63.216 -2.81861 61.641 -2.81861 59.706C-2.81861 57.771 -4.39261 56.196 -6.32861 56.196C-8.26361 56.196 -9.83861 57.771 -9.83861 59.706C-9.83861 61.641 -8.26361 63.216 -6.32861 63.216Z" fill="#1F2225"/>
</g>
<defs>
<clipPath id="clip0">
<rect width="256" height="212" fill="white"/>
</clipPath>
</defs>
</svg>
