<svg width="153" height="74" viewBox="0 0 153 74" fill="none" xmlns="http://www.w3.org/2000/svg">
<path opacity="0.2" d="M129.404 14.903V42.423C129.404 45.155 131.64 47.39 134.372 47.39C144.655 47.39 153 55.736 153 66.02V69.894H0V54.395C0 42.175 9.935 32.239 22.155 32.239H49.278C58.816 32.239 66.565 24.489 66.565 14.952C66.5625 12.9943 66.9463 11.0553 67.6944 9.24609C68.4424 7.4369 69.5401 5.79308 70.9245 4.40879C72.3089 3.0245 73.9528 1.92694 75.762 1.17899C77.5712 0.431039 79.5103 0.0473911 81.468 0.0500235H114.502C122.748 2.35178e-05 129.404 6.65602 129.404 14.903Z" fill="#72767D"/>
<path d="M76.252 73.867C95.456 73.867 111.024 58.299 111.024 39.094C111.024 19.89 95.456 4.32199 76.252 4.32199C57.047 4.32199 41.479 19.89 41.479 39.094C41.479 58.299 57.047 73.867 76.252 73.867Z" fill="#DC73D8"/>
<path d="M51.414 40.287L76.35 66.416L101.088 40.286H94.134V0H58.368V40.287H51.414Z" fill="#FFD7FE"/>
<path d="M114.005 41.081L105.063 50.023V64.926L114.005 73.867L122.946 64.926V50.023L114.005 41.081ZM118.476 63.038L114.005 67.508L109.534 63.038V51.861L114.005 47.391L118.476 51.861V63.038Z" fill="#FF73FA"/>
<path d="M111.024 52.457V62.442L114.005 65.422L116.985 62.442V52.457L114.005 49.477L111.024 52.457Z" fill="#FDC4FB"/>
<path d="M114.005 41.081V47.391L118.476 51.861L122.946 50.023L114.005 41.081Z" fill="#FEC0FC"/>
<path d="M27.073 5.16599L18.131 14.108V29.01L27.073 37.952L36.015 29.01V14.108L27.073 5.16599ZM31.543 27.123L27.073 31.593L22.603 27.123V15.946L27.073 11.475L31.543 15.945V27.123Z" fill="#FF73FA"/>
<path d="M24.093 16.542V26.527L27.073 29.507L30.053 26.527V16.542L27.073 13.562L24.093 16.542Z" fill="#FDC4FB"/>
<path d="M27.073 5.16599V11.475L31.543 15.945L36.015 14.108L27.073 5.16599Z" fill="#FEC0FC"/>
<path d="M14.008 51.662L12.767 54.295C12.469 54.891 13.114 55.537 13.71 55.239L16.343 53.997C16.542 53.897 16.79 53.897 16.989 53.997L19.622 55.239C20.218 55.537 20.864 54.891 20.566 54.295L19.324 51.662C19.2751 51.5615 19.2497 51.4513 19.2497 51.3395C19.2497 51.2278 19.2751 51.1175 19.324 51.017L20.566 48.384C20.864 47.788 20.218 47.142 19.622 47.44L16.989 48.682C16.79 48.782 16.542 48.782 16.343 48.682L13.71 47.44C13.114 47.142 12.468 47.788 12.767 48.384L14.008 51.017C14.108 51.265 14.108 51.464 14.008 51.662Z" fill="#FDC2FA"/>
<path d="M138.197 27.868L136.955 30.501C136.657 31.097 137.303 31.742 137.899 31.445L140.531 30.203C140.73 30.103 140.979 30.103 141.177 30.203L143.81 31.445C144.406 31.742 145.052 31.097 144.754 30.501L143.512 27.868C143.463 27.7673 143.438 27.6569 143.438 27.545C143.438 27.4331 143.463 27.3227 143.512 27.222L144.754 24.589C145.052 23.993 144.406 23.347 143.81 23.645L141.177 24.887C140.979 24.987 140.73 24.987 140.531 24.887L137.899 23.645C137.303 23.347 136.657 23.993 136.955 24.589L138.197 27.222C138.246 27.3227 138.271 27.4331 138.271 27.545C138.271 27.6569 138.246 27.7673 138.197 27.868Z" fill="#FDC2FA"/>
<path d="M119.469 12.469C119.206 12.4682 118.953 12.3632 118.767 12.1769C118.581 11.9907 118.477 11.7383 118.476 11.475V10.482C118.476 9.93501 118.923 9.48801 119.469 9.48801C120.016 9.48801 120.463 9.93501 120.463 10.482V11.475C120.462 11.7385 120.358 11.991 120.171 12.1773C119.985 12.3636 119.732 12.4685 119.469 12.469ZM119.469 20.417C119.206 20.4162 118.953 20.3112 118.767 20.1249C118.581 19.9387 118.477 19.6863 118.476 19.423V18.43C118.476 17.883 118.923 17.436 119.469 17.436C120.016 17.436 120.463 17.883 120.463 18.43V19.423C120.462 19.6864 120.357 19.9388 120.171 20.125C119.985 20.3112 119.732 20.4162 119.469 20.417ZM121.953 14.952C121.953 14.406 122.4 13.959 122.946 13.959H123.94C124.486 13.959 124.933 14.406 124.933 14.952C124.932 15.2153 124.828 15.4677 124.642 15.6539C124.456 15.8402 124.203 15.9452 123.94 15.946H122.946C122.683 15.9452 122.43 15.8402 122.244 15.6539C122.058 15.4677 121.954 15.2153 121.953 14.952ZM114.005 14.952C114.005 14.406 114.452 13.959 114.998 13.959H115.992C116.538 13.959 116.985 14.406 116.985 14.952C116.984 15.2153 116.88 15.4677 116.694 15.6539C116.508 15.8402 116.255 15.9452 115.992 15.946H114.998C114.735 15.9452 114.482 15.8402 114.296 15.6539C114.11 15.4677 114.006 15.2153 114.005 14.952Z" fill="#4F545C"/>
</svg>
