<svg width="203" height="203" viewBox="0 0 203 203" fill="none" xmlns="http://www.w3.org/2000/svg">
<g clip-path="url(#clip0)">
<path fill-rule="evenodd" clip-rule="evenodd" d="M166.072 163.031C131.388 197.715 75.1545 197.715 40.472 163.031C5.78815 128.349 5.78815 72.1152 40.472 37.4314C75.1558 2.74887 131.389 2.74761 166.072 37.4314C200.756 72.1152 200.754 128.349 166.072 163.031Z" stroke="#1E2126" stroke-width="2" stroke-linecap="round" stroke-linejoin="round" stroke-dasharray="4 5"/>
<path fill-rule="evenodd" clip-rule="evenodd" d="M152.526 123.438C151.737 125.357 150.851 127.246 149.87 129.097C150.851 127.246 151.737 125.357 152.526 123.438Z" fill="#F3F9FF"/>
<path fill-rule="evenodd" clip-rule="evenodd" d="M139.001 136.978C143.11 132.906 146.364 128.3 148.788 123.388L119.108 109.667L107.72 121.858L94.2053 117.918L91.0936 126.778L68.0321 108.462L55.7295 118.657C58.167 125.209 61.9907 131.363 67.2297 136.65C86.9584 156.56 119.092 156.706 139.001 136.978Z" fill="#AABFF2"/>
<path d="M148.788 123.388L119.108 109.667L107.721 121.857L94.2057 117.918L91.094 126.778L68.0325 108.462L55.7303 118.658" stroke="#1E2126" stroke-width="2" stroke-linecap="round" stroke-linejoin="round"/>
<path fill-rule="evenodd" clip-rule="evenodd" d="M13.3422 190.049C10.2586 186.938 10.2819 181.916 13.3937 178.832L60.2584 132.392L71.424 143.661L24.5593 190.101C21.4475 193.185 16.4258 193.161 13.3422 190.049Z" fill="#C9D2F0"/>
<path fill-rule="evenodd" clip-rule="evenodd" d="M13.3422 190.049C10.2586 186.938 10.2819 181.916 13.3937 178.832L60.2584 132.392L71.424 143.661L24.5593 190.101C21.4475 193.185 16.4258 193.161 13.3422 190.049Z" stroke="#1E2126" stroke-width="2" stroke-linecap="round" stroke-linejoin="round"/>
<path fill-rule="evenodd" clip-rule="evenodd" d="M26.4372 188.24L15.2716 176.971C13.2165 174.897 13.2306 171.549 15.3057 169.494L37.5288 147.471C39.6038 145.416 42.9512 145.432 45.0063 147.506L56.1731 158.774C58.2286 160.849 58.214 164.196 56.1394 166.253L33.9159 188.274C31.8408 190.329 28.4922 190.314 26.4372 188.24Z" fill="#9F7373"/>
<path fill-rule="evenodd" clip-rule="evenodd" d="M26.4372 188.24L15.2716 176.971C13.2165 174.897 13.2306 171.549 15.3057 169.494L37.5288 147.471C39.6038 145.416 42.9512 145.432 45.0063 147.506L56.1731 158.774C58.2286 160.849 58.214 164.196 56.1394 166.253L33.9159 188.274C31.8408 190.329 28.4922 190.314 26.4372 188.24Z" stroke="#1E2126" stroke-width="2" stroke-linecap="round" stroke-linejoin="round"/>
<path fill-rule="evenodd" clip-rule="evenodd" d="M96.8647 164.503C93.8111 164.197 90.7765 163.672 87.7844 162.926C90.7765 163.672 93.8111 164.197 96.8647 164.503Z" fill="#F3F9FF"/>
<path fill-rule="evenodd" clip-rule="evenodd" d="M139.001 136.978C119.092 156.706 86.9584 156.56 67.2297 136.65C61.9907 131.363 58.167 125.209 55.7295 118.657L55.6176 118.75L46.9435 114.701L42.281 119.935C45.2268 129.419 50.4187 138.361 57.8923 145.903C66.4308 154.52 76.815 160.196 87.7838 162.926C90.7759 163.672 93.8117 164.197 96.8652 164.503C99.9187 164.81 102.99 164.896 106.054 164.764C108.096 164.677 110.136 164.491 112.163 164.208C114.192 163.924 116.21 163.544 118.208 163.065C119.208 162.826 120.203 162.563 121.192 162.275C123.169 161.699 125.127 161.026 127.053 160.254C134.758 157.171 141.987 152.525 148.253 146.315C152.954 141.658 156.779 136.452 159.729 130.9C160.711 129.05 161.596 127.162 162.386 125.242C163.174 123.323 163.865 121.373 164.46 119.4C165.052 117.426 165.549 115.431 165.949 113.418C166.22 112.05 166.429 110.675 166.61 109.295L148.788 123.388C146.364 128.3 143.11 132.906 139.001 136.978Z" fill="#F3F9FF"/>
<path fill-rule="evenodd" clip-rule="evenodd" d="M139.001 136.978C119.092 156.706 86.9584 156.56 67.2297 136.65C61.9907 131.363 58.167 125.209 55.7295 118.657L55.6176 118.75L46.9435 114.701L42.281 119.935C45.2268 129.419 50.4187 138.361 57.8923 145.903C66.4308 154.52 76.815 160.196 87.7838 162.926C90.7759 163.672 93.8117 164.197 96.8652 164.503C99.9187 164.81 102.99 164.896 106.054 164.764C108.096 164.677 110.136 164.491 112.163 164.208C114.192 163.924 116.21 163.544 118.208 163.065C119.208 162.826 120.203 162.563 121.192 162.275C123.169 161.699 125.127 161.026 127.053 160.254C134.758 157.171 141.987 152.525 148.253 146.315C152.954 141.658 156.779 136.452 159.729 130.9C160.711 129.05 161.596 127.162 162.386 125.242C163.174 123.323 163.865 121.373 164.46 119.4C165.052 117.426 165.549 115.431 165.949 113.418C166.22 112.05 166.429 110.675 166.61 109.295L148.788 123.388C146.364 128.3 143.11 132.906 139.001 136.978Z" stroke="#1E2126" stroke-width="2" stroke-linecap="round" stroke-linejoin="round"/>
</g>
<defs>
<clipPath id="clip0">
<rect width="203" height="203" fill="white"/>
</clipPath>
</defs>
</svg>
