<svg width="405" height="289" viewBox="0 0 405 289" fill="none" xmlns="http://www.w3.org/2000/svg">
<g clip-path="url(#clip0)">
<path d="M84.6 278.5H362.4C380.8 278.5 395.7 263.6 395.7 245.2C395.7 226.8 380.8 211.9 362.4 211.9H345.5C326.5 211.9 311.1 196.5 311.1 177.5V176.8C311.1 157.8 326.5 142.4 345.5 142.4H367.8C377.64 142.387 387.071 138.465 394.019 131.498C400.967 124.531 404.863 115.09 404.85 105.25C404.837 95.4104 400.915 85.9792 393.948 79.031C386.981 72.0827 377.54 68.1867 367.7 68.2C318.2 68.3 250.6 68.1 202.1 67.9C197.467 67.8802 192.876 68.7765 188.591 70.5372C184.306 72.2979 180.411 74.8884 177.13 78.1596C173.85 81.4309 171.248 85.3184 169.476 89.5985C167.703 93.8787 166.793 98.4672 166.8 103.1V150.3C166.8 158.15 163.681 165.679 158.13 171.23C152.579 176.781 145.05 179.9 137.2 179.9H84.6C57.4 179.9 35.3 202 35.3 229.2C35.3 256.4 57.4 278.5 84.6 278.5Z" fill="#4F545C" fill-opacity="0.3"/>
<path d="M112 51L124.5 68L123.5 76.5L116 75L103.5 59L111 60.5L112 51Z" fill="#F2A66C"/>
<path d="M131.359 33.4035L133.389 32.2736C134.466 31.7415 135.754 32.5893 135.662 33.6485L135.535 35.9556C135.377 37.1378 134.234 37.7929 133.25 37.2658L131.281 36.2116C130.362 35.5615 130.406 34.0014 131.359 33.4035Z" fill="#8A939F"/>
<rect x="103" y="161" width="34" height="65" fill="#5C76B2"/>
<rect x="275" y="177" width="19" height="19" fill="#B7B2B0"/>
<rect x="275" y="177" width="19" height="19" fill="#B7B2B0"/>
<rect x="275" y="177" width="19" height="19" fill="#B7B2B0"/>
<rect x="275" y="177" width="19" height="19" fill="#B7B2B0"/>
<rect x="277" y="158" width="16" height="19" fill="#B7B2B0"/>
<rect x="311" y="191" width="36" height="18" fill="#C4C4C4"/>
<path d="M290 119.5L297.5 119L300 125L301 127.5L307.5 128.5L309.5 125L311 119.5L324 119L326 125L327.5 128.5H334L337.5 119H351.5L353 121.5V127.5L354 147.5L351.5 150L313 150.5L291.5 150L290 143.5V137.5V119.5Z" fill="#C4C4C4"/>
<path d="M142 119.5L149.5 119L152 125L154 128.5H159.5L161.5 125L163 119.5L176 119L178 125L179.5 128.5H186L189.5 119H203.5L205 121.5V127.5L206 147.5L203.5 150L165 150.5L143.5 150L142 143.5V137.5V119.5Z" fill="#C4C4C4"/>
<rect x="149" y="152" width="29" height="18" fill="#C4C4C4"/>
<rect x="191" y="158" width="86" height="18" fill="#C4C4C4"/>
<rect x="296" y="211" width="51" height="18" fill="#A09C9B"/>
<rect x="148" y="211" width="40" height="18" fill="#A09C9B"/>
<rect x="191" y="198" width="19" height="18" fill="#A09C9B"/>
<rect x="256" y="198" width="19" height="18" fill="#A09C9B"/>
<rect x="296" y="191" width="15" height="18" fill="#A5A5A5"/>
<path d="M317.8 83C317.8 80.8 320 79.4 322 80.3L336.9 87C339.4 88.1 339.2 91.6 336.7 92.6L321.8 98C319.8 98.7 317.8 97.3 317.8 95.2V83Z" fill="#D24230"/>
<path d="M1 287.5H86.5M123.6 287.5H381.7H123.6Z" stroke="#1F2225" stroke-width="2" stroke-linecap="round" stroke-linejoin="round"/>
<path d="M101.1 85.5L102 84.1C102.5 83.4 103.6 83.5 103.9 84.2L104.6 85.7C104.9 86.5 104.4 87.3 103.6 87.3H102C101.2 87.2 100.7 86.2 101.1 85.5ZM77.3 72.6L75.2 71.2C74.3 70.6 74.7 69.2 75.7 69.2C75.9 69.2 76.2 69.3 76.4 69.4L78.5 70.8C79.4 71.4 79 72.8 78 72.8C77.7 72.8 77.5 72.8 77.3 72.6ZM81.3 67.8C81.7 68.8 80.5 69.7 79.6 69.1L77.5 67.7C77.3 67.6 77.1 67.4 77.1 67.1C76.7 66.1 77.9 65.2 78.8 65.8L80.9 67.2C81 67.4 81.2 67.6 81.3 67.8ZM107.9 88L104.2 80C104 79.7 103.7 79.4 103.4 79.4C103 79.4 102.7 79.5 102.5 79.8L100.5 82.9L85.5 73C85.3 72.9 85.1 72.7 85.1 72.4L83 66.5C82.9 66.3 82.8 66.1 82.6 65.9L74.7 60.7C74.3 60.5 73.9 60.5 73.5 60.7C73.2 61 73 61.4 73.2 61.8L74.6 65.6L72 64.1C71.5 63.8 70.9 63.9 70.6 64.4C70.3 64.9 70.4 65.5 70.9 65.8L73.4 67.5L69.4 67.7C69 67.7 68.6 68 68.5 68.4C68.4 68.8 68.6 69.3 68.9 69.5L76.8 74.7C77 74.8 77.2 74.9 77.5 74.9L83.8 74.5C84 74.5 84.3 74.5 84.5 74.7L99.5 84.6L97.5 87.7C97.3 88 97.3 88.4 97.4 88.7C97.5 88.9 97.6 89 97.7 89.1C97.9 89.2 98 89.3 98.2 89.3L107 89.5C107.3 89.5 107.7 89.3 107.9 89.1C108 88.6 108.1 88.3 107.9 88ZM131.5 34.1L133 33.2C133.7 32.7 134.7 33.3 134.7 34.2V35.8C134.7 36.6 133.8 37.2 133.1 36.8L131.7 36.1C130.8 35.7 130.7 34.6 131.5 34.1ZM115.2 12.4L113.9 10.3C113.3 9.39996 114.3 8.29996 115.3 8.69996C115.5 8.79996 115.7 8.89996 115.8 9.19996L117.1 11.3C117.7 12.2 116.7 13.3 115.7 12.9L115.2 12.4ZM120.9 9.69996C120.8 10.8 119.4 11.1 118.8 10.2L117.5 8.09996C117.4 7.89996 117.3 7.69996 117.3 7.39996C117.4 6.29996 118.8 5.99996 119.4 6.89996L120.7 8.99996C120.9 9.19996 120.9 9.49996 120.9 9.69996ZM136.6 39.2V30.4C136.6 30 136.4 29.7 136.1 29.5C135.952 29.4011 135.778 29.3483 135.6 29.3483C135.422 29.3483 135.248 29.4011 135.1 29.5L132 31.4L122.6 16.1C122.5 15.9 122.4 15.7 122.4 15.4L123 9.09996C123 8.89996 123 8.59996 122.8 8.39996L117.8 0.299959C117.6 -0.100041 117.1 -0.20004 116.7 -0.10004C116.3 -4.0397e-05 116 0.399959 115.9 0.799959L115.5 4.79996L114 2.39996C113.7 1.89996 113.1 1.79996 112.6 2.09996C112.1 2.39996 112 2.99996 112.3 3.49996L113.9 6.09996L110.1 4.59996C109.7 4.39996 109.2 4.59996 109 4.89996C108.7 5.19996 108.7 5.69996 108.9 6.09996L113.9 14.2C114 14.4 114.2 14.6 114.4 14.7L120.3 17C120.5 17.1 120.7 17.2 120.8 17.5L130.2 32.8L127.1 34.7C126.8 34.9 126.6 35.2 126.6 35.6C126.6 35.8 126.7 35.9 126.7 36.1C126.8 36.3 126.9 36.4 127.1 36.5L135 40.4C135.3 40.6 135.7 40.5 136 40.4C136.4 39.9 136.6 39.6 136.6 39.2ZM134 96.6L141.5 90.6L142.6 99.6L134 96.6ZM115.7 74.1L106.2 62.1C106.071 61.9382 105.995 61.7402 105.983 61.5335C105.971 61.3267 106.023 61.1214 106.133 60.9457C106.243 60.7701 106.405 60.6329 106.596 60.5531C106.787 60.4732 106.998 60.4547 107.2 60.5L110.4 61.3C110.6 61.4 110.8 61.5 110.9 61.6L120.4 73.6C120.529 73.7618 120.605 73.9597 120.617 74.1665C120.629 74.3732 120.577 74.5786 120.467 74.7542C120.357 74.9298 120.195 75.067 120.004 75.1469C119.813 75.2267 119.602 75.2453 119.4 75.2L116.2 74.4C116.1 74.3 115.9 74.2 115.7 74.1ZM123.8 68.4L123.9 71.7C123.9 72.7 122.7 73.1 122.1 72.4L112.6 60.4C112.5 60.2 112.4 60 112.4 59.8L112.3 56.5C112.3 55.5 113.5 55.1 114.1 55.8L123.6 67.8C123.7 68 123.8 68.2 123.8 68.4ZM144.7 101L143.3 88.6C143.3 88.2 143 87.9 142.7 87.8C142.4 87.7 142 87.7 141.7 87.9L140.4 88.9C139.993 89.2286 139.525 89.4737 139.023 89.6215C138.522 89.7692 137.996 89.8165 137.476 89.7608C136.956 89.705 136.452 89.5473 135.992 89.2967C135.533 89.046 135.128 88.7073 134.8 88.3L126.3 77.6C126.2 77.4 126.1 77.2 126.1 77L125.8 67.7C125.8 67.5 125.7 67.3 125.6 67.1L111.9 49.9C111.6 49.6 111.2 49.4 110.8 49.6C110.4 49.7 110.1 50.1 110.1 50.6L110.3 57.9C110.3 58.6 109.7 59.1 109 58.9L101.9 57C101.5 56.9 101 57.1 100.8 57.4C100.6 57.8 100.6 58.2 100.9 58.6L114.6 75.8C114.7 76 114.9 76.1 115.1 76.1L124.1 78.5C124.3 78.6 124.5 78.7 124.6 78.8L133.1 89.5C134.5 91.2 134.2 93.7 132.5 95.1L131.2 96.1C130.9 96.3 130.8 96.7 130.8 97C130.8 97.2 130.9 97.3 131 97.5C131.1 97.6 131.3 97.8 131.4 97.8L143.2 102C143.5 102.1 143.9 102.1 144.2 101.8C144.6 101.7 144.7 101.4 144.7 101ZM52.7 108.4L56.1 99.4L61.6 106.6L52.7 108.4ZM25.6 98.3L11.2 92.9C10.3 92.6 10.4 91.3 11.3 91L14.5 90.1C14.7 90 14.9 90 15.1 90.1L29.4 95.5C30.3 95.8 30.2 97.1 29.3 97.4L26.1 98.3C26 98.4 25.8 98.4 25.6 98.3ZM29.6 89.4L31.4 92.2C31.9 93 31.1 94 30.2 93.7L15.9 88.3C15.7 88.2 15.5 88.1 15.4 87.9L13.6 85C13.1 84.2 13.9 83.2 14.8 83.5L29.1 89C29.3 89 29.5 89.2 29.6 89.4ZM64.2 106.7L56.6 96.8C56.4 96.5 56 96.4 55.7 96.4C55.3 96.5 55 96.7 54.9 97L54.3 98.5C53.5 100.6 51.2 101.6 49.1 100.8L36.4 96C36.2 95.9 36 95.8 35.9 95.6L30.9 87.7C30.8 87.5 30.6 87.4 30.4 87.3L9.9 79.5C9.5 79.3 9 79.5 8.8 79.8C8.5 80.1 8.5 80.6 8.7 81L12.6 87.2C13 87.8 12.7 88.5 12 88.7L5 90.7C4.6 90.8 4.3 91.2 4.3 91.6C4.3 92 4.5 92.4 4.9 92.6L25.5 100.4C25.7 100.5 25.9 100.5 26.1 100.4L35.1 97.8C35.3 97.7 35.5 97.7 35.7 97.8L48.5 102.6C50.6 103.4 51.6 105.7 50.8 107.8L50.2 109.3C50.1 109.6 50.1 110 50.4 110.3C50.5 110.4 50.7 110.5 50.8 110.6C51 110.7 51.2 110.7 51.3 110.6L63.6 108.2C63.9 108.1 64.2 107.9 64.3 107.6C64.5 107.3 64.4 107 64.2 106.7Z" fill="black"/>
<path d="M236.4 187.5C218.2 187.5 203.4 202.3 203.4 220.5V287.5H269.4V220.5C269.4 202.3 254.6 187.5 236.4 187.5Z" fill="#8D8D8D"/>
<path d="M187.6 176.8V186.4C187.6 187.8 186.5 189 185 189H170.3C169.7 189 169.3 188.6 169.3 188V173.6C169.3 172.2 170.4 171 171.9 171H185.1C186.5 171 187.7 172.2 187.7 173.6L187.6 176.8ZM180.5 206.3C180.5 207.7 179.3 208.9 177.9 208.9H151.2C149.8 208.9 148.6 207.8 148.6 206.3V193.4C148.6 192 149.7 190.8 151.2 190.8H177.9C179.3 190.8 180.5 191.9 180.5 193.4V206.3ZM267.7 144.5C267.7 142.3 269.5 140.5 271.7 140.5H282.4C285.8 140.5 288.5 143.2 288.5 146.6V148.9C288.5 150.8 289.8 152.4 291.6 152.8C292.2 152.9 292.6 153.3 292.8 153.8C293.1 154.8 292.4 155.9 291.3 155.9H275C271 155.9 267.8 152.7 267.8 148.7V144.5H267.7ZM226.6 143.6C226.6 141.9 228 140.5 229.7 140.5H245.5C247.2 140.5 248.6 141.9 248.6 143.6C248.6 144.2 249 144.6 249.6 144.6C250.2 144.6 250.6 144.2 250.6 143.6C250.6 141.9 252 140.5 253.7 140.5H255.5C257.2 140.5 258.6 141.9 258.6 143.6V151.5C258.6 153.7 256.8 155.5 254.6 155.5C252.4 155.5 250.6 153.7 250.6 151.5V148.6C250.6 148 250.2 147.6 249.6 147.6C249 147.6 248.6 148 248.6 148.6V151.8C248.6 154 246.8 155.8 244.6 155.8H230.6C228.4 155.8 226.6 154 226.6 151.8V143.6ZM211.6 143.6C211.6 141.9 213 140.5 214.7 140.5H215.5C217.2 140.5 218.6 141.9 218.6 143.6V152C218.6 153.9 217 155.5 215.1 155.5C213.2 155.5 211.6 153.9 211.6 152V143.6ZM193.7 140.5H206.5C208.2 140.5 209.6 141.9 209.6 143.6V149.7C209.6 153.1 206.9 155.8 203.5 155.8H196.8C193.4 155.8 190.7 153.1 190.7 149.7V143.6C190.6 141.9 192 140.5 193.7 140.5ZM148.6 254C148.6 252.3 150 250.9 151.7 250.9H173.5C174.5 250.9 175.4 251.4 176 252.1L187.1 266.8C187.5 267.3 187.7 268 187.7 268.6V268.8H151.7C150 268.8 148.6 267.4 148.6 265.7V254ZM293.4 285.5C293.4 286.1 293 286.5 292.4 286.5H271.4C270.8 286.5 270.4 286.1 270.4 285.5V279C270.4 278.4 270.8 278 271.4 278H292.4C293 278 293.4 278.4 293.4 279V285.5ZM293.4 268.6C293.4 272.6 290.1 275.9 286.1 275.9H277.7C273.7 275.9 270.4 272.6 270.4 268.6V259C270.4 258.4 270.8 258 271.4 258H292.4C293 258 293.4 258.4 293.4 259V268.6ZM270.4 255V239C270.4 238.4 270.8 238 271.4 238H285.4C286 238 286.4 238.4 286.4 239V255C286.4 255.6 286 256 285.4 256H271.4C271.135 256 270.88 255.895 270.693 255.707C270.505 255.52 270.4 255.265 270.4 255ZM293.4 213.4C293.4 214.8 292.3 215.9 290.9 215.9H279.1C277.7 215.9 276.6 214.8 276.6 213.4V200.8C276.6 199.2 277.9 197.9 279.5 197.9H290.9C292.3 197.9 293.4 199 293.4 200.4V213.4ZM296.4 156.9C296.4 154.7 298.2 152.9 300.4 152.9H327C329.2 152.9 331 154.7 331 156.9V166.9C331 167.43 330.789 167.939 330.414 168.314C330.039 168.689 329.53 168.9 329 168.9H301.5C298.7 168.9 296.5 166.7 296.5 163.9V156.9H296.4ZM346.4 267.1C346.4 268.1 345.6 268.9 344.6 268.9H339.8C337 268.9 334.8 266.7 334.8 263.9V255.9C334.8 253.1 337 250.9 339.8 250.9H344.6C345.6 250.9 346.4 251.7 346.4 252.7V267.1ZM346.4 247.1C346.4 248.2 345.4 249.1 344.3 248.9C343.4 248.8 342.8 247.9 342.8 247V244.4C342.8 243.8 342.4 243.4 341.8 243.4C341.2 243.4 340.8 243.8 340.8 244.4V247.1C340.8 248.1 340 248.9 339 248.9H333.8C331 248.9 328.8 246.7 328.8 243.9V235.9C328.8 233.1 331 230.9 333.8 230.9H339C340 230.9 340.8 231.7 340.8 232.7V238.5C340.8 239.1 341.2 239.5 341.8 239.5C342.4 239.5 342.8 239.1 342.8 238.5V232.8C342.8 231.9 343.4 231 344.3 230.9C345.5 230.7 346.4 231.6 346.4 232.7V247.1Z" fill="#A09C9B"/>
<path d="M200.5 187.1V187.8C200.5 188.4 200.9 188.8 201.5 188.8C202.1 188.8 202.5 188.4 202.5 187.8V187.1C202.5 186.5 202.1 186.1 201.5 186.1C200.9 186.1 200.5 186.6 200.5 187.1Z" fill="black"/>
<path d="M185.9 219.9C167.7 219.9 160.4 229.9 169.7 242.2L203.8 287.5H269.8L235.7 242.2C226.4 229.9 204.1 219.9 185.9 219.9Z" fill="#986634"/>
<path d="M179.8 155.4C179.8 154 180.9 152.8 182.4 152.8H185C186.4 152.8 187.6 154 187.6 155.4V166.2C187.6 167.6 186.5 168.8 185 168.8H182.3C180.9 168.8 179.7 167.7 179.7 166.2V155.4H179.8Z" fill="#B9B1AF"/>
<path d="M148.6 173.5C148.6 172.1 149.8 170.9 151.2 170.9H164.8C166.2 170.9 167.4 172 167.4 173.5V187.9C167.4 188.5 167 188.9 166.4 188.9H151.3C149.9 188.9 148.7 187.7 148.7 186.3V173.5H148.6Z" fill="#D4D1D1"/>
<path d="M185.1 208.9C183.7 208.9 182.5 207.7 182.5 206.3V193.4C182.5 192 183.6 190.8 185.1 190.8C186.5 190.8 187.7 191.9 187.7 193.4V206.2C187.6 207.8 186.5 208.9 185.1 208.9ZM202.4 220.5V221.3C198.1 220.2 194.8 219.4 190.7 219.1V218H199.9C201.3 217.9 202.4 219.1 202.4 220.5Z" fill="#636363"/>
<path d="M214 195C213.3 195.6 212.5 195.9 211.6 195.9H206.2C204.2 195.9 202.6 194.3 202.6 192.3V192.1C202.6 191.5 202.2 191.1 201.6 191.1C201 191.1 200.6 191.5 200.6 192.1V192.3C200.6 194.3 199 195.9 197 195.9H194.4C192.4 195.9 190.8 194.3 190.8 192.3V181.6C190.8 179.5 192.5 177.9 194.5 177.9H196.9C199 177.9 200.6 179.6 200.6 181.6C200.6 182.2 201 182.6 201.6 182.6C202.2 182.6 202.6 182.2 202.6 181.6C202.6 179.5 204.3 177.9 206.3 177.9H278.7C280.8 177.9 282.4 179.6 282.4 181.6V191.4C282.4 193.9 280.4 195.9 277.9 195.9H261.7C260.6 195.9 259.6 195.5 258.8 194.8C254.2 190.8 248.5 188 242.3 187H242.2C237.2 186.124 232.068 186.389 227.185 187.774C222.302 189.16 217.795 191.63 214 195Z" fill="#817C7C"/>
<path d="M211.6 143.6C211.6 141.9 213 140.5 214.7 140.5H215.5C217.2 140.5 218.6 141.9 218.6 143.6V152C218.6 153.9 217 155.5 215.1 155.5C213.2 155.5 211.6 153.9 211.6 152V143.6Z" fill="#7D7777"/>
<path d="M158.2 231.9C158.2 231.3 158.6 230.9 159.2 230.9H161.7C163.3 230.9 164.6 232.1 164.8 233.7C165.2 236.6 166.6 239.7 168.9 242.8L169.8 244C171.3 246 169.9 249 167.3 249H159.2C158.6 249 158.2 248.6 158.2 248V231.9Z" fill="#B7B2B0"/>
<path d="M148.6 234C148.6 232.3 150 230.9 151.7 230.9H155.2C155.8 230.9 156.2 231.3 156.2 231.9V247.9C156.2 248.5 155.8 248.9 155.2 248.9H151.7C150 248.9 148.6 247.5 148.6 245.8V234ZM197.9 286.5H192.7C192.17 286.5 191.661 286.289 191.286 285.914C190.911 285.539 190.7 285.03 190.7 284.5V277.5C190.7 275.6 193.2 274.8 194.3 276.3L199.5 283.3C200.4 284.6 199.5 286.5 197.9 286.5ZM293.4 255C293.4 255.6 293 256 292.4 256H289.3C288.7 256 288.3 255.6 288.3 255V239C288.3 238.4 288.7 238 289.3 238H292.4C293 238 293.4 238.4 293.4 239V255ZM293.4 234.9C293.4 235.5 293 235.9 292.4 235.9H272.9C271.5 235.9 270.4 234.8 270.4 233.4V220.3C270.4 218.9 271.5 217.8 272.9 217.8H292.4C293 217.8 293.4 218.2 293.4 218.8V234.9ZM296.4 232.8C296.4 231.8 297.2 231 298.2 231H321.7C324.5 231 326.7 233.2 326.7 236V244C326.7 246.8 324.5 249 321.7 249H298.2C297.2 249 296.4 248.2 296.4 247.2V232.8Z" fill="#807C7C"/>
<path d="M296.4 255.9C296.4 253.1 298.6 250.9 301.4 250.9H327.7C330.5 250.9 332.7 253.1 332.7 255.9V263.9C332.7 266.7 330.5 268.9 327.7 268.9H301.4C298.6 268.9 296.4 266.7 296.4 263.9V255.9Z" fill="#6C6868"/>
<path d="M294.029 275.419C294.029 272.944 297.24 271 301.326 271H339.704C343.79 271 347 268.526 347 271V285.139C347 287.613 345.789 286.907 341.703 286.907H297.527C293.442 286.907 294.029 284.962 294.029 282.488V275.419Z" fill="#6C6868"/>
<path d="M147 274C147 271.2 149.485 269 152.647 269H182.353C185.515 269 188 271.2 188 274V282C188 284.8 185.515 287 182.353 287H152.647C149.485 287 147 284.8 147 282V274V274Z" fill="#6C6868"/>
<path d="M346.4 180.9C346.4 185.3 342.8 188.9 338.4 188.9H304.4C300 188.9 296.4 185.3 296.4 180.9V172.9C296.4 171.8 297.3 170.9 298.4 170.9H344.4C344.93 170.9 345.439 171.111 345.814 171.486C346.189 171.861 346.4 172.37 346.4 172.9V180.9ZM343.4 168.9H334.9C334.37 168.9 333.861 168.689 333.486 168.314C333.111 167.939 332.9 167.43 332.9 166.9V156.9C332.9 154.7 334.7 152.9 336.9 152.9H342.4C344.6 152.9 346.4 154.7 346.4 156.9V165.9C346.4 166.696 346.084 167.459 345.521 168.021C344.959 168.584 344.196 168.9 343.4 168.9Z" fill="#B7B2B0"/>
<path d="M346.4 180.9C346.4 185.3 342.8 188.9 338.4 188.9H304.4C300 188.9 296.4 185.3 296.4 180.9V172.9C296.4 171.8 297.3 170.9 298.4 170.9H344.4C344.93 170.9 345.439 171.111 345.814 171.486C346.189 171.861 346.4 172.37 346.4 172.9V180.9ZM343.4 168.9H334.9C334.37 168.9 333.861 168.689 333.486 168.314C333.111 167.939 332.9 167.43 332.9 166.9V156.9C332.9 154.7 334.7 152.9 336.9 152.9H342.4C344.6 152.9 346.4 154.7 346.4 156.9V165.9C346.4 166.696 346.084 167.459 345.521 168.021C344.959 168.584 344.196 168.9 343.4 168.9Z" fill="#B7B2B0"/>
<path d="M88.1 287.5C88.1 286.9 87.7 286.5 87.1 286.5H1C0.4 286.5 0 286.9 0 287.5C0 288.1 0.4 288.5 1 288.5H87.1C87.7 288.5 88.1 288 88.1 287.5Z" fill="black"/>
<path d="M101.1 85.5L102 84.1C102.5 83.4 103.6 83.5 103.9 84.2L104.6 85.7C104.9 86.5 104.4 87.3 103.6 87.3H102C101.2 87.2 100.7 86.2 101.1 85.5ZM77.3 72.6L75.2 71.2C74.3 70.6 74.7 69.2 75.7 69.2C75.9 69.2 76.2 69.3 76.4 69.4L78.5 70.8C79.4 71.4 79 72.8 78 72.8C77.7 72.8 77.5 72.8 77.3 72.6ZM81.3 67.8C81.7 68.8 80.5 69.7 79.6 69.1L77.5 67.7C77.3 67.6 77.1 67.4 77.1 67.1C76.7 66.1 77.9 65.2 78.8 65.8L80.9 67.2C81 67.4 81.2 67.6 81.3 67.8Z" fill="#F2A66C"/>
<path d="M101.1 85.5L102 84.1C102.5 83.4 103.6 83.5 103.9 84.2L104.6 85.7C104.9 86.5 104.4 87.3 103.6 87.3H102C101.2 87.2 100.7 86.2 101.1 85.5Z" fill="#8A939F"/>
<path d="M115.2 12.4L113.9 10.3C113.3 9.39997 114.3 8.29997 115.3 8.69997C115.5 8.79997 115.7 8.89997 115.8 9.19997L117.1 11.3C117.7 12.2 116.7 13.3 115.7 12.9L115.2 12.4ZM120.9 9.69997C120.8 10.8 119.4 11.1 118.8 10.2L117.5 8.09997C117.4 7.89997 117.3 7.69997 117.3 7.39997C117.4 6.29997 118.8 5.99997 119.4 6.89997L120.7 8.99997C120.9 9.19997 120.9 9.49997 120.9 9.69997ZM134 96.6L141.5 90.6L142.5 99.6L134 96.6ZM52.7 108.4L56.1 99.4L61.7 106.6L52.7 108.4Z" fill="#8A939F"/>
<path d="M115.2 12.4L113.9 10.3C113.3 9.39997 114.3 8.29997 115.3 8.69997C115.5 8.79997 115.7 8.89997 115.8 9.19997L117.1 11.3C117.7 12.2 116.7 13.3 115.7 12.9L115.2 12.4ZM120.9 9.69997C120.8 10.8 119.4 11.1 118.8 10.2L117.5 8.09997C117.4 7.89997 117.3 7.69997 117.3 7.39997C117.4 6.29997 118.8 5.99997 119.4 6.89997L120.7 8.99997C120.9 9.19997 120.9 9.49997 120.9 9.69997Z" fill="#F2A66C"/>
<path d="M29.6 89.4001L31.4 92.2C31.9 93 31.1 94 30.2 93.7L15.9 88.3001C15.7 88.2001 15.5 88.1001 15.4 87.9001L13.6 85.0001C13.1 84.2001 13.9 83.2001 14.8 83.5001L29.1 89.0001C29.3 89.0001 29.5 89.2001 29.6 89.4001ZM25.6 98.3001L11.2 92.9001C10.3 92.6001 10.4 91.3001 11.3 91.0001L14.5 90.1C14.7 90 14.9 90 15.1 90.1L29.4 95.5001C30.3 95.8001 30.2 97.1001 29.3 97.4001L26.1 98.3001C26 98.4001 25.8 98.4001 25.6 98.3001Z" fill="#F2A66C"/>
<path d="M93.3 198.9C92.5 198.9 91.8 198.2 91.8 197.4C91.8 196.8 91.4 196.4 90.8 196.4C90.2 196.4 89.8 196.8 89.8 197.4C89.8 198.2 89.1 198.9 88.3 198.9C87.7 198.9 87.3 199.3 87.3 199.9C87.3 200.5 87.7 200.9 88.3 200.9C89.1 200.9 89.8 201.6 89.8 202.4C89.8 203 90.2 203.4 90.8 203.4C91.4 203.4 91.8 203 91.8 202.4C91.8 201.6 92.5 200.9 93.3 200.9C93.9 200.9 94.3 200.5 94.3 199.9C94.3 199.4 93.9 198.9 93.3 198.9ZM239.3 95.4L238.1 96.6C237.7 97 237.7 97.6 238.1 98C238.3 98.2 238.6 98.3 238.8 98.3C239.1 98.3 239.3 98.2 239.5 98L240.7 96.8C241.1 96.4 241.1 95.8 240.7 95.4C240.3 95 239.7 95 239.3 95.4ZM233.4 101.3L232.2 102.5C231.8 102.9 231.8 103.5 232.2 103.9C232.4 104.1 232.7 104.2 232.9 104.2C233.2 104.2 233.4 104.1 233.6 103.9L234.8 102.7C235.2 102.3 235.2 101.7 234.8 101.3C234.4 100.9 233.8 100.9 233.4 101.3ZM239.6 101.3C239.2 100.9 238.6 100.9 238.2 101.3C237.8 101.7 237.8 102.3 238.2 102.7L239.4 103.9C239.6 104.1 239.9 104.2 240.1 104.2C240.3 104.2 240.6 104.1 240.8 103.9C241.2 103.5 241.2 102.9 240.8 102.5L239.6 101.3ZM233.6 95.4C233.2 95 232.6 95 232.2 95.4C231.8 95.8 231.8 96.4 232.2 96.8L233.4 98C233.6 98.2 233.9 98.3 234.1 98.3C234.4 98.3 234.6 98.2 234.8 98C235.2 97.6 235.2 97 234.8 96.6L233.6 95.4ZM80.7 217L79.5 218.2C79.1 218.6 79.1 219.2 79.5 219.6C79.7 219.8 80 219.9 80.2 219.9C80.5 219.9 80.7 219.8 80.9 219.6L82.1 218.4C82.5 218 82.5 217.4 82.1 217C81.7 216.6 81.1 216.6 80.7 217ZM74.8 222.9L73.6 224.1C73.2 224.5 73.2 225.1 73.6 225.5C73.8 225.7 74.1 225.8 74.3 225.8C74.6 225.8 74.8 225.7 75 225.5L76.2 224.3C76.6 223.9 76.6 223.3 76.2 222.9C75.8 222.5 75.2 222.5 74.8 222.9ZM80.9 222.9C80.5 222.5 79.9 222.5 79.5 222.9C79.1 223.3 79.1 223.9 79.5 224.3L80.7 225.5C80.9 225.7 81.2 225.8 81.4 225.8C81.7 225.8 81.9 225.7 82.1 225.5C82.5 225.1 82.5 224.5 82.1 224.1L80.9 222.9ZM75 217C74.6 216.6 74 216.6 73.6 217C73.2 217.4 73.2 218 73.6 218.4L74.8 219.6C75 219.8 75.3 219.9 75.5 219.9C75.8 219.9 76 219.8 76.2 219.6C76.6 219.2 76.6 218.6 76.2 218.2L75 217ZM258.7 115.7C257.9 115.7 257.2 115 257.2 114.2C257.2 113.4 257.9 112.7 258.7 112.7C259.5 112.7 260.2 113.4 260.2 114.2C260.2 115 259.5 115.7 258.7 115.7ZM258.7 110.7C256.8 110.7 255.2 112.3 255.2 114.2C255.2 116.1 256.8 117.7 258.7 117.7C260.6 117.7 262.2 116.1 262.2 114.2C262.2 112.3 260.6 110.7 258.7 110.7Z" fill="black"/>
<path d="M343.4 168.9H334.9C334.37 168.9 333.861 168.689 333.486 168.314C333.111 167.939 332.9 167.43 332.9 166.9V156.9C332.9 154.7 334.7 152.9 336.9 152.9H342.4C344.6 152.9 346.4 154.7 346.4 156.9V165.9C346.4 166.696 346.084 167.459 345.521 168.021C344.959 168.584 344.196 168.9 343.4 168.9ZM346.4 180.9C346.4 185.3 342.8 188.9 338.4 188.9H304.4C300 188.9 296.4 185.3 296.4 180.9V172.9C296.4 171.8 297.3 170.9 298.4 170.9H344.4C344.93 170.9 345.439 171.111 345.814 171.486C346.189 171.861 346.4 172.37 346.4 172.9V180.9ZM346.4 207.1C346.4 208.1 345.6 208.9 344.6 208.9H313.6C312.6 208.9 311.8 208.1 311.8 207.1V205.6C311.8 205 311.4 204.6 310.8 204.6C310.2 204.6 309.8 205 309.8 205.6V207.1C309.8 208.1 309 208.9 308 208.9H298.3C297.3 208.9 296.5 208.1 296.5 207.1V192.8C296.5 191.8 297.3 191 298.3 191H303.8C307.1 191 309.8 193.7 309.8 197V200.9C309.8 201.5 310.2 201.9 310.8 201.9C311.4 201.9 311.8 201.5 311.8 200.9V197C311.8 193.7 314.5 191 317.8 191H344.6C345.6 191 346.4 191.8 346.4 192.8V207.1ZM346.4 227.1C346.4 228.1 345.6 228.9 344.6 228.9H298.3C297.3 228.9 296.5 228.1 296.5 227.1V212.8C296.5 211.8 297.3 211 298.3 211H344.6C345.6 211 346.4 211.8 346.4 212.8V227.1ZM346.4 247.1C346.4 248.2 345.4 249.1 344.3 248.9C343.4 248.8 342.8 247.9 342.8 247V244.4C342.8 243.8 342.4 243.4 341.8 243.4C341.2 243.4 340.8 243.8 340.8 244.4V247.1C340.8 248.1 340 248.9 339 248.9H333.8C331 248.9 328.8 246.7 328.8 243.9V235.9C328.8 233.1 331 230.9 333.8 230.9H339C340 230.9 340.8 231.7 340.8 232.7V238.5C340.8 239.1 341.2 239.5 341.8 239.5C342.4 239.5 342.8 239.1 342.8 238.5V232.8C342.8 231.9 343.4 231 344.3 230.9C345.5 230.7 346.4 231.6 346.4 232.7V247.1ZM346.4 267.1C346.4 268.1 345.6 268.9 344.6 268.9H339.8C337 268.9 334.8 266.7 334.8 263.9V255.9C334.8 253.1 337 250.9 339.8 250.9H344.6C345.6 250.9 346.4 251.7 346.4 252.7V267.1ZM346.4 284.7C346.4 285.7 345.6 286.5 344.6 286.5H298.3C297.3 286.5 296.5 285.7 296.5 284.7V272.8C296.5 271.8 297.3 271 298.3 271H344.6C345.6 271 346.4 271.8 346.4 272.8V284.7ZM296.4 255.9C296.4 253.1 298.6 250.9 301.4 250.9H327.7C330.5 250.9 332.7 253.1 332.7 255.9V263.9C332.7 266.7 330.5 268.9 327.7 268.9H301.4C298.6 268.9 296.4 266.7 296.4 263.9V255.9ZM296.4 232.8C296.4 231.8 297.2 231 298.2 231H321.7C324.5 231 326.7 233.2 326.7 236V244C326.7 246.8 324.5 249 321.7 249H298.2C297.2 249 296.4 248.2 296.4 247.2V232.8ZM296.4 156.9C296.4 154.7 298.2 152.9 300.4 152.9H327C329.2 152.9 331 154.7 331 156.9V166.9C331 167.43 330.789 167.939 330.414 168.314C330.039 168.689 329.53 168.9 329 168.9H301.5C298.7 168.9 296.5 166.7 296.5 163.9V156.9H296.4ZM293.4 171.4C293.4 173.9 291.4 175.9 288.9 175.9H279.8C279.27 175.9 278.761 175.689 278.386 175.314C278.011 174.939 277.8 174.43 277.8 173.9C277.8 173.3 277.4 172.9 276.8 172.9C276.2 172.9 275.8 173.3 275.8 173.9C275.8 174.43 275.589 174.939 275.214 175.314C274.839 175.689 274.33 175.9 273.8 175.9H245.5C244.97 175.9 244.461 175.689 244.086 175.314C243.711 174.939 243.5 174.43 243.5 173.9V160.9C243.5 159.2 244.8 157.9 246.5 157.9H272.8C274.5 157.9 275.8 159.2 275.8 160.9V170.1C275.8 170.7 276.2 171.1 276.8 171.1C277.4 171.1 277.8 170.7 277.8 170.1V160.9C277.8 159.2 279.1 157.9 280.8 157.9H288.9C291.4 157.9 293.4 159.9 293.4 162.4V171.4ZM293.4 191.4C293.4 193.9 291.4 195.9 288.9 195.9C286.4 195.9 284.4 193.9 284.4 191.4V181.6C284.4 179.5 286.1 177.9 288.1 177.9H291.5C292.03 177.9 292.539 178.111 292.914 178.486C293.289 178.861 293.5 179.37 293.5 179.9V191.4H293.4ZM293.4 213.4C293.4 214.8 292.3 215.9 290.9 215.9H279.1C277.7 215.9 276.6 214.8 276.6 213.4V200.8C276.6 199.2 277.9 197.9 279.5 197.9H290.9C292.3 197.9 293.4 199 293.4 200.4V213.4ZM293.4 234.9C293.4 235.5 293 235.9 292.4 235.9H272.9C271.5 235.9 270.4 234.8 270.4 233.4V220.3C270.4 218.9 271.5 217.8 272.9 217.8H292.4C293 217.8 293.4 218.2 293.4 218.8V234.9ZM293.4 255C293.4 255.6 293 256 292.4 256H289.3C288.7 256 288.3 255.6 288.3 255V239C288.3 238.4 288.7 238 289.3 238H292.4C293 238 293.4 238.4 293.4 239V255ZM270.4 255V239C270.4 238.4 270.8 238 271.4 238H285.4C286 238 286.4 238.4 286.4 239V255C286.4 255.6 286 256 285.4 256H271.4C271.135 256 270.88 255.895 270.693 255.707C270.505 255.52 270.4 255.265 270.4 255ZM293.4 268.6C293.4 272.6 290.1 275.9 286.1 275.9H277.7C273.7 275.9 270.4 272.6 270.4 268.6V259C270.4 258.4 270.8 258 271.4 258H292.4C293 258 293.4 258.4 293.4 259V268.6ZM293.4 285.5C293.4 286.1 293 286.5 292.4 286.5H271.4C270.8 286.5 270.4 286.1 270.4 285.5V279C270.4 278.4 270.8 278 271.4 278H292.4C293 278 293.4 278.4 293.4 279V285.5ZM269.7 213.9C268.9 209.7 267.3 205.8 265.1 202.4C263.9 200.5 265.2 197.9 267.5 197.9H271.8C273.4 197.9 274.7 199.2 274.7 200.8V213.4C274.7 214.8 273.6 215.9 272.2 215.9C271 215.9 270 215.1 269.7 213.9ZM256.4 286.5H214.6C208.2 286.5 202.1 283.5 198.3 278.4L170.6 241.7C166.9 236.7 165.8 232 167.6 228.3C169.9 223.6 176.6 221 185.9 221C203.8 221 225.8 230.8 234.9 242.9L260.9 277.4C263.8 281.1 261.1 286.5 256.4 286.5ZM197.9 286.5H192.7C192.17 286.5 191.661 286.289 191.286 285.914C190.911 285.539 190.7 285.03 190.7 284.5V277.5C190.7 275.6 193.2 274.8 194.3 276.3L199.5 283.3C200.4 284.6 199.5 286.5 197.9 286.5ZM184.6 286.5H173.4C171.2 286.5 169.4 284.7 169.4 282.5V277.6C169.4 277 169 276.6 168.4 276.6C167.8 276.6 167.4 277 167.4 277.6V282.5C167.4 284.7 165.6 286.5 163.4 286.5H151.7C150 286.5 148.6 285.1 148.6 283.4V274.1C148.6 272.4 150 271 151.7 271H166.4C167 271 167.4 271.4 167.4 272V273.4C167.4 274 167.8 274.4 168.4 274.4C169 274.4 169.4 274 169.4 273.4V272C169.4 271.4 169.8 271 170.4 271H184.6C186.3 271 187.7 272.4 187.7 274.1V283.4C187.7 285.1 186.3 286.5 184.6 286.5ZM148.6 254C148.6 252.3 150 250.9 151.7 250.9H173.5C174.5 250.9 175.4 251.4 176 252.1L187.1 266.8C187.5 267.3 187.7 268 187.7 268.6V268.8H151.7C150 268.8 148.6 267.4 148.6 265.7V254ZM148.6 234C148.6 232.3 150 230.9 151.7 230.9H155.2C155.8 230.9 156.2 231.3 156.2 231.9V247.9C156.2 248.5 155.8 248.9 155.2 248.9H151.7C150 248.9 148.6 247.5 148.6 245.8V234ZM158.2 231.9C158.2 231.3 158.6 230.9 159.2 230.9H161.7C163.3 230.9 164.6 232.1 164.8 233.7C165.2 236.6 166.6 239.7 168.9 242.8L169.8 244C171.3 246 169.9 249 167.3 249H159.2C158.6 249 158.2 248.6 158.2 248V231.9ZM193.7 140.5H206.5C208.2 140.5 209.6 141.9 209.6 143.6V149.7C209.6 153.1 206.9 155.8 203.5 155.8H196.8C193.4 155.8 190.7 153.1 190.7 149.7V143.6C190.6 141.9 192 140.5 193.7 140.5ZM211.6 143.6C211.6 141.9 213 140.5 214.7 140.5H215.5C217.2 140.5 218.6 141.9 218.6 143.6V152C218.6 153.9 217 155.5 215.1 155.5C213.2 155.5 211.6 153.9 211.6 152V143.6ZM214 195C213.3 195.6 212.5 195.9 211.6 195.9H206.2C204.2 195.9 202.6 194.3 202.6 192.3V192.1C202.6 191.5 202.2 191.1 201.6 191.1C201 191.1 200.6 191.5 200.6 192.1V192.3C200.6 194.3 199 195.9 197 195.9H194.4C192.4 195.9 190.8 194.3 190.8 192.3V181.6C190.8 179.5 192.5 177.9 194.5 177.9H196.9C199 177.9 200.6 179.6 200.6 181.6C200.6 182.2 201 182.6 201.6 182.6C202.2 182.6 202.6 182.2 202.6 181.6C202.6 179.5 204.3 177.9 206.3 177.9H278.7C280.8 177.9 282.4 179.6 282.4 181.6V191.4C282.4 193.9 280.4 195.9 277.9 195.9H261.7C260.6 195.9 259.6 195.5 258.8 194.8C254.2 190.8 248.5 188 242.3 187H242.2C237.201 186.124 232.068 186.389 227.185 187.774C222.302 189.16 217.795 191.63 214 195ZM204.4 220.5C204.4 205.2 215.2 192.4 229.6 189.2C230.7 189 231.3 190.5 230.3 191C220.1 196.9 213.4 208 213.4 220.4V223.5C213.4 224.2 212.7 224.7 212 224.4C209.7 223.5 207.4 222.7 205.1 221.9C204.7 221.8 204.4 221.4 204.4 221V220.5ZM202.4 220.5V221.3C198.1 220.2 194.8 219.4 190.7 219.1V218H199.9C201.3 217.9 202.4 219.1 202.4 220.5ZM200.2 215.9H193.6C192.804 215.9 192.041 215.584 191.479 215.021C190.916 214.459 190.6 213.696 190.6 212.9V200.8C190.6 200.004 190.916 199.241 191.479 198.679C192.041 198.116 192.804 197.8 193.6 197.8H205C207.3 197.8 208.8 200.4 207.6 202.3C205.449 205.702 203.925 209.461 203.1 213.4C202.8 214.9 201.6 215.9 200.2 215.9ZM238.5 157.9C240.2 157.9 241.5 159.2 241.5 160.9V173.9C241.5 174.43 241.289 174.939 240.914 175.314C240.539 175.689 240.03 175.9 239.5 175.9H198.4C194.1 175.9 190.6 172.4 190.6 168.1V165.8C190.6 161.4 194.2 157.8 198.6 157.8H238.5V157.9ZM226.6 143.6C226.6 141.9 228 140.5 229.7 140.5H245.5C247.2 140.5 248.6 141.9 248.6 143.6C248.6 144.2 249 144.6 249.6 144.6C250.2 144.6 250.6 144.2 250.6 143.6C250.6 141.9 252 140.5 253.7 140.5H255.5C257.2 140.5 258.6 141.9 258.6 143.6V151.5C258.6 153.7 256.8 155.5 254.6 155.5C252.4 155.5 250.6 153.7 250.6 151.5V148.6C250.6 148 250.2 147.6 249.6 147.6C249 147.6 248.6 148 248.6 148.6V151.8C248.6 154 246.8 155.8 244.6 155.8H230.6C228.4 155.8 226.6 154 226.6 151.8V143.6ZM267.7 144.5C267.7 142.3 269.5 140.5 271.7 140.5H282.4C285.8 140.5 288.5 143.2 288.5 146.6V148.9C288.5 150.8 289.8 152.4 291.6 152.8C292.2 152.9 292.6 153.3 292.8 153.8C293.1 154.8 292.4 155.9 291.3 155.9H275C271 155.9 267.8 152.7 267.8 148.7V144.5H267.7ZM185.1 208.9C183.7 208.9 182.5 207.7 182.5 206.3V193.4C182.5 192 183.6 190.8 185.1 190.8C186.5 190.8 187.7 191.9 187.7 193.4V206.2C187.6 207.8 186.5 208.9 185.1 208.9ZM180.5 206.3C180.5 207.7 179.3 208.9 177.9 208.9H151.2C149.8 208.9 148.6 207.7 148.6 206.3V193.4C148.6 192 149.7 190.8 151.2 190.8H177.9C179.3 190.8 180.5 191.9 180.5 193.4V206.3ZM148.6 173.5C148.6 172.1 149.7 170.9 151.2 170.9H164.8C166.2 170.9 167.4 172.1 167.4 173.5V187.9C167.4 188.5 167 188.9 166.4 188.9H151.3C149.9 188.9 148.7 187.7 148.7 186.3V173.5H148.6ZM148.6 155.4C148.6 154 149.7 152.8 151.2 152.8H175.3C176.7 152.8 177.9 153.9 177.9 155.4V162.8C177.9 166.1 175.2 168.8 171.9 168.8H154.7C151.4 168.8 148.7 166.1 148.7 162.8V155.4H148.6ZM179.8 155.4C179.8 154 180.9 152.8 182.4 152.8H185C186.4 152.8 187.6 153.9 187.6 155.4V166.2C187.6 167.6 186.5 168.8 185 168.8H182.3C180.9 168.8 179.7 167.7 179.7 166.2V155.4H179.8ZM187.6 176.8C187.6 176.8 187.6 176.9 187.6 176.8V186.4C187.6 187.8 186.5 189 185 189H170.3C169.7 189 169.3 188.6 169.3 188V173.6C169.3 172.2 170.4 171 171.9 171H185.1C186.5 171 187.7 172.1 187.7 173.6L187.6 176.8ZM136.9 237.2L123.3 229.6C122.264 229.01 121.092 228.7 119.9 228.7C118.708 228.7 117.536 229.01 116.5 229.6L102.9 237.2V162.9C102.9 162.3 103.3 161.9 103.9 161.9C104.5 161.9 104.9 162.3 104.9 162.9V226.1C104.9 226.5 105.1 226.8 105.4 227C105.7 227.2 106.1 227.2 106.4 227L116.5 221.4C118.6 220.2 121.2 220.2 123.3 221.4L133.4 227C133.6 227.1 133.7 227.1 133.9 227.1C134.1 227.1 134.3 227.1 134.4 227C134.7 226.8 134.9 226.5 134.9 226.1V162.9C134.9 162.3 135.3 161.9 135.9 161.9C136.5 161.9 136.9 162.3 136.9 162.9V237.2ZM112 161.9H127.8C130.6 161.9 132.9 164.2 132.9 167V220.7C132.9 221.5 132.1 221.9 131.4 221.6L123.3 217.1C122.264 216.51 121.092 216.2 119.9 216.2C118.708 216.2 117.536 216.51 116.5 217.1L108.4 221.6C107.7 222 106.9 221.5 106.9 220.7V167C106.9 164.1 109.2 161.9 112 161.9ZM90.7 162.4C89.9 162.4 89.2 161.7 89.2 160.9C89.2 160.1 89.9 159.4 90.7 159.4C91.5 159.4 92.2 160.1 92.2 160.9C92.2 161.7 91.5 162.4 90.7 162.4ZM317.8 83C317.8 80.8 320 79.4 322 80.3L336.9 87C339.4 88.1 339.2 91.6 336.7 92.6L321.8 98C319.8 98.7 317.8 97.3 317.8 95.2V83ZM381.7 286.5H356.4C352 286.5 348.5 283 348.5 278.6V154.9C348.5 153.8 349.4 152.9 350.5 152.9C352.7 152.9 354.5 151.1 354.5 148.9V121.4C354.489 120.441 354.134 119.519 353.5 118.8C353.4 118.7 353.3 118.5 353.1 118.4C352.381 117.766 351.458 117.411 350.5 117.4H347.5C346.9 117.4 346.5 117.8 346.5 118.4C346.5 119 346.9 119.4 347.5 119.4H348.5C350.7 119.4 352.5 121.2 352.5 123.4V144.9C352.5 147.1 350.7 148.9 348.5 148.9H294.5C292.3 148.9 290.5 147.1 290.5 144.9V123.6C290.5 121.5 292 119.6 294.1 119.4C294.658 119.344 295.221 119.406 295.754 119.582C296.286 119.757 296.776 120.043 297.191 120.42C297.606 120.797 297.937 121.258 298.162 121.771C298.388 122.284 298.503 122.839 298.5 123.4V125.9C298.511 126.858 298.866 127.781 299.5 128.5C299.6 128.6 299.7 128.8 299.9 128.9C300.619 129.534 301.542 129.889 302.5 129.9H306.5C307.458 129.889 308.381 129.534 309.1 128.9C309.2 128.8 309.4 128.7 309.5 128.5C310.134 127.781 310.489 126.858 310.5 125.9V123.4C310.5 121.2 312.3 119.4 314.5 119.4H320.5C322.7 119.4 324.5 121.2 324.5 123.4V125.9C324.511 126.858 324.866 127.781 325.5 128.5C325.6 128.6 325.7 128.8 325.9 128.9C326.619 129.534 327.542 129.889 328.5 129.9H332.5C333.458 129.889 334.381 129.534 335.1 128.9C335.2 128.8 335.4 128.7 335.5 128.5C336.134 127.781 336.489 126.858 336.5 125.9V123.4C336.5 121.2 338.3 119.4 340.5 119.4H343.7C344.3 119.4 344.7 119 344.7 118.4C344.7 117.8 344.3 117.4 343.7 117.4H338.5C337.542 117.411 336.619 117.766 335.9 118.4C335.8 118.5 335.6 118.6 335.5 118.8C334.866 119.519 334.511 120.441 334.5 121.4V123.7C334.5 125.8 333 127.7 330.9 127.9C330.342 127.956 329.779 127.894 329.246 127.718C328.714 127.543 328.224 127.257 327.809 126.88C327.394 126.503 327.063 126.042 326.838 125.529C326.612 125.016 326.497 124.461 326.5 123.9V121.4C326.489 120.441 326.134 119.519 325.5 118.8C325.4 118.7 325.3 118.5 325.1 118.4C324.381 117.766 323.458 117.411 322.5 117.4H317.9V105.8C317.9 103.3 319.5 101 321.9 100.2L346.8 91.2C347.2 91.1 347.4 90.7 347.5 90.3C347.5 89.9 347.3 89.5 346.9 89.4L317.4 76.1C317.1 76 316.7 76 316.4 76.2C316.1 76.4 315.9 76.7 315.9 77V117.5H312.5C311.542 117.511 310.619 117.866 309.9 118.5C309.8 118.6 309.6 118.7 309.5 118.9C308.866 119.619 308.511 120.541 308.5 121.5V123.8C308.5 125.9 307 127.8 304.9 128C304.342 128.056 303.779 127.994 303.246 127.818C302.714 127.643 302.224 127.357 301.809 126.98C301.394 126.603 301.063 126.142 300.838 125.629C300.612 125.116 300.497 124.561 300.5 124V121.5C300.489 120.541 300.134 119.619 299.5 118.9C299.4 118.8 299.3 118.6 299.1 118.5C298.381 117.866 297.458 117.511 296.5 117.5H292.5C291.542 117.511 290.619 117.866 289.9 118.5C289.8 118.6 289.6 118.7 289.5 118.9C288.866 119.619 288.511 120.541 288.5 121.5V128.7C288.5 134.2 284 138.7 278.5 138.7H269.7C267.5 138.7 265.7 140.5 265.7 142.7V153.1C265.7 154.4 264.8 155.6 263.4 155.7C261.9 155.9 260.6 154.7 260.6 153.2V141.8C260.6 140.1 259.2 138.7 257.5 138.7H227.7C226 138.7 224.6 140.1 224.6 141.8V153.6C224.6 154.6 223.9 155.5 222.9 155.7C221.6 155.9 220.6 154.9 220.6 153.7V141.8C220.6 140.1 219.2 138.7 217.5 138.7H188.6C188.3 138.7 188.1 138.8 187.9 139C187.7 139.2 187.6 139.4 187.6 139.7V147.1C187.6 147.63 187.389 148.139 187.014 148.514C186.639 148.889 186.13 149.1 185.6 149.1H147.6C144.8 149.1 142.6 146.9 142.6 144.1V123.8C142.6 121.7 144.1 119.8 146.2 119.6C146.758 119.544 147.321 119.606 147.854 119.782C148.386 119.957 148.876 120.243 149.291 120.62C149.706 120.997 150.037 121.458 150.262 121.971C150.488 122.484 150.603 123.039 150.6 123.6V126.1C150.6 128.3 152.4 130.1 154.6 130.1H158.6C160.8 130.1 162.6 128.3 162.6 126.1V123.6C162.6 121.4 164.4 119.6 166.6 119.6H172.6C174.8 119.6 176.6 121.4 176.6 123.6V126.1C176.6 128.3 178.4 130.1 180.6 130.1H184.6C186.8 130.1 188.6 128.3 188.6 126.1V123.6C188.6 121.4 190.4 119.6 192.6 119.6H200.6C202.8 119.6 204.6 121.4 204.6 123.6V135.1C204.6 135.7 205 136.1 205.6 136.1C206.2 136.1 206.6 135.7 206.6 135.1V121.6C206.6 119.4 204.8 117.6 202.6 117.6H190.6C188.4 117.6 186.6 119.4 186.6 121.6V123.9C186.6 126 185.1 127.9 183 128.1C182.442 128.156 181.879 128.094 181.346 127.918C180.814 127.743 180.324 127.457 179.909 127.08C179.494 126.703 179.163 126.242 178.938 125.729C178.712 125.216 178.597 124.661 178.6 124.1V121.6C178.6 119.4 176.8 117.6 174.6 117.6H164.6C162.4 117.6 160.6 119.4 160.6 121.6V124.1C160.6 126.3 158.8 128.1 156.6 128.1C154.4 128.1 152.6 126.3 152.6 124.1V121.6C152.6 119.4 150.8 117.6 148.6 117.6H144.6C142.4 117.6 140.6 119.4 140.6 121.6V150.1C140.6 151.8 141.9 153.1 143.6 153.1H144C145.4 153.1 146.6 154.2 146.6 155.7V159.1C146.6 159.7 146.2 160.1 145.6 160.1H96.1C95 160.1 94 159.6 93.3 158.8C92.5 157.9 91.3 157.4 90 157.7C88.7 158 87.6 159 87.3 160.3C86.8 162.6 88.5 164.6 90.7 164.6C91.8 164.6 92.7 164.1 93.4 163.3C94.1 162.5 95.1 162.1 96.2 162.1H99.1C99.6304 162.1 100.139 162.311 100.514 162.686C100.889 163.061 101.1 163.57 101.1 164.1V239.2C101.1 239.6 101.3 239.9 101.6 240.1C101.9 240.3 102.3 240.3 102.6 240.1L116.7 232.3C118.8 231.1 121.4 231.1 123.5 232.3L137.6 240.1C137.8 240.2 137.9 240.2 138.1 240.2C138.3 240.2 138.5 240.2 138.6 240.1C138.9 239.9 139.1 239.6 139.1 239.2V164.1C139.1 163 140 162.1 141.1 162.1H142.4C144.9 162.1 146.8 164.1 146.8 166.5V216.6C146.8 217.2 147.2 217.6 147.8 217.6C148.4 217.6 148.8 217.2 148.8 216.6V213.7C148.8 212.3 149.9 211.1 151.4 211.1H185.3C186.7 211.1 187.9 212.2 187.9 213.7V217.5C187.9 218.5 187.1 219.3 186.1 219.3C176 219.3 168.6 222.4 166 227.8C165.7 228.3 165.5 228.8 165.4 229.4H152C150.3 229.4 148.9 228 148.9 226.3V221.8C148.9 221.2 148.5 220.8 147.9 220.8C147.3 220.8 146.9 221.2 146.9 221.8V277.9C146.9 282.9 142.9 286.9 137.9 286.9H123.1C122.5 286.9 122.1 287.3 122.1 287.9C122.1 288.5 122.5 288.9 123.1 288.9H382C382.6 288.9 383 288.5 383 287.9C382.7 286.9 382.2 286.5 381.7 286.5Z" fill="black"/>
<path d="M90.7 162.4C89.9 162.4 89.2 161.7 89.2 160.9C89.2 160.1 89.9 159.4 90.7 159.4C91.5 159.4 92.2 160.1 92.2 160.9C92.2 161.7 91.5 162.4 90.7 162.4Z" fill="black"/>
<path d="M136.9 237.2L123.3 229.6C122.264 229.01 121.092 228.7 119.9 228.7C118.708 228.7 117.536 229.01 116.5 229.6L102.9 237.2V162.9C102.9 162.3 103.3 161.9 103.9 161.9C104.5 161.9 104.9 162.3 104.9 162.9V226.1C104.9 226.5 105.1 226.8 105.4 227C105.7 227.2 106.1 227.2 106.4 227L116.5 221.4C118.6 220.2 121.2 220.2 123.3 221.4L133.4 227C133.6 227.1 133.7 227.1 133.9 227.1C134.1 227.1 134.3 227.1 134.4 227C134.7 226.8 134.9 226.5 134.9 226.1V162.9C134.9 162.3 135.3 161.9 135.9 161.9C136.5 161.9 136.9 162.3 136.9 162.9V237.2Z" fill="#94A7E0"/>
</g>
<defs>
<clipPath id="clip0">
<rect width="405" height="288.5" fill="white"/>
</clipPath>
</defs>
</svg>
