<svg width="280" height="165" viewBox="0 0 280 165" fill="none" xmlns="http://www.w3.org/2000/svg">
<mask id="mask0" mask-type="alpha" maskUnits="userSpaceOnUse" x="22" y="7" width="235" height="132">
<path d="M22 138.155V7H256.499V138.155H22Z" fill="white"/>
</mask>
<g mask="url(#mask0)">
<path fill-rule="evenodd" clip-rule="evenodd" d="M55.6655 138.155H227.835C243.665 138.155 256.5 125.321 256.5 109.489C256.5 93.6579 243.665 80.8239 227.835 80.8239H212.309C191.923 80.8239 175.396 64.2979 175.396 43.9119C175.396 23.5259 158.871 6.99988 138.485 6.99988H113.764C96.1385 6.99988 81.8515 21.2869 81.8515 38.9119V44.6389C81.8515 59.0999 70.1275 70.8239 55.6655 70.8239C37.0725 70.8239 21.9995 85.8969 21.9995 104.489C21.9995 123.083 37.0725 138.155 55.6655 138.155Z" fill="#4F545C" fill-opacity="0.3"/>
</g>
<path d="M42 53C42 50.7909 43.7909 49 46 49H213C215.209 49 217 50.7909 217 53V153C217 155.209 215.209 157 213 157H46C43.7909 157 42 155.209 42 153V53Z" fill="#535F71"/>
<path d="M218 49H230C232.761 49 235 51.2386 235 54V153C235 155.761 232.761 158 230 158H218V49Z" fill="#343E4C"/>
<path fill-rule="evenodd" clip-rule="evenodd" d="M118.229 110.824H128.229V100.824H118.229V110.824Z" fill="#55689E"/>
<path fill-rule="evenodd" clip-rule="evenodd" d="M118.229 88.824H128.229V82.824H118.229V88.824Z" fill="#818AA1"/>
<path fill-rule="evenodd" clip-rule="evenodd" d="M50.229 88.824H60.229V82.824H50.229V88.824Z" fill="#51596C"/>
<path fill-rule="evenodd" clip-rule="evenodd" d="M118.229 75.824H128.229V69.824H118.229V75.824Z" fill="#697184"/>
<path fill-rule="evenodd" clip-rule="evenodd" d="M50.229 75.824H60.229V69.824H50.229V75.824Z" fill="#51596C"/>
<path fill-rule="evenodd" clip-rule="evenodd" d="M50.229 110.824H60.229V100.824H50.229V110.824Z" fill="#7687B2"/>
<path fill-rule="evenodd" clip-rule="evenodd" d="M127.229 58.3239C127.78 58.3239 128.229 58.7719 128.229 59.3239C128.229 59.8759 127.78 60.3239 127.229 60.3239H51.2295C50.6785 60.3239 50.2295 59.8759 50.2295 59.3239C50.2295 58.7719 50.6785 58.3239 51.2295 58.3239H127.229Z" fill="#51596C"/>
<path fill-rule="evenodd" clip-rule="evenodd" d="M84.229 75.824H94.229V69.824H84.229V75.824Z" fill="#818AA1"/>
<path fill-rule="evenodd" clip-rule="evenodd" d="M84.229 88.824H94.229V82.824H84.229V88.824Z" fill="#818AA1"/>
<path fill-rule="evenodd" clip-rule="evenodd" d="M67.229 75.824H77.229V69.824H67.229V75.824Z" fill="#697184"/>
<path fill-rule="evenodd" clip-rule="evenodd" d="M84.229 110.824H94.229V100.824H84.229V110.824Z" fill="#7687B2"/>
<path fill-rule="evenodd" clip-rule="evenodd" d="M101.229 88.824H111.229V82.824H101.229V88.824Z" fill="#697184"/>
<path fill-rule="evenodd" clip-rule="evenodd" d="M101.229 75.824H111.229V69.824H101.229V75.824Z" fill="#697184"/>
<path fill-rule="evenodd" clip-rule="evenodd" d="M101.229 110.824H111.229V100.824H101.229V110.824Z" fill="#99ABD8"/>
<path fill-rule="evenodd" clip-rule="evenodd" d="M67.229 110.824H77.229V100.824H67.229V110.824Z" fill="#99ABD8"/>
<path fill-rule="evenodd" clip-rule="evenodd" d="M67.229 88.824H77.229V82.824H67.229V88.824Z" fill="#51596C"/>
<path fill-rule="evenodd" clip-rule="evenodd" d="M210.356 40.3239C210.356 38.6699 209.01 37.3239 207.356 37.3239H203.556C204.19 38.1619 204.581 39.1939 204.581 40.3239V85.3239C204.581 86.9659 203.775 88.4119 202.55 89.3239H203.581V88.3239H207.356C209.01 88.3239 210.356 86.9779 210.356 85.3239V40.3239Z" fill="#343E4C"/>
<path fill-rule="evenodd" clip-rule="evenodd" d="M70.729 138.155H73.729V132.155H70.729V138.155Z" fill="#72767D"/>
<path fill-rule="evenodd" clip-rule="evenodd" d="M53.729 142.276H56.729V136.276H53.729V142.276Z" fill="#72767D"/>
<path fill-rule="evenodd" clip-rule="evenodd" d="M86.729 134.034H89.729V128.034H86.729V134.034Z" fill="#72767D"/>
<path fill-rule="evenodd" clip-rule="evenodd" d="M104.729 129.912H107.729V123.912H104.729V129.912Z" fill="#72767D"/>
<path fill-rule="evenodd" clip-rule="evenodd" d="M143.229 88.3239H148.004H199.58C201.234 88.3239 202.58 86.9779 202.58 85.3239V40.3239C202.58 38.6699 201.234 37.3239 199.58 37.3239H151.004H143.229C141.575 37.3239 140.229 38.6699 140.229 40.3239V85.3239C140.229 86.9779 141.575 88.3239 143.229 88.3239Z" fill="#535F71"/>
<path fill-rule="evenodd" clip-rule="evenodd" d="M150.729 76.8239C149.351 76.8239 148.229 77.9449 148.229 79.3239C148.229 80.7029 149.351 81.8239 150.729 81.8239C152.107 81.8239 153.229 80.7029 153.229 79.3239C153.229 77.9449 152.107 76.8239 150.729 76.8239ZM192.081 76.8239C190.703 76.8239 189.581 77.9449 189.581 79.3239C189.581 80.7029 190.703 81.8239 192.081 81.8239C193.459 81.8239 194.581 80.7029 194.581 79.3239C194.581 77.9449 193.459 76.8239 192.081 76.8239ZM163.063 76.8239C161.685 76.8239 160.563 77.9449 160.563 79.3239C160.563 80.7029 161.685 81.8239 163.063 81.8239C164.441 81.8239 165.563 80.7029 165.563 79.3239C165.563 77.9449 164.441 76.8239 163.063 76.8239ZM175.396 76.8239C174.018 76.8239 172.896 77.9449 172.896 79.3239C172.896 80.7029 174.018 81.8239 175.396 81.8239C176.774 81.8239 177.896 80.7029 177.896 79.3239C177.896 77.9449 176.774 76.8239 175.396 76.8239Z" fill="#7687B2"/>
<path fill-rule="evenodd" clip-rule="evenodd" d="M148.229 69.324H194.58V45.324H148.229V69.324Z" fill="#6781CC"/>
<path fill-rule="evenodd" clip-rule="evenodd" d="M121.729 133.835H124.729V127.835H121.729V133.835Z" fill="#72767D"/>
<path fill-rule="evenodd" clip-rule="evenodd" d="M164.226 108.109C164.226 112.051 162.23 115.535 159.197 117.607H159.732C164.969 117.607 169.23 113.346 169.23 108.109C169.23 102.873 164.969 98.6119 159.732 98.6119H159.198C162.23 100.684 164.226 104.167 164.226 108.109Z" fill="#55689E"/>
<path fill-rule="evenodd" clip-rule="evenodd" d="M150.307 107.109C150.859 107.109 151.307 107.556 151.307 108.109C151.307 108.662 150.859 109.109 150.307 109.109H143.284C143.785 113.878 147.828 117.607 152.728 117.607C157.965 117.607 162.226 113.346 162.226 108.109C162.226 102.873 157.965 98.6119 152.728 98.6119C147.828 98.6119 143.785 102.341 143.284 107.109H150.307Z" fill="#7687B2"/>
<path fill-rule="evenodd" clip-rule="evenodd" d="M203.751 108.109C203.751 102.873 199.49 98.6119 194.253 98.6119H193.718C194.303 99.0099 194.861 99.4619 195.379 99.9789C197.551 102.151 198.747 105.038 198.747 108.11C198.747 111.181 197.551 114.068 195.379 116.24C194.861 116.758 194.303 117.209 193.718 117.607H194.253C199.49 117.607 203.751 113.346 203.751 108.109Z" fill="#55689E"/>
<path fill-rule="evenodd" clip-rule="evenodd" d="M180.532 114.826C183.996 118.289 189.492 118.513 193.22 115.495L188.253 110.528C187.863 110.138 187.863 109.505 188.253 109.114C188.644 108.723 189.277 108.723 189.667 109.114L194.633 114.081C196.001 112.395 196.746 110.311 196.746 108.11C196.746 105.572 195.758 103.187 193.964 101.393C192.113 99.5417 189.68 98.6157 187.248 98.6157C184.816 98.6157 182.384 99.5417 180.532 101.393C176.829 105.097 176.829 111.123 180.532 114.826Z" fill="#7687B2"/>
<path fill-rule="evenodd" clip-rule="evenodd" d="M162.801 131.567C164.281 134.258 164.626 137.365 163.769 140.314C163.016 142.91 161.413 145.108 159.206 146.607H159.732C164.968 146.607 169.229 142.346 169.229 137.109C169.229 131.873 164.968 127.612 159.732 127.612H159.202C160.679 128.617 161.915 129.956 162.801 131.567Z" fill="#55689E"/>
<path fill-rule="evenodd" clip-rule="evenodd" d="M151.482 137.794C151.749 138.278 151.572 138.887 151.088 139.152L144.935 142.538C146.172 144.321 147.967 145.618 150.08 146.232C152.517 146.94 155.082 146.654 157.305 145.432C159.528 144.209 161.142 142.193 161.849 139.757C162.556 137.32 162.272 134.755 161.049 132.532C159.826 130.309 157.811 128.695 155.375 127.988C154.52 127.74 153.649 127.619 152.783 127.612H152.727C152.72 127.612 152.713 127.608 152.706 127.608C151.129 127.609 149.569 128.007 148.149 128.788C145.926 130.011 144.313 132.026 143.606 134.463C142.992 136.575 143.128 138.786 143.971 140.786L150.124 137.4C150.608 137.135 151.216 137.311 151.482 137.794Z" fill="#7687B2"/>
<path fill-rule="evenodd" clip-rule="evenodd" d="M203.751 137.109C203.751 131.873 199.49 127.612 194.253 127.612H193.695C195.972 129.155 197.714 131.502 198.418 134.379C199.588 139.163 197.556 143.983 193.707 146.607H194.253C199.49 146.607 203.751 142.346 203.751 137.109Z" fill="#55689E"/>
<path fill-rule="evenodd" clip-rule="evenodd" d="M189.505 146.336C194.592 145.092 197.719 139.94 196.475 134.854C195.419 130.537 191.549 127.633 187.294 127.612H187.249C187.246 127.612 187.244 127.611 187.241 127.611C186.823 127.611 186.401 127.647 185.978 127.705L187.645 134.521C187.776 135.057 187.447 135.598 186.911 135.73C186.831 135.749 186.751 135.758 186.672 135.758C186.223 135.758 185.814 135.452 185.702 134.995L184.034 128.173C179.521 129.794 176.859 134.607 178.023 139.366C178.625 141.83 180.151 143.912 182.32 145.23C184.49 146.545 187.041 146.939 189.505 146.336Z" fill="#7687B2"/>
<path fill-rule="evenodd" clip-rule="evenodd" d="M187.061 53.2789H173.926C173.086 53.2789 172.406 52.5989 172.406 51.7589V50.4229C172.406 49.8699 171.958 49.4229 171.406 49.4229C170.853 49.4229 170.406 49.8699 170.406 50.4229V51.7589C170.406 52.5989 169.725 53.2789 168.886 53.2789H155.75C154.911 53.2789 154.23 53.9599 154.23 54.7989V63.1679C154.23 63.7199 154.678 64.1679 155.23 64.1679C155.782 64.1679 156.23 63.7199 156.23 63.1679V61.8439C156.23 61.0049 156.911 60.3239 157.75 60.3239H163.043C163.883 60.3239 164.563 61.0049 164.563 61.8439V63.1679C164.563 63.7199 165.011 64.1679 165.563 64.1679C166.116 64.1679 166.563 63.7199 166.563 63.1679V59.8439C166.563 59.0049 165.883 58.3239 165.043 58.3239H157.75C156.911 58.3239 156.23 57.6439 156.23 56.8039V56.7989C156.23 55.9599 156.911 55.2789 157.75 55.2789H177.377C178.216 55.2789 178.897 55.9599 178.897 56.7989V63.1679C178.897 63.7199 179.345 64.1679 179.897 64.1679C180.449 64.1679 180.897 63.7199 180.897 63.1679V56.7989C180.897 55.9599 181.578 55.2789 182.417 55.2789H185.061C185.9 55.2789 186.581 55.9599 186.581 56.7989V63.1679C186.581 63.7199 187.029 64.1679 187.581 64.1679C188.133 64.1679 188.581 63.7199 188.581 63.1679V54.7989C188.581 53.9599 187.9 53.2789 187.061 53.2789ZM74.2295 75.8239H70.2295C68.5725 75.8239 67.2295 74.4809 67.2295 72.8239C67.2295 71.1669 68.5725 69.8239 70.2295 69.8239H74.2295C75.8865 69.8239 77.2295 71.1669 77.2295 72.8239C77.2295 74.4809 75.8865 75.8239 74.2295 75.8239ZM76.2295 67.8239H68.2295C66.5725 67.8239 65.2295 69.1669 65.2295 70.8239V74.8239C65.2295 76.4809 66.5725 77.8239 68.2295 77.8239H76.2295C77.8865 77.8239 79.2295 76.4809 79.2295 74.8239V70.8239C79.2295 69.1669 77.8865 67.8239 76.2295 67.8239ZM70.2295 82.8239H74.2295C75.8865 82.8239 77.2295 84.1669 77.2295 85.8239C77.2295 87.4809 75.8865 88.8239 74.2295 88.8239H70.2295C68.5725 88.8239 67.2295 87.4809 67.2295 85.8239C67.2295 84.1669 68.5725 82.8239 70.2295 82.8239ZM65.2295 87.8239C65.2295 89.4809 66.5725 90.8239 68.2295 90.8239H76.2295C77.8865 90.8239 79.2295 89.4809 79.2295 87.8239V83.8239C79.2295 82.1669 77.8865 80.8239 76.2295 80.8239H68.2295C66.5725 80.8239 65.2295 82.1669 65.2295 83.8239V87.8239ZM68.2295 100.824H76.2295C76.7815 100.824 77.2295 101.272 77.2295 101.824V109.824C77.2295 110.376 76.7815 110.824 76.2295 110.824H68.2295C67.6775 110.824 67.2295 110.376 67.2295 109.824V101.824C67.2295 101.272 67.6775 100.824 68.2295 100.824ZM78.2295 112.824C78.7815 112.824 79.2295 112.376 79.2295 111.824V99.8239C79.2295 99.2719 78.7815 98.8239 78.2295 98.8239H66.2295C65.6775 98.8239 65.2295 99.2719 65.2295 99.8239V111.824C65.2295 112.376 65.6775 112.824 66.2295 112.824H78.2295ZM72.2295 138.155C71.4015 138.155 70.7295 137.483 70.7295 136.655V133.655C70.7295 132.827 71.4015 132.155 72.2295 132.155C73.0585 132.155 73.7295 132.827 73.7295 133.655V136.655C73.7295 137.483 73.0585 138.155 72.2295 138.155ZM74.7295 130.155C73.9015 130.155 73.2295 129.484 73.2295 128.655V117.824C73.2295 117.271 72.7815 116.824 72.2295 116.824C71.6775 116.824 71.2295 117.271 71.2295 117.824V128.655C71.2295 129.484 70.5585 130.155 69.7295 130.155C69.1775 130.155 68.7295 130.603 68.7295 131.155V139.155C68.7295 139.708 69.1775 140.155 69.7295 140.155C70.5585 140.155 71.2295 140.827 71.2295 141.655V147.824C71.2295 148.377 71.6775 148.824 72.2295 148.824C72.7815 148.824 73.2295 148.377 73.2295 147.824V141.655C73.2295 140.827 73.9015 140.155 74.7295 140.155C75.2815 140.155 75.7295 139.708 75.7295 139.155V131.155C75.7295 130.603 75.2815 130.155 74.7295 130.155ZM57.2295 75.8239H53.2295C51.5725 75.8239 50.2295 74.4809 50.2295 72.8239C50.2295 71.1669 51.5725 69.8239 53.2295 69.8239H57.2295C58.8865 69.8239 60.2295 71.1669 60.2295 72.8239C60.2295 74.4809 58.8865 75.8239 57.2295 75.8239ZM59.2295 67.8239H51.2295C49.5725 67.8239 48.2295 69.1669 48.2295 70.8239V74.8239C48.2295 76.4809 49.5725 77.8239 51.2295 77.8239H59.2295C60.8865 77.8239 62.2295 76.4809 62.2295 74.8239V70.8239C62.2295 69.1669 60.8865 67.8239 59.2295 67.8239ZM57.2295 88.8239H53.2295C51.5725 88.8239 50.2295 87.4809 50.2295 85.8239C50.2295 84.1669 51.5725 82.8239 53.2295 82.8239H57.2295C58.8865 82.8239 60.2295 84.1669 60.2295 85.8239C60.2295 87.4809 58.8865 88.8239 57.2295 88.8239ZM59.2295 80.8239H51.2295C49.5725 80.8239 48.2295 82.1669 48.2295 83.8239V87.8239C48.2295 89.4809 49.5725 90.8239 51.2295 90.8239H59.2295C60.8865 90.8239 62.2295 89.4809 62.2295 87.8239V83.8239C62.2295 82.1669 60.8865 80.8239 59.2295 80.8239ZM59.2295 110.824H51.2295C50.6775 110.824 50.2295 110.376 50.2295 109.824V101.824C50.2295 101.272 50.6775 100.824 51.2295 100.824H59.2295C59.7815 100.824 60.2295 101.272 60.2295 101.824V109.824C60.2295 110.376 59.7815 110.824 59.2295 110.824ZM61.2295 98.8239H49.2295C48.6775 98.8239 48.2295 99.2719 48.2295 99.8239V111.824C48.2295 112.376 48.6775 112.824 49.2295 112.824H61.2295C61.7815 112.824 62.2295 112.376 62.2295 111.824V99.8239C62.2295 99.2719 61.7815 98.8239 61.2295 98.8239ZM55.2295 142.276C54.4015 142.276 53.7295 141.604 53.7295 140.776V137.776C53.7295 136.948 54.4015 136.276 55.2295 136.276C56.0585 136.276 56.7295 136.948 56.7295 137.776V140.776C56.7295 141.604 56.0585 142.276 55.2295 142.276ZM57.7295 134.276C56.9015 134.276 56.2295 133.604 56.2295 132.776V117.824C56.2295 117.271 55.7815 116.824 55.2295 116.824C54.6775 116.824 54.2295 117.271 54.2295 117.824V132.776C54.2295 133.604 53.5585 134.276 52.7295 134.276C52.1775 134.276 51.7295 134.724 51.7295 135.276V143.276C51.7295 143.829 52.1775 144.276 52.7295 144.276C53.5585 144.276 54.2295 144.948 54.2295 145.776V147.824C54.2295 148.377 54.6775 148.824 55.2295 148.824C55.7815 148.824 56.2295 148.377 56.2295 147.824V145.776C56.2295 144.948 56.9015 144.276 57.7295 144.276C58.2815 144.276 58.7295 143.829 58.7295 143.276V135.276C58.7295 134.724 58.2815 134.276 57.7295 134.276ZM91.2295 75.8239H87.2295C85.5725 75.8239 84.2295 74.4809 84.2295 72.8239C84.2295 71.1669 85.5725 69.8239 87.2295 69.8239H91.2295C92.8865 69.8239 94.2295 71.1669 94.2295 72.8239C94.2295 74.4809 92.8865 75.8239 91.2295 75.8239ZM93.2295 67.8239H85.2295C83.5725 67.8239 82.2295 69.1669 82.2295 70.8239V74.8239C82.2295 76.4809 83.5725 77.8239 85.2295 77.8239H93.2295C94.8865 77.8239 96.2295 76.4809 96.2295 74.8239V70.8239C96.2295 69.1669 94.8865 67.8239 93.2295 67.8239ZM127.229 60.3239H51.2295C50.6785 60.3239 50.2295 59.8759 50.2295 59.3239C50.2295 58.7719 50.6785 58.3239 51.2295 58.3239H127.229C127.78 58.3239 128.229 58.7719 128.229 59.3239C128.229 59.8759 127.78 60.3239 127.229 60.3239ZM127.229 56.3239H51.2295C49.5755 56.3239 48.2295 57.6699 48.2295 59.3239C48.2295 60.9779 49.5755 62.3239 51.2295 62.3239H127.229C128.883 62.3239 130.229 60.9779 130.229 59.3239C130.229 57.6699 128.883 56.3239 127.229 56.3239ZM91.2295 88.8239H87.2295C85.5725 88.8239 84.2295 87.4809 84.2295 85.8239C84.2295 84.1669 85.5725 82.8239 87.2295 82.8239H91.2295C92.8865 82.8239 94.2295 84.1669 94.2295 85.8239C94.2295 87.4809 92.8865 88.8239 91.2295 88.8239ZM93.2295 80.8239H85.2295C83.5725 80.8239 82.2295 82.1669 82.2295 83.8239V87.8239C82.2295 89.4809 83.5725 90.8239 85.2295 90.8239H93.2295C94.8865 90.8239 96.2295 89.4809 96.2295 87.8239V83.8239C96.2295 82.1669 94.8865 80.8239 93.2295 80.8239ZM93.2295 110.824H85.2295C84.6775 110.824 84.2295 110.376 84.2295 109.824V101.824C84.2295 101.272 84.6775 100.824 85.2295 100.824H93.2295C93.7815 100.824 94.2295 101.272 94.2295 101.824V109.824C94.2295 110.376 93.7815 110.824 93.2295 110.824ZM95.2295 98.8239H83.2295C82.6775 98.8239 82.2295 99.2719 82.2295 99.8239V111.824C82.2295 112.376 82.6775 112.824 83.2295 112.824H95.2295C95.7815 112.824 96.2295 112.376 96.2295 111.824V99.8239C96.2295 99.2719 95.7815 98.8239 95.2295 98.8239ZM88.2295 134.034C87.4015 134.034 86.7295 133.362 86.7295 132.534V129.534C86.7295 128.706 87.4015 128.034 88.2295 128.034C89.0585 128.034 89.7295 128.706 89.7295 129.534V132.534C89.7295 133.362 89.0585 134.034 88.2295 134.034ZM90.7295 126.034C89.9015 126.034 89.2295 125.363 89.2295 124.534V117.824C89.2295 117.271 88.7815 116.824 88.2295 116.824C87.6775 116.824 87.2295 117.271 87.2295 117.824V124.534C87.2295 125.363 86.5585 126.034 85.7295 126.034C85.1775 126.034 84.7295 126.482 84.7295 127.034V135.034C84.7295 135.587 85.1775 136.034 85.7295 136.034C86.5585 136.034 87.2295 136.706 87.2295 137.534V147.824C87.2295 148.377 87.6775 148.824 88.2295 148.824C88.7815 148.824 89.2295 148.377 89.2295 147.824V137.534C89.2295 136.706 89.9015 136.034 90.7295 136.034C91.2815 136.034 91.7295 135.587 91.7295 135.034V127.034C91.7295 126.482 91.2815 126.034 90.7295 126.034ZM108.229 75.8239H104.229C102.572 75.8239 101.229 74.4809 101.229 72.8239C101.229 71.1669 102.572 69.8239 104.229 69.8239H108.229C109.886 69.8239 111.229 71.1669 111.229 72.8239C111.229 74.4809 109.886 75.8239 108.229 75.8239ZM110.229 67.8239H102.229C100.572 67.8239 99.2295 69.1669 99.2295 70.8239V74.8239C99.2295 76.4809 100.572 77.8239 102.229 77.8239H110.229C111.886 77.8239 113.229 76.4809 113.229 74.8239V70.8239C113.229 69.1669 111.886 67.8239 110.229 67.8239ZM108.229 88.8239H104.229C102.572 88.8239 101.229 87.4809 101.229 85.8239C101.229 84.1669 102.572 82.8239 104.229 82.8239H108.229C109.886 82.8239 111.229 84.1669 111.229 85.8239C111.229 87.4809 109.886 88.8239 108.229 88.8239ZM110.229 80.8239H102.229C100.572 80.8239 99.2295 82.1669 99.2295 83.8239V87.8239C99.2295 89.4809 100.572 90.8239 102.229 90.8239H110.229C111.886 90.8239 113.229 89.4809 113.229 87.8239V83.8239C113.229 82.1669 111.886 80.8239 110.229 80.8239ZM110.229 110.824H102.229C101.677 110.824 101.229 110.376 101.229 109.824V101.824C101.229 101.272 101.677 100.824 102.229 100.824H110.229C110.781 100.824 111.229 101.272 111.229 101.824V109.824C111.229 110.376 110.781 110.824 110.229 110.824ZM112.229 98.8239H100.229C99.6775 98.8239 99.2295 99.2719 99.2295 99.8239V111.824C99.2295 112.376 99.6775 112.824 100.229 112.824H112.229C112.781 112.824 113.229 112.376 113.229 111.824V99.8239C113.229 99.2719 112.781 98.8239 112.229 98.8239ZM106.229 129.912C105.401 129.912 104.729 129.241 104.729 128.412V125.412C104.729 124.584 105.401 123.912 106.229 123.912C107.058 123.912 107.729 124.584 107.729 125.412V128.412C107.729 129.241 107.058 129.912 106.229 129.912ZM108.729 121.912C107.901 121.912 107.229 121.241 107.229 120.412V117.824C107.229 117.271 106.781 116.824 106.229 116.824C105.677 116.824 105.229 117.271 105.229 117.824V120.412C105.229 121.241 104.558 121.912 103.729 121.912C103.177 121.912 102.729 122.36 102.729 122.912V130.912C102.729 131.464 103.177 131.912 103.729 131.912C104.558 131.912 105.229 132.584 105.229 133.412V147.824C105.229 148.377 105.677 148.824 106.229 148.824C106.781 148.824 107.229 148.377 107.229 147.824V133.412C107.229 132.584 107.901 131.912 108.729 131.912C109.281 131.912 109.729 131.464 109.729 130.912V122.912C109.729 122.36 109.281 121.912 108.729 121.912ZM125.229 75.8239H121.229C119.572 75.8239 118.229 74.4809 118.229 72.8239C118.229 71.1669 119.572 69.8239 121.229 69.8239H125.229C126.886 69.8239 128.229 71.1669 128.229 72.8239C128.229 74.4809 126.886 75.8239 125.229 75.8239ZM127.229 67.8239H119.229C117.572 67.8239 116.229 69.1669 116.229 70.8239V74.8239C116.229 76.4809 117.572 77.8239 119.229 77.8239H127.229C128.886 77.8239 130.229 76.4809 130.229 74.8239V70.8239C130.229 69.1669 128.886 67.8239 127.229 67.8239Z" fill="#202225"/>
<path fill-rule="evenodd" clip-rule="evenodd" d="M194.581 49.8834V64.7644C194.581 67.2824 192.54 69.3234 190.022 69.3234H152.789C150.271 69.3234 148.23 67.2824 148.23 64.7644V49.8834C148.23 47.3654 150.271 45.3234 152.789 45.3234H190.022C192.54 45.3234 194.581 47.3654 194.581 49.8834ZM147.23 43.3234C146.678 43.3234 146.23 43.7714 146.23 44.3234V70.3234C146.23 70.8764 146.678 71.3234 147.23 71.3234H195.581C196.133 71.3234 196.581 70.8764 196.581 70.3234V44.3234C196.581 43.7714 196.133 43.3234 195.581 43.3234H147.23ZM125.229 88.8239H121.229C119.572 88.8239 118.229 87.4809 118.229 85.8239C118.229 84.1669 119.572 82.8239 121.229 82.8239H125.229C126.886 82.8239 128.229 84.1669 128.229 85.8239C128.229 87.4809 126.886 88.8239 125.229 88.8239ZM127.229 80.8239H119.229C117.572 80.8239 116.229 82.1669 116.229 83.8239V87.8239C116.229 89.4809 117.572 90.8239 119.229 90.8239H127.229C128.886 90.8239 130.229 89.4809 130.229 87.8239V83.8239C130.229 82.1669 128.886 80.8239 127.229 80.8239ZM127.229 110.824H119.229C118.677 110.824 118.229 110.376 118.229 109.824V101.824C118.229 101.272 118.677 100.824 119.229 100.824H127.229C127.781 100.824 128.229 101.272 128.229 101.824V109.824C128.229 110.376 127.781 110.824 127.229 110.824ZM129.229 98.8239H117.229C116.677 98.8239 116.229 99.2719 116.229 99.8239V111.824C116.229 112.376 116.677 112.824 117.229 112.824H129.229C129.781 112.824 130.229 112.376 130.229 111.824V99.8239C130.229 99.2719 129.781 98.8239 129.229 98.8239ZM123.229 133.835C122.401 133.835 121.729 133.163 121.729 132.335V129.335C121.729 128.507 122.401 127.835 123.229 127.835C124.058 127.835 124.729 128.507 124.729 129.335V132.335C124.729 133.163 124.058 133.835 123.229 133.835ZM125.729 125.835C124.901 125.835 124.229 125.164 124.229 124.335V117.824C124.229 117.272 123.781 116.824 123.229 116.824C122.677 116.824 122.229 117.272 122.229 117.824V124.335C122.229 125.164 121.558 125.835 120.729 125.835C120.177 125.835 119.729 126.283 119.729 126.835V134.835C119.729 135.388 120.177 135.835 120.729 135.835C121.558 135.835 122.229 136.507 122.229 137.335V147.824C122.229 148.377 122.677 148.824 123.229 148.824C123.781 148.824 124.229 148.377 124.229 147.824V137.335C124.229 136.507 124.901 135.835 125.729 135.835C126.281 135.835 126.729 135.388 126.729 134.835V126.835C126.729 126.283 126.281 125.835 125.729 125.835ZM192.081 81.8239C190.703 81.8239 189.581 80.7029 189.581 79.3239C189.581 77.9449 190.703 76.8239 192.081 76.8239C193.459 76.8239 194.581 77.9449 194.581 79.3239C194.581 80.7029 193.459 81.8239 192.081 81.8239ZM192.081 74.8239C189.6 74.8239 187.581 76.8429 187.581 79.3239C187.581 81.8049 189.6 83.8239 192.081 83.8239C194.562 83.8239 196.581 81.8049 196.581 79.3239C196.581 76.8429 194.562 74.8239 192.081 74.8239ZM150.729 81.8239C149.351 81.8239 148.229 80.7029 148.229 79.3239C148.229 77.9449 149.351 76.8239 150.729 76.8239C152.107 76.8239 153.229 77.9449 153.229 79.3239C153.229 80.7029 152.107 81.8239 150.729 81.8239ZM150.729 74.8239C148.248 74.8239 146.229 76.8429 146.229 79.3239C146.229 81.8049 148.248 83.8239 150.729 83.8239C153.21 83.8239 155.229 81.8049 155.229 79.3239C155.229 76.8429 153.21 74.8239 150.729 74.8239ZM163.063 81.8239C161.685 81.8239 160.563 80.7029 160.563 79.3239C160.563 77.9449 161.685 76.8239 163.063 76.8239C164.441 76.8239 165.563 77.9449 165.563 79.3239C165.563 80.7029 164.441 81.8239 163.063 81.8239ZM163.063 74.8239C160.582 74.8239 158.563 76.8429 158.563 79.3239C158.563 81.8049 160.582 83.8239 163.063 83.8239C165.544 83.8239 167.563 81.8049 167.563 79.3239C167.563 76.8429 165.544 74.8239 163.063 74.8239ZM175.396 81.8239C174.018 81.8239 172.896 80.7029 172.896 79.3239C172.896 77.9449 174.018 76.8239 175.396 76.8239C176.774 76.8239 177.896 77.9449 177.896 79.3239C177.896 80.7029 176.774 81.8239 175.396 81.8239ZM175.396 74.8239C172.915 74.8239 170.896 76.8429 170.896 79.3239C170.896 81.8049 172.915 83.8239 175.396 83.8239C177.877 83.8239 179.896 81.8049 179.896 79.3239C179.896 76.8429 177.877 74.8239 175.396 74.8239ZM152.727 98.612C158.066 98.612 162.39 103.04 162.22 108.415C162.067 113.252 158.121 117.311 153.29 117.591C149.133 117.832 145.505 115.382 143.987 111.824C143.438 110.536 144.436 109.109 145.836 109.109H150.306C150.858 109.109 151.306 108.662 151.306 108.109C151.306 107.556 150.858 107.109 150.306 107.109H145.841C144.425 107.109 143.442 105.658 144.003 104.358C145.46 100.982 148.822 98.612 152.727 98.612ZM169.229 108.109C169.229 113.346 164.968 117.607 159.731 117.607H159.196C162.229 115.535 164.225 112.051 164.225 108.109C164.225 104.167 162.229 100.684 159.197 98.612H159.731C164.968 98.612 169.229 102.873 169.229 108.109ZM152.727 119.607H159.731C166.071 119.607 171.229 114.449 171.229 108.109C171.229 101.769 166.071 96.612 159.731 96.612H152.727C146.387 96.612 141.229 101.769 141.229 108.109C141.229 114.449 146.387 119.607 152.727 119.607ZM187.248 98.6159C189.681 98.6159 192.113 99.5419 193.964 101.393C195.758 103.187 196.747 105.572 196.747 108.11C196.747 108.775 196.679 109.429 196.546 110.066C196.106 112.171 193.483 112.93 191.963 111.41L189.667 109.114C189.277 108.723 188.644 108.723 188.253 109.114C187.863 109.505 187.863 110.137 188.253 110.528L190.546 112.822C192.092 114.368 191.265 116.99 189.121 117.418C185.935 118.053 182.485 117.05 180.137 114.407C176.883 110.743 177.022 105 180.439 101.488C182.302 99.5729 184.775 98.6159 187.248 98.6159ZM195.378 116.24C197.55 114.068 198.747 111.181 198.747 108.11C198.747 105.038 197.55 102.151 195.378 99.9789C194.861 99.4619 194.302 99.0109 193.718 98.6119H194.252C199.49 98.6119 203.75 102.873 203.75 108.109C203.75 113.346 199.49 117.607 194.252 117.607H193.718C194.302 117.209 194.861 116.758 195.378 116.24ZM187.248 119.602C187.724 119.602 194.252 119.607 194.252 119.607C200.592 119.607 205.75 114.449 205.75 108.109C205.75 101.769 200.592 96.6119 194.252 96.6119H187.248C187.236 96.6119 187.226 96.6189 187.214 96.6189C184.281 96.6279 181.351 97.7469 179.118 99.9789C174.635 104.463 174.635 111.757 179.118 116.24C181.36 118.482 184.304 119.602 187.248 119.602ZM169.229 137.109C169.229 142.346 164.968 146.607 159.731 146.607H159.206C161.413 145.108 163.016 142.91 163.769 140.314C164.625 137.365 164.281 134.258 162.801 131.567C161.915 129.956 160.679 128.617 159.202 127.612H159.731C164.968 127.612 169.229 131.873 169.229 137.109ZM143.605 134.463C144.312 132.026 145.926 130.01 148.149 128.788C149.569 128.007 151.129 127.609 152.706 127.608C152.713 127.608 152.72 127.612 152.727 127.612H152.783C153.649 127.618 154.52 127.74 155.375 127.988C157.811 128.695 159.826 130.308 161.049 132.532C162.271 134.755 162.556 137.32 161.849 139.756C161.142 142.193 159.528 144.209 157.305 145.431C155.082 146.654 152.517 146.939 150.08 146.231C148.57 145.794 147.224 145.006 146.126 143.942C145.453 143.29 145.614 142.164 146.436 141.712L151.088 139.152C151.572 138.886 151.749 138.278 151.482 137.794C151.216 137.31 150.608 137.134 150.124 137.4L145.473 139.96C144.639 140.419 143.606 139.927 143.416 138.994C143.112 137.507 143.171 135.961 143.605 134.463ZM149.522 148.152C150.584 148.461 151.667 148.613 152.743 148.613C153.223 148.613 159.731 148.607 159.731 148.607C166.071 148.607 171.229 143.449 171.229 137.109C171.229 130.769 166.071 125.612 159.731 125.612H152.727C152.726 125.612 152.724 125.613 152.723 125.613C150.807 125.611 148.911 126.088 147.185 127.036C144.494 128.515 142.541 130.955 141.685 133.905C140.829 136.854 141.173 139.961 142.653 142.652C144.133 145.342 146.573 147.296 149.522 148.152ZM193.707 146.607C197.556 143.983 199.588 139.163 198.417 134.378C197.714 131.502 195.972 129.155 193.695 127.612H194.253C199.49 127.612 203.751 131.873 203.751 137.109C203.751 142.346 199.49 146.607 194.253 146.607H193.707ZM178.023 139.366C177.006 135.209 178.909 131.009 182.415 128.934C183.197 128.471 184.207 128.878 184.422 129.761L185.703 134.995C185.814 135.452 186.223 135.757 186.673 135.757C186.751 135.757 186.832 135.749 186.912 135.729C187.448 135.597 187.776 135.056 187.645 134.52C187.645 134.52 186.517 129.774 186.228 128.725C185.938 127.675 187.294 127.612 187.294 127.612C192.075 127.635 196.368 131.297 196.733 136.512C197.017 140.569 194.561 144.447 190.776 145.932C187.936 147.046 184.866 146.772 182.32 145.229C180.152 143.912 178.625 141.83 178.023 139.366ZM194.253 125.612H187.249C187.228 125.612 187.21 125.623 187.188 125.624C186.306 125.628 185.412 125.722 184.517 125.94C178.359 127.447 174.574 133.683 176.081 139.84C177.363 145.086 182.075 148.609 187.249 148.609C187.725 148.609 194.253 148.607 194.253 148.607C200.593 148.607 205.751 143.449 205.751 137.109C205.751 130.769 200.593 125.612 194.253 125.612ZM236.154 114.023C236.154 113.471 235.706 113.023 235.154 113.023C234.602 113.023 234.154 113.471 234.154 114.023C234.154 114.857 233.478 115.533 232.644 115.533C232.092 115.533 231.644 115.981 231.644 116.533C231.644 117.086 232.092 117.533 232.644 117.533C233.478 117.533 234.154 118.21 234.154 119.043C234.154 119.595 234.602 120.043 235.154 120.043C235.706 120.043 236.154 119.595 236.154 119.043C236.154 118.21 236.83 117.533 237.664 117.533C238.217 117.533 238.664 117.086 238.664 116.533C238.664 115.981 238.217 115.533 237.664 115.533C236.83 115.533 236.154 114.857 236.154 114.023ZM122.981 30.799C123.237 30.799 123.493 30.701 123.688 30.506L124.871 29.323C125.262 28.932 125.262 28.299 124.871 27.909C124.481 27.518 123.848 27.518 123.457 27.909L122.274 29.092C121.883 29.483 121.883 30.115 122.274 30.506C122.469 30.701 122.725 30.799 122.981 30.799ZM117.064 36.7155C117.32 36.7155 117.576 36.6175 117.771 36.4225L118.955 35.2395C119.345 34.8495 119.345 34.2155 118.955 33.8255C118.564 33.4345 117.931 33.4345 117.541 33.8255L116.357 35.0085C115.966 35.3985 115.966 36.0315 116.357 36.4225C116.552 36.6175 116.808 36.7155 117.064 36.7155ZM123.457 36.4225C123.652 36.6175 123.908 36.7155 124.164 36.7155C124.42 36.7155 124.676 36.6175 124.871 36.4225C125.262 36.0315 125.262 35.3995 124.871 35.0085L123.688 33.8255C123.297 33.4345 122.665 33.4345 122.274 33.8255C121.883 34.2155 121.883 34.8485 122.274 35.2395L123.457 36.4225ZM117.541 30.506C117.736 30.701 117.992 30.799 118.248 30.799C118.504 30.799 118.76 30.701 118.955 30.506C119.346 30.115 119.346 29.482 118.955 29.092L117.771 27.909C117.381 27.518 116.747 27.518 116.357 27.909C115.967 28.299 115.967 28.933 116.357 29.323L117.541 30.506ZM135.566 19.5192C136.399 19.5192 137.076 20.1962 137.076 21.0292C137.076 21.8612 136.399 22.5392 135.566 22.5392C134.733 22.5392 134.056 21.8612 134.056 21.0292C134.056 20.1962 134.733 19.5192 135.566 19.5192ZM135.566 24.5392C137.501 24.5392 139.076 22.9642 139.076 21.0292C139.076 19.0942 137.501 17.5192 135.566 17.5192C133.63 17.5192 132.056 19.0942 132.056 21.0292C132.056 22.9642 133.63 24.5392 135.566 24.5392Z" fill="#202225"/>
<path fill-rule="evenodd" clip-rule="evenodd" d="M210.355 77.3239C210.355 78.9809 209.012 80.3239 207.355 80.3239C205.815 80.3239 204.57 79.0709 204.579 77.5309L204.58 77.3239V40.3239C204.58 40.3039 204.58 40.2849 204.58 40.2649C204.561 38.6659 205.755 37.3239 207.355 37.3239C209.012 37.3239 210.355 38.6669 210.355 40.3239V77.3239ZM148.004 88.3239H143.229C141.575 88.3239 140.229 86.9779 140.229 85.3239V40.3239C140.229 38.6699 141.575 37.3239 143.229 37.3239H151.004H199.58C201.234 37.3239 202.58 38.6699 202.58 40.3239V85.3239C202.58 86.9779 201.234 88.3239 199.58 88.3239H148.004ZM253.25 157.616H241.075C238.357 157.616 236.143 155.392 236.154 152.675V152.616V129.529C236.154 128.976 235.706 128.529 235.154 128.529C234.602 128.529 234.154 128.976 234.154 129.529V148.616C234.154 151.378 231.916 153.616 229.154 153.616H224.501C221.783 153.616 219.569 151.392 219.58 148.675V148.616V54.6159V54.5569C219.569 51.8399 221.783 49.6159 224.501 49.6159H229.154C231.916 49.6159 234.154 51.8549 234.154 54.6159V108.109C234.154 108.662 234.602 109.109 235.154 109.109C235.706 109.109 236.154 108.662 236.154 108.109V54.6159C236.154 50.7499 233.02 47.6159 229.154 47.6159H214.221C213.19 47.6159 212.355 46.7809 212.355 45.7499V40.3239C212.355 37.5629 210.117 35.3239 207.355 35.3239H199.58H151.004H143.229C140.468 35.3239 138.229 37.5629 138.229 40.3239V48.6159V85.3239C138.229 88.0859 140.468 90.3239 143.229 90.3239H147.004H199.58H207.355C210.117 90.3239 212.355 88.0859 212.355 85.3239V54.5359C212.355 51.3249 217.196 50.9139 217.552 54.1049C217.57 54.2729 217.58 54.4439 217.58 54.6159V152.616C217.58 155.378 215.342 157.616 212.58 157.616H82.8035H47.2295C44.4685 157.616 42.2295 155.378 42.2295 152.616V54.6159C42.2295 51.8549 44.4685 49.6159 47.2295 49.6159H133.75C134.302 49.6159 134.75 49.1689 134.75 48.6159C134.749 48.0629 134.302 47.6159 133.75 47.6159H47.2295C43.3635 47.6159 40.2295 50.7499 40.2295 54.6159V152.616L40.2305 152.675C40.2415 155.392 38.0265 157.616 35.3095 157.616H32.2505C31.6975 157.616 31.2505 158.063 31.2505 158.616C31.2505 159.169 31.6975 159.616 32.2505 159.616H47.2295H82.8035H212.58H229.154H253.25C253.802 159.616 254.25 159.169 254.25 158.616C254.25 158.063 253.802 157.616 253.25 157.616Z" fill="#202225"/>
</svg>
