<svg width="280" height="165" viewBox="0 0 280 165" fill="none" xmlns="http://www.w3.org/2000/svg">
<mask id="mask0" mask-type="alpha" maskUnits="userSpaceOnUse" x="10" y="34" width="260" height="110">
<path d="M10 143.413V34.663H269.682V143.413H10Z" fill="white"/>
</mask>
<g mask="url(#mask0)">
<path opacity="0.3" fill-rule="evenodd" clip-rule="evenodd" d="M42.352 143.413H215.306C245.336 143.413 269.682 119.069 269.682 89.039C269.682 59.009 245.336 34.663 215.306 34.663H130.74C118.578 34.663 108.718 44.523 108.718 56.686C108.718 68.849 98.858 78.708 86.696 78.708H42.352C24.485 78.708 10 93.193 10 111.061C10 128.929 24.484 143.413 42.35 143.413" fill="#4F545C"/>
</g>
<path d="M138 51L133.5 40.5L120.5 34L108 37L101 44.5L98 51V57.5L100 63.5L105 70.5L115 74.5H120V81H114.5L104.5 78L96 71L94.5 68.5L92 62L91 52.5L94.5 41.5L102 32L113 28L126.5 28.5L136.5 34L144 44.5L145.5 49.5L146 53H139.5L138 52V51Z" fill="#697184"/>
<path d="M80.5 62.5L76 60L76.5 47.5L80.5 47L82.5 40L85.5 33.5L84.5 29L89.5 24L93 20L97 22L111 16.5L111.5 12.5L125 12L126 17L132 18L139 22L143 20.5L152.5 29.5L150.5 33.5L153.5 39.5L156 47H160V53L145.5 53.5L144 46L139 36L132 30.5L125 27.5H113L102 32L97 37L90.5 49.5L91.5 60L94 67L96.5 71.5L108 80L119 82L120 97H111L110 92.5L102.5 89.5L97 86.5L94 89.5L83 78.5L86.5 75.5L82.5 69.5L80.5 62.5Z" fill="#818AA1"/>
<rect x="42" y="104" width="79" height="48" fill="#535F71"/>
<path fill-rule="evenodd" clip-rule="evenodd" d="M139.682 145.423L138.682 61.423C138.682 58.597 139.992 56.073 142.036 54.423H128.464C124.604 54.423 121.464 57.563 121.464 61.423V102.463H125.738C128.495 102.463 130.738 104.706 130.738 107.463V149.423C130.738 150.553 130.348 151.585 129.712 152.423H145.039C142.989 150.773 139.679 148.249 139.679 145.423" fill="#343E4C"/>
<path fill-rule="evenodd" clip-rule="evenodd" d="M201.664 146.417C201.664 146.97 201.216 147.417 200.664 147.417H176.664C176.112 147.417 175.664 146.97 175.664 146.417V140.417C175.664 139.864 176.112 139.417 176.664 139.417H200.664C201.216 139.417 201.664 139.864 201.664 140.417V146.417ZM221.641 54.423H147.691C143.831 54.423 140.691 57.563 140.691 61.423V145.423C140.691 149.283 143.831 152.423 147.691 152.423H221.651C225.511 152.423 228.651 149.283 228.651 145.423V61.423C228.651 57.563 225.511 54.423 221.651 54.423H221.641Z" fill="#535F71"/>
<path fill-rule="evenodd" clip-rule="evenodd" d="M214.738 67.17H212.736C205.431 67.17 199.488 73.11 199.488 80.416C199.488 87.721 205.431 93.663 212.736 93.663H214.713C209.467 90.673 206.273 84.708 207.133 78.367C207.797 73.469 210.739 69.44 214.738 67.169" fill="#55689E"/>
<path fill-rule="evenodd" clip-rule="evenodd" d="M224.02 67.29C223.42 67.207 222.823 67.168 222.232 67.168C215.712 67.168 210.014 71.998 209.114 78.638C208.178 85.538 212.771 91.93 219.477 93.358L220.809 83.538C220.879 82.99 221.389 82.608 221.929 82.681C222.469 82.761 222.859 83.261 222.779 83.811L221.439 93.631C224.599 93.831 227.699 92.901 230.239 90.961C233.049 88.821 234.869 85.711 235.339 82.201C235.819 78.701 234.899 75.221 232.749 72.401C230.599 69.591 227.489 67.771 223.989 67.301" fill="#7687B2"/>
<path fill-rule="evenodd" clip-rule="evenodd" d="M167.7 93.663H169.672C168.5 92.993 167.404 92.177 166.424 91.197C163.544 88.317 161.958 84.489 161.958 80.417C161.958 76.343 163.544 72.515 166.424 69.635C167.416 68.642 168.52 67.83 169.684 67.169H167.7C160.394 67.169 154.452 73.109 154.452 80.409C154.452 87.709 160.394 93.649 167.7 93.649" fill="#55689E"/>
<path fill-rule="evenodd" clip-rule="evenodd" d="M186.572 71.05C183.989 68.467 180.597 67.176 177.205 67.176C174.125 67.176 171.055 68.251 168.581 70.378L175.591 77.386C175.981 77.776 175.981 78.409 175.591 78.8C175.401 78.995 175.141 79.093 174.891 79.093C174.641 79.093 174.381 78.995 174.191 78.8L167.181 71.79C165.111 74.19 163.981 77.213 163.981 80.416C163.981 83.956 165.361 87.281 167.861 89.783C170.361 92.28 173.681 93.658 177.211 93.663H177.231C180.771 93.663 184.091 92.283 186.601 89.783C189.101 87.281 190.481 83.955 190.481 80.416C190.481 76.876 189.101 73.551 186.601 71.049" fill="#7687B2"/>
<path fill-rule="evenodd" clip-rule="evenodd" d="M199.488 117.446C199.488 124.751 205.43 130.694 212.735 130.694H214.709C213.529 130.024 212.439 129.207 211.459 128.227C208.579 125.347 206.989 121.519 206.989 117.447C206.989 113.374 208.569 109.545 211.449 106.665C212.439 105.672 213.539 104.86 214.709 104.199H212.719C205.409 104.199 199.469 110.139 199.469 117.439" fill="#55689E"/>
<path fill-rule="evenodd" clip-rule="evenodd" d="M231.608 126.813C234.11 124.311 235.488 120.985 235.488 117.446C235.488 114.244 234.35 111.221 232.281 108.82L225.271 115.83C225.081 116.025 224.821 116.123 224.571 116.123C224.321 116.123 224.061 116.025 223.871 115.83C223.481 115.44 223.481 114.806 223.871 114.416L230.881 107.406C228.411 105.28 225.341 104.206 222.261 104.206C218.871 104.206 215.481 105.496 212.901 108.079C210.401 110.579 209.021 113.899 209.021 117.439C209.021 120.979 210.401 124.299 212.901 126.799C215.411 129.299 218.731 130.679 222.271 130.679C225.811 130.679 229.141 129.299 231.641 126.799" fill="#7687B2"/>
<path fill-rule="evenodd" clip-rule="evenodd" d="M166.424 128.227C163.544 125.347 161.958 121.519 161.958 117.447C161.958 113.373 163.544 109.544 166.424 106.665C167.417 105.671 168.52 104.86 169.686 104.199H167.7C160.395 104.199 154.452 110.139 154.452 117.439C154.452 124.739 160.395 130.689 167.699 130.689H169.669C168.489 130.019 167.399 129.199 166.419 128.219" fill="#55689E"/>
<path fill-rule="evenodd" clip-rule="evenodd" d="M177.205 104.205C173.812 104.205 170.421 105.495 167.838 108.078C165.336 110.58 163.958 113.908 163.958 117.445C163.958 120.985 165.336 124.31 167.838 126.812C170.34 129.314 173.666 130.692 177.205 130.692C180.408 130.692 183.429 129.554 185.83 127.485L178.82 120.475C178.43 120.085 178.43 119.453 178.82 119.062C179.212 118.672 179.845 118.672 180.235 119.062L187.245 126.072C189.313 123.67 190.452 120.648 190.452 117.445C190.452 113.907 189.074 110.58 186.572 108.078C183.99 105.496 180.597 104.205 177.205 104.205V104.205ZM125.737 152.423C127.391 152.423 128.737 151.077 128.737 149.423V107.463C128.737 105.809 127.391 104.463 125.737 104.463H120.503C121.137 105.301 121.528 106.333 121.528 107.463V149.423C121.528 150.553 121.138 151.585 120.503 152.423H125.737V152.423Z" fill="#343E4C"/>
<path fill-rule="evenodd" clip-rule="evenodd" d="M176.702 104C173.309 104 169.918 105.29 167.335 107.873C164.833 110.375 163.455 113.703 163.455 117.24C163.455 120.78 164.833 124.105 167.335 126.607C169.837 129.109 173.163 130.487 176.702 130.487C179.905 130.487 182.926 129.349 185.327 127.28L178.317 120.27C177.927 119.88 177.927 119.248 178.317 118.857C178.709 118.467 179.342 118.467 179.732 118.857L186.742 125.867C188.81 123.465 189.949 120.443 189.949 117.24C189.949 113.702 188.571 110.375 186.069 107.873C183.487 105.291 180.094 104 176.702 104Z" fill="#7687B2"/>
<path fill-rule="evenodd" clip-rule="evenodd" d="M66.582 122.446H74.582C75.132 122.446 75.582 121.998 75.582 121.446V113.446C75.582 112.894 75.132 112.446 74.582 112.446H66.582C66.032 112.446 65.582 112.894 65.582 113.446V121.446C65.582 121.998 66.032 122.446 66.582 122.446ZM100.609 122.446H108.609C109.159 122.446 109.609 121.998 109.609 121.446V113.446C109.609 112.894 109.159 112.446 108.609 112.446H100.609C100.049 112.446 99.609 112.894 99.609 113.446V121.446C99.609 121.998 100.049 122.446 100.609 122.446Z" fill="#99ABD8"/>
<path fill-rule="evenodd" clip-rule="evenodd" d="M83.5959 122.446H91.5959C92.1459 122.446 92.5959 121.998 92.5959 121.446V113.446C92.5959 112.894 92.1459 112.446 91.5959 112.446H83.5959C83.0459 112.446 82.5959 112.894 82.5959 113.446V121.446C82.5959 121.998 83.0459 122.446 83.5959 122.446Z" fill="#55689E"/>
<path fill-rule="evenodd" clip-rule="evenodd" d="M49.568 122.446H57.568C58.118 122.446 58.568 121.998 58.568 121.446V113.446C58.568 112.894 58.118 112.446 57.568 112.446H49.568C49.018 112.446 48.568 112.894 48.568 113.446V121.446C48.568 121.998 49.018 122.446 49.568 122.446Z" fill="#7687B2"/>
<path fill-rule="evenodd" clip-rule="evenodd" d="M53.568 131.857C52.741 131.857 52.068 132.53 52.068 133.357C52.068 134.184 52.741 134.857 53.568 134.857C54.395 134.857 55.068 134.184 55.068 133.357C55.068 132.53 54.395 131.857 53.568 131.857ZM59.568 144.417C60.395 144.417 61.068 143.744 61.068 142.917C61.068 142.09 60.395 141.417 59.568 141.417C58.741 141.417 58.068 142.09 58.068 142.917C58.068 143.744 58.741 144.417 59.568 144.417ZM102.254 131.857C101.427 131.857 100.754 132.53 100.754 133.357C100.754 134.184 101.427 134.857 102.254 134.857C103.081 134.857 103.754 134.184 103.754 133.357C103.754 132.53 103.081 131.857 102.254 131.857ZM89.761 141.417C88.941 141.417 88.261 142.09 88.261 142.917C88.261 143.744 88.941 144.417 89.761 144.417C90.591 144.417 91.261 143.744 91.261 142.917C91.261 142.09 90.591 141.417 89.761 141.417Z" fill="#72767D"/>
<path fill-rule="evenodd" clip-rule="evenodd" d="M167.7 67.17H169.685C168.52 67.83 167.415 68.642 166.425 69.635C163.545 72.515 161.958 76.343 161.958 80.415C161.958 84.489 163.544 88.317 166.424 91.197C167.404 92.177 168.5 92.994 169.672 93.663H167.7C160.394 93.663 154.452 87.721 154.452 80.416C154.452 73.111 160.394 67.17 167.7 67.17ZM177.205 67.176C180.597 67.176 183.99 68.466 186.572 71.049C189.824 74.299 191.177 78.939 190.074 83.639C189.782 84.879 189.294 86.069 188.631 87.159C186.101 91.299 181.841 93.659 177.211 93.659H177.191C175.081 93.659 172.971 93.219 171.121 92.209C166.571 89.739 163.971 85.269 163.971 80.409C163.971 78.069 164.581 75.819 165.711 73.849C166.361 72.719 167.931 72.529 168.861 73.459L174.201 78.789C174.401 78.979 174.651 79.079 174.911 79.079C175.171 79.079 175.421 78.979 175.621 78.779C176.011 78.389 176.011 77.749 175.621 77.359L170.291 72.029C169.371 71.099 169.561 69.529 170.691 68.879C172.721 67.719 174.981 67.139 177.241 67.139L177.205 67.176ZM167.731 95.629H177.241C181.321 95.629 185.141 94.039 188.021 91.159C190.901 88.279 192.491 84.449 192.491 80.379C192.491 76.299 190.911 72.479 188.031 69.599C184.551 66.109 179.791 64.689 175.241 65.289C175.091 65.199 167.741 65.129 167.741 65.129C159.341 65.129 152.501 71.969 152.501 80.369C152.501 88.779 159.341 95.619 167.751 95.619L167.731 95.629ZM92.64 66.49C92.974 67.21 93.333 67.914 93.724 68.598C93.994 69.068 94.604 69.206 95.071 68.932L95.091 68.922C95.561 68.645 95.721 68.048 95.441 67.572C95.091 66.948 94.761 66.305 94.461 65.65C94.261 65.21 93.771 64.986 93.301 65.115L93.261 65.128C92.681 65.288 92.401 65.942 92.651 66.491L92.64 66.49ZM145.161 46.081C141.251 33.461 129.291 25.221 115.901 26.261C102.571 27.291 91.681 37.841 90.101 51.111C89.651 54.941 90.001 58.621 90.971 62.041C91.121 62.561 91.671 62.861 92.191 62.721H92.211C92.751 62.581 93.051 62.021 92.901 61.491C92.021 58.351 91.691 54.981 92.101 51.471C93.581 38.611 104.481 28.571 117.421 28.201C129.321 27.861 139.777 35.381 143.281 46.701C143.441 47.231 144.001 47.521 144.531 47.361C145.058 47.201 145.351 46.641 145.191 46.111" fill="#1F2225"/>
<mask id="mask1" mask-type="alpha" maskUnits="userSpaceOnUse" x="39" y="11" width="199" height="144">
<path d="M39.577 154.423H237.49V11.001H39.578L39.577 154.423Z" fill="white"/>
</mask>
<g mask="url(#mask1)">
<path fill-rule="evenodd" clip-rule="evenodd" d="M233.612 124.281C230.462 129.351 224.704 131.708 218.89 130.284C217.704 129.994 216.562 129.524 215.52 128.894C211.36 126.364 208.994 122.094 208.994 117.454C208.994 113.924 210.372 110.594 212.874 108.094C215.457 105.514 218.849 104.224 222.241 104.224C224.511 104.224 226.771 104.804 228.791 105.964C229.931 106.614 230.121 108.184 229.191 109.114L223.871 114.444C223.481 114.834 223.481 115.464 223.871 115.864C224.071 116.064 224.321 116.154 224.581 116.154C224.841 116.154 225.091 116.064 225.291 115.864L230.631 110.534C231.551 109.614 233.121 109.794 233.761 110.914C235.451 113.844 235.981 117.364 235.081 120.914C234.781 122.114 234.291 123.274 233.641 124.324L233.612 124.281ZM214.722 104.199C213.556 104.859 212.452 105.672 211.46 106.665C208.58 109.545 206.994 113.375 206.994 117.445C206.994 121.519 208.58 125.347 211.46 128.227C212.44 129.207 213.537 130.025 214.71 130.694H212.736C205.431 130.694 199.488 124.754 199.488 117.454C199.488 110.154 205.431 104.214 212.736 104.214H214.722V104.199ZM228.642 143.423C228.642 147.288 225.507 150.423 221.642 150.423H147.682C143.815 150.423 140.682 147.288 140.682 143.423V61.423C140.682 57.557 143.815 54.423 147.682 54.423H221.642C225.507 54.423 228.642 57.557 228.642 61.423V62.49C228.642 64.343 226.969 65.8 225.15 65.448C224.865 65.394 224.58 65.346 224.29 65.308C222.907 65.12 221.547 65.141 220.226 65.318C220.078 65.232 212.736 65.17 212.736 65.17C204.073 65.17 197.076 72.43 197.508 81.185C197.912 89.375 204.978 95.665 213.178 95.665H222.188L222.274 95.667C223.57 95.667 224.848 95.497 226.084 95.173C227.374 94.833 228.641 95.76 228.641 97.091V100.947C228.641 102.211 227.491 103.161 226.251 102.907C223.401 102.317 219.881 102.199 219.741 102.199H213.191C204.991 102.199 197.931 108.489 197.521 116.679C197.091 125.434 204.091 132.694 212.751 132.694H222.261C223.231 132.694 224.181 132.604 225.101 132.434C226.961 132.084 228.661 133.584 228.661 135.474V143.423H228.642ZM139.65 147.478C140.335 148.826 139.404 150.422 137.89 150.422H132.66C131.42 150.422 130.526 149.312 130.695 148.082C130.725 147.862 130.74 147.642 130.74 147.422V105.463C130.74 102.7 128.5 100.463 125.74 100.463H123.466C122.362 100.463 121.466 99.567 121.466 98.463V61.423C121.466 57.557 124.6 54.423 128.466 54.423H137.893C139.406 54.423 140.338 56.019 139.653 57.367C139.033 58.587 138.683 59.965 138.683 61.424V143.424C138.683 144.884 139.033 146.264 139.653 147.484L139.65 147.478ZM128.738 149.423C128.738 151.08 127.394 152.423 125.738 152.423H124.328C122.715 152.423 121.518 151.07 121.528 149.457V107.43C121.518 105.818 122.715 104.465 124.328 104.465H125.738C127.394 104.465 128.738 105.808 128.738 107.465V149.423ZM119.528 149.423C119.528 151.078 118.183 152.423 116.528 152.423H44.5801C42.9251 152.423 41.5801 151.078 41.5801 149.423V107.463C41.5801 105.809 42.9251 104.463 44.5801 104.463H116.53C118.185 104.463 119.53 105.809 119.53 107.463V149.423H119.528ZM131.825 52.423H128.465C123.493 52.423 119.465 56.453 119.465 61.423V73.303L118.15 73.369C106.99 73.369 98.0521 63.669 99.3281 52.255C100.318 43.407 107.588 36.331 116.458 35.557C119.686 35.275 122.766 35.809 125.516 36.974C126.649 37.454 127.726 38.044 128.734 38.724C129.742 39.404 130.681 40.184 131.538 41.044C133.183 42.694 134.526 44.634 135.478 46.794C136.655 49.444 134.73 52.434 131.826 52.434L131.825 52.423ZM114.32 95.848C112.754 95.848 111.486 94.58 111.486 93.015V92.273C111.486 92.147 111.464 92.026 111.423 91.913C111.363 91.746 111.253 91.61 111.121 91.493C110.991 91.371 110.831 91.273 110.641 91.233C105.931 90.277 101.491 88.435 97.4511 85.76C97.3511 85.695 97.2511 85.652 97.1411 85.623C97.1111 85.613 97.0711 85.613 97.0411 85.608C96.9911 85.598 96.9311 85.584 96.8811 85.584C96.8611 85.584 96.8511 85.594 96.8311 85.594C96.7411 85.604 96.6611 85.624 96.5811 85.644C96.5411 85.654 96.5011 85.664 96.4611 85.684C96.3411 85.744 96.2311 85.814 96.1311 85.904L95.4811 86.564C94.4511 87.604 92.7611 87.604 91.7211 86.564L86.0611 80.904C85.0211 79.864 85.0211 78.184 86.0611 77.144L86.7211 76.494C86.9011 76.314 87.0011 76.094 87.0311 75.854C87.0611 75.624 87.0011 75.374 86.8611 75.164C86.5311 74.664 86.2111 74.154 85.9011 73.634C85.2811 72.604 84.7211 71.544 84.2111 70.464C83.9511 69.924 83.7111 69.374 83.4811 68.824C83.0271 67.724 82.6211 66.604 82.2711 65.454C81.9211 64.314 81.6311 63.154 81.3911 61.974C81.3411 61.724 81.2081 61.514 81.0211 61.364C80.8411 61.214 80.6011 61.124 80.3511 61.124C78.3791 61.124 76.7781 59.524 76.7781 57.554V51.374C76.7781 49.394 78.3781 47.794 80.3531 47.794C80.6031 47.794 80.8391 47.704 81.0231 47.554C81.2071 47.404 81.3431 47.194 81.3931 46.944C81.6331 45.764 81.9231 44.604 82.2731 43.464C82.6231 42.324 83.0231 41.204 83.4831 40.094C83.7131 39.544 83.9531 39.004 84.2091 38.464C84.9791 36.844 85.8591 35.274 86.8691 33.764C86.9391 33.664 86.9861 33.544 87.0151 33.434C87.0451 33.314 87.0551 33.194 87.0451 33.078C87.0251 32.842 86.9231 32.614 86.7451 32.438L86.3751 32.068C85.1751 30.868 85.1751 28.932 86.3751 27.738L91.4651 22.643C92.6621 21.448 94.6021 21.448 95.7951 22.643L96.1651 23.013C96.2631 23.11 96.3751 23.18 96.4951 23.233C96.5351 23.25 96.5751 23.253 96.6151 23.266C96.6991 23.29 96.7831 23.311 96.8691 23.316C96.8851 23.316 96.8991 23.326 96.9191 23.326C96.9721 23.326 97.0291 23.309 97.0821 23.3C97.1181 23.3 97.1521 23.3 97.1881 23.29C97.2981 23.26 97.4041 23.22 97.5031 23.15C99.0191 22.148 100.591 21.26 102.213 20.496C104.913 19.22 107.753 18.276 110.703 17.676C111.073 17.603 111.368 17.34 111.493 17C111.533 16.886 111.553 16.764 111.553 16.64C111.553 14.66 113.153 13.06 115.123 13.06H121.3C123.27 13.06 124.873 14.66 124.873 16.64C124.873 16.85 124.943 17.038 125.047 17.2C125.197 17.44 125.427 17.62 125.717 17.68C128.077 18.16 130.365 18.86 132.567 19.77C133.397 20.12 134.207 20.5 135.013 20.9C136.347 21.57 137.653 22.32 138.913 23.15C139.013 23.22 139.123 23.26 139.228 23.29C139.266 23.3 139.298 23.3 139.338 23.31C139.395 23.32 139.448 23.33 139.505 23.33C139.525 23.33 139.535 23.32 139.555 23.32C139.645 23.32 139.725 23.3 139.81 23.27C139.85 23.26 139.89 23.26 139.93 23.24C140.05 23.19 140.16 23.12 140.26 23.026C141.66 21.626 143.93 21.626 145.33 23.026L149.68 27.376C151.08 28.776 151.08 31.046 149.68 32.446C149.505 32.626 149.4 32.849 149.38 33.086C149.366 33.206 149.374 33.326 149.4 33.442C149.43 33.562 149.48 33.672 149.55 33.777C150.22 34.787 150.838 35.817 151.4 36.877C151.68 37.407 151.95 37.94 152.208 38.48C152.968 40.1 153.618 41.77 154.138 43.482C154.488 44.622 154.78 45.782 155.018 46.962C155.095 47.332 155.358 47.622 155.698 47.747C155.812 47.787 155.933 47.813 156.058 47.813H157.304C158.591 47.813 159.634 48.853 159.634 50.143C159.634 51.429 158.591 52.473 157.304 52.473H143.184C140.964 52.473 138.984 51.023 138.391 48.883C135.901 39.883 127.541 33.303 117.711 33.533C106.901 33.793 97.8811 42.523 97.3011 53.323C96.6401 65.397 106.27 75.423 118.2 75.423L119.515 75.358V80.708C119.081 80.728 118.643 80.738 118.202 80.738C109.812 80.738 102.332 76.778 97.5221 70.635C97.2121 70.245 96.6821 70.125 96.2521 70.368L96.2321 70.378C95.7121 70.678 95.5561 71.368 95.9241 71.838C101.101 78.468 109.158 82.738 118.2 82.738C118.64 82.738 119.08 82.728 119.515 82.708V93.023C119.515 94.59 118.245 95.858 116.683 95.858H114.373L114.32 95.848ZM214.713 93.665H212.736C205.431 93.665 199.488 87.723 199.488 80.419C199.488 73.114 205.431 67.172 212.736 67.172H214.738C210.738 69.442 207.798 73.472 207.133 78.362C206.273 84.702 209.467 90.662 214.713 93.652V93.665ZM232.783 72.395C234.925 75.211 235.843 78.692 235.368 82.198C234.893 85.705 233.08 88.818 230.265 90.96C228.403 92.377 226.25 93.253 223.99 93.546C222.696 93.716 221.602 92.579 221.777 91.286L222.791 83.81C222.871 83.263 222.491 82.76 221.941 82.684C221.401 82.614 220.891 82.994 220.821 83.544L219.811 91.024C219.641 92.304 218.301 93.124 217.111 92.624C211.741 90.354 208.321 84.704 209.141 78.654C210.041 72.024 215.741 67.194 222.261 67.194C222.851 67.194 223.451 67.234 224.051 67.314C227.561 67.794 230.671 69.604 232.811 72.414L232.783 72.395ZM236.053 110.901C234.71 108.216 232.82 106.161 230.641 104.721V93.133C230.931 92.947 231.211 92.757 231.481 92.55C234.721 90.083 236.811 86.502 237.361 82.466C237.911 78.429 236.851 74.423 234.391 71.181C233.341 69.796 232.071 68.636 230.661 67.703V61.423C230.661 56.453 226.631 52.423 221.661 52.423H164.481C162.881 52.423 161.591 51.128 161.591 49.53V47.76C161.591 46.656 160.701 45.76 159.591 45.76H156.781C155.791 41.32 154.051 37.12 151.601 33.257L153.601 31.26C154.381 30.48 154.381 29.212 153.601 28.43L144.171 19.007C143.801 18.632 143.291 18.421 142.761 18.421C142.231 18.421 141.721 18.631 141.351 19.007L139.351 21.004C135.491 18.554 131.291 16.814 126.851 15.824V13.003C126.851 11.898 125.958 11.003 124.851 11.003H111.48C110.377 11.003 109.48 11.898 109.48 13.003V15.818C105.04 16.808 100.84 18.552 96.9801 21.006L94.9821 19.013C94.6091 18.633 94.1021 18.423 93.5691 18.423C93.0391 18.423 92.5291 18.633 92.1491 19.008L82.7291 28.433C81.9491 29.213 81.9491 30.473 82.7291 31.263L84.7191 33.253C82.2691 37.115 80.5191 41.313 79.5291 45.753H76.7191C75.6091 45.753 74.7191 46.65 74.7191 47.753V61.083C74.7191 62.188 75.6091 63.083 76.7191 63.083H79.5291C80.5191 67.523 82.2591 71.723 84.7191 75.588L82.7291 77.583C81.9391 78.363 81.9391 79.631 82.7291 80.413L92.1491 89.837C92.5391 90.227 93.0491 90.423 93.5591 90.423C94.0691 90.423 94.5791 90.23 94.9691 89.839L96.9591 87.842C100.819 90.292 105.019 92.032 109.459 93.032V95.842C109.459 96.942 110.359 97.842 111.459 97.842H117.129C118.409 97.842 119.439 98.872 119.439 100.152C119.439 101.422 118.409 102.462 117.129 102.462H44.5801C41.8201 102.462 39.5801 104.702 39.5801 107.462V149.423C39.5801 152.183 41.8201 154.423 44.5801 154.423H221.64C226.613 154.423 230.64 150.393 230.64 145.423V130.173C231.49 129.611 232.288 128.963 233.024 128.227C236.968 124.282 238.486 118.557 236.824 112.863C236.627 112.187 236.368 111.528 236.054 110.899L236.053 110.901Z" fill="#1F2225"/>
</g>
<path fill-rule="evenodd" clip-rule="evenodd" d="M167.7 130.694C160.394 130.694 154.452 124.751 154.452 117.446C154.452 110.141 160.394 104.2 167.7 104.2H169.685C168.52 104.86 167.415 105.672 166.425 106.665C163.545 109.545 161.958 113.375 161.958 117.445C161.958 121.519 163.544 125.347 166.424 128.227C167.404 129.207 168.501 130.025 169.674 130.694H167.7V130.694ZM177.205 104.206C180.597 104.206 183.99 105.496 186.572 108.079C189.074 110.579 190.452 113.899 190.452 117.439C190.452 119.779 189.844 122.019 188.71 123.999C188.06 125.129 186.492 125.309 185.57 124.389L180.235 119.049C179.845 118.659 179.212 118.659 178.821 119.049C178.431 119.439 178.431 120.069 178.821 120.459L184.161 125.789C185.091 126.709 184.901 128.279 183.771 128.929C181.801 130.059 179.551 130.669 177.211 130.669C172.591 130.669 168.331 128.319 165.791 124.179C165.131 123.089 164.641 121.899 164.351 120.659C163.241 115.959 164.601 111.309 167.851 108.049C170.431 105.469 173.831 104.179 177.221 104.179L177.205 104.206ZM187.985 128.226C190.865 125.346 192.452 121.519 192.452 117.446C192.452 113.374 190.866 109.546 187.986 106.666C184.503 103.181 179.742 101.756 175.199 102.354C175.049 102.264 167.699 102.199 167.699 102.199C159.289 102.199 152.449 109.039 152.449 117.439C152.449 125.849 159.289 132.689 167.689 132.689H177.189C181.259 132.689 185.089 131.099 187.969 128.219L187.985 128.226ZM197.665 145.416H179.665C178.56 145.416 177.665 144.521 177.665 143.416C177.665 142.312 178.56 141.416 179.665 141.416H197.665C198.768 141.416 199.665 142.312 199.665 143.416C199.665 144.521 198.768 145.416 197.665 145.416ZM200.665 139.416H176.665C176.112 139.416 175.665 139.864 175.665 140.416V146.416C175.665 146.97 176.112 147.416 176.665 147.416H200.665C201.215 147.416 201.665 146.97 201.665 146.416V140.416C201.665 139.864 201.215 139.416 200.665 139.416ZM48.568 113.446C48.568 112.894 49.018 112.446 49.568 112.446H57.568C58.118 112.446 58.568 112.894 58.568 113.446V121.446C58.568 121.998 58.118 122.446 57.568 122.446H49.568C49.018 122.446 48.568 121.998 48.568 121.446V113.446ZM49.568 125.446H57.568C59.222 125.446 60.568 124.101 60.568 122.446V113.446C60.568 111.792 59.222 110.446 57.568 110.446H49.568C47.914 110.446 46.568 111.792 46.568 113.446V122.446C46.568 124.101 47.914 125.446 49.568 125.446ZM75.582 121.446C75.582 121.998 75.132 122.446 74.582 122.446H66.582C66.032 122.446 65.582 121.998 65.582 121.446V113.446C65.582 112.894 66.032 112.446 66.582 112.446H74.582C75.132 112.446 75.582 112.894 75.582 113.446V121.446ZM74.582 110.446H66.582C64.928 110.446 63.582 111.792 63.582 113.446V122.446C63.582 124.101 64.928 125.446 66.582 125.446H74.582C76.236 125.446 77.582 124.101 77.582 122.446V113.446C77.582 111.792 76.236 110.446 74.582 110.446ZM82.596 113.446C82.596 112.894 83.046 112.446 83.596 112.446H91.596C92.146 112.446 92.596 112.894 92.596 113.446V121.446C92.596 121.998 92.146 122.446 91.596 122.446H83.596C83.046 122.446 82.596 121.998 82.596 121.446V113.446ZM83.596 125.446H91.596C93.25 125.446 94.596 124.101 94.596 122.446V113.446C94.596 111.792 93.25 110.446 91.596 110.446H83.596C81.942 110.446 80.596 111.792 80.596 113.446V122.446C80.596 124.101 81.942 125.446 83.596 125.446ZM109.609 121.446C109.609 121.998 109.159 122.446 108.609 122.446H100.609C100.049 122.446 99.609 121.998 99.609 121.446V113.446C99.609 112.894 100.049 112.446 100.609 112.446H108.609C109.159 112.446 109.609 112.894 109.609 113.446V121.446ZM108.609 110.446H100.609C98.949 110.446 97.609 111.792 97.609 113.446V122.446C97.609 124.101 98.949 125.446 100.609 125.446H108.609C110.259 125.446 111.609 124.101 111.609 122.446V113.446C111.609 111.792 110.259 110.446 108.609 110.446ZM53.559 134.856C52.729 134.856 52.059 134.184 52.059 133.356C52.059 132.53 52.729 131.856 53.559 131.856C54.389 131.856 55.059 132.53 55.059 133.356C55.059 134.184 54.379 134.856 53.559 134.856ZM76.549 132.356H57.57C57.198 132.356 56.853 132.151 56.69 131.816C56.12 130.659 54.94 129.856 53.565 129.856C52.19 129.856 51.009 130.659 50.44 131.816C50.278 132.151 49.93 132.356 49.56 132.356H48.09C47.54 132.356 47.09 132.804 47.09 133.356C47.09 133.91 47.54 134.356 48.09 134.356H49.563C49.935 134.356 50.28 134.562 50.443 134.896C51.013 136.054 52.193 136.856 53.569 136.856C54.939 136.856 56.119 136.054 56.689 134.896C56.849 134.562 57.199 134.356 57.569 134.356H76.559C77.109 134.356 77.559 133.91 77.559 133.356C77.559 132.804 77.109 132.356 76.559 132.356H76.549ZM59.559 144.416C58.729 144.416 58.059 143.744 58.059 142.916C58.059 142.09 58.729 141.416 59.559 141.416C60.389 141.416 61.059 142.09 61.059 142.916C61.059 143.744 60.379 144.416 59.559 144.416ZM76.549 141.916H64.54C63.642 141.916 62.848 141.444 62.292 140.742C61.654 139.936 60.674 139.417 59.568 139.417C58.462 139.417 57.482 139.937 56.844 140.742C56.288 141.444 55.494 141.917 54.597 141.917H48.09C47.54 141.917 47.09 142.364 47.09 142.917C47.09 143.47 47.54 143.917 48.09 143.917H54.597C55.494 143.917 56.287 144.389 56.844 145.092C57.482 145.898 58.462 146.417 59.568 146.417C60.674 146.417 61.654 145.897 62.292 145.092C62.848 144.389 63.642 143.917 64.539 143.917H76.559C77.109 143.917 77.559 143.47 77.559 142.917C77.559 142.364 77.109 141.917 76.559 141.917L76.549 141.916ZM102.249 134.857C101.419 134.857 100.749 134.184 100.749 133.357C100.749 132.53 101.419 131.857 102.249 131.857C103.069 131.857 103.749 132.53 103.749 133.357C103.749 134.184 103.069 134.857 102.249 134.857ZM110.579 132.357H108.699C107.219 132.357 105.729 131.891 104.669 130.855C104.039 130.238 103.179 129.857 102.239 129.857C101.289 129.857 100.429 130.237 99.809 130.855C98.749 131.891 97.259 132.357 95.779 132.357H82.12C81.568 132.357 81.12 132.804 81.12 133.357C81.12 133.91 81.568 134.357 82.12 134.357H95.8C97.28 134.357 98.77 134.822 99.824 135.859C100.45 136.469 101.306 136.849 102.254 136.849C103.202 136.849 104.058 136.469 104.684 135.849C105.738 134.809 107.229 134.339 108.707 134.339H110.592C111.144 134.339 111.592 133.889 111.592 133.339C111.592 132.779 111.144 132.339 110.592 132.339L110.579 132.357ZM89.762 144.399C88.934 144.399 88.262 143.719 88.262 142.899C88.262 142.079 88.934 141.399 89.762 141.399C90.588 141.399 91.262 142.069 91.262 142.899C91.262 143.729 90.588 144.399 89.762 144.399ZM110.592 141.899H94.347C93.692 141.899 93.055 141.589 92.707 141.039C92.09 140.049 91.005 139.399 89.761 139.399C88.521 139.399 87.441 140.049 86.821 141.039C86.471 141.589 85.841 141.899 85.181 141.899H82.121C81.571 141.899 81.121 142.339 81.121 142.899C81.121 143.449 81.571 143.899 82.121 143.899H85.181C85.841 143.899 86.471 144.199 86.821 144.759C87.441 145.739 88.521 146.399 89.771 146.399C91.021 146.399 92.101 145.739 92.721 144.759C93.071 144.199 93.711 143.899 94.361 143.899H110.601C111.151 143.899 111.601 143.449 111.601 142.899C111.601 142.339 111.151 141.899 110.601 141.899H110.592ZM193.461 27.149C194.301 27.149 194.971 27.819 194.971 28.659C194.971 29.209 195.421 29.659 195.971 29.659C196.521 29.659 196.971 29.209 196.971 28.659C196.971 27.819 197.651 27.149 198.481 27.149C199.031 27.149 199.481 26.699 199.481 26.149C199.481 25.589 199.031 25.149 198.481 25.149C197.651 25.149 196.971 24.469 196.971 23.639C196.971 23.079 196.521 22.639 195.971 22.639C195.421 22.639 194.971 23.079 194.971 23.639C194.971 24.469 194.301 25.149 193.461 25.149C192.911 25.149 192.461 25.589 192.461 26.149C192.461 26.699 192.911 27.149 193.461 27.149ZM48.94 61.44C49.196 61.44 49.452 61.345 49.647 61.15L50.83 59.967C51.22 59.577 51.22 58.943 50.83 58.553C50.44 58.163 49.807 58.163 49.416 58.553L48.236 59.736C47.846 60.126 47.846 60.759 48.236 61.15C48.436 61.346 48.686 61.444 48.946 61.444L48.94 61.44ZM43.036 67.36C43.293 67.36 43.546 67.262 43.744 67.067L44.929 65.887C45.319 65.497 45.319 64.863 44.929 64.473C44.539 64.083 43.899 64.083 43.509 64.473L42.319 65.656C41.929 66.046 41.929 66.676 42.319 67.068C42.509 67.264 42.769 67.362 43.029 67.362L43.036 67.36ZM49.419 67.069C49.609 67.259 49.869 67.359 50.129 67.359C50.379 67.359 50.639 67.259 50.839 67.059C51.229 66.669 51.229 66.029 50.839 65.639L49.649 64.459C49.259 64.069 48.619 64.069 48.229 64.459C47.839 64.849 47.839 65.479 48.229 65.869L49.409 67.049L49.419 67.069ZM43.499 61.149C43.689 61.339 43.949 61.439 44.209 61.439C44.459 61.439 44.719 61.339 44.909 61.149C45.299 60.759 45.299 60.119 44.909 59.729L43.719 58.539C43.329 58.149 42.689 58.149 42.299 58.539C41.909 58.929 41.909 59.559 42.299 59.949L43.479 61.139L43.499 61.149ZM65.579 84.819C66.409 84.819 67.089 85.489 67.089 86.329C67.089 87.159 66.409 87.839 65.579 87.839C64.739 87.839 64.069 87.159 64.069 86.329C64.069 85.489 64.739 84.819 65.579 84.819ZM65.579 89.839C67.509 89.839 69.089 88.259 69.089 86.329C69.089 84.389 67.509 82.819 65.579 82.819C63.639 82.819 62.069 84.389 62.069 86.329C62.069 88.259 63.639 89.839 65.579 89.839Z" fill="#1F2225"/>
</svg>
