<svg width="438" height="270" viewBox="0 0 438 270" fill="none" xmlns="http://www.w3.org/2000/svg">
<g clip-path="url(#clip0)">
<mask id="mask0" mask-type="alpha" maskUnits="userSpaceOnUse" x="0" y="40" width="438" height="229">
<path d="M0 268.297V40.213H438V268.297H0Z" fill="white"/>
</mask>
<g mask="url(#mask0)">
<path fill-rule="evenodd" clip-rule="evenodd" d="M47.3298 40.2126H394.934C418.719 40.2126 438 59.4936 438 83.2786C438 107.064 418.719 126.345 394.934 126.345H342.167C321.823 126.345 305.332 142.837 305.332 163.181C305.332 183.524 321.823 200.016 342.167 200.016H352.643C371.498 200.016 386.784 215.301 386.784 234.156C386.784 253.012 371.498 268.297 352.643 268.297H168.087C140.473 268.297 118.087 245.912 118.087 218.297V184.876C118.087 157.262 95.7018 134.876 68.0868 134.876H47.3298C21.1898 134.876 -0.000198364 113.686 -0.000198364 87.5456V87.5426C-0.000198364 61.4026 21.1898 40.2126 47.3298 40.2126Z" fill="#4F545C" fill-opacity="0.3"/>
</g>
<path fill-rule="evenodd" clip-rule="evenodd" d="M368.306 109.056C365.819 109.056 363.796 107.033 363.796 104.546C363.796 102.059 365.819 100.036 368.306 100.036C370.793 100.036 372.816 102.059 372.816 104.546C372.816 107.033 370.793 109.056 368.306 109.056ZM373.186 96.0933H363.425L358.545 104.546L363.425 112.999H373.186L378.066 104.546L373.186 96.0933ZM368.385 78.8342C369.59 78.8342 370.57 77.8542 370.57 76.6492C370.57 75.4442 369.59 74.4642 368.385 74.4642C367.18 74.4642 366.201 75.4442 366.201 76.6492C366.201 77.8542 367.18 78.8342 368.385 78.8342Z" fill="#72767D"/>
<path fill-rule="evenodd" clip-rule="evenodd" d="M287.021 168.165V37.3712C287.021 32.4092 282.983 28.3712 278.021 28.3712H245.969H100.902C95.9392 28.3712 91.9022 32.4092 91.9022 37.3712V47.0822C91.9022 47.6342 91.4542 48.0822 90.9022 48.0822V56.4152C91.4542 56.4152 91.9022 56.8622 91.9022 57.4152V73.4632C91.9022 74.0162 91.4542 74.4632 90.9022 74.4632V83.2702C91.4542 83.2702 91.9022 83.7182 91.9022 84.2702V193.555C94.8162 191.898 98.1442 190.89 101.691 190.735V189.582C101.691 189.148 101.78 188.737 101.921 188.352V171.604V149.168V137.95V51.4102V48.1712C101.921 42.7782 106.309 38.3912 111.702 38.3912H267.221C269.907 38.3912 272.343 39.4802 274.112 41.2392C274.12 41.2462 274.129 41.2482 274.137 41.2552C274.144 41.2632 274.146 41.2722 274.153 41.2802C275.912 43.0492 277.001 45.4852 277.001 48.1712V203.69C277.001 209.083 272.614 213.471 267.221 213.471H263.229C263.212 213.472 263.198 213.48 263.181 213.48H251.161H183.051H171.031C171.014 213.48 171 213.472 170.983 213.471H168.96C169.11 213.606 169.26 213.743 169.398 213.893C171.687 216.376 171.433 219.822 171.421 219.968C171.378 220.491 170.94 220.886 170.425 220.886C170.398 220.886 170.371 220.885 170.343 220.883C169.792 220.838 169.382 220.355 169.428 219.805C169.429 219.781 169.612 217.064 167.916 215.236C166.835 214.071 165.188 213.48 163.019 213.48C162.959 213.48 162.907 213.472 162.849 213.471H149.317C149.345 213.774 149.364 214.081 149.364 214.392V214.943C149.364 218.54 147.472 221.696 144.636 223.49H245.969H265.269H278.021C282.983 223.49 287.021 219.453 287.021 214.49V186.978C287.021 186.426 287.469 185.978 288.021 185.978V169.165C287.469 169.165 287.021 168.717 287.021 168.165Z" fill="#AABFF2"/>
<path fill-rule="evenodd" clip-rule="evenodd" d="M130.967 185.307C134.392 185.307 137.178 182.52 137.178 179.096V172.604H124.755V179.096C124.755 182.52 127.542 185.307 130.967 185.307ZM170.032 204.667H168.628C168.076 204.667 167.628 204.219 167.628 203.667V200.825C166.947 200.968 166.261 201.048 165.579 201.048C163.557 201.048 161.571 200.423 159.844 199.205C158.968 198.587 158.228 197.845 157.609 197.024V205.658C157.619 205.85 157.949 211.365 162.881 211.471H170.032V204.667ZM245.528 183.634C245.528 183.082 245.976 182.634 246.528 182.634H250.963V122.504L249.406 124.061C249.016 124.451 248.383 124.451 247.992 124.061L245.466 121.535C241.86 123.814 237.944 125.439 233.805 126.373V129.937C233.805 130.489 233.357 130.937 232.805 130.937H220.785H218.236H217.265C217.513 130.944 217.758 131.036 217.947 131.225L223.977 137.255C224.367 137.645 224.367 138.278 223.977 138.669L222.731 139.915C223.941 141.893 224.824 144.022 225.366 146.264H227.123C227.675 146.264 228.123 146.712 228.123 147.264V155.791C228.123 156.343 227.675 156.791 227.123 156.791H225.366C224.824 159.033 223.941 161.163 222.731 163.141L223.977 164.387C224.367 164.778 224.367 165.41 223.977 165.801L217.947 171.83C217.557 172.221 216.924 172.221 216.533 171.83L215.288 170.585C213.309 171.795 211.18 172.678 208.938 173.22V174.977C208.938 175.529 208.49 175.977 207.938 175.977H199.411C199.275 175.977 199.145 175.948 199.027 175.899C198.842 175.946 198.651 175.977 198.452 175.977H192.739C191.412 175.977 190.332 174.897 190.332 173.57V172.08C190.007 172.155 189.654 172.084 189.401 171.83L188.654 171.084C188.213 171.842 187.385 172.297 186.512 172.27L182.552 172.141C181.94 172.121 181.363 171.871 180.929 171.438L177 167C176.061 166.061 175.349 164.331 176.288 163.392C176.446 163.234 176.473 163.033 176.381 162.877C175.307 161.066 174.499 159.117 173.978 157.087C173.933 156.913 173.774 156.791 173.59 156.791C172.226 156.791 171.147 155.712 171.147 154.384V148.672C171.147 147.344 172.226 146.264 173.553 146.264C173.774 146.264 173.933 146.143 173.978 145.968C174.499 143.939 175.307 141.99 176.381 140.178C176.473 140.022 176.446 139.822 176.317 139.692C175.349 138.725 175.35 137.198 176.288 136.26L180.936 131.612C181.362 131.185 181.928 130.936 182.53 130.909L187.098 130.704C187.836 130.677 188.518 130.963 188.999 131.503C189.017 131.522 189.04 131.547 189.059 131.568L189.401 131.225C189.654 130.972 190.007 130.901 190.332 130.976V129.486C190.332 128.159 191.412 127.079 192.739 127.079H198.452C198.651 127.079 198.842 127.111 199.028 127.156C199.146 127.108 199.275 127.079 199.411 127.079H207.62V122.73C206.988 122.384 206.362 122.023 205.747 121.639C205.614 121.666 205.484 121.704 205.353 121.756L203.048 124.061C202.754 124.355 202.323 124.427 201.961 124.278C201.486 124.497 200.959 124.616 200.407 124.605L193.642 124.384C192.775 124.356 191.96 124.002 191.347 123.389L183.417 115.459C182.09 114.132 182.089 111.972 183.416 110.645C183.917 110.145 184.006 109.449 183.683 108.904C181.883 105.864 180.528 102.598 179.654 99.196C179.498 98.584 178.943 98.157 178.305 98.157C176.367 98.157 174.84 96.63 174.84 94.753V84.992C174.84 83.184 176.261 81.715 178.043 81.608C178.078 81.605 178.108 81.588 178.144 81.588H178.244C178.943 81.588 179.498 81.161 179.654 80.55C180.528 77.147 181.883 73.881 183.683 70.841C184.006 70.296 183.917 69.6 183.465 69.149C182.795 68.478 182.456 67.621 182.434 66.765C182.432 66.74 182.42 66.719 182.42 66.694C182.42 66.668 182.432 66.646 182.434 66.621C182.447 65.829 182.74 65.053 183.299 64.43H166.423V135.95C166.423 137.605 165.077 138.95 163.423 138.95H157.609V148.169H163.423C165.077 148.169 166.423 149.514 166.423 151.169V169.605C166.423 171.259 165.077 172.605 163.423 172.605H161.615V177.025C161.615 178.128 160.718 179.025 159.615 179.025H157.609V190.028C159.22 191.562 161.17 192.769 163.382 193.507L167.628 194.922V192.448C167.628 191.896 168.076 191.448 168.628 191.448H170.032V183.634C170.032 183.082 170.48 182.634 171.032 182.634H183.051H197.382H234.528C235.08 182.634 235.528 183.082 235.528 183.634H245.528Z" fill="#7687B2"/>
<path fill-rule="evenodd" clip-rule="evenodd" d="M124.755 148.168H137.178V138.95H124.755V148.168Z" fill="#36393F"/>
<path fill-rule="evenodd" clip-rule="evenodd" d="M187.188 132.702L186.729 132.723C186.946 132.892 187.157 133.072 187.362 133.264L187.643 132.983C187.598 132.934 187.547 132.879 187.506 132.834C187.426 132.744 187.311 132.696 187.188 132.702ZM215.287 132.471L216.533 131.225C216.722 131.036 216.968 130.944 217.215 130.937H212.285C213.318 131.37 214.321 131.881 215.287 132.471ZM157.812 192.824C158.24 194.73 159.345 196.405 160.997 197.571C162.959 198.956 165.34 199.37 167.628 198.766V197.031L162.749 195.404C160.939 194.801 159.281 193.921 157.812 192.824ZM113.195 138.95H111.899C112.156 139.131 112.336 139.415 112.336 139.754V148.168H122.756V138.95H119.549C118.997 138.95 118.549 138.502 118.549 137.95H114.195C114.195 138.502 113.747 138.95 113.195 138.95ZM155.608 179.025H152.808C152.849 182.217 153.861 185.222 155.608 187.712V179.025Z" fill="#36393F"/>
<path fill-rule="evenodd" clip-rule="evenodd" d="M139.178 148.169H155.608V138.951H139.178V148.169Z" fill="#36393F"/>
<path fill-rule="evenodd" clip-rule="evenodd" d="M103.922 138.95V148.168H110.336V139.754C110.336 139.415 110.514 139.131 110.772 138.95H103.922ZM148.93 211.471H157.995C156.316 209.749 155.678 207.303 155.609 205.701L155.608 191.045V191.032V190.858C152.637 187.731 150.859 183.543 150.808 179.025H149.595C148.492 179.025 147.595 178.128 147.595 177.025V172.605H139.178V179.096C139.178 183.624 135.494 187.307 130.967 187.307C126.439 187.307 122.755 183.624 122.755 179.096V172.605H112.335V181.082C112.335 181.634 111.887 182.082 111.335 182.082C110.783 182.082 110.335 181.634 110.335 181.082V172.605H103.921V186.253C104.345 186.077 104.809 185.977 105.296 185.977H118.87C120.857 185.977 122.474 187.595 122.474 189.582V190.735C131.305 191.122 138.785 196.778 141.852 204.629C145.232 205.532 147.921 208.136 148.93 211.471Z" fill="#7687B2"/>
<path fill-rule="evenodd" clip-rule="evenodd" d="M111.702 40.3908C107.412 40.3908 103.922 43.8808 103.922 48.1708V50.4108H163.423C165.077 50.4108 166.423 51.7558 166.423 53.4108V62.4298H185.273L191.358 56.3448C191.961 55.7418 192.762 55.3888 193.613 55.3508L201.418 54.9998C202.448 54.9488 203.425 55.3658 204.105 56.1278C204.413 56.4738 204.806 56.8978 205.244 57.3288C205.649 57.7268 206.093 57.7578 206.405 57.7098C206.711 57.5268 207.018 57.3478 207.329 57.1738C207.49 56.9718 207.62 56.6968 207.62 56.3148V52.2118C207.62 50.3348 209.147 48.8078 211.024 48.8078H218.236H220.785H232.805C233.357 48.8078 233.805 49.2558 233.805 49.8078V53.3718C237.942 54.3068 241.858 55.9308 245.466 58.2098L247.992 55.6838C248.367 55.3088 249.031 55.3088 249.406 55.6838L253.85 60.1288L271.962 42.0158C270.648 41.0008 269.006 40.3908 267.221 40.3908H111.702ZM255.264 61.5427L259.708 65.9867C260.098 66.3767 260.098 67.0097 259.708 67.4007L257.182 69.9267C259.461 73.5347 261.086 77.4497 262.021 81.5877H265.585C266.137 81.5877 266.585 82.0357 266.585 82.5877V97.1567C266.585 97.7097 266.137 98.1567 265.585 98.1567H262.021C261.086 102.295 259.461 106.211 257.182 109.819L259.708 112.345C260.098 112.736 260.098 113.369 259.708 113.759L252.963 120.504V182.634H263.181C263.733 182.634 264.181 183.082 264.181 183.634V211.471H267.221C271.512 211.471 275.002 207.981 275.002 203.691V48.1707C275.002 46.3857 274.391 44.7447 273.376 43.4307L255.264 61.5427Z" fill="#4F5D7F"/>
<path fill-rule="evenodd" clip-rule="evenodd" d="M200.08 57.238L200.264 57.054L199.813 57.074C199.903 57.128 199.992 57.181 200.08 57.238Z" fill="#72767D"/>
<path fill-rule="evenodd" clip-rule="evenodd" d="M182.051 184.634H172.031V191.448H176.641C177.193 191.448 177.641 191.896 177.641 192.448V203.667C177.641 204.219 177.193 204.667 176.641 204.667H172.031V211.481H182.051V184.634Z" fill="#4F545C"/>
<path fill-rule="evenodd" clip-rule="evenodd" d="M194.067 201.064H200.08V195.051H194.067V201.064Z" fill="#36393E"/>
<path fill-rule="evenodd" clip-rule="evenodd" d="M209.693 201.064H215.706V195.051H209.693V201.064Z" fill="#36393E"/>
<path fill-rule="evenodd" clip-rule="evenodd" d="M226.52 201.064H251.764V195.051H226.52V201.064Z" fill="#36393E"/>
<path fill-rule="evenodd" clip-rule="evenodd" d="M169.628 202.667H175.641V193.449H169.628V202.667Z" fill="#4F545C"/>
<path fill-rule="evenodd" clip-rule="evenodd" d="M185.404 71.8605C183.701 74.7365 182.418 77.8275 181.592 81.0465C181.544 81.2345 181.48 81.4155 181.403 81.5885H185.455H189.02C189.954 77.4495 191.579 73.5335 193.858 69.9265L191.625 67.6935H184.837C185.977 68.8395 186.191 70.5305 185.404 71.8605ZM205.574 121.535L205.353 121.756C205.484 121.704 205.614 121.666 205.747 121.639C205.69 121.603 205.631 121.571 205.574 121.535ZM176.84 84.9919V94.7529C176.84 95.5269 177.47 96.1569 178.244 96.1569C178.711 96.1569 179.152 96.2539 179.557 96.4139C179.734 96.2589 179.959 96.1569 180.212 96.1569H184.455V83.5879H178.305C177.47 83.5879 176.84 84.2179 176.84 84.9919ZM238.943 89.8727C238.943 82.4707 232.922 76.4497 225.52 76.4497C225.381 76.4497 225.247 76.4657 225.11 76.4697C229.773 79.1257 232.93 84.1337 232.93 89.8727C232.93 95.6117 229.773 100.62 225.11 103.275C225.247 103.28 225.381 103.296 225.52 103.296C232.922 103.296 238.943 97.2747 238.943 89.8727ZM209.62 123.753V127.533C209.62 128.307 210.25 128.937 211.024 128.937H217.236V126.373C214.599 125.778 212.054 124.899 209.62 123.753ZM181.592 98.6984C182.418 101.917 183.701 105.008 185.404 107.884C186.193 109.216 185.977 110.912 184.88 112.01C184.867 112.022 184.863 112.038 184.851 112.052H191.625L193.858 109.818C191.579 106.211 189.954 102.295 189.02 98.1564H185.455H181.403C181.48 98.3294 181.544 98.5104 181.592 98.6984ZM193.707 122.385L200.169 122.596L191.624 114.052H184.837L192.76 121.975C193.013 122.228 193.35 122.373 193.707 122.385ZM193.702 57.3488C193.35 57.3648 193.02 57.5098 192.772 57.7588L184.837 65.6938H191.624L200.079 57.2378C199.992 57.1808 199.902 57.1278 199.813 57.0748L193.702 57.3488ZM209.62 52.2116V55.9916C212.054 54.8456 214.599 53.9666 217.236 53.3716V50.8076H211.024C210.25 50.8076 209.62 51.4376 209.62 52.2116Z" fill="#797876"/>
<path fill-rule="evenodd" clip-rule="evenodd" d="M212.096 89.8727C212.096 95.8797 216.062 100.977 221.513 102.685C226.964 100.977 230.93 95.8797 230.93 89.8727C230.93 83.8657 226.964 78.7687 221.513 77.0607C216.062 78.7687 212.096 83.8657 212.096 89.8727Z" fill="#7687B2"/>
<path fill-rule="evenodd" clip-rule="evenodd" d="M201.283 89.8727C201.283 76.5077 212.156 65.6347 225.52 65.6347C226.073 65.6347 226.52 66.0827 226.52 66.6347C226.52 67.1867 226.073 67.6347 225.52 67.6347C213.259 67.6347 203.283 77.6107 203.283 89.8727C203.283 102.135 213.259 112.11 225.52 112.11C237.782 112.11 247.758 102.135 247.758 89.8727C247.758 85.6527 246.571 81.5477 244.326 77.9997C244.032 77.5327 244.17 76.9147 244.637 76.6197C245.104 76.3237 245.72 76.4637 246.016 76.9307C248.463 80.7987 249.758 85.2737 249.758 89.8727C249.758 103.237 238.884 114.11 225.52 114.11C212.156 114.11 201.283 103.237 201.283 89.8727ZM240.826 73.7407C239.396 72.3827 237.791 71.2207 236.059 70.2857C235.573 70.0237 235.392 69.4167 235.654 68.9317C235.916 68.4447 236.523 68.2627 237.01 68.5257C238.897 69.5437 240.644 70.8107 242.202 72.2897C242.604 72.6697 242.62 73.3027 242.24 73.7037C242.044 73.9107 241.779 74.0157 241.514 74.0157C241.266 74.0157 241.02 73.9237 240.826 73.7407ZM210.096 89.8727C210.096 81.3687 217.016 74.4497 225.52 74.4497C234.025 74.4497 240.943 81.3687 240.943 89.8727C240.943 98.3767 234.025 105.296 225.52 105.296C217.016 105.296 210.096 98.3767 210.096 89.8727ZM205.99 60.3227C205.593 60.5847 205.068 60.5317 204.732 60.1957L202.34 57.8057L193.452 66.6937L195.844 69.0837C196.18 69.4207 196.233 69.9467 195.971 70.3437C193.448 74.1527 191.71 78.3387 190.807 82.7867C190.712 83.2527 190.303 83.5877 189.827 83.5877H186.454V96.1567H189.827C190.303 96.1567 190.712 96.4917 190.807 96.9577C191.71 101.406 193.448 105.593 195.971 109.402C196.233 109.799 196.18 110.326 195.844 110.662L193.452 113.052L202.34 121.94L204.732 119.549C205.068 119.214 205.593 119.16 205.99 119.423C209.8 121.946 213.986 123.683 218.434 124.585C218.9 124.68 219.236 125.09 219.236 125.565V128.937H220.785H231.805V125.565C231.805 125.09 232.139 124.68 232.605 124.585C237.053 123.683 241.241 121.945 245.049 119.423C245.445 119.16 245.973 119.214 246.309 119.549L248.699 121.94L257.586 113.052L255.197 110.662C254.86 110.326 254.807 109.799 255.07 109.402C257.593 105.592 259.33 101.405 260.233 96.9577C260.328 96.4917 260.737 96.1567 261.212 96.1567H264.585V83.5877H261.212C260.737 83.5877 260.328 83.2527 260.233 82.7867C259.33 78.3397 257.593 74.1527 255.07 70.3437C254.807 69.9467 254.86 69.4207 255.197 69.0837L257.586 66.6937L248.699 57.8057L246.309 60.1957C245.973 60.5317 245.446 60.5847 245.049 60.3227C241.239 57.7997 237.052 56.0627 232.605 55.1597C232.139 55.0647 231.805 54.6557 231.805 54.1797V50.8077H220.785H219.236V54.1797C219.236 54.6557 218.9 55.0647 218.434 55.1597C213.987 56.0627 209.801 57.7997 205.99 60.3227Z" fill="#918B84"/>
<path fill-rule="evenodd" clip-rule="evenodd" d="M192.738 173.977H198.411V173.22C196.27 172.703 194.234 171.865 192.331 170.737V173.57C192.331 173.794 192.514 173.977 192.738 173.977ZM178.207 164.094H183.665L184.617 163.141C183.407 161.163 182.524 159.033 181.982 156.791H180.225C180.219 156.791 180.215 156.788 180.209 156.788C180.204 156.788 180.199 156.791 180.194 156.791H175.975C176.449 158.565 177.16 160.27 178.101 161.858C178.513 162.555 178.536 163.391 178.207 164.094ZM182.617 170.142L186.576 170.271C186.715 170.27 186.87 170.199 186.938 170.075C187.012 169.938 187.1 169.787 187.2 169.63L183.664 166.094H178.413L182.342 170.023C182.415 170.096 182.513 170.139 182.617 170.142ZM180.225 146.264H181.026H181.982C182.524 144.022 183.407 141.892 184.617 139.914L183.597 138.893C183.491 138.931 183.38 138.961 183.262 138.961H178.216C178.21 138.961 178.205 138.958 178.199 138.958C178.535 139.67 178.512 140.503 178.101 141.197C177.16 142.786 176.449 144.491 175.974 146.264H180.225ZM182.619 132.907C182.517 132.911 182.422 132.954 182.349 133.026L178.413 136.962H183.261C183.38 136.962 183.491 136.991 183.596 137.03L187.362 133.263C187.157 133.072 186.945 132.892 186.728 132.722L182.619 132.907ZM192.332 129.486V131.888C192.332 132.05 192.293 132.203 192.262 132.359C194.184 131.21 196.243 130.36 198.411 129.836V129.079H192.739C192.515 129.079 192.332 129.262 192.332 129.486Z" fill="#5B5A58"/>
<path fill-rule="evenodd" clip-rule="evenodd" d="M214.447 151.528C214.447 145.587 209.614 140.754 203.673 140.754C203.014 140.754 202.371 140.822 201.745 140.937C205.905 142.657 208.842 146.754 208.842 151.528C208.842 156.301 205.906 160.399 201.747 162.119C202.373 162.233 203.014 162.301 203.673 162.301C209.614 162.301 214.447 157.468 214.447 151.528Z" fill="#5B5A58"/>
<path fill-rule="evenodd" clip-rule="evenodd" d="M198.423 142.129C203.15 142.65 206.841 146.664 206.841 151.528C206.841 156.391 203.151 160.406 198.424 160.927C195.132 159.081 192.9 155.562 192.9 151.528C192.9 147.493 195.132 143.975 198.423 142.129Z" fill="#7687B2"/>
<path fill-rule="evenodd" clip-rule="evenodd" d="M179.225 148.264V154.791H173.92C173.898 154.791 173.879 154.797 173.859 154.802C173.844 154.806 173.829 154.81 173.814 154.812C173.797 154.81 173.78 154.809 173.763 154.807C173.694 154.799 173.625 154.791 173.553 154.791C173.329 154.791 173.146 154.608 173.146 154.384V148.671C173.146 148.447 173.329 148.264 173.589 148.264C173.755 148.264 173.916 148.242 174.074 148.209C174.082 148.212 174.09 148.214 174.098 148.217C174.177 148.24 174.256 148.264 174.343 148.264H179.225Z" fill="#5D5C5A"/>
<path fill-rule="evenodd" clip-rule="evenodd" d="M203.673 138.754C196.63 138.754 190.9 144.485 190.9 151.528C190.9 158.571 196.63 164.301 203.673 164.301C210.717 164.301 216.447 158.571 216.447 151.528C216.447 144.485 210.717 138.754 203.673 138.754ZM214.875 134.579C215.273 134.841 215.797 134.789 216.134 134.452L217.24 133.346L221.855 137.962L220.749 139.068C220.413 139.403 220.36 139.93 220.622 140.327C222.069 142.512 223.066 144.913 223.584 147.464C223.678 147.929 224.088 148.264 224.564 148.264H226.122V154.791H224.564C224.088 154.791 223.678 155.126 223.584 155.592C223.066 158.143 222.069 160.544 220.622 162.729C220.36 163.125 220.413 163.652 220.749 163.988L221.855 165.094L217.24 169.709L216.134 168.603C215.797 168.267 215.271 168.213 214.875 168.477C212.69 169.924 210.289 170.92 207.738 171.438C207.272 171.532 206.937 171.942 206.937 172.418V173.977H200.41V172.418C200.41 171.942 200.075 171.532 199.609 171.438C197.059 170.92 194.658 169.924 192.473 168.477C192.077 168.213 191.55 168.267 191.213 168.603L190.108 169.709L185.492 165.094L186.598 163.988C186.935 163.652 186.987 163.125 186.725 162.729C185.277 160.544 184.281 158.143 183.764 155.592C183.669 155.126 183.259 154.791 182.784 154.791H181.225V148.264H182.784C183.259 148.264 183.669 147.929 183.764 147.463C184.281 144.913 185.277 142.512 186.725 140.327C186.987 139.93 186.935 139.404 186.598 139.068L185.492 137.962L190.108 133.346L191.213 134.452C191.55 134.789 192.075 134.841 192.473 134.579C194.658 133.132 197.059 132.136 199.609 131.618C200.075 131.523 200.41 131.113 200.41 130.638V129.079H206.937V130.638C206.937 131.113 207.272 131.523 207.738 131.618C210.289 132.136 212.69 133.132 214.875 134.579Z" fill="#6F6C69"/>
<path fill-rule="evenodd" clip-rule="evenodd" d="M110.934 58.423C110.382 58.423 109.934 58.871 109.934 59.423V129.937C109.934 130.489 110.382 130.937 110.934 130.937H157.409C157.961 130.937 158.409 130.489 158.409 129.937V59.423C158.409 58.871 157.961 58.423 157.409 58.423H148.595C148.042 58.423 147.595 58.871 147.595 59.423H140.361C140.361 58.871 139.913 58.423 139.361 58.423H110.934ZM113.194 136.95H103.921V52.41H163.422C163.974 52.41 164.422 52.859 164.422 53.41V135.95C164.422 136.502 163.974 136.95 163.422 136.95H119.549C118.997 136.95 118.549 137.398 118.549 137.95H114.194C114.194 137.398 113.747 136.95 113.194 136.95Z" fill="#343E4D"/>
<path fill-rule="evenodd" clip-rule="evenodd" d="M152.602 88.8806C152.602 89.4326 152.154 89.8806 151.602 89.8806H139.179C138.626 89.8806 138.179 89.4326 138.179 88.8806V85.2716C138.179 84.7186 138.626 84.2716 139.179 84.2716H151.602C152.154 84.2716 152.602 84.7186 152.602 85.2716V88.8806ZM142.185 98.4956C142.185 99.0476 141.737 99.4956 141.185 99.4956H134.371C133.819 99.4956 133.371 99.0476 133.371 98.4956V94.8866C133.371 94.3346 133.819 93.8866 134.371 93.8866H141.185C141.737 93.8866 142.185 94.3346 142.185 94.8866V98.4956ZM130.165 98.4956C130.165 99.0476 129.718 99.4956 129.165 99.4956H117.543C116.991 99.4956 116.543 99.0476 116.543 98.4956V94.8866C116.543 94.3346 116.991 93.8866 117.543 93.8866H129.165C129.718 93.8866 130.165 94.3346 130.165 94.8866V98.4956ZM135.775 75.6556C135.775 75.1036 136.223 74.6556 136.775 74.6556H145.192C145.744 74.6556 146.192 75.1036 146.192 75.6556V79.2646C146.192 79.8176 145.744 80.2646 145.192 80.2646H136.775C136.223 80.2646 135.775 79.8176 135.775 79.2646V75.6556ZM117.543 70.6496C116.991 70.6496 116.543 70.2016 116.543 69.6496V66.0406C116.543 65.4876 116.991 65.0406 117.543 65.0406H140.384C140.936 65.0406 141.384 65.4876 141.384 66.0406V69.6496C141.384 70.2016 140.936 70.6496 140.384 70.6496H117.543ZM127.762 85.2716C127.762 84.7186 128.209 84.2716 128.762 84.2716H133.974C134.526 84.2716 134.974 84.7186 134.974 85.2716V88.8806C134.974 89.4326 134.526 89.8806 133.974 89.8806H128.762C128.209 89.8806 127.762 89.4326 127.762 88.8806V85.2716ZM124.557 85.2716V88.8806C124.557 89.4326 124.109 89.8806 123.557 89.8806H117.543C116.991 89.8806 116.543 89.4326 116.543 88.8806V85.2716C116.543 84.7186 116.991 84.2716 117.543 84.2716H123.557C124.109 84.2716 124.557 84.7186 124.557 85.2716ZM117.543 80.2646C116.991 80.2646 116.543 79.8176 116.543 79.2646V75.6556C116.543 75.1036 116.991 74.6556 117.543 74.6556H131.57C132.122 74.6556 132.57 75.1036 132.57 75.6556V79.2646C132.57 79.8176 132.122 80.2646 131.57 80.2646H117.543ZM139.361 60.4226H111.935V128.938H156.41V60.4226H148.595C148.043 60.4226 147.595 59.9756 147.595 59.4226H140.361C140.361 59.9756 139.914 60.4226 139.361 60.4226Z" fill="#36393F"/>
<path fill-rule="evenodd" clip-rule="evenodd" d="M159.617 177.025V172.605H149.595V177.025H159.617Z" fill="#36393F"/>
<path fill-rule="evenodd" clip-rule="evenodd" d="M143.139 170.605C143.124 170.537 143.098 170.474 143.098 170.401V150.169H124.755V170.605H137.178V157.388C137.178 156.835 137.626 156.388 138.178 156.388C138.73 156.388 139.178 156.835 139.178 157.388V170.605H143.139ZM163.423 150.169H145.099V164.996H164.221C164.293 164.996 164.356 165.023 164.423 165.037V151.169C164.423 150.618 163.974 150.169 163.423 150.169Z" fill="#4F545C"/>
<path fill-rule="evenodd" clip-rule="evenodd" d="M103.922 170.605H122.755V150.169H103.922V170.605Z" fill="#4F545C"/>
<path d="M60 34.5L63 29L70 27.5H94L91 34.5L90 224H60V34.5Z" fill="#CBDAF7"/>
<path fill-rule="evenodd" clip-rule="evenodd" d="M281.905 257.7C282.075 258.036 282.106 258.416 281.991 258.77C281.876 259.124 281.628 259.414 281.292 259.584C280.956 259.755 280.576 259.787 280.221 259.671L272.029 257.009L272.896 254.339L281.09 257.001C281.444 257.116 281.733 257.365 281.905 257.7ZM270.897 249.477C271.633 249.716 272.037 250.51 271.798 251.246L269.322 258.867C269.083 259.603 268.288 260.007 267.553 259.768C266.817 259.529 266.412 258.735 266.652 257.999L269.128 250.378C269.32 249.786 269.872 249.408 270.464 249.408C270.607 249.408 270.753 249.43 270.897 249.477ZM326.526 243.189L327.8 245.69L320.124 249.602C319.792 249.772 319.411 249.799 319.054 249.683C318.696 249.566 318.405 249.32 318.236 248.988C318.067 248.656 318.038 248.276 318.154 247.918C318.271 247.56 318.517 247.269 318.849 247.1L326.526 243.189ZM328.81 237.992C329.169 238.108 329.459 238.355 329.628 238.687L333.266 245.827C333.435 246.158 333.464 246.538 333.348 246.896C333.231 247.255 332.984 247.545 332.652 247.715C332.32 247.883 331.941 247.912 331.583 247.796C331.224 247.68 330.934 247.433 330.765 247.101L327.127 239.962C326.775 239.272 327.05 238.425 327.74 238.073C327.938 237.972 328.153 237.921 328.37 237.921C328.518 237.921 328.666 237.945 328.81 237.992ZM141.383 66.0401V69.6491C141.383 70.2011 140.935 70.6491 140.383 70.6491H117.544C116.991 70.6491 116.544 70.2011 116.544 69.6491V66.0401C116.544 65.4881 116.991 65.0401 117.544 65.0401H140.383C140.935 65.0401 141.383 65.4881 141.383 66.0401ZM132.57 75.6558V79.2648C132.57 79.8168 132.122 80.2648 131.57 80.2648H117.544C116.991 80.2648 116.544 79.8168 116.544 79.2648V75.6558C116.544 75.1028 116.991 74.6558 117.544 74.6558H131.57C132.122 74.6558 132.57 75.1028 132.57 75.6558ZM145.192 80.2648H136.775C136.223 80.2648 135.775 79.8168 135.775 79.2648V75.6558C135.775 75.1028 136.223 74.6558 136.775 74.6558H145.192C145.744 74.6558 146.192 75.1028 146.192 75.6558V79.2648C146.192 79.8168 145.744 80.2648 145.192 80.2648ZM116.543 85.2712C116.543 84.7192 116.991 84.2712 117.543 84.2712H123.556C124.108 84.2712 124.556 84.7192 124.556 85.2712V88.8802C124.556 89.4332 124.108 89.8802 123.556 89.8802H117.543C116.991 89.8802 116.543 89.4332 116.543 88.8802V85.2712ZM133.973 89.8806H128.762C128.21 89.8806 127.761 89.4326 127.761 88.8806V85.2716C127.761 84.7186 128.21 84.2716 128.762 84.2716H133.973C134.525 84.2716 134.973 84.7186 134.973 85.2716V88.8806C134.973 89.4326 134.525 89.8806 133.973 89.8806ZM139.179 84.2712H151.602C152.154 84.2712 152.602 84.7192 152.602 85.2712V88.8802C152.602 89.4332 152.154 89.8802 151.602 89.8802H139.179C138.626 89.8802 138.179 89.4332 138.179 88.8802V85.2712C138.179 84.7192 138.626 84.2712 139.179 84.2712ZM117.543 93.8869H129.165C129.717 93.8869 130.165 94.3349 130.165 94.8869V98.4959C130.165 99.0479 129.717 99.4959 129.165 99.4959H117.543C116.991 99.4959 116.543 99.0479 116.543 98.4959V94.8869C116.543 94.3349 116.991 93.8869 117.543 93.8869ZM134.371 93.8869H141.185C141.737 93.8869 142.185 94.3349 142.185 94.8869V98.4959C142.185 99.0479 141.737 99.4959 141.185 99.4959H134.371C133.819 99.4959 133.371 99.0479 133.371 98.4959V94.8869C133.371 94.3349 133.819 93.8869 134.371 93.8869Z" fill="#4F545C"/>
<path fill-rule="evenodd" clip-rule="evenodd" d="M281.905 257.7C282.075 258.036 282.106 258.416 281.991 258.77C281.876 259.124 281.628 259.414 281.292 259.584C280.956 259.755 280.576 259.787 280.221 259.671L272.029 257.009L272.896 254.339L281.09 257.001C281.444 257.116 281.733 257.365 281.905 257.7ZM270.897 249.477C271.633 249.716 272.037 250.51 271.798 251.246L269.322 258.867C269.083 259.603 268.288 260.007 267.553 259.768C266.817 259.529 266.412 258.735 266.652 257.999L269.128 250.378C269.32 249.786 269.872 249.408 270.464 249.408C270.607 249.408 270.753 249.43 270.897 249.477ZM326.526 243.189L327.8 245.69L320.124 249.602C319.792 249.772 319.411 249.799 319.054 249.683C318.696 249.566 318.405 249.32 318.236 248.988C318.067 248.656 318.038 248.276 318.154 247.918C318.271 247.56 318.517 247.269 318.849 247.1L326.526 243.189ZM328.81 237.992C329.169 238.108 329.459 238.355 329.628 238.687L333.266 245.827C333.435 246.158 333.464 246.538 333.348 246.896C333.231 247.255 332.984 247.545 332.652 247.715C332.32 247.883 331.941 247.912 331.583 247.796C331.224 247.68 330.934 247.433 330.765 247.101L327.127 239.962C326.775 239.272 327.05 238.425 327.74 238.073C327.938 237.972 328.153 237.921 328.37 237.921C328.518 237.921 328.666 237.945 328.81 237.992ZM141.383 66.0401V69.6491C141.383 70.2011 140.935 70.6491 140.383 70.6491H117.544C116.991 70.6491 116.544 70.2011 116.544 69.6491V66.0401C116.544 65.4881 116.991 65.0401 117.544 65.0401H140.383C140.935 65.0401 141.383 65.4881 141.383 66.0401ZM132.57 75.6558V79.2648C132.57 79.8168 132.122 80.2648 131.57 80.2648H117.544C116.991 80.2648 116.544 79.8168 116.544 79.2648V75.6558C116.544 75.1028 116.991 74.6558 117.544 74.6558H131.57C132.122 74.6558 132.57 75.1028 132.57 75.6558ZM145.192 80.2648H136.775C136.223 80.2648 135.775 79.8168 135.775 79.2648V75.6558C135.775 75.1028 136.223 74.6558 136.775 74.6558H145.192C145.744 74.6558 146.192 75.1028 146.192 75.6558V79.2648C146.192 79.8168 145.744 80.2648 145.192 80.2648ZM116.543 85.2712C116.543 84.7192 116.991 84.2712 117.543 84.2712H123.556C124.108 84.2712 124.556 84.7192 124.556 85.2712V88.8802C124.556 89.4332 124.108 89.8802 123.556 89.8802H117.543C116.991 89.8802 116.543 89.4332 116.543 88.8802V85.2712ZM133.973 89.8806H128.762C128.21 89.8806 127.761 89.4326 127.761 88.8806V85.2716C127.761 84.7186 128.21 84.2716 128.762 84.2716H133.973C134.525 84.2716 134.973 84.7186 134.973 85.2716V88.8806C134.973 89.4326 134.525 89.8806 133.973 89.8806ZM139.179 84.2712H151.602C152.154 84.2712 152.602 84.7192 152.602 85.2712V88.8802C152.602 89.4332 152.154 89.8802 151.602 89.8802H139.179C138.626 89.8802 138.179 89.4332 138.179 88.8802V85.2712C138.179 84.7192 138.626 84.2712 139.179 84.2712ZM117.543 93.8869H129.165C129.717 93.8869 130.165 94.3349 130.165 94.8869V98.4959C130.165 99.0479 129.717 99.4959 129.165 99.4959H117.543C116.991 99.4959 116.543 99.0479 116.543 98.4959V94.8869C116.543 94.3349 116.991 93.8869 117.543 93.8869ZM134.371 93.8869H141.185C141.737 93.8869 142.185 94.3349 142.185 94.8869V98.4959C142.185 99.0479 141.737 99.4959 141.185 99.4959H134.371C133.819 99.4959 133.371 99.0479 133.371 98.4959V94.8869C133.371 94.3349 133.819 93.8869 134.371 93.8869Z" fill="#D8DEE8"/>
<path fill-rule="evenodd" clip-rule="evenodd" d="M163.423 170.605C163.974 170.605 164.423 170.156 164.423 169.605V166.955C164.409 166.958 164.396 166.961 164.383 166.965L164.363 166.97C164.317 166.983 164.271 166.996 164.221 166.996H145.099V170.401C145.099 170.45 145.086 170.495 145.074 170.539L145.067 170.567C145.063 170.579 145.06 170.592 145.058 170.605H163.423ZM281.991 258.77C282.106 258.416 282.075 258.036 281.905 257.7C281.733 257.365 281.444 257.116 281.09 257.001L272.896 254.339L272.029 257.009L280.221 259.671C280.576 259.787 280.956 259.755 281.292 259.584C281.628 259.414 281.876 259.124 281.991 258.77ZM271.798 251.246C272.037 250.51 271.633 249.716 270.897 249.477C270.753 249.43 270.607 249.408 270.464 249.408C269.872 249.408 269.32 249.786 269.128 250.378L266.652 257.999C266.412 258.735 266.817 259.529 267.553 259.768C268.288 260.007 269.083 259.603 269.322 258.867L271.798 251.246ZM327.8 245.69L326.526 243.189L318.849 247.1C318.517 247.269 318.271 247.56 318.154 247.918C318.038 248.276 318.067 248.656 318.236 248.988C318.405 249.32 318.696 249.566 319.054 249.683C319.411 249.799 319.792 249.772 320.124 249.602L327.8 245.69ZM329.628 238.687C329.459 238.355 329.169 238.108 328.81 237.992C328.666 237.945 328.518 237.921 328.37 237.921C328.153 237.921 327.938 237.972 327.74 238.073C327.05 238.425 326.775 239.272 327.127 239.962L330.765 247.101C330.934 247.433 331.224 247.68 331.583 247.796C331.941 247.912 332.32 247.883 332.652 247.715C332.984 247.545 333.231 247.255 333.348 246.896C333.464 246.538 333.435 246.158 333.266 245.827L329.628 238.687Z" fill="#4F545C"/>
<path fill-rule="evenodd" clip-rule="evenodd" d="M163.423 170.605C163.974 170.605 164.423 170.156 164.423 169.605V166.955C164.409 166.958 164.396 166.961 164.383 166.965L164.363 166.97C164.317 166.983 164.271 166.996 164.221 166.996H145.099V170.401C145.099 170.45 145.086 170.495 145.074 170.539L145.067 170.567C145.063 170.579 145.06 170.592 145.058 170.605H163.423ZM281.991 258.77C282.106 258.416 282.075 258.036 281.905 257.7C281.733 257.365 281.444 257.116 281.09 257.001L272.896 254.339L272.029 257.009L280.221 259.671C280.576 259.787 280.956 259.755 281.292 259.584C281.628 259.414 281.876 259.124 281.991 258.77ZM271.798 251.246C272.037 250.51 271.633 249.716 270.897 249.477C270.753 249.43 270.607 249.408 270.464 249.408C269.872 249.408 269.32 249.786 269.128 250.378L266.652 257.999C266.412 258.735 266.817 259.529 267.553 259.768C268.288 260.007 269.083 259.603 269.322 258.867L271.798 251.246ZM327.8 245.69L326.526 243.189L318.849 247.1C318.517 247.269 318.271 247.56 318.154 247.918C318.038 248.276 318.067 248.656 318.236 248.988C318.405 249.32 318.696 249.566 319.054 249.683C319.411 249.799 319.792 249.772 320.124 249.602L327.8 245.69ZM329.628 238.687C329.459 238.355 329.169 238.108 328.81 237.992C328.666 237.945 328.518 237.921 328.37 237.921C328.153 237.921 327.938 237.972 327.74 238.073C327.05 238.425 326.775 239.272 327.127 239.962L330.765 247.101C330.934 247.433 331.224 247.68 331.583 247.796C331.941 247.912 332.32 247.883 332.652 247.715C332.984 247.545 333.231 247.255 333.348 246.896C333.464 246.538 333.435 246.158 333.266 245.827L329.628 238.687Z" fill="#4F545C"/>
<path fill-rule="evenodd" clip-rule="evenodd" d="M120.475 190.711V189.583C120.475 188.698 119.755 187.978 118.871 187.978H105.296C104.412 187.978 103.691 188.698 103.691 189.583V190.711H120.475ZM147.585 217.381L148.085 215.714C149.337 215.684 149.633 213.99 148.195 213.114C147.599 212.752 147.718 211.52 147.502 210.881C147.002 209.403 145.379 208.056 144.252 207.028C143.892 206.785 143.035 207.212 142.637 207.028C143.098 208.792 143.345 210.641 143.345 212.548V220.964C143.345 221.296 143.335 221.625 143.32 221.954C143.475 221.863 144.104 222.4 144.252 222.3C146.081 220.633 147.585 220.05 147.585 217.381ZM76.6458 214.392V214.943C76.6458 217.613 78.4228 220.645 80.2518 222.312C80.3198 222.358 80.7718 221.759 80.8418 221.803C80.8318 221.524 80.8208 221.245 80.8208 220.963V212.547C80.8208 210.688 81.0558 208.884 81.4948 207.161C81.1968 207.312 80.1098 206.975 79.8348 207.161C78.0058 208.828 76.6458 211.723 76.6458 214.392Z" fill="#8BA4E8"/>
<path fill-rule="evenodd" clip-rule="evenodd" d="M82.8884 222.299C83.5594 232.293 91.6494 240.264 101.691 240.751V236.533C92.9014 236.13 85.5404 230.299 82.8884 222.299ZM141.277 222.3C138.625 230.3 131.264 236.129 122.475 236.533V240.751C132.517 240.263 140.606 232.293 141.277 222.3Z" fill="#8BA4E8"/>
<path fill-rule="evenodd" clip-rule="evenodd" d="M122.018 228.19H102.149C94.4158 228.19 88.1258 221.899 88.1258 214.168V212.038C88.1258 209.052 89.0708 206.288 90.6678 204.011C92.9308 205.239 93.3338 202.196 94.5978 201.064C96.8738 199.467 99.1628 198.015 102.149 198.015C102.701 198.015 103.149 198.463 103.149 199.015H106.35C106.35 198.463 106.797 198.015 107.35 198.015H112.083C112.636 198.015 113.083 198.463 113.083 199.015H121.018C121.018 198.463 121.466 198.015 122.018 198.015C125.004 198.015 127.142 199.95 129.418 201.547C130.825 202.409 132.636 202.604 133.498 204.01C135.095 206.287 136.04 209.052 136.04 212.038V214.168C136.04 221.899 129.75 228.19 122.018 228.19ZM141.277 222.3C141.307 221.856 141.345 221.414 141.345 220.963V212.547C141.345 201.609 132.447 192.711 121.509 192.711H102.658C91.7198 192.711 82.8208 201.609 82.8208 212.547V220.963C82.8208 221.414 82.8588 221.856 82.8888 222.299C85.5398 230.299 92.9018 236.129 101.691 236.533V233.667C101.691 232.397 102.724 231.364 103.994 231.364H120.173C121.442 231.364 122.475 232.397 122.475 233.667V236.533C131.264 236.129 138.625 230.299 141.277 222.3Z" fill="#AABFF2"/>
<path fill-rule="evenodd" clip-rule="evenodd" d="M126.666 216.779L123.879 213.8L119.369 219.789C119.1 220.146 118.686 220.364 118.239 220.384C117.793 220.404 117.36 220.225 117.06 219.894L113.01 215.434L109.352 219.844C109.065 220.19 108.641 220.386 108.198 220.386C108.137 220.386 108.076 220.383 108.016 220.376C107.508 220.313 107.068 219.998 106.846 219.537L103.754 213.114L100.838 219.508C100.616 219.998 100.148 220.33 99.6128 220.38C99.0818 220.436 98.5578 220.191 98.2478 219.751L96.2918 216.977H90.9018C90.7438 216.977 90.5938 216.946 90.4508 216.901C91.6938 222.216 96.4608 226.19 102.149 226.19H122.018C127.579 226.19 132.256 222.39 133.624 217.255H127.762C127.347 217.255 126.95 217.083 126.666 216.779Z" fill="#343E4C"/>
<path fill-rule="evenodd" clip-rule="evenodd" d="M102.149 200.015C95.5197 200.015 90.1257 205.409 90.1257 212.038V214.167C90.1257 214.178 90.1277 214.188 90.1277 214.199C90.3537 214.061 90.6167 213.977 90.9017 213.977H97.0697C97.5577 213.977 98.0147 214.214 98.2957 214.613L99.1927 215.885L102.352 208.956C102.593 208.427 103.119 208.084 103.701 208.078C104.291 208.108 104.816 208.404 105.068 208.928L108.536 216.129L111.805 212.188C112.082 211.854 112.491 211.656 112.925 211.646C113.356 211.646 113.777 211.816 114.069 212.138L118.063 216.536L122.557 210.569C122.824 210.215 123.233 209.996 123.676 209.973C124.114 209.958 124.548 210.122 124.851 210.447L128.413 214.254H134.036C134.036 214.225 134.041 214.197 134.041 214.167V212.038C134.041 205.409 128.648 200.015 122.018 200.015C121.466 200.015 121.018 199.567 121.018 199.015H113.084C113.084 199.567 112.636 200.015 112.084 200.015H107.35C106.797 200.015 106.35 199.567 106.35 199.015H103.149C103.149 199.567 102.701 200.015 102.149 200.015Z" fill="#343E4C"/>
<path fill-rule="evenodd" clip-rule="evenodd" d="M120.475 234.668C120.475 234.501 120.339 234.366 120.173 234.366H103.994C103.827 234.366 103.691 234.501 103.691 234.668V239.585H120.475V234.668Z" fill="#CBDAF7"/>
<path fill-rule="evenodd" clip-rule="evenodd" d="M103.691 240.8H120.475V238.584H103.691V240.8Z" fill="#8BA4E8"/>
<path fill-rule="evenodd" clip-rule="evenodd" d="M375.459 23.1247H377.863C380.624 23.1247 382.87 25.3707 382.87 28.1317C382.87 30.8927 380.624 33.1377 377.863 33.1377H375.459C372.698 33.1377 370.453 30.8927 370.453 28.1317C370.453 25.3707 372.698 23.1247 375.459 23.1247ZM357.143 6.73269C351.947 6.73269 347.226 8.75669 343.686 12.0377H348.001C354.306 12.0377 359.436 17.1677 359.436 23.4727V30.7777C359.436 37.0827 354.306 42.2127 348.001 42.2127H339.816C341.01 44.3517 342.583 46.2497 344.451 47.8087H359.34C365.909 47.8087 371.575 44.0067 374.301 38.4917C368.863 38.1647 364.537 33.6497 364.537 28.1317C364.537 24.6337 366.28 21.3927 369.2 19.4597C369.661 19.1547 370.281 19.2807 370.586 19.7417C370.891 20.2027 370.765 20.8227 370.304 21.1277C367.945 22.6887 366.537 25.3077 366.537 28.1317C366.537 32.7587 370.301 36.5227 374.928 36.5227H378.394C383.021 36.5227 386.786 32.7587 386.786 28.1317C386.786 27.5977 387.207 27.1707 387.733 27.1427C387.272 22.7457 383.78 19.2527 379.383 18.7927C379.354 19.3187 378.927 19.7397 378.394 19.7397H374.928C374.376 19.7397 373.928 19.2917 373.928 18.7397C373.928 18.1877 374.376 17.7397 374.928 17.7397H376.037V14.4167C376.037 11.2307 375.129 8.26569 373.581 5.73269H374.193C374.193 5.18069 374.641 4.73269 375.193 4.73269C375.518 4.73269 375.841 4.74369 376.163 4.75769V3.60369C376.163 2.71969 375.442 1.99969 374.558 1.99969H360.983C360.099 1.99969 359.379 2.71969 359.379 3.60369V4.73269H367.396C367.948 4.73269 368.396 5.18069 368.396 5.73269C368.396 6.28569 367.948 6.73269 367.396 6.73269H357.143Z" fill="#AABFF2"/>
<path fill-rule="evenodd" clip-rule="evenodd" d="M349.741 24.4797C351.47 24.4797 352.871 25.8817 352.871 27.6097C352.871 29.3387 351.47 30.7407 349.741 30.7407C348.012 30.7407 346.609 29.3387 346.609 27.6097C346.609 25.8817 348.012 24.4797 349.741 24.4797ZM348 40.2127C353.202 40.2127 357.435 35.9797 357.435 30.7777V23.4727C357.435 23.3747 357.425 23.2787 357.422 23.1807C355.747 19.6557 352.163 17.2117 348 17.2117H339.66C338.161 20.0007 337.306 23.1867 337.306 26.5697V32.5817C337.306 35.2847 337.853 37.8617 338.837 40.2127H348Z" fill="#343E4C"/>
<path fill-rule="evenodd" clip-rule="evenodd" d="M357.421 23.1809C357.265 18.1139 353.104 14.0379 348 14.0379H341.782C340.978 15.0219 340.267 16.0839 339.661 17.2119H348C352.163 17.2119 355.746 19.6559 357.421 23.1809Z" fill="#282F38"/>
<path fill-rule="evenodd" clip-rule="evenodd" d="M349.741 30.7409C351.47 30.7409 352.871 29.3389 352.871 27.6099C352.871 25.8819 351.47 24.4799 349.741 24.4799C348.012 24.4799 346.609 25.8819 346.609 27.6099C346.609 29.3389 348.012 30.7409 349.741 30.7409Z" fill="#A4B1C7"/>
<path fill-rule="evenodd" clip-rule="evenodd" d="M376.036 14.4162V17.7392H378.393C378.946 17.7392 379.393 18.1872 379.393 18.7392C379.393 18.7582 379.384 18.7742 379.383 18.7922C383.779 19.2532 387.272 22.7462 387.732 27.1422C387.75 27.1412 387.766 27.1312 387.785 27.1312C388.337 27.1312 388.785 27.5792 388.785 28.1312C388.785 33.8612 384.123 38.5232 378.393 38.5232H374.928C374.716 38.5232 374.509 38.5042 374.3 38.4912C371.575 44.0062 365.908 47.8092 359.34 47.8092H344.451C347.893 50.6832 352.318 52.4182 357.142 52.4182H375.192C386.13 52.4182 395.029 43.5192 395.029 32.5812V26.5692C395.029 15.6312 386.13 6.73321 375.192 6.73321C374.64 6.73321 374.192 6.28521 374.192 5.73321V5.73221H373.58C375.128 8.26521 376.036 11.2312 376.036 14.4162Z" fill="#8BA4E8"/>
<path fill-rule="evenodd" clip-rule="evenodd" d="M375.459 31.1379H377.863C379.521 31.1379 380.87 29.7889 380.87 28.1319C380.87 26.4729 379.521 25.1249 377.863 25.1249H375.459C373.801 25.1249 372.453 26.4729 372.453 28.1319C372.453 29.7889 373.801 31.1379 375.459 31.1379ZM368.306 102.036C366.922 102.036 365.796 103.162 365.796 104.546C365.796 105.93 366.922 107.056 368.306 107.056C369.69 107.056 370.816 105.93 370.816 104.546C370.816 103.162 369.69 102.036 368.306 102.036ZM124.851 210.447C124.548 210.123 124.114 209.959 123.676 209.973C123.233 209.997 122.824 210.216 122.557 210.569L118.062 216.536L114.069 212.138C113.777 211.816 113.355 211.646 112.925 211.646C112.491 211.656 112.082 211.854 111.805 212.188L108.536 216.13L105.068 208.928C104.816 208.404 104.291 208.108 103.701 208.079C103.119 208.085 102.593 208.427 102.352 208.957L99.1928 215.885L98.2958 214.613C98.0148 214.215 97.5578 213.977 97.0698 213.977H90.9018C90.6168 213.977 90.3538 214.061 90.1268 214.199C90.1298 215.129 90.2478 216.031 90.4508 216.901C90.5938 216.946 90.7438 216.977 90.9018 216.977H96.2918L98.2468 219.751C98.5578 220.191 99.0808 220.436 99.6128 220.38C100.148 220.33 100.616 219.998 100.838 219.509L103.754 213.114L106.846 219.537C107.068 219.998 107.508 220.313 108.016 220.376C108.076 220.383 108.137 220.386 108.198 220.386C108.641 220.386 109.065 220.19 109.352 219.844L113.01 215.434L117.06 219.894C117.36 220.225 117.793 220.404 118.239 220.385C118.685 220.364 119.1 220.146 119.369 219.789L123.879 213.8L126.666 216.779C126.95 217.083 127.347 217.255 127.762 217.255H133.624C133.879 216.295 134.028 215.292 134.036 214.255H128.413L124.851 210.447Z" fill="#A2ADBD"/>
<path fill-rule="evenodd" clip-rule="evenodd" d="M90.9021 51.4108C90.3501 51.4108 89.9021 51.8588 89.9021 52.4108V73.4638C89.9021 74.0158 90.3501 74.4638 90.9021 74.4638C91.4541 74.4638 91.9021 74.0158 91.9021 73.4638V52.4108C91.9021 51.8588 91.4541 51.4108 90.9021 51.4108ZM229.52 195.051H248.764C250.421 195.051 251.764 196.394 251.764 198.051V198.064C251.764 199.72 250.421 201.064 248.764 201.064H229.52C227.863 201.064 226.52 199.72 226.52 198.064V198.051C226.52 196.394 227.863 195.051 229.52 195.051ZM224.52 196.051V202.065C224.52 203.722 225.863 205.065 227.52 205.065H250.764C252.421 205.065 253.764 203.722 253.764 202.065V196.051C253.764 194.394 252.421 193.051 250.764 193.051H227.52C225.863 193.051 224.52 194.394 224.52 196.051ZM197.08 201.064H197.067C195.41 201.064 194.067 199.721 194.067 198.064V198.051C194.067 196.395 195.41 195.051 197.067 195.051H197.08C198.737 195.051 200.08 196.395 200.08 198.051V198.064C200.08 199.721 198.737 201.064 197.08 201.064ZM199.08 193.051H195.067C193.41 193.051 192.067 194.395 192.067 196.051V202.065C192.067 203.722 193.41 205.065 195.067 205.065H199.08C200.737 205.065 202.08 203.722 202.08 202.065V196.051C202.08 194.395 200.737 193.051 199.08 193.051ZM212.706 201.064H212.693C211.036 201.064 209.693 199.721 209.693 198.064V198.051C209.693 196.395 211.036 195.051 212.693 195.051H212.706C214.363 195.051 215.706 196.395 215.706 198.051V198.064C215.706 199.721 214.363 201.064 212.706 201.064ZM214.706 193.051H210.693C209.036 193.051 207.693 194.395 207.693 196.051V202.065C207.693 203.722 209.036 205.065 210.693 205.065H214.706C216.363 205.065 217.706 203.722 217.706 202.065V196.051C217.706 194.395 216.363 193.051 214.706 193.051ZM225.52 114.11C238.885 114.11 249.758 103.237 249.758 89.873C249.758 85.274 248.464 80.798 246.017 76.93C245.721 76.464 245.104 76.323 244.637 76.62C244.17 76.915 244.031 77.533 244.326 78C246.571 81.547 247.758 85.653 247.758 89.873C247.758 102.134 237.782 112.11 225.52 112.11C213.258 112.11 203.283 102.134 203.283 89.873C203.283 77.611 213.258 67.635 225.52 67.635C226.072 67.635 226.52 67.187 226.52 66.635C226.52 66.083 226.072 65.635 225.52 65.635C212.156 65.635 201.283 76.508 201.283 89.873C201.283 103.237 212.156 114.11 225.52 114.11ZM236.06 70.2858C237.791 71.2208 239.395 72.3828 240.826 73.7408C241.019 73.9238 241.267 74.0148 241.515 74.0148C241.779 74.0148 242.043 73.9108 242.24 73.7038C242.62 73.3028 242.603 72.6698 242.203 72.2898C240.644 70.8098 238.896 69.5438 237.009 68.5258C236.523 68.2628 235.916 68.4448 235.655 68.9318C235.393 69.4168 235.574 70.0238 236.06 70.2858Z" fill="#1F2225"/>
<path fill-rule="evenodd" clip-rule="evenodd" d="M238.943 89.8727C238.943 97.2747 232.922 103.296 225.52 103.296C225.381 103.296 225.247 103.28 225.11 103.275C229.773 100.62 232.93 95.6117 232.93 89.8727C232.93 84.1337 229.773 79.1257 225.11 76.4697C225.247 76.4657 225.381 76.4497 225.52 76.4497C232.922 76.4497 238.943 82.4707 238.943 89.8727ZM212.096 89.8727C212.096 87.6897 212.62 85.6267 213.549 83.8027C216.832 77.3537 226.194 77.3537 229.478 83.8027C230.406 85.6267 230.93 87.6897 230.93 89.8727C230.93 92.0557 230.406 94.1187 229.478 95.9427C226.194 102.392 216.832 102.392 213.549 95.9427C212.62 94.1187 212.096 92.0557 212.096 89.8727ZM210.096 89.8727C210.096 98.3767 217.015 105.296 225.52 105.296C234.024 105.296 240.943 98.3767 240.943 89.8727C240.943 81.3687 234.024 74.4497 225.52 74.4497C217.015 74.4497 210.096 81.3687 210.096 89.8727ZM203.674 162.301C203.015 162.301 202.373 162.232 201.747 162.118C205.906 160.398 208.841 156.301 208.841 151.529C208.841 146.755 205.905 142.656 201.746 140.936C202.372 140.822 203.015 140.755 203.674 140.755C209.615 140.755 214.448 145.588 214.448 151.529C214.448 157.469 209.615 162.301 203.674 162.301ZM192.901 151.529C192.901 149.364 193.543 147.347 194.647 145.658C196.538 142.764 200.551 141.971 203.258 144.122C205.44 145.856 206.841 148.531 206.841 151.529C206.841 154.525 205.44 157.199 203.258 158.932C200.551 161.083 196.539 160.292 194.647 157.398C193.543 155.709 192.901 153.693 192.901 151.529ZM203.674 138.755C196.631 138.755 190.901 144.484 190.901 151.529C190.901 158.572 196.631 164.301 203.674 164.301C210.717 164.301 216.448 158.572 216.448 151.529C216.448 144.484 210.717 138.755 203.674 138.755ZM158.409 129.937V59.4232C158.409 58.8712 157.961 58.4232 157.409 58.4232H148.595C148.042 58.4232 147.595 58.8712 147.595 59.4232C147.595 59.9752 148.042 60.4232 148.595 60.4232H154.409C155.513 60.4232 156.409 61.3182 156.409 62.4232V124.936C156.409 126.04 155.513 126.936 154.409 126.936H113.934C112.829 126.936 111.934 126.04 111.934 124.936V62.4232C111.934 61.3182 112.829 60.4232 113.934 60.4232H144.365C144.917 60.4232 145.364 59.9752 145.365 59.4232C145.365 58.8712 144.917 58.4232 144.365 58.4232H110.934C110.382 58.4232 109.934 58.8712 109.934 59.4232V129.937C109.934 130.489 110.382 130.937 110.934 130.937H157.409C157.961 130.937 158.409 130.489 158.409 129.937ZM281.991 258.77C281.876 259.124 281.628 259.414 281.292 259.584C280.956 259.755 280.576 259.787 280.221 259.671L273.363 257.443C272.625 257.203 272.221 256.411 272.461 255.674C272.701 254.937 273.492 254.533 274.23 254.773L281.09 257.001C281.444 257.116 281.733 257.365 281.905 257.7C282.075 258.036 282.106 258.416 281.991 258.77ZM271.797 251.246L269.322 258.866C269.083 259.603 268.287 260.007 267.552 259.768C266.816 259.528 266.411 258.735 266.651 257.999L269.128 250.378C269.32 249.785 269.872 249.408 270.464 249.408C270.607 249.408 270.753 249.43 270.897 249.477C271.633 249.716 272.036 250.509 271.797 251.246ZM281.707 255.099L273.699 251.863C274.279 250.079 273.299 248.154 271.514 247.574C269.732 246.996 267.805 247.974 267.224 249.76L264.749 257.38C264.169 259.166 265.15 261.089 266.935 261.67C267.283 261.783 267.636 261.837 267.984 261.837C269.419 261.837 270.757 260.921 271.224 259.484L271.409 258.911L279.603 261.574C279.951 261.687 280.305 261.741 280.654 261.741C282.089 261.74 283.425 260.825 283.892 259.388C284.173 258.526 284.099 257.604 283.685 256.792C283.272 255.98 282.569 255.379 281.707 255.099ZM333.347 246.896C333.23 247.254 332.984 247.545 332.652 247.714C332.32 247.882 331.94 247.912 331.582 247.796C331.223 247.679 330.933 247.433 330.764 247.101L327.126 239.961C326.774 239.271 327.05 238.424 327.74 238.073C327.937 237.972 328.152 237.921 328.369 237.921C328.517 237.921 328.665 237.944 328.809 237.991C329.168 238.108 329.458 238.354 329.627 238.686V238.687L333.265 245.826C333.434 246.158 333.464 246.538 333.347 246.896ZM320.123 249.601C319.791 249.771 319.411 249.798 319.054 249.683C318.695 249.566 318.405 249.319 318.235 248.987C318.066 248.656 318.037 248.275 318.154 247.917C318.27 247.559 318.517 247.269 318.848 247.1H318.849L325.275 243.825C325.965 243.474 326.81 243.748 327.162 244.438V244.439C327.514 245.129 327.24 245.975 326.549 246.327L320.123 249.601ZM331.41 237.778C330.998 236.971 330.294 236.371 329.428 236.089C328.56 235.808 327.639 235.879 326.831 236.291C325.159 237.143 324.492 239.197 325.344 240.869L325.617 241.406L317.941 245.317C317.133 245.729 316.533 246.433 316.252 247.299C315.97 248.166 316.042 249.088 316.453 249.895C316.865 250.703 317.569 251.303 318.435 251.584C318.784 251.698 319.14 251.754 319.495 251.754C320.024 251.754 320.548 251.629 321.032 251.383L328.708 247.472L328.982 248.009C329.393 248.816 330.097 249.416 330.964 249.698C331.312 249.811 331.669 249.867 332.024 249.867C332.553 249.867 333.076 249.742 333.559 249.496C334.368 249.084 334.968 248.381 335.249 247.514C335.531 246.648 335.459 245.726 335.048 244.918L331.41 237.778ZM395.029 32.5812C395.029 43.5372 386.149 52.4182 375.193 52.4182H357.142C352.318 52.4182 347.893 50.6832 344.451 47.8092C343.049 46.6392 341.814 45.2792 340.78 43.7692C340.329 43.1112 340.818 42.2122 341.616 42.2122H348C354.315 42.2122 359.435 37.0922 359.435 30.7772V23.4732C359.435 17.1572 354.316 12.0382 348 12.0382H346.538C345.564 12.0382 345.154 10.7722 345.954 10.2202C349.141 8.02621 352.989 6.73321 357.142 6.73321H367.396C367.948 6.73321 368.396 6.28521 368.396 5.73321C368.396 5.18121 367.948 4.73321 367.396 4.73321H359.379V3.60421C359.379 2.71821 360.096 1.99921 360.983 1.99921H374.558C375.443 1.99921 376.162 2.71821 376.162 3.60421V4.75721C375.84 4.74321 375.518 4.73321 375.193 4.73321C374.641 4.73321 374.193 5.18121 374.193 5.73221V5.73321C374.193 6.28521 374.641 6.73321 375.193 6.73321C386.131 6.73321 395.029 15.6312 395.029 26.5692V32.5812ZM370.571 76.6492C370.571 77.8542 369.59 78.8342 368.386 78.8342C367.181 78.8342 366.201 77.8542 366.201 76.6492C366.201 75.4442 367.181 74.4642 368.386 74.4642C369.59 74.4642 370.571 75.4442 370.571 76.6492ZM371.776 79.0962C372.104 78.6422 372.757 78.5802 373.209 78.9112C375.644 80.6932 379.458 84.1372 380.534 88.8332C381.256 91.9852 380.625 95.2642 378.683 98.6042C378.298 99.2692 377.328 99.2692 376.944 98.6022L374.629 94.5932C374.45 94.2842 374.12 94.0932 373.764 94.0932H362.848C362.491 94.0932 362.161 94.2842 361.982 94.5932L359.667 98.6022C359.283 99.2692 358.314 99.2692 357.927 98.6042C355.987 95.2642 355.356 91.9852 356.078 88.8332C357.172 84.0612 361.086 80.5852 363.513 78.8302C363.973 78.4972 364.636 78.5692 364.961 79.0352C365.715 80.1212 366.965 80.8342 368.386 80.8342C369.78 80.8342 371.016 80.1472 371.776 79.0962ZM370.876 112.999H365.734C364.305 112.999 362.985 112.236 362.271 110.999L359.699 106.546C358.985 105.309 358.985 103.784 359.699 102.546L362.271 98.0932C362.985 96.8552 364.305 96.0932 365.734 96.0932H370.876C372.305 96.0932 373.627 96.8552 374.342 98.0932L376.912 102.546C377.626 103.784 377.626 105.309 376.912 106.546L374.342 110.999C373.627 112.236 372.305 112.999 370.876 112.999ZM337.306 32.5812V26.5692C337.306 23.1862 338.161 20.0012 339.66 17.2112C339.903 16.7612 340.163 16.3202 340.438 15.8912C341.176 14.7382 342.449 14.0382 343.819 14.0382H348C353.104 14.0382 357.265 18.1142 357.422 23.1812C357.425 23.2782 357.435 23.3742 357.435 23.4732V30.7772C357.435 35.9882 353.211 40.2122 348 40.2122H341.732C339.915 40.2122 338.286 38.9982 337.859 37.2312C337.499 35.7402 337.306 34.1832 337.306 32.5812ZM378.162 4.94021V3.60421C378.162 1.61321 376.549 -0.000793457 374.558 -0.000793457H360.983C358.992 -0.000793457 357.379 1.61321 357.379 3.60421V4.73321H357.142C345.082 4.73321 335.306 14.5092 335.306 26.5692V32.5812C335.306 44.6412 345.082 54.4182 357.143 54.4182H361.419C364.671 54.4182 367.305 57.0542 367.305 60.3052V72.4002C367.305 72.4742 367.333 72.5402 367.349 72.6102C365.771 73.0162 364.554 74.3112 364.272 75.9352C362.762 76.8072 355.788 81.1722 354.132 88.3742C353.133 92.7112 354.276 97.1862 357.527 101.675C357.593 101.767 357.685 101.822 357.772 101.883L356.525 104.046C356.346 104.356 356.346 104.737 356.525 105.046L361.982 114.499C362.161 114.808 362.491 114.999 362.848 114.999H373.764C374.12 114.999 374.45 114.808 374.629 114.499L380.087 105.046C380.265 104.737 380.265 104.356 380.087 104.046L378.839 101.883C378.926 101.822 379.018 101.767 379.084 101.675C382.336 97.1862 383.477 92.7112 382.48 88.3742C380.883 81.4352 374.334 77.1192 372.508 76.0332C372.252 74.3112 370.956 72.9292 369.272 72.5632C369.282 72.5082 369.305 72.4572 369.305 72.4002V60.3052C369.305 57.0542 371.942 54.4182 375.193 54.4182C387.253 54.4182 397.029 44.6412 397.029 32.5812V26.5692C397.029 15.5372 388.803 6.39421 378.162 4.94021Z" fill="#1F2225"/>
<path fill-rule="evenodd" clip-rule="evenodd" d="M387.785 27.1315C387.766 27.1315 387.75 27.1415 387.732 27.1425C387.206 27.1715 386.785 27.5975 386.785 28.1315C386.785 32.7585 383.02 36.5235 378.393 36.5235H374.928C370.301 36.5235 366.536 32.7585 366.536 28.1315C366.536 25.3075 367.944 22.6885 370.303 21.1275C370.764 20.8225 370.89 20.2025 370.585 19.7415C370.281 19.2805 369.66 19.1545 369.2 19.4595C366.279 21.3925 364.536 24.6335 364.536 28.1315C364.536 33.6495 368.863 38.1645 374.3 38.4915C374.509 38.5045 374.716 38.5235 374.928 38.5235H378.393C384.123 38.5235 388.785 33.8615 388.785 28.1315C388.785 27.5795 388.337 27.1315 387.785 27.1315ZM374.928 19.7394H378.394C378.927 19.7394 379.354 19.3184 379.383 18.7924C379.384 18.7744 379.394 18.7584 379.394 18.7394C379.394 18.1874 378.946 17.7394 378.394 17.7394H376.036H374.928C374.376 17.7394 373.928 18.1874 373.928 18.7394C373.928 19.2914 374.376 19.7394 374.928 19.7394Z" fill="#1F2225"/>
<path fill-rule="evenodd" clip-rule="evenodd" d="M375.459 25.1247H377.863C379.521 25.1247 380.87 26.4737 380.87 28.1317C380.87 29.7897 379.521 31.1377 377.863 31.1377H375.459C373.801 31.1377 372.453 29.7897 372.453 28.1317C372.453 26.4737 373.801 25.1247 375.459 25.1247ZM375.459 33.1377H377.863C380.624 33.1377 382.87 30.8927 382.87 28.1317C382.87 25.3707 380.624 23.1247 377.863 23.1247H375.459C372.698 23.1247 370.453 25.3707 370.453 28.1317C370.453 30.8927 372.698 33.1377 375.459 33.1377ZM368.306 107.056C366.922 107.056 365.796 105.93 365.796 104.546C365.796 103.162 366.922 102.036 368.306 102.036C369.69 102.036 370.816 103.162 370.816 104.546C370.816 105.93 369.69 107.056 368.306 107.056ZM368.306 100.036C365.819 100.036 363.796 102.059 363.796 104.546C363.796 107.033 365.819 109.056 368.306 109.056C370.793 109.056 372.816 107.033 372.816 104.546C372.816 102.059 370.793 100.036 368.306 100.036ZM107.349 200.015H119.088C119.641 200.015 120.088 199.567 120.088 199.015C120.088 198.463 119.641 198.015 119.088 198.015H107.349C106.797 198.015 106.349 198.463 106.349 199.015C106.349 199.567 106.797 200.015 107.349 200.015Z" fill="#1F2225"/>
<path fill-rule="evenodd" clip-rule="evenodd" d="M130.046 200.558C127.769 198.961 125.004 198.016 122.018 198.016C121.466 198.016 121.018 198.463 121.018 199.016C121.018 199.568 121.466 200.016 122.018 200.016C128.648 200.016 134.041 205.409 134.041 212.038V214.168C134.041 214.197 134.036 214.225 134.036 214.255C134.028 215.292 133.879 216.295 133.624 217.255C132.256 222.391 127.579 226.19 122.018 226.19H102.149C96.4607 226.19 91.6937 222.216 90.4507 216.901C90.2477 216.031 90.1297 215.129 90.1277 214.199C90.1277 214.188 90.1257 214.178 90.1257 214.168V212.038C90.1257 205.409 95.5197 200.016 102.149 200.016C102.701 200.016 103.149 199.568 103.149 199.016C103.149 198.463 102.701 198.016 102.149 198.016C99.1627 198.016 96.3977 198.961 94.1207 200.558C92.7777 201.499 91.6087 202.669 90.6677 204.011C89.0707 206.288 88.1257 209.053 88.1257 212.038V214.168C88.1257 221.9 94.4167 228.19 102.149 228.19H122.018C129.75 228.19 136.041 221.9 136.041 214.168V212.038C136.041 209.053 135.095 206.287 133.498 204.011C132.557 202.668 131.388 201.5 130.046 200.558ZM40.6067 223.49H38.7947C38.2417 223.49 37.7937 223.938 37.7937 224.49C37.7937 225.042 38.2417 225.49 38.7947 225.49H40.6067C41.1587 225.49 41.6067 225.042 41.6067 224.49C41.6067 223.938 41.1587 223.49 40.6067 223.49Z" fill="#1F2225"/>
<path fill-rule="evenodd" clip-rule="evenodd" d="M143.32 221.953C143.335 221.624 143.345 221.295 143.345 220.963V212.547C143.345 210.64 143.098 208.791 142.637 207.027C143.035 207.211 143.419 207.418 143.779 207.661C145.145 208.583 146.208 209.913 146.812 211.471L147.309 213.471C147.343 213.773 147.365 214.08 147.365 214.392V214.943C147.365 217.742 145.941 220.214 143.779 221.674C143.631 221.774 143.475 221.863 143.32 221.953ZM141.853 204.629C138.786 196.777 131.305 191.121 122.475 190.735V189.582C122.475 187.591 120.861 185.977 118.87 185.977H105.297C104.81 185.977 104.346 186.077 103.922 186.252V174.604C103.922 173.5 104.818 172.604 105.922 172.604H106.336C108.545 172.604 110.336 174.395 110.336 176.604V181.081C110.336 181.634 110.783 182.081 111.336 182.081C111.888 182.081 112.336 181.634 112.336 181.081V176.604C112.336 174.395 114.126 172.604 116.336 172.604H122.756V178.805C122.756 183.175 126.045 186.996 130.405 187.288C135.186 187.608 139.179 183.809 139.179 179.096V172.604H145.788C146.786 172.604 147.596 173.413 147.596 174.412V177.025C147.596 178.129 148.491 179.025 149.596 179.025C150.245 179.025 150.809 179.512 150.858 180.16C151.168 184.241 152.888 187.994 155.609 190.857V191.032V191.045L155.61 205.701C155.679 207.303 156.317 209.748 157.996 211.471H148.931C147.922 208.135 145.233 205.532 141.853 204.629ZM141.345 220.963C141.345 221.414 141.307 221.856 141.278 222.3C140.607 232.293 132.517 240.263 122.475 240.75V236.533V233.666C122.475 232.397 121.443 231.364 120.173 231.364H103.994C102.724 231.364 101.692 232.397 101.692 233.666V236.533V240.75C91.6496 240.263 83.5596 232.293 82.8886 222.299C82.8586 221.855 82.8206 221.414 82.8206 220.963V212.547C82.8206 201.609 91.7196 192.71 102.658 192.71H121.509C132.447 192.71 141.345 201.609 141.345 212.547V220.963ZM120.475 236.581V240.799H103.692V236.581V235.668C103.692 235.501 103.827 235.366 103.994 235.366H120.173C120.34 235.366 120.475 235.501 120.475 235.668V236.581ZM103.692 189.582C103.692 188.697 104.412 187.977 105.297 187.977H118.871C119.756 187.977 120.475 188.697 120.475 189.582V190.71H103.692V189.582ZM103.922 152.168C103.922 151.064 104.818 150.168 105.922 150.168H122.756V168.604C122.756 169.709 121.86 170.604 120.756 170.604H105.922C104.818 170.604 103.922 169.709 103.922 168.604V152.168ZM103.922 148.168H110.336V138.95H103.922V148.168ZM103.922 56.4103C103.922 54.2013 105.713 52.4103 107.922 52.4103H160.423C162.632 52.4103 164.423 54.2013 164.423 56.4103V132.95C164.423 135.159 162.632 136.95 160.423 136.95H119.549C118.997 136.95 118.549 137.398 118.549 137.95C118.549 138.502 118.997 138.95 119.549 138.95H120.756C121.86 138.95 122.756 139.846 122.756 140.95V148.168H112.336V138.95H113.195C113.747 138.95 114.195 138.502 114.195 137.95C114.195 137.398 113.747 136.95 113.195 136.95H107.922C105.713 136.95 103.922 135.159 103.922 132.95V56.4103ZM103.922 48.1713C103.922 43.8743 107.405 40.3913 111.702 40.3913H267.221H267.28C269.607 40.3993 270.766 43.2133 269.12 44.8583L255.731 58.2473C254.693 59.2863 253.008 59.2863 251.969 58.2473L249.406 55.6843C249.018 55.2953 248.381 55.2953 247.992 55.6843L245.466 58.2103C241.859 55.9313 237.943 54.3063 233.805 53.3713V49.8073C233.805 49.2553 233.357 48.8073 232.805 48.8073H220.785H218.236H211.024C209.144 48.8073 207.62 50.3313 207.62 52.2113V56.3153C207.62 56.6963 207.49 56.9723 207.329 57.1743C207.019 57.3483 206.711 57.5273 206.405 57.7093C206.093 57.7573 205.649 57.7273 205.244 57.3293C204.806 56.8983 204.413 56.4743 204.105 56.1283C203.425 55.3653 202.448 54.9493 201.419 55.0003L193.613 55.3503C192.764 55.3893 191.96 55.7433 191.359 56.3443L185.856 61.8473C185.483 62.2203 184.977 62.4303 184.449 62.4303H170.423C168.214 62.4303 166.423 60.6393 166.423 58.4303V53.4103C166.423 51.7533 165.08 50.4103 163.423 50.4103H103.922V48.1713ZM275.002 48.1133V48.1713V203.69C275.002 207.987 271.519 211.471 267.221 211.471C265.542 211.471 264.181 210.109 264.181 208.431V183.634C264.181 183.081 263.734 182.634 263.181 182.634H256.963C254.754 182.634 252.963 180.843 252.963 178.634V120.504L259.708 113.759C260.098 113.368 260.098 112.735 259.708 112.345L257.182 109.818C259.462 106.21 261.087 102.295 262.021 98.1573H265.585C266.137 98.1573 266.585 97.7093 266.585 97.1573V82.5883C266.585 82.0363 266.137 81.5883 265.585 81.5883H262.021C261.087 77.4503 259.462 73.5343 257.182 69.9273L259.708 67.4003C260.099 67.0103 260.098 66.3773 259.708 65.9863L257.145 63.4233C256.106 62.3843 256.106 60.7003 257.145 59.6613L270.461 46.3463C272.098 44.7083 274.985 45.7973 275.002 48.1133ZM200.08 57.2383L191.625 65.6933H184.838L192.773 57.7583C193.021 57.5103 193.351 57.3643 193.703 57.3493L199.814 57.0743L200.264 57.0543L200.08 57.2383ZM191.625 114.052L200.17 122.596L193.708 122.385C193.35 122.373 193.014 122.227 192.761 121.974L184.838 114.052H191.625ZM178.244 96.1573C177.47 96.1573 176.84 95.5273 176.84 94.7533V84.9923C176.84 84.2183 177.47 83.5883 178.305 83.5883H184.455V96.1573H178.244ZM185.455 98.1573H189.02C189.954 102.295 191.579 106.211 193.858 109.818L191.625 112.052H184.851C184.863 112.038 184.867 112.022 184.88 112.01C185.977 110.912 186.193 109.216 185.404 107.884C183.701 105.008 182.418 101.917 181.592 98.6983C181.544 98.5103 181.48 98.3293 181.403 98.1573H185.455ZM211.024 128.937C210.25 128.937 209.62 128.307 209.62 127.533V123.753C212.054 124.899 214.599 125.778 217.236 126.373V128.937H211.024ZM192.262 132.358C192.293 132.203 192.332 132.05 192.332 131.888V129.486C192.332 129.262 192.515 129.079 192.739 129.079H198.411V129.836C196.243 130.359 194.184 131.21 192.262 132.358ZM183.665 166.094L187.201 169.63C187.101 169.786 187.012 169.937 186.939 170.074C186.871 170.198 186.716 170.27 186.577 170.271L182.618 170.141C182.514 170.138 182.416 170.096 182.343 170.023L178.414 166.094H183.665ZM179.225 148.264V154.791H173.92C173.882 154.791 173.851 154.808 173.815 154.812C173.728 154.803 173.642 154.791 173.553 154.791C173.329 154.791 173.147 154.608 173.147 154.384V148.671C173.147 148.447 173.329 148.264 173.59 148.264C173.756 148.264 173.916 148.242 174.074 148.209C174.161 148.235 174.248 148.264 174.343 148.264H179.225ZM178.414 136.961L182.35 133.025C182.423 132.953 182.518 132.911 182.62 132.907L186.729 132.722L187.188 132.702C187.311 132.695 187.426 132.744 187.507 132.833C187.547 132.879 187.598 132.933 187.643 132.983L187.362 133.263L183.597 137.029C183.491 136.991 183.381 136.961 183.262 136.961H178.414ZM178.199 138.958C178.205 138.958 178.21 138.961 178.216 138.961H183.262C183.381 138.961 183.491 138.932 183.597 138.893L184.617 139.914C183.407 141.892 182.524 144.022 181.982 146.264H181.027H180.225H175.974C176.449 144.491 177.16 142.786 178.101 141.197C178.512 140.503 178.535 139.67 178.199 138.958ZM178.101 161.858C177.16 160.269 176.449 158.565 175.975 156.791H180.194C180.199 156.791 180.204 156.788 180.21 156.787C180.215 156.788 180.219 156.791 180.225 156.791H181.982C182.524 159.033 183.407 161.162 184.617 163.141L183.665 164.094H178.207C178.536 163.391 178.513 162.555 178.101 161.858ZM198.411 173.22V173.976H192.739C192.515 173.976 192.332 173.794 192.332 173.569V170.736C194.235 171.864 196.27 172.703 198.411 173.22ZM220.623 140.327C222.07 142.512 223.066 144.912 223.584 147.463C223.679 147.929 224.089 148.264 224.564 148.264H226.123V154.791H224.564C224.089 154.791 223.679 155.126 223.584 155.592C223.066 158.142 222.07 160.543 220.623 162.728C220.361 163.125 220.413 163.652 220.75 163.988L221.856 165.094L217.24 169.709L216.134 168.603C215.798 168.267 215.272 168.213 214.875 168.476C212.69 169.924 210.289 170.92 207.739 171.437C207.273 171.532 206.938 171.942 206.938 172.417V173.976H200.411V172.417C200.411 171.942 200.076 171.532 199.61 171.437C197.059 170.92 194.658 169.924 192.473 168.476C192.077 168.213 191.55 168.267 191.214 168.603L190.108 169.709L185.493 165.094L186.599 163.988C186.935 163.651 186.988 163.125 186.725 162.728C185.278 160.543 184.282 158.142 183.764 155.592C183.67 155.126 183.26 154.791 182.784 154.791H181.225V148.264H182.784C183.26 148.264 183.67 147.929 183.764 147.463C184.282 144.912 185.278 142.512 186.725 140.327C186.988 139.93 186.935 139.404 186.599 139.067L185.493 137.961L190.108 133.346L191.214 134.452C191.55 134.789 192.076 134.841 192.473 134.579C194.658 133.132 197.06 132.136 199.61 131.618C200.076 131.523 200.411 131.113 200.411 130.638V129.079H206.938V130.638C206.938 131.113 207.273 131.523 207.738 131.618C210.289 132.136 212.69 133.132 214.875 134.579C215.273 134.841 215.798 134.789 216.134 134.452L217.24 133.346L221.856 137.961L220.75 139.067C220.413 139.403 220.361 139.93 220.623 140.327ZM209.62 55.9923V52.2113C209.62 51.4373 210.25 50.8073 211.024 50.8073H217.236V53.3713C214.599 53.9673 212.054 54.8453 209.62 55.9923ZM218.423 55.1623C218.894 55.0663 219.236 54.6613 219.236 54.1803V52.3573C219.236 51.5013 219.929 50.8073 220.785 50.8073H230.256C231.111 50.8073 231.805 51.5013 231.805 52.3573V54.1803C231.805 54.6613 232.147 55.0663 232.618 55.1623C237.056 56.0643 241.235 57.7983 245.039 60.3153C245.44 60.5813 245.968 60.5363 246.309 60.1963L247.285 59.2193C248.066 58.4383 249.333 58.4383 250.113 59.2193L256.173 65.2793C256.954 66.0603 256.954 67.3273 256.173 68.1073L255.196 69.0843C254.857 69.4243 254.811 69.9533 255.076 70.3533C257.593 74.1573 259.328 78.3363 260.231 82.7753C260.326 83.2463 260.732 83.5883 261.213 83.5883H263.036C263.891 83.5883 264.585 84.2813 264.585 85.1373V94.6073C264.585 95.4633 263.891 96.1573 263.036 96.1573H261.213C260.732 96.1573 260.326 96.4983 260.231 96.9703C259.328 101.408 257.593 105.588 255.076 109.391C254.811 109.792 254.857 110.321 255.196 110.661L256.491 111.956C257.096 112.561 257.096 113.542 256.491 114.147L249.795 120.844C249.19 121.449 248.209 121.449 247.604 120.844L246.309 119.549C245.969 119.209 245.44 119.163 245.039 119.429C241.237 121.946 237.057 123.68 232.618 124.582C232.147 124.678 231.805 125.084 231.805 125.565V128.937H220.785C219.929 128.937 219.236 128.243 219.236 127.388V125.565C219.236 125.084 218.894 124.678 218.423 124.582C213.984 123.68 209.804 121.946 206.001 119.429C205.6 119.163 205.071 119.209 204.732 119.549L203.436 120.844C202.831 121.449 201.85 121.449 201.245 120.844L194.549 114.147C193.944 113.542 193.944 112.561 194.549 111.956L195.844 110.661C196.184 110.321 196.229 109.792 195.964 109.391C193.446 105.588 191.713 101.409 190.81 96.9703C190.714 96.4983 190.309 96.1573 189.828 96.1573H188.005C187.149 96.1573 186.455 95.4633 186.455 94.6073V85.1373C186.455 84.2813 187.149 83.5883 188.005 83.5883H189.828C190.309 83.5883 190.714 83.2463 190.81 82.7753C191.713 78.3353 193.447 74.1563 195.964 70.3533C196.229 69.9523 196.184 69.4243 195.844 69.0843L194.549 67.7883C193.944 67.1833 193.944 66.2033 194.549 65.5983L201.245 58.9013C201.85 58.2953 202.831 58.2953 203.436 58.9013L204.732 60.1963C205.071 60.5363 205.6 60.5813 206.002 60.3153C209.806 57.7983 213.985 56.0643 218.423 55.1623ZM184.837 67.6933H191.625L193.858 69.9273C191.579 73.5333 189.954 77.4493 189.02 81.5883H185.455H181.403C181.48 81.4153 181.544 81.2343 181.592 81.0463C182.418 77.8273 183.701 74.7363 185.404 71.8603C186.191 70.5313 185.977 68.8393 184.837 67.6933ZM262.181 208.48C262.181 210.137 260.838 211.48 259.181 211.48H250.162H187.051C185.395 211.48 184.051 210.137 184.051 208.48V187.634C184.051 185.977 185.395 184.634 187.051 184.634H197.382H239.532C240.084 184.634 240.532 184.186 240.532 183.634C240.532 183.081 240.084 182.634 239.532 182.634H197.382H183.051H171.032C170.48 182.634 170.032 183.081 170.032 183.634V190.048C170.032 190.821 169.405 191.448 168.632 191.448H168.628C168.076 191.448 167.628 191.896 167.628 192.448V193.368C167.628 194.132 166.879 194.672 166.154 194.43L163.382 193.506C161.17 192.769 159.22 191.561 157.609 190.027V180.295C157.609 179.593 158.177 179.025 158.878 179.025H159.615C160.72 179.025 161.615 178.129 161.615 177.025V174.412C161.615 173.413 162.424 172.604 163.423 172.604C165.08 172.604 166.423 171.261 166.423 169.604V151.168C166.423 149.512 165.08 148.168 163.423 148.168H159.609C158.504 148.168 157.609 147.273 157.609 146.168V140.95C157.609 139.846 158.504 138.95 159.609 138.95H163.423C165.08 138.95 166.423 137.607 166.423 135.95V68.4303C166.423 66.2213 168.214 64.4303 170.423 64.4303H180.309C181.499 64.4303 182.455 65.4033 182.435 66.5923L182.434 66.6203C182.432 66.6463 182.42 66.6673 182.42 66.6933C182.42 66.7193 182.432 66.7403 182.434 66.7653C182.457 67.6393 182.809 68.5153 183.509 69.1913C183.959 69.6263 183.983 70.3333 183.665 70.8713C181.874 73.9023 180.525 77.1583 179.654 80.5493C179.498 81.1613 178.943 81.5883 178.244 81.5883H178.144C178.108 81.5883 178.078 81.6043 178.043 81.6083C176.261 81.7143 174.84 83.1833 174.84 84.9923V94.7533C174.84 96.6413 176.386 98.1763 178.342 98.1563C178.968 98.1503 179.499 98.5903 179.654 99.1963C180.528 102.599 181.883 105.864 183.683 108.904C183.992 109.425 183.924 110.084 183.478 110.578C182.195 112.001 182.062 114.103 183.417 115.458L191.347 123.389C191.958 123.999 192.778 124.355 193.642 124.384L200.407 124.605C200.959 124.616 201.487 124.497 201.961 124.278C202.323 124.427 202.754 124.354 203.048 124.06L205.353 121.755L205.574 121.535C205.632 121.571 205.69 121.603 205.747 121.639C206.362 122.023 206.988 122.384 207.62 122.729V127.079H199.411C199.275 127.079 199.146 127.107 199.028 127.156C198.842 127.11 198.651 127.079 198.452 127.079H192.739C191.41 127.079 190.332 128.157 190.332 129.486V130.975C190.007 130.9 189.654 130.972 189.401 131.225L189.059 131.567C189.04 131.547 189.017 131.522 188.999 131.502C188.518 130.962 187.836 130.677 187.098 130.703L182.53 130.909C181.93 130.935 181.361 131.186 180.936 131.611L176.288 136.26C175.352 137.196 175.349 138.718 176.31 139.685C176.441 139.817 176.479 140.011 176.384 140.171C175.309 141.985 174.499 143.936 173.978 145.968C173.933 146.142 173.774 146.264 173.553 146.264C172.226 146.264 171.147 147.344 171.147 148.671V154.384C171.147 155.708 172.221 156.786 173.58 156.79C173.766 156.791 173.93 156.901 173.976 157.081C174.497 159.113 175.306 161.063 176.381 162.877C176.469 163.028 176.448 163.219 176.304 163.375C175.392 164.362 175.562 166.07 176.512 167.02L180.928 171.436C181.36 171.869 181.941 172.12 182.552 172.14L186.512 172.27C187.385 172.296 188.213 171.842 188.654 171.083L189.401 171.83C189.654 172.083 190.007 172.155 190.332 172.079V173.569C190.332 174.899 191.41 175.976 192.739 175.976H198.452C198.651 175.976 198.842 175.945 199.027 175.899C199.145 175.948 199.275 175.976 199.411 175.976H207.938C208.49 175.976 208.938 175.529 208.938 174.976V173.22C211.18 172.678 213.309 171.794 215.288 170.584L216.533 171.83C216.924 172.221 217.557 172.221 217.947 171.83L223.976 165.801C224.367 165.411 224.367 164.777 223.977 164.387L222.731 163.14C223.941 161.162 224.824 159.033 225.366 156.791H227.123C227.675 156.791 228.123 156.343 228.123 155.791V147.264C228.123 146.712 227.675 146.264 227.123 146.264H225.366C224.824 144.022 223.941 141.892 222.731 139.914L223.977 138.668C224.367 138.278 224.367 137.645 223.977 137.254L217.947 131.225C217.758 131.036 217.513 130.943 217.265 130.937H218.236H220.785H232.805C233.357 130.937 233.805 130.489 233.805 129.937V126.373C237.944 125.438 241.86 123.814 245.466 121.535L247.992 124.06C248.383 124.451 249.016 124.451 249.406 124.06L250.963 122.504V180.634C250.963 181.738 250.068 182.634 248.963 182.634H244.527C243.974 182.634 243.527 183.081 243.527 183.634C243.527 184.186 243.974 184.634 244.527 184.634H259.181C260.838 184.634 262.181 185.977 262.181 187.634V208.48ZM182.051 208.073C182.051 209.955 180.526 211.48 178.644 211.48H175.439C173.557 211.48 172.032 209.955 172.032 208.073C172.032 206.192 173.557 204.666 175.439 204.666H176.641C177.194 204.666 177.641 204.219 177.641 203.666V192.448C177.641 191.896 177.194 191.448 176.641 191.448H175.439C173.557 191.448 172.032 189.923 172.032 188.041V188.04C172.032 186.159 173.557 184.634 175.439 184.634H178.644C180.526 184.634 182.051 186.159 182.051 188.04V208.073ZM169.628 200.666V195.448C169.628 194.344 170.524 193.448 171.628 193.448H173.641C174.746 193.448 175.641 194.344 175.641 195.448V200.666C175.641 201.771 174.746 202.666 173.641 202.666H171.628C170.524 202.666 169.628 201.771 169.628 200.666ZM157.812 192.824C159.281 193.921 160.939 194.8 162.749 195.404L166.862 196.775C167.32 196.928 167.628 197.355 167.628 197.837V197.843C167.628 198.406 167.21 198.884 166.653 198.961C164.675 199.233 162.681 198.76 160.997 197.57C159.345 196.405 158.24 194.729 157.812 192.824ZM145.099 168.795C145.099 167.801 145.904 166.995 146.899 166.995H162.623C163.617 166.995 164.423 167.801 164.423 168.795V168.805C164.423 169.798 163.617 170.604 162.623 170.604H146.899C145.904 170.604 145.099 169.798 145.099 168.805V168.795ZM163.423 150.168C163.975 150.168 164.423 150.616 164.423 151.168V159.017C164.423 162.336 161.734 165.024 158.415 165.017C156.082 165.013 153.416 165.008 151.085 165.004C147.775 164.999 145.099 162.314 145.099 159.004V150.168H163.423ZM139.179 148.168V140.95C139.179 139.846 140.074 138.95 141.179 138.95H153.609C154.713 138.95 155.609 139.846 155.609 140.95V146.168C155.609 147.273 154.713 148.168 153.609 148.168H139.179ZM124.756 148.168V140.95C124.756 139.846 125.651 138.95 126.756 138.95H135.179C136.283 138.95 137.179 139.846 137.179 140.95V148.168H124.756ZM137.179 174.604V178.879C137.179 182.036 134.916 184.853 131.785 185.254C127.997 185.741 124.756 182.789 124.756 179.096V174.604C124.756 173.5 125.651 172.604 126.756 172.604H135.179C136.283 172.604 137.179 173.5 137.179 174.604ZM138.179 156.387C137.627 156.387 137.179 156.835 137.179 157.387V170.604H126.756C125.651 170.604 124.756 169.709 124.756 168.604V150.168H143.099V170.401C143.099 170.473 143.125 170.536 143.14 170.604H141.179C140.074 170.604 139.179 169.709 139.179 168.604V157.387C139.179 156.835 138.731 156.387 138.179 156.387ZM155.609 180.295V187.712C154.12 185.59 153.165 183.095 152.89 180.428C152.812 179.679 153.406 179.025 154.16 179.025H154.339C155.04 179.025 155.609 179.593 155.609 180.295ZM149.596 174.814C149.596 173.594 150.585 172.604 151.806 172.604H157.406C158.627 172.604 159.616 173.594 159.617 174.814C159.617 176.035 158.627 177.025 157.406 177.025H151.806C150.585 177.025 149.596 176.035 149.596 174.814ZM170.032 210.071C170.032 210.844 169.405 211.471 168.632 211.471H162.881C157.949 211.364 157.619 205.849 157.609 205.658V197.024C158.228 197.844 158.967 198.586 159.843 199.204C161.57 200.423 163.557 201.048 165.579 201.048C165.847 201.048 166.116 201.035 166.384 201.012C167.049 200.953 167.628 201.453 167.628 202.121V203.666C167.628 204.219 168.076 204.666 168.628 204.666H168.632C169.405 204.666 170.032 205.293 170.032 206.066V210.071ZM80.8206 212.547V220.963C80.8206 221.245 80.8316 221.524 80.8416 221.803C80.7726 221.759 80.6986 221.72 80.6296 221.674C78.4686 220.214 77.0446 217.742 77.0446 214.943V214.392C77.0446 211.593 78.4686 209.121 80.6296 207.661C80.9046 207.475 81.1966 207.312 81.4946 207.161C81.0556 208.884 80.8206 210.688 80.8206 212.547ZM74.5416 79.5813H75.5446C76.6486 79.5813 77.5446 80.4773 77.5446 81.5813V83.5943C77.5446 84.6993 76.6486 85.5943 75.5446 85.5943H74.5416C72.8816 85.5943 71.5346 84.2483 71.5346 82.5883C71.5346 80.9273 72.8816 79.5813 74.5416 79.5813ZM69.6266 85.5943H68.9286C67.2706 85.5943 65.9226 84.2453 65.9226 82.5883C65.9226 80.9303 67.2706 79.5813 68.9286 79.5813H69.6266V85.5943ZM303.605 223.49H297.596C292.736 223.49 288.972 219.462 289.021 214.601C289.021 214.564 289.022 214.527 289.022 214.49V177.971C289.022 177.418 288.574 176.971 288.022 176.971C287.469 176.971 287.022 177.418 287.022 177.971V214.49C287.022 219.461 282.992 223.49 278.022 223.49H265.27H245.969H144.636C147.472 221.696 149.365 218.54 149.365 214.943V214.392C149.365 214.081 149.346 213.774 149.318 213.471H162.849C162.908 213.472 162.96 213.48 163.019 213.48C165.189 213.48 166.836 214.071 167.917 215.236C169.613 217.064 169.43 219.781 169.428 219.805C169.383 220.355 169.793 220.838 170.343 220.883C170.371 220.885 170.399 220.886 170.426 220.886C170.941 220.886 171.379 220.491 171.422 219.968C171.434 219.822 171.687 216.376 169.399 213.892C169.26 213.743 169.111 213.606 168.961 213.471H170.984C171.001 213.472 171.015 213.48 171.032 213.48H183.051H251.162H263.181C263.198 213.48 263.213 213.472 263.23 213.471H267.221C272.623 213.471 277.002 209.092 277.002 203.69V48.1713C277.002 45.4853 275.913 43.0493 274.153 41.2803C274.147 41.2723 274.145 41.2633 274.137 41.2553C274.13 41.2483 274.12 41.2463 274.113 41.2393C272.343 39.4803 269.907 38.3913 267.221 38.3913H111.702C106.301 38.3913 101.922 42.7693 101.922 48.1713V51.4103V137.95V149.168V171.604V188.351C101.781 188.737 101.692 189.148 101.692 189.582V190.735C98.1436 190.89 94.8166 191.898 91.9026 193.555V84.2703C91.9026 83.7183 91.4546 83.2703 90.9026 83.2703C90.3496 83.2703 89.9026 83.7183 89.9026 84.2703V194.84C86.4946 197.301 83.8236 200.719 82.2856 204.698C78.9006 205.704 76.2496 208.433 75.3636 211.867C75.1416 212.726 74.4056 213.351 73.5186 213.351H73.5166C72.4726 213.351 71.6266 212.505 71.6266 211.461V91.5943C71.6266 89.3853 73.4176 87.5943 75.6266 87.5943H76.5446C78.2006 87.5943 79.5446 86.2513 79.5446 84.5943V80.5813C79.5446 78.9253 78.2006 77.5813 76.5446 77.5813H69.1516C66.5376 77.5813 64.1996 79.4873 63.9466 82.0883C63.6556 85.0723 66.0026 87.5943 68.9286 87.5943H69.6266V214.351C69.6266 214.903 70.0746 215.351 70.6266 215.351H75.0646C75.2026 218.777 77.0456 221.765 79.7726 223.49H77.6466H68.8506C63.8796 223.49 59.8506 219.461 59.8506 214.49V37.3713C59.8506 32.4003 63.8796 28.3713 68.8506 28.3713H89.9606C91.5616 28.3713 92.4796 30.1353 91.6186 31.4843C90.5326 33.1863 89.9026 35.2053 89.9026 37.3713V47.0823C89.9026 47.6343 90.3496 48.0823 90.9026 48.0823C91.4546 48.0823 91.9026 47.6343 91.9026 47.0823V37.3713C91.9026 32.4003 95.9316 28.3713 100.903 28.3713H245.969H278.022C282.992 28.3713 287.022 32.4003 287.022 37.3713V168.165C287.022 168.717 287.469 169.165 288.022 169.165C288.574 169.165 289.022 168.717 289.022 168.165V37.3713C289.022 31.2963 284.097 26.3713 278.022 26.3713H245.969H100.903H68.8506C62.7756 26.3713 57.8506 31.2963 57.8506 37.3713V214.49V214.601C57.8996 219.462 54.1366 223.49 49.2766 223.49H45.6046C45.0516 223.49 44.6046 223.938 44.6046 224.49C44.6046 225.042 45.0516 225.49 45.6046 225.49H68.8506H77.6466C79.7006 225.49 81.5106 226.782 82.2406 228.702C85.3706 236.933 93.3406 242.799 102.658 242.799H121.509C130.825 242.799 138.796 236.933 141.926 228.702C142.656 226.782 144.466 225.49 146.52 225.49H245.969H265.27H278.022H303.605C304.157 225.49 304.605 225.042 304.605 224.49C304.605 223.938 304.157 223.49 303.605 223.49Z" fill="#1F2225"/>
</g>
<defs>
<clipPath id="clip0">
<rect width="438" height="270" fill="white"/>
</clipPath>
</defs>
</svg>
