<svg width="254" height="154" viewBox="0 0 254 154" fill="none" xmlns="http://www.w3.org/2000/svg">
<path fill-rule="evenodd" clip-rule="evenodd" d="M92.845 21.9339H240.653C247.472 21.9339 253 27.4619 253 34.2809C253 41.0999 247.472 46.6289 240.653 46.6289H164.104C157.501 46.6289 152.148 51.9819 152.148 58.5849C152.148 65.1879 157.501 70.5409 164.104 70.5409H210.581C226 70.5409 238.5 83.0409 238.5 98.4609C238.5 113.88 226 126.38 210.581 126.38H32.264C15.55 126.38 2 112.83 2 96.1159C2 79.4019 15.55 65.8519 32.264 65.8519H48.927C61.054 65.8519 70.886 56.0199 70.886 43.8929C70.886 31.7649 80.718 21.9339 92.845 21.9339Z" fill="#4F545C" fill-opacity="0.3"/>
<path fill-rule="evenodd" clip-rule="evenodd" d="M68.9349 56.2166L66.0549 51.4386C65.7699 50.9646 65.9219 50.3506 66.3949 50.0656C66.3959 50.0646 66.3959 50.0646 66.3959 50.0646L64.7049 47.2576L64.7039 47.2586C64.5419 47.3566 64.3639 47.4026 64.1879 47.4026C63.8499 47.4026 63.5179 47.2306 63.3309 46.9186L56.0739 34.8786C54.8379 47.1896 61.8599 57.4056 61.9359 57.5156C62.0909 57.7376 62.1499 58.0126 62.0989 58.2796L60.6239 65.8946C63.0589 62.5226 65.8419 59.2616 68.9349 56.2166Z" fill="#737F8D"/>
<path d="M134 35L146 27.5L161 24L170.5 25.5L180 29.5L188.5 35.5L194.5 44L198.5 52.5L200 67L198 75.5L191 87.5L181.5 95.5L178 85L185 73.5L187.5 63.5L185 51L176 41L171.5 37.5L166.5 35L157.5 34.5L149 36.5L143 40L139.5 42.5H135.5L131.5 40L134 35Z" fill="#697184"/>
<path fill-rule="evenodd" clip-rule="evenodd" d="M67.7678 50.4051L70.4158 54.7991C74.7668 50.7431 79.6708 47.1251 85.0378 44.2301C78.1878 36.6371 70.9058 33.9061 65.8578 32.9781C61.9568 32.2611 58.7998 32.4801 57.1018 32.7091L65.0438 45.8851C65.3288 46.3591 65.1768 46.9721 64.7048 47.2581L66.3958 50.0651C66.8688 49.7801 67.4828 49.9311 67.7678 50.4051Z" fill="#67717C"/>
<path fill-rule="evenodd" clip-rule="evenodd" d="M164.879 65.8953L163.405 58.2793C163.354 58.0133 163.412 57.7383 163.567 57.5153C163.644 57.4063 170.659 47.1703 169.429 34.8793L156.568 56.2163C159.662 59.2613 162.444 62.5223 164.879 65.8953Z" fill="#737F8D"/>
<path fill-rule="evenodd" clip-rule="evenodd" d="M159.645 32.9783C154.598 33.9063 147.314 36.6373 140.465 44.2303C145.832 47.1253 150.736 50.7433 155.086 54.7993L168.401 32.7083C166.703 32.4803 163.546 32.2613 159.645 32.9783Z" fill="#67717C"/>
<path fill-rule="evenodd" clip-rule="evenodd" d="M176.121 121.962C176.121 119.962 174.574 118.336 172.616 118.172C172.839 120.666 173.07 123.231 173.287 125.637C174.914 125.198 176.121 123.725 176.121 121.962Z" fill="#718DD8"/>
<path fill-rule="evenodd" clip-rule="evenodd" d="M70.407 135.871L71.259 121.955C69.748 121.425 68.313 120.856 66.958 120.248C67.247 121.217 67.427 122.22 67.472 123.252C67.484 123.502 67.461 123.748 67.457 123.997L67.898 132.767C67.946 133.816 67.852 134.853 67.644 135.871H70.407Z" fill="#55689E"/>
<path fill-rule="evenodd" clip-rule="evenodd" d="M153.092 135.871L152.28 122.606C142.234 125.778 129.055 127.381 112.751 127.381C96.4474 127.381 83.2694 125.778 73.2224 122.606L72.4104 135.871H153.092Z" fill="#718DD8"/>
<path fill-rule="evenodd" clip-rule="evenodd" d="M154.244 121.955L155.096 135.871H172.204C171.868 132.159 170.793 120.316 170.082 112.269C166.428 116.304 161.141 119.532 154.244 121.955Z" fill="#55689E"/>
<path fill-rule="evenodd" clip-rule="evenodd" d="M89.8416 95.0448H76.2067C75.6547 95.0448 75.2067 94.5978 75.2067 94.0448C75.2067 93.4918 75.6547 93.0448 76.2067 93.0448H89.8416C90.3936 93.0448 90.8416 93.4918 90.8416 94.0448C90.8416 94.5978 90.3936 95.0448 89.8416 95.0448ZM131.458 95.0448C130.905 95.0448 130.458 94.5978 130.458 94.0448C130.458 93.4918 130.905 93.0448 131.458 93.0448H145.092C145.645 93.0448 146.092 93.4918 146.092 94.0448C146.092 94.5978 145.645 95.0448 145.092 95.0448H131.458ZM104.755 108.274C104.505 107.977 104.45 107.562 104.614 107.209C104.779 106.858 105.132 106.632 105.521 106.632H119.983C120.371 106.632 120.725 106.858 120.889 107.209C121.053 107.562 120.999 107.977 120.749 108.274L113.518 116.894C113.328 117.12 113.047 117.251 112.752 117.251C112.456 117.251 112.175 117.12 111.986 116.894L104.755 108.274ZM55.7027 84.3238C56.0517 84.3238 56.3757 84.5058 56.5567 84.8038C60.0797 90.5908 60.0797 97.4998 56.5567 103.286C56.3747 103.584 56.0517 103.766 55.7027 103.766H52.5667C53.2687 105.804 54.2637 107.696 55.5527 109.443C60.2217 111.146 63.9397 114.088 65.9177 117.741C76.1077 122.854 91.6587 125.381 112.752 125.381C148.124 125.381 167.937 118.287 172.937 103.766H169.801C169.452 103.766 169.128 103.584 168.946 103.286C165.424 97.4998 165.424 90.5908 168.946 84.8038C169.128 84.5058 169.452 84.3238 169.801 84.3238H172.265C167.145 68.2738 152.313 50.3168 132.458 42.7228V43.3238C132.458 43.7408 132.199 44.1138 131.809 44.2608C125.842 46.4978 119.297 47.6158 112.752 47.6158C106.206 47.6158 99.6607 46.4978 93.6947 44.2608C93.3037 44.1138 93.0457 43.7408 93.0457 43.3238V42.7228C73.1907 50.3168 58.3587 68.2738 53.2377 84.3238H55.7027Z" fill="#737F8D"/>
<path fill-rule="evenodd" clip-rule="evenodd" d="M95.0452 42.6258C106.187 46.6178 119.316 46.6178 130.457 42.6258V38.4838C127.073 40.7778 119.882 41.9638 112.751 41.9638C109.295 41.9638 105.91 41.6888 102.961 41.1658C102.417 41.0698 102.054 40.5518 102.15 40.0078C102.151 40.0018 102.155 39.9988 102.156 39.9928C101.257 39.8108 100.416 39.6068 99.6412 39.3818C99.6382 39.3898 99.6412 39.3978 99.6382 39.4058C99.4622 39.9318 98.8972 40.2118 98.3722 40.0368C96.9072 39.5458 95.8342 39.0158 95.0452 38.4798V42.6258Z" fill="#7A8EC7"/>
<path fill-rule="evenodd" clip-rule="evenodd" d="M102.156 39.993C102.26 39.458 102.766 39.097 103.309 39.197C106.146 39.698 109.41 39.964 112.751 39.964C123.56 39.964 130.457 37.295 130.457 35.458C130.457 33.621 123.56 30.952 112.751 30.952C101.943 30.952 95.0449 33.621 95.0449 35.458C95.0449 36.083 96.0829 37.161 99.0079 38.14C99.5229 38.313 99.7999 38.866 99.6409 39.382C100.416 39.607 101.258 39.811 102.156 39.993Z" fill="#99ABD8"/>
<path fill-rule="evenodd" clip-rule="evenodd" d="M54.9158 94.0448C54.9158 97.2658 54.1628 100.018 52.9558 101.766H55.1298C57.8818 96.8928 57.8818 91.1978 55.1298 86.3238H52.9558C54.1628 88.0708 54.9158 90.8238 54.9158 94.0448Z" fill="#55689E"/>
<path fill-rule="evenodd" clip-rule="evenodd" d="M170.373 101.765H172.548C171.342 100.017 170.588 97.2655 170.588 94.0445C170.588 90.8245 171.342 88.0715 172.548 86.3245H170.373C167.621 91.1985 167.621 96.8925 170.373 101.765Z" fill="#55689E"/>
<path fill-rule="evenodd" clip-rule="evenodd" d="M117.838 108.632H107.664L112.751 114.695L117.838 108.632Z" fill="#EDB4A9"/>
<path fill-rule="evenodd" clip-rule="evenodd" d="M46.5779 94.0448C46.5779 98.4638 48.2509 101.766 49.7469 101.766C51.2429 101.766 52.9159 98.4638 52.9159 94.0448C52.9159 89.6258 51.2429 86.3238 49.7469 86.3238C48.2509 86.3238 46.5779 89.6258 46.5779 94.0448Z" fill="#7A8EC7"/>
<path fill-rule="evenodd" clip-rule="evenodd" d="M178.925 94.0448C178.925 89.6258 177.252 86.3238 175.756 86.3238C174.261 86.3238 172.588 89.6258 172.588 94.0448C172.588 98.4638 174.261 101.766 175.756 101.766C177.252 101.766 178.925 98.4638 178.925 94.0448Z" fill="#7A8EC7"/>
<path fill-rule="evenodd" clip-rule="evenodd" d="M89.6525 27.16C94.0855 27.16 97.6915 23.555 97.6915 19.122C97.6915 14.689 94.0855 11.083 89.6525 11.083C85.2195 11.083 81.6135 14.689 81.6135 19.122C81.6135 23.555 85.2195 27.16 89.6525 27.16Z" fill="#E2B95F"/>
<path fill-rule="evenodd" clip-rule="evenodd" d="M65.9006 132.862L65.7666 130.196C64.7556 132.019 63.3286 133.722 61.4776 135.218C57.5016 138.432 52.1266 140.344 46.3416 140.603C45.8936 140.624 45.4456 140.633 45.0016 140.633C39.7076 140.633 34.7026 139.218 30.7836 136.593C28.7976 135.263 27.2186 133.687 26.0476 131.953L26.1676 134.641C26.3376 138.423 28.5236 141.907 32.3236 144.452C36.2176 147.061 41.3086 148.36 46.6776 148.126C52.0396 147.885 57.0006 146.131 60.6466 143.184C64.2046 140.308 66.0696 136.643 65.9006 132.862Z" fill="#7A8EC7"/>
<path fill-rule="evenodd" clip-rule="evenodd" d="M39.1825 121.521L52.4535 121.472H52.4575C53.0085 121.472 53.4555 121.917 53.4575 122.468C53.4595 123.021 53.0135 123.47 52.4615 123.472L39.1905 123.521H39.1865C38.6355 123.521 38.1885 123.076 38.1865 122.525C38.1845 121.972 38.6305 121.523 39.1825 121.521ZM25.7415 125.121C25.9115 128.902 28.0975 132.386 31.8975 134.931C35.7915 137.541 40.8855 138.841 46.2515 138.605C51.6135 138.365 56.5745 136.61 60.2205 133.663C63.5505 130.972 65.3745 127.586 65.4585 124.064L65.3805 122.501C64.4725 115.291 56.2165 109.829 46.2045 109.829C45.7935 109.829 45.3815 109.837 44.9645 109.856C34.0105 110.347 25.3875 117.195 25.7415 125.121Z" fill="#55689E"/>
<path fill-rule="evenodd" clip-rule="evenodd" d="M116.46 110.274L113.517 113.782C113.118 114.258 112.385 114.258 111.985 113.782L109.043 110.274C108.497 109.623 108.959 108.631 109.809 108.631H115.694C116.543 108.631 117.006 109.623 116.46 110.274ZM111.985 116.893C112.175 117.12 112.456 117.251 112.751 117.251C113.046 117.251 113.327 117.12 113.517 116.893L120.748 108.274C120.998 107.976 121.052 107.561 120.888 107.209C120.724 106.857 120.371 106.631 119.982 106.631H105.52C105.131 106.631 104.778 106.857 104.614 107.209C104.45 107.561 104.504 107.976 104.754 108.274L111.985 116.893Z" fill="#202225"/>
<path fill-rule="evenodd" clip-rule="evenodd" d="M145.092 95.0448C145.644 95.0448 146.092 94.5978 146.092 94.0448C146.092 93.4918 145.644 93.0448 145.092 93.0448H131.457C130.905 93.0448 130.457 93.4918 130.457 94.0448C130.457 94.5978 130.905 95.0448 131.457 95.0448H145.092Z" fill="#202225"/>
<path fill-rule="evenodd" clip-rule="evenodd" d="M89.8415 93.0448H76.2065C75.6545 93.0448 75.2065 93.4918 75.2065 94.0448C75.2065 94.5978 75.6545 95.0448 76.2065 95.0448H89.8415C90.3935 95.0448 90.8415 94.5978 90.8415 94.0448C90.8415 93.4918 90.3935 93.0448 89.8415 93.0448Z" fill="#202225"/>
<path fill-rule="evenodd" clip-rule="evenodd" d="M240.687 135.871H220.2C219.647 135.871 219.2 136.318 219.2 136.871C219.2 137.424 219.647 137.871 220.2 137.871H240.687C241.24 137.871 241.687 137.424 241.687 136.871C241.687 136.318 241.24 135.871 240.687 135.871Z" fill="#202225"/>
<path fill-rule="evenodd" clip-rule="evenodd" d="M215.691 135.871H214.187C213.634 135.871 213.187 136.318 213.187 136.871C213.187 137.424 213.634 137.871 214.187 137.871H215.691C216.244 137.871 216.691 137.424 216.691 136.871C216.691 136.318 216.244 135.871 215.691 135.871Z" fill="#202225"/>
<path d="M119.5 23.5L124.5 26.5L131.5 20.5L142.5 14L143 9L159.5 5.5L162 11L172 12.5L182 15.5L187.5 12L201 21L198 26.5L206 37L210.5 45L216 44.5L219 61.5L213 63.5L209.5 82.5L208.5 85L213 88.5L203 103L198.5 100L190.5 105.5L179.5 112L181 118L177 119.5L172 117V110L174 103.5L177 102.5L179.5 99L183 95.5L194 84L199 73L200 57.5L196 45L188 34.5L178.5 28L166 24.5H155L142 29L132.5 36.5L130 32.5L116 28.5L119.5 23.5Z" fill="#818AA1"/>
<mask id="mask0" mask-type="alpha" maskUnits="userSpaceOnUse" x="16" y="4" width="205" height="147">
<path d="M16.7942 150.154H220.211V4.00024H16.7942V150.154Z" fill="white"/>
</mask>
<g mask="url(#mask0)">
<path fill-rule="evenodd" clip-rule="evenodd" d="M154.36 25.9442C156.652 25.5232 158.938 25.3202 161.189 25.3202C179.031 25.3192 194.931 38.0642 198.267 56.2252C200.965 70.9182 194.71 85.2122 183.394 93.4942C182.356 94.2542 180.876 93.5742 180.747 92.2942C180.574 90.5632 180.205 88.4452 179.432 87.0892C178.564 85.5662 178.996 83.6572 180.244 82.4262C186.449 76.3062 189.625 67.3222 187.935 58.1232C186.626 50.9872 182.605 44.7812 176.614 40.6482C176.16 40.3352 175.537 40.4492 175.223 40.9042C174.91 41.3582 175.024 41.9812 175.479 42.2952C181.029 46.1242 184.755 51.8732 185.968 58.4842C187.544 67.0632 184.553 75.4382 178.731 81.1102C176.886 82.9062 173.833 82.3792 172.766 80.0362C171.344 76.9152 169.372 72.7922 167.741 70.1612L166.438 63.4282C165.84 60.3402 166.297 57.1552 167.659 54.3192C169.985 49.4802 172.856 41.1092 170.991 31.7802C170.989 31.7712 170.984 31.7632 170.982 31.7552C170.977 31.7302 170.964 31.7082 170.957 31.6832C170.93 31.5952 170.892 31.5132 170.842 31.4372C170.824 31.4082 170.805 31.3822 170.784 31.3552C170.715 31.2692 170.636 31.1932 170.543 31.1342C170.537 31.1302 170.533 31.1232 170.527 31.1202C170.526 31.1192 170.524 31.1192 170.523 31.1182C170.442 31.0692 170.353 31.0312 170.258 31.0072C170.073 30.9612 165.658 29.8642 159.388 30.9922C154.826 31.8152 148.56 34.0062 142.341 39.5452C140.019 41.6122 136.754 42.2982 133.867 41.1452C133.795 41.1162 133.722 41.0872 133.65 41.0582C132.934 40.7762 132.457 40.0942 132.457 39.3252C132.457 38.8702 132.618 38.4262 132.919 38.0852C138.318 31.9602 145.725 27.5302 154.36 25.9442ZM67.4722 123.252C67.4722 123.241 67.4712 123.231 67.4712 123.22C67.4102 121.941 68.6312 120.978 69.8292 121.433C69.8932 121.457 69.9582 121.482 70.0232 121.506C70.7522 121.78 71.2262 122.488 71.1782 123.265L70.4532 135.113C70.4272 135.539 70.0742 135.871 69.6482 135.871C69.2402 135.871 68.8972 135.567 68.8462 135.163C68.8462 135.163 67.4842 123.502 67.4722 123.252ZM52.9162 94.0452C52.9162 98.4642 51.2432 101.765 49.7472 101.765C48.2512 101.765 46.5782 98.4642 46.5782 94.0452C46.5782 89.6262 48.2512 86.3242 49.7472 86.3242C51.2432 86.3242 52.9162 89.6262 52.9162 94.0452ZM54.5582 101.765C53.8772 101.765 53.4112 101.068 53.6932 100.448C54.4622 98.7632 54.9162 96.5452 54.9162 94.0452C54.9162 91.5442 54.4622 89.3252 53.6932 87.6412C53.4112 87.0222 53.8772 86.3242 54.5582 86.3242C54.9092 86.3242 55.2412 86.5162 55.4032 86.8282C57.7912 91.4192 57.7912 96.6722 55.4032 101.261C55.2412 101.573 54.9092 101.765 54.5582 101.765ZM112.751 127.381C127.124 127.381 139.068 126.135 148.578 123.667C150.505 123.167 152.401 124.57 152.522 126.556L152.602 127.86C152.868 132.202 149.418 135.871 145.067 135.871H80.4362C76.0852 135.871 72.6352 132.202 72.9012 127.86L72.9812 126.556C73.1022 124.57 74.9992 123.167 76.9252 123.667C86.4352 126.135 98.3792 127.381 112.751 127.381ZM166.391 135.871H160.092C157.285 135.871 154.963 133.686 154.791 130.884L154.382 124.204C154.302 122.896 155.068 121.675 156.288 121.195C159.979 119.743 163.162 118.036 165.831 116.075C167.722 114.686 170.409 115.957 170.618 118.294C170.983 122.368 171.369 126.649 171.681 130.089C171.962 133.198 169.513 135.871 166.391 135.871ZM172.764 119.83C172.68 118.893 173.732 118.315 174.501 118.855C175.48 119.543 176.121 120.675 176.121 121.962C176.121 123.045 175.666 124.018 174.937 124.71C174.294 125.321 173.217 124.868 173.137 123.984C173.015 122.619 172.889 121.221 172.764 119.83ZM151.869 51.9662C149.039 49.6152 146.009 47.4552 142.8 45.5522C141.612 44.8472 141.399 43.1942 142.39 42.2312C148.653 36.1442 155.068 33.8192 159.645 32.9782C161.865 32.5702 163.843 32.4652 165.449 32.4932C166.805 32.5162 167.631 33.9872 166.931 35.1492L157.37 51.0102C156.209 52.9382 153.599 53.4032 151.869 51.9662ZM163.567 57.5152C163.412 57.7382 163.353 58.0132 163.404 58.2792L163.986 61.2822C164.205 62.4152 162.77 63.0982 162.038 62.2072C161.154 61.1292 160.235 60.0682 159.28 59.0272C157.712 57.3162 157.427 54.7912 158.625 52.8032L167.173 38.6232C167.854 37.4912 169.601 38.0272 169.534 39.3462C169.024 49.5552 163.633 57.4202 163.567 57.5152ZM172.588 94.0452C172.588 89.6262 174.26 86.3242 175.756 86.3242C177.252 86.3242 178.924 89.6262 178.924 94.0452C178.924 98.4642 177.252 101.765 175.756 101.765C174.26 101.765 172.588 98.4642 172.588 94.0452ZM170.945 86.3242C171.626 86.3242 172.092 87.0212 171.81 87.6412C171.042 89.3252 170.588 91.5442 170.588 94.0452C170.588 96.5452 171.042 98.7632 171.81 100.448C172.092 101.068 171.626 101.765 170.945 101.765H170.944C170.593 101.765 170.262 101.573 170.099 101.261C167.712 96.6722 167.712 91.4192 170.099 86.8282C170.262 86.5162 170.593 86.3242 170.945 86.3242ZM95.0452 41.3532C95.0452 40.1022 96.2982 39.2542 97.4652 39.7092C97.7492 39.8202 98.0512 39.9292 98.3722 40.0372C98.8972 40.2122 99.4632 39.9312 99.6382 39.4062C99.6412 39.3982 99.6382 39.3902 99.6412 39.3822C99.8002 38.8652 99.5232 38.3132 99.0072 38.1402C96.0832 37.1612 95.0452 36.0832 95.0452 35.4582C95.0452 33.6212 101.943 30.9522 112.751 30.9522C123.56 30.9522 130.457 33.6212 130.457 35.4582C130.457 37.2952 123.56 39.9642 112.751 39.9642C109.41 39.9642 106.146 39.6982 103.309 39.1972C102.766 39.0972 102.259 39.4582 102.156 39.9932C102.155 39.9982 102.151 40.0022 102.15 40.0072C102.054 40.5512 102.417 41.0702 102.961 41.1662C105.91 41.6882 109.296 41.9642 112.751 41.9642C118.478 41.9642 124.243 41.1982 128.044 39.7102C129.207 39.2542 130.457 40.1052 130.457 41.3542C130.457 42.1142 129.977 42.8012 129.256 43.0382C118.783 46.4802 106.719 46.4802 96.2472 43.0382C95.5252 42.8012 95.0452 42.1142 95.0452 41.3542V41.3532ZM93.0452 42.7222V43.3242C93.0452 43.7372 93.2992 44.1122 93.6872 44.2572C99.6552 46.4972 106.203 47.6162 112.751 47.6162C119.299 47.6162 125.847 46.4972 131.816 44.2572C132.203 44.1122 132.457 43.7372 132.457 43.3242V42.7222C151.341 49.9452 165.681 66.5422 171.444 81.9562C171.873 83.1022 171.024 84.3242 169.8 84.3242C169.457 84.3242 169.131 84.5012 168.952 84.7942C165.421 90.5862 165.421 97.5042 168.952 103.296C169.131 103.589 169.457 103.765 169.8 103.765H169.802C171.346 103.765 172.354 105.413 171.631 106.777C165.012 119.268 145.585 125.381 112.751 125.381C93.2242 125.381 78.4462 123.215 68.2752 118.836C66.9622 118.271 65.7972 117.383 64.9652 116.22C63.2262 113.788 60.6742 111.75 57.5872 110.291C56.0242 109.552 54.7202 108.361 53.9052 106.838C53.8952 106.819 53.8852 106.8 53.8752 106.781C53.1512 105.415 54.1562 103.765 55.7022 103.765C56.0452 103.765 56.3722 103.589 56.5502 103.296C60.0822 97.5052 60.0822 90.5862 56.5502 84.7932C56.3722 84.5002 56.0452 84.3242 55.7022 84.3242C54.4792 84.3242 53.6302 83.1022 54.0592 81.9562C59.8222 66.5422 74.1622 49.9452 93.0452 42.7222ZM61.9362 57.5152C61.8692 57.4202 56.5342 49.6572 55.9752 39.5212C55.9002 38.1552 57.7152 37.6012 58.4212 38.7722L63.3312 46.9192C63.5182 47.2302 63.8492 47.4022 64.1882 47.4022C64.3642 47.4022 64.5422 47.3562 64.7032 47.2582L64.7042 47.2572C65.1772 46.9722 65.3292 46.3592 65.0442 45.8852L58.5572 35.1232C57.8642 33.9732 58.6822 32.5172 60.0252 32.4932C61.6362 32.4642 63.6252 32.5682 65.8582 32.9782C70.9052 33.9062 78.1882 36.6372 85.0382 44.2302C81.1672 46.3192 77.5362 48.7832 74.1802 51.5172C72.1462 53.1732 69.1222 52.6522 67.7682 50.4052C67.4832 49.9312 66.8682 49.7792 66.3962 50.0652C66.3962 50.0652 66.3962 50.0652 66.3952 50.0652C65.9222 50.3502 65.7702 50.9652 66.0552 51.4382L68.1632 54.9362C68.6172 55.6892 68.4932 56.6472 67.8792 57.2772C66.0202 59.1792 64.2802 61.1602 62.6692 63.1932C62.1522 63.8462 61.1132 63.3712 61.2712 62.5532L62.0982 58.2792C62.1502 58.0122 62.0912 57.7372 61.9362 57.5152ZM46.2052 109.829C56.2162 109.829 64.4722 115.291 65.3802 122.502L65.4592 124.064C65.3742 127.586 63.5502 130.972 60.2202 133.663C56.5742 136.61 51.6132 138.365 46.2522 138.605C40.8852 138.841 35.7922 137.541 31.8972 134.931C28.0972 132.386 25.9112 128.902 25.7412 125.121C25.3872 117.195 34.0102 110.347 44.9642 109.856C45.3812 109.838 45.7942 109.829 46.2052 109.829ZM60.6472 143.184C57.0012 146.131 52.0402 147.885 46.6782 148.126C41.3092 148.36 36.2172 147.061 32.3232 144.452C28.5232 141.907 26.3372 138.423 26.1682 134.641L26.0482 131.953C27.2192 133.687 28.7982 135.263 30.7842 136.593C34.7022 139.218 39.7072 140.633 45.0022 140.633C45.4462 140.633 45.8932 140.624 46.3412 140.603C52.1262 140.344 57.5022 138.432 61.4772 135.218C63.3282 133.722 64.7562 132.019 65.7672 130.196L65.9012 132.862C66.0702 136.643 64.2042 140.308 60.6472 143.184ZM89.6522 11.0832C94.0852 11.0832 97.6912 14.6892 97.6912 19.1222C97.6912 23.5542 94.0852 27.1602 89.6522 27.1602C85.2202 27.1602 81.6142 23.5542 81.6142 19.1222C81.6142 14.6892 85.2202 11.0832 89.6522 11.0832ZM207.354 135.871H182.341C177.737 135.871 173.894 132.359 173.48 127.773L173.469 127.664C176.121 127.12 178.121 124.77 178.121 121.962C178.121 118.797 175.582 116.22 172.435 116.147L172.428 116.076C172.117 112.584 172.816 109.11 174.212 105.894C174.525 105.172 174.802 104.432 175.042 103.674C175.043 103.673 175.044 103.673 175.046 103.672C175.277 103.727 175.513 103.765 175.756 103.765C177.364 103.765 178.755 102.518 179.687 100.485C180.607 98.4772 182.157 96.8322 183.965 95.5632C187.777 92.8882 191.125 89.5282 193.851 85.5752C199.881 76.8342 202.147 66.2822 200.234 55.8642C196.771 37.0072 180.351 23.3202 161.192 23.3202V25.3202V23.3202H161.189C158.792 23.3202 156.372 23.5412 153.999 23.9772C145.438 25.5492 138.026 29.7802 132.443 35.6522C132.448 35.5882 132.457 35.5242 132.457 35.4582C132.457 32.2112 126.731 30.1422 119.684 29.3362C118.14 29.1592 117.332 27.4142 118.214 26.1352L118.358 25.9262C118.978 25.0272 120.21 24.8002 121.11 25.4212L122.741 26.5472C123.7 27.2082 125.008 27.1022 125.853 26.2932C130.597 21.7232 136.081 18.1742 142.15 15.7392C143.228 15.3072 143.838 14.1602 143.628 13.0172L143.329 11.3902C143.1 10.1442 143.924 8.94919 145.17 8.72019L156.83 6.57919C158.075 6.35019 159.271 7.17419 159.499 8.42019L159.798 10.0482C160.008 11.1912 160.986 12.0472 162.149 12.0682C168.684 12.1852 175.071 13.5552 181.132 16.1412C182.212 16.5972 183.468 16.2302 184.13 15.2712L184.647 14.5222C185.603 13.1352 187.502 12.7862 188.888 13.7422L197.403 19.6162C198.789 20.5722 199.137 22.4712 198.181 23.8572L197.677 24.5892C197.013 25.5502 197.09 26.8602 197.901 27.7012C202.48 32.4522 206.038 37.9442 208.473 44.0232C208.904 45.0992 210.057 45.7012 211.197 45.4922L211.329 45.4682C213.399 45.0882 215.385 46.4582 215.765 48.5282L217.358 57.2022C217.738 59.2722 216.368 61.2592 214.298 61.6392L214.168 61.6632C213.028 61.8722 212.164 62.8452 212.143 64.0042C212.027 70.5532 210.653 76.9502 208.061 83.0172C207.602 84.0922 207.995 85.3432 208.957 86.0072L210.224 86.8812C211.315 87.6332 211.589 89.1282 210.837 90.2192L204.227 99.8022C203.474 100.893 201.98 101.168 200.888 100.415L199.604 99.5302C198.641 98.8672 197.333 98.9762 196.493 99.7832C191.75 104.351 186.267 107.901 180.197 110.335C179.118 110.767 178.507 111.916 178.717 113.059L179.611 117.925C179.712 118.468 180.226 118.834 180.775 118.728C181.318 118.629 181.677 118.107 181.578 117.564L180.684 112.697C180.644 112.477 180.764 112.262 180.971 112.179C187.268 109.65 192.957 105.965 197.878 101.226C198.039 101.071 198.285 101.049 198.469 101.176L202.552 103.992C203.006 104.303 203.629 104.19 203.943 103.736L214.413 88.5552C214.726 88.1012 214.612 87.4782 214.157 87.1652L210.074 84.3482C209.89 84.2212 209.823 83.9842 209.911 83.7792C212.592 77.4942 214.015 70.8662 214.142 64.0822C214.147 63.8602 214.305 63.6712 214.524 63.6312L219.391 62.7372C219.652 62.6892 219.883 62.5402 220.034 62.3212C220.184 62.1032 220.242 61.8342 220.194 61.5732L216.863 43.4352C216.763 42.8922 216.253 42.5292 215.699 42.6322L210.832 43.5262C210.616 43.5622 210.397 43.4472 210.314 43.2402C207.786 36.9432 204.1 31.2552 199.36 26.3332C199.205 26.1722 199.184 25.9252 199.31 25.7422L202.127 21.6592C202.277 21.4412 202.335 21.1722 202.287 20.9112C202.239 20.6502 202.089 20.4192 201.871 20.2682L186.69 9.79819C186.236 9.48519 185.613 9.59819 185.299 10.0532L182.483 14.1362C182.358 14.3182 182.118 14.3882 181.916 14.3002C175.628 11.6192 169.001 10.1952 162.217 10.0682C161.994 10.0642 161.805 9.90519 161.765 9.68619L160.871 4.82019C160.772 4.27719 160.257 3.91619 159.707 4.01719L141.569 7.34819C141.309 7.39619 141.077 7.54619 140.927 7.76419C140.777 7.98219 140.719 8.25219 140.767 8.51219L141.661 13.3792C141.701 13.5982 141.581 13.8132 141.374 13.8962C135.077 16.4252 129.388 20.1122 124.467 24.8502C124.306 25.0052 124.06 25.0272 123.877 24.9002L119.793 22.0842C119.575 21.9322 119.306 21.8792 119.045 21.9242C118.784 21.9712 118.552 22.1212 118.402 22.3402L113.835 28.9622C113.474 28.9562 113.112 28.9522 112.751 28.9522C102.959 28.9522 93.0452 31.1862 93.0452 35.4582C93.0452 35.5682 93.0552 35.6832 93.0702 35.8002C93.0652 35.8432 93.0452 35.8822 93.0452 35.9262V39.3182C93.0452 40.0842 92.5762 40.7722 91.8622 41.0512L91.8212 41.0682C91.2602 41.2882 90.6522 40.8832 90.6522 40.2802L90.6532 34.3942C90.6532 31.7502 92.0212 29.2302 94.3562 27.9872C97.6942 26.2102 99.9162 22.6042 99.6732 18.5142C99.3722 13.4372 95.1342 9.28919 90.0522 9.09019C84.3362 8.86719 79.6142 13.4542 79.6142 19.1222C79.6142 22.9192 81.7342 26.2302 84.8532 27.9352C87.2072 29.2212 88.6522 31.7082 88.6522 34.3912V41.8952C88.6522 42.2252 88.4612 42.5242 88.1622 42.6642L88.1442 42.6722C87.3822 43.0282 86.4862 42.8372 85.9112 42.2242C71.6642 27.0442 55.4142 30.9652 55.2442 31.0072C55.1502 31.0322 55.0612 31.0702 54.9802 31.1182C54.9792 31.1192 54.9782 31.1192 54.9762 31.1202C54.9712 31.1232 54.9692 31.1282 54.9642 31.1312C54.8682 31.1912 54.7882 31.2692 54.7182 31.3562C54.6972 31.3822 54.6792 31.4082 54.6612 31.4372C54.6112 31.5132 54.5732 31.5952 54.5462 31.6842C54.5382 31.7082 54.5272 31.7302 54.5212 31.7552C54.5192 31.7632 54.5142 31.7712 54.5122 31.7802C52.8702 39.9882 54.8972 47.4562 56.9922 52.4282C58.8342 56.8002 59.4192 61.5982 58.5172 66.2562C58.0402 68.7192 57.1482 71.0802 55.9372 73.2772C53.9012 76.9712 52.2932 80.6972 51.1722 84.3242H50.8592C50.7172 84.3242 50.5832 84.3612 50.4572 84.4172C50.2252 84.3622 49.9892 84.3242 49.7472 84.3242C46.8002 84.3242 44.5782 88.5032 44.5782 94.0452C44.5782 99.5872 46.8002 103.765 49.7472 103.765C49.9892 103.765 50.2252 103.727 50.4572 103.672C50.4592 103.673 50.4602 103.673 50.4622 103.674C51.0092 105.404 51.7492 107.041 52.6812 108.584C50.2372 108.003 47.6062 107.738 44.8752 107.858C32.8192 108.398 23.3392 116.182 23.7432 125.211C23.7432 125.211 23.8392 127.163 23.9502 129.397C24.1262 132.918 21.3182 135.871 17.7942 135.871C17.2412 135.871 16.7942 136.318 16.7942 136.871C16.7942 137.424 17.2412 137.871 17.7942 137.871H19.0682C22.0292 137.871 24.8852 139.225 26.5762 141.655C27.7342 143.32 29.2912 144.828 31.2102 146.114C35.1292 148.739 40.1332 150.154 45.4282 150.154C45.8722 150.154 46.3192 150.144 46.7682 150.124C52.5522 149.865 57.9282 147.953 61.9032 144.74C63.1612 143.723 64.2302 142.614 65.1022 141.435C66.7672 139.184 69.4092 137.871 72.2102 137.871C72.2102 137.871 173.177 137.941 173.305 137.941C173.336 137.941 207.354 137.871 207.354 137.871C207.907 137.871 208.354 137.424 208.354 136.871C208.354 136.318 207.907 135.871 207.354 135.871Z" fill="#202225"/>
</g>
<path fill-rule="evenodd" clip-rule="evenodd" d="M39.1863 123.521H39.1903L52.4613 123.472C53.0133 123.47 53.4593 123.021 53.4573 122.468C53.4553 121.917 53.0083 121.472 52.4573 121.472H52.4533L39.1823 121.521C38.6303 121.523 38.1843 121.972 38.1863 122.525C38.1883 123.076 38.6353 123.521 39.1863 123.521Z" fill="#202225"/>
<path fill-rule="evenodd" clip-rule="evenodd" d="M220.2 108.961C220.752 108.961 221.2 108.513 221.2 107.961C221.2 107.128 221.876 106.451 222.71 106.451C223.263 106.451 223.71 106.003 223.71 105.451C223.71 104.899 223.263 104.451 222.71 104.451C221.876 104.451 221.2 103.775 221.2 102.941C221.2 102.389 220.752 101.941 220.2 101.941C219.648 101.941 219.2 102.389 219.2 102.941C219.2 103.775 218.524 104.451 217.69 104.451C217.138 104.451 216.69 104.899 216.69 105.451C216.69 106.003 217.138 106.451 217.69 106.451C218.524 106.451 219.2 107.128 219.2 107.961C219.2 108.513 219.648 108.961 220.2 108.961Z" fill="#202225"/>
<path fill-rule="evenodd" clip-rule="evenodd" d="M31.6594 49.9354C31.9154 49.9354 32.1714 49.8374 32.3664 49.6424L33.5494 48.4594C33.9404 48.0684 33.9404 47.4354 33.5494 47.0454C33.1594 46.6544 32.5264 46.6544 32.1354 47.0454L30.9524 48.2284C30.5614 48.6194 30.5614 49.2514 30.9524 49.6424C31.1474 49.8374 31.4034 49.9354 31.6594 49.9354Z" fill="#202225"/>
<path fill-rule="evenodd" clip-rule="evenodd" d="M25.7429 55.8519C25.9989 55.8519 26.2549 55.7539 26.4499 55.5589L27.6339 54.3759C28.0239 53.9859 28.0239 53.3519 27.6339 52.9619C27.2429 52.5709 26.6099 52.5709 26.2199 52.9619L25.0359 54.1449C24.6449 54.5349 24.6449 55.1679 25.0359 55.5589C25.2309 55.7539 25.4869 55.8519 25.7429 55.8519Z" fill="#202225"/>
<path fill-rule="evenodd" clip-rule="evenodd" d="M32.1354 55.5589C32.3304 55.7539 32.5864 55.8519 32.8424 55.8519C33.0984 55.8519 33.3544 55.7539 33.5494 55.5589C33.9404 55.1679 33.9404 54.5359 33.5494 54.1449L32.3664 52.9619C31.9754 52.5709 31.3434 52.5709 30.9524 52.9619C30.5614 53.3519 30.5614 53.9849 30.9524 54.3759L32.1354 55.5589Z" fill="#202225"/>
<path fill-rule="evenodd" clip-rule="evenodd" d="M26.2194 49.6424C26.4144 49.8374 26.6704 49.9354 26.9264 49.9354C27.1824 49.9354 27.4384 49.8374 27.6334 49.6424C28.0244 49.2514 28.0244 48.6184 27.6334 48.2284L26.4494 47.0454C26.0594 46.6544 25.4254 46.6544 25.0354 47.0454C24.6454 47.4354 24.6454 48.0694 25.0354 48.4594L26.2194 49.6424Z" fill="#202225"/>
</svg>
