<svg width="272" height="212" viewBox="0 0 272 212" fill="none" xmlns="http://www.w3.org/2000/svg">
<g clip-path="url(#clip0)">
<mask id="mask0" mask-type="alpha" maskUnits="userSpaceOnUse" x="10" y="36" width="257" height="164">
<path d="M266.121 36.183V199.113H10.0199V36.183H266.121Z" fill="white"/>
</mask>
<g mask="url(#mask0)">
<path fill-rule="evenodd" clip-rule="evenodd" d="M26.1411 36.183H137.174C154.212 36.183 168.024 49.995 168.024 67.033V67.037C168.024 84.075 181.836 97.887 198.874 97.887H215.511C243.462 97.887 266.121 120.545 266.121 148.496V148.503C266.121 176.454 243.462 199.113 215.511 199.113H45.0151C25.6881 199.113 10.0201 183.445 10.0201 164.118C10.0201 144.79 25.6881 129.122 45.0151 129.122H49.3571C67.6101 129.122 82.4071 114.326 82.4071 96.073V96.069C82.4071 77.816 67.6101 63.019 49.3571 63.019H26.1411C18.7301 63.019 12.7231 57.011 12.7231 49.601C12.7231 42.19 18.7301 36.183 26.1411 36.183Z" fill="#4F545C" fill-opacity="0.3"/>
</g>
<ellipse cx="129.5" cy="158" rx="34.5" ry="34" fill="#FDCA59"/>
<path d="M153.5 168.5C153 176 141.926 174 129.5 174C117.074 174 102 175.5 106 168.5C102 161.5 117.074 163 129.5 163C152 160 153.5 165.462 153.5 168.5Z" fill="#C4C4C4"/>
<ellipse cx="93.4999" cy="57" rx="31.5" ry="28" fill="#FDCA59"/>
<path fill-rule="evenodd" clip-rule="evenodd" d="M158.694 95.8471C158.536 95.6941 158.38 95.5541 158.222 95.4061C157.655 95.1461 155.005 94.0411 150.635 93.9071C150.013 93.8891 149.333 93.8941 148.606 93.9231C151.42 97.1381 153.697 100.83 155.3 104.864C158.212 103.478 159.361 102.016 159.793 100.941C160.801 98.4311 158.9 96.0891 158.694 95.8471Z" fill="#36393E"/>
<path fill-rule="evenodd" clip-rule="evenodd" d="M83.0512 111.991C84.3352 104.934 87.5772 98.5526 92.2042 93.4416C92.2372 93.3726 92.2542 93.2956 92.3032 93.2336C92.5552 92.9156 98.6042 85.4086 109.965 81.6756C111.686 81.1096 113.403 80.6766 115.111 80.3556C114.711 78.3776 114.703 76.2336 115.677 74.3956C117.087 71.7346 120.197 70.3026 124.919 70.1396C130.016 69.9566 133.686 71.2736 135.8 74.0346C137.795 76.6406 137.918 79.9156 137.683 82.1786C140.768 83.1816 143.737 84.4306 146.555 85.8326C146.572 85.5536 146.586 85.2756 146.593 84.9996C146.891 73.3596 139.721 63.5006 128.751 60.4666C126.02 59.7106 123.369 59.3336 120.803 59.3336C113.904 59.3336 107.621 62.0596 102.049 67.4876C96.2732 73.1136 93.4642 79.6856 93.4372 79.7516C93.3462 79.9676 93.1822 80.1436 92.9742 80.2516C92.9252 80.2776 87.9482 82.8816 83.6942 87.2596C78.1392 92.9736 76.3682 98.8756 78.4292 104.803C79.4902 107.852 80.9682 110.234 83.0512 111.991Z" fill="#0EB04B"/>
<path fill-rule="evenodd" clip-rule="evenodd" d="M135.724 81.5766C135.867 79.6906 135.689 77.1746 134.205 75.2426C132.615 73.1716 129.795 72.1236 125.817 72.1236C125.545 72.1236 125.27 72.1286 124.988 72.1386C121.033 72.2746 118.495 73.3486 117.444 75.3326C116.732 76.6776 116.754 78.3776 117.098 80.0326C123.534 79.1586 129.821 79.8896 135.724 81.5766Z" fill="white"/>
<path fill-rule="evenodd" clip-rule="evenodd" d="M155.963 118.766C155.963 109.223 152.198 100.547 146.086 94.127C141.701 94.644 135.974 96.162 129.207 99.888C126.902 101.158 123.931 101.658 120.679 101.658C110.169 101.658 96.7393 96.437 93.4293 95.08C87.8363 101.395 84.4303 109.688 84.4303 118.766C84.4303 138.488 100.475 154.533 120.196 154.533C139.918 154.533 155.963 138.488 155.963 118.766Z" fill="#FDCA59"/>
<path fill-rule="evenodd" clip-rule="evenodd" d="M115.893 82.2562C115.552 82.3202 115.212 82.3872 114.877 82.4582C114.869 82.4602 114.861 82.4622 114.853 82.4642C112.972 82.8642 111.201 83.3712 109.539 83.9432C101.786 86.7472 96.7285 91.4152 94.7775 93.4632C100.02 95.5412 119.755 102.809 128.242 98.1362C139.58 91.8922 148.241 91.4152 153.5 92.1092C140.361 83.5732 127.539 80.2252 115.893 82.2562Z" fill="#0EB04B"/>
<path fill-rule="evenodd" clip-rule="evenodd" d="M86.6347 184.591C88.0797 185.193 89.0537 186.615 89.0537 188.196C89.0537 190.356 87.2977 192.112 85.1377 192.112C84.0017 192.112 82.9477 191.615 82.2207 190.796C81.4937 191.615 80.4397 192.112 79.3037 192.112C77.1447 192.112 75.3877 190.356 75.3877 188.196C75.3877 186.613 76.3617 185.191 77.8057 184.59C78.5987 183.225 80.3087 182.335 82.2207 182.335C84.1327 182.335 85.8417 183.225 86.6347 184.591ZM68.6097 178.502C57.8867 178.502 57.8867 173.051 57.8867 167.779C57.8867 161.867 62.6977 157.057 68.6097 157.057C74.5217 157.057 79.3317 161.867 79.3317 167.779C79.3317 173.051 79.3317 178.502 68.6097 178.502ZM93.2737 145.344C92.0117 145.344 90.7767 145.131 89.6147 144.731C83.6977 148.998 76.4447 151.522 68.6097 151.522C65.6517 151.522 62.7797 151.155 60.0277 150.48C55.0187 155.759 52.1097 163.084 52.1097 171.669C52.1097 181.796 52.1097 189.945 60.9517 194.366C62.6607 195.222 63.7757 196.934 63.7757 198.846V204.509C63.7757 207.031 65.6147 209.289 68.1257 209.534C71.0077 209.816 73.4427 207.549 73.4427 204.725V198.59C73.4427 198.311 73.5597 198.043 73.7657 197.854C73.9717 197.664 74.2497 197.563 74.5267 197.594C75.1467 197.646 75.7877 197.69 76.4397 197.729C76.9687 197.76 77.3867 198.196 77.3867 198.727V204.51C77.3867 207.032 79.2267 209.289 81.7377 209.534C84.6177 209.816 87.0537 207.549 87.0537 204.725V198.727C87.0537 198.195 87.4737 197.76 88.0037 197.728C88.6567 197.69 89.2957 197.646 89.9147 197.594C89.9427 197.591 89.9697 197.59 89.9977 197.59C90.2477 197.59 90.4897 197.684 90.6747 197.854C90.8807 198.043 90.9977 198.311 90.9977 198.59V204.509C90.9977 207.031 92.8377 209.289 95.3477 209.534C98.2297 209.816 100.665 207.549 100.665 204.725V198.849C100.665 196.926 101.794 195.218 103.512 194.356C106.673 192.77 108.7 190.706 110.001 188.245C105.947 185.612 102.448 182.192 99.7367 178.192C98.6237 178.391 97.3367 178.502 95.8317 178.502C85.1097 178.502 85.1097 173.051 85.1097 167.779C85.1097 162.643 88.7427 158.341 93.5727 157.301C93.6457 153.75 94.2287 150.324 95.2617 147.095C94.6187 146.528 93.9917 145.945 93.3887 145.337C93.3507 145.337 93.3117 145.344 93.2737 145.344Z" fill="#CCD6DD"/>
<path fill-rule="evenodd" clip-rule="evenodd" d="M79.4428 185.781C79.3258 186.065 79.0848 186.28 78.7888 186.363C77.9638 186.594 77.3878 187.349 77.3878 188.197C77.3878 189.254 78.2478 190.113 79.3038 190.113C80.1098 190.113 80.8328 189.596 81.1018 188.827C81.2468 188.414 81.6458 188.102 82.0788 188.158C82.0988 188.158 82.1958 188.165 82.2158 188.167C82.2358 188.165 82.3428 188.158 82.3628 188.158C82.3748 188.157 82.3848 188.157 82.3968 188.157C82.8198 188.157 83.1988 188.425 83.3398 188.827C83.6098 189.596 84.3318 190.113 85.1378 190.113C86.1938 190.113 87.0538 189.254 87.0538 188.197C87.0538 187.35 86.4768 186.596 85.6498 186.362C85.3548 186.279 85.1138 186.065 84.9968 185.781C84.6458 184.93 83.5048 184.336 82.2208 184.336C80.9358 184.336 79.7938 184.93 79.4428 185.781Z" fill="#4F545C"/>
<path d="M174 99C174 100.657 169.09 103 165.5 103C161.91 103 161 100.657 161 99C161 97.3431 163.91 96 167.5 96C171.09 96 174 97.3431 174 99Z" fill="#36393E"/>
<ellipse cx="154" cy="95" rx="5" ry="3" fill="#36393E"/>
<ellipse cx="189" cy="62" rx="7" ry="6" fill="#292F33"/>
<path d="M196 78.5C196 82.9183 191.209 83 189 83C186.791 83 185 76.4183 185 72C185 67.5817 185.791 64 188 64C190.209 64 196 74.0817 196 78.5Z" fill="#292F33"/>
<path d="M198 94C198 97.866 196.09 99 192.5 99C187.5 94 182 108 181 98.5C181 94.634 183.41 79.5 187 79.5C189 83 198 90.134 198 94Z" fill="#292F33"/>
<path d="M188.193 51.5C195 62.5 186.402 60 184.193 60C181.984 60 180.193 55.0899 180.193 51.5C180.193 47.9101 183 46 184.193 45C186.402 45 192.5 45.5 188.193 51.5Z" fill="#292F33"/>
<path d="M172 43C181 54 172.5 49.5272 168 48.0272C165.238 48.0272 161 48.0376 161 45C161 41.9624 165.238 37.0272 168 37.0272C170.761 37.0272 172 39.9624 172 43Z" fill="#292F33"/>
<path d="M161.5 45.5C161.5 48.2614 156.985 48 154.5 48C140 50 149.5 45.7614 149.5 43C149.5 40.2386 150.515 37 153 37C155.485 37 161.5 42.7386 161.5 45.5Z" fill="#292F33"/>
<path d="M141 53.5C141.5 57 139.155 62.2928 137.5 61.5C121.155 60.7928 133.155 55.2928 132.5 52C129.5 46.5 134.067 45.5 136 45.5C137.933 45.5 141 51.0147 141 53.5Z" fill="#292F33"/>
<path fill-rule="evenodd" clip-rule="evenodd" d="M156.108 107.092C157.034 106.417 157.992 105.786 158.981 105.201C158.893 105.196 158.805 105.19 158.717 105.183C157.942 105.746 157.034 106.27 155.993 106.753C156.031 106.866 156.071 106.978 156.108 107.092ZM160.803 87.8305C160.803 86.6935 161.722 85.7755 162.859 85.7755H164.914C166.051 85.7755 166.97 86.6935 166.97 87.8305C166.97 88.9675 166.051 89.8875 164.914 89.8875H162.859C161.722 89.8875 160.803 88.9675 160.803 87.8305C160.803 88.9675 159.882 89.8875 158.748 89.8875H156.692C155.557 89.8875 154.636 88.9675 154.636 87.8305C154.636 86.6935 155.557 85.7755 156.692 85.7755H158.748C159.882 85.7755 160.803 86.6935 160.803 87.8305ZM163.914 71.3865C163.914 68.5675 166.207 66.2745 169.026 66.2745C171.844 66.2745 174.136 68.5675 174.136 71.3865V77.5535C174.136 80.3715 171.844 82.6645 169.026 82.6645C166.207 82.6645 163.914 80.3715 163.914 77.5535V71.3865ZM147.47 76.4025V71.3865C147.47 68.5675 149.762 66.2745 152.581 66.2745C155.399 66.2745 157.692 68.5675 157.692 71.3865V77.5535C157.692 80.3715 155.399 82.6645 152.581 82.6645C150.812 82.6645 149.253 81.7615 148.335 80.3925C148.544 81.9075 148.634 83.4635 148.593 85.0515C148.578 85.6385 148.539 86.2325 148.486 86.8305C148.8 86.9985 149.114 87.1665 149.423 87.3375C152.794 88.6055 156.407 90.8185 160.121 94.4435C160.137 94.4595 160.153 94.4765 160.167 94.4925C160.196 94.5235 160.37 94.7265 160.6 95.0535H173.626C173.743 95.0535 173.861 95.0735 173.971 95.1145L174.709 95.3865C174.745 95.3985 174.78 95.4145 174.814 95.4325L175.943 96.0015C176.258 96.1605 176.466 96.4745 176.49 96.8255L176.586 98.2355C176.587 98.9515 176.311 99.6185 175.855 100.24C176.317 100.223 176.78 100.205 177.247 100.205C177.714 100.205 178.176 100.223 178.638 100.24C182.374 94.9395 184.47 87.5705 184.47 78.7095C184.47 67.7455 182.419 60.6335 179.252 56.0425C177.975 57.3395 176.476 58.5545 174.708 59.6155C174.228 59.9015 173.686 60.0525 173.139 60.0525C172.792 60.0525 172.446 59.9905 172.115 59.8725C171.789 59.9905 171.441 60.0525 171.083 60.0525C169.918 60.0525 168.87 59.4045 168.347 58.3635C167.97 57.6065 167.924 56.7425 168.204 55.9655C168.196 55.9435 168.189 55.9215 168.181 55.8985C167.651 54.3095 168.516 52.5765 170.112 52.0415C170.108 52.0415 171.033 51.6215 172.502 50.2035C168.821 48.4215 164.711 47.9755 160.803 47.9755C156.969 47.9755 152.94 48.4015 149.313 50.1005C150.8 51.6375 151.691 52.0835 151.711 52.0935C153.184 52.6585 153.94 54.3505 153.39 55.9335C153.682 56.7195 153.641 57.5945 153.261 58.3605C152.737 59.4045 151.689 60.0525 150.523 60.0525C150.174 60.0525 149.824 59.9905 149.493 59.8715C148.638 60.1795 147.675 60.0825 146.898 59.6165C145.129 58.5555 143.63 57.3405 142.354 56.0435C140.987 58.0235 139.833 60.4825 138.957 63.5115C143.009 66.8125 145.964 71.2775 147.47 76.4025Z" fill="#D92547"/>
<path fill-rule="evenodd" clip-rule="evenodd" d="M147.925 57.9008C148.25 58.0958 148.653 58.1048 149 57.9048C149.154 57.8168 149.325 57.7728 149.497 57.7728C149.65 57.7728 149.803 57.8078 149.944 57.8788C149.966 57.8888 150.044 57.9328 150.065 57.9458C150.535 58.1798 151.217 57.9708 151.47 57.4668C151.63 57.1468 151.616 56.7668 151.431 56.4538C151.249 56.1448 151.246 55.7628 151.423 55.4518C151.453 55.3998 151.477 55.3438 151.498 55.2848C151.697 54.7278 151.453 54.1348 150.94 53.9378C150.901 53.9228 145.879 51.9248 139.389 38.2198C139.298 38.1458 139.202 38.0528 139.119 37.9268C139.082 37.8718 139.03 37.7988 138.977 37.7458C138.916 37.6848 138.817 37.6198 138.702 37.5618C138.63 37.5488 138.569 37.5358 138.513 37.5188C138.446 37.4988 138.318 37.4578 138.238 37.4498C138.174 37.4658 138.118 37.4788 138.062 37.4868L137.869 37.5058L137.865 37.4968C137.851 37.5038 137.836 37.5088 137.822 37.5148V37.5158L137.658 37.6278C137.65 37.6328 137.562 37.6848 137.554 37.6898C137.523 37.7088 137.491 37.7248 137.463 37.7468L137.369 37.8878C137.304 37.9738 137.27 38.0118 137.246 38.0568C137.243 38.0688 137.213 38.2078 137.21 38.2178C137.184 38.3088 137.157 38.4038 137.155 38.4448C137.153 38.4838 137.146 38.5358 137.137 38.5868C137.155 39.8358 137.608 51.7098 147.925 57.9008ZM170.82 53.9105C170.196 54.1225 169.897 54.7225 170.081 55.2735C170.106 55.3485 170.131 55.4065 170.159 55.4535C170.346 55.7655 170.349 56.1545 170.166 56.4705C169.988 56.7765 169.977 57.1495 170.136 57.4695C170.388 57.9725 171.03 58.2015 171.554 57.9385C171.578 57.9225 171.627 57.8945 171.68 57.8695C171.816 57.8055 171.963 57.7725 172.109 57.7725C172.281 57.7725 172.452 57.8165 172.606 57.9045C172.949 58.1015 173.352 58.0965 173.682 57.8985C183.965 51.7275 184.448 39.9095 184.469 38.5965C184.461 38.5525 184.454 38.5035 184.451 38.4485V38.4465C184.448 38.3955 184.418 38.2915 184.401 38.2355L184.361 38.0805C184.342 38.0235 184.314 37.9915 184.287 37.9575L184.154 37.7755C184.121 37.7295 184.09 37.7135 184.059 37.6945C184.054 37.6915 183.967 37.6385 183.962 37.6355L183.844 37.5585C183.815 37.5475 183.777 37.5275 183.737 37.5055L183.563 37.4885C183.492 37.4775 183.43 37.4645 183.37 37.4485C183.299 37.4515 183.176 37.4895 183.077 37.5215C183.046 37.5325 182.982 37.5485 182.927 37.5605C182.719 37.6635 182.543 37.8485 182.446 38.0765C176.888 51.0425 171.425 53.6545 170.82 53.9105Z" fill="#795A3B"/>
<path fill-rule="evenodd" clip-rule="evenodd" d="M161.649 101.686C161.426 102.241 161.112 102.768 160.726 103.274C160.752 103.274 160.777 103.276 160.803 103.276C161.516 103.276 162.235 103.237 162.95 103.174C165.921 101.883 169.1 100.986 172.42 100.539C173.759 99.7909 174.588 98.9989 174.588 98.3039L174.534 97.5309L173.964 97.2439L173.447 97.0529H172.837C173.023 97.3629 173.136 97.7209 173.136 98.1089C173.136 99.2459 172.217 100.165 171.081 100.165C169.944 100.165 169.025 99.2459 169.025 98.1089C169.025 97.7209 169.139 97.3629 169.325 97.0529H166.67C166.856 97.3629 166.97 97.7209 166.97 98.1089V100.165C166.97 101.301 166.051 102.22 164.914 102.22C163.777 102.22 162.858 101.301 162.858 100.165V98.1089C162.858 97.7209 162.972 97.3629 163.158 97.0529H161.648C162.113 98.3229 162.347 99.9489 161.649 101.686Z" fill="#36393F"/>
<path d="M127.142 58.0199C127.144 56.3459 127.144 54.5949 127.144 52.7349C127.144 39.1329 121.888 29.3879 114.867 23.1199H71.4096C63.7126 30.5209 59.7076 41.2749 59.2456 49.9529C59.1916 50.9379 59.1656 51.8479 59.1656 52.7339C59.1656 53.4009 59.1616 54.1679 59.1566 55.0189C59.1226 60.9989 59.0566 72.9609 60.7556 80.3949C63.2856 79.8299 65.9116 79.5219 68.6096 79.5219C71.9316 79.5219 75.1466 79.9839 78.2026 80.8309C71.0356 74.8439 66.4466 64.8869 65.9596 53.7479C65.9576 53.7099 65.9586 53.6739 65.9606 53.6369C66.3156 48.2699 68.8816 46.1979 71.8526 43.7989L71.8563 43.7959C72.8662 42.9808 73.9109 42.1376 74.9536 41.0939L81.5146 34.5339C81.8396 34.2109 82.3426 34.1469 82.7356 34.3829C82.8436 34.4479 93.5386 40.8009 101.903 40.8009C110.29 40.8009 119.635 44.8929 120.333 53.8759C120.336 53.9179 120.337 53.9599 120.335 54.0029C120.278 55.1449 120.165 56.2689 120.024 57.3819C122.26 57.3099 124.627 57.4939 127.142 58.0199Z" fill="#FCAA42"/>
<path fill-rule="evenodd" clip-rule="evenodd" d="M101.901 19.932C100.692 19.932 99.7143 18.953 99.7143 17.745C99.7143 16.537 100.692 15.558 101.901 15.558C103.11 15.558 104.088 16.537 104.088 17.745C104.088 18.953 103.11 19.932 101.901 19.932ZM93.1543 19.932C91.9473 19.932 90.9673 18.464 90.9673 16.652C90.9673 14.839 91.9473 13.371 93.1543 13.371C94.3633 13.371 95.3403 14.839 95.3403 16.652C95.3403 18.464 94.3633 19.932 93.1543 19.932ZM84.4073 19.932C83.2003 19.932 82.2203 18.953 82.2203 17.745C82.2203 16.537 83.2003 15.558 84.4073 15.558C85.6143 15.558 86.5933 16.537 86.5933 17.745C86.5933 18.953 85.6143 19.932 84.4073 19.932ZM114.022 20.654L108.145 18.695C107.934 18.624 107.753 18.486 107.63 18.301L103.68 12.376L97.8443 14.321C97.4843 14.442 97.0883 14.347 96.8203 14.079L93.1543 10.413L89.4873 14.079C89.2203 14.347 88.8243 14.443 88.4643 14.321L82.6283 12.376L78.6783 18.301C78.5553 18.486 78.3743 18.624 78.1633 18.695L72.2863 20.654V21.119H114.022V20.654Z" fill="#A7A9AC"/>
<path fill-rule="evenodd" clip-rule="evenodd" d="M177.247 102.205C169.538 102.205 162.422 104.788 156.713 109.13C157.526 112.208 157.963 115.436 157.963 118.767C157.963 123.741 156.987 128.489 155.231 132.842C159.475 137.165 162.635 142.552 164.278 148.56H191.659C192.797 148.56 193.717 149.478 193.717 150.618C193.717 151.757 192.797 152.677 191.659 152.677H165.153C165.416 154.429 165.555 156.22 165.555 158.043C165.555 161.358 165.095 164.567 164.251 167.619C168.258 169.283 172.646 170.206 177.247 170.206C195.995 170.206 211.247 154.953 211.247 136.206C211.247 117.458 195.995 102.205 177.247 102.205Z" fill="#FDCA59"/>
<path fill-rule="evenodd" clip-rule="evenodd" d="M56.667 99.0121C56.286 99.0901 47.388 101.03 43.756 110.111C43.433 110.915 42.661 111.404 41.844 111.406C41.588 111.406 41.331 111.358 41.08 111.257C40.023 110.835 39.511 109.637 39.933 108.58C44.413 97.3811 55.389 95.0671 55.852 94.9761C56.972 94.7561 58.053 95.4751 58.275 96.5901C58.498 97.7011 57.777 98.7851 56.667 99.0121ZM82.669 114.567C82.136 114.52 81.567 114.492 80.962 114.492C75.938 114.492 73.365 116.331 73.34 116.35C72.959 116.623 72.443 116.614 72.083 116.321C71.72 116.029 71.597 115.531 71.786 115.104C71.888 114.875 73.921 110.428 78.034 108.862C77.471 107.82 76.97 106.694 76.541 105.458C73.54 96.8321 78.31 89.6571 83.329 84.8761C78.873 82.7271 73.879 81.5221 68.609 81.5221C49.862 81.5221 34.609 96.7741 34.609 115.522C34.609 118.989 35.134 122.334 36.103 125.489C39.667 120.389 45.258 114.37 48.131 113.27C49.486 111.257 52.162 108.316 56.256 108.316C62.346 108.316 65.309 114.826 65.433 115.104C65.622 115.533 65.5 116.034 65.134 116.326C64.947 116.475 64.718 116.551 64.492 116.551C64.277 116.551 64.059 116.484 63.878 116.348C63.82 116.307 61.251 114.492 56.256 114.492C54.035 114.492 52.296 114.852 51.041 115.254C51.907 116.966 52.739 119.53 53.422 122.33C58.144 123.184 62.548 123.757 68.609 123.757C74.165 123.757 78.328 123.276 82.62 122.537C82.496 121.297 82.431 120.039 82.431 118.766C82.431 117.346 82.516 115.947 82.669 114.567ZM87.5288 143.756C85.7968 142.732 84.3338 141.254 83.3448 139.431C79.4758 142.358 74.4028 144.346 68.6098 144.346C62.7998 144.346 57.7168 142.347 53.8438 139.407C52.8588 141.234 51.3998 142.715 49.6698 143.744C55.0868 147.391 61.6028 149.522 68.6098 149.522C75.6068 149.522 82.1158 147.395 87.5288 143.756Z" fill="#FDCA59"/>
<path fill-rule="evenodd" clip-rule="evenodd" d="M52.9135 136.337C54.2065 131.238 50.3255 116.886 48.7125 115.117C46.4505 115.9 36.1915 126.66 34.8975 131.762C34.2865 134.169 34.6485 136.669 35.9185 138.803C37.1875 140.937 39.2115 142.446 41.6175 143.056C46.5845 144.318 51.6515 141.304 52.9135 136.337ZM84.2636 136.337C85.1656 139.887 88.0126 142.428 91.3766 143.135C88.2176 139.404 85.7676 135.057 84.2386 130.299C83.9466 132.721 83.8986 134.898 84.2636 136.337Z" fill="#63AEE9"/>
<path fill-rule="evenodd" clip-rule="evenodd" d="M68.6093 176.502C59.8873 176.502 59.8873 173.219 59.8873 167.779C59.8873 162.97 63.7993 159.057 68.6093 159.057C73.4193 159.057 77.3313 162.97 77.3313 167.779C77.3313 173.219 77.3313 176.502 68.6093 176.502ZM79.3313 167.779C79.3313 161.867 74.5213 157.057 68.6093 157.057C62.6973 157.057 57.8873 161.867 57.8873 167.779C57.8873 173.051 57.8873 178.502 68.6093 178.502C79.3313 178.502 79.3313 173.051 79.3313 167.779ZM85.1377 190.113C84.3317 190.113 83.6097 189.596 83.3397 188.827C83.1997 188.425 82.8197 188.157 82.3967 188.157C82.3857 188.157 82.3747 188.157 82.3637 188.158C82.3437 188.158 82.2367 188.165 82.2167 188.167C82.1967 188.165 82.0987 188.158 82.0787 188.158C81.6457 188.102 81.2467 188.414 81.1017 188.827C80.8327 189.596 80.1097 190.113 79.3047 190.113C78.2477 190.113 77.3877 189.254 77.3877 188.197C77.3877 187.349 77.9637 186.594 78.7887 186.363C79.0847 186.28 79.3257 186.065 79.4427 185.781C79.7937 184.93 80.9357 184.336 82.2207 184.336C83.5047 184.336 84.6457 184.93 84.9967 185.781C85.1137 186.065 85.3547 186.279 85.6497 186.362C86.4767 186.596 87.0547 187.35 87.0547 188.197C87.0547 189.254 86.1947 190.113 85.1377 190.113ZM86.6347 184.592C85.8417 183.225 84.1327 182.336 82.2207 182.336C80.3087 182.336 78.5987 183.225 77.8057 184.591C76.3617 185.191 75.3877 186.614 75.3877 188.197C75.3877 190.356 77.1447 192.113 79.3047 192.113C80.4397 192.113 81.4937 191.616 82.2207 190.797C82.9487 191.616 84.0017 192.113 85.1377 192.113C87.2977 192.113 89.0547 190.356 89.0547 188.197C89.0547 186.616 88.0797 185.193 86.6347 184.592ZM164.914 85.7758H162.858C161.722 85.7758 160.803 86.6938 160.803 87.8308C160.803 88.9668 161.722 89.8868 162.858 89.8868H164.914C166.051 89.8868 166.97 88.9668 166.97 87.8308C166.97 86.6938 166.051 85.7758 164.914 85.7758ZM158.747 85.7758H156.691C155.557 85.7758 154.636 86.6938 154.636 87.8308C154.636 88.9668 155.557 89.8868 156.691 89.8868H158.747C159.882 89.8868 160.802 88.9668 160.802 87.8308C160.802 86.6938 159.882 85.7758 158.747 85.7758ZM172.136 77.5531C172.136 79.2691 170.74 80.6641 169.025 80.6641C167.309 80.6641 165.914 79.2691 165.914 77.5531V71.3861C165.914 69.6701 167.309 68.2751 169.025 68.2751C170.74 68.2751 172.136 69.6701 172.136 71.3861V77.5531ZM169.025 66.2751C166.207 66.2751 163.914 68.5681 163.914 71.3861V77.5531C163.914 80.3711 166.207 82.6641 169.025 82.6641C171.844 82.6641 174.136 80.3711 174.136 77.5531V71.3861C174.136 68.5681 171.844 66.2751 169.025 66.2751ZM95.3413 61.4818H90.9673C89.7603 61.4818 88.7803 62.4598 88.7803 63.6688C88.7803 64.8778 89.7603 65.8558 90.9673 65.8558H95.3413C96.5503 65.8558 97.5283 64.8778 97.5283 63.6688C97.5283 62.4598 96.5503 61.4818 95.3413 61.4818ZM82.2202 50.5482C81.0132 50.5482 80.0332 51.5262 80.0332 52.7352V57.1082C80.0332 58.3182 81.0132 59.2952 82.2202 59.2952C83.4282 59.2952 84.4072 58.3182 84.4072 57.1082V52.7352C84.4072 51.5262 83.4282 50.5482 82.2202 50.5482ZM104.088 50.5482C102.879 50.5482 101.901 51.5262 101.901 52.7352V57.1082C101.901 58.3182 102.879 59.2952 104.088 59.2952C105.297 59.2952 106.275 58.3182 106.275 57.1082V52.7352C106.275 51.5262 105.297 50.5482 104.088 50.5482ZM93.1543 13.3715C91.9473 13.3715 90.9673 14.8395 90.9673 16.6515C90.9673 18.4645 91.9473 19.9325 93.1543 19.9325C94.3633 19.9325 95.3413 18.4645 95.3413 16.6515C95.3413 14.8395 94.3633 13.3715 93.1543 13.3715ZM84.4072 15.558C83.2002 15.558 82.2202 16.537 82.2202 17.746C82.2202 18.953 83.2002 19.932 84.4072 19.932C85.6142 19.932 86.5942 18.953 86.5942 17.746C86.5942 16.537 85.6142 15.558 84.4072 15.558ZM101.901 15.558C100.692 15.558 99.7143 16.537 99.7143 17.746C99.7143 18.953 100.692 19.932 101.901 19.932C103.11 19.932 104.088 18.953 104.088 17.746C104.088 16.537 103.11 15.558 101.901 15.558ZM164.865 127.517C162.656 127.517 160.865 130.025 160.865 133.118C160.865 136.212 162.656 138.717 164.865 138.717C167.074 138.717 168.865 136.212 168.865 133.118C168.865 130.025 167.074 127.517 164.865 127.517ZM190.629 127.517C188.42 127.517 186.629 130.025 186.629 133.118C186.629 136.212 188.42 138.717 190.629 138.717C192.838 138.717 194.629 136.212 194.629 133.118C194.629 130.025 192.838 127.517 190.629 127.517Z" fill="#1F2225"/>
<mask id="mask1" mask-type="alpha" maskUnits="userSpaceOnUse" x="28" y="7" width="189" height="216">
<path d="M217 7H28V223H217V7Z" fill="white"/>
</mask>
<g mask="url(#mask1)">
<path fill-rule="evenodd" clip-rule="evenodd" d="M180.819 170.021C174.917 170.629 169.283 169.709 164.252 167.619C165.095 164.567 165.555 161.358 165.555 158.042C165.555 156.219 165.416 154.428 165.153 152.676H191.545C192.622 152.676 193.602 151.9 193.707 150.828C193.829 149.594 192.866 148.559 191.659 148.559H164.278C162.793 143.128 160.069 138.207 156.424 134.118C155.72 133.328 155.496 132.21 155.846 131.212C157.214 127.313 157.964 123.126 157.964 118.766C157.964 116.101 157.683 113.501 157.154 110.991C156.903 109.798 157.423 108.577 158.437 107.901C163.828 104.306 170.296 102.206 177.247 102.206C196.768 102.206 212.5 118.742 211.169 138.542C210.069 154.901 197.128 168.339 180.819 170.021ZM126.131 191.874C111.035 190.389 98.5958 178.798 96.0488 163.846C95.4158 160.131 95.4088 156.51 95.9238 153.057C96.2428 150.919 98.6358 149.82 100.478 150.953C103.958 153.092 107.81 154.684 111.913 155.606C112.071 155.716 112.241 155.813 112.433 155.877C112.799 156 113.171 156.005 113.521 155.93C115.69 156.319 117.918 156.533 120.197 156.533C124.236 156.533 128.127 155.888 131.778 154.708C131.999 155.241 132.432 155.681 133.022 155.877C134.109 156.239 135.264 155.655 135.624 154.576C135.681 154.406 135.777 154.158 135.908 153.862C136.185 153.235 136.689 152.741 137.299 152.429C137.878 152.134 138.448 151.824 139.009 151.5C140.458 150.664 142.305 151.132 143.143 152.58C143.596 153.362 143.92 154.124 144.073 154.576C144.36 155.438 145.163 155.984 146.025 155.984C146.241 155.984 146.46 155.949 146.676 155.877C147.755 155.519 148.337 154.353 147.977 153.275C147.828 152.826 146.948 150.364 145.183 148.365C144.819 147.954 144.87 147.333 145.28 146.967C148.005 144.542 150.376 141.729 152.308 138.616C153.447 136.78 156.073 136.691 157.322 138.455C161.245 143.995 163.555 150.752 163.555 158.042C163.555 177.92 146.409 193.868 126.131 191.874ZM97.3278 174.063C97.8828 175.176 97.1078 176.501 95.8628 176.502H95.8318C87.1098 176.502 87.1098 173.219 87.1098 167.78C87.1098 164.667 88.7498 161.937 91.2098 160.395C92.2558 159.741 93.6218 160.439 93.7448 161.667C94.1888 166.082 95.4308 170.262 97.3278 174.063ZM102.964 194.621C101.561 195.274 100.665 196.688 100.665 198.235V204.509C100.665 207.032 98.8258 209.29 96.3148 209.535C93.4338 209.816 90.9978 207.549 90.9978 204.725V198.59C90.9978 198.311 90.8808 198.043 90.6748 197.854C90.4898 197.684 90.2478 197.59 89.9978 197.59C89.9698 197.59 89.9428 197.591 89.9148 197.594C89.2958 197.646 88.6568 197.69 88.0038 197.728C87.4738 197.76 87.0538 198.196 87.0538 198.727V204.509C87.0538 207.033 85.2138 209.29 82.7028 209.535C79.8218 209.816 77.3868 207.549 77.3868 204.725V198.727C77.3868 198.197 76.9688 197.76 76.4398 197.729C75.7878 197.69 75.1468 197.646 74.5268 197.594C74.2498 197.563 73.9718 197.665 73.7658 197.854C73.5598 198.043 73.4428 198.311 73.4428 198.59V204.509C73.4428 207.032 71.6038 209.29 69.0928 209.535C66.2118 209.816 63.7758 207.549 63.7758 204.725V198.236C63.7758 196.697 62.8968 195.279 61.5008 194.631C52.1098 190.276 52.1098 182.001 52.1098 171.669C52.1098 163.084 55.0188 155.759 60.0268 150.48C62.7788 151.156 65.6518 151.522 68.6098 151.522C76.4448 151.522 83.6978 148.999 89.6148 144.731C90.7768 145.131 92.0118 145.344 93.2738 145.344C93.3118 145.344 93.3508 145.337 93.3888 145.337C93.9918 145.946 94.6188 146.529 95.2618 147.095C94.2288 150.325 93.6458 153.75 93.5728 157.301C88.7428 158.341 85.1098 162.643 85.1098 167.78C85.1098 173.051 85.1098 178.502 95.8318 178.502C97.3368 178.502 98.6238 178.391 99.7368 178.192C102.448 182.192 105.946 185.612 110.001 188.246C108.626 190.846 106.441 193.002 102.964 194.621ZM51.7988 142.113C52.1628 141.759 52.5038 141.38 52.8188 140.977C53.4528 140.165 54.5928 139.981 55.4628 140.535C59.0898 142.846 63.5778 144.346 68.6098 144.346C73.6288 144.346 78.1068 142.854 81.7308 140.551C82.5988 140 83.7348 140.182 84.3688 140.991C84.6848 141.393 85.0258 141.771 85.3888 142.124C86.3648 143.071 86.1408 144.674 84.9488 145.33C80.0968 148 74.5278 149.522 68.6098 149.522C62.6788 149.522 57.0998 147.996 52.2418 145.315C51.0528 144.66 50.8258 143.06 51.7988 142.113ZM41.6168 143.056C39.2118 142.447 37.1878 140.937 35.9188 138.803C34.6488 136.669 34.2868 134.169 34.8978 131.762C35.9438 127.638 42.8478 119.816 46.6508 116.556C47.7118 115.647 49.3388 116.06 49.8368 117.366C51.6228 122.045 53.9588 132.215 52.9138 136.337C51.6518 141.304 46.5848 144.319 41.6168 143.056ZM82.8308 126.789C82.6048 128.096 82.4228 129.383 82.2938 130.597C79.4138 132.413 75.0378 134.051 68.6098 134.051C62.1478 134.051 57.7598 132.395 54.8808 130.569C54.7518 129.361 54.5698 128.081 54.3448 126.781C57.4278 127.317 62.1718 127.875 68.6098 127.875C75.0168 127.875 79.7468 127.322 82.8308 126.789ZM34.8358 111.566C36.6718 95.5019 49.9078 82.8129 66.0318 81.6179C71.1678 81.2369 76.0888 82.0049 80.5638 83.6909C81.8888 84.1909 82.2998 85.8519 81.3568 86.9099C77.1778 91.5909 73.9398 97.9799 76.5408 105.458C76.9698 106.694 77.4708 107.82 78.0338 108.862C73.9218 110.428 71.8878 114.875 71.7858 115.104C71.5968 115.531 71.7198 116.029 72.0828 116.321C72.4428 116.614 72.9598 116.624 73.3398 116.35C73.3648 116.332 75.9388 114.493 80.9628 114.493C81.5678 114.493 82.1358 114.52 82.6698 114.567C82.5158 115.947 82.4308 117.346 82.4308 118.766C82.4308 119.435 82.4488 120.099 82.4838 120.758C82.5378 121.788 81.8018 122.681 80.7848 122.837C77.1108 123.403 73.3708 123.757 68.6098 123.757C63.0978 123.757 58.9568 123.284 54.7008 122.555C53.9318 122.424 53.3078 121.849 53.1068 121.095C52.4898 118.784 51.7778 116.711 51.0408 115.254C52.2958 114.852 54.0348 114.493 56.2558 114.493C61.2508 114.493 63.8198 116.307 63.8778 116.348C64.0588 116.484 64.2768 116.551 64.4918 116.551C64.7178 116.551 64.9468 116.475 65.1338 116.327C65.5008 116.035 65.6218 115.533 65.4328 115.104C65.3088 114.827 62.3458 108.316 56.2558 108.316C52.1618 108.316 49.4858 111.257 48.1318 113.27C45.8718 114.135 41.9318 118.042 38.6178 122.152C37.5298 123.5 35.3758 122.916 35.0868 121.207C34.5618 118.114 34.4568 114.88 34.8358 111.566ZM59.1568 55.0189C59.1618 54.1679 59.1658 53.4009 59.1658 52.7339C59.1658 51.8479 59.1918 50.9379 59.2448 49.9529C59.5058 45.0539 60.8958 39.4949 63.4418 34.2499C66.7618 27.4069 73.7668 23.1199 81.3728 23.1199H105.271C113.011 23.1199 120.09 27.5659 123.365 34.5799C125.72 39.6229 127.144 45.6569 127.144 52.7349C127.144 54.1599 127.144 55.5209 127.143 56.8329C127.143 57.4529 126.58 57.9019 125.968 57.7969C124.298 57.5119 122.694 57.3779 121.151 57.3679C120.553 57.3639 120.092 56.8569 120.155 56.2629C120.234 55.5159 120.297 54.7639 120.335 54.0039C120.334 53.9619 120.333 53.9199 120.333 53.8789C119.637 44.8939 110.291 40.8009 101.902 40.8009C93.5388 40.8009 82.8428 34.4479 82.7358 34.3829C82.3418 34.1469 81.8398 34.2109 81.5148 34.5339L74.9538 41.0939C73.9088 42.1389 72.8638 42.9829 71.8528 43.7989C68.8818 46.1969 66.3178 48.2689 65.9608 53.6329C65.9608 53.6699 65.9598 53.7099 65.9598 53.7489C66.3428 62.5189 69.2698 70.5579 73.9958 76.5009C75.0888 77.8749 73.9728 79.8829 72.2268 79.7059C71.0368 79.5839 69.8308 79.5219 68.6098 79.5219C66.5718 79.5219 64.5748 79.6979 62.6298 80.0269C61.5638 80.2079 60.5478 79.4909 60.3628 78.4249C59.0678 70.9879 59.1258 60.4949 59.1568 55.0189ZM72.2868 20.6539L78.1628 18.6949C78.3738 18.6249 78.5558 18.4859 78.6788 18.2999L81.7808 13.6469C82.2808 12.8969 83.2218 12.5739 84.0778 12.8589L88.4648 14.3209C88.8238 14.4429 89.2198 14.3469 89.4878 14.0799L91.7398 11.8279C92.5208 11.0459 93.7868 11.0459 94.5688 11.8279L96.8198 14.0789C97.0888 14.3469 97.4848 14.4409 97.8438 14.3209L102.231 12.8589C103.087 12.5739 104.027 12.8969 104.527 13.6469L107.63 18.3009C107.753 18.4859 107.934 18.6249 108.145 18.6949L114.022 20.6539V21.1199H72.2868V20.6539ZM129.142 57.8529C130.371 56.6569 132.122 55.2899 134.611 53.7339C134.868 53.5739 135.038 53.3039 135.073 53.0019C135.109 52.7019 135.006 52.3999 134.793 52.1839C133.699 51.0739 131.672 48.3739 132.382 47.1119C132.59 46.7429 133.391 45.9789 136.424 45.9439C137.028 47.8669 137.916 49.9819 139.219 52.0619C140.184 53.5999 140.24 55.5199 139.385 57.1219C138.919 57.9949 138.483 58.9349 138.082 59.9459C137.626 61.0949 136.284 61.5649 135.204 60.9609C133.376 59.9409 131.396 59.1229 129.284 58.5389C129.236 58.5249 129.19 58.5169 129.142 58.5039V57.8529ZM137.155 38.4449C137.158 38.4039 137.184 38.3089 137.21 38.2179C137.213 38.2079 137.244 38.0689 137.247 38.0569C137.271 38.0119 137.305 37.9739 137.37 37.8879L137.463 37.7469C137.491 37.7249 137.524 37.7089 137.554 37.6899C137.563 37.6849 137.65 37.6329 137.658 37.6269L137.822 37.5159C137.837 37.5099 137.851 37.5029 137.866 37.4969L137.87 37.5059L138.062 37.4869C138.119 37.4789 138.174 37.4659 138.238 37.4499C138.318 37.4579 138.446 37.4989 138.513 37.5189C138.569 37.5359 138.63 37.5489 138.702 37.5619C138.818 37.6199 138.916 37.6849 138.977 37.7459C139.031 37.7989 139.082 37.8719 139.119 37.9269C139.202 38.0529 139.298 38.1459 139.39 38.2199C145.879 51.9249 150.902 53.9229 150.941 53.9379C151.453 54.1349 151.697 54.7279 151.498 55.2849C151.477 55.3439 151.453 55.3999 151.423 55.4519C151.247 55.7629 151.25 56.1449 151.432 56.4539C151.616 56.7669 151.631 57.1469 151.471 57.4669C151.218 57.9709 150.536 58.1799 150.066 57.9459C150.044 57.9329 149.966 57.8889 149.944 57.8779C149.803 57.8079 149.65 57.7729 149.497 57.7729C149.326 57.7729 149.154 57.8169 149.001 57.9049C148.653 58.1049 148.25 58.0959 147.925 57.9009C137.609 51.7089 137.156 39.8349 137.137 38.5859C137.146 38.5359 137.153 38.4839 137.155 38.4449ZM148.24 47.6929C148.537 47.7609 148.85 47.6929 149.09 47.5029C149.33 47.3139 149.47 47.0249 149.47 46.7189C149.47 43.6919 150.23 37.4409 152.581 37.4409C155.12 37.4409 158.423 42.1459 159.909 45.1109C160.248 45.7889 161.359 45.7889 161.697 45.1109C163.183 42.1459 166.486 37.4409 169.026 37.4409C171.371 37.4409 172.134 43.6919 172.136 46.7189C172.136 47.0249 172.276 47.3129 172.515 47.5019C172.753 47.6919 173.066 47.7629 173.362 47.6929C173.935 47.5599 174.48 47.4399 175.012 47.3249L175.001 47.3389C174.42 48.1109 173.389 48.3879 172.502 48.0089C168.657 46.3659 164.524 45.9749 160.803 45.9749C157.091 45.9749 152.968 46.3629 149.131 47.9959C148.399 48.3069 147.543 48.0699 147.066 47.4329C147.062 47.4289 147.059 47.4239 147.055 47.4189C147.44 47.5059 147.835 47.5969 148.24 47.6929ZM182.446 38.0769C182.543 37.8479 182.719 37.6639 182.927 37.5609C182.982 37.5479 183.046 37.5329 183.077 37.5219C183.176 37.4899 183.299 37.4519 183.37 37.4489C183.43 37.4639 183.492 37.4779 183.563 37.4889L183.736 37.5049C183.777 37.5279 183.815 37.5469 183.844 37.5589L183.962 37.6349C183.967 37.6379 184.054 37.6919 184.059 37.6949C184.09 37.7129 184.121 37.7299 184.154 37.7759L184.287 37.9579C184.314 37.9919 184.342 38.0239 184.361 38.0809L184.401 38.2359C184.418 38.2919 184.448 38.3959 184.451 38.4469V38.4489C184.454 38.5029 184.461 38.5519 184.469 38.5959C184.448 39.9099 183.965 51.7279 173.682 57.8989C173.352 58.0959 172.949 58.1019 172.606 57.9049C172.452 57.8169 172.281 57.7729 172.109 57.7729C171.963 57.7729 171.816 57.8049 171.68 57.8699C171.627 57.8949 171.578 57.9219 171.554 57.9389C171.03 58.2019 170.388 57.9719 170.136 57.4689C169.977 57.1499 169.988 56.7769 170.166 56.4699C170.349 56.1549 170.346 55.7659 170.159 55.4539C170.131 55.4069 170.106 55.3489 170.081 55.2739C169.897 54.7219 170.196 54.1229 170.82 53.9109C171.425 53.6549 176.888 51.0419 182.446 38.0769ZM149.47 77.5529V71.3859C149.47 69.6699 150.865 68.2749 152.581 68.2749C154.297 68.2749 155.692 69.6699 155.692 71.3859V77.5529C155.692 79.2689 154.297 80.6649 152.581 80.6649C150.865 80.6649 149.47 79.2689 149.47 77.5529ZM169.025 97.0529C169.025 98.1899 169.944 99.1089 171.081 99.1089C172.217 99.1089 173.136 98.1899 173.136 97.0529H169.025ZM173.447 97.0529L173.965 97.2439L174.534 97.5309L174.589 98.3039C174.589 98.9999 173.759 99.7919 172.421 100.539C169.1 100.986 165.922 101.883 162.95 103.174C162.235 103.237 161.516 103.276 160.803 103.276C160.777 103.276 160.752 103.274 160.726 103.274C161.112 102.768 161.426 102.241 161.649 101.686C162.347 99.9489 162.113 98.3229 161.648 97.0529H163.158C162.972 97.3629 162.859 97.7209 162.859 98.1089V99.1639C162.859 100.3 163.777 101.219 164.914 101.219C166.051 101.219 166.97 100.3 166.97 99.1639V98.1089C166.97 97.7209 166.856 97.3629 166.67 97.0529H173.447ZM156.305 104.346C155.781 104.639 155.121 104.408 154.883 103.856C153.559 100.788 151.84 97.9289 149.79 95.3439C149.285 94.7079 149.726 93.7749 150.537 93.7369C152.612 93.6389 155.921 93.7919 158.222 95.4059C158.38 95.5539 158.537 95.6939 158.694 95.8469C158.9 96.0889 160.802 98.4309 159.793 100.941C159.415 101.882 158.486 103.122 156.305 104.346ZM84.4778 120.62C84.0858 112.899 86.1608 105.675 89.9798 99.6619C91.7138 96.9309 95.1338 95.8069 98.1838 96.8869C103.904 98.9139 113.059 101.658 120.679 101.658C123.931 101.658 126.903 101.158 129.208 99.8879C133.895 97.3069 138.083 95.7859 141.672 94.9219C144.364 94.2749 147.224 95.2179 148.88 97.4379C153.325 103.396 155.964 110.777 155.964 118.766C155.964 139.33 138.52 155.895 117.653 154.444C99.7668 153.201 85.3878 138.526 84.4778 120.62ZM84.2378 130.299C85.7678 135.057 88.2178 139.405 91.3768 143.135C88.0128 142.428 85.1658 139.887 84.2638 136.337C83.8988 134.898 83.9458 132.721 84.2378 130.299ZM117.444 75.3329C118.495 73.3489 121.033 72.2749 124.988 72.1379C125.27 72.1279 125.546 72.1239 125.817 72.1239C129.795 72.1239 132.615 73.1709 134.206 75.2429C135.361 76.7469 135.724 78.6049 135.761 80.2439C135.777 80.9169 135.152 81.4119 134.499 81.2419C129.248 79.8739 123.711 79.2829 118.048 79.9159C117.504 79.9759 117.002 79.5989 116.936 79.0539C116.774 77.7219 116.872 76.4129 117.444 75.3329ZM146.983 88.2859C148.74 89.2049 148.258 91.8469 146.286 92.0539C141.452 92.5609 135.377 94.2069 128.243 98.1359C120.952 102.15 105.362 97.3529 97.7868 94.6039C96.3408 94.0789 96.0058 92.2029 97.1708 91.1979C99.8068 88.9229 103.98 85.9549 109.54 83.9439C111.201 83.3719 112.973 82.8649 114.854 82.4639C114.861 82.4619 114.869 82.4599 114.878 82.4579C115.213 82.3869 115.552 82.3209 115.894 82.2559C125.605 80.5619 136.134 82.6099 146.983 88.2859ZM92.9748 80.2509C93.1818 80.1439 93.3458 79.9669 93.4368 79.7509C93.4648 79.6859 96.2728 73.1139 102.049 67.4879C107.621 62.0599 113.904 59.3329 120.804 59.3329C123.369 59.3329 126.02 59.7099 128.751 60.4659C138.946 63.2859 145.86 71.9999 146.546 82.5609C146.644 84.0599 145.104 85.1129 143.73 84.5029C142.227 83.8369 140.686 83.2199 139.113 82.6649C138.306 82.3789 137.755 81.6289 137.769 80.7739C137.802 78.6809 137.411 76.1399 135.8 74.0349C133.686 71.2739 130.016 69.9569 124.92 70.1399C120.197 70.3019 117.088 71.7349 115.677 74.3959C114.978 75.7159 114.785 77.1939 114.88 78.6549C114.943 79.6269 114.304 80.5029 113.356 80.7249C112.228 80.9879 111.097 81.3029 109.965 81.6749C98.6038 85.4089 92.5548 92.9159 92.3028 93.2339C92.2538 93.2949 92.2368 93.3729 92.2048 93.4419C88.8998 97.0919 86.3008 101.391 84.6178 106.122C83.6958 108.712 80.1198 108.879 79.0308 106.354C78.8168 105.858 78.6158 105.34 78.4288 104.802C76.3678 98.8749 78.1398 92.9739 83.6938 87.2589C87.9488 82.8809 92.9248 80.2779 92.9748 80.2509ZM117.987 57.5239C107.671 58.6389 100.526 65.4729 96.2978 71.1379C95.7878 71.8219 95.0308 72.2749 94.1828 72.3639C93.8608 72.3969 93.5188 72.4169 93.1538 72.4169C89.8808 72.4169 88.2318 70.9509 88.1178 70.8479C87.2628 70.0169 85.8938 70.0219 85.0478 70.8699C84.1928 71.7249 84.1928 73.1069 85.0478 73.9619C85.3278 74.2439 87.8638 76.6259 92.6888 76.7759C92.2288 77.6249 91.9098 78.2829 91.7408 78.6469C91.0148 79.0519 89.1138 80.1659 86.8608 81.8769C85.9258 82.5879 84.6618 82.6579 83.6248 82.1069C83.3988 81.9869 83.1728 81.8619 82.9488 81.7329C74.2528 76.7249 68.5128 65.9929 67.9598 53.7149C68.2698 49.2619 70.3018 47.6219 73.1098 45.3549C74.1118 44.5449 75.2488 43.6279 76.3678 42.5079L80.2948 38.5819C81.5108 37.3659 83.3658 37.0559 84.9018 37.8279C88.8638 39.8159 95.8228 42.8009 101.902 42.8009C109.379 42.8009 117.694 46.2959 118.334 53.9679C118.272 55.1709 118.147 56.3549 117.987 57.5239ZM176.49 96.8269C176.466 96.4739 176.258 96.1609 175.943 96.0009L174.814 95.4319C174.779 95.4149 174.745 95.3989 174.709 95.3859L173.971 95.1149C173.861 95.0739 173.743 95.0529 173.626 95.0529H160.6C160.37 94.7259 160.195 94.5239 160.167 94.4929C160.152 94.4759 160.137 94.4589 160.121 94.4439C156.393 90.8049 152.767 88.5889 149.386 87.3239C149.095 86.8749 148.839 86.4809 148.548 86.0339C148.569 85.7049 148.585 85.3759 148.593 85.0509C148.633 83.4629 148.544 81.9079 148.335 80.3919C149.313 81.8499 151.019 82.7809 152.929 82.6529C155.652 82.4709 157.692 80.0579 157.692 77.3309V71.6139C157.692 68.9459 155.746 66.5589 153.091 66.2999C150.044 66.0019 147.47 68.3999 147.47 71.3859V76.4029C146.09 71.7059 143.491 67.5619 139.947 64.3609C139.36 63.8299 139.094 63.0159 139.344 62.2649C139.839 60.7749 140.405 59.4349 141.036 58.2329C141.618 57.1239 143.078 56.7939 144.042 57.5939C144.906 58.3119 145.855 58.9909 146.898 59.6169C147.675 60.0829 148.638 60.1789 149.493 59.8719C149.823 59.9909 150.173 60.0519 150.523 60.0519C151.689 60.0519 152.736 59.4049 153.26 58.3609C153.641 57.5939 153.682 56.7189 153.39 55.9329C153.94 54.3499 153.184 52.6589 151.711 52.0929C151.704 52.0899 151.603 52.0399 151.418 51.9179C150.33 51.2079 150.556 49.5279 151.798 49.1429C154.731 48.2319 157.826 47.9749 160.803 47.9749C163.814 47.9749 166.946 48.2409 169.909 49.1769C171.214 49.5899 171.362 51.4099 170.141 52.0269L170.111 52.0419C168.516 52.5769 167.651 54.3099 168.181 55.8989C168.189 55.9209 168.196 55.9439 168.204 55.9649C167.923 56.7429 167.969 57.6069 168.347 58.3639C168.87 59.4049 169.918 60.0519 171.083 60.0519C171.441 60.0519 171.789 59.9909 172.115 59.8729C172.445 59.9909 172.792 60.0519 173.139 60.0519C173.686 60.0519 174.228 59.9019 174.708 59.6159C175.752 58.9899 176.701 58.3099 177.567 57.5909C178.522 56.7979 179.98 57.1099 180.559 58.2079C182.971 62.7819 184.47 69.3379 184.47 78.7089C184.47 87.3189 182.491 94.5199 178.953 99.7839C178.759 100.072 178.428 100.232 178.082 100.221C177.805 100.211 177.527 100.206 177.247 100.206C176.78 100.206 176.317 100.223 175.855 100.241C176.311 99.6189 176.587 98.9519 176.586 98.2359L176.49 96.8269ZM185.167 45.9869C188.22 46.0279 189.022 46.7949 189.228 47.1659C189.926 48.4179 187.905 51.0849 186.817 52.1809C186.602 52.3969 186.498 52.6989 186.532 52.9999C186.568 53.3029 186.737 53.5729 186.996 53.7339C194.014 58.1209 195.254 61.0409 195.058 62.7169C194.776 65.1299 191.353 66.3149 191.32 66.3269C191.015 66.4279 190.777 66.6689 190.682 66.9769C190.586 67.2839 190.644 67.6179 190.837 67.8749C194.933 73.3359 196.448 77.5309 195.218 80.0019C193.889 82.6719 189.622 82.7199 189.579 82.7199C189.116 82.7219 188.715 83.0419 188.609 83.4919C188.503 83.9419 188.719 84.4069 189.133 84.6149C189.21 84.6529 196.803 88.5279 196.803 93.9979C196.803 95.2239 196.536 96.0699 195.986 96.5829C194.823 97.6669 192.162 97.4809 189.344 97.2869C188.09 97.1989 186.792 97.1089 185.47 97.1089C185.088 97.1089 184.739 97.3269 184.571 97.6689C184.404 98.0119 184.446 98.4209 184.68 98.7229C184.832 98.9179 184.976 99.1069 185.112 99.2909C185.664 100.031 185.021 101.044 184.114 100.868C183.57 100.761 183.022 100.667 182.469 100.585C181.79 100.486 181.414 99.7249 181.752 99.1279C184.793 93.7539 186.47 86.8179 186.47 78.7089C186.47 68.9129 184.834 62.0149 182.248 57.1659C181.384 55.5459 181.418 53.6069 182.392 52.0509C183.682 49.9909 184.565 47.8959 185.167 45.9869ZM191.109 102.99C189.922 102.493 188.962 101.599 188.318 100.485C188.075 100.066 187.799 99.6279 187.486 99.1699C188.065 99.2029 188.64 99.2429 189.206 99.2819C192.611 99.5189 195.551 99.7219 197.35 98.0449C198.328 97.1329 198.803 95.8089 198.803 93.9979C198.803 89.5109 195.039 86.1089 192.438 84.2939C194.083 83.8349 196.014 82.8819 197.004 80.9029C198.534 77.8419 197.247 73.3999 193.178 67.6889C194.59 66.9599 196.746 65.4559 197.043 62.9599C197.417 59.8149 194.802 56.4459 189.058 52.6789C190.269 51.2219 192.193 48.3809 190.977 46.1939C190.225 44.8419 188.504 44.1099 185.719 43.9909C186.446 40.9479 186.47 38.7189 186.47 38.4939C186.47 38.4279 186.459 38.3349 186.442 38.2539C186.421 38.0249 186.366 37.8259 186.306 37.6159C186.282 37.5159 186.246 37.3659 186.17 37.2039C186.075 37.0009 185.958 36.8489 185.872 36.7379L185.799 36.6379C185.733 36.5419 185.641 36.4099 185.497 36.2739C185.349 36.1369 185.201 36.0479 185.093 35.9829L184.496 36.7899L184.955 35.8949C184.868 35.8369 184.756 35.7619 184.608 35.6959C184.551 35.6639 184.49 35.6339 184.436 35.6149C184.219 35.5389 184.029 35.5239 183.861 35.5099C183.757 35.4799 183.539 35.4109 183.268 35.4529C182.986 35.4679 182.731 35.5349 182.501 35.6069C182.417 35.6239 182.281 35.6609 182.215 35.6889C181.485 35.9999 180.913 36.5699 180.607 37.2919C179.249 40.4589 177.902 42.9659 176.647 44.9499C175.83 45.1079 174.991 45.2779 174.102 45.4749C173.953 42.4579 173.161 35.4409 169.026 35.4409C165.523 35.4409 162.326 40.0149 160.803 42.5889C159.281 40.0149 156.084 35.4409 152.581 35.4409C148.447 35.4409 147.654 42.4509 147.504 45.4699C146.773 45.3049 146.074 45.1579 145.392 45.0189C144.115 43.0419 142.701 40.5399 141.204 37.3779C141.105 37.0419 140.861 36.8299 140.711 36.7139C140.614 36.5809 140.502 36.4419 140.387 36.3269C140.132 36.0759 139.799 35.8569 139.408 35.6849C139.257 35.6229 139.124 35.6059 139.103 35.6079C138.881 35.5389 138.64 35.4719 138.352 35.4539C138.083 35.4149 137.87 35.4779 137.718 35.5119C137.588 35.5219 137.39 35.5379 137.149 35.6239C137.109 35.6389 137.06 35.6619 137.015 35.6869C136.861 35.7549 136.742 35.8349 136.653 35.8949L136.537 35.9679C136.418 36.0389 136.256 36.1339 136.109 36.2759C135.975 36.3999 135.886 36.5269 135.827 36.6109L135.744 36.7219C135.655 36.8389 135.533 36.9999 135.441 37.1989C135.362 37.3629 135.325 37.5139 135.283 37.6829C135.239 37.8379 135.186 38.0279 135.165 38.2529C135.148 38.3339 135.136 38.4299 135.136 38.4969C135.136 38.7209 135.16 40.9279 135.876 43.9469C133.11 44.0599 131.394 44.7879 130.638 46.1329C129.403 48.3319 131.34 51.2079 132.552 52.6759C131.254 53.5269 130.124 54.3569 129.144 55.1689V52.7349C129.144 39.0659 124.066 29.0979 117.132 22.4839C116.438 21.8229 116.022 20.9209 116.022 19.9619V19.9329C116.022 19.5029 115.747 19.1209 115.339 18.9849L110.229 17.2819C110.163 17.2429 110.097 17.2049 110.03 17.1669C109.253 16.7169 108.576 16.1149 108.078 15.3679L104.921 10.6319C104.671 10.2559 104.2 10.0949 103.772 10.2379L101.114 11.1239C99.0818 11.7999 96.8408 11.2719 95.3258 9.7569L93.8608 8.2919C93.4708 7.9019 92.8378 7.9019 92.4468 8.2919L90.9828 9.7569C89.4668 11.2719 87.2268 11.7999 85.1948 11.1239L82.5358 10.2379C82.1078 10.0949 81.6378 10.2559 81.3878 10.6309L78.2468 15.3439C77.7318 16.1169 77.0458 16.7599 76.2418 17.2249L76.2298 17.2319L70.9698 18.9849C70.5618 19.1209 70.2868 19.5019 70.2868 19.9329V19.9659C70.2868 20.8979 69.9128 21.7899 69.2358 22.4279C63.8518 27.5039 57.9798 36.1129 57.2478 49.8449C57.1928 50.8669 57.1658 51.8119 57.1658 52.7339C57.1658 53.3969 57.1618 54.1619 57.1568 55.0069C57.1168 61.9959 57.0538 73.3369 58.8268 80.8829C43.7168 85.1579 32.6098 99.0619 32.6098 115.522C32.6098 119.763 33.3518 123.833 34.7048 127.616C33.8268 129.052 33.1988 130.327 32.9598 131.27C32.2168 134.195 32.6568 137.233 34.1998 139.826C35.7428 142.418 38.2018 144.254 41.1258 144.996C42.0548 145.231 42.9858 145.344 43.9038 145.344C45.1758 145.344 46.4188 145.126 47.5898 144.72C50.6728 146.947 54.1168 148.703 57.8218 149.87C52.9298 155.429 50.1098 162.939 50.1098 171.669C50.1098 180.833 50.1098 189.563 57.7518 194.801C60.3018 196.549 61.7758 199.488 61.7758 202.58V204.457C61.7758 208.102 64.5158 211.306 68.1548 211.543C70.4568 211.693 72.5388 210.695 73.8818 209.067C74.6838 208.094 76.1878 208.168 77.0018 209.131C78.2558 210.615 80.1298 211.558 82.2198 211.558C84.3108 211.558 86.1848 210.615 87.4388 209.131C88.2528 208.168 89.7558 208.094 90.5588 209.067C91.9018 210.695 93.9838 211.693 96.2858 211.543C99.9238 211.306 102.665 208.102 102.665 204.457V202.58C102.665 199.399 104.296 196.495 106.892 194.658C108.089 193.812 109.092 192.877 109.935 191.868C111.074 190.5 112.988 190.038 114.607 190.78C119.162 192.872 124.223 194.042 129.555 194.042C144.118 194.042 156.68 185.346 162.343 172.877C163.155 171.088 165.174 170.172 167.059 170.731C171.527 172.055 176.352 172.537 181.357 171.974C197.905 170.115 211.19 156.836 213.021 140.286C214.862 123.636 205.265 108.919 191.109 102.99Z" fill="#1F2225"/>
</g>
<path fill-rule="evenodd" clip-rule="evenodd" d="M41.0796 111.257C41.3306 111.358 41.5886 111.405 41.8436 111.405C42.6606 111.403 43.4336 110.915 43.7566 110.111C47.3876 101.029 56.2866 99.0902 56.6666 99.0122C57.7766 98.7852 58.4976 97.7012 58.2746 96.5902C58.0526 95.4752 56.9716 94.7562 55.8516 94.9762C55.3886 95.0672 44.4126 97.3812 39.9336 108.58C39.5106 109.637 40.0236 110.835 41.0796 111.257ZM111.025 163.219C109.587 163.219 108.206 163.83 107.237 164.897C106.269 165.962 105.794 167.399 105.932 168.839C106.18 171.427 108.496 173.454 111.204 173.454C112.792 173.454 114.084 172.162 114.084 170.574V166.099C114.084 164.511 112.792 163.219 111.204 163.219H111.025ZM119.082 163.219C117.494 163.219 116.202 164.511 116.202 166.099V170.574C116.202 172.162 117.494 173.454 119.082 173.454H125.616C127.204 173.454 128.496 172.162 128.496 170.574V166.099C128.496 164.511 127.204 163.219 125.616 163.219H119.082ZM133.493 163.219C131.905 163.219 130.613 164.511 130.613 166.099V170.574C130.613 172.162 131.905 173.454 133.493 173.454H140.028C141.616 173.454 142.908 172.162 142.908 170.574V166.099C142.908 164.511 141.616 163.219 140.028 163.219H133.493ZM147.905 163.219C146.317 163.219 145.025 164.511 145.025 166.099V170.574C145.025 172.162 146.317 173.454 147.905 173.454C150.613 173.454 152.929 171.427 153.178 168.839C153.316 167.399 152.84 165.962 151.872 164.897C150.903 163.83 149.523 163.219 148.084 163.219H147.905ZM111.025 175.573C107.035 175.573 103.79 172.326 103.79 168.336C103.79 164.347 107.035 161.102 111.025 161.102H148.084C152.074 161.102 155.319 164.347 155.319 168.336C155.319 172.326 152.074 175.573 148.084 175.573H111.025ZM118.879 121.123C121.088 121.123 122.879 118.617 122.879 115.522C122.879 112.43 121.088 109.923 118.879 109.923C116.67 109.923 114.879 112.43 114.879 115.522C114.879 118.617 116.67 121.123 118.879 121.123ZM144.995 121.123C147.205 121.123 148.995 118.617 148.995 115.522C148.995 112.43 147.205 109.923 144.995 109.923C142.786 109.923 140.995 112.43 140.995 115.522C140.995 118.617 142.786 121.123 144.995 121.123ZM116.219 133.447C116.723 133.447 118.086 139.015 124.728 137.159C125.464 136.954 126.272 137.075 126.843 137.584C129.024 139.529 134.285 141.503 138.175 137.699C138.736 137.15 139.574 136.966 140.323 137.199C145.887 138.934 147.037 133.447 147.465 133.447C149.692 133.447 151.497 131.333 151.497 128.725C151.497 127.747 150.865 126.666 150.329 125.925C150.013 125.488 149.423 125.524 149.158 126.007C148.469 127.262 146.868 129.195 143.727 128.556C142.414 128.193 141.237 127.4 139.932 127.009C137.954 126.416 137.162 126.385 135.44 126.952C135.048 127.082 134.62 127.113 134.219 127.016C131.581 126.383 127.441 126.393 125.039 127.009C123.512 127.4 122.133 128.193 120.596 128.556C117.976 129.011 116.271 128.162 115.215 127.181C113.954 126.01 111.778 126.704 111.522 128.406C111.506 128.513 111.497 128.62 111.497 128.725C111.497 131.333 113.611 133.447 116.219 133.447ZM218.846 73.9525H218.336C217.784 73.9525 217.336 73.5055 217.336 72.9525V72.4415C217.336 71.8895 216.888 71.4415 216.336 71.4415C215.783 71.4415 215.336 71.8895 215.336 72.4415V72.9525C215.336 73.5055 214.888 73.9525 214.336 73.9525H213.826C213.274 73.9525 212.826 74.3995 212.826 74.9525C212.826 75.5055 213.274 75.9525 213.826 75.9525H214.336C214.888 75.9525 215.336 76.3995 215.336 76.9525V77.4625C215.336 78.0145 215.783 78.4625 216.336 78.4625C216.888 78.4625 217.336 78.0145 217.336 77.4625V76.9525C217.336 76.3995 217.784 75.9525 218.336 75.9525H218.846C219.398 75.9525 219.846 75.5055 219.846 74.9525C219.846 74.3995 219.398 73.9525 218.846 73.9525ZM11.02 73.9525H10.51C9.958 73.9525 9.51 73.5055 9.51 72.9525V72.4415C9.51 71.8895 9.062 71.4415 8.51 71.4415C7.957 71.4415 7.51 71.8895 7.51 72.4415V72.9525C7.51 73.5055 7.062 73.9525 6.51 73.9525H6C5.448 73.9525 5 74.3995 5 74.9525C5 75.5055 5.448 75.9525 6 75.9525H6.51C7.062 75.9525 7.51 76.3995 7.51 76.9525V77.4625C7.51 78.0145 7.957 78.4625 8.51 78.4625C9.062 78.4625 9.51 78.0145 9.51 77.4625V76.9525C9.51 76.3995 9.958 75.9525 10.51 75.9525H11.02C11.572 75.9525 12.02 75.5055 12.02 74.9525C12.02 74.3995 11.572 73.9525 11.02 73.9525ZM25.04 149.533C24.206 149.533 23.53 148.857 23.53 148.023C23.53 147.47 23.082 147.023 22.53 147.023C21.977 147.023 21.53 147.47 21.53 148.023C21.53 148.857 20.854 149.533 20.02 149.533C19.468 149.533 19.02 149.98 19.02 150.533C19.02 151.086 19.468 151.533 20.02 151.533C20.854 151.533 21.53 152.209 21.53 153.043C21.53 153.595 21.977 154.043 22.53 154.043C23.082 154.043 23.53 153.595 23.53 153.043C23.53 152.209 24.206 151.533 25.04 151.533C25.592 151.533 26.04 151.086 26.04 150.533C26.04 149.98 25.592 149.533 25.04 149.533ZM37.6464 55.6791C37.9024 55.6791 38.1584 55.5811 38.3534 55.3861L39.5374 54.2021C39.9274 53.8121 39.9274 53.1791 39.5374 52.7881C39.1464 52.3981 38.5134 52.3981 38.1234 52.7881L36.9394 53.9721C36.5484 54.3631 36.5484 54.9951 36.9394 55.3861C37.1344 55.5811 37.3904 55.6791 37.6464 55.6791ZM33.6206 58.7055C33.2296 58.3145 32.5976 58.3145 32.2066 58.7055L31.0236 59.8885C30.6326 60.2785 30.6326 60.9115 31.0236 61.3025C31.2186 61.4975 31.4746 61.5955 31.7306 61.5955C31.9866 61.5955 32.2426 61.4975 32.4376 61.3025L33.6206 60.1195C34.0116 59.7285 34.0116 59.0965 33.6206 58.7055ZM38.123 61.3021C38.318 61.4971 38.574 61.5951 38.83 61.5951C39.086 61.5951 39.342 61.4971 39.538 61.3021C39.928 60.9111 39.928 60.2781 39.537 59.8881L38.353 58.7051C37.963 58.3151 37.33 58.3151 36.939 58.7051C36.549 59.0961 36.549 59.7301 36.939 60.1191L38.123 61.3021ZM32.2065 55.3861C32.4015 55.5811 32.6575 55.6791 32.9135 55.6791C33.1695 55.6791 33.4255 55.5811 33.6205 55.3861C34.0115 54.9951 34.0115 54.3631 33.6205 53.9721L32.4375 52.7881C32.0465 52.3981 31.4145 52.3981 31.0235 52.7881C30.6325 53.1791 30.6325 53.8121 31.0235 54.2021L32.2065 55.3861ZM223.926 98.9652C223.093 98.9652 222.416 98.2872 222.416 97.4552C222.416 96.6222 223.093 95.9442 223.926 95.9442C224.759 95.9442 225.436 96.6222 225.436 97.4552C225.436 98.2872 224.759 98.9652 223.926 98.9652ZM223.926 93.9442C221.99 93.9442 220.416 95.5202 220.416 97.4552C220.416 99.3912 221.99 100.965 223.926 100.965C225.862 100.965 227.436 99.3912 227.436 97.4552C227.436 95.5202 225.862 93.9442 223.926 93.9442Z" fill="#1F2225"/>
</g>
<defs>
<clipPath id="clip0">
<rect width="272" height="212" fill="white"/>
</clipPath>
</defs>
</svg>
