<svg width="114" height="54" viewBox="0 0 114 54" fill="none" xmlns="http://www.w3.org/2000/svg">
<path fill-rule="evenodd" clip-rule="evenodd" d="M86.9868 26.9999C86.9868 40.8069 75.7938 51.9999 61.9868 51.9999C51.6348 51.9999 42.7528 45.7079 38.9548 36.7399C37.6878 33.7469 36.9868 30.4549 36.9868 26.9999C36.9868 25.8269 37.0678 24.6739 37.2238 23.5439C38.9068 11.3719 49.3528 1.99988 61.9868 1.99988C75.7938 1.99988 86.9868 13.1929 86.9868 26.9999" fill="#7A8EC7"/>
<path fill-rule="evenodd" clip-rule="evenodd" d="M61.9868 38.2522C54.8368 38.2522 48.9868 32.4022 48.9868 25.2522V21.2522C48.9868 14.1022 54.8368 8.2522 61.9868 8.2522C69.1368 8.2522 74.9868 14.1022 74.9868 21.2522V25.2522C74.9868 32.4022 69.1368 38.2522 61.9868 38.2522Z" fill="#ECAC7D"/>
<path fill-rule="evenodd" clip-rule="evenodd" d="M61.9868 38.2522C54.8368 38.2522 48.9868 32.4022 48.9868 25.2522V21.2522C48.9868 14.1022 54.8368 8.2522 61.9868 8.2522C69.1368 8.2522 74.9868 14.1022 74.9868 21.2522V25.2522C74.9868 32.4022 69.1368 38.2522 61.9868 38.2522Z" stroke="#1E1F21" stroke-width="2" stroke-linecap="round" stroke-linejoin="round"/>
<mask id="mask0" mask-type="alpha" maskUnits="userSpaceOnUse" x="44" y="43" width="36" height="9">
<path d="M44 45.245C48.5473 48.7931 54.931 51.0002 62.0002 51.0002C69.0691 51.0002 75.4528 48.7934 80 45.2456V43.0002H44V45.245V45.245Z" fill="white"/>
</mask>
<g mask="url(#mask0)">
<path fill-rule="evenodd" clip-rule="evenodd" d="M44 56.0002V52.286C44 47.1575 48.477 43.0002 54 43.0002H70C75.523 43.0002 80 47.1575 80 52.286V56.0002H44Z" fill="#3E70DD"/>
</g>
<mask id="mask1" mask-type="alpha" maskUnits="userSpaceOnUse" x="43" y="40" width="36" height="13">
<path d="M43 43.6298C47.5473 48.7901 53.931 52.0002 61.0002 52.0002C68.0691 52.0002 74.4528 48.7906 79 43.6306V40.365H43V43.6298Z" fill="white"/>
</mask>
<g mask="url(#mask1)">
<path fill-rule="evenodd" clip-rule="evenodd" d="M43.9868 55.3651V51.5465C43.9868 46.2741 48.4638 42.0002 53.9868 42.0002H69.9868C75.5098 42.0002 79.9868 46.2741 79.9868 51.5465V55.3651H43.9868V55.3651Z" stroke="#1E1F21" stroke-width="2" stroke-linecap="round" stroke-linejoin="round"/>
</g>
<path d="M38.9551 36.7398C38.8251 36.4338 38.7011 36.1238 38.5841 35.8118M37.5281 32.1989C37.1731 30.5219 36.9871 28.7829 36.9871 26.9999C36.9871 25.8269 37.0671 24.6739 37.2241 23.5439C38.9071 11.3719 49.3521 1.99988 61.9871 1.99988C75.7941 1.99988 86.9871 13.1929 86.9871 26.9999C86.9871 40.8069 75.7941 51.9999 61.9871 51.9999C53.2421 51.9999 45.5461 47.5099 41.0781 40.7099L37.5281 32.1989Z" stroke="#1E1F21" stroke-width="2" stroke-linecap="round" stroke-linejoin="round"/>
<path d="M20.3935 38.4573L19.5605 37.6243M24.5601 37.6239L23.7271 38.4569L24.5601 37.6239ZM20.3935 41.7906L19.5605 42.6236L20.3935 41.7906ZM24.5601 42.6239L23.7271 41.7909L24.5601 42.6239Z" stroke="#C5D3FF" stroke-linecap="round" stroke-linejoin="round"/>
<path fill-rule="evenodd" clip-rule="evenodd" d="M105.577 23.629C105.577 25.01 104.458 26.129 103.077 26.129C101.696 26.129 100.577 25.01 100.577 23.629C100.577 22.248 101.696 21.129 103.077 21.129C104.458 21.129 105.577 22.248 105.577 23.629Z" stroke="#7187DD" stroke-linecap="round" stroke-linejoin="round"/>
<path fill-rule="evenodd" clip-rule="evenodd" d="M15.9453 23.2061C15.9453 24.3111 15.0503 25.2061 13.9453 25.2061C12.8403 25.2061 11.9453 24.3111 11.9453 23.2061C11.9453 22.1011 12.8403 21.2061 13.9453 21.2061C15.0503 21.2061 15.9453 22.1011 15.9453 23.2061Z" stroke="#F4D862" stroke-linecap="round" stroke-linejoin="round"/>
<path d="M6.5 33.0726H1.5M4 30.5726V35.5726V30.5726Z" stroke="#43B581" stroke-linecap="round" stroke-linejoin="round"/>
<path d="M112.077 12.587H108.077M110.077 10.587V14.587V10.587Z" stroke="#F4D862" stroke-linecap="round" stroke-linejoin="round"/>
<path fill-rule="evenodd" clip-rule="evenodd" d="M86.9866 11.9999C86.9866 17.5229 82.5096 21.9999 76.9866 21.9999C71.4636 21.9999 66.9866 17.5229 66.9866 11.9999C66.9866 6.47688 71.4636 1.99988 76.9866 1.99988C82.5096 1.99988 86.9866 6.47688 86.9866 11.9999Z" fill="#43B581"/>
<path d="M66.9866 11.9999C66.9866 10.6189 67.2666 9.30388 67.7726 8.10788C69.2906 4.51788 72.8446 1.99988 76.9866 1.99988C82.5096 1.99988 86.9866 6.47688 86.9866 11.9999C86.9866 17.5229 82.5096 21.9999 76.9866 21.9999C72.9166 21.9999 69.4146 19.5689 67.8536 16.0799" stroke="#1E1F21" stroke-width="2" stroke-linecap="round" stroke-linejoin="round"/>
<path fill-rule="evenodd" clip-rule="evenodd" d="M78.4868 10.4999V7.49988C78.4868 7.22388 78.2628 6.99988 77.9868 6.99988H75.9868C75.7108 6.99988 75.4868 7.22388 75.4868 7.49988V10.4999H72.4868C72.2108 10.4999 71.9868 10.7239 71.9868 10.9999V12.9999C71.9868 13.2759 72.2108 13.4999 72.4868 13.4999H75.4868V16.4999C75.4868 16.7759 75.7108 16.9999 75.9868 16.9999H77.9868C78.2628 16.9999 78.4868 16.7759 78.4868 16.4999V13.4999H81.4868C81.7628 13.4999 81.9868 13.2759 81.9868 12.9999V10.9999C81.9868 10.7239 81.7628 10.4999 81.4868 10.4999H78.4868Z" fill="white"/>
</svg>
