<svg width="385" height="183" viewBox="0 0 385 183" fill="none" xmlns="http://www.w3.org/2000/svg">
<path fill-rule="evenodd" clip-rule="evenodd" d="M293.771 91.4996C293.771 138.29 255.97 176.222 209.341 176.222C174.381 176.222 144.384 154.899 131.558 124.507C127.279 114.364 124.912 103.208 124.912 91.4996C124.912 87.5244 125.185 83.617 125.712 79.7876C131.396 38.538 166.674 6.77734 209.341 6.77734C255.97 6.77734 293.771 44.7092 293.771 91.4996" fill="#7A8EC7"/>
<path fill-rule="evenodd" clip-rule="evenodd" d="M209.341 129.632C185.195 129.632 165.438 109.807 165.438 85.5769V72.0214C165.438 47.7908 185.195 27.9658 209.341 27.9658C233.488 27.9658 253.245 47.7908 253.245 72.0214V85.5769C253.245 109.807 233.488 129.632 209.341 129.632Z" fill="#ECAC7D"/>
<path fill-rule="evenodd" clip-rule="evenodd" d="M209.341 129.632C185.195 129.632 165.438 109.807 165.438 85.5769V72.0214C165.438 47.7908 185.195 27.9658 209.341 27.9658C233.488 27.9658 253.245 47.7908 253.245 72.0214V85.5769C253.245 109.807 233.488 129.632 209.341 129.632Z" stroke="#1E1F21" stroke-width="2" stroke-linecap="round" stroke-linejoin="round"/>
<mask id="mask0" mask-type="alpha" maskUnits="userSpaceOnUse" x="148" y="145" width="123" height="28">
<path d="M148.596 153.33C163.954 165.354 185.513 172.834 209.387 172.834C233.26 172.834 254.819 165.355 270.175 153.332V145.723H148.596V153.33V153.33Z" fill="white"/>
</mask>
<g mask="url(#mask0)">
<path fill-rule="evenodd" clip-rule="evenodd" d="M148.596 189.778V177.191C148.596 159.811 163.716 145.723 182.368 145.723H236.404C255.056 145.723 270.175 159.811 270.175 177.191V189.778H148.596Z" fill="#3E70DD"/>
</g>
<mask id="mask1" mask-type="alpha" maskUnits="userSpaceOnUse" x="145" y="136" width="122" height="41">
<path d="M145.219 147.856C160.576 165.344 182.135 176.223 206.009 176.223C229.882 176.223 251.441 165.346 266.798 147.859V136.792H145.219V147.856Z" fill="white"/>
</mask>
<g mask="url(#mask1)">
<path fill-rule="evenodd" clip-rule="evenodd" d="M148.552 187.626V174.685C148.552 156.818 163.672 142.334 182.324 142.334H236.359C255.011 142.334 270.131 156.818 270.131 174.685V187.626H148.552V187.626Z" stroke="#1E1F21" stroke-width="2" stroke-linecap="round" stroke-linejoin="round"/>
</g>
<path d="M131.559 124.507C131.12 123.47 130.701 122.419 130.306 121.362M126.74 109.118C125.541 103.435 124.913 97.542 124.913 91.4996C124.913 87.5244 125.183 83.617 125.713 79.7876C131.397 38.538 166.672 6.77734 209.342 6.77734C255.971 6.77734 293.772 44.7092 293.772 91.4996C293.772 138.29 255.971 176.222 209.342 176.222C179.809 176.222 153.818 161.006 138.729 137.961L126.74 109.118Z" stroke="#1E1F21" stroke-width="2" stroke-linecap="round" stroke-linejoin="round"/>
<path d="M68.8731 130.327L66.0599 127.505M82.9445 127.503L80.1313 130.326L82.9445 127.503ZM68.8731 141.624L66.0599 144.447L68.8731 141.624ZM82.9445 144.448L80.1313 141.625L82.9445 144.448Z" stroke="#C5D3FF" stroke-linecap="round" stroke-linejoin="round"/>
<path fill-rule="evenodd" clip-rule="evenodd" d="M356.555 80.0761C356.555 84.7562 352.776 88.5483 348.112 88.5483C343.448 88.5483 339.669 84.7562 339.669 80.0761C339.669 75.396 343.448 71.6039 348.112 71.6039C352.776 71.6039 356.555 75.396 356.555 80.0761Z" stroke="#7187DD" stroke-linecap="round" stroke-linejoin="round"/>
<path fill-rule="evenodd" clip-rule="evenodd" d="M53.8506 78.6425C53.8506 82.3872 50.828 85.4203 47.0962 85.4203C43.3644 85.4203 40.3419 82.3872 40.3419 78.6425C40.3419 74.8978 43.3644 71.8647 47.0962 71.8647C50.828 71.8647 53.8506 74.8978 53.8506 78.6425Z" stroke="#F4D862" stroke-linecap="round" stroke-linejoin="round"/>
<path d="M21.9518 112.079H5.0658M13.5088 103.607V120.552V103.607Z" stroke="#43B581" stroke-linecap="round" stroke-linejoin="round"/>
<path d="M378.507 42.6558H364.998M371.753 35.8781V49.4336V35.8781Z" stroke="#F4D862" stroke-linecap="round" stroke-linejoin="round"/>
<path fill-rule="evenodd" clip-rule="evenodd" d="M293.771 40.6662C293.771 59.3831 278.652 74.5551 259.999 74.5551C241.347 74.5551 226.227 59.3831 226.227 40.6662C226.227 21.9494 241.347 6.77734 259.999 6.77734C278.652 6.77734 293.771 21.9494 293.771 40.6662Z" fill="#43B581"/>
<path d="M226.227 40.6662C226.227 35.9862 227.173 31.5298 228.882 27.4767C234.008 15.3106 246.011 6.77734 259.999 6.77734C278.652 6.77734 293.771 21.9494 293.771 40.6662C293.771 59.3831 278.652 74.5551 259.999 74.5551C246.254 74.5551 234.427 66.3167 229.155 54.4929" stroke="#1E1F21" stroke-width="2" stroke-linecap="round" stroke-linejoin="round"/>
<path fill-rule="evenodd" clip-rule="evenodd" d="M265.065 35.5829V25.4162C265.065 24.4809 264.309 23.7218 263.377 23.7218H256.622C255.69 23.7218 254.934 24.4809 254.934 25.4162V35.5829H244.802C243.87 35.5829 243.113 36.342 243.113 37.2774V44.0551C243.113 44.9905 243.87 45.7496 244.802 45.7496H254.934V55.9163C254.934 56.8516 255.69 57.6107 256.622 57.6107H263.377C264.309 57.6107 265.065 56.8516 265.065 55.9163V45.7496H275.197C276.129 45.7496 276.885 44.9905 276.885 44.0551V37.2774C276.885 36.342 276.129 35.5829 275.197 35.5829H265.065Z" fill="white"/>
</svg>
