<svg width="486" height="156" viewBox="0 0 486 156" fill="none" xmlns="http://www.w3.org/2000/svg">
<g clip-path="url(#clip0)">
<path d="M42.0001 92.07C40.7881 92.07 39.6257 92.5515 38.7686 93.4085C37.9116 94.2656 37.4301 95.428 37.4301 96.64V101.2H35.1501V81.11C35.179 80.4925 35.0823 79.8756 34.866 79.2966C34.6496 78.7176 34.318 78.1885 33.8913 77.7413C33.4645 77.2941 32.9515 76.9381 32.3832 76.6949C31.8149 76.4517 31.2032 76.3263 30.5851 76.3263C29.967 76.3263 29.3553 76.4517 28.787 76.6949C28.2187 76.9381 27.7057 77.2941 27.2789 77.7413C26.8522 78.1885 26.5206 78.7176 26.3042 79.2966C26.0878 79.8756 25.9912 80.4925 26.0201 81.11V101.2H23.7401V93.44C23.7401 92.228 23.2586 91.0656 22.4016 90.2085C21.5445 89.3515 20.3821 88.87 19.1701 88.87C17.9581 88.87 16.7957 89.3515 15.9386 90.2085C15.0816 91.0656 14.6001 92.228 14.6001 93.44V102.77C14.6054 104.775 15.405 106.697 16.8237 108.113C18.2425 109.53 20.1649 110.327 22.1701 110.33H26.0001V143.58H35.1301V110.33H39.0001C41.0052 110.327 42.9277 109.53 44.3464 108.113C45.7652 106.697 46.5648 104.775 46.5701 102.77V96.64C46.5701 95.428 46.0886 94.2656 45.2316 93.4085C44.3745 92.5515 43.2121 92.07 42.0001 92.07Z" fill="#21A147"/>
<path d="M51 54.08C62.0457 54.08 71 45.1257 71 34.08C71 23.0343 62.0457 14.08 51 14.08C39.9543 14.08 31 23.0343 31 34.08C31 45.1257 39.9543 54.08 51 54.08Z" fill="#FFDB8A"/>
<path d="M101.21 42.0799C99.4314 42.0622 97.6649 42.3741 96 42.9999C94.5717 38.4081 91.7097 34.3947 87.8338 31.5482C83.9579 28.7017 79.2719 27.1719 74.4631 27.183C69.6542 27.1942 64.9755 28.7458 61.1129 31.6103C57.2502 34.4748 54.407 38.5015 53 43.0999C49.3299 43.2243 45.8437 44.7365 43.2453 47.3313C40.6468 49.926 39.1296 53.4101 39 57.0799H115.67V56.5799C115.67 52.7412 114.148 49.0591 111.437 46.341C108.727 43.6229 105.049 42.0905 101.21 42.0799Z" fill="#373E5B"/>
<path d="M91.65 114.74L83.4614 114.711V135.336L91.91 135.365C92.4835 128.539 92.3964 121.549 91.65 114.74ZM73.3591 114.74H67.32C65.5069 121.453 65.5658 128.605 67.3789 135.318H73.1391C72.5622 128.493 72.6359 121.551 73.3591 114.74ZM73.5 138.66H68.5C68.83 139.47 69.16 140.25 69.5 141C69.6471 141.316 69.8795 141.584 70.1711 141.775C70.4626 141.966 70.8017 142.072 71.15 142.08H73.9291L73.5391 138.91C73.5791 138.82 73.51 138.74 73.5 138.66ZM74.15 107.91H71.15C70.8093 107.928 70.48 108.04 70.198 108.232C69.9159 108.424 69.6919 108.69 69.55 109C69.17 109.74 68.84 110.53 68.55 111.34H73.76L74.15 107.91Z" fill="#E7AA6C"/>
<path d="M92.5499 138.66C92.5499 139.12 92.4599 139.58 92.3999 140.03L92.1399 142.08H94.7999C95.1482 142.072 95.4873 141.966 95.7788 141.775C96.0704 141.584 96.3028 141.316 96.4499 141C96.8299 140.25 97.1599 139.47 97.4499 138.66H92.5499Z" fill="#E3E5E8"/>
<path d="M82.549 111.447V107.91H75.1087L74.6687 111.447H82.549ZM91.57 138.66H83.4372V142.08H91.15L91.44 139.86C91.49 139.46 91.53 139.06 91.57 138.66ZM74.48 138.66L74.4368 138.75L74.8468 142.08H82.51V138.66H74.48Z" fill="#E7AA6C"/>
<path d="M97.4901 111.33C97.1601 110.52 96.8301 109.73 96.4901 108.99C96.343 108.674 96.1106 108.406 95.819 108.215C95.5275 108.024 95.1884 107.918 94.8401 107.91H91.8401L92.2601 111.33H97.4901ZM92.6301 114.74C93.3666 121.55 93.4537 128.414 92.8901 135.24H98.6401C100.453 128.52 100.453 121.44 98.6401 114.72H92.6401L92.6301 114.74Z" fill="#E3E5E8"/>
<path d="M91.2188 111.377L90.7988 107.957H83.4588V111.377H91.2188ZM74.2688 114.711C73.5489 121.522 73.4887 128.464 74.0888 135.287H82.5647V114.711H74.2688Z" fill="#E7AA6C"/>
<path d="M82.5099 138.66H83.4799V142.08H82.5099V138.66ZM82.5099 114.74H83.4799V135.24L82.9413 135.414L82.5099 135.24V114.74ZM82.5099 107.91H83.4799V111.33L82.9871 111.861L82.5099 111.33V107.91ZM74.4799 138.66H73.4799V138.91L73.8699 142.08H74.8699L74.4599 138.75L74.4799 138.66ZM74.2999 114.74H73.2999C72.5901 121.552 72.5298 128.416 73.1199 135.24L73.659 135.498L74.1199 135.24C73.5198 128.417 73.5801 121.552 74.2999 114.74ZM74.6999 111.33L75.1399 107.91H74.1499L73.7199 111.33L74.1992 111.477L74.6999 111.33Z" fill="#A6723E"/>
<path d="M92.6301 114.74H91.6301C92.3765 121.549 92.4635 128.414 91.8901 135.24H92.8901C93.4537 128.414 93.3666 121.55 92.6301 114.74ZM92.5501 138.66H91.5501C91.5501 139.06 91.4701 139.46 91.4201 139.86L91.1301 142.08H92.1301L92.4001 140C92.4601 139.58 92.5001 139.12 92.5501 138.66ZM92.2301 111.33L91.8101 107.91H90.8301L91.2501 111.33H92.2301Z" fill="#C7CCD1"/>
<path d="M74.3001 114.74H98.6401C98.3171 113.587 97.9332 112.452 97.4901 111.34H68.4901C68.047 112.456 67.6631 113.594 67.3401 114.75H74.3001V114.74ZM74.4801 138.66H97.4801C97.9232 137.544 98.3071 136.406 98.6301 135.25H67.3601C67.6831 136.409 68.067 137.551 68.5101 138.67H74.5101L74.4801 138.66Z" fill="#36393F"/>
<path d="M89 76.08H139V143.08H87V78.08C87 77.5495 87.2107 77.0408 87.5858 76.6657C87.9609 76.2907 88.4696 76.08 89 76.08Z" fill="#94D0EB"/>
<path opacity="0.5" d="M87 89.96L95.88 81.08H102.63L87 96.86V89.96ZM87 103.92L110.05 80.87H122L89.9 112.97L87 113.08V103.92Z" fill="white" fill-opacity="0.65"/>
<path d="M89 73.08H173V81.08H87V75.08C87 74.5495 87.2107 74.0408 87.5858 73.6657C87.9609 73.2907 88.4696 73.08 89 73.08ZM87 113.08H141V143.08H87V113.08Z" fill="#8DA2D5"/>
<path d="M146.94 136.08H121.06C119.585 136.075 118.173 135.486 117.131 134.442C116.089 133.398 115.503 131.985 115.5 130.51V125.14C115.503 123.666 116.089 122.253 117.131 121.211C118.174 120.169 119.586 119.583 121.06 119.58H146.94C148.414 119.583 149.826 120.169 150.869 121.211C151.911 122.253 152.497 123.666 152.5 125.14V130.51C152.497 131.985 151.911 133.398 150.869 134.442C149.827 135.486 148.415 136.075 146.94 136.08ZM121.06 120.58C119.851 120.58 118.691 121.06 117.836 121.916C116.98 122.771 116.5 123.931 116.5 125.14V130.51C116.5 131.72 116.98 132.881 117.835 133.738C118.69 134.595 119.85 135.077 121.06 135.08H146.94C148.15 135.077 149.31 134.595 150.165 133.738C151.02 132.881 151.5 131.72 151.5 130.51V125.14C151.5 123.931 151.02 122.771 150.164 121.916C149.309 121.06 148.149 120.58 146.94 120.58H121.06Z" fill="#4F545C"/>
<path d="M193.36 32.08H287.64C288.001 32.08 288.347 32.2232 288.602 32.4783C288.857 32.7333 289 33.0793 289 33.44V143.08H192V33.44C192 33.0793 192.143 32.7333 192.398 32.4783C192.653 32.2232 192.999 32.08 193.36 32.08Z" fill="#94D0EB"/>
<path d="M285 43.08H343V142.08H285V43.08ZM137 44.08H195V143.08H137V44.08Z" fill="#5DB2D6"/>
<path d="M285 113.08H343V143.08H285V113.08Z" fill="#7A8EC7"/>
<path d="M285 143.07H137V113.07H285V143.07Z" fill="#A0B2DC"/>
<path d="M262.71 113.08H226.72L221.72 128.08V143.08H262.71V113.08Z" fill="#292F49"/>
<path d="M251.72 113.08H226.72L221.72 128.08V143.08H251.72V113.08Z" fill="#373E5B"/>
<path d="M256.71 113.08H226.72L221.72 128.08H251.72L256.71 113.08Z" fill="#474F73"/>
<path d="M137 81.08H166V113.08H137V81.08Z" fill="#5DB1D6"/>
<path d="M366.91 59.08H448.09C448.342 59.08 448.591 59.1297 448.823 59.2263C449.056 59.3229 449.267 59.4645 449.444 59.6429C449.622 59.8213 449.762 60.0331 449.858 60.266C449.953 60.4988 450.001 60.7483 450 61V143.09H365V61C364.999 60.7483 365.047 60.4988 365.143 60.266C365.238 60.0331 365.378 59.8213 365.556 59.6429C365.733 59.4645 365.944 59.3229 366.177 59.2263C366.409 59.1297 366.658 59.08 366.91 59.08Z" fill="#94D0EB"/>
<path d="M428 56.08H452C452.53 56.08 453.039 56.2907 453.414 56.6657C453.789 57.0408 454 57.5495 454 58.08V143.08H428V56.08Z" fill="#5DB1D6"/>
<path d="M364 113.08H454V143.08H364V113.08Z" fill="#7A8EC7"/>
<path d="M410.18 84.08C409.915 84.08 409.66 83.9746 409.473 83.7871C409.285 83.5995 409.18 83.3452 409.18 83.08V65.08C409.18 64.8147 409.285 64.5604 409.473 64.3728C409.66 64.1853 409.915 64.08 410.18 64.08C410.445 64.08 410.7 64.1853 410.887 64.3728C411.075 64.5604 411.18 64.8147 411.18 65.08V83.08C411.18 83.3452 411.075 83.5995 410.887 83.7871C410.7 83.9746 410.445 84.08 410.18 84.08Z" fill="#F6F6F7"/>
<path d="M366 56.08H390V143.08H364V58.08C364 57.5495 364.211 57.0408 364.586 56.6657C364.961 56.2907 365.47 56.08 366 56.08Z" fill="#5DB1D6"/>
<path d="M364 113.08H428V143.08H364V113.08Z" fill="#A0B2DC"/>
<path d="M383.18 120.08H374.32C372.486 120.08 371 121.566 371 123.4V132.26C371 134.094 372.486 135.58 374.32 135.58H383.18C385.014 135.58 386.5 134.094 386.5 132.26V123.4C386.5 121.566 385.014 120.08 383.18 120.08Z" fill="#4F5660"/>
<path d="M428 113.08H403.71L398.71 128.08V143.08H428V113.08Z" fill="#292F49"/>
<path d="M416.71 113.08H403.71L398.71 128.08V143.08H416.71V113.08Z" fill="#373E5B"/>
<path d="M421.71 113.08H403.71L398.71 128.08H416.71L421.71 113.08Z" fill="#474F73"/>
<path d="M205.22 119.58H148.78C146.416 119.58 144.5 121.496 144.5 123.86V132.3C144.5 134.664 146.416 136.58 148.78 136.58H205.22C207.584 136.58 209.5 134.664 209.5 132.3V123.86C209.5 121.496 207.584 119.58 205.22 119.58Z" fill="#55689E"/>
<path d="M342 83.5999C341.735 83.5999 341.48 83.4946 341.293 83.3071C341.105 83.1195 341 82.8652 341 82.5999V46.06H296C295.735 46.06 295.48 45.9546 295.293 45.7671C295.105 45.5795 295 45.3252 295 45.06C295 44.7947 295.105 44.5404 295.293 44.3528C295.48 44.1653 295.735 44.06 296 44.06H342C342.132 44.0592 342.262 44.0844 342.384 44.1342C342.506 44.1839 342.617 44.2573 342.71 44.35C342.803 44.4434 342.876 44.5542 342.926 44.676C342.976 44.7979 343.001 44.9283 343 45.06V82.5999C343 82.8652 342.895 83.1195 342.707 83.3071C342.52 83.4946 342.265 83.5999 342 83.5999Z" fill="#EBEBEC"/>
<path d="M320 83.08C319.821 83.0771 319.645 83.029 319.49 82.94C319.262 82.8047 319.097 82.5843 319.031 82.3274C318.966 82.0705 319.005 81.798 319.14 81.57L339.31 47.57L307.39 61C307.268 61.0508 307.138 61.0771 307.006 61.0775C306.875 61.0778 306.744 61.0522 306.623 61.002C306.501 60.9518 306.39 60.8781 306.297 60.7851C306.204 60.6921 306.13 60.5816 306.08 60.46C305.98 60.2171 305.979 59.9446 306.078 59.7013C306.178 59.4581 306.368 59.2636 306.61 59.16L341.33 44.53C341.528 44.4368 341.752 44.4115 341.967 44.4581C342.181 44.5046 342.374 44.6204 342.516 44.7875C342.658 44.9546 342.742 45.1639 342.753 45.383C342.765 45.6021 342.704 45.8189 342.58 46L320.86 82.59C320.771 82.7392 320.646 82.8629 320.495 82.9488C320.344 83.0347 320.173 83.0799 320 83.08Z" fill="#EBEBEC"/>
<path d="M341.5 78.1C341.355 78.1 341.213 78.0687 341.082 78.0083C340.95 77.9479 340.834 77.8598 340.74 77.75C334.52 70.53 325.85 73.88 325.48 74.02C325.318 74.0916 325.141 74.1192 324.965 74.0999C324.789 74.0806 324.622 74.0151 324.48 73.91C324.347 73.8151 324.238 73.6888 324.165 73.5424C324.092 73.3959 324.056 73.2337 324.06 73.07C324.42 61.07 312.83 58.07 312.72 58.07C312.468 58.0102 312.248 57.8548 312.108 57.6366C311.969 57.4183 311.919 57.1542 311.97 56.9C312.8 52.75 312.3 49.73 310.49 47.9C307.49 44.9 301.71 46.06 301.66 46.08C301.531 46.1078 301.397 46.1095 301.267 46.0853C301.137 46.061 301.013 46.0111 300.902 45.9386C300.791 45.866 300.696 45.7722 300.622 45.6626C300.548 45.553 300.496 45.4297 300.47 45.3C300.444 45.1713 300.443 45.0387 300.468 44.9097C300.493 44.7808 300.543 44.658 300.615 44.5484C300.688 44.4388 300.781 44.3446 300.89 44.2711C300.999 44.1976 301.121 44.1462 301.25 44.12C301.53 44.06 308.12 42.74 311.89 46.48C314.07 48.64 314.81 51.97 314.09 56.39C316.96 57.39 325.65 61.26 326.09 71.75C329.09 70.97 336.64 69.93 342.25 76.44C342.335 76.5398 342.4 76.6554 342.441 76.7803C342.482 76.9052 342.497 77.0368 342.487 77.1678C342.477 77.2987 342.441 77.4263 342.381 77.5434C342.322 77.6605 342.24 77.7646 342.14 77.85C341.963 78.0063 341.736 78.0949 341.5 78.1ZM342 66.59C341.79 66.5905 341.586 66.5252 341.415 66.4031C341.245 66.2811 341.117 66.1086 341.05 65.91C340.846 65.1185 340.472 64.3809 339.954 63.7488C339.436 63.1167 338.786 62.6052 338.05 62.25C335.49 61.15 332.39 62.6 332.36 62.62C332.215 62.697 332.054 62.7373 331.89 62.7373C331.726 62.7373 331.565 62.697 331.42 62.62C331.28 62.5378 331.163 62.423 331.078 62.2854C330.992 62.1478 330.942 61.9915 330.93 61.83C330.44 55.34 324.08 54.15 323.81 54.1C323.561 54.0535 323.338 53.9141 323.188 53.7099C323.037 53.5056 322.97 53.2519 323 53C323.184 52.1344 323.178 51.2393 322.983 50.3762C322.788 49.5131 322.408 48.7025 321.87 48C320.698 46.8486 319.133 46.1841 317.49 46.14C317.225 46.14 316.97 46.0346 316.783 45.8471C316.595 45.6596 316.49 45.4052 316.49 45.14C316.49 44.8748 316.595 44.6204 316.783 44.4329C316.97 44.2453 317.225 44.14 317.49 44.14C319.701 44.1806 321.808 45.0852 323.36 46.66C324.01 47.4482 324.495 48.3587 324.787 49.3378C325.079 50.3168 325.172 51.3445 325.06 52.36C327.06 52.96 331.73 54.94 332.76 60.36C334.73 59.6814 336.874 59.7026 338.83 60.42C339.841 60.872 340.739 61.5423 341.46 62.3826C342.181 63.2228 342.707 64.2123 343 65.28C343.082 65.5306 343.062 65.8037 342.944 66.0398C342.826 66.2758 342.62 66.4556 342.37 66.54C342.251 66.5815 342.125 66.5985 342 66.59Z" fill="#EBEBEC"/>
<path d="M398 113.08H365C364.735 113.08 364.48 112.975 364.293 112.787C364.105 112.6 364 112.345 364 112.08V94.08C364 93.8147 364.105 93.5604 364.293 93.3728C364.48 93.1853 364.735 93.08 365 93.08C365.265 93.08 365.52 93.1853 365.707 93.3728C365.895 93.5604 366 93.8147 366 94.08V111.08H398C398.265 111.08 398.52 111.185 398.707 111.373C398.895 111.56 399 111.815 399 112.08C399 112.345 398.895 112.6 398.707 112.787C398.52 112.975 398.265 113.08 398 113.08Z" fill="#EBEBEC"/>
<path d="M365 113.08C364.81 113.08 364.624 113.026 364.463 112.925C364.302 112.823 364.174 112.677 364.093 112.505C364.013 112.333 363.982 112.141 364.007 111.953C364.031 111.764 364.108 111.586 364.23 111.44L382.23 89.44C382.31 89.3294 382.412 89.2365 382.53 89.1668C382.647 89.0972 382.778 89.0523 382.913 89.035C383.049 89.0177 383.186 89.0284 383.317 89.0663C383.449 89.1042 383.571 89.1686 383.676 89.2555C383.781 89.3424 383.868 89.4499 383.93 89.5715C383.992 89.6931 384.029 89.8261 384.038 89.9624C384.046 90.0987 384.027 90.2353 383.981 90.3639C383.935 90.4925 383.863 90.6103 383.77 90.71L368.4 109.5L396.6 97.16C396.722 97.0992 396.854 97.0636 396.99 97.0556C397.125 97.0476 397.261 97.0673 397.388 97.1135C397.516 97.1596 397.633 97.2313 397.732 97.3241C397.831 97.4169 397.91 97.529 397.965 97.6533C398.019 97.7777 398.048 97.9119 398.048 98.0477C398.049 98.1834 398.022 98.3179 397.97 98.443C397.917 98.568 397.839 98.681 397.741 98.7751C397.643 98.8691 397.527 98.9423 397.4 98.99L365.4 112.99C365.274 113.047 365.138 113.078 365 113.08Z" fill="#EBEBEC"/>
<path d="M385 113.08C384.894 113.094 384.786 113.094 384.68 113.08C383.727 112.827 382.837 112.378 382.067 111.761C381.298 111.145 380.665 110.375 380.21 109.5C379.761 108.49 379.591 107.378 379.72 106.28C378.41 106.437 377.081 106.309 375.824 105.905C374.568 105.501 373.414 104.831 372.44 103.94C367.06 106.28 364.44 103.94 364.32 103.83C364.223 103.741 364.144 103.634 364.088 103.515C364.032 103.396 364 103.267 363.994 103.136C363.988 103.005 364.008 102.873 364.053 102.75C364.098 102.626 364.166 102.512 364.255 102.415C364.344 102.318 364.451 102.239 364.57 102.183C364.689 102.127 364.818 102.095 364.949 102.089C365.08 102.083 365.212 102.103 365.335 102.148C365.459 102.193 365.573 102.261 365.67 102.35C365.78 102.44 367.76 104.02 372.26 101.82C372.476 101.716 372.722 101.694 372.953 101.756C373.184 101.818 373.386 101.962 373.52 102.16C373.6 102.27 375.6 105.01 380.84 104.16C381.015 104.131 381.195 104.149 381.36 104.213C381.526 104.276 381.672 104.383 381.783 104.521C381.894 104.66 381.966 104.825 381.992 105.001C382.017 105.176 381.996 105.355 381.93 105.52C381.571 106.557 381.61 107.69 382.04 108.7C382.387 109.319 382.857 109.86 383.421 110.29C383.985 110.72 384.631 111.03 385.32 111.2C385.585 111.242 385.823 111.388 385.98 111.606C386.138 111.824 386.202 112.095 386.16 112.36C386.118 112.625 385.972 112.863 385.754 113.02C385.536 113.178 385.265 113.242 385 113.2V113.08Z" fill="#EBEBEC"/>
<path d="M394 113.08C393.92 113.09 393.84 113.09 393.76 113.08C392.734 112.898 391.766 112.473 390.936 111.842C390.107 111.21 389.439 110.391 388.99 109.45C387.89 106.92 388.73 103.89 389.43 102.12C387.332 101.995 385.293 101.376 383.48 100.312C381.668 99.2482 380.132 97.7707 379 96.0001C370.68 101.91 364.68 98.0001 364.42 97.8701C364.203 97.7221 364.054 97.495 364.003 97.2376C363.952 96.9802 364.004 96.7132 364.149 96.4941C364.293 96.275 364.518 96.1214 364.774 96.0664C365.031 96.0114 365.299 96.0594 365.52 96.2001C365.76 96.3601 371.09 99.6801 378.67 93.7501C378.788 93.6563 378.926 93.5906 379.073 93.5577C379.22 93.5248 379.373 93.5256 379.52 93.5601C379.665 93.5945 379.8 93.6609 379.916 93.7543C380.032 93.8477 380.126 93.9658 380.19 94.1001C381.204 96.0264 382.759 97.6146 384.664 98.6698C386.568 99.725 388.739 100.201 390.91 100.04C391.087 100.03 391.264 100.067 391.422 100.148C391.581 100.229 391.714 100.35 391.81 100.5C391.898 100.652 391.944 100.825 391.944 101C391.944 101.176 391.898 101.348 391.81 101.5C391.81 101.5 389.51 105.71 390.75 108.56C391.081 109.217 391.563 109.786 392.158 110.219C392.753 110.653 393.443 110.937 394.17 111.05C394.301 111.066 394.428 111.107 394.544 111.172C394.659 111.237 394.76 111.324 394.842 111.428C394.924 111.532 394.984 111.651 395.02 111.778C395.056 111.906 395.066 112.039 395.05 112.17C395.034 112.301 394.993 112.428 394.928 112.544C394.863 112.659 394.776 112.76 394.672 112.842C394.568 112.924 394.449 112.984 394.322 113.02C394.194 113.056 394.061 113.066 393.93 113.05L394 113.08Z" fill="#EBEBEC"/>
<path opacity="0.5" d="M137 86.58C137 87.08 184.75 38.83 184.75 38.83C184.75 38.83 197 38.58 197 38.83C197 39.08 137 99 137 99V86.58ZM137 62.08L157.9 40.98H163L137 67.53V62.08Z" fill="white" fill-opacity="0.54"/>
<path d="M139 30.08H341C341.53 30.08 342.039 30.2907 342.414 30.6657C342.789 31.0408 343 31.5495 343 32.08V44.08H137V32.08C137 31.5495 137.211 31.0408 137.586 30.6657C137.961 30.2907 138.47 30.08 139 30.08Z" fill="#A0B2DC"/>
<path d="M285 30.08H341C341.53 30.08 342.039 30.2907 342.414 30.6657C342.789 31.0408 343 31.5495 343 32.08V44.08H285V30.08Z" fill="#7A8EC7"/>
<path opacity="0.5" d="M364 79.15L379.54 63.61H385L363.95 84.67L364 79.15ZM364 75.08L373 66.08H370L363.95 72.47L364 75.08Z" fill="white" fill-opacity="0.69"/>
<path d="M366 56.08H452C452.53 56.08 453.039 56.2907 453.414 56.6657C453.789 57.0408 454 57.5495 454 58.08V68.08H364V58.08C364 57.5495 364.211 57.0408 364.586 56.6657C364.961 56.2907 365.47 56.08 366 56.08Z" fill="#7A8EC7"/>
<path d="M366 56.08H428V68.08H364V58.08C364 57.5495 364.211 57.0408 364.586 56.6657C364.961 56.2907 365.47 56.08 366 56.08Z" fill="#A0B2DC"/>
<path d="M293.306 78.705L298.557 76.173L326.078 133.255L320.827 135.787L293.306 78.705Z" fill="#36393F"/>
<path d="M321.456 103.006L326.268 106.297L308.559 132.19L303.747 128.899L321.456 103.006Z" fill="#4F545C"/>
<path d="M412.58 94.61C412.433 94.61 412.292 94.5524 412.187 94.4495C412.083 94.3466 412.023 94.2068 412.02 94.06V87C412.02 86.512 411.826 86.044 411.481 85.6989C411.136 85.3538 410.668 85.16 410.18 85.16C409.692 85.16 409.224 85.3538 408.879 85.6989C408.534 86.044 408.34 86.512 408.34 87V94.09C408.34 94.2385 408.281 94.3809 408.176 94.486C408.071 94.591 407.928 94.65 407.78 94.65C407.631 94.65 407.489 94.591 407.384 94.486C407.279 94.3809 407.22 94.2385 407.22 94.09V87C407.149 86.5705 407.173 86.1308 407.289 85.7113C407.405 85.2918 407.611 84.9026 407.892 84.5707C408.174 84.2388 408.525 83.9722 408.92 83.7893C409.315 83.6064 409.745 83.5117 410.18 83.5117C410.615 83.5117 411.045 83.6064 411.44 83.7893C411.835 83.9722 412.186 84.2388 412.467 84.5707C412.749 84.9026 412.955 85.2918 413.071 85.7113C413.187 86.1308 413.211 86.5705 413.14 87V94.09C413.13 94.2315 413.066 94.3638 412.962 94.4604C412.858 94.5569 412.722 94.6103 412.58 94.61Z" fill="black"/>
<path d="M414.6 92.61C414.454 92.61 414.314 92.5521 414.211 92.4489C414.108 92.3458 414.05 92.2059 414.05 92.06V87C414.05 86.7575 414.002 86.5174 413.909 86.2935C413.816 86.0697 413.679 85.8664 413.507 85.6954C413.336 85.5244 413.132 85.3891 412.907 85.2972C412.683 85.2053 412.442 85.1587 412.2 85.16H408.15C407.662 85.16 407.194 85.3539 406.849 85.6989C406.504 86.044 406.31 86.512 406.31 87V92.09C406.292 92.2244 406.226 92.3476 406.124 92.4369C406.021 92.5261 405.891 92.5753 405.755 92.5753C405.619 92.5753 405.488 92.5261 405.386 92.4369C405.284 92.3476 405.218 92.2244 405.2 92.09V87C405.2 86.2129 405.509 85.4574 406.061 84.8962C406.613 84.335 407.363 84.0131 408.15 84H412.2C412.996 84 413.759 84.3161 414.321 84.8787C414.884 85.4413 415.2 86.2044 415.2 87V92.09C415.195 92.1636 415.175 92.2355 415.142 92.3015C415.109 92.3675 415.064 92.4264 415.008 92.4747C414.952 92.523 414.888 92.5599 414.817 92.5831C414.747 92.6063 414.674 92.6154 414.6 92.61Z" fill="black"/>
<path d="M416.78 90.61C416.633 90.61 416.492 90.5524 416.388 90.4495C416.283 90.3467 416.223 90.2068 416.22 90.06V87C416.22 86.512 416.026 86.044 415.681 85.6989C415.336 85.3539 414.868 85.16 414.38 85.16H406C405.757 85.1574 405.515 85.203 405.29 85.2943C405.064 85.3856 404.859 85.5207 404.686 85.6918C404.513 85.8629 404.376 86.0667 404.282 86.2912C404.188 86.5158 404.14 86.7567 404.14 87V90.09C404.14 90.2385 404.081 90.381 403.976 90.486C403.871 90.591 403.729 90.65 403.58 90.65C403.431 90.65 403.289 90.591 403.184 90.486C403.079 90.381 403.02 90.2385 403.02 90.09V87C403.02 86.2044 403.336 85.4413 403.899 84.8787C404.461 84.3161 405.224 84 406.02 84H414.42C415.207 84.0131 415.957 84.335 416.509 84.8962C417.061 85.4574 417.37 86.2129 417.37 87V90.09C417.366 90.1632 417.348 90.2348 417.316 90.3008C417.284 90.3668 417.239 90.4257 417.184 90.4741C417.129 90.5226 417.065 90.5595 416.996 90.5829C416.926 90.6062 416.853 90.6154 416.78 90.61Z" fill="black"/>
<path d="M410.18 84.57C411.489 84.57 412.55 83.5089 412.55 82.2C412.55 80.891 411.489 79.83 410.18 79.83C408.871 79.83 407.81 80.891 407.81 82.2C407.81 83.5089 408.871 84.57 410.18 84.57Z" fill="black"/>
<path d="M410.18 86.38C410.804 86.38 411.31 85.8741 411.31 85.25C411.31 84.6259 410.804 84.12 410.18 84.12C409.556 84.12 409.05 84.6259 409.05 85.25C409.05 85.8741 409.556 86.38 410.18 86.38Z" fill="black"/>
<path d="M236 119.08H242.63C243.07 119.08 243.47 118.55 243.27 118.24L241 114.92C240.955 114.874 240.902 114.837 240.842 114.812C240.783 114.787 240.719 114.774 240.655 114.774C240.591 114.774 240.527 114.787 240.468 114.812C240.408 114.837 240.355 114.874 240.31 114.92L235.85 118.24C235.47 118.55 235.51 119.08 236 119.08ZM241.55 122.08H234.92C234.48 122.08 234.08 122.6 234.28 122.91L236.46 126.23C236.505 126.276 236.558 126.313 236.618 126.338C236.677 126.363 236.741 126.376 236.805 126.376C236.869 126.376 236.933 126.363 236.992 126.338C237.052 126.313 237.105 126.276 237.15 126.23L241.61 122.91C242 122.6 242 122.08 241.55 122.08Z" fill="#345FBD"/>
<path d="M245.89 117.26L243.61 123.89C243.46 124.33 243.91 124.55 244.33 124.24L248.78 120.92C248.898 120.854 248.987 120.748 249.031 120.621C249.075 120.493 249.072 120.354 249.02 120.23L246.85 116.91C246.64 116.6 246 116.82 245.89 117.26ZM231.61 123.89L233.89 117.26C234.04 116.82 233.59 116.6 233.17 116.91L228.72 120.23C228.603 120.296 228.513 120.402 228.469 120.529C228.425 120.657 228.429 120.796 228.48 120.92L230.65 124.24C230.86 124.55 231.46 124.33 231.61 123.89Z" fill="#345FBD"/>
<path d="M408.06 119.67H412.06C412.33 119.67 412.57 119.35 412.45 119.17L411.13 117.17C411.06 117.06 410.87 117.06 410.71 117.17L408.02 119.17C407.77 119.35 407.79 119.67 408.06 119.67ZM411.44 121.48H407.44C407.17 121.48 406.93 121.8 407.05 121.99L408.37 123.99C408.44 124.11 408.63 124.11 408.79 123.99L411.48 121.99C411.73 121.8 411.71 121.48 411.44 121.48Z" fill="#345FBD"/>
<path d="M414.06 118.57L412.68 122.57C412.59 122.83 412.87 122.96 413.12 122.78L415.81 120.78C415.96 120.66 416.03 120.47 415.95 120.36L414.64 118.36C414.52 118.18 414.15 118.31 414.06 118.57ZM405.44 122.58L406.82 118.58C406.91 118.32 406.63 118.19 406.38 118.37L403.69 120.37C403.619 120.41 403.565 120.476 403.539 120.553C403.513 120.631 403.517 120.715 403.55 120.79L404.86 122.79C405 123 405.35 122.84 405.44 122.58Z" fill="#345FBD"/>
<path d="M395.54 45.24C394.775 44.6796 393.888 44.3085 392.952 44.157C392.016 44.0055 391.058 44.078 390.155 44.3686C389.253 44.6591 388.432 45.1593 387.76 45.8284C387.088 46.4974 386.585 47.3161 386.29 48.2174C385.996 49.1186 385.919 50.0768 386.067 51.0134C386.214 51.95 386.582 52.8383 387.139 53.6055C387.696 54.3727 388.427 54.9969 389.272 55.427C390.117 55.8572 391.052 56.0809 392 56.08H411.82C407.64 56.08 396 45.54 395.54 45.24Z" fill="#AF6D42"/>
<path d="M402.05 56.08H415C416.071 56.0668 417.092 55.6302 417.842 54.8656C418.592 54.101 419.008 53.0707 419 52V42C419.001 41.2902 418.815 40.5927 418.461 39.9773C418.107 39.362 417.598 38.8504 416.984 38.4939C416.37 38.1374 415.674 37.9485 414.964 37.946C414.254 37.9436 413.556 38.1277 412.94 38.48L410.51 39.87C409.9 40.2153 409.211 40.3968 408.51 40.3968C407.809 40.3968 407.12 40.2153 406.51 39.87L404.08 38.48C403.459 38.12 402.753 37.9316 402.035 37.9341C401.317 37.9366 400.613 38.1299 399.994 38.4941C399.376 38.8584 398.865 39.3806 398.515 40.0071C398.164 40.6337 397.987 41.3422 398 42.06V52C397.996 52.5344 398.098 53.0642 398.3 53.5591C398.501 54.0539 398.799 54.5039 399.176 54.8832C399.552 55.2624 400 55.5634 400.493 55.7689C400.986 55.9743 401.516 56.08 402.05 56.08Z" fill="#CB8252"/>
<path d="M398 51.68V52C398.013 53.0655 398.446 54.0828 399.204 54.8316C399.962 55.5803 400.984 56.0001 402.05 56H415C416.057 55.9871 417.067 55.5615 417.814 54.8141C418.561 54.0668 418.987 53.0569 419 52V45.66C408.54 55.65 400.68 53.07 398 51.68Z" fill="#805333"/>
<path d="M426 44.08C424.727 44.0812 423.487 44.4875 422.46 45.24C422.05 45.54 410.36 56.08 406.18 56.08H426C427.591 56.08 429.117 55.4478 430.243 54.3226C431.368 53.1974 432 51.6713 432 50.08C432 48.4887 431.368 46.9625 430.243 45.8373C429.117 44.7121 427.591 44.08 426 44.08Z" fill="#AF6D42"/>
<path d="M228.54 19.24C227.775 18.6796 226.888 18.3085 225.952 18.157C225.016 18.0055 224.058 18.078 223.155 18.3686C222.253 18.6591 221.432 19.1593 220.76 19.8284C220.088 20.4974 219.585 21.3161 219.29 22.2174C218.996 23.1186 218.919 24.0768 219.067 25.0134C219.214 25.95 219.582 26.8383 220.139 27.6055C220.696 28.3727 221.427 28.9969 222.272 29.427C223.117 29.8572 224.052 30.0809 225 30.08H244.82C240.64 30.08 229 19.54 228.54 19.24Z" fill="#18191C"/>
<path d="M235.05 30.0801H248C249.071 30.0669 250.093 29.6302 250.842 28.8657C251.592 28.1011 252.008 27.0708 252 26.0001V4.00006C251.99 3.29536 251.797 2.60539 251.439 1.99835C251.081 1.39131 250.571 0.888204 249.959 0.538761C249.347 0.189317 248.654 0.00563192 247.949 0.00585959C247.244 0.00608725 246.552 0.19022 245.94 0.540059L243.51 1.93006C242.9 2.27536 242.211 2.45684 241.51 2.45684C240.809 2.45684 240.12 2.27536 239.51 1.93006L237.06 0.540059C236.444 0.18779 235.746 0.00365416 235.036 0.00610214C234.326 0.00855012 233.63 0.197496 233.016 0.554007C232.402 0.910518 231.893 1.42207 231.539 2.03741C231.185 2.65275 230.999 3.35026 231 4.06006V26.0001C230.996 26.5344 231.098 27.0643 231.3 27.5591C231.502 28.054 231.799 28.504 232.176 28.8833C232.552 29.2625 233 29.5635 233.493 29.7689C233.987 29.9743 234.516 30.0801 235.05 30.0801Z" fill="#18191C"/>
<path d="M231 25.68V26C231.013 27.0655 231.446 28.0828 232.204 28.8315C232.962 29.5803 233.984 30.0001 235.05 30H248C249.057 29.9871 250.067 29.5615 250.814 28.8141C251.561 28.0668 251.987 27.0569 252 26V19.66C241.54 29.65 233.68 27.07 231 25.68Z" fill="#B9BBBE"/>
<path d="M259 18.08C257.727 18.0812 256.487 18.4875 255.46 19.24C255.05 19.54 243.36 30.08 239.18 30.08H259C260.591 30.08 262.117 29.4478 263.243 28.3226C264.368 27.1974 265 25.6713 265 24.08C265 22.4887 264.368 20.9625 263.243 19.8373C262.117 18.7121 260.591 18.08 259 18.08Z" fill="#18191C"/>
<path d="M455.79 143.05C452.517 142.999 449.352 141.867 446.79 139.83C442.982 136.82 440.296 132.619 439.16 127.9C437.883 123.218 438.214 118.242 440.1 113.77C440.911 111.763 442.173 109.969 443.787 108.527C445.401 107.084 447.325 106.032 449.41 105.45C457.69 103.32 466.58 109.94 469.21 120.19C471.84 130.44 467.21 140.52 458.96 142.65C457.924 142.913 456.859 143.048 455.79 143.05ZM452.63 108C451.8 108 450.974 108.104 450.17 108.31C448.513 108.788 446.988 109.639 445.712 110.799C444.436 111.959 443.443 113.396 442.81 115C441.183 118.869 440.904 123.173 442.02 127.22C442.995 131.303 445.312 134.94 448.6 137.55C449.928 138.65 451.49 139.43 453.166 139.83C454.843 140.231 456.589 140.241 458.27 139.86C465 138.13 468.66 129.65 466.42 120.96C464.46 113.27 458.59 108 452.63 108Z" fill="#784D22"/>
<path d="M455.748 126.575C457.07 126.236 457.795 124.612 457.368 122.949C456.941 121.285 455.524 120.211 454.203 120.55C452.881 120.889 452.156 122.513 452.583 124.176C453.01 125.84 454.427 126.914 455.748 126.575Z" fill="#202225"/>
<path d="M455.27 128.06C454.294 127.997 453.365 127.616 452.626 126.975C451.887 126.334 451.379 125.468 451.18 124.51C450.887 123.425 450.968 122.273 451.41 121.24C451.63 120.723 451.964 120.263 452.387 119.892C452.809 119.522 453.309 119.251 453.85 119.1C455.95 118.57 458.16 120.1 458.78 122.56C459.4 125.02 458.21 127.42 456.12 127.96C455.842 128.028 455.556 128.061 455.27 128.06ZM454.7 121.91H454.57C454.457 121.953 454.354 122.019 454.27 122.106C454.185 122.192 454.12 122.296 454.08 122.41C453.905 122.839 453.88 123.315 454.01 123.76C454.24 124.68 454.93 125.24 455.39 125.11C455.85 124.98 456.19 124.18 455.96 123.26C455.73 122.34 455.15 121.91 454.7 121.91Z" fill="#784D22"/>
<path d="M448.74 137.48L455.65 121.58L448.74 137.48Z" fill="#A6723E"/>
<path d="M448.73 138.45C448.599 138.448 448.47 138.421 448.35 138.37C448.117 138.263 447.934 138.07 447.839 137.832C447.744 137.594 447.745 137.328 447.84 137.09L454.76 121.19C454.786 121.041 454.846 120.9 454.935 120.777C455.024 120.654 455.139 120.554 455.273 120.482C455.406 120.411 455.554 120.37 455.705 120.364C455.857 120.358 456.007 120.387 456.146 120.448C456.285 120.509 456.408 120.6 456.506 120.715C456.604 120.831 456.675 120.967 456.713 121.113C456.751 121.26 456.755 121.413 456.725 121.561C456.695 121.71 456.632 121.85 456.54 121.97L449.63 137.87C449.55 138.042 449.423 138.188 449.264 138.291C449.105 138.393 448.92 138.449 448.73 138.45Z" fill="#784D22"/>
<path d="M466.65 120.58L442.36 126.81L466.65 120.58Z" fill="#A6723E"/>
<path d="M442.36 127.78C442.145 127.747 441.946 127.645 441.793 127.489C441.641 127.333 441.544 127.132 441.517 126.916C441.49 126.7 441.534 126.48 441.643 126.292C441.752 126.103 441.919 125.955 442.12 125.87L466.41 119.63C466.637 119.624 466.858 119.696 467.039 119.833C467.22 119.97 467.348 120.164 467.404 120.383C467.46 120.603 467.439 120.835 467.346 121.042C467.253 121.248 467.092 121.417 466.89 121.52L442.6 127.75L442.36 127.78Z" fill="#784D22"/>
<path d="M452.35 109.8L460.31 140.8L452.35 109.8Z" fill="#A6723E"/>
<path d="M460.31 141.78C460.096 141.775 459.889 141.702 459.72 141.57C459.55 141.439 459.428 141.256 459.37 141.05L451.37 110.05C451.298 109.916 451.257 109.768 451.251 109.616C451.245 109.464 451.273 109.313 451.334 109.174C451.395 109.035 451.487 108.911 451.603 108.813C451.719 108.714 451.855 108.644 452.003 108.606C452.15 108.569 452.304 108.565 452.453 108.596C452.601 108.627 452.741 108.691 452.861 108.784C452.982 108.877 453.079 108.996 453.146 109.132C453.214 109.268 453.249 109.418 453.25 109.57L461.25 140.57C461.282 140.713 461.283 140.862 461.251 141.006C461.22 141.15 461.157 141.284 461.067 141.401C460.977 141.518 460.863 141.613 460.732 141.68C460.601 141.747 460.457 141.785 460.31 141.79V141.78Z" fill="#784D22"/>
<path d="M463.82 130.27L443.85 115.11L463.82 130.27Z" fill="#A6723E"/>
<path d="M463.82 131.25C463.607 131.248 463.4 131.178 463.23 131.05L443.23 115.88C443.089 115.707 443.01 115.491 443.006 115.267C443.002 115.044 443.073 114.825 443.208 114.647C443.342 114.468 443.533 114.34 443.749 114.283C443.965 114.225 444.195 114.242 444.4 114.33L464.4 129.5C464.598 129.661 464.727 129.891 464.76 130.144C464.793 130.397 464.729 130.653 464.58 130.86C464.49 130.977 464.375 131.073 464.244 131.14C464.112 131.208 463.968 131.245 463.82 131.25Z" fill="#784D22"/>
<path d="M457.429 126.151C458.75 125.812 459.476 124.188 459.049 122.524C458.622 120.861 457.205 119.787 455.883 120.126C454.562 120.465 453.837 122.088 454.264 123.752C454.69 125.416 456.108 126.49 457.429 126.151Z" fill="#784D22"/>
<path d="M457 127.63C456.023 127.569 455.094 127.188 454.354 126.547C453.615 125.905 453.108 125.038 452.91 124.08C452.28 121.64 453.48 119.21 455.57 118.67C457.66 118.13 459.88 119.67 460.51 122.13C461.14 124.59 459.94 126.99 457.84 127.53C457.565 127.598 457.283 127.631 457 127.63ZM456.43 121.48H456.3C455.84 121.6 455.5 122.41 455.73 123.33C455.97 124.25 456.65 124.8 457.12 124.68C457.59 124.56 457.92 123.75 457.68 122.83C457.44 121.91 456.83 121.48 456.38 121.48H456.43Z" fill="#E7AA6C"/>
<path d="M457.47 142.62C454.197 142.569 451.032 141.437 448.47 139.4C444.713 136.344 442.036 132.163 440.832 127.472C439.627 122.781 439.96 117.828 441.78 113.34C442.551 111.309 443.799 109.493 445.419 108.044C447.038 106.596 448.982 105.558 451.086 105.018C453.191 104.478 455.394 104.452 457.511 104.941C459.628 105.43 461.596 106.421 463.25 107.83C467.055 110.842 469.742 115.042 470.88 119.76C473.52 130.02 468.88 140.09 460.63 142.22C459.597 142.484 458.536 142.618 457.47 142.62ZM454.31 107.53C453.48 107.533 452.654 107.637 451.85 107.84C450.192 108.317 448.665 109.168 447.387 110.328C446.109 111.488 445.115 112.925 444.48 114.53C442.86 118.401 442.586 122.704 443.7 126.75C444.672 130.832 446.985 134.469 450.27 137.08C451.599 138.18 453.163 138.961 454.841 139.361C456.519 139.762 458.267 139.772 459.95 139.39C466.67 137.66 470.33 129.18 468.1 120.49C467.13 116.405 464.812 112.766 461.52 110.16C459.472 108.514 456.937 107.589 454.31 107.53Z" fill="#E7AA6C"/>
<path d="M137 40.48H285V41.48H137V40.48Z" fill="#4F545C"/>
<path d="M285 40.48H343V41.48H285V40.48Z" fill="#4F545C"/>
<path d="M364 64.08H428V65.08H364V64.08Z" fill="#72767D"/>
<path d="M428 64.08H454V65.08H428V64.08Z" fill="#4F545C"/>
<path d="M87 77.08H137V78.08H87V77.08Z" fill="#4F545C"/>
<path d="M203 42.08L218 38.08L203 42.08Z" fill="#4F545C"/>
<path d="M203.3 43.16L216.42 39.66L218.3 39.16C218.565 39.0612 218.783 38.8668 218.912 38.615C219.04 38.3633 219.07 38.0725 218.994 37.8001C218.919 37.5276 218.744 37.2933 218.505 37.1433C218.265 36.9934 217.978 36.9387 217.7 36.99L204.58 40.49L202.7 40.99C202.435 41.0887 202.217 41.2832 202.088 41.5349C201.96 41.7867 201.93 42.0775 202.006 42.3499C202.081 42.6224 202.256 42.8567 202.495 43.0066C202.735 43.1566 203.022 43.2113 203.3 43.16Z" fill="#A6723E"/>
<path d="M188.65 30.08H150.39C149.07 30.08 148 30.67 148 31.41V32.74C148 33.48 149.07 34.08 150.39 34.08H160C161.32 34.08 162.39 34.67 162.39 35.41V36.74C162.39 37.48 163.46 38.08 164.78 38.08H186.28C187.79 38.08 188.77 37.39 188.77 36.51C188.77 35.08 190.04 34.08 192.28 34.08H200.65C201.97 34.08 203.04 33.48 203.04 32.74V31.41C203.04 30.67 201.97 30.08 200.65 30.08H188.65ZM280.33 36.08V35.08C280.33 34.8147 280.225 34.5604 280.037 34.3729C279.85 34.1853 279.595 34.08 279.33 34.08C279.065 34.08 278.81 34.1853 278.623 34.3729C278.435 34.5604 278.33 34.8147 278.33 35.08V40.08C278.33 40.3452 278.435 40.5995 278.623 40.7871C278.81 40.9746 279.065 41.08 279.33 41.08H281.33C281.595 41.08 281.85 40.9746 282.037 40.7871C282.225 40.5995 282.33 40.3452 282.33 40.08V38.08C282.33 37.8147 282.225 37.5604 282.037 37.3729C281.85 37.1853 281.595 37.08 281.33 37.08C281.065 37.08 280.81 36.9746 280.623 36.7871C280.435 36.5995 280.33 36.3452 280.33 36.08Z" fill="#2F7E46"/>
<path d="M339 122.62V125.53C339 125.734 339.04 125.935 339.118 126.123C339.196 126.311 339.31 126.482 339.454 126.626C339.598 126.77 339.769 126.884 339.957 126.962C340.145 127.04 340.346 127.08 340.55 127.08H341.45C341.861 127.08 342.255 126.917 342.546 126.626C342.837 126.335 343 125.941 343 125.53V113.08H335V119.53C335 119.941 335.163 120.335 335.454 120.626C335.745 120.917 336.139 121.08 336.55 121.08H337.45C337.653 121.079 337.854 121.117 338.042 121.194C338.23 121.271 338.401 121.384 338.545 121.527C338.689 121.671 338.804 121.841 338.882 122.028C338.96 122.216 339 122.417 339 122.62Z" fill="#2F7E46"/>
<path d="M389.22 56.0801H371.13C370.848 56.0636 370.57 56.1596 370.359 56.347C370.147 56.5343 370.018 56.7979 370 57.0801V58.0801C370.021 58.3613 370.15 58.6233 370.361 58.8101C370.573 58.997 370.848 59.0939 371.13 59.0801H375.65C375.79 59.0706 375.931 59.089 376.063 59.1343C376.196 59.1796 376.319 59.2508 376.424 59.3438C376.529 59.4369 376.615 59.5499 376.676 59.6762C376.737 59.8026 376.772 59.9399 376.78 60.0801V61.0801C376.801 61.3613 376.93 61.6233 377.141 61.8101C377.353 61.997 377.628 62.0939 377.91 62.0801H388.08C388.79 62.0801 389.4 61.5201 389.26 60.9001C389.218 60.6665 389.23 60.4263 389.295 60.1981C389.361 59.9699 389.478 59.7598 389.637 59.584C389.797 59.4081 389.994 59.2712 390.215 59.1839C390.436 59.0965 390.673 59.061 390.91 59.0801H394.91C395.192 59.0939 395.467 58.997 395.679 58.8101C395.89 58.6233 396.019 58.3613 396.04 58.0801V57.0801C396.022 56.7979 395.893 56.5343 395.681 56.347C395.47 56.1596 395.192 56.0636 394.91 56.0801H389.22Z" fill="#2F7E46"/>
<path d="M109.5 123.4C109.5 122.519 109.15 121.675 108.528 121.052C107.905 120.43 107.061 120.08 106.18 120.08H97.32C96.4395 120.08 95.595 120.43 94.9724 121.052C94.3498 121.675 94 122.519 94 123.4V132.08H109.5V123.4Z" fill="#7A8EC7"/>
<path d="M109.5 132.26V132.08H94V132.26C94 133.14 94.3498 133.985 94.9724 134.608C95.595 135.23 96.4395 135.58 97.32 135.58H106.18C107.061 135.58 107.905 135.23 108.528 134.608C109.15 133.985 109.5 133.14 109.5 132.26Z" fill="#55689E"/>
<path d="M102.2 125.13C101.935 125.13 101.68 125.235 101.493 125.423C101.305 125.61 101.2 125.865 101.2 126.13H103.1C103.101 125.881 103.01 125.641 102.843 125.456C102.677 125.271 102.447 125.155 102.2 125.13ZM105.05 125.13C104.785 125.13 104.53 125.235 104.343 125.423C104.155 125.61 104.05 125.865 104.05 126.13H106C106 125.873 105.902 125.626 105.725 125.44C105.548 125.254 105.306 125.143 105.05 125.13Z" fill="#F6F6F7"/>
<path d="M272.78 137.08H268.22C267.546 137.08 267 137.626 267 138.3V141.86C267 142.534 267.546 143.08 268.22 143.08H272.78C273.454 143.08 274 142.534 274 141.86V138.3C274 137.626 273.454 137.08 272.78 137.08Z" fill="#2F7E47"/>
<path d="M0 143.08H486H0ZM0 142.08H486V144.08H0V142.08Z" fill="#72767D"/>
<path d="M273.13 134.08H271.87C271.39 134.08 271 134.469 271 134.95V140.21C271 140.69 271.39 141.08 271.87 141.08H273.13C273.61 141.08 274 140.69 274 140.21V134.95C274 134.469 273.61 134.08 273.13 134.08Z" fill="#2F7E47"/>
<path d="M330 117.85V119.3C330 119.505 330.081 119.702 330.225 119.848C330.369 119.994 330.565 120.077 330.77 120.08H331.23C331.435 120.077 331.631 119.994 331.775 119.848C331.919 119.702 332 119.505 332 119.3V113.08H328V116.3C328 116.505 328.081 116.702 328.225 116.848C328.369 116.994 328.565 117.077 328.77 117.08H329.23C329.434 117.08 329.63 117.161 329.774 117.305C329.919 117.45 330 117.646 330 117.85ZM435 134.92V132.74C435 132.432 434.878 132.137 434.66 131.92C434.443 131.702 434.148 131.58 433.84 131.58H433.16C432.852 131.58 432.557 131.702 432.34 131.92C432.122 132.137 432 132.432 432 132.74V142.08H438V137.24C438 136.932 437.878 136.637 437.66 136.42C437.443 136.202 437.148 136.08 436.84 136.08H436.16C435.852 136.08 435.557 135.958 435.34 135.74C435.122 135.523 435 135.228 435 134.92Z" fill="#2F7E46"/>
<path d="M205.22 119.58H148.78C148.218 119.579 147.662 119.688 147.143 119.902C146.624 120.116 146.152 120.43 145.754 120.827C145.357 121.224 145.041 121.695 144.826 122.214C144.611 122.732 144.5 123.288 144.5 123.85V132.08H209.5V123.85C209.5 123.288 209.389 122.732 209.174 122.214C208.959 121.695 208.643 121.224 208.246 120.827C207.848 120.43 207.376 120.116 206.857 119.902C206.338 119.688 205.782 119.579 205.22 119.58Z" fill="#7A8EC7"/>
<path d="M386.5 123.4C386.5 122.519 386.15 121.675 385.528 121.052C384.905 120.43 384.061 120.08 383.18 120.08H374.32C373.439 120.08 372.595 120.43 371.972 121.052C371.35 121.675 371 122.519 371 123.4V132.08H386.5V123.4Z" fill="#7A8EC7"/>
<path d="M386.5 132.26V132.08H371V132.26C371 133.14 371.35 133.985 371.972 134.608C372.595 135.23 373.439 135.58 374.32 135.58H383.18C384.061 135.58 384.905 135.23 385.528 134.608C386.15 133.985 386.5 133.14 386.5 132.26Z" fill="#55689E"/>
<path d="M272 130.07H273C273.552 130.07 274 129.622 274 129.07V128.07C274 127.518 273.552 127.07 273 127.07H272C271.448 127.07 271 127.518 271 128.07V129.07C271 129.622 271.448 130.07 272 130.07Z" fill="#2F7E47"/>
<path d="M90.5669 88.877L94.6889 84.755L128.001 118.066L123.879 122.189L90.5669 88.877Z" fill="#9A6E42"/>
<path d="M239.66 46.08H242.94V76.44C242.94 76.8749 242.767 77.292 242.46 77.5996C242.152 77.9072 241.735 78.08 241.3 78.08C240.865 78.08 240.448 77.9072 240.14 77.5996C239.833 77.292 239.66 76.8749 239.66 76.44V46.08Z" fill="#DCDDDE"/>
<path d="M241.3 56.58C242.957 56.58 244.3 55.4607 244.3 54.08C244.3 52.6992 242.957 51.58 241.3 51.58C239.643 51.58 238.3 52.6992 238.3 54.08C238.3 55.4607 239.643 56.58 241.3 56.58Z" fill="#72767D"/>
<path d="M241.3 53.58C242.957 53.58 244.3 52.4607 244.3 51.08C244.3 49.6992 242.957 48.58 241.3 48.58C239.643 48.58 238.3 49.6992 238.3 51.08C238.3 52.4607 239.643 53.58 241.3 53.58Z" fill="#72767D"/>
<path d="M241.3 51.08C242.957 51.08 244.3 49.9607 244.3 48.58C244.3 47.1992 242.957 46.08 241.3 46.08C239.643 46.08 238.3 47.1992 238.3 48.58C238.3 49.9607 239.643 51.08 241.3 51.08Z" fill="#72767D"/>
<path d="M247.16 57.83C246.57 56.25 244.16 55.08 241.3 55.08C238.44 55.08 236.03 56.25 235.44 57.83C239.283 56.83 243.317 56.83 247.16 57.83Z" fill="#72767D"/>
<path d="M236.15 60.37C237.636 61.4794 239.441 62.0787 241.295 62.0787C243.149 62.0787 244.954 61.4794 246.44 60.37C243.07 59.4631 239.52 59.4631 236.15 60.37Z" fill="#202225"/>
<path d="M212.8 44.08H269.8V48.08H212.8V44.08Z" fill="#4F545C"/>
<path d="M188.89 105.35L188.96 100.81C188.976 99.7161 188.776 98.6297 188.372 97.613C187.968 96.5963 187.368 95.6691 186.605 94.8844C185.843 94.0998 184.933 93.473 183.929 93.0398C182.924 92.6067 181.844 92.3757 180.75 92.36C179.655 92.3428 178.568 92.5416 177.55 92.9451C176.532 93.3485 175.604 93.9486 174.818 94.7111C174.032 95.4737 173.404 96.3836 172.971 97.3889C172.537 98.3943 172.306 99.4752 172.29 100.57L172.23 104.97C172.143 107.86 171.169 110.653 169.44 112.97C167.41 115.766 166.54 119.238 167.01 122.66C167.353 125.44 168.573 128.039 170.494 130.078C172.414 132.118 174.935 133.491 177.69 134C180.29 134.515 182.985 134.249 185.434 133.233C187.883 132.217 189.976 130.499 191.448 128.294C192.921 126.09 193.707 123.499 193.707 120.848C193.707 118.196 192.922 115.605 191.45 113.4C189.796 111.04 188.903 108.232 188.89 105.35Z" fill="#040405"/>
<path d="M188.31 115.93C187.668 115.935 187.047 115.703 186.566 115.279C186.084 114.856 185.776 114.269 185.699 113.632C185.622 112.995 185.783 112.352 186.15 111.826C186.517 111.3 187.066 110.928 187.69 110.78C191.33 109.89 193.6 108.5 194.46 106.67C195.32 104.84 194.87 102.16 193.16 98.75C192.984 98.4407 192.873 98.0987 192.833 97.745C192.794 97.3913 192.827 97.0332 192.93 96.6926C193.033 96.352 193.205 96.0361 193.435 95.764C193.664 95.492 193.947 95.2696 194.265 95.1105C194.584 94.9513 194.931 94.8586 195.286 94.8382C195.642 94.8177 195.998 94.8699 196.332 94.9915C196.667 95.1131 196.973 95.3016 197.232 95.5455C197.491 95.7894 197.698 96.0836 197.84 96.41C200.33 101.41 200.77 105.41 199.2 108.86C197.63 112.31 194.2 114.57 188.93 115.86C188.727 115.907 188.519 115.931 188.31 115.93ZM172.5 116.19C172.211 116.192 171.923 116.145 171.65 116.05C165.71 114.05 162.17 111.05 161.13 107.41C159.74 102.48 163.32 98.16 164.66 96.54L164.84 96.32C165.142 95.7462 165.649 95.307 166.26 95.09C166.911 94.8546 167.629 94.8865 168.257 95.1788C168.885 95.4711 169.371 96.0001 169.61 96.65C169.78 97.2186 169.783 97.8239 169.62 98.3944C169.457 98.965 169.135 99.477 168.69 99.87C167.74 101.02 165.52 103.7 166.17 106C166.69 107.88 169.25 109.69 173.35 111.1C173.931 111.305 174.421 111.709 174.733 112.24C175.046 112.77 175.162 113.394 175.061 114.002C174.959 114.609 174.647 115.162 174.179 115.562C173.71 115.962 173.116 116.185 172.5 116.19ZM180 155.69C179.795 155.691 179.59 155.668 179.39 155.62C179.055 155.54 178.74 155.395 178.461 155.193C178.183 154.991 177.947 154.735 177.768 154.442C177.588 154.148 177.469 153.822 177.416 153.482C177.363 153.141 177.378 152.794 177.46 152.46L183.57 127.14C183.651 126.806 183.796 126.492 183.999 126.215C184.201 125.938 184.456 125.703 184.749 125.524C185.042 125.345 185.367 125.226 185.706 125.173C186.045 125.12 186.391 125.134 186.725 125.215C187.059 125.296 187.373 125.441 187.65 125.644C187.927 125.846 188.162 126.101 188.341 126.394C188.52 126.687 188.639 127.012 188.692 127.351C188.745 127.69 188.731 128.036 188.65 128.37L182.54 153.69C182.403 154.26 182.078 154.768 181.617 155.131C181.156 155.493 180.587 155.691 180 155.69ZM167 155.14C166.593 155.143 166.19 155.051 165.825 154.87C165.46 154.689 165.143 154.425 164.899 154.099C164.654 153.773 164.49 153.394 164.419 152.993C164.348 152.592 164.373 152.18 164.49 151.79L171.55 127.68C171.616 127.319 171.758 126.976 171.965 126.673C172.173 126.37 172.441 126.115 172.754 125.922C173.067 125.73 173.416 125.605 173.78 125.557C174.144 125.508 174.514 125.537 174.866 125.64C175.218 125.744 175.544 125.92 175.824 126.158C176.104 126.396 176.33 126.689 176.489 127.02C176.648 127.351 176.735 127.712 176.746 128.079C176.756 128.446 176.69 128.811 176.55 129.15L169.49 153.26C169.331 153.799 169.004 154.273 168.555 154.611C168.107 154.95 167.562 155.135 167 155.14Z" fill="black"/>
<path d="M258.53 66.71C257.53 63.26 254.75 60.5 250.58 58.71C249.445 58.242 248.27 57.8772 247.07 57.62C247.22 57.9108 247.299 58.2329 247.3 58.56C247.291 58.9464 247.196 59.3259 247.023 59.6716C246.85 60.0172 246.603 60.3206 246.3 60.56C247.37 60.7899 248.415 61.1248 249.42 61.56C252.79 63 254.9 65.04 255.67 67.64C256.73 71.16 255.38 75.76 251.67 81.31C251.561 81.4741 251.485 81.6581 251.447 81.8515C251.41 82.0449 251.41 82.2439 251.449 82.437C251.488 82.6302 251.565 82.8138 251.675 82.9773C251.785 83.1408 251.926 83.281 252.09 83.39C252.332 83.562 252.623 83.653 252.92 83.65C253.167 83.6483 253.41 83.5865 253.628 83.4697C253.846 83.353 254.032 83.1849 254.17 82.98C258.38 76.58 259.85 71.13 258.53 66.71Z" fill="#DCDDDE"/>
<path d="M253.069 88.183C254.942 84.8453 250.748 78.9341 243.702 74.9799C236.656 71.0257 229.425 70.526 227.552 73.8637C225.679 77.2014 229.873 83.1126 236.919 87.0668C243.966 91.0209 251.196 91.5207 253.069 88.183Z" fill="#4F545C"/>
<path d="M250.54 76.29H250.19C249.376 76.3939 248.55 76.2897 247.787 75.9872C247.025 75.6846 246.351 75.1936 245.83 74.56L243 71.16C242.736 70.8657 242.405 70.6393 242.036 70.5C241.666 70.3606 241.268 70.3125 240.875 70.3596C240.483 70.4067 240.108 70.5476 239.781 70.7705C239.455 70.9934 239.187 71.2916 239 71.64L235.93 76.81C234.11 79.87 236.04 81.59 239.29 83.67C242.54 85.75 245.87 87.39 247.69 84.34L251.52 77.89C251.647 77.7295 251.721 77.534 251.733 77.3299C251.745 77.1258 251.694 76.9229 251.588 76.7486C251.481 76.5742 251.323 76.4368 251.136 76.3548C250.949 76.2728 250.741 76.2502 250.54 76.29Z" fill="#72767D"/>
<path d="M251.28 76.53C251.184 76.4353 251.067 76.3643 250.938 76.3227C250.81 76.281 250.674 76.2698 250.54 76.29H250.19C249.376 76.3939 248.549 76.2897 247.787 75.9871C247.024 75.6846 246.351 75.1935 245.83 74.56L243 71.16C242.863 70.9962 242.705 70.8516 242.53 70.73C244.85 72.43 241.62 78.08 244.53 80.46C247.44 82.84 252.53 77.48 251.28 76.53Z" fill="#4F545C"/>
<path d="M235.3 58.58C235.303 58.2833 235.368 57.9905 235.49 57.72C234.413 57.9734 233.357 58.3077 232.33 58.72C228.16 60.49 225.41 63.25 224.33 66.72C223.01 71.14 224.48 76.59 228.7 82.92C228.921 83.2515 229.266 83.4815 229.657 83.5593C230.048 83.6371 230.453 83.5564 230.785 83.335C231.117 83.1135 231.346 82.7694 231.424 82.3784C231.502 81.9874 231.421 81.5815 231.2 81.25C227.5 75.7 226.15 71.1 227.2 67.58C227.98 64.98 230.08 62.93 233.45 61.5C234.383 61.1194 235.346 60.8183 236.33 60.6C236.021 60.3595 235.768 60.0538 235.59 59.7047C235.412 59.3556 235.313 58.9716 235.3 58.58Z" fill="#DCDDDE"/>
<path d="M247.3 58.58C247.299 58.2529 247.22 57.9307 247.07 57.64C245.429 57.2714 243.752 57.0836 242.07 57.08H240.94C239.121 57.0798 237.309 57.2946 235.54 57.72C235.418 57.9904 235.353 58.2832 235.35 58.58C235.373 58.9731 235.483 59.3562 235.671 59.702C235.86 60.0478 236.122 60.3476 236.44 60.58C237.916 60.2401 239.426 60.069 240.94 60.07H242C243.432 60.0688 244.86 60.2196 246.26 60.52C246.563 60.2909 246.813 59.9989 246.993 59.664C247.172 59.3291 247.277 58.9593 247.3 58.58Z" fill="#4F545C"/>
</g>
<defs>
<clipPath id="clip0">
<rect width="486" height="155.69" fill="white"/>
</clipPath>
</defs>
</svg>
