<svg width="86" height="84" viewBox="0 0 86 84" fill="none" xmlns="http://www.w3.org/2000/svg">
<path fill-rule="evenodd" clip-rule="evenodd" d="M82 42C82 64.091 64.091 82 42 82C19.909 82 2 64.091 2 42C2 19.909 19.909 2 42 2C64.091 2 82 19.909 82 42Z" fill="#FDCA59"/>
<path fill-rule="evenodd" clip-rule="evenodd" d="M82 42C82 64.091 64.091 82 42 82C19.909 82 2 64.091 2 42C2 19.909 19.909 2 42 2C64.091 2 82 19.909 82 42Z" stroke="#222426" stroke-width="4" stroke-linecap="round" stroke-linejoin="round"/>
<path fill-rule="evenodd" clip-rule="evenodd" d="M24 43.6416C24 46.4026 21.761 48.6416 19 48.6416C16.239 48.6416 14 46.4026 14 43.6416C14 40.8806 16.239 38.6416 19 38.6416C21.761 38.6416 24 40.8806 24 43.6416ZM70 43.6416C70 46.4026 67.761 48.6416 65 48.6416C62.239 48.6416 60 46.4026 60 43.6416C60 40.8806 62.239 38.6416 65 38.6416C67.761 38.6416 70 40.8806 70 43.6416Z" fill="#222426"/>
<path d="M52 61.4827C46.154 56.8057 37.846 56.8057 32 61.4827" stroke="#222426" stroke-width="4" stroke-linecap="round" stroke-linejoin="round"/>
<path fill-rule="evenodd" clip-rule="evenodd" d="M83.2071 68.9749C83.2071 74.6829 78.5801 79.3099 72.8721 79.3099C67.1651 79.3099 62.5381 74.6829 62.5381 68.9749C62.5381 63.2669 72.8721 50.6399 72.8721 50.6399C72.8721 50.6399 83.2071 63.2669 83.2071 68.9749Z" fill="#63AEE9"/>
<path fill-rule="evenodd" clip-rule="evenodd" d="M83.2071 68.9749C83.2071 74.6829 78.5801 79.3099 72.8721 79.3099C67.1651 79.3099 62.5381 74.6829 62.5381 68.9749C62.5381 63.2669 72.8721 50.6399 72.8721 50.6399C72.8721 50.6399 83.2071 63.2669 83.2071 68.9749Z" stroke="#222426" stroke-width="4" stroke-linecap="round" stroke-linejoin="round"/>
</svg>
