<svg width="404" height="202" viewBox="0 0 404 202" fill="none" xmlns="http://www.w3.org/2000/svg">
<mask id="mask0" mask-type="alpha" maskUnits="userSpaceOnUse" x="2" y="7" width="394" height="195">
<path d="M2.013 7.71399H395.283V201.594H2.013V7.71399Z" fill="white"/>
</mask>
<g mask="url(#mask0)">
<path opacity="0.3" fill-rule="evenodd" clip-rule="evenodd" d="M203.584 172.34C203.584 176.347 200.334 179.596 196.328 179.596H154.54C148.464 179.596 143.54 184.52 143.54 190.596C143.54 196.669 148.464 201.594 154.54 201.594H364.884C379.794 201.594 391.884 189.506 391.884 174.594V174.584C391.884 159.672 379.794 147.584 364.884 147.584H340.314C327.058 147.584 316.314 136.839 316.314 123.584C316.314 110.329 327.058 99.584 340.314 99.584H349.348C374.716 99.584 395.283 79.018 395.283 53.649C395.283 28.279 374.716 7.71301 349.348 7.71301H167.87C149.636 7.71301 134.852 22.493 134.852 40.723C134.852 58.953 149.636 73.743 167.872 73.743H184.37C190.07 73.743 194.69 78.363 194.69 84.063C194.69 89.763 190.07 94.383 184.37 94.383H37.353C17.833 94.383 2.013 110.203 2.013 129.723V129.733C2.013 149.243 17.835 165.073 37.353 165.073H196.328C200.335 165.073 203.584 168.313 203.584 172.323" fill="#4F545C"/>
</g>
<rect x="55" y="84" width="27" height="67" fill="#744539"/>
<rect x="84" y="84" width="94" height="67" fill="#B66652"/>
<path fill-rule="evenodd" clip-rule="evenodd" d="M81.94 153.084H76.176V156.084C76.176 156.637 75.728 157.084 75.176 157.084H72.176V161.084H78.176C78.728 161.084 79.176 161.531 79.176 162.084V173.084H81.939V153.084H81.94Z" fill="#A8744F"/>
<path fill-rule="evenodd" clip-rule="evenodd" d="M257.93 156.084V147.451H257.298C257.23 147.451 257.171 147.431 257.108 147.421C257.042 147.431 256.978 147.441 256.911 147.441C254.351 149.461 252.691 152.581 252.691 156.091V160.891C252.691 162.771 251.171 164.291 249.291 164.291H238.491C236.071 164.291 234.091 166.271 234.091 168.691C234.091 171.111 236.071 173.091 238.491 173.091H268.501C262.251 169.981 257.941 163.541 257.941 156.091" fill="#7A8EC7"/>
<path fill-rule="evenodd" clip-rule="evenodd" d="M291.937 162.284H306.937C307.709 162.284 308.337 161.656 308.337 160.884V156.084C308.337 148.916 314.167 143.084 321.337 143.084H323.63C324.236 143.084 324.73 142.591 324.73 141.984C324.73 141.378 324.236 140.884 323.63 140.884H304.417V142.454C304.417 145.209 302.177 147.451 299.425 147.451H295.445C295.377 147.451 295.318 147.431 295.253 147.421C295.125 147.431 295.001 147.461 294.871 147.461C292.131 147.461 289.891 145.231 289.891 142.481C289.891 140.601 288.371 139.071 286.491 139.071H274.891V159.191C274.891 163.901 273.781 168.351 271.811 172.301C273.431 172.821 275.151 173.101 276.941 173.101H287.311C286.221 171.951 285.551 170.411 285.551 168.701C285.551 165.171 288.421 162.301 291.951 162.301L291.937 162.284ZM309.541 128.101C310.311 128.101 310.941 127.471 310.941 126.691C310.951 122.341 313.211 118.521 316.611 116.311H298.9C302.203 118.271 304.43 121.861 304.43 125.981V128.111H309.535L309.541 128.101Z" fill="#99ABD8"/>
<path fill-rule="evenodd" clip-rule="evenodd" d="M266.27 142.464C266.27 145.214 264.033 147.451 261.284 147.451H259.93V156.091C259.93 162.971 264.043 168.891 269.93 171.571C271.817 167.851 272.887 163.651 272.887 159.201V139.081H269.669C267.789 139.081 266.269 140.611 266.269 142.481" fill="#99ABD8"/>
<path fill-rule="evenodd" clip-rule="evenodd" d="M326.668 114.284H330.822C338.707 114.284 345.336 108.879 347.25 101.584H344.84C344.63 101.584 344.427 101.564 344.222 101.554C344.015 101.564 343.812 101.584 343.604 101.584H338.277C336.807 107.514 332.385 112.304 326.667 114.284H326.668ZM276.45 109.48C275.588 109.48 274.887 110.18 274.887 111.042V114.285H278.011V111.042C278.011 110.182 277.311 109.48 276.451 109.48" fill="#7A8EC7"/>
<path fill-rule="evenodd" clip-rule="evenodd" d="M258.606 112.506C259.083 111.994 259.713 111.643 260.41 111.518C261.258 111.366 262.127 111.288 262.992 111.288H265.194C266.904 111.288 268.297 112.61 268.442 114.284H272.887V111.042C272.887 109.077 274.485 107.48 276.449 107.48C278.409 107.48 280.009 109.077 280.009 111.042V114.284H283.359C283.499 112.61 284.899 111.289 286.609 111.289H288.809C289.669 111.289 290.539 111.359 291.389 111.509C292.299 111.669 293.099 112.219 293.589 113.009C293.829 113.399 293.979 113.829 294.039 114.269H326.649C332.359 112.289 336.779 107.499 338.259 101.569H336.819C330.199 101.569 324.819 96.179 324.819 89.569V75.569C324.819 70.509 327.969 66.179 332.419 64.419C330.919 55.939 323.509 49.469 314.609 49.469H266.109C256.729 49.469 249.109 57.089 249.109 66.469V67.069H266.059C266.609 67.069 267.059 67.509 267.059 68.069H276.609C276.609 67.509 277.059 67.069 277.609 67.069H288.409C292.929 67.069 296.609 70.739 296.609 75.269V83.069C296.609 93.539 288.079 102.069 277.609 102.069H258.409C255.109 102.069 252.009 101.219 249.299 99.729C250.119 105.339 253.679 110.049 258.569 112.479" fill="#A0B2DC"/>
<path fill-rule="evenodd" clip-rule="evenodd" d="M287.236 75.284V83.084C287.236 90.937 282.132 97.64 275.083 100.084H277.636C287.01 100.084 294.636 92.458 294.636 83.084V75.284C294.636 71.864 291.856 69.084 288.436 69.084H283.67C285.797 70.339 287.236 72.648 287.236 75.284Z" fill="#B3CAFB"/>
<path fill-rule="evenodd" clip-rule="evenodd" d="M274.144 89.898C274.144 91.514 272.821 92.836 271.204 92.836H265.328C263.711 92.836 262.388 91.514 262.388 89.898C262.388 88.282 263.711 86.96 265.328 86.96H271.205C272.821 86.96 274.145 88.282 274.145 89.898H274.144ZM248.315 89.898C248.315 88.282 249.638 86.96 251.255 86.96H254.781C256.401 86.96 257.721 88.282 257.721 89.898C257.721 91.514 256.401 92.836 254.781 92.836H251.261C249.651 92.836 248.321 91.514 248.321 89.898H248.315ZM266.091 69.085H247.641C244.221 69.085 241.441 71.865 241.441 75.285V83.085C241.441 92.459 249.071 100.085 258.441 100.085H275.091C282.141 97.641 287.251 90.938 287.251 83.085V75.285C287.251 72.649 285.811 70.339 283.681 69.085H277.651C277.101 69.085 276.651 68.637 276.651 68.085H267.101C267.101 68.637 266.661 69.085 266.101 69.085" fill="#C2D2F1"/>
<path fill-rule="evenodd" clip-rule="evenodd" d="M265.327 86.96C263.711 86.96 262.387 88.28 262.387 89.897C262.387 91.514 263.711 92.837 265.327 92.837H271.204C272.821 92.837 274.144 91.514 274.144 89.897C274.144 88.281 272.821 86.959 271.204 86.959H265.327V86.96ZM251.254 92.836H254.781C256.401 92.836 257.721 91.514 257.721 89.898C257.721 88.281 256.401 86.958 254.781 86.958H251.261C249.651 86.958 248.321 88.281 248.321 89.898C248.321 91.514 249.641 92.836 251.261 92.836H251.254ZM347.461 58.116C348.001 57.966 348.551 58.279 348.691 58.811C348.801 59.221 348.911 59.621 348.991 60.031C349.111 60.571 348.771 61.111 348.231 61.221C348.211 61.231 348.201 61.221 348.181 61.231C348.311 62.011 348.391 62.791 348.431 63.591H350.621C351.251 63.591 351.851 63.661 352.451 63.751C352.131 55.531 346.571 48.631 339.011 46.321C342.411 48.291 345.261 51.201 347.141 54.841C347.401 55.331 347.211 55.941 346.711 56.191C346.701 56.201 346.681 56.201 346.671 56.201C346.961 56.841 347.221 57.491 347.451 58.161C347.471 58.161 347.481 58.151 347.491 58.141" fill="#575F82"/>
<path fill-rule="evenodd" clip-rule="evenodd" d="M268.53 47.485H314.63C324.432 47.485 332.597 54.547 334.358 63.845C335.158 63.675 335.988 63.585 336.838 63.585H343.604C343.8 63.585 343.992 63.608 344.187 63.618C344.404 63.606 344.617 63.585 344.837 63.585H348.42C348.384 62.785 348.303 61.997 348.176 61.223C348.121 61.233 348.066 61.241 348.013 61.241C347.553 61.241 347.137 60.921 347.036 60.461C346.956 60.091 346.866 59.721 346.763 59.361C346.618 58.851 346.913 58.321 347.419 58.151C347.189 57.491 346.929 56.841 346.639 56.201C346.159 56.431 345.579 56.241 345.329 55.761C342.039 49.431 335.579 45.501 328.449 45.501H271.349C270.039 45.501 268.929 46.341 268.519 47.501" fill="#373E5B"/>
<path fill-rule="evenodd" clip-rule="evenodd" d="M350.604 65.584H350.23C351.297 66.294 352.264 67.172 353.078 68.218C353.418 68.653 353.338 69.282 352.903 69.621C352.888 69.641 352.869 69.641 352.853 69.651C353.957 71.371 354.603 73.401 354.603 75.591V88.591C355.156 88.591 355.603 89.041 355.603 89.591C355.603 93.761 353.463 97.441 350.223 99.591H350.603C356.118 99.591 360.603 95.111 360.603 89.591V75.591C360.603 70.081 356.118 65.591 350.603 65.591" fill="#373E5B"/>
<path fill-rule="evenodd" clip-rule="evenodd" d="M345.72 87.97C345.72 90.732 343.483 92.97 340.72 92.97H337.72C334.96 92.97 332.72 90.732 332.72 87.97V77.2C332.72 74.437 334.96 72.2 337.72 72.2H340.72C343.483 72.2 345.72 74.437 345.72 77.2V87.97ZM352.854 69.646C352.421 69.946 351.827 69.866 351.499 69.446C349.579 66.992 346.709 65.584 343.599 65.584H336.829C331.309 65.584 326.829 70.071 326.829 75.584V89.584C326.829 95.098 331.309 99.584 336.829 99.584H343.589C349.099 99.584 353.589 95.098 353.589 89.584C353.589 89.032 354.039 88.584 354.589 88.584V75.584C354.589 73.394 353.939 71.36 352.839 69.646H352.854Z" fill="#575F82"/>
<path fill-rule="evenodd" clip-rule="evenodd" d="M340.72 72.198H337.72C334.96 72.198 332.72 74.438 332.72 77.198V87.97C332.72 90.73 334.96 92.97 337.72 92.97H340.72C343.483 92.97 345.72 90.73 345.72 87.97V77.198C345.72 74.438 343.483 72.198 340.72 72.198Z" fill="#767EA1"/>
<path fill-rule="evenodd" clip-rule="evenodd" d="M201.004 187.655C201.004 186.952 200.431 186.379 199.727 186.379H195.033V188.929H199.727C200.431 188.929 201.004 188.349 201.004 187.649V187.655ZM302.418 142.449V140.879H299.863V142.449C299.863 143.579 299.473 144.609 298.839 145.439H299.419C301.069 145.439 302.409 144.089 302.409 142.439L302.418 142.449ZM302.409 128.069V125.939C302.409 121.599 299.399 117.959 295.359 116.959C298.079 119.009 299.849 122.259 299.849 125.929V128.059H302.399L302.409 128.069ZM261.699 142.449C261.699 143.569 261.309 144.599 260.679 145.429H261.269C262.909 145.429 264.249 144.089 264.249 142.449C264.249 141.159 264.699 139.979 265.459 139.049H265.089C263.209 139.049 261.689 140.569 261.689 142.449H261.699ZM288.589 114.689C289.769 114.689 290.909 114.869 291.979 115.209L292.009 115.089C292.109 114.739 292.059 114.359 291.869 114.039C291.669 113.729 291.369 113.519 291.019 113.459C290.279 113.329 289.529 113.259 288.789 113.259H286.589C285.879 113.259 285.309 113.829 285.309 114.529V114.669H288.579L288.589 114.689ZM262.969 114.689H266.449V114.549C266.449 113.839 265.869 113.269 265.169 113.269H262.969C262.219 113.269 261.469 113.329 260.739 113.459C260.379 113.519 260.079 113.729 259.889 114.039C259.689 114.349 259.639 114.729 259.749 115.079C259.749 115.099 259.759 115.119 259.769 115.139C260.779 114.839 261.849 114.669 262.969 114.669" fill="#373E5B"/>
<path fill-rule="evenodd" clip-rule="evenodd" d="M256.728 145.45C258.375 145.45 259.714 144.112 259.714 142.466C259.714 139.486 262.137 137.064 265.114 137.064H272.887V131.509H272.387C270.579 131.509 269.107 130.039 269.107 128.229C269.107 126.419 270.579 124.949 272.387 124.949C272.574 124.949 272.737 125.009 272.887 125.099V116.699H262.991C257.901 116.699 253.751 120.849 253.751 125.949V128.379C256.381 128.809 258.531 130.839 258.931 133.449C259.211 135.229 258.701 137.029 257.541 138.389C256.561 139.529 255.221 140.259 253.761 140.469V142.459C253.761 144.109 255.101 145.449 256.751 145.449L256.728 145.45ZM291.911 142.459C291.911 144.109 293.251 145.449 294.891 145.449C296.541 145.449 297.891 144.099 297.891 142.449V140.879H293.351C292.751 140.879 292.161 140.779 291.591 140.619C291.801 141.189 291.921 141.809 291.921 142.449L291.911 142.459ZM286.521 137.049C286.881 137.049 287.221 137.079 287.561 137.149C287.041 136.009 286.841 134.729 287.041 133.459C287.521 130.379 290.311 128.059 293.521 128.059H297.901V125.929C297.901 120.829 293.751 116.679 288.651 116.679H274.9V125.929H276.76C276.76 125.379 277.21 124.929 277.76 124.929H279.234C281.042 124.929 282.512 126.399 282.512 128.209C282.512 130.019 281.042 131.479 279.24 131.479H274.9V137.029H286.5L286.521 137.049Z" fill="#575F82"/>
<path fill-rule="evenodd" clip-rule="evenodd" d="M274.887 129.51H279.219C279.919 129.51 280.489 128.936 280.489 128.232C280.489 127.528 279.909 126.954 279.209 126.954H277.729C277.179 126.954 276.729 126.507 276.729 125.954H274.869V129.509L274.887 129.51ZM272.887 126.8C272.737 126.89 272.573 126.954 272.387 126.954C271.682 126.954 271.109 127.528 271.109 128.232C271.109 128.936 271.679 129.509 272.379 129.509H272.879V126.799L272.887 126.8ZM252.875 138.545C254.075 138.545 255.218 138.017 256.007 137.095C256.804 136.165 257.137 134.982 256.947 133.765C256.64 131.787 254.822 130.295 252.719 130.295H250.829C250.119 130.295 249.549 130.869 249.549 131.573V137.268C249.549 137.972 250.119 138.545 250.819 138.545H252.849H252.875Z" fill="#7A8EC7"/>
<path fill-rule="evenodd" clip-rule="evenodd" d="M364.012 141.395L360.319 154.058C360.199 154.468 360.419 154.748 360.519 154.848C360.619 154.948 360.899 155.168 361.309 155.05L373.969 151.357C377.159 150.425 379.479 147.571 379.729 144.253C379.909 141.915 379.059 139.623 377.399 137.963C375.879 136.45 373.839 135.61 371.719 135.61C371.509 135.61 371.309 135.618 371.109 135.633C367.789 135.886 364.939 138.203 363.999 141.395" fill="#7A8EC7"/>
<path fill-rule="evenodd" clip-rule="evenodd" d="M339.227 172.62C339.282 172.595 339.34 172.574 339.399 172.56C346.949 170.634 352.219 163.858 352.219 156.084V133.284C352.219 123.91 344.589 116.284 335.219 116.284H323.319C317.589 116.284 312.919 120.944 312.919 126.674C312.919 128.554 311.389 130.084 309.519 130.084H293.479C291.229 130.084 289.299 131.674 288.969 133.784C288.759 135.084 289.119 136.344 289.969 137.337C290.809 138.32 292.029 138.884 293.309 138.884H323.619C325.329 138.884 326.719 140.274 326.719 141.984C326.719 143.694 325.329 145.084 323.619 145.084H321.319C315.249 145.084 310.319 150.018 310.319 156.084V160.884C310.319 162.759 308.789 164.284 306.919 164.284H291.919C289.489 164.284 287.519 166.258 287.519 168.684C287.519 171.11 289.489 173.084 291.919 173.084H337.119C337.839 173.084 338.539 172.928 339.209 172.621L339.227 172.62ZM170.929 159.091H176.929V153.091H170.929V159.091ZM83.929 173.091H89.929V153.091H83.929V173.091ZM151.579 96.261L137.899 109.931C137.509 110.321 136.869 110.321 136.479 109.931L126.479 99.941L113.519 112.901C113.329 113.091 113.069 113.201 112.809 113.201C112.539 113.201 112.289 113.101 112.099 112.911L98.99 99.75L91.438 107.306V115.076L98.278 108.23C98.648 107.854 99.318 107.854 99.688 108.23L112.828 121.37L125.788 108.41C126.162 108.036 126.828 108.036 127.201 108.41L137.201 118.41L150.881 104.734C151.261 104.359 151.921 104.359 152.301 104.734L157.441 109.871V102.021C157.351 101.981 157.271 101.931 157.191 101.861L151.601 96.261H151.579ZM123.239 145.591H129.739L126.489 142.341L123.239 145.591ZM91.43 93.88L93.72 91.59H91.43" fill="#ECAC7D"/>
<path fill-rule="evenodd" clip-rule="evenodd" d="M339.292 172.593C339.27 172.601 339.248 172.61 339.227 172.62L339.209 172.621C338.539 172.928 337.839 173.084 337.119 173.084H291.919C289.489 173.084 287.519 171.11 287.519 168.684C287.519 166.258 289.489 164.284 291.919 164.284H306.919C308.789 164.284 310.319 162.759 310.319 160.884V156.084C310.319 150.018 315.249 145.084 321.319 145.084H323.619C325.329 145.084 326.719 143.694 326.719 141.984C326.719 140.274 325.329 138.884 323.619 138.884H293.309C292.029 138.884 290.809 138.32 289.969 137.337C289.119 136.344 288.759 135.084 288.969 133.784C289.299 131.674 291.229 130.084 293.479 130.084H309.519C311.389 130.084 312.919 128.554 312.919 126.674C312.919 120.944 317.589 116.284 323.319 116.284H335.219C344.589 116.284 352.219 123.91 352.219 133.284V156.084C352.219 163.858 346.949 170.634 339.399 172.56C339.363 172.569 339.327 172.58 339.292 172.593ZM176.929 159.091H170.929V153.091H176.929V159.091ZM137.899 109.931L151.579 96.261H151.601L157.191 101.861C157.271 101.931 157.351 101.981 157.441 102.021V109.871L152.301 104.734C151.921 104.359 151.261 104.359 150.881 104.734L137.201 118.41L127.201 108.41C126.828 108.036 126.162 108.036 125.788 108.41L112.828 121.37L99.688 108.23C99.318 107.854 98.648 107.854 98.278 108.23L91.438 115.076V107.306L98.99 99.75L112.099 112.911C112.289 113.101 112.539 113.201 112.809 113.201C113.069 113.201 113.329 113.091 113.519 112.901L126.479 99.941L136.479 109.931C136.869 110.321 137.509 110.321 137.899 109.931ZM126.489 142.341L129.739 145.591H123.239L126.489 142.341ZM93.72 91.59L91.43 93.88V91.59H93.72Z" fill="#4F545C"/>
<path fill-rule="evenodd" clip-rule="evenodd" d="M339.227 172.62C339.248 172.61 339.27 172.601 339.292 172.593C339.327 172.58 339.363 172.569 339.399 172.56C346.949 170.634 352.219 163.858 352.219 156.084V133.284C352.219 123.91 344.589 116.284 335.219 116.284H323.319C317.589 116.284 312.919 120.944 312.919 126.674C312.919 128.554 311.389 130.084 309.519 130.084H293.479C291.229 130.084 289.299 131.674 288.969 133.784C288.759 135.084 289.119 136.344 289.969 137.337C290.809 138.32 292.029 138.884 293.309 138.884H323.619C325.329 138.884 326.719 140.274 326.719 141.984C326.719 143.694 325.329 145.084 323.619 145.084H321.319C315.249 145.084 310.319 150.018 310.319 156.084V160.884C310.319 162.759 308.789 164.284 306.919 164.284H291.919C289.489 164.284 287.519 166.258 287.519 168.684C287.519 171.11 289.489 173.084 291.919 173.084H337.119C337.839 173.084 338.539 172.928 339.209 172.621L339.227 172.62ZM170.929 159.091H176.929V153.091H170.929V159.091ZM151.579 96.261L137.899 109.931C137.509 110.321 136.869 110.321 136.479 109.931L126.479 99.941L113.519 112.901C113.329 113.091 113.069 113.201 112.809 113.201C112.539 113.201 112.289 113.101 112.099 112.911L98.99 99.75L91.438 107.306V115.076L98.278 108.23C98.648 107.854 99.318 107.854 99.688 108.23L112.828 121.37L125.788 108.41C126.162 108.036 126.828 108.036 127.201 108.41L137.201 118.41L150.881 104.734C151.261 104.359 151.921 104.359 152.301 104.734L157.441 109.871V102.021C157.351 101.981 157.271 101.931 157.191 101.861L151.601 96.261H151.579ZM129.739 145.591L126.489 142.341L123.239 145.591H129.739Z" fill="#8395B0"/>
<path fill-rule="evenodd" clip-rule="evenodd" d="M339.292 172.593C339.27 172.601 339.248 172.61 339.227 172.62L339.209 172.621C338.539 172.928 337.839 173.084 337.119 173.084H291.919C289.489 173.084 287.519 171.11 287.519 168.684C287.519 166.258 289.489 164.284 291.919 164.284H306.919C308.789 164.284 310.319 162.759 310.319 160.884V156.084C310.319 150.018 315.249 145.084 321.319 145.084H323.619C325.329 145.084 326.719 143.694 326.719 141.984C326.719 140.274 325.329 138.884 323.619 138.884H293.309C292.029 138.884 290.809 138.32 289.969 137.337C289.119 136.344 288.759 135.084 288.969 133.784C289.299 131.674 291.229 130.084 293.479 130.084H309.519C311.389 130.084 312.919 128.554 312.919 126.674C312.919 120.944 317.589 116.284 323.319 116.284H335.219C344.589 116.284 352.219 123.91 352.219 133.284V156.084C352.219 163.858 346.949 170.634 339.399 172.56C339.363 172.569 339.327 172.58 339.292 172.593ZM176.929 159.091H170.929V153.091H176.929V159.091ZM137.899 109.931L151.579 96.261H151.601L157.191 101.861C157.271 101.931 157.351 101.981 157.441 102.021V109.871L152.301 104.734C151.921 104.359 151.261 104.359 150.881 104.734L137.201 118.41L127.201 108.41C126.828 108.036 126.162 108.036 125.788 108.41L112.828 121.37L99.688 108.23C99.318 107.854 98.648 107.854 98.278 108.23L91.438 115.076V107.306L98.99 99.75L112.099 112.911C112.289 113.101 112.539 113.201 112.809 113.201C113.069 113.201 113.329 113.091 113.519 112.901L126.479 99.941L136.479 109.931C136.869 110.321 137.509 110.321 137.899 109.931Z" fill="#ECAC7D"/>
<path fill-rule="evenodd" clip-rule="evenodd" d="M137.899 109.931L151.579 96.261H151.601L157.191 101.861C157.271 101.931 157.351 101.981 157.441 102.021V109.871L152.301 104.734C151.921 104.359 151.261 104.359 150.881 104.734L137.201 118.41L127.201 108.41C126.828 108.036 126.162 108.036 125.788 108.41L112.828 121.37L99.688 108.23C99.318 107.854 98.648 107.854 98.278 108.23L91.438 115.076V107.306L98.99 99.75L112.099 112.911C112.289 113.101 112.539 113.201 112.809 113.201C113.069 113.201 113.329 113.091 113.519 112.901L126.479 99.941L136.479 109.931C136.869 110.321 137.509 110.321 137.899 109.931Z" fill="#8395B0"/>
<path fill-rule="evenodd" clip-rule="evenodd" d="M339.292 172.593C339.27 172.601 339.248 172.61 339.227 172.62L339.209 172.621C338.539 172.928 337.839 173.084 337.119 173.084H291.919C289.489 173.084 287.519 171.11 287.519 168.684C287.519 166.258 289.489 164.284 291.919 164.284H306.919C308.789 164.284 310.319 162.759 310.319 160.884V156.084C310.319 150.018 315.249 145.084 321.319 145.084H323.619C325.329 145.084 326.719 143.694 326.719 141.984C326.719 140.274 325.329 138.884 323.619 138.884H293.309C292.029 138.884 290.809 138.32 289.969 137.337C289.119 136.344 288.759 135.084 288.969 133.784C289.299 131.674 291.229 130.084 293.479 130.084H309.519C311.389 130.084 312.919 128.554 312.919 126.674C312.919 120.944 317.589 116.284 323.319 116.284H335.219C344.589 116.284 352.219 123.91 352.219 133.284V156.084C352.219 163.858 346.949 170.634 339.399 172.56C339.363 172.569 339.327 172.58 339.292 172.593Z" fill="#7A8EC7"/>
<path fill-rule="evenodd" clip-rule="evenodd" d="M150.888 136.534C151.263 136.159 151.928 136.159 152.302 136.534L157.439 141.671V133.821C157.349 133.781 157.259 133.731 157.189 133.661L151.589 128.071L137.909 141.751C137.519 142.141 136.879 142.141 136.489 141.751L126.489 131.751L113.529 144.711C113.339 144.901 113.079 145.011 112.819 145.011C112.549 145.011 112.299 144.911 112.109 144.721L98.979 131.571L91.419 139.131V145.611H92.709L98.259 140.061C98.629 139.691 99.299 139.691 99.669 140.061L105.229 145.621H120.399L125.769 140.251C126.139 139.881 126.809 139.881 127.179 140.251L132.549 145.631H141.789L150.839 136.581L150.888 136.534Z" fill="#4C596E"/>
<path fill-rule="evenodd" clip-rule="evenodd" d="M121.428 91.584H104.258L112.843 100.17L121.428 91.584ZM137.213 97.208L142.838 91.584H131.59" fill="#8395B0"/>
<path fill-rule="evenodd" clip-rule="evenodd" d="M99.7 118.828L112.843 131.97L125.803 119.01C126.193 118.62 126.825 118.62 127.216 119.01L137.214 129.008L150.888 115.333C151.263 114.958 151.928 114.958 152.302 115.333L157.439 120.47V112.614C157.349 112.568 157.259 112.521 157.189 112.448L151.589 106.854L137.909 120.529C137.719 120.709 137.469 120.819 137.199 120.819C136.929 120.819 136.679 120.709 136.489 120.519L126.489 110.519L113.529 123.479C113.339 123.669 113.079 123.769 112.819 123.769C112.549 123.769 112.299 123.659 112.109 123.469L98.969 110.329L91.409 117.879V125.649L98.249 118.799C98.639 118.409 99.269 118.409 99.659 118.799" fill="#4C596E"/>
<path fill-rule="evenodd" clip-rule="evenodd" d="M99.7 129.428L112.843 142.571L125.803 129.611C126.193 129.221 126.825 129.221 127.216 129.611L137.214 139.611L150.888 125.941C151.278 125.551 151.911 125.551 152.302 125.941L157.439 131.081V123.231C157.349 123.191 157.259 123.141 157.189 123.071L151.589 117.481L137.909 131.161C137.519 131.551 136.879 131.551 136.489 131.161L126.489 121.171L113.529 134.131C113.329 134.331 113.069 134.431 112.819 134.431C112.559 134.431 112.309 134.331 112.109 134.141L98.979 120.981L91.419 128.531V136.311L98.269 129.461C98.639 129.091 99.309 129.091 99.679 129.461L99.7 129.428ZM95.539 145.611H102.409L98.969 142.181" fill="#8395B0"/>
<path fill-rule="evenodd" clip-rule="evenodd" d="M145.666 91.584L137.921 99.329C137.741 99.509 137.481 99.619 137.221 99.619C136.961 99.619 136.701 99.509 136.511 99.319L128.771 91.569H124.271L113.561 102.279C113.381 102.469 113.121 102.569 112.861 102.569C112.601 102.569 112.341 102.459 112.161 102.269L101.461 91.569H96.591L91.471 96.689V104.459L98.321 97.609C98.701 97.229 99.361 97.229 99.741 97.609L112.891 110.749L125.851 97.789C126.241 97.399 126.871 97.399 127.261 97.789L137.261 107.789L150.931 94.119C151.311 93.739 151.971 93.739 152.351 94.119L157.491 99.259V91.579H145.7L145.666 91.584Z" fill="#4C596E"/>
<path fill-rule="evenodd" clip-rule="evenodd" d="M157.44 145.584V144.414C157.35 144.368 157.263 144.322 157.19 144.248L151.595 138.654L144.665 145.584H157.439H157.44ZM164.343 99.584C164.343 101.79 166.137 103.584 168.343 103.584C170.549 103.584 172.343 101.79 172.343 99.584C172.343 97.378 170.549 95.584 168.343 95.584C166.137 95.584 164.343 97.378 164.343 99.584ZM99.64 173.084H106.64V161.084H99.64" fill="#8395B0"/>
<path fill-rule="evenodd" clip-rule="evenodd" d="M99 174H107V160.5H99V174Z" fill="#383D50"/>
<path fill-rule="evenodd" clip-rule="evenodd" d="M162.052 170.11H153.052C152.499 170.11 152.052 169.663 152.052 169.11V167.11C152.052 166.558 152.499 166.11 153.052 166.11H162.052C162.604 166.11 163.052 166.558 163.052 167.11V169.11C163.052 169.663 162.604 170.11 162.052 170.11ZM149.052 169.11C149.052 169.663 148.604 170.11 148.052 170.11H139.052C138.499 170.11 138.052 169.663 138.052 169.11V167.11C138.052 166.558 138.499 166.11 139.052 166.11H148.052C148.604 166.11 149.052 166.558 149.052 167.11V169.11ZM132.64 173.085H165.64V164.085H132.64V173.085ZM170.94 173.085H185.64V161.085H167.64V173.085H170.94ZM124.64 173.085H130.64V161.085H108.64V173.085H121.64" fill="#575F82"/>
<path fill-rule="evenodd" clip-rule="evenodd" d="M31.176 173.084H35.176V169.084H31.176V173.084ZM54.94 173.084H77.176V169.084H37.176V173.084H54.94ZM31.176 167.084H35.176V163.084H31.176" fill="#256DC3"/>
<path fill-rule="evenodd" clip-rule="evenodd" d="M55.2081 174H78V168H37V174H55.2081Z" fill="#808D9B"/>
<circle cx="168" cy="99" r="5" fill="#D3CDBF"/>
<circle cx="168" cy="115" r="5" fill="#D3CDBF"/>
<path fill-rule="evenodd" clip-rule="evenodd" d="M71.176 163.084H37.176V167.084H77.176V163.084" fill="#57A4FF"/>
<path fill-rule="evenodd" clip-rule="evenodd" d="M27.176 157.084H24.176V161.084H28.176V157.084H27.176ZM64.176 161.084H70.176V157.084H30.176V161.084H36.176H64.176ZM32.176 155.084V151.084H28.176V155.084H29.176" fill="#21A147"/>
<path fill-rule="evenodd" clip-rule="evenodd" d="M27 157H24V161L28.5 161.5V157H27ZM64.5 161.5H70.5V156.5L30 157V161.5H36H64.5Z" fill="#F13D52"/>
<path d="M30 169H36V174H30V169Z" fill="#636A72"/>
<rect x="27" y="150" width="6" height="6" fill="#158336"/>
<rect x="24" y="157" width="5" height="5" fill="#B32435"/>
<path fill-rule="evenodd" clip-rule="evenodd" d="M34.176 151.084V155.084H74.176V151.084H53.94" fill="#21A147"/>
<path fill-rule="evenodd" clip-rule="evenodd" d="M195.306 17.586C202.576 6.07598 219.519 11.406 219.519 23.788C218.249 35.878 206.059 34.378 202.129 33.57C201.419 33.424 200.909 32.8 200.909 32.072V29.222C200.909 28.199 201.889 27.482 202.879 27.762C206.719 28.844 209.649 27.915 209.649 24.404C209.649 20.801 204.059 19.611 201.229 22.431C200.639 23.021 199.729 23.101 199.099 22.571L195.589 19.581C195.009 19.091 194.879 18.241 195.279 17.601L195.306 17.586ZM206.639 47.701C203.709 47.701 201.369 45.361 201.369 42.441C201.369 39.471 203.709 37.071 206.629 37.071C209.609 37.071 211.999 39.471 211.999 42.441C211.999 45.371 209.609 47.711 206.629 47.711L206.639 47.701ZM204.019 58.101C211.419 58.701 218.279 56.471 223.659 52.391C224.109 52.051 224.679 51.901 225.229 52.001L236 53.98C237.593 54.28 238.855 52.65 238.18 51.18L233.36 40.74C233.14 40.26 233.124 39.72 233.3 39.22C234.585 35.62 235.175 31.7 234.89 27.6C233.917 13.55 222.552 2.12998 208.512 1.10998C190.962 -0.170015 176.462 14.43 177.892 32.01C179.022 45.82 190.195 56.99 204.006 58.1" fill="#202225"/>
<path fill-rule="evenodd" clip-rule="evenodd" d="M330.73 173.084H291.937C289.51 173.084 287.537 171.11 287.537 168.684C287.537 166.258 289.511 164.284 291.937 164.284H306.937C308.812 164.284 310.337 162.759 310.337 160.884V156.084C310.337 150.019 315.272 145.084 321.337 145.084H323.63C325.34 145.084 326.73 143.694 326.73 141.984C326.73 140.274 325.34 138.884 323.63 138.884H293.32C292.04 138.884 290.82 138.32 289.98 137.337C289.13 136.345 288.773 135.083 288.976 133.784C289.306 131.674 291.243 130.084 293.486 130.084H309.522C311.394 130.084 312.919 128.554 312.922 126.674C312.927 120.944 317.592 116.284 323.322 116.284H335.22C344.595 116.284 352.22 123.91 352.22 133.284V156.084C352.22 163.858 346.95 170.634 339.4 172.56C339.34 172.574 339.282 172.595 339.227 172.62C338.562 172.928 337.857 173.084 337.137 173.084H330.73ZM298.84 145.451C299.472 144.621 299.862 143.591 299.862 142.461V140.891H302.418V142.461C302.418 144.121 301.075 145.461 299.425 145.461H298.839L298.84 145.451ZM291.673 140.971C291.629 140.821 291.753 140.691 291.906 140.731C292.366 140.841 292.84 140.901 293.321 140.901H296.421C297.221 140.901 297.871 141.551 297.871 142.351V142.361C297.871 143.681 297.091 144.931 295.841 145.331C293.791 145.981 291.911 144.461 291.911 142.501C291.911 141.981 291.841 141.481 291.701 141.001L291.673 140.971ZM287.301 173.091H276.931C275.151 173.091 273.431 172.811 271.811 172.301C273.781 168.351 274.901 163.911 274.901 159.201V139.071H286.501C288.381 139.071 289.901 140.601 289.901 142.481C289.901 145.231 292.141 147.461 294.881 147.461C295.011 147.461 295.141 147.431 295.271 147.421C295.341 147.441 295.401 147.461 295.471 147.461H299.451C302.201 147.461 304.441 145.221 304.441 142.461V140.891H323.651C324.261 140.891 324.751 141.391 324.751 141.991C324.751 142.601 324.261 143.091 323.651 143.091H321.361C314.191 143.091 308.361 148.931 308.361 156.091V160.891C308.361 161.671 307.731 162.291 306.961 162.291H291.961C288.431 162.291 285.561 165.161 285.561 168.691C285.561 170.401 286.241 171.951 287.331 173.091H287.301ZM269.931 171.571C264.051 168.901 259.931 162.971 259.931 156.101V148.801C259.931 148.061 260.531 147.461 261.271 147.461C263.981 147.461 266.371 145.311 266.281 142.601C266.211 140.671 267.761 139.081 269.681 139.081H272.901V159.201C272.901 163.651 271.831 167.851 269.951 171.571H269.931ZM238.491 173.101C235.921 173.101 233.861 170.891 234.111 168.261C234.331 165.981 236.391 164.301 238.691 164.301H249.301C251.181 164.301 252.701 162.781 252.701 160.901V156.101C252.701 152.591 254.361 149.471 256.931 147.451C257.001 147.451 257.061 147.441 257.131 147.431C257.201 147.441 257.251 147.471 257.321 147.471H257.951V156.111C257.951 161.421 260.151 166.221 263.681 169.671C264.971 170.931 264.111 173.121 262.311 173.121H238.511L238.491 173.101ZM265.251 139.401C264.631 140.301 264.271 141.381 264.281 142.551C264.301 144.191 262.881 145.471 261.251 145.471H260.721C261.341 144.661 261.721 143.661 261.741 142.571C261.771 140.671 263.211 139.091 265.111 139.091C265.281 139.091 265.361 139.271 265.271 139.411L265.251 139.401ZM272.901 126.821V129.531H272.401C271.701 129.531 271.121 128.961 271.121 128.251C271.121 127.551 271.701 126.981 272.401 126.981C272.591 126.981 272.751 126.921 272.901 126.831V126.821ZM253.761 142.331C253.761 141.351 254.361 140.461 255.261 140.081C256.131 139.721 256.921 139.161 257.551 138.421C258.721 137.061 259.231 135.261 258.951 133.481C258.631 131.411 257.201 129.701 255.311 128.871C254.401 128.471 253.781 127.611 253.781 126.611V125.991C253.781 120.891 257.921 116.741 263.031 116.741H267.591C270.541 116.741 272.931 119.141 272.931 122.081V125.151C272.781 125.061 272.621 125.001 272.431 125.001C270.401 125.001 268.791 126.861 269.221 128.971C269.541 130.501 270.961 131.561 272.521 131.561H272.931V137.121H265.161C262.221 137.121 259.651 139.481 259.761 142.411C259.831 144.201 258.321 145.651 256.521 145.501C254.951 145.371 253.801 143.951 253.801 142.371L253.761 142.331ZM252.891 138.571H250.861C250.161 138.571 249.591 138.001 249.591 137.301V131.601C249.591 130.901 250.171 130.331 250.871 130.331H252.751C254.861 130.331 256.671 131.821 256.981 133.801C257.171 135.021 256.841 136.201 256.041 137.131C255.251 138.051 254.111 138.581 252.911 138.581L252.891 138.571ZM266.491 114.591V114.731H263C261.886 114.731 260.813 114.901 259.8 115.201C259.79 115.181 259.784 115.161 259.78 115.141C259.674 114.791 259.726 114.411 259.92 114.101C260.11 113.791 260.413 113.591 260.77 113.521C261.5 113.391 262.252 113.331 263 113.331H265.2C265.905 113.331 266.478 113.901 266.478 114.611L266.491 114.591ZM285.361 114.731V114.591C285.361 113.891 285.941 113.321 286.641 113.321H288.841C289.591 113.321 290.341 113.391 291.071 113.521C291.431 113.581 291.731 113.791 291.921 114.101C292.121 114.411 292.171 114.791 292.061 115.151L292.031 115.271C290.961 114.931 289.821 114.751 288.641 114.751H285.371L285.361 114.731ZM274.911 111.191V111.161C274.911 110.391 275.441 109.661 276.211 109.531C277.191 109.371 278.041 110.131 278.041 111.081V114.321C276.321 114.321 274.921 112.931 274.921 111.201L274.911 111.191ZM287.551 137.191C287.221 137.131 286.871 137.091 286.521 137.091H274.9V131.541H279.14C280.7 131.541 282.124 130.481 282.44 128.951C282.87 126.841 281.262 124.991 279.23 124.991H277.755C277.202 124.991 276.755 125.441 276.755 125.991C276.755 126.551 277.202 126.991 277.755 126.991H279.229C279.939 126.991 280.509 127.571 280.509 128.271C280.509 128.971 279.939 129.551 279.229 129.551H274.899V122.081C274.899 119.131 277.289 116.741 280.239 116.741H288.629C293.729 116.741 297.869 120.881 297.869 125.991V126.671C297.869 127.471 297.219 128.121 296.419 128.121H293.499C290.279 128.121 287.489 130.441 287.009 133.511C286.809 134.781 287.009 136.061 287.529 137.201L287.551 137.191ZM295.391 117.001C299.431 118.001 302.441 121.641 302.441 125.981V128.111H299.891V125.981C299.891 122.311 298.121 119.061 295.401 117.011L295.391 117.001ZM301.811 116.311H313.821C314.701 116.311 315.161 117.371 314.541 118.001C312.321 120.241 310.951 123.311 310.941 126.701C310.941 127.481 310.321 128.121 309.551 128.121H304.451V125.991C304.451 122.881 303.171 120.061 301.121 118.021C300.491 117.401 300.941 116.321 301.831 116.321L301.811 116.311ZM250.561 104.031C249.881 102.441 251.341 100.811 253.001 101.311C254.731 101.831 256.561 102.111 258.461 102.111H277.661C288.161 102.111 296.661 93.601 296.661 83.111V75.311C296.661 70.781 292.991 67.111 288.461 67.111H277.661C277.111 67.111 276.661 67.561 276.661 68.111C276.661 68.661 277.111 69.111 277.661 69.111H288.461C291.891 69.111 294.661 71.891 294.661 75.311V83.111C294.661 92.501 287.051 100.111 277.661 100.111H258.461C249.071 100.111 241.461 92.501 241.461 83.111V75.311C241.461 71.891 244.241 69.111 247.661 69.111H266.101C266.651 69.111 267.101 68.661 267.101 68.111C267.101 67.561 266.651 67.111 266.101 67.111H249.741C249.411 67.111 249.141 66.841 249.141 66.511C249.141 57.121 256.751 49.511 266.141 49.511H314.641C323.551 49.511 330.951 55.981 332.451 64.461C328.011 66.221 324.851 70.551 324.851 75.621V89.621C324.851 96.251 330.221 101.621 336.851 101.621H338.301C343.001 101.621 345.181 107.541 341.541 110.511C338.621 112.891 334.901 114.321 330.841 114.321H294.071C294.011 113.881 293.861 113.441 293.621 113.051C293.141 112.261 292.331 111.711 291.421 111.551C290.581 111.401 289.711 111.321 288.841 111.321H286.641C284.931 111.321 283.541 112.641 283.391 114.321H280.041V111.181C280.041 109.481 278.891 107.941 277.231 107.601C274.941 107.131 272.921 108.881 272.921 111.091V111.221C272.921 112.951 271.521 114.341 269.801 114.341H268.481C268.341 112.671 266.941 111.351 265.231 111.351H263C262.135 111.351 261.266 111.431 260.418 111.581C259.721 111.701 259.091 112.058 258.614 112.571C255.019 110.781 252.144 107.761 250.548 104.071L250.561 104.031ZM271.381 45.511H328.491C335.621 45.511 342.081 49.441 345.371 55.771C345.621 56.251 346.201 56.431 346.681 56.211C346.701 56.211 346.711 56.211 346.721 56.201C347.211 55.951 347.401 55.341 347.151 54.851C346.871 54.311 346.561 53.781 346.241 53.261C345.571 52.211 347.031 51.141 347.851 52.081C350.171 54.761 351.751 58.101 352.281 61.771C352.421 62.751 351.641 63.611 350.661 63.611H344.881C344.661 63.611 344.451 63.631 344.231 63.651C344.041 63.641 343.841 63.621 343.651 63.621H336.891C336.521 63.621 336.161 63.641 335.801 63.671C335.021 63.741 334.301 63.281 334.101 62.531C331.841 53.911 324.001 47.531 314.681 47.531H271.4C270.11 47.531 270.044 45.551 271.335 45.531H271.375L271.381 45.511ZM360.631 75.611V89.611C360.631 95.131 356.151 99.611 350.631 99.611H350.251C353.491 97.461 355.631 93.781 355.631 89.611C355.631 89.061 355.181 88.611 354.631 88.611C354.081 88.611 353.631 89.061 353.631 89.611C353.631 95.131 349.151 99.611 343.631 99.611H336.871C331.361 99.611 326.871 95.131 326.871 89.611V75.611C326.871 70.101 331.361 65.611 336.871 65.611H343.641C346.751 65.611 349.631 67.021 351.541 69.471C351.871 69.891 352.461 69.971 352.901 69.671C352.921 69.661 352.941 69.661 352.951 69.651C353.391 69.321 353.471 68.691 353.131 68.251C352.321 67.211 351.351 66.331 350.281 65.621H350.661C356.171 65.621 360.661 70.111 360.661 75.621L360.631 75.611ZM199.731 188.941H196.321C195.621 188.941 195.051 188.371 195.051 187.661C195.051 186.961 195.621 186.391 196.331 186.391H199.751C200.461 186.391 201.031 186.961 201.031 187.671C201.031 188.381 200.461 188.951 199.761 188.951L199.731 188.941ZM185.651 171.091C185.651 172.201 184.761 173.091 183.651 173.091H169.651C168.551 173.091 167.651 172.201 167.651 171.091V163.091C167.651 161.991 168.551 161.091 169.651 161.091H183.651C184.761 161.091 185.651 161.991 185.651 163.091V171.091ZM165.651 160.091C165.651 161.201 164.761 162.091 163.651 162.091H134.651C133.551 162.091 132.651 161.201 132.651 160.091C132.651 159.541 132.211 159.091 131.651 159.091H98.651C98.101 159.091 97.651 159.541 97.651 160.091V173.091H91.951V158.091C91.951 156.441 93.291 155.091 94.951 155.091H165.951C167.611 155.091 168.951 156.441 168.951 158.091V159.091H166.651C166.101 159.091 165.651 159.541 165.651 160.091ZM163.651 173.091H134.651C133.551 173.091 132.651 172.201 132.651 171.091V166.091C132.651 164.991 133.551 164.091 134.651 164.091H163.651C164.761 164.091 165.651 164.991 165.651 166.091V171.091C165.651 172.201 164.761 173.091 163.651 173.091ZM130.651 171.091C130.651 172.201 129.761 173.091 128.651 173.091H110.651C109.551 173.091 108.651 172.201 108.651 171.091V163.091C108.651 161.991 109.551 161.091 110.651 161.091H128.651C129.761 161.091 130.651 161.991 130.651 163.091V171.091ZM104.651 173.091H101.651C100.551 173.091 99.651 172.201 99.651 171.091V163.091C99.651 161.991 100.551 161.091 101.651 161.091H104.651C105.761 161.091 106.651 161.991 106.651 163.091V171.091C106.651 172.201 105.761 173.091 104.651 173.091ZM176.951 156.091V159.091H170.951V156.091C170.951 154.441 172.291 153.091 173.951 153.091C175.611 153.091 176.951 154.441 176.951 156.091ZM83.951 147.091V89.091C83.951 86.881 85.741 85.091 87.951 85.091H172.951C175.161 85.091 176.951 86.881 176.951 89.091V147.091C176.951 149.301 175.161 151.091 172.951 151.091H87.951C85.741 151.091 83.951 149.301 83.951 147.091ZM89.951 173.091H83.951V156.091C83.951 154.441 85.291 153.091 86.951 153.091C88.611 153.091 89.951 154.441 89.951 156.091V173.091ZM77.951 151.091H76.181V150.091C76.181 149.541 75.731 149.091 75.181 149.091H58.94C56.73 149.091 54.94 147.301 54.94 145.091V89.091C54.94 86.881 56.73 85.091 58.94 85.091H77.94C80.148 85.091 81.94 86.881 81.94 89.091V147.091C81.94 149.301 80.148 151.091 77.94 151.091H77.951ZM80.571 173.091C79.801 173.091 79.191 172.481 79.191 171.711V162.091C79.191 161.541 78.741 161.091 78.191 161.091H73.571C72.801 161.091 72.191 160.481 72.191 159.711V158.471C72.191 157.711 72.801 157.091 73.571 157.091H75.191C75.741 157.091 76.191 156.651 76.191 156.091V153.091H78.951C80.601 153.091 81.951 154.441 81.951 156.091V171.711C81.951 172.481 81.331 173.091 80.571 173.091ZM77.191 166.091H37.191V165.091C37.191 163.991 38.081 163.091 39.191 163.091H75.191C76.291 163.091 77.191 163.991 77.191 165.091V166.091ZM77.191 173.091H37.17V169.091H77.17V173.091H77.191ZM30.191 161.091V157.091H70.191V161.091H30.191ZM35.191 166.091H31.191V165.091C31.191 163.991 32.081 163.091 33.191 163.091C34.291 163.091 35.191 163.991 35.191 165.091V166.091ZM31.191 173.091H35.191V169.091H31.191V173.091ZM29.191 155.091H28.191V151.091H32.191V153.091C32.191 154.201 31.291 155.091 30.191 155.091H29.191ZM28.191 161.091H24.191V157.091H28.191V161.091ZM34.191 151.091H74.191V153.091C74.191 154.201 73.291 155.091 72.191 155.091H36.191C35.081 155.091 34.191 154.201 34.191 153.091V151.091ZM402.011 173.091H349.891C348.081 173.091 347.221 170.911 348.511 169.651C352.071 166.171 354.221 161.341 354.221 156.091V133.291C354.221 125.491 349.481 118.781 342.741 115.861C341.331 115.251 341.031 113.371 342.261 112.441C345.431 110.041 347.831 106.661 349.001 102.761C349.211 102.061 349.871 101.601 350.601 101.601C357.221 101.601 362.601 96.231 362.601 89.601V75.601C362.601 70.331 359.181 65.861 354.451 64.251C354.311 52.781 344.951 43.501 333.461 43.501H271.351C268.941 43.501 266.921 45.221 266.451 47.501H266.121C255.631 47.501 247.121 56.011 247.121 66.501V67.121C242.841 67.391 239.431 70.951 239.431 75.301V83.101C239.431 89.371 242.491 94.921 247.181 98.381C247.581 105.391 251.771 111.381 257.751 114.331C257.691 114.781 257.731 115.251 257.861 115.701C257.891 115.781 257.911 115.861 257.941 115.941C254.281 117.791 251.751 121.591 251.751 125.971V128.311H250.851C249.041 128.311 247.581 129.781 247.581 131.581V137.281C247.581 139.091 249.051 140.561 250.861 140.561H251.771V142.481C251.771 144.421 252.901 146.091 254.521 146.911C252.171 149.271 250.711 152.521 250.711 156.101V160.901C250.711 161.671 250.081 162.301 249.311 162.301H238.791C235.191 162.301 232.081 165.161 232.121 168.771C232.131 169.821 232.391 170.801 232.851 171.671C233.191 172.321 232.681 173.101 231.947 173.101H191.677C189.467 173.101 187.677 171.311 187.677 169.101V160.101C187.677 159.551 187.227 159.101 186.677 159.101H180.977C179.867 159.101 178.977 158.201 178.977 157.101V86.101C178.977 84.441 177.631 83.101 175.977 83.101H144C143.11 83.101 142.663 82.021 143.293 81.391L160.543 64.141C160.933 63.751 160.933 63.121 160.543 62.731C160.153 62.341 159.516 62.341 159.126 62.731L147.423 74.441C141.873 79.991 134.347 83.101 126.503 83.101C118.653 83.101 111.133 79.991 105.583 74.441L93.88 62.71C93.49 62.32 92.858 62.32 92.467 62.71C92.077 63.1 92.077 63.732 92.467 64.123L109.717 81.37C110.347 82 109.9 83.08 109.01 83.08H55.94C54.282 83.08 52.94 84.43 52.94 86.08V143.08C52.94 146.4 50.252 149.08 46.94 149.08H27.175C26.623 149.08 26.175 149.53 26.175 150.08V153.7C26.175 154.47 25.557 155.08 24.795 155.08H23.175C22.623 155.08 22.175 155.53 22.175 156.08V162.08C22.175 162.64 22.623 163.08 23.175 163.08H24.175C26.935 163.08 29.175 165.32 29.175 168.08C29.175 170.84 26.935 173.08 24.175 173.08H2C1.448 173.08 1 173.53 1 174.08C1 174.64 1.448 175.08 2 175.08H267.796C262.812 182.08 254.641 186.65 245.416 186.65H204.042C203.397 186.65 202.782 186.35 202.42 185.82C201.834 184.96 200.85 184.38 199.725 184.38H191.185C190.631 184.38 190.185 184.83 190.185 185.38C190.185 185.94 190.631 186.38 191.185 186.38H191.755C192.459 186.38 193.031 186.96 193.031 187.66C193.031 188.37 192.461 188.94 191.761 188.94H191.191C190.641 188.94 190.191 189.39 190.191 189.94C190.191 190.49 190.641 190.94 191.191 190.94H199.731C200.861 190.94 201.841 190.37 202.431 189.5C202.801 188.97 203.411 188.66 204.061 188.66H245.441C255.841 188.66 264.991 183.25 270.241 175.09H402C402.552 175.09 403 174.65 403 174.09C403 173.54 402.552 173.09 402 173.09L402.011 173.091Z" fill="#202225"/>
<path fill-rule="evenodd" clip-rule="evenodd" d="M347.037 60.45C347.137 60.92 347.553 61.24 348.014 61.24C348.067 61.24 348.122 61.232 348.177 61.222C348.193 61.222 348.209 61.222 348.225 61.218C348.765 61.101 349.108 60.568 348.992 60.028C348.902 59.618 348.802 59.212 348.69 58.81C348.54 58.278 347.99 57.966 347.458 58.116C347.444 58.12 347.434 58.131 347.42 58.136C346.914 58.301 346.62 58.831 346.764 59.346C346.866 59.712 346.957 60.078 347.037 60.45ZM371.115 135.641C371.32 135.631 371.525 135.621 371.727 135.621C373.85 135.621 375.891 136.461 377.405 137.981C379.065 139.641 379.913 141.931 379.735 144.271C379.483 147.591 377.168 150.441 373.975 151.381L361.311 155.081C360.901 155.201 360.621 154.981 360.521 154.881C360.421 154.781 360.201 154.501 360.321 154.091L364.021 141.431C364.951 138.241 367.811 135.921 371.131 135.671L371.115 135.641ZM358.4 153.5C358.108 154.497 358.373 155.53 359.106 156.264C359.639 156.802 360.354 157.09 361.086 157.09C361.348 157.09 361.612 157.052 361.87 156.977L374.534 153.285C378.524 152.121 381.414 148.555 381.729 144.415C381.949 141.495 380.889 138.629 378.819 136.558C376.739 134.486 373.879 133.422 370.959 133.648C366.819 133.963 363.249 136.855 362.089 140.842L358.389 153.505L358.4 153.5ZM155.14 96.97L152.548 94.38C152.024 93.855 151.168 93.855 150.643 94.38L138.167 106.855C137.641 107.381 136.787 107.381 136.262 106.855L127.462 98.057C126.936 97.531 126.082 97.531 125.557 98.057L113.797 109.817C113.27 110.344 112.417 110.344 111.89 109.817L99.946 97.875C99.422 97.351 98.566 97.351 98.041 97.875L93.741 102.175C92.891 103.025 91.441 102.425 91.441 101.225V97.26C91.441 96.905 91.581 96.562 91.841 96.31L96.171 91.98C96.421 91.726 96.771 91.584 97.121 91.584H100.881C101.241 91.584 101.581 91.726 101.841 91.979L112.151 102.289C112.341 102.479 112.591 102.579 112.861 102.579C113.131 102.579 113.381 102.469 113.571 102.279L123.891 91.969C124.141 91.709 124.491 91.569 124.841 91.569H128.231C128.591 91.569 128.931 91.709 129.181 91.959L136.531 99.309C136.721 99.489 136.971 99.599 137.241 99.599C137.511 99.599 137.761 99.489 137.951 99.309L145.301 91.959C145.561 91.699 145.901 91.559 146.261 91.559H156.131C156.881 91.559 157.481 92.159 157.481 92.909V96C157.481 97.2 156.031 97.805 155.181 96.956L155.14 96.97ZM155.14 107.57L152.548 104.98C152.024 104.455 151.168 104.455 150.643 104.98L138.167 117.455C137.641 117.982 136.787 117.982 136.262 117.455L127.462 108.657C126.938 108.132 126.082 108.132 125.557 108.657L113.797 120.417C113.27 120.944 112.417 120.944 111.89 120.417L99.946 108.474C99.422 107.949 98.566 107.949 98.041 108.474L93.741 112.774C92.891 113.624 91.441 113.024 91.441 111.824V107.862C91.441 107.505 91.581 107.162 91.841 106.909L98.051 100.699C98.581 100.169 99.431 100.169 99.961 100.699L112.151 112.889C112.341 113.069 112.591 113.179 112.861 113.179C113.131 113.179 113.381 113.069 113.571 112.879L125.581 100.869C126.111 100.339 126.961 100.339 127.491 100.869L136.291 109.669C136.821 110.189 137.671 110.189 138.201 109.669L150.671 97.189C151.201 96.659 152.051 96.659 152.581 97.189L157.221 101.829C157.301 101.899 157.391 101.949 157.471 101.989V106.589C157.471 107.789 156.021 108.389 155.171 107.539L155.14 107.57ZM155.14 118.17L152.548 115.58C152.024 115.055 151.168 115.055 150.643 115.58L138.167 128.055C137.641 128.581 136.787 128.581 136.262 128.055L127.462 119.257C126.936 118.731 126.082 118.731 125.557 119.257L113.797 131.017C113.27 131.543 112.417 131.543 111.89 131.017L99.946 119.074C99.42 118.548 98.566 118.548 98.041 119.074L93.741 123.374C92.891 124.224 91.441 123.622 91.441 122.422V118.462C91.441 118.105 91.581 117.762 91.841 117.509L98.051 111.299C98.581 110.769 99.431 110.769 99.961 111.299L112.151 123.489C112.341 123.669 112.591 123.779 112.861 123.779C113.131 123.779 113.381 123.669 113.571 123.479L125.581 111.469C126.111 110.939 126.961 110.939 127.491 111.469L136.541 120.509C136.731 120.689 136.981 120.799 137.251 120.799C137.521 120.799 137.771 120.689 137.961 120.499L150.691 107.779C151.221 107.249 152.071 107.249 152.601 107.779L157.241 112.419C157.321 112.489 157.411 112.539 157.491 112.589V117.189C157.491 118.389 156.041 118.989 155.191 118.139L155.14 118.17ZM155.14 128.77L152.548 126.18C152.022 125.654 151.168 125.654 150.643 126.18L138.167 138.655C137.641 139.181 136.787 139.181 136.262 138.655L127.462 129.857C126.936 129.33 126.082 129.33 125.557 129.857L113.797 141.617C113.27 142.144 112.417 142.144 111.89 141.617L99.946 129.674C99.422 129.15 98.566 129.15 98.041 129.674L93.741 133.974C92.891 134.824 91.441 134.224 91.441 133.024V129.062C91.441 128.704 91.581 128.362 91.841 128.109L98.051 121.899C98.581 121.369 99.431 121.369 99.961 121.899L112.151 134.089C112.351 134.279 112.601 134.379 112.861 134.379C113.121 134.379 113.371 134.279 113.571 134.079L125.581 122.069C126.111 121.539 126.961 121.539 127.491 122.069L136.291 130.869C136.821 131.389 137.671 131.389 138.201 130.869L150.671 118.389C151.201 117.859 152.051 117.859 152.581 118.389L157.221 123.029C157.301 123.099 157.391 123.149 157.471 123.189V127.789C157.471 128.989 156.021 129.589 155.171 128.739L155.14 128.77ZM155.14 139.37L152.548 136.78C152.024 136.255 151.168 136.255 150.643 136.78L142.233 145.19C141.98 145.443 141.637 145.584 141.28 145.584H133.15C132.79 145.584 132.45 145.444 132.196 145.19L127.462 140.456C126.938 139.932 126.082 139.932 125.557 140.456L120.824 145.19C120.571 145.443 120.228 145.584 119.87 145.584H105.815C105.458 145.584 105.115 145.444 104.863 145.19L99.946 140.274C99.422 139.749 98.566 139.749 98.041 140.274L93.131 145.19C92.881 145.443 92.541 145.584 92.181 145.584H91.451V139.661C91.451 139.311 91.591 138.971 91.851 138.711L98.061 132.511C98.591 131.991 99.441 131.991 99.971 132.511L112.161 144.701C112.351 144.891 112.601 145.001 112.871 145.001C113.141 145.001 113.391 144.901 113.581 144.711L125.591 132.711C126.121 132.181 126.971 132.181 127.501 132.711L136.301 141.511C136.831 142.041 137.681 142.041 138.211 141.511L150.691 129.041C151.221 128.521 152.071 128.521 152.601 129.041L157.241 133.681C157.321 133.761 157.401 133.801 157.491 133.851V138.451C157.491 139.651 156.041 140.251 155.191 139.401L155.14 139.37ZM157.44 145.584H147.92C146.72 145.584 146.118 144.134 146.966 143.284L150.643 139.608C151.169 139.081 152.023 139.081 152.548 139.608L157.188 144.248C157.263 144.323 157.351 144.368 157.438 144.414V145.584H157.44ZM125.557 143.284C126.083 142.758 126.937 142.758 127.462 143.284C128.312 144.134 127.71 145.584 126.51 145.584C125.31 145.584 124.708 144.134 125.557 143.284ZM97.857 143.284L98.041 143.102C98.571 142.575 99.421 142.575 99.951 143.102L100.141 143.284C100.991 144.134 100.391 145.584 99.191 145.584H98.831C97.631 145.584 97.031 144.134 97.881 143.284H97.857ZM91.44 92.932C91.44 92.188 92.042 91.584 92.786 91.584H93.73L91.44 93.874V92.932ZM119.13 93.884L113.796 99.217C113.27 99.743 112.416 99.743 111.89 99.217L106.557 93.884C105.707 93.034 106.309 91.584 107.51 91.584H118.176C119.376 91.584 119.977 93.034 119.13 93.884ZM140.538 93.884L138.168 96.254C137.641 96.782 136.788 96.782 136.262 96.254L133.89 93.884C133.042 93.034 133.643 91.584 134.843 91.584H139.585C140.785 91.584 141.387 93.034 140.538 93.884ZM159.438 146.237V90.932C159.438 90.188 158.836 89.584 158.092 89.584H90.786C90.042 89.584 89.439 90.188 89.439 90.932V146.237C89.439 146.981 90.039 147.584 90.779 147.584H158.079C158.819 147.584 159.419 146.981 159.419 146.237H159.438ZM168.343 95.584C170.549 95.584 172.343 97.378 172.343 99.584C172.343 101.79 170.549 103.584 168.343 103.584C166.137 103.584 164.343 101.79 164.343 99.584C164.343 97.378 166.137 95.584 168.343 95.584ZM168.343 105.584C171.653 105.584 174.343 102.894 174.343 99.584C174.343 96.274 171.653 93.584 168.343 93.584C165.033 93.584 162.343 96.274 162.343 99.584C162.343 102.894 165.033 105.584 168.343 105.584ZM168.343 110.584C170.549 110.584 172.343 112.378 172.343 114.584C172.343 116.79 170.549 118.584 168.343 118.584C166.137 118.584 164.343 116.79 164.343 114.584C164.343 112.378 166.137 110.584 168.343 110.584ZM168.343 120.584C171.653 120.584 174.343 117.894 174.343 114.584C174.343 111.274 171.653 108.584 168.343 108.584C165.033 108.584 162.343 111.274 162.343 114.584C162.343 117.894 165.033 120.584 168.343 120.584ZM139.053 170.11H148.053C148.603 170.11 149.053 169.663 149.053 169.11V167.11C149.053 166.558 148.603 166.11 148.053 166.11H139.053C138.499 166.11 138.053 166.558 138.053 167.11V169.11C138.053 169.663 138.499 170.11 139.053 170.11ZM153.053 170.11H162.053C162.603 170.11 163.053 169.663 163.053 169.11V167.11C163.053 166.558 162.603 166.11 162.053 166.11H153.053C152.499 166.11 152.053 166.558 152.053 167.11V169.11C152.053 169.663 152.499 170.11 153.053 170.11ZM254.506 20.112H255.016C255.568 20.112 256.016 20.559 256.016 21.112V21.622C256.016 22.175 256.464 22.622 257.016 22.622C257.569 22.622 258.016 22.175 258.016 21.622V21.112C258.016 20.559 258.464 20.112 259.016 20.112H259.526C260.078 20.112 260.526 19.665 260.526 19.112C260.526 18.559 260.078 18.112 259.526 18.112H259.016C258.464 18.112 258.016 17.665 258.016 17.112V16.602C258.016 16.05 257.569 15.602 257.016 15.602C256.464 15.602 256.016 16.05 256.016 16.602V17.112C256.016 17.665 255.568 18.112 255.016 18.112H254.506C253.954 18.112 253.506 18.559 253.506 19.112C253.506 19.665 253.954 20.112 254.506 20.112ZM120.129 12.222H120.639C121.189 12.222 121.639 12.67 121.639 13.222V13.732C121.639 14.286 122.089 14.732 122.639 14.732C123.189 14.732 123.639 14.286 123.639 13.732V13.222C123.639 12.67 124.089 12.222 124.639 12.222H125.149C125.699 12.222 126.149 11.776 126.149 11.222C126.149 10.67 125.699 10.222 125.149 10.222H124.639C124.089 10.222 123.639 9.77598 123.639 9.22198V8.71198C123.639 8.16198 123.189 7.71198 122.639 7.71198C122.089 7.71198 121.639 8.16198 121.639 8.71198V9.22198C121.639 9.77598 121.189 10.222 120.639 10.222H120.129C119.579 10.222 119.129 10.67 119.129 11.222C119.129 11.776 119.579 12.222 120.129 12.222ZM159 21.295C159.256 21.295 159.512 21.197 159.707 21.002L160.89 19.818C161.28 19.428 161.28 18.795 160.89 18.404C160.5 18.014 159.866 18.014 159.476 18.404L158.293 19.588C157.903 19.978 157.903 20.611 158.293 21.002C158.487 21.197 158.743 21.295 158.999 21.295H159ZM153.079 27.21C153.329 27.21 153.589 27.113 153.779 26.918L154.959 25.734C155.349 25.344 155.349 24.711 154.959 24.32C154.569 23.93 153.929 23.93 153.539 24.32L152.349 25.504C151.959 25.894 151.959 26.527 152.349 26.918C152.539 27.113 152.799 27.211 153.059 27.211L153.079 27.21ZM159.449 26.921C159.639 27.121 159.899 27.221 160.149 27.221C160.409 27.221 160.659 27.131 160.859 26.931C161.249 26.541 161.249 25.911 160.859 25.521L159.679 24.341C159.289 23.951 158.659 23.951 158.259 24.341C157.869 24.731 157.869 25.371 158.259 25.761L159.439 26.951L159.449 26.921ZM153.529 21.011C153.719 21.211 153.979 21.311 154.229 21.311C154.479 21.311 154.739 21.211 154.929 21.021C155.319 20.631 155.319 20.001 154.929 19.611L153.749 18.431C153.359 18.041 152.719 18.041 152.329 18.431C151.939 18.821 151.939 19.461 152.329 19.851L153.509 21.031L153.529 21.011ZM149.009 40.861C149.839 40.861 150.519 41.541 150.519 42.371C150.519 43.211 149.839 43.881 149.009 43.881C148.179 43.881 147.499 43.211 147.499 42.371C147.499 41.541 148.169 40.861 149.009 40.861ZM149.009 45.881C150.939 45.881 152.519 44.311 152.519 42.371C152.519 40.441 150.939 38.861 149.009 38.861C147.069 38.861 145.499 40.441 145.499 42.371C145.499 44.311 147.069 45.881 149.009 45.881ZM309.4 82.75C311.87 82.75 313.9 80.73 313.9 78.25C313.9 75.78 311.87 73.75 309.4 73.75C306.92 73.75 304.9 75.78 304.9 78.25C304.9 80.73 306.92 82.75 309.4 82.75Z" fill="#202225"/>
<path opacity="0.3" fill-rule="evenodd" clip-rule="evenodd" d="M109.56 201.594H127.472C133.522 201.594 138.472 196.644 138.472 190.594C138.472 184.544 133.522 179.596 127.472 179.596H109.56C103.51 179.596 98.56 184.546 98.56 190.596C98.56 196.646 103.51 201.594 109.56 201.594Z" fill="#4F545C"/>
</svg>
