<svg width="171" height="86" viewBox="0 0 171 86" fill="none" xmlns="http://www.w3.org/2000/svg">
<g clip-path="url(#clip0)">
<path fill-rule="evenodd" clip-rule="evenodd" d="M46.1074 43.782C46.1074 45.682 44.5534 47.236 42.6534 47.236H42.3084C40.4084 47.236 38.8544 45.682 38.8544 43.782V43.437C38.8544 41.537 40.4084 39.983 42.3084 39.983H42.6534C44.5534 39.983 46.1074 41.537 46.1074 43.437V43.782ZM86.5184 62.598H69.9394C60.8184 62.598 53.3974 55.178 53.3974 46.056V39.321C53.3974 35.342 56.6344 32.104 60.6144 32.104H77.7114C78.2634 32.104 78.7114 32.552 78.7114 33.104H89.0194C89.0194 32.552 89.4664 32.104 90.0194 32.104H94.3934C94.1354 24.309 87.7314 18.044 79.8754 18.044H30.6574C25.5314 18.044 21.0254 20.717 18.4354 24.736H21.1224C21.6744 24.736 22.1224 25.183 22.1224 25.736C22.1224 26.288 21.6744 26.736 21.1224 26.736H15.6644V29.916H21.1224C21.6744 29.916 22.1224 30.364 22.1224 30.916C22.1224 31.469 21.6744 31.916 21.1224 31.916H21.1154C21.1154 31.929 21.1224 31.94 21.1224 31.953V47.495C21.1224 48.067 20.6584 48.531 20.0864 48.531H16.9414C16.9414 49.083 16.4934 49.531 15.9414 49.531H15.6644V52.712H21.1224C21.6744 52.712 22.1224 53.159 22.1224 53.712C22.1224 54.264 21.6744 54.712 21.1224 54.712H16.1144V62.635C16.1144 70.653 22.6384 77.177 30.6574 77.177H42.4814C43.0334 77.177 43.4814 77.625 43.4814 78.177C43.4814 78.729 43.0334 79.177 42.4814 79.177H36.4774C42.2254 82.251 48.7834 84 55.7444 84C60.7364 84 65.6124 83.114 70.2384 81.365C71.8984 80.738 73.4964 80.002 75.0354 79.177H57.1884C56.6354 79.177 56.1884 78.729 56.1884 78.177C56.1884 77.625 56.6354 77.177 57.1884 77.177H79.8754C87.8934 77.177 94.4174 70.653 94.4174 62.635V60.586C92.0684 61.868 89.3774 62.598 86.5184 62.598Z" fill="#A0B2DC"/>
<path fill-rule="evenodd" clip-rule="evenodd" d="M31.603 16.9783H32.063V78.3343H31.603C22.859 78.3343 15.771 71.2463 15.771 62.5023V32.8103C15.771 24.0663 22.859 16.9783 31.603 16.9783Z" fill="#7A8EC7"/>
<path fill-rule="evenodd" clip-rule="evenodd" d="M11.8325 62.5516H33.6935V34.6346H11.8325C5.87646 34.6346 1.04846 39.4636 1.04846 45.4186V51.7676C1.04846 57.7226 5.87646 62.5516 11.8325 62.5516Z" fill="#A0B2DC"/>
<path fill-rule="evenodd" clip-rule="evenodd" d="M35.8549 16.9783H36.3149V78.3343H35.8549C27.1109 78.3343 20.0229 71.2463 20.0229 62.5023V32.8103C20.0229 24.0663 27.1109 16.9783 35.8549 16.9783Z" fill="#A0B2DC"/>
<path fill-rule="evenodd" clip-rule="evenodd" d="M132.75 46.7645C132.323 46.8465 131.988 47.1815 131.935 47.6135L131.5 51.1535C131.439 51.6505 131.018 52.0235 130.518 52.0235H124.715C124.188 52.0235 123.753 51.6105 123.726 51.0835L123.272 42.2415C123.241 41.6175 123.79 41.1135 124.406 41.2115C125.635 41.4085 126.631 41.4085 127.112 41.4085C135.929 41.4085 136.243 28.5605 126.922 29.3795C125.226 29.5435 123.529 30.2805 122.162 31.7935C121.809 32.1855 121.206 32.2215 120.802 31.8815L116.641 28.3665C116.23 28.0195 116.162 27.3975 116.507 26.9855C120.055 22.7555 124.389 21.0665 128.498 21.0665C145.375 21.0665 148.618 43.7455 132.75 46.7645ZM132.009 63.1585C131.938 63.2965 131.832 63.4235 131.709 63.5175C127.461 66.7615 122.892 63.9475 122.892 59.9585C122.892 57.0615 125.097 54.9825 127.868 54.9825C131.583 54.9825 134.28 58.7215 132.009 63.1585ZM167.56 54.7585C171.877 40.2895 167.932 24.6745 157.266 14.0085C149.522 6.26448 139.226 2.00048 128.274 2.00048C117.323 2.00048 107.026 6.26448 99.2834 14.0085C96.9004 16.3905 94.8514 19.0165 93.1494 21.8275C95.0154 25.1175 96.4304 28.6245 97.3674 32.2685C100.617 32.9705 103.06 35.8645 103.06 39.3215V46.0565C103.06 51.4635 100.441 56.2575 96.4174 59.2785V62.6345C96.4174 64.4235 96.1234 66.1435 95.5954 67.7585C96.7214 69.2375 97.9464 70.6545 99.2834 71.9915C108.099 80.8075 120.275 85.0975 132.685 83.7635C133.213 83.7065 133.709 84.0925 133.78 84.6305C136.617 84.2575 139.424 83.6035 142.152 82.6505C141.966 82.1375 142.225 81.5685 142.738 81.3755C148.21 79.3165 153.098 76.1595 157.266 71.9915C157.65 71.6075 158.267 71.6055 158.659 71.9775C163.142 67.2795 166.326 61.8025 168.211 55.9915C167.697 55.8235 167.405 55.2795 167.56 54.7585ZM79.2031 8.14188C78.9061 8.60688 78.2871 8.74288 77.8221 8.44488C71.2361 4.22788 63.6011 1.99988 55.7451 1.99988C42.6891 1.99988 31.0481 8.14188 23.5341 17.6789C25.6951 16.6419 28.1051 16.0439 30.6571 16.0439H79.8751C84.1271 16.0439 87.9971 17.6709 90.9311 20.3169C90.9711 20.2829 92.0791 21.6719 92.1251 21.6429C92.3951 21.4779 91.6271 20.0379 91.9031 20.1379C91.8941 20.1239 91.8861 20.1109 91.8781 20.0989C88.6281 15.1139 84.3511 10.8669 79.3441 7.64888C79.3361 7.81888 79.3021 7.98888 79.2031 8.14188ZM12.5639 57.1683H19.1549C20.1739 57.1683 21.0009 56.3413 21.0009 55.3223V41.9853C21.0009 40.9663 20.1739 40.1393 19.1549 40.1393H12.5639C9.53989 40.1393 7.08789 42.5913 7.08789 45.6153V51.6923C7.08789 54.7163 9.53989 57.1683 12.5639 57.1683Z" fill="#8BA0D2"/>
<path fill-rule="evenodd" clip-rule="evenodd" d="M132.75 46.7645C132.323 46.8465 131.988 47.1815 131.935 47.6135L131.5 51.1535C131.439 51.6505 131.018 52.0235 130.518 52.0235H124.715C124.188 52.0235 123.753 51.6105 123.726 51.0835L123.272 42.2415C123.241 41.6175 123.79 41.1135 124.406 41.2115C125.635 41.4085 126.631 41.4085 127.112 41.4085C135.929 41.4085 136.243 28.5605 126.922 29.3795C125.226 29.5435 123.529 30.2805 122.162 31.7935C121.809 32.1855 121.206 32.2215 120.802 31.8815L116.641 28.3665C116.23 28.0195 116.162 27.3975 116.507 26.9855C120.055 22.7555 124.389 21.0665 128.498 21.0665C145.375 21.0665 148.618 43.7455 132.75 46.7645ZM132.009 63.1585C131.938 63.2965 131.832 63.4235 131.709 63.5175C127.461 66.7615 122.892 63.9475 122.892 59.9585C122.892 57.0615 125.097 54.9825 127.868 54.9825C131.583 54.9825 134.28 58.7215 132.009 63.1585ZM167.56 54.7585C171.877 40.2895 167.932 24.6745 157.266 14.0085C149.522 6.26449 139.226 2.00049 128.274 2.00049C117.323 2.00049 107.026 6.26449 99.2834 14.0085C96.9004 16.3905 94.8514 19.0165 93.1494 21.8275C95.0154 25.1175 96.4304 28.6245 97.3674 32.2685C100.617 32.9705 103.06 35.8645 103.06 39.3215V46.0565C103.06 51.4635 100.441 56.2575 96.4174 59.2785V62.6345C96.4174 64.4235 96.1234 66.1435 95.5954 67.7585C96.7214 69.2375 97.9464 70.6545 99.2834 71.9915C108.099 80.8075 120.275 85.0975 132.685 83.7635C133.213 83.7065 133.709 84.0925 133.78 84.6305C136.617 84.2575 139.424 83.6035 142.152 82.6505C141.966 82.1375 142.225 81.5685 142.738 81.3755C148.21 79.3165 153.098 76.1595 157.266 71.9915C157.65 71.6075 158.267 71.6055 158.659 71.9775C163.142 67.2795 166.326 61.8025 168.211 55.9915C167.697 55.8235 167.405 55.2795 167.56 54.7585Z" fill="#FFDE96"/>
<path fill-rule="evenodd" clip-rule="evenodd" d="M91.3911 55.053H90.8731H90.2011C88.7761 55.053 87.6101 53.887 87.6101 52.463C87.6101 51.038 88.7761 49.872 90.2011 49.872H90.8731H91.3911H92.7641C94.1881 49.872 95.3541 51.038 95.3541 52.463C95.3541 53.887 94.1881 55.053 92.7641 55.053H91.3911ZM82.8431 52.463C82.8431 53.887 81.6771 55.053 80.2521 55.053H78.3621H76.4721H73.8811C72.4561 55.053 71.2911 53.887 71.2911 52.463C71.2911 51.038 72.4561 49.872 73.8811 49.872H76.4721H78.3621H80.2521C81.6771 49.872 82.8431 51.038 82.8431 52.463ZM95.8441 34.104H90.0191C89.4671 34.104 89.0191 33.656 89.0191 33.104H78.7111C78.7111 33.656 78.2631 34.104 77.7111 34.104H60.6141C57.7381 34.104 55.3971 36.444 55.3971 39.321V46.056C55.3971 54.074 61.9211 60.598 69.9391 60.598H86.5181C94.5371 60.598 101.06 54.074 101.06 46.056V39.321C101.06 36.444 98.7201 34.104 95.8441 34.104Z" fill="#B3CAFB"/>
<path fill-rule="evenodd" clip-rule="evenodd" d="M95.8437 34.1038H90.0187C89.4667 34.1038 89.0197 33.6558 89.0187 33.1038H78.7107C78.7107 33.6558 78.2627 34.1038 77.7107 34.1038H65.6147C62.7377 34.1038 60.3977 36.4438 60.3977 39.3208V46.0558C60.3977 54.0748 66.9207 60.5988 74.9397 60.5988H86.5177C94.5367 60.5988 101.061 54.0748 101.061 46.0558V39.3208C101.061 36.4438 98.7197 34.1038 95.8437 34.1038Z" fill="#C2D2F1"/>
<path fill-rule="evenodd" clip-rule="evenodd" d="M80.2524 49.8724H78.3624H76.4714H73.8814C72.4564 49.8724 71.2914 51.0384 71.2914 52.4624C71.2914 53.8874 72.4564 55.0534 73.8814 55.0534H76.4714H78.3624H80.2524C81.6774 55.0534 82.8434 53.8874 82.8434 52.4624C82.8434 51.0384 81.6774 49.8724 80.2524 49.8724ZM95.354 52.4627C95.354 51.0377 94.188 49.8727 92.764 49.8727H91.392H90.874H90.201C88.776 49.8727 87.611 51.0377 87.611 52.4627C87.611 53.8877 88.776 55.0527 90.201 55.0527H90.874H91.392H92.764C94.188 55.0527 95.354 53.8877 95.354 52.4627Z" fill="#A0B2DC"/>
<path fill-rule="evenodd" clip-rule="evenodd" d="M101.061 46.056C101.061 54.087 94.55 60.598 86.519 60.598H69.94C61.908 60.598 55.397 54.087 55.397 46.056V39.321C55.397 36.44 57.733 34.104 60.614 34.104H77.711C78.263 34.104 78.711 33.656 78.711 33.104C78.711 32.552 78.263 32.104 77.711 32.104H60.614C56.628 32.104 53.397 35.335 53.397 39.321V46.056C53.397 55.192 60.804 62.598 69.939 62.598H86.519C88.665 62.598 90.716 62.187 92.599 61.44C93.469 61.094 94.417 61.698 94.417 62.635C94.417 70.666 87.907 77.177 79.875 77.177H57.188C56.636 77.177 56.188 77.624 56.188 78.177C56.188 78.729 56.636 79.177 57.188 79.177H72.511C73.143 79.177 73.34 80.042 72.767 80.306C71.94 80.686 71.098 81.04 70.239 81.365C65.613 83.113 60.737 84 55.745 84C49.497 84 43.573 82.591 38.268 80.079C37.812 79.864 37.963 79.177 38.468 79.177H42.481C43.033 79.177 43.481 78.729 43.481 78.177C43.481 77.624 43.033 77.177 42.481 77.177H30.658C24.394 77.177 19.054 73.193 17.016 67.627C16.286 65.634 17.773 63.519 19.896 63.519H21.123C21.675 63.519 22.123 63.072 22.123 62.519C22.123 61.967 21.675 61.519 21.123 61.519H11.362C6.192 61.519 2 57.328 2 52.158V44.905C2 43.232 2.447 41.591 3.29 40.159C4.111 38.767 5.283 37.604 6.681 36.796C8.097 35.976 9.716 35.543 11.362 35.543H21.123C21.675 35.543 22.123 35.095 22.123 34.543C22.123 33.991 21.675 33.543 21.123 33.543H17.072C16.543 33.543 16.115 33.115 16.115 32.586C16.115 24.554 22.626 18.043 30.658 18.043H79.875C86.864 18.043 92.704 23.002 94.089 29.585C94.363 30.884 93.348 32.104 92.019 32.104H90.019C89.467 32.104 89.019 32.552 89.019 33.104C89.019 33.656 89.467 34.104 90.019 34.104H95.844C98.726 34.104 101.061 36.44 101.061 39.321V46.056ZM97.869 12.595C95.569 14.894 93.574 17.414 91.878 20.098C91.886 20.111 91.123 20.269 90.932 20.316C87.998 17.67 84.128 16.043 79.875 16.043H30.658C29.246 16.043 27.878 16.226 26.571 16.565C25.73 16.784 25.142 15.746 25.734 15.11C33.224 7.053 43.902 2 55.745 2C63.603 2 71.236 4.228 77.822 8.445C78.287 8.743 78.905 8.607 79.203 8.142C79.301 7.989 79.336 7.819 79.344 7.649C79.359 7.304 79.211 6.96 78.9 6.761C71.992 2.338 63.985 0 55.745 0C40.005 0 26.221 8.505 18.728 21.156C15.976 24.027 14.253 27.881 14.138 32.135C14.017 32.6 13.912 33.072 13.805 33.543H11.362C9.364 33.543 7.399 34.069 5.68 35.064C3.984 36.045 2.562 37.455 1.568 39.143C0.542 40.883 0 42.875 0 44.905V52.158C0 58.432 5.087 63.519 11.362 63.519H14.16C14.624 72.228 21.835 79.177 30.658 79.177H32.546C39.245 83.487 47.205 86 55.745 86C60.979 86 66.094 85.07 70.946 83.236C73.79 82.16 76.471 80.789 78.968 79.177H79.875C86.394 79.177 92.027 75.377 94.721 69.886C95.701 71.105 96.747 72.283 97.869 73.406C106.006 81.542 116.869 86.003 128.228 86.003C129.778 86.003 131.337 85.92 132.9 85.752C133.449 85.693 133.846 85.2 133.787 84.651C133.786 84.643 133.782 84.638 133.781 84.63C133.71 84.093 133.224 83.706 132.686 83.764C120.273 85.098 108.1 80.807 99.283 71.992C98.558 71.266 97.866 70.517 97.205 69.748C96.266 68.656 95.836 67.185 96.113 65.772C96.311 64.756 96.417 63.708 96.417 62.635V61.568C96.417 60.245 96.92 58.952 97.881 58.043C101.065 55.029 103.061 50.776 103.061 46.056V39.321C103.061 36.512 101.448 34.076 99.1 32.884C98.025 32.339 97.165 31.447 96.809 30.296C96.338 28.772 95.783 27.276 95.144 25.814C93.929 23.032 94.313 19.815 96.208 17.444C97.723 15.55 99.418 13.771 101.289 12.13C115.397 -0.245 136.458 -1.413 151.794 9.405C166.502 19.78 172.55 38.034 167.561 54.759C167.406 55.279 167.698 55.823 168.212 55.991C168.22 55.994 168.226 56 168.234 56.003C168.76 56.159 169.319 55.859 169.478 55.33C174.004 40.157 169.867 23.781 158.681 12.595C141.915 -4.171 114.635 -4.171 97.869 12.595ZM157.266 71.9915C153.098 76.1595 148.209 79.3165 142.738 81.3745C142.225 81.5675 141.967 82.1365 142.152 82.6505C142.154 82.6545 142.153 82.6585 142.154 82.6625C142.305 83.0635 142.686 83.3115 143.09 83.3115C143.207 83.3115 143.328 83.2905 143.443 83.2465C149.183 81.0875 154.309 77.7765 158.68 73.4055C159.071 73.0145 159.071 72.3825 158.68 71.9915C158.674 71.9855 158.666 71.9835 158.66 71.9775C158.267 71.6055 157.65 71.6075 157.266 71.9915Z" fill="#202225"/>
<path fill-rule="evenodd" clip-rule="evenodd" d="M127.868 54.9827C125.097 54.9827 122.892 57.0617 122.892 59.9587C122.892 63.9467 127.462 66.7607 131.709 63.5177C131.832 63.4237 131.939 63.2957 132.009 63.1587C134.281 58.7207 131.584 54.9827 127.868 54.9827ZM128.498 21.0662C124.389 21.0662 120.056 22.7552 116.508 26.9842C116.163 27.3972 116.23 28.0192 116.642 28.3662L120.803 31.8802C121.206 32.2212 121.809 32.1852 122.163 31.7932C123.529 30.2792 125.226 29.5442 126.923 29.3792C136.244 28.5612 135.929 41.4072 127.113 41.4072C126.632 41.4072 125.636 41.4072 124.407 41.2122C123.79 41.1132 123.241 41.6172 123.273 42.2412L123.727 51.0842C123.753 51.6102 124.188 52.0232 124.715 52.0232H130.519C131.019 52.0232 131.44 51.6502 131.501 51.1532L131.935 47.6132C131.988 47.1812 132.323 46.8462 132.75 46.7642C148.619 43.7462 145.375 21.0662 128.498 21.0662ZM42.2666 48.1092H42.6956C45.0526 48.1092 46.9806 46.1802 46.9806 43.8232V43.3952C46.9806 41.0382 45.0526 39.1092 42.6956 39.1092H42.2666C39.9096 39.1092 37.9806 41.0382 37.9806 43.3952V43.8232C37.9806 46.1802 39.9096 48.1092 42.2666 48.1092Z" fill="#202225"/>
</g>
<defs>
<clipPath id="clip0">
<rect width="171" height="86" fill="white"/>
</clipPath>
</defs>
</svg>
