<svg width="240" height="130" viewBox="0 0 240 130" fill="none" xmlns="http://www.w3.org/2000/svg">
<g clip-path="url(#clip0)">
<path fill-rule="evenodd" clip-rule="evenodd" d="M148.108 122.77C148.55 122.77 148.908 123.128 148.908 123.57C148.908 124.011 148.55 124.37 148.108 124.37H144.908C144.467 124.37 144.108 124.011 144.108 123.57C144.108 123.128 144.467 122.77 144.908 122.77H148.108ZM155.308 122.77H152.108C151.667 122.77 151.308 123.128 151.308 123.57C151.308 124.011 151.667 124.37 152.108 124.37H155.308C155.75 124.37 156.108 124.011 156.108 123.57C156.108 123.128 155.75 122.77 155.308 122.77ZM140.908 122.77H137.708C137.267 122.77 136.908 123.128 136.908 123.57C136.908 124.011 137.267 124.37 137.708 124.37H140.908C141.35 124.37 141.708 124.011 141.708 123.57C141.708 123.128 141.35 122.77 140.908 122.77ZM133.708 122.77H130.508C130.067 122.77 129.708 123.128 129.708 123.57C129.708 124.011 130.067 124.37 130.508 124.37H133.708C134.15 124.37 134.508 124.011 134.508 123.57C134.508 123.128 134.15 122.77 133.708 122.77ZM190.395 107.457C189.954 107.457 189.595 107.815 189.595 108.257V111.457C189.595 111.898 189.954 112.257 190.395 112.257C190.837 112.257 191.195 111.898 191.195 111.457V108.257C191.195 107.815 190.837 107.457 190.395 107.457ZM184.108 122.77H180.908C180.467 122.77 180.108 123.128 180.108 123.57C180.108 124.011 180.467 124.37 180.908 124.37H184.108C184.55 124.37 184.908 124.011 184.908 123.57C184.908 123.128 184.55 122.77 184.108 122.77ZM190.395 121.857C189.954 121.857 189.595 122.215 189.595 122.657V122.769H188.108C187.667 122.769 187.308 123.128 187.308 123.569C187.308 124.011 187.667 124.369 188.108 124.369H190.395C190.837 124.369 191.195 124.011 191.195 123.569V122.657C191.195 122.215 190.837 121.857 190.395 121.857ZM190.395 114.657C189.954 114.657 189.595 115.015 189.595 115.457V118.657C189.595 119.098 189.954 119.457 190.395 119.457C190.837 119.457 191.195 119.098 191.195 118.657V115.457C191.195 115.015 190.837 114.657 190.395 114.657ZM162.508 122.77H159.308C158.867 122.77 158.508 123.128 158.508 123.57C158.508 124.011 158.867 124.37 159.308 124.37H162.508C162.95 124.37 163.308 124.011 163.308 123.57C163.308 123.128 162.95 122.77 162.508 122.77ZM169.708 122.77H166.508C166.067 122.77 165.708 123.128 165.708 123.57C165.708 124.011 166.067 124.37 166.508 124.37H169.708C170.15 124.37 170.508 124.011 170.508 123.57C170.508 123.128 170.15 122.77 169.708 122.77ZM176.908 122.77H173.708C173.267 122.77 172.908 123.128 172.908 123.57C172.908 124.011 173.267 124.37 173.708 124.37H176.908C177.35 124.37 177.708 124.011 177.708 123.57C177.708 123.128 177.35 122.77 176.908 122.77Z" fill="#202225"/>
<path fill-rule="evenodd" clip-rule="evenodd" d="M121.862 124.701C121.237 124.076 121.237 123.064 121.862 122.439L123.559 120.741C124.184 120.116 124.184 119.104 123.559 118.479L122.428 117.348C121.803 116.723 120.79 116.723 120.165 117.348L118.468 119.044C117.843 119.669 116.83 119.669 116.205 119.044L114.509 117.348C113.883 116.723 112.87 116.723 112.245 117.348L111.114 118.479C110.489 119.104 110.489 120.116 111.114 120.741L112.811 122.439C113.436 123.064 113.436 124.076 112.811 124.701L111.114 126.399C110.489 127.023 110.489 128.036 111.114 128.661L112.245 129.792C112.87 130.417 113.883 130.417 114.509 129.792L116.205 128.096C116.83 127.47 117.843 127.47 118.468 128.096L120.165 129.792C120.79 130.417 121.803 130.417 122.428 129.792L123.559 128.661C124.184 128.036 124.184 127.023 123.559 126.399L121.862 124.701Z" fill="#F04747"/>
<path fill-rule="evenodd" clip-rule="evenodd" d="M86.5649 122.77H89.7649C90.2065 122.77 90.5649 123.128 90.5649 123.57C90.5649 124.011 90.2065 124.37 89.7649 124.37H86.5649C86.1233 124.37 85.7649 124.011 85.7649 123.57C85.7649 123.128 86.1233 122.77 86.5649 122.77ZM79.3649 122.77H82.5649C83.0065 122.77 83.3649 123.128 83.3649 123.57C83.3649 124.011 83.0065 124.37 82.5649 124.37H79.3649C78.9233 124.37 78.5649 124.011 78.5649 123.57C78.5649 123.128 78.9233 122.77 79.3649 122.77ZM93.7649 122.77H96.9649C97.4065 122.77 97.7649 123.128 97.7649 123.57C97.7649 124.011 97.4065 124.37 96.9649 124.37H93.7649C93.3233 124.37 92.9649 124.011 92.9649 123.57C92.9649 123.128 93.3233 122.77 93.7649 122.77ZM100.965 122.77H104.165C104.607 122.77 104.965 123.128 104.965 123.57C104.965 124.011 104.607 124.37 104.165 124.37H100.965C100.523 124.37 100.165 124.011 100.165 123.57C100.165 123.128 100.523 122.77 100.965 122.77ZM44.2778 107.457C44.7194 107.457 45.0778 107.815 45.0778 108.257V111.457C45.0778 111.898 44.7194 112.257 44.2778 112.257C43.8362 112.257 43.4778 111.898 43.4778 111.457V108.257C43.4778 107.815 43.8362 107.457 44.2778 107.457ZM50.5649 122.77H53.7649C54.2065 122.77 54.5649 123.128 54.5649 123.57C54.5649 124.011 54.2065 124.37 53.7649 124.37H50.5649C50.1233 124.37 49.7649 124.011 49.7649 123.57C49.7649 123.128 50.1233 122.77 50.5649 122.77ZM44.2778 121.857C44.7194 121.857 45.0778 122.215 45.0778 122.657V122.769H46.565C47.0066 122.769 47.365 123.128 47.365 123.569C47.365 124.011 47.0066 124.369 46.565 124.369H44.2778C43.8362 124.369 43.4778 124.011 43.4778 123.569V122.657C43.4778 122.215 43.8362 121.857 44.2778 121.857ZM44.2778 114.657C44.7194 114.657 45.0778 115.015 45.0778 115.457V118.657C45.0778 119.098 44.7194 119.457 44.2778 119.457C43.8362 119.457 43.4778 119.098 43.4778 118.657V115.457C43.4778 115.015 43.8362 114.657 44.2778 114.657ZM72.1649 122.77H75.3649C75.8065 122.77 76.1649 123.128 76.1649 123.57C76.1649 124.011 75.8065 124.37 75.3649 124.37H72.1649C71.7233 124.37 71.3649 124.011 71.3649 123.57C71.3649 123.128 71.7233 122.77 72.1649 122.77ZM64.9649 122.77H68.1649C68.6065 122.77 68.9649 123.128 68.9649 123.57C68.9649 124.011 68.6065 124.37 68.1649 124.37H64.9649C64.5233 124.37 64.1649 124.011 64.1649 123.57C64.1649 123.128 64.5233 122.77 64.9649 122.77ZM57.7649 122.77H60.9649C61.4065 122.77 61.7649 123.128 61.7649 123.57C61.7649 124.011 61.4065 124.37 60.9649 124.37H57.7649C57.3233 124.37 56.9649 124.011 56.9649 123.57C56.9649 123.128 57.3233 122.77 57.7649 122.77Z" fill="#202225"/>
<path fill-rule="evenodd" clip-rule="evenodd" d="M216.732 33.1278L221.407 36.1286V24.387C221.407 22.6198 219.974 21.187 218.206 21.187H211.807C210.039 21.187 208.607 22.6198 208.607 24.387V27.9118L211.261 29.615C211.632 29.8542 211.74 30.3486 211.502 30.7206L215.627 33.3686C215.866 32.9966 216.361 32.8894 216.732 33.1278Z" fill="#F3705A"/>
<path fill-rule="evenodd" clip-rule="evenodd" d="M190.42 18.1379L153.834 41.6243V47.7235L189.988 24.5139C190.251 24.3443 190.589 24.3443 190.852 24.5139L227.006 47.7235V41.6243L215.868 34.4739C215.496 34.2355 215.388 33.7403 215.627 33.3691L211.502 30.7203C211.262 31.0923 210.768 31.2003 210.397 30.9611L190.42 18.1379Z" fill="#F3705A"/>
<path fill-rule="evenodd" clip-rule="evenodd" d="M161.62 83.7203C161.62 83.2787 161.978 82.9203 162.42 82.9203V79.5867C160.655 79.5867 159.22 78.1515 159.22 76.3867C159.22 74.9011 160.244 73.6587 161.62 73.3011V59.5867C161.62 59.1451 161.978 58.7867 162.42 58.7867H181.62C182.062 58.7867 182.42 59.1451 182.42 59.5867V95.5867H227.006V87.5867V49.6243L190.42 26.1379L153.834 49.6243V87.5867V95.5867H161.62V83.7203Z" fill="#F1D48A"/>
<path fill-rule="evenodd" clip-rule="evenodd" d="M204.82 79.5872H217.62V70.7872H204.82V79.5872Z" fill="#8AD7F8"/>
<path fill-rule="evenodd" clip-rule="evenodd" d="M190.42 79.5872H203.22V70.7872H190.42V79.5872Z" fill="#8AD7F8"/>
<path fill-rule="evenodd" clip-rule="evenodd" d="M204.82 69.1873H217.62V60.3873H204.82V69.1873Z" fill="#8AD7F8"/>
<path fill-rule="evenodd" clip-rule="evenodd" d="M190.42 69.1873H203.22V60.3873H190.42V69.1873Z" fill="#8AD7F8"/>
<path fill-rule="evenodd" clip-rule="evenodd" d="M162.42 82.9203C162.862 82.9203 163.22 83.2787 163.22 83.7203V95.5867H180.82V60.3867H163.22V73.3011C164.596 73.6587 165.62 74.9011 165.62 76.3867C165.62 78.1515 164.185 79.5867 162.42 79.5867V82.9203Z" fill="#415A6B"/>
<path fill-rule="evenodd" clip-rule="evenodd" d="M164.02 76.3871C164.02 75.5047 163.302 74.7871 162.42 74.7871C161.538 74.7871 160.82 75.5047 160.82 76.3871C160.82 77.2695 161.538 77.9871 162.42 77.9871C163.302 77.9871 164.02 77.2695 164.02 76.3871Z" fill="#72767D"/>
<path fill-rule="evenodd" clip-rule="evenodd" d="M71.1117 33.1278L75.7861 36.1286V21.187H62.9861V27.9118L65.6405 29.615C66.0117 29.8542 66.1197 30.3486 65.8813 30.7206L70.0069 33.3686C70.2453 32.9966 70.7405 32.8894 71.1117 33.1278Z" fill="#E49542"/>
<path fill-rule="evenodd" clip-rule="evenodd" d="M41.3426 20.3574L8.21301 41.6238V47.7238L44.3674 24.5142C44.6306 24.3446 44.9682 24.3446 45.2314 24.5142L81.3866 47.7238V41.6238L70.2474 34.4742C69.8762 34.235 69.7682 33.7406 70.0066 33.3686L65.881 30.7206C65.6426 31.0918 65.1474 31.2006 64.7762 30.9614L48.257 20.3574C46.1506 19.0054 43.449 19.0054 41.3426 20.3574Z" fill="#E49542"/>
<path fill-rule="evenodd" clip-rule="evenodd" d="M14.613 51.4539C14.613 51.0123 14.9714 50.6539 15.413 50.6539H26.6129C27.0545 50.6539 27.413 51.0123 27.413 51.4539V62.6539C27.413 63.0955 27.0545 63.4539 26.6129 63.4539H15.413C14.9714 63.4539 14.613 63.0955 14.613 62.6539V51.4539ZM62.9866 63.4539C62.545 63.4539 62.1866 63.0955 62.1866 62.6539V51.4539C62.1866 51.0123 62.545 50.6539 62.9866 50.6539H74.1866C74.6282 50.6539 74.9865 51.0123 74.9865 51.4539V62.6539C74.9865 63.0955 74.6282 63.4539 74.1866 63.4539H62.9866ZM26.3994 77.1875C26.3994 67.0411 34.6538 58.7875 44.7994 58.7875C54.9458 58.7875 63.1994 67.0411 63.1994 77.1875V95.5875H81.3866V87.5875V49.6243L44.7994 26.1379L8.21295 49.6243V87.5875V95.5875H26.3994V77.1875Z" fill="#A9BFE1"/>
<path fill-rule="evenodd" clip-rule="evenodd" d="M61.5997 77.1871C61.5997 68.1935 54.4909 60.8495 45.5997 60.4279V95.5871H61.5997V77.1871ZM43.9997 60.4277C35.1085 60.8493 27.9997 68.1941 27.9997 77.1869V95.5869H43.9997V60.4277Z" fill="#D0AE85"/>
<path fill-rule="evenodd" clip-rule="evenodd" d="M16.2128 61.8542H25.8128V57.8542H16.2128V61.8542Z" fill="#58A4C5"/>
<path fill-rule="evenodd" clip-rule="evenodd" d="M16.2128 56.2543H25.8128V52.2543H16.2128V56.2543Z" fill="#8AD7F8"/>
<path fill-rule="evenodd" clip-rule="evenodd" d="M63.7858 61.8542H73.3858V57.8542H63.7858V61.8542Z" fill="#58A4C5"/>
<path fill-rule="evenodd" clip-rule="evenodd" d="M63.7858 56.2543H73.3858V52.2543H63.7858V56.2543Z" fill="#8AD7F8"/>
<path fill-rule="evenodd" clip-rule="evenodd" d="M89.6692 34.0672H90.0772C90.5188 34.0672 90.8772 34.4256 90.8772 34.8672V35.2752C90.8772 35.7176 91.2356 36.0752 91.6772 36.0752C92.1188 36.0752 92.4772 35.7176 92.4772 35.2752V34.8672C92.4772 34.4256 92.8356 34.0672 93.2772 34.0672H93.6852C94.1268 34.0672 94.4852 33.7088 94.4852 33.2672C94.4852 32.8256 94.1268 32.4672 93.6852 32.4672H93.2772C92.8356 32.4672 92.4772 32.1096 92.4772 31.6672V31.2592C92.4772 30.8176 92.1188 30.4592 91.6772 30.4592C91.2356 30.4592 90.8772 30.8176 90.8772 31.2592V31.6672C90.8772 32.1096 90.5188 32.4672 90.0772 32.4672H89.6692C89.2276 32.4672 88.8692 32.8256 88.8692 33.2672C88.8692 33.7088 89.2276 34.0672 89.6692 34.0672ZM230.404 27.9953C231.071 27.9953 231.612 28.5361 231.612 29.2033C231.612 29.6449 231.97 30.0033 232.412 30.0033C232.854 30.0033 233.212 29.6449 233.212 29.2033C233.212 28.5361 233.753 27.9953 234.42 27.9953C234.862 27.9953 235.22 27.6369 235.22 27.1953C235.22 26.7537 234.862 26.3953 234.42 26.3953C233.753 26.3953 233.212 25.8545 233.212 25.1873C233.212 24.7457 232.854 24.3873 232.412 24.3873C231.97 24.3873 231.612 24.7457 231.612 25.1873C231.612 25.8545 231.071 26.3953 230.404 26.3953C229.962 26.3953 229.604 26.7537 229.604 27.1953C229.604 27.6369 229.962 27.9953 230.404 27.9953ZM109.632 63.4539C109.837 63.4539 110.042 63.3755 110.198 63.2195L111.144 62.2731C111.457 61.9603 111.457 61.4539 111.144 61.1419C110.832 60.8291 110.326 60.8291 110.013 61.1419L109.067 62.0883C108.754 62.4011 108.754 62.9067 109.067 63.2195C109.223 63.3755 109.428 63.4539 109.632 63.4539ZM104.899 68.1871C105.104 68.1871 105.309 68.1087 105.465 67.9527L106.412 67.0063C106.724 66.6943 106.724 66.1871 106.412 65.8751C106.099 65.5623 105.593 65.5623 105.281 65.8751L104.334 66.8215C104.021 67.1335 104.021 67.6399 104.334 67.9527C104.49 68.1087 104.694 68.1871 104.899 68.1871ZM110.013 67.9527C110.169 68.1087 110.374 68.1871 110.579 68.1871C110.784 68.1871 110.989 68.1087 111.145 67.9527C111.457 67.6399 111.457 67.1343 111.145 66.8215L110.198 65.8751C109.885 65.5623 109.38 65.5623 109.067 65.8751C108.754 66.1871 108.754 66.6935 109.067 67.0063L110.013 67.9527ZM105.28 63.2195C105.436 63.3755 105.641 63.4539 105.846 63.4539C106.051 63.4539 106.256 63.3755 106.412 63.2195C106.724 62.9067 106.724 62.4003 106.412 62.0883L105.464 61.1419C105.152 60.8291 104.645 60.8291 104.333 61.1419C104.021 61.4539 104.021 61.9611 104.333 62.2731L105.28 63.2195ZM218.42 8.6C219.086 8.6 219.628 9.1416 219.628 9.808C219.628 10.4736 219.086 11.016 218.42 11.016C217.754 11.016 217.212 10.4736 217.212 9.808C217.212 9.1416 217.754 8.6 218.42 8.6ZM218.42 12.616C219.968 12.616 221.228 11.356 221.228 9.808C221.228 8.26 219.968 7 218.42 7C216.871 7 215.612 8.26 215.612 9.808C215.612 11.356 216.871 12.616 218.42 12.616ZM192.82 70.7871H200.82C202.146 70.7871 203.22 71.8615 203.22 73.1871V77.1871C203.22 78.5127 202.146 79.5871 200.82 79.5871H192.82C191.494 79.5871 190.42 78.5127 190.42 77.1871V73.1871C190.42 71.8615 191.494 70.7871 192.82 70.7871ZM192.82 60.3871H200.82C202.146 60.3871 203.22 61.4615 203.22 62.7871V66.7871C203.22 68.1127 202.146 69.1871 200.82 69.1871H192.82C191.494 69.1871 190.42 68.1127 190.42 66.7871V62.7871C190.42 61.4615 191.494 60.3871 192.82 60.3871ZM207.22 70.7871H215.22C216.546 70.7871 217.62 71.8615 217.62 73.1871V77.1871C217.62 78.5127 216.546 79.5871 215.22 79.5871H207.22C205.894 79.5871 204.82 78.5127 204.82 77.1871V73.1871C204.82 71.8615 205.894 70.7871 207.22 70.7871ZM207.22 60.3871H215.22C216.546 60.3871 217.62 61.4615 217.62 62.7871V66.7871C217.62 68.1127 216.546 69.1871 215.22 69.1871H207.22C205.894 69.1871 204.82 68.1127 204.82 66.7871V62.7871C204.82 61.4615 205.894 60.3871 207.22 60.3871ZM188.82 61.1871V78.7871C188.82 80.1127 189.894 81.1871 191.22 81.1871H216.82C218.146 81.1871 219.22 80.1127 219.22 78.7871V61.1871C219.22 59.8615 218.146 58.7871 216.82 58.7871H191.22C189.894 58.7871 188.82 59.8615 188.82 61.1871Z" fill="#202225"/>
<path fill-rule="evenodd" clip-rule="evenodd" d="M227.007 41.6243C227.007 44.2595 224.091 45.8523 221.874 44.4283L190.852 24.5139C190.589 24.3443 190.251 24.3443 189.988 24.5139L158.966 44.4283C156.748 45.8523 153.833 44.2595 153.833 41.6243L190.42 18.1379L210.396 30.9611C210.768 31.2003 211.263 31.0923 211.502 30.7203C211.74 30.3491 211.632 29.8539 211.26 29.6155L209.71 28.6203C209.023 28.1787 208.607 27.4179 208.607 26.6003V24.3875C208.607 22.6203 210.039 21.1875 211.807 21.1875H218.207C219.974 21.1875 221.407 22.6203 221.407 24.3875V31.7363C221.407 33.6347 219.307 34.7811 217.71 33.7563L216.732 33.1275C216.361 32.8891 215.866 32.9971 215.627 33.3691C215.388 33.7411 215.496 34.2355 215.868 34.4739L227.007 41.6243ZM164.02 76.3875C164.02 77.2699 163.303 77.9875 162.42 77.9875C161.538 77.9875 160.82 77.2699 160.82 76.3875C160.82 75.5051 161.538 74.7875 162.42 74.7875C163.303 74.7875 164.02 75.5051 164.02 76.3875ZM227.007 87.5875V92.3875C227.007 94.1547 225.574 95.5875 223.807 95.5875H183.22C182.778 95.5875 182.42 95.2291 182.42 94.7875V59.5875C182.42 59.1451 182.062 58.7875 181.62 58.7875H162.42C161.978 58.7875 161.62 59.1451 161.62 59.5875V73.3011C159.747 73.7883 158.527 75.9131 159.652 78.0635C160.156 79.0251 161.198 79.5875 162.283 79.5875C163.764 79.5875 165.155 78.6483 165.516 77.2123C165.978 75.3779 164.844 73.7235 163.22 73.3011V61.1875C163.22 60.7451 163.578 60.3875 164.02 60.3875H180.02C180.462 60.3875 180.82 60.7451 180.82 61.1875V94.7875C180.82 95.2291 180.462 95.5875 180.02 95.5875H164.02C163.578 95.5875 163.22 95.2291 163.22 94.7875V82.1195C163.22 81.6771 162.862 81.3195 162.42 81.3195C161.978 81.3195 161.62 81.6771 161.62 82.1195V94.7875C161.62 95.2291 161.262 95.5875 160.82 95.5875H157.033C155.266 95.5875 153.833 94.1547 153.833 92.3875V87.5875V53.8483C153.833 52.2139 154.665 50.6915 156.04 49.8091L187.827 29.4043C189.407 28.3899 191.433 28.3899 193.013 29.4043L224.799 49.8091C226.175 50.6915 227.007 52.2139 227.007 53.8483V87.5875ZM234.42 95.5875H233.407C230.756 95.5875 228.607 93.4387 228.607 90.7875V88.3875V49.1875V41.1883C228.607 40.9155 228.468 40.6611 228.239 40.5139L224.036 37.8163C223.395 37.4051 223.007 36.6947 223.007 35.9323V22.7875C223.007 21.0203 221.574 19.5875 219.807 19.5875H210.207C208.439 19.5875 207.007 21.0203 207.007 22.7875C207.007 24.5579 205.048 25.6275 203.559 24.6715L190.852 16.5139C190.589 16.3443 190.251 16.3443 189.988 16.5139L152.601 40.5139C152.372 40.6611 152.233 40.9147 152.233 41.1875V49.1875V88.3875V90.7875C152.233 93.4387 150.084 95.5875 147.433 95.5875H141.62C141.178 95.5875 140.82 95.9451 140.82 96.3875C140.82 96.8291 141.178 97.1875 141.62 97.1875H234.42C234.862 97.1875 235.22 96.8291 235.22 96.3875C235.22 95.9451 234.862 95.5875 234.42 95.5875ZM16.2126 56.2539H25.8126V52.2539H16.2126V56.2539ZM16.2126 61.8539H25.8126V57.8539H16.2126V61.8539ZM26.6126 50.6539H15.4126C14.971 50.6539 14.6126 51.0123 14.6126 51.4539V62.6539C14.6126 63.0955 14.971 63.4539 15.4126 63.4539H26.6126C27.055 63.4539 27.4126 63.0955 27.4126 62.6539V51.4539C27.4126 51.0123 27.055 50.6539 26.6126 50.6539ZM63.7862 61.8539H73.3862V57.8539H63.7862V61.8539ZM63.7862 56.2539H73.3862V52.2539H63.7862V56.2539ZM62.9862 63.4539H74.1862C74.6278 63.4539 74.9862 63.0955 74.9862 62.6539V51.4539C74.9862 51.0123 74.6278 50.6539 74.1862 50.6539H62.9862C62.5446 50.6539 62.1862 51.0123 62.1862 51.4539V62.6539C62.1862 63.0955 62.5446 63.4539 62.9862 63.4539Z" fill="#202225"/>
<path fill-rule="evenodd" clip-rule="evenodd" d="M81.3864 43.0265C81.3864 45.0561 79.1416 46.2825 77.4344 45.1857L45.232 24.5137C44.9688 24.3441 44.6312 24.3441 44.368 24.5137L12.1656 45.1857C10.4576 46.2825 8.2128 45.0561 8.2128 43.0265C8.2128 42.1529 8.6576 41.3393 9.3928 40.8665L41.3424 20.3577C43.4488 19.0049 46.1504 19.0049 48.2568 20.3577L64.776 30.9609C65.1472 31.2001 65.6424 31.0921 65.8816 30.7209V30.7201C66.12 30.3489 66.012 29.8537 65.64 29.6153L64.3824 28.8073C63.5128 28.2489 62.9864 27.2865 62.9864 26.2537V22.7873C62.9864 21.9033 63.7032 21.1873 64.5864 21.1873H74.1864C75.0704 21.1873 75.7864 21.9033 75.7864 22.7873V30.5737C75.7864 32.9745 73.132 34.4249 71.112 33.1273C70.74 32.8889 70.2456 32.9961 70.0064 33.3689C69.768 33.7409 69.876 34.2353 70.248 34.4737L80.2064 40.8665C80.9416 41.3393 81.3864 42.1529 81.3864 43.0265ZM81.3864 87.5873V93.1873C81.3864 94.5129 80.312 95.5873 78.9864 95.5873H65.6C64.2744 95.5873 63.2 94.5129 63.2 93.1873V77.6393C63.2 67.6753 55.4672 59.1769 45.5096 58.8009C35.0424 58.4049 26.4 66.8057 26.4 77.1873V93.1873C26.4 94.5129 25.3256 95.5873 24 95.5873H10.6128C9.2872 95.5873 8.2128 94.5129 8.2128 93.1873V87.5873V55.1961C8.2128 51.7241 9.98 48.4905 12.9024 46.6145L44.8 26.1377L76.6976 46.6145C79.62 48.4905 81.3864 51.7241 81.3864 55.1961V87.5873ZM59.2 93.9857H48C46.6744 93.9857 45.6 92.9113 45.6 91.5857V64.2153C45.6 62.0633 47.6848 60.5169 49.7408 61.1497C56.6 63.2617 61.6 69.6441 61.6 77.1873V91.5857C61.6 92.9113 60.5256 93.9857 59.2 93.9857ZM41.6 93.9857H30.4C29.0744 93.9857 28 92.9113 28 91.5857V77.1873C28 69.6441 33 63.2617 39.8584 61.1497C41.9152 60.5169 44 62.0633 44 64.2153V91.5857C44 92.9113 42.9256 93.9857 41.6 93.9857ZM131.195 95.5873H87.7864C85.136 95.5873 82.9864 93.4385 82.9864 90.7873V88.3873V49.1873V42.9361C82.9864 41.5737 82.2936 40.3057 81.1472 39.5697L78.8576 38.1001C77.9408 37.5113 77.3864 36.4969 77.3864 35.4073V20.3873C77.3864 19.9449 77.0288 19.5873 76.5864 19.5873H62.1864C61.7448 19.5873 61.3864 19.9449 61.3864 20.3873V23.9561C61.3864 25.2217 59.9872 25.9865 58.9224 25.3025L45.232 16.5137C44.9688 16.3441 44.6312 16.3441 44.368 16.5137L6.9808 40.5137C6.752 40.6609 6.6128 40.9145 6.6128 41.1873V49.1873V88.3873V90.7873C6.6128 93.4385 4.464 95.5873 1.8128 95.5873H0.8C0.3576 95.5873 0 95.9449 0 96.3873C0 96.8289 0.3576 97.1873 0.8 97.1873H131.195C131.637 97.1873 131.995 96.8289 131.995 96.3873C131.995 95.9449 131.637 95.5873 131.195 95.5873Z" fill="#202225"/>
</g>
<defs>
<clipPath id="clip0">
<rect width="240" height="130" fill="white"/>
</clipPath>
</defs>
</svg>
