<svg width="660" height="188" viewBox="0 0 660 188" fill="none" xmlns="http://www.w3.org/2000/svg">
<g clip-path="url(#clip0)">
<path d="M393 107.3H392.3L369.6 100.7C369.245 100.627 368.933 100.42 368.727 100.122C368.522 99.8234 368.441 99.4572 368.5 99.1C368.562 98.7616 368.732 98.4523 368.985 98.2181C369.237 97.9839 369.558 97.8373 369.9 97.8L377.7 97.3L370.5 96.5C370.161 96.4375 369.852 96.2675 369.618 96.0153C369.384 95.7631 369.237 95.4421 369.2 95.1C369.164 94.7462 369.255 94.3911 369.456 94.098C369.658 93.805 369.957 93.593 370.3 93.5L374.6 92.4L370.7 92.8C370.343 92.8591 369.977 92.7776 369.678 92.5725C369.38 92.3674 369.173 92.0547 369.1 91.7C369.011 91.3791 369.032 91.038 369.159 90.7302C369.286 90.4224 369.511 90.1656 369.8 90H369.9C369.611 90.0437 369.315 89.9885 369.061 89.8433C368.807 89.6981 368.609 89.4715 368.5 89.2C368.308 88.893 368.242 88.5237 368.317 88.1694C368.392 87.8151 368.6 87.5035 368.9 87.3L370.7 86L369.2 86.8C368.893 86.9421 368.547 86.9762 368.218 86.897C367.889 86.8177 367.597 86.6296 367.389 86.3632C367.18 86.0969 367.068 85.7679 367.07 85.4296C367.072 85.0914 367.188 84.7638 367.4 84.5L368.9 82.8L367.6 83.9C367.294 84.1498 366.902 84.269 366.509 84.2315C366.116 84.1941 365.753 84.0031 365.5 83.7C365.357 83.5617 365.245 83.3945 365.172 83.2095C365.099 83.0245 365.066 82.8261 365.075 82.6274C365.085 82.4287 365.136 82.2343 365.227 82.0571C365.317 81.88 365.444 81.7241 365.6 81.6L383.8 66.3C384.099 66.0937 384.462 66.0029 384.823 66.0444C385.184 66.0858 385.518 66.2568 385.762 66.5255C386.006 66.7943 386.145 67.1425 386.152 67.5056C386.159 67.8687 386.034 68.2221 385.8 68.5L375.5 79.7L387.8 72.9C388.142 72.7528 388.523 72.7219 388.884 72.8123C389.246 72.9026 389.567 73.1091 389.8 73.4C390.004 73.7378 390.076 74.139 390.002 74.5266C389.928 74.9142 389.714 75.2609 389.4 75.5L378.7 83.5L391.5 78.9C391.676 78.8194 391.867 78.7763 392.061 78.7733C392.255 78.7703 392.447 78.8076 392.626 78.8828C392.804 78.958 392.965 79.0695 393.098 79.2102C393.232 79.3508 393.334 79.5176 393.4 79.7C393.542 80.0469 393.548 80.4343 393.419 80.7859C393.289 81.1376 393.033 81.428 392.7 81.6L378.4 88.9L393.9 87.3C394.247 87.3087 394.58 87.4374 394.843 87.6644C395.106 87.8914 395.282 88.2025 395.341 88.5447C395.4 88.8869 395.338 89.2389 395.167 89.5408C394.995 89.8426 394.724 90.0756 394.4 90.2L378.8 94.3L394.4 96.2C394.584 96.2127 394.764 96.2616 394.929 96.3439C395.094 96.4263 395.241 96.5404 395.362 96.6798C395.482 96.8192 395.575 96.9811 395.633 97.1562C395.691 97.3312 395.713 97.5161 395.7 97.7C395.701 98.0811 395.557 98.4482 395.296 98.7268C395.036 99.0054 394.68 99.1746 394.3 99.2L378.7 100.2L393.1 104.4C393.483 104.495 393.814 104.737 394.02 105.074C394.226 105.411 394.29 105.816 394.2 106.2C394.117 106.474 393.961 106.721 393.75 106.914C393.539 107.108 393.28 107.241 393 107.3Z" fill="#E24D3A"/>
<path d="M375.8 105.2C375.163 105.2 374.553 104.947 374.103 104.497C373.653 104.047 373.4 103.437 373.4 102.8C372.7 92.5 378.8 79 394 73.9C394.315 73.795 394.648 73.753 394.979 73.7766C395.311 73.8001 395.634 73.8887 395.931 74.0373C396.228 74.1859 396.493 74.3915 396.711 74.6425C396.929 74.8935 397.095 75.1849 397.2 75.5C397.305 75.8152 397.347 76.148 397.323 76.4794C397.3 76.8107 397.211 77.1343 397.063 77.4314C396.914 77.7285 396.708 77.9935 396.457 78.2112C396.207 78.4289 395.915 78.595 395.6 78.7C381 83.6 377.9 96.4 378.3 102.5C378.343 102.826 378.315 103.158 378.219 103.473C378.123 103.787 377.96 104.078 377.742 104.324C377.524 104.57 377.256 104.767 376.955 104.901C376.655 105.035 376.329 105.103 376 105.1C376 105.2 375.9 105.2 375.8 105.2Z" fill="#5B6775"/>
<path d="M370.8 85.2L374 84.8V80.5L370.8 80.1C370.457 78.4934 369.812 76.9665 368.9 75.6L370.9 73L367.8 70L365.3 72C363.955 71.049 362.42 70.4008 360.8 70.1L360.4 66.9H356.1L355.7 70.1C354.091 70.4362 352.563 71.0815 351.2 72L348.7 70L345.6 73L347.6 75.6C346.679 76.9507 346.064 78.4866 345.8 80.1L342.6 80.5V84.8L345.7 85.2H345.8C346.084 86.7769 346.697 88.2761 347.6 89.6L345.6 92.2L348.7 95.3L351.2 93.3C352.568 94.1879 354.097 94.7994 355.7 95.1L356.1 98.3H360.4L360.8 95.1C362.413 94.8357 363.949 94.2213 365.3 93.3L367.8 95.3L370.9 92.2L368.9 89.7C369.819 88.3371 370.464 86.8088 370.8 85.2ZM358.3 89.5C356.931 89.5199 355.587 89.1321 354.44 88.3861C353.292 87.6401 352.392 86.5695 351.854 85.3106C351.317 84.0516 351.166 82.6612 351.421 81.3162C351.675 79.9713 352.325 78.7325 353.285 77.7575C354.246 76.7824 355.476 76.1153 356.817 75.8408C358.158 75.5664 359.55 75.6971 360.817 76.2162C362.084 76.7354 363.167 77.6196 363.93 78.7564C364.693 79.8932 365.1 81.2311 365.1 82.6C365.1 84.4128 364.387 86.1529 363.115 87.444C361.842 88.7352 360.113 89.4738 358.3 89.5Z" fill="#373E5B"/>
<path d="M109.2 49.7H63.7L77 0H95.9L109.2 49.7Z" fill="#FF9A15"/>
<path d="M94.9999 34.7C94.1628 34.1466 93.2545 33.7093 92.2999 33.4C91.6119 33.1707 91.0302 32.7 90.6625 32.0749C90.2948 31.4498 90.166 30.7127 90.2999 30C90.4 29.3371 90.4 28.6629 90.2999 28C90.0978 27.0313 89.6235 26.1403 88.9327 25.4318C88.2419 24.7232 87.3632 24.2265 86.3999 24C85.6531 23.835 84.8787 23.8401 84.1341 24.015C83.3894 24.1898 82.6937 24.5299 82.0983 25.01C81.503 25.4902 81.0232 26.0981 80.6946 26.7887C80.366 27.4794 80.1969 28.2351 80.1999 29C80.1996 30.1595 80.5867 31.2858 81.2999 32.2C81.7594 32.8021 81.9825 33.5515 81.9273 34.3069C81.872 35.0622 81.5421 35.7712 80.9999 36.3C79.8418 37.5567 78.9866 39.0618 78.4999 40.7C77.9317 42.6342 77.911 44.6881 78.4402 46.6333C78.9693 48.5785 80.0276 50.3389 81.4973 51.7188C82.967 53.0986 84.7905 54.0438 86.7652 54.4494C88.7399 54.8549 90.7884 54.7049 92.683 54.016C94.5775 53.327 96.2439 52.1262 97.4969 50.547C98.7499 48.9677 99.5403 47.0719 99.7804 45.0703C100.02 43.0688 99.7008 41.0398 98.8569 39.2091C98.0129 37.3783 96.6778 35.8174 94.9999 34.7Z" fill="#FFD836"/>
<path d="M503.3 9.39999V70.5H548.6V9.39999H503.3ZM542.808 64.3H508.8V15.7537H542.808V64.3Z" fill="#9099A4"/>
<path d="M508.8 64.4H543.1V15.61L508.8 15.61V64.4Z" fill="#292D33"/>
<path d="M539.7 55L543.4 46.2V33.7L539.7 24.9L543.4 16V15.1H540.8L538.2 21.2L535.7 15.1H532.6L536.7 24.9L532 36.3L527.2 24.9L531.3 15.1H528.2L525.7 21.2L523.2 15.1H520.1L524.2 24.9L519.4 36.3L514.7 24.9L518.8 15.1H515.7L513.2 21.2L510.6 15.1H508.5V17.2L511.7 24.9L508.5 32.5V39.8L513.2 28.5L517.9 39.9L513.2 51.4L508.5 40V47.3L511.7 55L508.5 62.7V64.8H510.6L513.2 58.7L515.7 64.8H518.8L514.7 55L519.4 43.6L524.2 55L520.1 64.8H523.2L525.7 58.7L528.2 64.8H531.3L527.2 55L532 43.6L536.7 55L532.6 64.8H535.7L538.2 58.7L540.8 64.8H543.4V63.9L539.7 55ZM525.7 51.4L521 39.9L525.7 28.5L530.4 39.9L525.7 51.4ZM533.5 39.9L538.2 28.5L543 39.9L538.2 51.4L533.5 39.9Z" fill="#9099A4"/>
<path d="M435.6 9.39999V70.5H503.3V9.39999H435.6ZM497.143 64.3H441.7V15.7881H497.143V64.3Z" fill="#A2A9B3"/>
<path d="M441.6 64.4H497.2V15.61L441.6 15.61V64.4Z" fill="#292D33"/>
<path d="M550.7 31.6C554.732 31.6 558 28.3317 558 24.3C558 20.2683 554.732 17 550.7 17C546.668 17 543.4 20.2683 543.4 24.3C543.4 28.3317 546.668 31.6 550.7 31.6Z" fill="white"/>
<g style="mix-blend-mode:multiply" opacity="0.3">
<g style="mix-blend-mode:multiply" opacity="0.3">
<path d="M562.9 69.4C562.237 69.4 561.601 69.1366 561.132 68.6678C560.663 68.1989 560.4 67.5631 560.4 66.9V61.2C560.404 60.8615 560.478 60.5273 560.615 60.2179C560.753 59.9085 560.952 59.6302 561.2 59.4L586.7 34.4L553.3 21.4C552.992 21.2899 552.71 21.1179 552.471 20.8947C552.231 20.6715 552.041 20.4018 551.909 20.1022C551.778 19.8025 551.71 19.4792 551.708 19.1521C551.707 18.825 551.772 18.501 551.9 18.2C552.126 17.5769 552.589 17.0689 553.189 16.7877C553.79 16.5064 554.477 16.4749 555.1 16.7L592.2 31.1C592.581 31.2781 592.914 31.5426 593.175 31.8725C593.435 32.2023 593.615 32.5884 593.7 33C593.786 33.4113 593.767 33.8377 593.645 34.2397C593.522 34.6417 593.301 35.0064 593 35.3L565.4 62.3V66.9C565.4 67.5631 565.137 68.1989 564.668 68.6678C564.199 69.1366 563.563 69.4 562.9 69.4Z" fill="#5B6775"/>
</g>
</g>
<path d="M273.8 128.7H144.9V179.54H273.8V128.7Z" fill="#373E5B"/>
<path d="M293 18H223.2V84.64H293V18Z" fill="#373E5B"/>
<path d="M258.1 74.3C270.803 74.3 281.1 64.0025 281.1 51.3C281.1 38.5974 270.803 28.3 258.1 28.3C245.397 28.3 235.1 38.5974 235.1 51.3C235.1 64.0025 245.397 74.3 258.1 74.3Z" fill="#7A8EC7"/>
<path d="M274.596 31.252C275.307 30.1977 275.048 28.7789 274.016 28.083C272.985 27.3871 271.572 27.6777 270.861 28.732L240.918 73.1121C240.206 74.1664 240.466 75.5852 241.497 76.2811C242.529 76.977 243.941 76.6864 244.653 75.6321L274.596 31.252Z" fill="#99ABD8"/>
<path d="M284.78 54.4412C286.049 54.4833 287.112 53.5107 287.153 52.2687C287.194 51.0268 286.199 49.9858 284.929 49.9437L231.488 48.1709C230.219 48.1288 229.156 49.1014 229.115 50.3434C229.074 51.5854 230.07 52.6263 231.339 52.6684L284.78 54.4412Z" fill="#99ABD8"/>
<path d="M273.59 72.9624C274.412 73.9312 275.846 74.065 276.794 73.2613C277.741 72.4575 277.844 71.0206 277.022 70.0519L242.438 29.272C241.617 28.3032 240.182 28.1694 239.235 28.9731C238.287 29.7769 238.185 31.2138 239.006 32.1825L273.59 72.9624Z" fill="#99ABD8"/>
<path d="M258.1 64.8C265.556 64.8 271.6 58.7558 271.6 51.3C271.6 43.8441 265.556 37.8 258.1 37.8C250.644 37.8 244.6 43.8441 244.6 51.3C244.6 58.7558 250.644 64.8 258.1 64.8Z" fill="#4F5660"/>
<path d="M260.4 94.2L219.1 88V14.6L260.4 8.39999V94.2Z" fill="#575F82"/>
<path d="M255.4 89L222.6 84.6V18L255.4 13.6V89Z" fill="#46AD65"/>
<path d="M222.6 30.9C236.3 32.2 239.7 48.4 239.7 48.4L255.4 45.2V13.6L222.6 18V30.9Z" fill="#8AD7F8"/>
<path d="M231.1 71.5C226.9 75.7 225.5 85 225.5 85L229.9 85.6L231.1 71.5Z" fill="#788CBA"/>
<path d="M264.3 8.39999H260.4V94.19H264.3V8.39999Z" fill="#7687B2"/>
<path d="M51 49.6H48.5V66.03H51V49.6Z" fill="#7C8794"/>
<path d="M33.7999 48.8H31.2999V66H33.7999V48.8Z" fill="#828C98"/>
<path d="M41.4 54.5C48.414 54.5 54.0999 48.814 54.0999 41.8C54.0999 34.786 48.414 29.1 41.4 29.1C34.3859 29.1 28.7 34.786 28.7 41.8C28.7 48.814 34.3859 54.5 41.4 54.5Z" fill="#C8CFD6"/>
<path d="M51.2999 33.9C50.3494 37.9546 48.0515 41.5668 44.7819 44.1461C41.5123 46.7255 37.4644 48.1194 33.2999 48.1L30.2999 47.9C31.6639 50.3537 33.8025 52.2863 36.3813 53.3957C38.9601 54.5051 41.8338 54.7288 44.5532 54.0318C47.2727 53.3348 49.6845 51.7564 51.4118 49.5433C53.139 47.3303 54.0843 44.6073 54.0999 41.8C54.1203 38.9201 53.1294 36.1243 51.2999 33.9Z" fill="#AAB3BD"/>
<path d="M42.6999 49.6C43.0447 49.6 43.3753 49.737 43.6191 49.9808C43.8629 50.2246 43.9999 50.5552 43.9999 50.9V66H41.3999V50.9C41.3999 50.5552 41.5369 50.2246 41.7807 49.9808C42.0245 49.737 42.3551 49.6 42.6999 49.6Z" fill="#7C8794"/>
<path d="M548.6 70.5H406.2V179.48H548.6V70.5Z" fill="#738BCD"/>
<path d="M542.7 77H412.2V95.44H542.7V77Z" fill="#373E5B"/>
<path d="M542.7 77H412.2V80.31H542.7V77Z" fill="#55689E"/>
<path d="M542.7 142.2H412.2V160.64H542.7V142.2Z" fill="#373E5B"/>
<path d="M542.7 142.2H412.2V145.51H542.7V142.2Z" fill="#55689E"/>
<path d="M542.7 101.5H412.2V137.13H542.7V101.5Z" fill="#373E5B"/>
<path d="M542.7 101.5H412.2V104.81H542.7V101.5Z" fill="#55689E"/>
<path d="M548.6 179.5H615.7V70.52L548.6 70.52V179.5Z" fill="#55689E"/>
<path d="M488.5 87C487.829 86.9928 487.174 87.2033 486.633 87.6C486.092 87.9966 485.695 88.5581 485.5 89.2L470.2 137.9C470.059 138.366 470.029 138.859 470.113 139.338C470.198 139.818 470.394 140.271 470.686 140.66C470.979 141.05 471.358 141.365 471.795 141.58C472.232 141.796 472.713 141.905 473.2 141.9C473.854 141.886 474.486 141.666 475.007 141.27C475.528 140.875 475.91 140.326 476.1 139.7L491.4 91C491.539 90.5421 491.57 90.0582 491.491 89.5863C491.412 89.1143 491.224 88.6671 490.944 88.2797C490.663 87.8923 490.296 87.5751 489.872 87.3531C489.448 87.1311 488.978 87.0102 488.5 87Z" fill="#36393F"/>
<path d="M206.2 107.6H202.6V123.19H206.2V107.6Z" fill="#4F5660"/>
<path d="M180.3 121.2H230.2C230.624 121.2 231.031 121.369 231.331 121.669C231.631 121.969 231.8 122.376 231.8 122.8V128.7H178.8V122.8C178.799 122.392 178.954 122 179.233 121.703C179.511 121.405 179.893 121.225 180.3 121.2Z" fill="#829CB8"/>
<path d="M197.9 121.2H230.2C230.624 121.2 231.031 121.369 231.331 121.669C231.631 121.969 231.8 122.376 231.8 122.8V128.7H196.3V122.8C196.3 122.376 196.468 121.969 196.769 121.669C197.069 121.369 197.476 121.2 197.9 121.2Z" fill="#697E99"/>
<path d="M204.4 109.1C210.586 109.1 215.6 104.086 215.6 97.9C215.6 91.7144 210.586 86.7 204.4 86.7C198.214 86.7 193.2 91.7144 193.2 97.9C193.2 104.086 198.214 109.1 204.4 109.1Z" fill="#E24D3A"/>
<path d="M198.7 107.5C199.942 108.268 201.329 108.771 202.775 108.977C204.22 109.184 205.693 109.089 207.1 108.7C208.529 108.36 209.877 107.74 211.065 106.876C212.253 106.011 213.258 104.919 214.021 103.663C214.783 102.407 215.289 101.013 215.509 99.5599C215.728 98.1071 215.657 96.6252 215.3 95.2C214.727 92.9132 213.472 90.8552 211.7 89.3C212.8 97.9 205 104.8 198.7 107.5Z" fill="#D13C29"/>
<path d="M605.4 106.8H525.6V114.44H605.4V106.8Z" fill="#C7CCD1"/>
<path d="M200.424 93.2467C201.205 92.4656 201.458 91.4526 200.989 90.9839C200.521 90.5153 199.508 90.7686 198.727 91.5496C197.946 92.3307 197.692 93.3437 198.161 93.8124C198.63 94.281 199.643 94.0277 200.424 93.2467Z" fill="white"/>
<path d="M323.6 176.5C325.257 176.5 326.6 175.157 326.6 173.5C326.6 171.843 325.257 170.5 323.6 170.5C321.943 170.5 320.6 171.843 320.6 173.5C320.6 175.157 321.943 176.5 323.6 176.5Z" fill="#55689E"/>
<path d="M316.8 112.8C314.285 108.82 312.716 104.317 312.214 99.6369C311.711 94.9563 312.288 90.2228 313.9 85.8C314.68 83.6683 316.168 81.8691 318.116 80.704C320.064 79.5389 322.353 79.0785 324.6 79.4C331 80.4 337.3 83.8 342.6 94L316.8 112.8Z" fill="#737F8D"/>
<path d="M332.2 105.8C328.8 104.2 325.1 103.1 321.9 105.1L322.1 96.7L330.3 97.2L332.2 105.8Z" fill="#737F8D"/>
<path d="M312.8 89.6C313.173 87.9716 313.815 86.4168 314.7 85C315.3 84 316.3 82.8 317.5 82.8C318.7 82.8 320.1 83.6 321.4 84.9C324.4 87.9 329.1 95.8 332.2 105.8L342.7 94C337.3 83.8 331 80.4 324.6 79.4C322.341 79.0848 320.042 79.5595 318.092 80.7439C316.142 81.9283 314.662 83.7497 313.9 85.9C313.455 87.1088 313.088 88.3446 312.8 89.6Z" fill="#67717C"/>
<path d="M414.5 112.8C417.043 108.832 418.629 104.328 419.132 99.6418C419.636 94.956 419.042 90.2173 417.4 85.8C416.636 83.6572 415.151 81.8467 413.199 80.679C411.247 79.5113 408.949 79.0591 406.7 79.4C400.3 80.4 394.1 83.8 388.7 94L414.5 112.8Z" fill="#737F8D"/>
<path d="M319.6 128.6H305.3C303.4 128.6 301.9 133.5 301.9 139.6C301.9 145.7 303.4 150.6 305.3 150.6H319.6C321.8 150.6 323.6 145.7 323.6 139.6C323.6 133.5 321.8 128.6 319.6 128.6Z" fill="#7A8EC7"/>
<path d="M305.3 150.6H312.4V142.5H302C302.4 147.2 303.7 150.6 305.3 150.6Z" fill="#55689E"/>
<path d="M427.3 139.1C427.2 139.2 427.2 139.2 427.3 139.2C427.4 139.2 427.2 140.5 427.1 141.2C427.083 141.871 427.016 142.539 426.9 143.2C426.8 143.5 426.8 143.9 426.7 144.2C426.681 144.541 426.614 144.878 426.5 145.2C426.3 146.2 426.1 147.2 425.8 148.2C425.5 149.2 425.1 150.1 424.7 151L424 152.8L423.4 153.8C422.977 154.741 422.475 155.644 421.9 156.5H421.8C421.491 157.071 421.123 157.607 420.7 158.1L420.1 158.9L419.6 159.6L418.8 160.5L418.1 161.3L417.4 162.1L416.6 162.8L415.8 163.5C415.582 163.784 415.31 164.022 415 164.2L414.2 164.9L413.3 165.5L412.4 166.2L410.6 167.3H322.6L321.7 166.8L320.8 166.2L320 165.6L319.1 165H319.2C304.5 153.7 301.2 132.1 313.3 117.1C319.866 108.893 327.09 101.234 334.9 94.2C336.1 93.1 337.4 92.1 338.7 91.1H394.5L394.8 91.3L398.3 94.2C406.11 101.234 413.333 108.893 419.9 117.1C421.123 118.612 422.227 120.216 423.2 121.9C423.6 122.8 424.1 123.7 424.4 124.5L425.5 127.1L425.8 128.1L426 128.8C426.938 132.151 427.377 135.621 427.3 139.1Z" fill="#737F8D"/>
<path d="M427.3 139.1C427.2 139.2 427.2 139.2 427.3 139.2C427.4 139.2 427.2 140.5 427.1 141.2C427.083 141.871 427.016 142.539 426.9 143.2C426.8 143.5 426.8 143.9 426.7 144.2C426.681 144.541 426.614 144.878 426.5 145.2C426.3 146.2 426.1 147.2 425.8 148.2C425.5 149.2 425.1 150.1 424.7 151L424 152.8L423.4 153.8C422.977 154.741 422.475 155.644 421.9 156.5H421.8C421.491 157.071 421.123 157.607 420.7 158.1L420.1 158.9L419.6 159.6L418.8 160.5L418.1 161.3L417.4 162.1L416.6 162.8L415.8 163.5C415.582 163.784 415.31 164.022 415 164.2L414.2 164.9L413.3 165.5L412.4 166.2L410.6 167.3H322.6L321.7 166.8L320.8 166.2L320 165.6L319.1 165H377.5C389.4 165 399.9 156.6 401.8 144.8C404.1 130.4 398.2 115.1 382.8 91.1H394.5L394.8 91.3L398.3 94.2C406.11 101.234 413.333 108.893 419.9 117.1C421.123 118.612 422.227 120.216 423.2 121.9C423.6 122.8 424.1 123.7 424.4 124.5L425.5 127.1L425.8 128.1L426 128.8C426.938 132.151 427.377 135.621 427.3 139.1Z" fill="#67717C"/>
<path d="M351.8 145.5L355.7 150.3C355.878 150.511 356.1 150.68 356.351 150.796C356.601 150.912 356.874 150.972 357.15 150.972C357.426 150.972 357.699 150.912 357.949 150.796C358.2 150.68 358.422 150.511 358.6 150.3L362.4 145.5C362.635 145.237 362.788 144.911 362.84 144.563C362.891 144.214 362.839 143.857 362.69 143.538C362.541 143.218 362.302 142.95 362.001 142.765C361.7 142.581 361.352 142.488 361 142.5H353.3C352.955 142.509 352.62 142.611 352.329 142.796C352.038 142.981 351.803 143.241 351.649 143.55C351.495 143.858 351.428 144.202 351.454 144.546C351.481 144.889 351.6 145.219 351.8 145.5Z" fill="#747F8D"/>
<path d="M373.994 126.118L370.029 133.637C369.231 135.152 369.811 137.027 371.326 137.825L371.405 137.867C372.92 138.666 374.795 138.085 375.593 136.571L379.558 129.052C380.356 127.537 379.776 125.662 378.261 124.864L378.182 124.822C376.667 124.023 374.792 124.604 373.994 126.118Z" fill="#4F5660"/>
<path d="M335.435 128.456L339.068 136.14C339.8 137.688 341.648 138.35 343.195 137.618L343.277 137.58C344.825 136.848 345.486 135 344.755 133.452L341.122 125.768C340.39 124.22 338.543 123.558 336.995 124.29L336.913 124.328C335.365 125.06 334.704 126.908 335.435 128.456Z" fill="#4F545C"/>
<path d="M337.106 127.777L340.695 135.371C341.002 136.02 341.777 136.298 342.426 135.991L342.471 135.97C343.121 135.663 343.398 134.888 343.091 134.239L339.501 126.644C339.195 125.995 338.42 125.718 337.771 126.025L337.725 126.046C337.076 126.353 336.799 127.128 337.106 127.777Z" fill="#30343D"/>
<path d="M375.539 127.046L371.621 134.477C371.287 135.112 371.53 135.898 372.165 136.233L372.209 136.256C372.844 136.591 373.631 136.348 373.966 135.713L377.883 128.282C378.218 127.647 377.975 126.861 377.34 126.526L377.295 126.503C376.66 126.168 375.874 126.411 375.539 127.046Z" fill="#30343D"/>
<path d="M382.794 145.298L380.162 148.571C379.608 149.26 379.707 150.259 380.383 150.802C381.059 151.345 382.055 151.228 382.609 150.539L385.241 147.266C385.794 146.577 385.695 145.578 385.02 145.035C384.344 144.492 383.347 144.609 382.794 145.298Z" fill="#E29CA2"/>
<path d="M389.392 145.177L386.76 148.45C386.206 149.138 386.305 150.137 386.981 150.681C387.657 151.224 388.654 151.106 389.207 150.417L391.839 147.144C392.393 146.455 392.294 145.457 391.618 144.913C390.942 144.37 389.946 144.488 389.392 145.177Z" fill="#E29CA2"/>
<path d="M328.979 147.048L331.61 150.321C332.164 151.009 333.161 151.127 333.837 150.584C334.512 150.041 334.611 149.042 334.058 148.353L331.426 145.08C330.872 144.391 329.875 144.273 329.2 144.817C328.524 145.36 328.425 146.359 328.979 147.048Z" fill="#E29CA2"/>
<path d="M322.414 147.091L325.046 150.364C325.6 151.053 326.596 151.171 327.272 150.628C327.948 150.084 328.047 149.086 327.493 148.397L324.861 145.124C324.308 144.435 323.311 144.317 322.635 144.86C321.96 145.404 321.861 146.402 322.414 147.091Z" fill="#E29CA2"/>
<path d="M322.6 167.4H410.6V177.5C410.6 178.03 410.389 178.539 410.014 178.914C409.639 179.289 409.13 179.5 408.6 179.5H324.5C323.969 179.5 323.461 179.289 323.086 178.914C322.711 178.539 322.5 178.03 322.5 177.5V167.4H322.6Z" fill="#718DD8"/>
<path d="M357.1 176.5C358.757 176.5 360.1 175.157 360.1 173.5C360.1 171.843 358.757 170.5 357.1 170.5C355.443 170.5 354.1 171.843 354.1 173.5C354.1 175.157 355.443 176.5 357.1 176.5Z" fill="#55689E"/>
<path d="M409 176.5C410.657 176.5 412 175.157 412 173.5C412 171.843 410.657 170.5 409 170.5C407.343 170.5 406 171.843 406 173.5C406 175.157 407.343 176.5 409 176.5Z" fill="#55689E"/>
<path d="M419.2 150.6C421.078 150.6 422.6 145.675 422.6 139.6C422.6 133.525 421.078 128.6 419.2 128.6C417.322 128.6 415.8 133.525 415.8 139.6C415.8 145.675 417.322 150.6 419.2 150.6Z" fill="#55689E"/>
<path d="M418.4 150.3C419.836 150.3 421 145.509 421 139.6C421 133.691 419.836 128.9 418.4 128.9C416.964 128.9 415.8 133.691 415.8 139.6C415.8 145.509 416.964 150.3 418.4 150.3Z" fill="#718DD8"/>
<path d="M422.84 157.271L426.8 161.231L421.921 166.11L417.961 162.15C417.323 161.513 416.965 160.648 416.965 159.746C416.965 158.844 417.323 157.98 417.961 157.342C418.273 157.011 418.648 156.746 419.065 156.563C419.481 156.379 419.93 156.281 420.385 156.275C420.84 156.268 421.292 156.353 421.714 156.524C422.135 156.695 422.518 156.949 422.84 157.271Z" fill="#808B99"/>
<path d="M418.2 172.6C416.6 171 418.9 166.3 423.2 162C427.5 157.7 432.2 155.5 433.8 157L440.3 163.5L424.7 179.1L418.2 172.6Z" fill="#A1A8B2"/>
<path d="M421.2 164.1C418.2 167.8 416.9 171.3 418.2 172.6L424.7 179.1L430.4 173.3L421.2 164.1Z" fill="#828C98"/>
<path d="M434.997 173.849C439.292 169.554 441.635 164.931 440.229 163.526C438.823 162.12 434.201 164.462 429.905 168.758C425.61 173.054 423.267 177.676 424.673 179.082C426.079 180.488 430.701 178.145 434.997 173.849Z" fill="#36393F"/>
<path d="M355.7 150.3C355.878 150.511 356.1 150.68 356.351 150.796C356.601 150.912 356.874 150.972 357.15 150.972C357.426 150.972 357.699 150.912 357.949 150.796C358.199 150.68 358.422 150.511 358.6 150.3L362.4 145.5H351.8L355.7 150.3Z" fill="#EDB4A9"/>
<path d="M399.1 105.8C402.5 104.2 406.2 103.1 409.4 105.1L409.2 96.7L401.1 97.2L399.1 105.8Z" fill="#737F8D"/>
<path d="M418.5 89.6C418.171 87.9579 417.526 86.3955 416.6 85C416 84 415 82.8 413.8 82.8C412.6 82.8 411.3 83.6 410 84.9C407 87.9 402.2 95.8 399.1 105.8L388.7 94C394 83.8 400.3 80.4 406.7 79.4C408.973 79.0795 411.286 79.5505 413.253 80.7341C415.22 81.9177 416.719 83.7417 417.5 85.9C417.9 87.2 418.2 88.4 418.5 89.6Z" fill="#67717C"/>
<path d="M552 147.4H499.1V179.47H552V147.4Z" fill="#DB4431"/>
<path d="M523 147.4H528.2L530.2 111.7C530.227 111.074 530.128 110.45 529.91 109.863C529.692 109.276 529.359 108.739 528.931 108.282C528.502 107.826 527.987 107.459 527.415 107.205C526.843 106.95 526.226 106.813 525.6 106.8C524.97 106.799 524.346 106.927 523.767 107.177C523.189 107.426 522.668 107.792 522.236 108.252C521.805 108.711 521.473 109.254 521.26 109.847C521.047 110.441 520.959 111.071 521 111.7L523 147.4Z" fill="white"/>
<path d="M602.9 147.4H608L610 111.7C610.041 111.071 609.953 110.441 609.74 109.847C609.527 109.254 609.195 108.711 608.764 108.252C608.332 107.792 607.811 107.426 607.232 107.177C606.654 106.927 606.03 106.799 605.4 106.8C604.774 106.813 604.157 106.95 603.585 107.205C603.013 107.459 602.498 107.826 602.069 108.282C601.64 108.739 601.307 109.276 601.09 109.863C600.872 110.45 600.773 111.074 600.8 111.7L602.9 147.4Z" fill="#C7CCD1"/>
<path d="M552 179.5H631.8V147.43H552V179.5Z" fill="#BD3524"/>
<path d="M552 147.4H499.1V149.4H552V147.4Z" fill="#4F5660"/>
<path d="M552 149.5H631.8V147.5H552V149.5Z" fill="#36393F"/>
<path d="M552.041 147.466H631.841L631.784 137.571H551.984L552.041 147.466Z" fill="#BD3524"/>
<path d="M540.2 125.8H511L499.1 137.7V147.4H552.1V137.7L540.2 125.8Z" fill="#DB4431"/>
<path d="M517.8 125.8L514.3 179.5H492.1L511.4 125.8H517.8Z" fill="#41474F"/>
<path d="M620 125.8H540.2L552.1 137.7H631.9L620 125.8Z" fill="#B12817"/>
<path d="M513.2 118.8L507 113.2C506.706 112.926 506.359 112.714 505.981 112.577C505.603 112.439 505.201 112.379 504.8 112.4H475.2C474.529 112.393 473.874 112.603 473.333 113C472.792 113.397 472.395 113.958 472.2 114.6L453.3 175.3C453.162 175.785 453.138 176.295 453.228 176.791C453.318 177.286 453.52 177.755 453.819 178.161C454.119 178.566 454.507 178.898 454.954 179.13C455.402 179.362 455.896 179.489 456.4 179.5H494C494.684 179.501 495.348 179.276 495.891 178.86C496.434 178.444 496.823 177.861 497 177.2L514.1 122.1C514.29 121.522 514.306 120.901 514.146 120.315C513.986 119.728 513.657 119.201 513.2 118.8Z" fill="#3E70DD"/>
<path d="M502.4 112.4H474.8C474.246 112.394 473.704 112.566 473.255 112.89C472.805 113.214 472.47 113.673 472.3 114.2L453.1 176.1C452.993 176.499 452.979 176.918 453.059 177.324C453.139 177.73 453.312 178.112 453.563 178.44C453.814 178.769 454.137 179.035 454.508 179.219C454.878 179.403 455.286 179.499 455.7 179.5H483.3C483.863 179.483 484.406 179.291 484.855 178.951C485.303 178.61 485.633 178.138 485.8 177.6L505 115.8C505.107 115.401 505.121 114.982 505.041 114.576C504.961 114.17 504.788 113.788 504.537 113.46C504.286 113.131 503.962 112.865 503.592 112.681C503.221 112.497 502.813 112.401 502.4 112.4Z" fill="#7196FF"/>
<path d="M489.841 140.45C495.184 135.571 496.224 128.013 492.165 123.567C488.105 119.122 480.484 119.473 475.141 124.352C469.798 129.23 468.758 136.789 472.817 141.234C476.876 145.68 484.498 145.329 489.841 140.45Z" fill="#5C83F2"/>
<path d="M483.552 133.516C484.422 132.749 484.653 131.59 484.069 130.927C483.484 130.264 482.305 130.348 481.435 131.115C480.565 131.882 480.334 133.042 480.918 133.704C481.503 134.367 482.682 134.283 483.552 133.516Z" fill="#36393F"/>
<path d="M477.072 139.116C477.942 138.351 478.174 137.193 477.591 136.53C477.008 135.867 475.83 135.951 474.96 136.716C474.09 137.481 473.858 138.639 474.441 139.302C475.024 139.965 476.202 139.881 477.072 139.116Z" fill="#36393F"/>
<path d="M490.827 133.488C491.697 132.721 491.929 131.562 491.345 130.899C490.76 130.236 489.581 130.321 488.711 131.088C487.841 131.855 487.61 133.014 488.194 133.677C488.778 134.34 489.957 134.255 490.827 133.488Z" fill="#36393F"/>
<path d="M476.351 133.477C477.221 132.71 477.452 131.551 476.868 130.888C476.284 130.225 475.105 130.31 474.235 131.077C473.365 131.844 473.133 133.003 473.718 133.666C474.302 134.329 475.481 134.244 476.351 133.477Z" fill="#36393F"/>
<path d="M485.415 126.259C486.285 125.492 486.517 124.332 485.932 123.67C485.348 123.007 484.169 123.091 483.299 123.858C482.429 124.625 482.198 125.784 482.782 126.447C483.366 127.11 484.545 127.026 485.415 126.259Z" fill="#36393F"/>
<path d="M479.255 128.109C480.125 127.342 480.357 126.183 479.772 125.52C479.188 124.857 478.009 124.942 477.139 125.708C476.269 126.475 476.037 127.635 476.622 128.297C477.206 128.96 478.385 128.876 479.255 128.109Z" fill="#36393F"/>
<path d="M488.034 138.49C488.904 137.723 489.135 136.564 488.551 135.902C487.966 135.239 486.788 135.323 485.918 136.09C485.048 136.857 484.816 138.016 485.4 138.679C485.985 139.342 487.164 139.257 488.034 138.49Z" fill="#36393F"/>
<path d="M490.131 128.101C491.001 127.334 491.233 126.174 490.648 125.512C490.064 124.849 488.885 124.933 488.015 125.7C487.145 126.467 486.914 127.626 487.498 128.289C488.082 128.952 489.261 128.868 490.131 128.101Z" fill="#36393F"/>
<path d="M481.663 140.707C482.533 139.94 482.764 138.781 482.18 138.118C481.596 137.455 480.417 137.54 479.547 138.307C478.677 139.074 478.445 140.233 479.03 140.896C479.614 141.558 480.793 141.474 481.663 140.707Z" fill="#36393F"/>
<path d="M465.3 154.5C465.057 154.506 464.822 154.586 464.626 154.729C464.429 154.872 464.281 155.071 464.2 155.3L458.2 174.3C458.153 174.48 458.149 174.669 458.188 174.852C458.227 175.034 458.308 175.205 458.425 175.35C458.541 175.496 458.69 175.612 458.859 175.69C459.028 175.768 459.214 175.806 459.4 175.8C459.646 175.809 459.889 175.735 460.088 175.59C460.288 175.445 460.433 175.237 460.5 175L466.5 156.1C466.544 155.914 466.547 155.721 466.508 155.534C466.469 155.347 466.39 155.171 466.275 155.018C466.161 154.866 466.014 154.74 465.845 154.65C465.677 154.561 465.491 154.509 465.3 154.5Z" fill="#5C83F2"/>
<path d="M472.3 154.5C472.046 154.512 471.8 154.593 471.589 154.734C471.378 154.875 471.208 155.07 471.1 155.3L465.2 174.3C465.132 174.473 465.109 174.66 465.133 174.844C465.157 175.028 465.227 175.203 465.336 175.353C465.446 175.503 465.592 175.622 465.761 175.701C465.929 175.779 466.115 175.813 466.3 175.8C466.557 175.8 466.807 175.724 467.021 175.582C467.235 175.439 467.401 175.237 467.5 175L473.4 156.1C473.463 155.921 473.483 155.731 473.458 155.543C473.434 155.355 473.365 155.176 473.258 155.02C473.15 154.864 473.008 154.735 472.841 154.645C472.675 154.555 472.489 154.505 472.3 154.5Z" fill="#5C83F2"/>
<path d="M479.2 154.5C478.957 154.506 478.722 154.586 478.526 154.729C478.329 154.872 478.181 155.071 478.1 155.3L472.1 174.3C472.055 174.472 472.049 174.653 472.083 174.827C472.116 175.002 472.188 175.168 472.294 175.311C472.399 175.455 472.535 175.573 472.692 175.658C472.848 175.742 473.022 175.791 473.2 175.8C473.46 175.815 473.717 175.745 473.933 175.6C474.15 175.456 474.314 175.245 474.4 175L480.3 156.1C480.363 155.921 480.383 155.731 480.358 155.543C480.334 155.355 480.265 155.176 480.158 155.02C480.05 154.864 479.908 154.735 479.741 154.645C479.575 154.555 479.389 154.505 479.2 154.5Z" fill="#5C83F2"/>
<path d="M486.1 154.5C485.857 154.506 485.622 154.586 485.426 154.729C485.229 154.872 485.081 155.071 485 155.3L479 174.3C478.953 174.48 478.949 174.669 478.988 174.852C479.027 175.034 479.108 175.205 479.225 175.35C479.341 175.496 479.49 175.612 479.659 175.69C479.828 175.768 480.014 175.806 480.2 175.8C480.446 175.809 480.689 175.735 480.888 175.59C481.088 175.445 481.233 175.237 481.3 175L487.3 156.1C487.344 155.914 487.347 155.721 487.308 155.534C487.269 155.347 487.19 155.171 487.075 155.018C486.961 154.866 486.814 154.74 486.645 154.65C486.477 154.561 486.291 154.509 486.1 154.5Z" fill="#5C83F2"/>
<path d="M465.1 160.4L461.8 171C461.706 171.248 461.543 171.465 461.331 171.624C461.118 171.784 460.865 171.879 460.6 171.9C460.411 171.895 460.225 171.845 460.059 171.755C459.892 171.665 459.75 171.536 459.642 171.38C459.535 171.224 459.466 171.045 459.441 170.857C459.417 170.669 459.437 170.479 459.5 170.3L462.8 159.7C462.886 159.455 463.05 159.244 463.266 159.1C463.483 158.955 463.74 158.885 464 158.9C464.185 158.887 464.371 158.921 464.539 158.999C464.708 159.078 464.853 159.197 464.963 159.347C465.073 159.497 465.143 159.672 465.167 159.856C465.191 160.04 465.168 160.227 465.1 160.4Z" fill="#3E70DD"/>
<path d="M472 160.4L468.7 171C468.607 171.305 468.397 171.561 468.116 171.711C467.834 171.861 467.505 171.893 467.2 171.8C466.895 171.707 466.639 171.497 466.489 171.216C466.339 170.934 466.307 170.605 466.4 170.3L469.8 159.7C469.867 159.463 470.012 159.255 470.212 159.11C470.411 158.965 470.653 158.891 470.9 158.9C471.085 158.887 471.271 158.921 471.439 158.999C471.608 159.078 471.754 159.197 471.863 159.347C471.973 159.497 472.043 159.672 472.067 159.856C472.091 160.04 472.068 160.227 472 160.4Z" fill="#3E70DD"/>
<path d="M479 160.4L475.6 171C475.536 171.248 475.395 171.469 475.197 171.63C475 171.792 474.755 171.887 474.5 171.9C474.309 171.891 474.123 171.839 473.954 171.75C473.786 171.66 473.639 171.534 473.524 171.382C473.41 171.229 473.33 171.053 473.292 170.866C473.253 170.679 473.256 170.486 473.3 170.3L476.7 159.7C476.767 159.463 476.912 159.255 477.111 159.11C477.311 158.965 477.553 158.891 477.8 158.9C477.986 158.894 478.171 158.932 478.341 159.01C478.51 159.088 478.659 159.204 478.775 159.35C478.892 159.495 478.973 159.666 479.012 159.848C479.051 160.031 479.047 160.22 479 160.4Z" fill="#3E70DD"/>
<path d="M485.9 160.4L482.6 171C482.506 171.248 482.343 171.465 482.131 171.624C481.918 171.784 481.665 171.879 481.4 171.9C481.211 171.895 481.025 171.845 480.859 171.755C480.692 171.665 480.55 171.536 480.442 171.38C480.335 171.224 480.266 171.045 480.241 170.857C480.217 170.669 480.237 170.479 480.3 170.3L483.6 159.7C483.686 159.455 483.85 159.244 484.066 159.1C484.283 158.955 484.54 158.885 484.8 158.9C484.978 158.909 485.151 158.958 485.308 159.042C485.465 159.127 485.601 159.245 485.706 159.389C485.811 159.532 485.884 159.698 485.917 159.873C485.951 160.047 485.945 160.228 485.9 160.4Z" fill="#3E70DD"/>
<path d="M505.3 142.6C503.5 142.6 502 139.4 502 135.6C502 131.8 503.5 128.6 505.3 128.6H511.5V142.6H505.3Z" fill="#D4D8DC"/>
<path d="M511.5 142.6C513.322 142.6 514.8 139.466 514.8 135.6C514.8 131.734 513.322 128.6 511.5 128.6C509.677 128.6 508.2 131.734 508.2 135.6C508.2 139.466 509.677 142.6 511.5 142.6Z" fill="#B3B9C0"/>
<path d="M22.5 99.8H106.7C107.708 99.8 108.674 100.2 109.387 100.913C110.1 101.626 110.5 102.592 110.5 103.6V179.6H18.7V103.6C18.7 102.592 19.1003 101.626 19.8129 100.913C20.5256 100.2 21.4921 99.8 22.5 99.8Z" fill="#4B586D"/>
<path d="M58.5999 99.8C58.1057 99.7866 57.6138 99.8725 57.1533 100.052C56.6928 100.232 56.273 100.503 55.9188 100.848C55.5645 101.193 55.283 101.605 55.0908 102.061C54.8987 102.516 54.7998 103.006 54.7999 103.5V119.4C54.8017 119.628 54.7548 119.854 54.6621 120.062C54.5695 120.271 54.4334 120.457 54.263 120.608C54.0925 120.76 53.8916 120.873 53.6738 120.941C53.456 121.008 53.2262 121.029 53 121L18.7 117.2V103.5C18.6998 103.006 18.7987 102.516 18.9908 102.061C19.183 101.605 19.4645 101.193 19.8188 100.848C20.173 100.503 20.5928 100.232 21.0533 100.052C21.5138 99.8725 22.0057 99.7866 22.5 99.8H58.5999Z" fill="#404B5E"/>
<path d="M172.3 179.5H71.4999L71.4999 103.5C71.4999 102.492 71.9003 101.526 72.6129 100.813C73.3256 100.1 74.2921 99.7 75.2999 99.7L168.5 99.7C169.508 99.7 170.474 100.1 171.187 100.813C171.9 101.526 172.3 102.492 172.3 103.5V179.5Z" fill="#414F66"/>
<path d="M76 103.2H167.8C168.065 103.2 168.32 103.305 168.507 103.493C168.695 103.68 168.8 103.935 168.8 104.2V129.1H75V104.2C75 103.935 75.1054 103.68 75.2929 103.493C75.4804 103.305 75.7348 103.2 76 103.2Z" fill="#575F82"/>
<path d="M140.7 125.3C141.915 125.3 142.9 124.315 142.9 123.1C142.9 121.885 141.915 120.9 140.7 120.9C139.485 120.9 138.5 121.885 138.5 123.1C138.5 124.315 139.485 125.3 140.7 125.3Z" fill="#687282"/>
<path d="M150.8 125.3C152.015 125.3 153 124.315 153 123.1C153 121.885 152.015 120.9 150.8 120.9C149.585 120.9 148.6 121.885 148.6 123.1C148.6 124.315 149.585 125.3 150.8 125.3Z" fill="#687282"/>
<path d="M161 125.3C162.215 125.3 163.2 124.315 163.2 123.1C163.2 121.885 162.215 120.9 161 120.9C159.785 120.9 158.8 121.885 158.8 123.1C158.8 124.315 159.785 125.3 161 125.3Z" fill="#687282"/>
<path d="M140.7 117.3C141.915 117.3 142.9 116.315 142.9 115.1C142.9 113.885 141.915 112.9 140.7 112.9C139.485 112.9 138.5 113.885 138.5 115.1C138.5 116.315 139.485 117.3 140.7 117.3Z" fill="#687282"/>
<path d="M150.8 117.3C152.015 117.3 153 116.315 153 115.1C153 113.885 152.015 112.9 150.8 112.9C149.585 112.9 148.6 113.885 148.6 115.1C148.6 116.315 149.585 117.3 150.8 117.3Z" fill="#687282"/>
<path d="M161 117.3C162.215 117.3 163.2 116.315 163.2 115.1C163.2 113.885 162.215 112.9 161 112.9C159.785 112.9 158.8 113.885 158.8 115.1C158.8 116.315 159.785 117.3 161 117.3Z" fill="#687282"/>
<path d="M75 132.7H168.9V164.8C168.9 165.065 168.795 165.32 168.607 165.507C168.42 165.695 168.165 165.8 167.9 165.8H76C75.7348 165.8 75.4804 165.695 75.2929 165.507C75.1054 165.32 75 165.065 75 164.8V132.7Z" fill="#575F82"/>
<path d="M160.5 136.8H138.1C137.492 136.8 137 137.292 137 137.9V160.58C137 161.188 137.492 161.68 138.1 161.68H160.5C161.108 161.68 161.6 161.188 161.6 160.58V137.9C161.6 137.292 161.108 136.8 160.5 136.8Z" fill="#7687B2"/>
<path d="M168.9 129.1H75V132.69H168.9V129.1Z" fill="#687282"/>
<path d="M50.2999 65.6H10.6C9.82675 65.6 9.19995 66.2268 9.19995 67V98.32C9.19995 99.0932 9.82675 99.72 10.6 99.72H50.2999C51.0731 99.72 51.7 99.0932 51.7 98.32V67C51.7 66.2268 51.0731 65.6 50.2999 65.6Z" fill="#313A49"/>
<path d="M48.2999 99.8L150.3 99.8C151.073 99.8 151.7 99.1732 151.7 98.4V67.08C151.7 66.3068 151.073 65.68 150.3 65.68L48.2999 65.68C47.5267 65.68 46.9 66.3068 46.9 67.08V98.4C46.9 99.1732 47.5267 99.8 48.2999 99.8Z" fill="#4B586D"/>
<path d="M82.8 71.3H53.5C53.0029 71.3 52.6 71.703 52.6 72.2V93.14C52.6 93.6371 53.0029 94.04 53.5 94.04H82.8C83.297 94.04 83.7 93.6371 83.7 93.14V72.2C83.7 71.703 83.297 71.3 82.8 71.3Z" fill="#55689E"/>
<path d="M69.6 90.7C67.9 90.7 66.8 88.5 65.7 82.9C65 79.5 64 74.9 63.3 74.9C62.6 74.9 61.4 76.9 61 77.7C60.6 78.5 60.7 78.1 60.7 78.3C59 81.4 57.3 83.7 52.6 83.7V81.7C56.3 81.7 57.4 80.1 58.9 77.3L59.2 76.8C60 75.2 61.3 72.9 63.3 72.9C65.3 72.9 66.3 76.1 67.6 82.5C68.6 87.2 69.4 88.4 69.7 88.7C70 89 70.8 87.2 72 82.4C73.2 77.6 74.3 76.1 76.1 75.8C77.9 75.5 78.4 76.1 79.5 77.5L80.5 79C81.5 80.7 82.2 81.7 83.6 81.7V83.7C80.9 83.7 79.7 81.6 78.7 80C78.517 79.5502 78.2449 79.142 77.9 78.8C77.3 78 76.8 77.6 76.5 77.7C76.2 77.8 75.1 78.2 73.9 82.9C72.7 87.6 71.3 90.7 69.6 90.7Z" fill="#C2D2F1"/>
<path d="M98.2999 84.3C101.89 84.3 104.8 81.3899 104.8 77.8C104.8 74.2102 101.89 71.3 98.2999 71.3C94.7101 71.3 91.7999 74.2102 91.7999 77.8C91.7999 81.3899 94.7101 84.3 98.2999 84.3Z" fill="#FC964B"/>
<path d="M94.4999 94C95.9911 94 97.1999 92.7912 97.1999 91.3C97.1999 89.8088 95.9911 88.6 94.4999 88.6C93.0088 88.6 91.7999 89.8088 91.7999 91.3C91.7999 92.7912 93.0088 94 94.4999 94Z" fill="#FFC9FF"/>
<path d="M102.1 94C103.591 94 104.8 92.7912 104.8 91.3C104.8 89.8088 103.591 88.6 102.1 88.6C100.609 88.6 99.3999 89.8088 99.3999 91.3C99.3999 92.7912 100.609 94 102.1 94Z" fill="#FFC9FF"/>
<path d="M114.1 71.3H113.4C113.069 71.3 112.8 71.5686 112.8 71.9V86.01C112.8 86.3414 113.069 86.61 113.4 86.61H114.1C114.431 86.61 114.7 86.3414 114.7 86.01V71.9C114.7 71.5686 114.431 71.3 114.1 71.3Z" fill="#687282"/>
<path d="M124.5 71.3H123.8C123.469 71.3 123.2 71.5686 123.2 71.9V86.01C123.2 86.3414 123.469 86.61 123.8 86.61H124.5C124.831 86.61 125.1 86.3414 125.1 86.01V71.9C125.1 71.5686 124.831 71.3 124.5 71.3Z" fill="#687282"/>
<path d="M134.9 71.3H134.2C133.869 71.3 133.6 71.5686 133.6 71.9V86.01C133.6 86.3414 133.869 86.61 134.2 86.61H134.9C135.231 86.61 135.5 86.3414 135.5 86.01V71.9C135.5 71.5686 135.231 71.3 134.9 71.3Z" fill="#687282"/>
<path d="M145.3 71.3H144.6C144.269 71.3 144 71.5686 144 71.9V86.01C144 86.3414 144.269 86.61 144.6 86.61H145.3C145.631 86.61 145.9 86.3414 145.9 86.01V71.9C145.9 71.5686 145.631 71.3 145.3 71.3Z" fill="#687282"/>
<path d="M115.7 80.4H111.8C111.303 80.4 110.9 80.803 110.9 81.3V82.72C110.9 83.2171 111.303 83.62 111.8 83.62H115.7C116.197 83.62 116.6 83.2171 116.6 82.72V81.3C116.6 80.803 116.197 80.4 115.7 80.4Z" fill="#D5DBE3"/>
<path d="M126.1 74.6H122.2C121.703 74.6 121.3 75.003 121.3 75.5V76.92C121.3 77.4171 121.703 77.82 122.2 77.82H126.1C126.597 77.82 127 77.4171 127 76.92V75.5C127 75.003 126.597 74.6 126.1 74.6Z" fill="#D5DBE3"/>
<path d="M136.5 82H132.6C132.103 82 131.7 82.4029 131.7 82.9V84.32C131.7 84.8171 132.103 85.22 132.6 85.22H136.5C136.997 85.22 137.4 84.8171 137.4 84.32V82.9C137.4 82.4029 136.997 82 136.5 82Z" fill="#D5DBE3"/>
<path d="M146.9 80.4H143C142.503 80.4 142.1 80.803 142.1 81.3V82.72C142.1 83.2171 142.503 83.62 143 83.62H146.9C147.397 83.62 147.8 83.2171 147.8 82.72V81.3C147.8 80.803 147.397 80.4 146.9 80.4Z" fill="#D5DBE3"/>
<path d="M91.7 12.4C93.9643 12.4 95.8 10.5644 95.8 8.30001C95.8 6.03565 93.9643 4.20001 91.7 4.20001C89.4356 4.20001 87.6 6.03565 87.6 8.30001C87.6 10.5644 89.4356 12.4 91.7 12.4Z" fill="#FFD836"/>
<path d="M98.0999 8.3L95.8999 0H76.9999L74.7999 8.3H98.0999Z" fill="#C7CFD6"/>
<path d="M89.2 8.3L88.7 0H95.9L98.1 8.3H89.2Z" fill="#B1B9C2"/>
<path d="M109.2 49.7H63.7L68.1999 65.6H104.7L109.2 49.7Z" fill="#C7CFD6"/>
<path d="M89.8 49.7H109.2L104.7 65.6H89.2L89.8 49.7Z" fill="#B1B9C2"/>
<path d="M51.6999 35.8C51.0532 33.7392 49.6631 31.9926 47.7999 30.9C46.7974 30.323 45.7208 29.8856 44.5999 29.6C47.158 31.097 49.0255 33.5391 49.7999 36.4C50.1171 37.5138 49.9927 38.707 49.4526 39.7314C48.9124 40.7558 47.9982 41.5325 46.8999 41.9C45.812 42.2531 44.6294 42.1686 43.6028 41.6646C42.5761 41.1606 41.786 40.2766 41.3999 39.2C40.5999 37.2 38.4999 32.1 34.9999 30.9L33.2999 32.1C36.3999 32.5 38.2999 36.7 39.4999 39.9C40.0872 41.4457 41.2415 42.7094 42.7278 43.4339C44.214 44.1585 45.9205 44.2894 47.4999 43.8C49.1008 43.2715 50.4336 42.1417 51.2173 40.6491C52.0009 39.1565 52.1739 37.4178 51.6999 35.8Z" fill="#A6AFBD"/>
<path d="M250.2 64.1L231.3 70.4C230.825 70.5336 230.326 70.5622 229.839 70.4838C229.352 70.4053 228.888 70.2218 228.478 69.9458C228.069 69.6699 227.725 69.3082 227.47 68.8858C227.214 68.4634 227.054 67.9905 227 67.5L225.5 52.4C225.419 51.6406 225.604 50.8766 226.024 50.2384C226.443 49.6001 227.071 49.1271 227.8 48.9L246.7 42.7C247.168 42.5483 247.664 42.5032 248.151 42.5679C248.639 42.6326 249.106 42.8054 249.518 43.0738C249.93 43.3422 250.277 43.6994 250.534 44.1192C250.79 44.5389 250.949 45.0107 251 45.5L252.5 60.7C252.557 61.4432 252.361 62.1838 251.943 62.8011C251.525 63.4185 250.911 63.8763 250.2 64.1Z" fill="#A0B2DC"/>
<path d="M250.4 88.3L229.9 85.6C230.105 79.6709 230.673 73.7598 231.6 67.9L248.5 62.7C249.705 71.1813 250.339 79.7338 250.4 88.3Z" fill="#788CBA"/>
<path d="M248.8 64.6C237.7 74.5 230.8 73.3 230.8 73.3L231.2 70.4L248.8 64.6Z" fill="#55689E"/>
<path d="M232.5 55.9L241.9 52.7C242.044 52.6548 242.197 52.6399 242.347 52.6561C242.498 52.6724 242.643 52.7196 242.774 52.7947C242.906 52.8698 243.02 52.9712 243.111 53.0925C243.201 53.2139 243.266 53.3526 243.3 53.5L243.8 56.6C243.906 57.3494 243.744 58.1122 243.341 58.753C242.938 59.3937 242.321 59.871 241.6 60.1L233.7 62.3C233.513 62.3664 233.313 62.3855 233.118 62.3557C232.922 62.3259 232.736 62.2482 232.578 62.1294C232.42 62.0105 232.293 61.8544 232.21 61.6748C232.126 61.4952 232.089 61.2977 232.1 61.1L231.7 57C231.691 56.7535 231.765 56.511 231.91 56.3116C232.055 56.1121 232.263 55.9671 232.5 55.9Z" fill="#C2D2F1"/>
<path d="M255.4 56.2C255.053 56.3003 254.739 56.4927 254.493 56.7568C254.246 57.0209 254.076 57.3469 254 57.7C252.695 62.006 249.798 65.6531 245.9 67.9L248.1 73C251.079 71.7275 253.618 69.6059 255.4 66.9V56.2Z" fill="#A0B2DC"/>
<path d="M246.7 54C247.307 54 247.8 53.3732 247.8 52.6C247.8 51.8268 247.307 51.2 246.7 51.2C246.092 51.2 245.6 51.8268 245.6 52.6C245.6 53.3732 246.092 54 246.7 54Z" fill="#414952"/>
<path d="M229.9 58.8C230.342 58.8 230.7 58.3523 230.7 57.8C230.7 57.2477 230.342 56.8 229.9 56.8C229.458 56.8 229.1 57.2477 229.1 57.8C229.1 58.3523 229.458 58.8 229.9 58.8Z" fill="#414952"/>
<path d="M232.9 60.1L235.1 59.3V58.6L232.9 59.3V60.1Z" fill="#A0B2DC"/>
<path d="M236.8 58.8L239.7 57.9V57.1L236.8 58V58.8Z" fill="#A0B2DC"/>
<path d="M230.8 47.9L236 46.2C230.1 42.9 226.6 45.6 230.8 47.9Z" fill="#B3CAFB"/>
<path d="M236 46.2L243.5 43.7C244.6 37.4 238.3 37.6 236 46.2Z" fill="#B3CAFB"/>
<path d="M248.361 28.5197C250.611 25.8661 250.797 22.3249 248.775 20.6103C246.753 18.8957 243.29 19.6569 241.039 22.3105C238.789 24.9641 238.604 28.5053 240.625 30.2199C242.647 31.9345 246.111 31.1733 248.361 28.5197Z" fill="#F4D862"/>
<path d="M79.1 8.3L80.5 0H84.3V8.3H79.1Z" fill="white"/>
<path d="M72 49.7L75.6 65.6H79.4L77.2 49.7H72Z" fill="white"/>
<path d="M570.5 147.4H565.8C564.695 147.4 563.8 148.295 563.8 149.4C563.8 150.505 564.695 151.4 565.8 151.4H570.5C571.605 151.4 572.5 150.505 572.5 149.4C572.5 148.295 571.605 147.4 570.5 147.4Z" fill="#747F8D"/>
<path d="M618 147.4H613.3C612.195 147.4 611.3 148.295 611.3 149.4C611.3 150.505 612.195 151.4 613.3 151.4H618C619.105 151.4 620 150.505 620 149.4C620 148.295 619.105 147.4 618 147.4Z" fill="#747F8D"/>
<path d="M531.4 21L569.5 35.9C571.069 30.9406 570.695 25.57 568.452 20.8765C566.209 16.183 562.266 12.5176 557.422 10.6231C552.577 8.7285 547.194 8.74644 542.362 10.6733C537.53 12.6001 533.611 16.2917 531.4 21Z" fill="#F47FFF"/>
<path d="M540.1 62.1H585.8C586.33 62.1 586.839 62.3107 587.214 62.6858C587.589 63.0608 587.8 63.5696 587.8 64.1L587.889 70.5445H538.089L538 64.2C537.986 63.9204 538.03 63.641 538.131 63.3797C538.231 63.1184 538.385 62.8811 538.583 62.6831C538.781 62.4852 539.018 62.331 539.28 62.2306C539.541 62.1301 539.82 62.0856 540.1 62.1Z" fill="#4B586D"/>
<path d="M564.715 3.17803L557.081 0.186031C554.87 -0.680487 552.375 0.409511 551.508 2.62061L548.706 9.77111C547.84 11.9822 548.93 14.4771 551.141 15.3436L558.775 18.3356C560.986 19.2021 563.481 18.1121 564.348 15.901L567.15 8.75053C568.017 6.53944 566.927 4.04454 564.715 3.17803Z" fill="#F47FFF"/>
<path d="M110.6 107H79.9C79.4029 107 79 107.403 79 107.9V124.42C79 124.917 79.4029 125.32 79.9 125.32H110.6C111.097 125.32 111.5 124.917 111.5 124.42V107.9C111.5 107.403 111.097 107 110.6 107Z" fill="#4F5660"/>
<path d="M491.8 55L497.8 46.2V33.7L491.8 24.9L497.8 16V15.1H493.5L489.4 21.2L485.2 15.1H480.3L486.9 24.9L479.2 36.3L471.5 24.9L478.1 15.1H473.2L469.1 21.2L464.9 15.1H460L466.6 24.9L458.9 36.3L451.2 24.9L457.8 15.1H452.9L448.8 21.2L444.6 15.1H441.1V17.2L446.3 24.9L441.1 32.5V39.8L448.8 28.5L456.5 39.9L448.8 51.4L441.1 40V47.3L446.3 55L441.1 62.7V64.8H444.6L448.8 58.7L452.9 64.8H457.8L451.2 55L458.9 43.6L466.6 55L460 64.8H464.9L469.1 58.7L473.2 64.8H478.1L471.5 55L479.2 43.6L486.9 55L480.3 64.8H485.2L489.4 58.7L493.5 64.8H497.8V63.9L491.8 55ZM469.1 51.4L461.4 39.9L469.1 28.5L476.8 39.9L469.1 51.4ZM481.7 39.9L489.4 28.5L497.1 39.9L489.4 51.4L481.7 39.9Z" fill="#A2A9B3"/>
<path d="M474.9 22.1H437L431.5 70.5H469.4L474.9 22.1Z" fill="#A6723E"/>
<path d="M467.6 22.1H429.6L424.1 70.5H462.1L467.6 22.1Z" fill="#E7AA6C"/>
<path d="M591.2 37.4C593.354 37.4 595.1 35.6539 595.1 33.5C595.1 31.3461 593.354 29.6 591.2 29.6C589.046 29.6 587.3 31.3461 587.3 33.5C587.3 35.6539 589.046 37.4 591.2 37.4Z" fill="#5F656E"/>
<path d="M466.9 70.5L472.1 24.2H467.3L462.1 70.5H466.9Z" fill="#ECF0F4"/>
<path d="M469.1 28.5L468.6 32.6H475.2L475.6 28.5H469.1Z" fill="#FFD836"/>
<path d="M467.6 40.8L467.1 44.8H471.1L471.6 40.8H467.6Z" fill="#BE2E31"/>
<path d="M465.8 46.9L465.5 49.4H473.6L473.9 46.9H465.8Z" fill="#21A147"/>
<path d="M448.028 50.1771C454.245 44.6186 455.673 36.074 451.219 31.0922C446.765 26.1105 438.114 26.5781 431.898 32.1366C425.681 37.6952 424.252 46.2398 428.706 51.2215C433.16 56.2033 441.811 55.7357 448.028 50.1771Z" fill="#A2A9B3"/>
<path d="M445.638 50.1768C451.855 44.6183 453.284 36.0737 448.83 31.0919C444.376 26.1102 435.725 26.5778 429.508 32.1363C423.292 37.6949 421.863 46.2395 426.317 51.2212C430.771 56.203 439.422 55.7354 445.638 50.1768Z" fill="#D2D6DA"/>
<path d="M446.817 47.795C452.285 42.9106 453.537 35.3917 449.615 31.001C445.693 26.6103 438.081 27.0106 432.613 31.895C427.145 36.7794 425.893 44.2984 429.815 48.689C433.737 53.0797 441.349 52.6794 446.817 47.795Z" fill="#7A8EC7"/>
<path d="M428.6 41C429.343 37.9882 430.967 35.2664 433.265 33.1823C435.563 31.0983 438.43 29.7466 441.5 29.3H440.1C433.6 29.3 427.2 34.6 425.7 41.1C424.2 47.6 428.4 52.9 434.9 52.9H436.3C430.6 52 427.2 47.1 428.6 41Z" fill="#A2A9B3"/>
<path d="M438.2 54.4H433.3L429.3 70.5H435.2L438.2 54.4Z" fill="#2E3136"/>
<path d="M86.7 121.9C89.848 121.9 92.4 119.348 92.4 116.2C92.4 113.052 89.848 110.5 86.7 110.5C83.552 110.5 81 113.052 81 116.2C81 119.348 83.552 121.9 86.7 121.9Z" fill="#3E444D"/>
<path d="M86.7 118.2C87.8045 118.2 88.7 117.305 88.7 116.2C88.7 115.095 87.8045 114.2 86.7 114.2C85.5954 114.2 84.7 115.095 84.7 116.2C84.7 117.305 85.5954 118.2 86.7 118.2Z" fill="#323740"/>
<path d="M87.8 113.2C87.8 113.4 87.6 113.5 87.4 113.4H85.9C85.7 113.5 85.6 113.4 85.6 113.2V113L85.8 111.6L86 111.4H87.3L87.5 111.6L87.7 113L87.8 113.2Z" fill="#323740"/>
<path d="M88.7 118.6C88.647 118.613 88.5908 118.605 88.5439 118.577C88.4971 118.549 88.4633 118.503 88.45 118.45C88.4367 118.397 88.4451 118.341 88.4732 118.294C88.5014 118.247 88.547 118.213 88.6 118.2L88.9 117.9C89 117.8 89.1 117.7 89.1 117.6C89.2033 117.488 89.2727 117.35 89.3 117.2C89.3362 117.159 89.3637 117.112 89.3809 117.06C89.3981 117.009 89.4046 116.954 89.4 116.9C89.4 116.7 89.6 116.6 89.8 116.7H89.9L91.1 117.6C91.1362 117.641 91.1637 117.688 91.1809 117.74C91.1981 117.791 91.2046 117.846 91.2 117.9L90.9 118.5L90.5 119H90.2L88.8 118.4L88.7 118.6Z" fill="#323740"/>
<path d="M83.6 116.7C83.6254 116.683 83.6543 116.672 83.6845 116.668C83.7148 116.664 83.7455 116.667 83.7745 116.676C83.8035 116.686 83.8298 116.702 83.8516 116.724C83.8733 116.745 83.8899 116.771 83.9 116.8C83.9677 116.922 84.0022 117.06 84 117.2C84.1 117.3 84.1 117.5 84.2 117.6C84.3 117.7 84.4 117.8 84.4 117.9L84.7 118.2C84.7263 118.207 84.751 118.218 84.7727 118.234C84.7945 118.25 84.8128 118.271 84.8268 118.294C84.8407 118.317 84.8499 118.343 84.8539 118.37C84.8579 118.396 84.8566 118.424 84.85 118.45C84.8434 118.476 84.8318 118.501 84.8156 118.523C84.7995 118.544 84.7793 118.563 84.7561 118.577C84.7328 118.591 84.7071 118.6 84.6803 118.604C84.6536 118.608 84.6263 118.607 84.6 118.6H84.5L83.1 119.2H82.8L82.5 118.7L82.2 118.1C82.1 118 82.2 117.9 82.3 117.8L83.4 116.9L83.6 116.7Z" fill="#323740"/>
<path d="M103.8 121.9C106.948 121.9 109.5 119.348 109.5 116.2C109.5 113.052 106.948 110.5 103.8 110.5C100.652 110.5 98.1 113.052 98.1 116.2C98.1 119.348 100.652 121.9 103.8 121.9Z" fill="#3E444D"/>
<path d="M103.8 118.2C104.904 118.2 105.8 117.305 105.8 116.2C105.8 115.095 104.904 114.2 103.8 114.2C102.695 114.2 101.8 115.095 101.8 116.2C101.8 117.305 102.695 118.2 103.8 118.2Z" fill="#323740"/>
<path d="M106.8 115.1C106.76 115.06 106.706 115.038 106.65 115.038C106.594 115.038 106.54 115.06 106.5 115.1C106.46 115.14 106.438 115.194 106.438 115.25C106.438 115.306 106.46 115.36 106.5 115.4C106.5 115.5 106.6 115.6 106.6 115.7V116.6C106.605 116.654 106.598 116.709 106.581 116.76C106.564 116.812 106.536 116.859 106.5 116.9C106.46 116.94 106.438 116.994 106.438 117.05C106.438 117.106 106.46 117.16 106.5 117.2C106.54 117.24 106.594 117.262 106.65 117.262C106.706 117.262 106.76 117.24 106.8 117.2H106.9L108.4 117C108.453 117 108.504 116.979 108.541 116.941C108.579 116.904 108.6 116.853 108.6 116.8V115.5C108.6 115.447 108.579 115.396 108.541 115.359C108.504 115.321 108.453 115.3 108.4 115.3L106.9 115.1H106.8Z" fill="#323740"/>
<path d="M101.4 114.1C101.4 114.3 101.7 114.3 101.8 114.2L102 113.9L102.4 113.7L102.8 113.5H103.1C103.3 113.5 103.4 113.3 103.2 113.1H103.1L102.2 112C102.2 111.9 102.1 111.8 102 111.9C101.9 112 101.6 112 101.4 112.2L100.8 112.5C100.779 112.519 100.762 112.542 100.75 112.568C100.738 112.594 100.732 112.622 100.732 112.65C100.732 112.678 100.738 112.706 100.75 112.732C100.762 112.758 100.779 112.781 100.8 112.8L101.3 114.2L101.4 114.1Z" fill="#323740"/>
<path d="M103.3 119.3C103.4 119.1 103.3 118.9 103.1 118.9H102.8C102.722 118.9 102.646 118.882 102.576 118.847C102.507 118.813 102.446 118.762 102.4 118.7L102 118.5L101.8 118.2C101.7 118.1 101.4 118.1 101.4 118.3V118.5L100.9 119.8C100.8 119.9 100.9 120 100.9 120.1L101.5 120.5L102.1 120.7C102.1 120.727 102.11 120.752 102.129 120.771C102.148 120.789 102.173 120.8 102.2 120.8C102.226 120.8 102.252 120.789 102.271 120.771C102.289 120.752 102.3 120.727 102.3 120.7L103.3 119.5V119.3Z" fill="#323740"/>
<path d="M123.2 125.3C126.79 125.3 129.7 122.39 129.7 118.8C129.7 115.21 126.79 112.3 123.2 112.3C119.61 112.3 116.7 115.21 116.7 118.8C116.7 122.39 119.61 125.3 123.2 125.3Z" fill="#FDCA59"/>
<path d="M99.5 136.8H80.2C79.5373 136.8 79 137.337 79 138V148.61C79 149.273 79.5373 149.81 80.2 149.81H99.5C100.163 149.81 100.7 149.273 100.7 148.61V138C100.7 137.337 100.163 136.8 99.5 136.8Z" fill="#9DE4D1"/>
<path d="M109.2 149.8H128.5C129.163 149.8 129.7 149.263 129.7 148.6V137.99C129.7 137.327 129.163 136.79 128.5 136.79H109.2C108.537 136.79 108 137.327 108 137.99V148.6C108 149.263 108.537 149.8 109.2 149.8Z" fill="#9DE4D1"/>
<path d="M113.9 149.8H123.8C123.36 148.844 122.655 148.035 121.769 147.468C120.882 146.9 119.852 146.599 118.8 146.6C117.762 146.606 116.748 146.911 115.879 147.479C115.01 148.046 114.323 148.852 113.9 149.8Z" fill="#747F8D"/>
<path d="M84.8999 149.8H94.6999C94.2669 148.865 93.5755 148.074 92.7073 147.519C91.839 146.964 90.8302 146.669 89.7999 146.669C88.7696 146.669 87.7608 146.964 86.8925 147.519C86.0243 148.074 85.3329 148.865 84.8999 149.8Z" fill="#747F8D"/>
<path d="M118.4 149.2L117 149.8L113.4 141.4L114.3 141L118.4 149.2Z" fill="#747F8D"/>
<path d="M91.1 149.5L89.6 149.2L91.7 140.3L92.7 140.5L91.1 149.5Z" fill="#747F8D"/>
<path d="M83.3 161.7C85.6748 161.7 87.6 159.775 87.6 157.4C87.6 155.025 85.6748 153.1 83.3 153.1C80.9252 153.1 79 155.025 79 157.4C79 159.775 80.9252 161.7 83.3 161.7Z" fill="#747F8D"/>
<path d="M96.4 161.7C98.7748 161.7 100.7 159.775 100.7 157.4C100.7 155.025 98.7748 153.1 96.4 153.1C94.0252 153.1 92.1 155.025 92.1 157.4C92.1 159.775 94.0252 161.7 96.4 161.7Z" fill="#747F8D"/>
<path d="M112.3 161.7C114.675 161.7 116.6 159.775 116.6 157.4C116.6 155.025 114.675 153.1 112.3 153.1C109.925 153.1 108 155.025 108 157.4C108 159.775 109.925 161.7 112.3 161.7Z" fill="#62B47A"/>
<path d="M125.4 161.7C127.775 161.7 129.7 159.775 129.7 157.4C129.7 155.025 127.775 153.1 125.4 153.1C123.025 153.1 121.1 155.025 121.1 157.4C121.1 159.775 123.025 161.7 125.4 161.7Z" fill="#E46565"/>
<path d="M97.5999 133.5H89.0999C87.5999 124 79.5999 116 70.3999 114.1C71.7784 113.786 73.1862 113.618 74.5999 113.6C85.4999 113.6 95.8999 122.6 97.5999 133.5Z" fill="#7A8EC7"/>
<path d="M102 179.5C111.7 179.5 118.3 171.6 116.7 161.9C115.1 152.2 106 144.3 96.2999 144.3H89.4999L95.0999 179.5H102Z" fill="#A0B2DC"/>
<path d="M101.9 145.2H90.9999L89.0999 133.5H99.9999L101.9 145.2Z" fill="#7A8EC7"/>
<path d="M101.9 145.2H99.4999L97.5999 133.5H99.9999L101.9 145.2Z" fill="#A0B2DC"/>
<path d="M106.24 174.846C112.308 168.271 110.975 157.172 103.263 150.056C95.5511 142.94 84.3808 142.501 78.3133 149.076C72.2458 155.652 73.5788 166.751 81.2905 173.867C89.0023 180.983 100.173 181.422 106.24 174.846Z" fill="#4B586D"/>
<path d="M99.3319 168.472C102.403 165.144 101.734 159.531 97.8376 155.935C93.9412 152.34 88.2928 152.123 85.2216 155.451C82.1504 158.779 82.8193 164.392 86.7158 167.988C90.6123 171.583 96.2607 171.8 99.3319 168.472Z" fill="#404B5D"/>
<path d="M97.6955 170.177C100.754 169.224 102.088 164.776 100.676 160.241C99.2633 155.706 95.639 152.802 92.5807 153.755C89.5224 154.707 88.1881 159.156 89.6005 163.69C91.0129 168.225 94.6372 171.129 97.6955 170.177Z" fill="#313A49"/>
<path d="M66.7999 179.5C76.4999 179.5 83.0999 171.6 81.5999 161.9C80.0999 152.2 70.7999 144.3 61.1999 144.3H54.2999L59.9999 179.5H66.7999Z" fill="#4B586D"/>
<path d="M60.3999 148.3H49.4999L47.0999 133.5H57.9999L60.3999 148.3Z" fill="#C2D2F1"/>
<path d="M59.9 145.2H57.5999L55.7 133.5H58L59.9 145.2Z" fill="#A0B2DC"/>
<path d="M71.1367 174.742C77.2042 168.167 75.8713 157.068 68.1595 149.951C60.4477 142.835 49.2774 142.397 43.2099 148.972C37.1424 155.547 38.4754 166.646 46.1871 173.763C53.8989 180.879 65.0692 181.317 71.1367 174.742Z" fill="#C2D2F1"/>
<path d="M55.6999 133.5H47.1999C45.1999 121.3 53.5999 111.3 65.7999 111.3H74.1999C62.0999 111.3 53.6999 121.3 55.6999 133.5Z" fill="#C2D2F1"/>
<path d="M63.3367 170.521C67.3817 166.138 66.4821 158.728 61.3274 153.972C56.1727 149.215 48.7148 148.913 44.6698 153.296C40.6248 157.68 41.5244 165.089 46.6791 169.846C51.8338 174.602 59.2917 174.905 63.3367 170.521Z" fill="#99ABD8"/>
<path d="M52.6999 169.3L48.0999 165.8C47.7999 165.6 47.9999 165.2 48.3999 165.2H56.1999C56.5999 165.2 56.6999 165.7 56.3999 166L53.1999 169.2C52.9999 169.3 52.7999 169.4 52.6999 169.3Z" fill="white"/>
<path d="M99.9999 133.5H97.5999C95.8999 122.6 85.4999 113.6 74.5999 113.6C63.6999 113.6 56.1999 122.6 57.9999 133.5H55.6999C53.6999 121.3 62.0999 111.3 74.1999 111.3C86.2999 111.3 97.9999 121.3 99.9999 133.5Z" fill="#E9EBED"/>
<path d="M99.9999 133.5H97.5999C95.8999 122.6 85.4999 113.6 74.5999 113.6C63.6999 113.6 56.1999 122.6 57.9999 133.5H55.6999C53.6999 121.3 62.0999 111.3 74.1999 111.3C86.2999 111.3 97.9999 121.3 99.9999 133.5Z" fill="#A0B2DC"/>
<path d="M291.1 156.5H290.6L258 142.3C257.719 142.152 257.497 141.913 257.37 141.623C257.243 141.332 257.218 141.007 257.3 140.7C257.353 140.533 257.442 140.38 257.561 140.251C257.679 140.122 257.825 140.02 257.987 139.954C258.149 139.887 258.323 139.857 258.498 139.865C258.673 139.873 258.845 139.919 259 140L291.6 154.1C291.754 154.155 291.895 154.241 292.015 154.353C292.134 154.464 292.23 154.599 292.295 154.749C292.361 154.899 292.395 155.06 292.396 155.224C292.397 155.388 292.364 155.55 292.3 155.7C292.201 155.937 292.035 156.139 291.821 156.282C291.607 156.424 291.357 156.5 291.1 156.5Z" fill="#E9EBED"/>
<path d="M182.5 176.9C177.298 176.887 172.266 175.048 168.281 171.703C164.297 168.359 161.614 163.721 160.7 158.6C159.5 151.9 158.8 145.4 158.1 139.8L157.9 137.5C157.483 133.867 155.744 130.514 153.015 128.08C150.286 125.646 146.757 124.301 143.1 124.3H140.9C140.582 124.3 140.276 124.174 140.051 123.949C139.826 123.723 139.7 123.418 139.7 123.1C139.686 122.934 139.707 122.767 139.761 122.61C139.815 122.453 139.901 122.308 140.014 122.186C140.127 122.064 140.264 121.966 140.416 121.9C140.569 121.833 140.734 121.799 140.9 121.8H143.1C147.371 121.796 151.494 123.364 154.685 126.203C157.875 129.043 159.909 132.957 160.4 137.2L160.6 139.5C161.3 145.1 162 151.5 163.2 158.2C163.698 161.257 164.933 164.147 166.797 166.621C168.661 169.095 171.099 171.078 173.9 172.4C176.727 173.793 179.848 174.485 182.999 174.415C186.15 174.345 189.237 173.517 192 172C202 166.5 211.7 166.1 221.6 166.1C221.766 166.086 221.933 166.107 222.09 166.161C222.247 166.215 222.392 166.301 222.514 166.414C222.636 166.527 222.734 166.664 222.8 166.816C222.867 166.969 222.901 167.134 222.9 167.3C222.9 167.645 222.763 167.975 222.519 168.219C222.275 168.463 221.945 168.6 221.6 168.6C209.8 168.6 201.8 169.5 193.2 174.2C189.91 175.966 186.234 176.894 182.5 176.9Z" fill="#42454D"/>
<path d="M290.4 160L289.2 159.7L279.6 155.6L276.1 158.1C275.931 158.229 275.734 158.314 275.525 158.349C275.316 158.384 275.101 158.367 274.9 158.3L254.8 149.6C254.655 149.535 254.524 149.442 254.415 149.326C254.306 149.211 254.221 149.074 254.165 148.926C254.109 148.777 254.084 148.618 254.09 148.459C254.096 148.3 254.133 148.144 254.2 148C254.255 147.846 254.341 147.705 254.453 147.585C254.564 147.466 254.699 147.37 254.849 147.305C254.999 147.239 255.16 147.205 255.324 147.204C255.487 147.203 255.649 147.236 255.8 147.3L275.2 155.7L278.7 153.1C278.895 152.987 279.113 152.919 279.338 152.901C279.564 152.884 279.79 152.918 280 153L290.2 157.4C290.265 157.432 290.336 157.45 290.408 157.452C290.481 157.454 290.553 157.44 290.619 157.412C290.686 157.383 290.745 157.341 290.794 157.287C290.842 157.233 290.878 157.169 290.9 157.1C290.932 157.035 290.95 156.964 290.952 156.892C290.954 156.819 290.94 156.747 290.912 156.681C290.883 156.614 290.84 156.555 290.787 156.506C290.733 156.458 290.669 156.421 290.6 156.4L258 142.3C257.719 142.152 257.497 141.913 257.37 141.623C257.243 141.332 257.218 141.007 257.3 140.7C257.353 140.533 257.442 140.38 257.561 140.251C257.679 140.122 257.825 140.02 257.987 139.954C258.149 139.887 258.323 139.857 258.498 139.865C258.673 139.873 258.845 139.919 259 140L291.6 154.1C292.227 154.396 292.736 154.894 293.047 155.515C293.357 156.135 293.451 156.841 293.313 157.52C293.174 158.2 292.812 158.814 292.284 159.263C291.756 159.713 291.093 159.972 290.4 160Z" fill="#DCC591"/>
<path d="M250.5 161.2L245.6 159.1L248.9 151.5L253.8 153.6C253.937 153.649 254.058 153.735 254.15 153.847C254.242 153.96 254.301 154.096 254.322 154.24C254.342 154.384 254.323 154.531 254.266 154.665C254.21 154.799 254.118 154.914 254 155C253.194 155.612 252.56 156.421 252.157 157.349C251.754 158.277 251.597 159.294 251.7 160.3C251.746 160.457 251.744 160.624 251.692 160.779C251.641 160.934 251.544 161.069 251.413 161.167C251.282 161.265 251.125 161.321 250.962 161.327C250.798 161.333 250.637 161.288 250.5 161.2Z" fill="#4F5660"/>
<path d="M254.9 155.8L227.5 144C225.047 142.923 223.116 140.925 222.124 138.436C221.133 135.948 221.16 133.169 222.2 130.7C222.722 129.464 223.485 128.345 224.445 127.408C225.404 126.47 226.541 125.733 227.788 125.24C229.036 124.746 230.369 124.506 231.71 124.534C233.052 124.561 234.374 124.856 235.6 125.4L265.5 138.3C266.163 138.596 266.749 139.041 267.212 139.601C267.674 140.161 268 140.82 268.165 141.527C268.33 142.235 268.328 142.97 268.161 143.677C267.993 144.384 267.665 145.042 267.2 145.6L259.8 154.7C259.221 155.401 258.425 155.889 257.538 156.088C256.651 156.287 255.723 156.186 254.9 155.8Z" fill="#829CB8"/>
<path d="M231.2 174.2V175.2C231.196 175.488 231.11 175.769 230.951 176.009C230.792 176.25 230.568 176.439 230.304 176.555C230.04 176.671 229.749 176.709 229.464 176.663C229.18 176.618 228.915 176.492 228.7 176.3L220.1 169.8C219.725 169.516 219.412 169.16 219.178 168.752C218.944 168.345 218.795 167.894 218.739 167.427C218.683 166.961 218.721 166.488 218.852 166.036C218.983 165.585 219.203 165.164 219.5 164.8L232.2 149.4C232.452 149.122 232.633 148.786 232.725 148.422C232.818 148.058 232.82 147.676 232.731 147.311C232.642 146.946 232.465 146.609 232.216 146.328C231.966 146.047 231.652 145.831 231.3 145.7L227.6 144L229 141L252.1 150.9L253.1 155L251.7 154.4C251.433 154.323 251.148 154.34 250.893 154.449C250.637 154.559 250.428 154.753 250.3 155L248.1 160.1C247.903 160.518 247.562 160.849 247.138 161.033C246.715 161.217 246.239 161.241 245.8 161.1L243.8 160.2C243.331 160.012 242.81 160 242.332 160.165C241.854 160.33 241.452 160.662 241.2 161.1C239.1 164.733 236.355 167.952 233.1 170.6C232.021 171.506 231.339 172.798 231.2 174.2Z" fill="#829CB8"/>
<path d="M281.4 141.2C281.877 141.2 282.335 141.39 282.673 141.727C283.01 142.065 283.2 142.523 283.2 143V179.5H279.5V143C279.5 142.755 279.549 142.512 279.646 142.287C279.743 142.062 279.884 141.859 280.062 141.69C280.24 141.522 280.45 141.392 280.68 141.307C280.91 141.223 281.155 141.186 281.4 141.2Z" fill="#747F8D"/>
<path d="M218.6 175.5H288.3C288.724 175.5 289.131 175.669 289.431 175.969C289.731 176.269 289.9 176.676 289.9 177.1V179.5H217V177.1C217 176.676 217.169 176.269 217.469 175.969C217.769 175.669 218.176 175.5 218.6 175.5Z" fill="#747F8D"/>
<path d="M221.9 131.3C221.004 133.744 221.086 136.44 222.13 138.824C223.173 141.209 225.097 143.099 227.5 144.1L231.2 145.7C231.552 145.831 231.866 146.047 232.116 146.328C232.365 146.609 232.542 146.946 232.631 147.311C232.72 147.676 232.718 148.058 232.625 148.422C232.533 148.786 232.352 149.122 232.1 149.4L219.4 164.8L220.6 165.6C221.079 165.966 221.683 166.13 222.282 166.055C222.88 165.98 223.426 165.673 223.8 165.2L237.5 149.4C238.435 148.357 239.097 147.099 239.429 145.738C239.76 144.378 239.75 142.956 239.4 141.6L238.8 139.3C238.605 138.689 238.652 138.027 238.931 137.451C239.21 136.874 239.7 136.426 240.3 136.2L242.4 135.2C243.127 134.897 243.745 134.382 244.173 133.722C244.601 133.061 244.82 132.287 244.8 131.5V129.4L235.5 125.3C234.218 124.757 232.838 124.481 231.445 124.492C230.052 124.502 228.677 124.797 227.402 125.359C226.128 125.921 224.983 126.738 224.036 127.76C223.09 128.782 222.363 129.987 221.9 131.3Z" fill="#697E99"/>
<path d="M258.209 142.494L248.572 138.324C247.609 137.907 246.491 138.35 246.074 139.313L246.038 139.395C245.622 140.358 246.064 141.477 247.027 141.894L256.664 146.064C257.627 146.48 258.745 146.038 259.162 145.075L259.198 144.992C259.615 144.029 259.172 142.91 258.209 142.494Z" fill="#FFD836"/>
<path d="M29.6 62.9H53.2C53.4386 62.9 53.6676 62.9948 53.8363 63.1636C54.0051 63.3324 54.0999 63.5613 54.0999 63.8V65.6H28.7V63.8C28.7 63.5613 28.7948 63.3324 28.9636 63.1636C29.1323 62.9948 29.3613 62.9 29.6 62.9Z" fill="#9AA2AC"/>
<path d="M47 44.8H46.9C46.7773 44.7568 46.6719 44.675 46.5998 44.5668C46.5277 44.4586 46.4926 44.3298 46.5 44.2C46.8074 43.4048 46.9105 42.5453 46.8 41.7C46.7616 41.6352 46.7422 41.5608 46.7442 41.4855C46.7462 41.4101 46.7695 41.3369 46.8113 41.2742C46.8531 41.2115 46.9118 41.1619 46.9805 41.131C47.0493 41.1002 47.1254 41.0895 47.2 41.1C47.3269 41.1059 47.4498 41.1463 47.5555 41.2168C47.6612 41.2873 47.7457 41.3852 47.8 41.5C47.9159 42.5099 47.8136 43.533 47.5 44.5C47.4431 44.583 47.369 44.6528 47.2827 44.7045C47.1964 44.7563 47.1 44.7889 47 44.8Z" fill="#8A939F"/>
<path d="M42.8999 44.3C42.6999 44.3 42.5999 44.3 42.4999 44.1C42.4605 44.0475 42.4318 43.9877 42.4155 43.9241C42.3992 43.8605 42.3956 43.7943 42.4049 43.7293C42.4142 43.6643 42.4362 43.6018 42.4697 43.5453C42.5031 43.4888 42.5474 43.4394 42.5999 43.4C43.2599 42.979 43.7544 42.3433 43.9999 41.6C44.0074 41.5338 44.0313 41.4705 44.0695 41.4158C44.1077 41.3612 44.1589 41.317 44.2185 41.2872C44.2781 41.2574 44.3442 41.2429 44.4108 41.2452C44.4774 41.2474 44.5424 41.2663 44.5999 41.3C44.8999 41.3 44.9999 41.6 44.8999 41.9C44.6198 42.8419 44.0182 43.6558 43.1999 44.2L42.8999 44.3Z" fill="#8A939F"/>
<path d="M39.8999 41.9C39.7673 41.9 39.6401 41.8473 39.5463 41.7536C39.4526 41.6598 39.3999 41.5326 39.3999 41.4C39.3999 41.2674 39.4526 41.1402 39.5463 41.0465C39.6401 40.9527 39.7673 40.9 39.8999 40.9C40.6814 40.7913 41.4311 40.5187 42.0999 40.1C42.206 40.0204 42.3393 39.9863 42.4706 40.005C42.6019 40.0238 42.7203 40.0939 42.7999 40.2C42.8999 40.5 42.8999 40.8 42.5999 40.9C41.8047 41.4672 40.8727 41.8123 39.8999 41.9Z" fill="#8A939F"/>
<path d="M38.7 39C38.5674 39 38.4402 38.9473 38.3465 38.8536C38.2527 38.7598 38.2 38.6326 38.2 38.5C38.1844 38.4399 38.1831 38.3769 38.1961 38.3161C38.2091 38.2554 38.2361 38.1985 38.2749 38.1499C38.3137 38.1014 38.3633 38.0626 38.4198 38.0366C38.4762 38.0106 38.5379 37.998 38.6 38L41 37.6C41.0575 37.5663 41.1225 37.5474 41.1891 37.5452C41.2557 37.5429 41.3218 37.5574 41.3814 37.5872C41.441 37.617 41.4923 37.6612 41.5304 37.7159C41.5686 37.7705 41.5925 37.8338 41.6 37.9C41.6333 38.0194 41.621 38.1469 41.5656 38.2578C41.5101 38.3687 41.4155 38.455 41.3 38.5L38.7 39Z" fill="#8A939F"/>
<path d="M37.1999 36.2C36.9999 36.2 36.7999 36.1 36.7999 35.9C36.7999 35.7 36.7999 35.3 37.0999 35.3C37.9824 34.9249 38.9477 34.787 39.8999 34.9C40.0325 34.9 40.1597 34.9527 40.2535 35.0465C40.3473 35.1402 40.3999 35.2674 40.3999 35.4C40.3999 35.5326 40.3473 35.6598 40.2535 35.7536C40.1597 35.8473 40.0325 35.9 39.8999 35.9C39.0546 35.7937 38.1961 35.8967 37.3999 36.2H37.1999Z" fill="#8A939F"/>
<path d="M35.4999 33.7C35.2999 33.7 35.0999 33.7 34.9999 33.5C34.9659 33.3762 34.9665 33.2454 35.0018 33.122C35.0371 32.9985 35.1056 32.8871 35.1999 32.8C36.1212 32.3161 37.1841 32.1744 38.1999 32.4C38.4999 32.5 38.6999 32.8 38.5999 33C38.4999 33.2 38.2999 33.5 37.9999 33.4C37.2233 33.1986 36.3989 33.3062 35.6999 33.7H35.4999Z" fill="#8A939F"/>
<path d="M50.1 42.9C49.9674 42.9 49.8402 42.8473 49.7464 42.7536C49.6527 42.6598 49.6 42.5326 49.6 42.4C49.5783 41.6109 49.2564 40.8599 48.7 40.3C48.654 40.2475 48.6189 40.1864 48.5965 40.1203C48.5741 40.0542 48.565 39.9843 48.5697 39.9146C48.579 39.774 48.6439 39.6428 48.75 39.55C48.8561 39.4572 48.9947 39.4103 49.1353 39.4197C49.276 39.429 49.4072 39.4939 49.5 39.6C50.1628 40.3488 50.5508 41.3011 50.6 42.3C50.602 42.4432 50.5527 42.5824 50.461 42.6925C50.3693 42.8025 50.2412 42.8761 50.1 42.9Z" fill="#8A939F"/>
<path d="M51.6 40C51.4957 40.0086 51.3914 39.9842 51.3017 39.9304C51.212 39.8766 51.1415 39.796 51.1 39.7C50.8674 38.9237 50.3726 38.2521 49.7 37.8C49.4 37.7 49.4 37.3 49.5 37.1C49.5871 37.0057 49.6985 36.9371 49.8219 36.9018C49.9454 36.8666 50.0762 36.8659 50.2 36.9C51.0904 37.5023 51.758 38.3808 52.1 39.4C52.2 39.6 52 39.9 51.8 40H51.6Z" fill="#8A939F"/>
<path d="M51.7999 36.2H51.5C51.178 35.991 50.8177 35.8481 50.4401 35.7794C50.0624 35.7108 49.6749 35.7178 49.2999 35.8C49.1731 35.794 49.0502 35.7537 48.9445 35.6832C48.8388 35.6127 48.7543 35.5148 48.7 35.4C48.7 35.1 48.7999 34.8 49.0999 34.8C49.6206 34.6874 50.1598 34.6918 50.6786 34.8129C51.1974 34.9339 51.6828 35.1686 52.0999 35.5C52.206 35.5796 52.2762 35.698 52.2949 35.8293C52.3137 35.9606 52.2795 36.0939 52.2 36.2H51.7999Z" fill="#8A939F"/>
<path d="M50.1999 33.4H49.7999C49.5134 33.1965 49.1872 33.0557 48.8426 32.9868C48.4979 32.9178 48.1427 32.9224 47.7999 33C47.5999 33 47.2999 32.8 47.2999 32.6C47.2615 32.5352 47.2422 32.4608 47.2442 32.3855C47.2462 32.3101 47.2694 32.2369 47.3112 32.1742C47.353 32.1115 47.4117 32.0619 47.4804 32.0311C47.5492 32.0002 47.6253 31.9895 47.6999 32C48.1896 31.9109 48.6926 31.9272 49.1754 32.048C49.6583 32.1687 50.1098 32.391 50.4999 32.7C50.6999 32.8 50.6999 33.2 50.5999 33.4H50.1999Z" fill="#8A939F"/>
<path d="M147.2 97.4C148.415 97.4 149.4 96.415 149.4 95.2C149.4 93.985 148.415 93 147.2 93C145.985 93 145 93.985 145 95.2C145 96.415 145.985 97.4 147.2 97.4Z" fill="#9BA3AD"/>
<path d="M166.3 116.3H161C160.834 116.314 160.667 116.293 160.51 116.239C160.353 116.185 160.208 116.099 160.086 115.986C159.964 115.873 159.866 115.736 159.8 115.584C159.733 115.431 159.699 115.266 159.7 115.1C159.7 114.755 159.837 114.425 160.081 114.181C160.325 113.937 160.655 113.8 161 113.8H166.3C171.4 113.8 174.9 111.9 176.5 108.4C177.052 107.129 177.277 105.741 177.155 104.361C177.032 102.981 176.567 101.654 175.8 100.5C174.975 99.2608 173.861 98.2403 172.555 97.5261C171.249 96.812 169.789 96.4256 168.3 96.4H147.2C146.882 96.4 146.577 96.2736 146.351 96.0486C146.126 95.8235 146 95.5183 146 95.2C145.999 94.8719 146.122 94.5555 146.345 94.3144C146.567 94.0733 146.873 93.9253 147.2 93.9H168.3C170.217 93.9052 172.101 94.3935 173.779 95.3199C175.457 96.2463 176.874 97.5808 177.9 99.2C178.917 100.678 179.535 102.394 179.692 104.182C179.85 105.969 179.543 107.767 178.8 109.4C176.8 113.9 172.4 116.3 166.3 116.3Z" fill="#585F6A"/>
<path d="M228.3 138.5C229.681 138.5 230.8 137.381 230.8 136C230.8 134.619 229.681 133.5 228.3 133.5C226.919 133.5 225.8 134.619 225.8 136C225.8 137.381 226.919 138.5 228.3 138.5Z" fill="#626B7A"/>
<path d="M498 166.2L493.3 164.7C493.174 164.655 493.059 164.586 492.96 164.496C492.861 164.406 492.782 164.298 492.726 164.176C492.67 164.055 492.639 163.924 492.634 163.791C492.63 163.657 492.652 163.525 492.7 163.4L498.3 145.3C498.366 145.089 498.5 144.906 498.681 144.78C498.862 144.653 499.079 144.59 499.3 144.6H504.2L503.7 166.2H498Z" fill="#A2A9B3"/>
<path d="M503.7 166.2L498 164.4L499.5 153.4L504.2 144.6L509.1 146.1C509.186 146.13 509.265 146.18 509.329 146.245C509.393 146.31 509.442 146.39 509.471 146.476C509.5 146.563 509.508 146.656 509.496 146.746C509.484 146.837 509.451 146.924 509.4 147L504.6 155.4L503.7 166.2Z" fill="#9099A4"/>
<path d="M364.4 91.2H359.3C358.664 90.8063 357.945 90.5666 357.2 90.5C356.45 90.4781 355.709 90.6623 355.056 91.0326C354.404 91.4028 353.866 91.945 353.5 92.6C350.016 98.7323 345.965 104.524 341.4 109.9C341.224 110.128 340.996 110.311 340.735 110.433C340.474 110.554 340.188 110.612 339.9 110.6C339.435 110.607 338.98 110.467 338.6 110.2C338.199 109.836 337.954 109.331 337.917 108.79C337.88 108.25 338.053 107.716 338.4 107.3C342.766 102.133 346.649 96.5762 350 90.7C350.708 89.3772 351.783 88.2868 353.096 87.5596C354.408 86.8324 355.903 86.4992 357.4 86.6C358.878 86.645 360.314 87.0987 361.55 87.9107C362.786 88.7227 363.772 89.8613 364.4 91.2Z" fill="#EDCB7F"/>
<path d="M336.6 113.2C336.338 113.187 336.09 113.08 335.9 112.9C335.717 112.713 335.614 112.462 335.614 112.2C335.614 111.938 335.717 111.687 335.9 111.5L338.9 108.4C339.101 108.215 339.359 108.104 339.632 108.086C339.905 108.068 340.176 108.143 340.4 108.3C340.583 108.487 340.686 108.738 340.686 109C340.686 109.262 340.583 109.513 340.4 109.7L337.3 112.9C337.212 112.998 337.104 113.076 336.983 113.128C336.862 113.18 336.731 113.204 336.6 113.2Z" fill="#8B939E"/>
<path d="M339 113.3H338.7C338.574 113.255 338.459 113.186 338.36 113.096C338.261 113.006 338.182 112.898 338.126 112.776C338.07 112.655 338.039 112.524 338.034 112.391C338.03 112.258 338.052 112.125 338.1 112L339.1 109C339.17 108.751 339.335 108.538 339.559 108.408C339.782 108.277 340.048 108.238 340.3 108.3C340.545 108.408 340.747 108.594 340.874 108.83C341 109.065 341.045 109.336 341 109.6L340 112.6C339.952 112.821 339.822 113.016 339.637 113.145C339.451 113.275 339.224 113.33 339 113.3Z" fill="#8B939E"/>
<path d="M335.9 111.4C335.72 111.396 335.545 111.349 335.388 111.262C335.231 111.175 335.098 111.05 335 110.9C334.898 110.661 334.893 110.391 334.986 110.149C335.08 109.906 335.264 109.709 335.5 109.6L338.6 108C338.712 107.893 338.847 107.813 338.994 107.767C339.142 107.721 339.298 107.71 339.451 107.735C339.604 107.759 339.749 107.819 339.874 107.909C340 107.999 340.103 108.117 340.176 108.254C340.248 108.391 340.288 108.542 340.292 108.697C340.295 108.852 340.263 109.005 340.198 109.145C340.132 109.285 340.035 109.408 339.914 109.505C339.793 109.601 339.651 109.668 339.5 109.7L336.4 111.3L335.9 111.4Z" fill="#8B939E"/>
<path d="M362.4 93.3L368.3 97.2C369.628 98.0728 371.132 98.6418 372.705 98.8665C374.278 99.0912 375.881 98.9661 377.4 98.5C376.934 100.019 376.809 101.622 377.033 103.195C377.258 104.768 377.827 106.272 378.7 107.6L382.6 113.5L376.8 109.6C375.463 108.706 373.941 108.124 372.348 107.899C370.756 107.674 369.132 107.811 367.6 108.3C368.089 106.767 368.226 105.144 368.001 103.552C367.776 101.959 367.194 100.437 366.3 99.1L362.4 93.3Z" fill="#D6B21D"/>
<path d="M575.9 53.8H571.3L572 62.1H575.2L575.9 53.8Z" fill="#9099A4"/>
<path d="M319.2 20.3L323.3 18.5C323.453 18.4432 323.585 18.3409 323.678 18.2068C323.772 18.0727 323.822 17.9133 323.822 17.75C323.822 17.5867 323.772 17.4273 323.678 17.2932C323.585 17.1592 323.453 17.0568 323.3 17L319.2 15.2L318.8 14.8L317 10.7C316.943 10.5469 316.841 10.4149 316.707 10.3216C316.573 10.2284 316.413 10.1784 316.25 10.1784C316.087 10.1784 315.927 10.2284 315.793 10.3216C315.659 10.4149 315.557 10.5469 315.5 10.7L313.6 14.8L313.2 15.2L309.1 17C308.976 17.0821 308.875 17.1936 308.804 17.3244C308.734 17.4553 308.697 17.6015 308.697 17.75C308.697 17.8985 308.734 18.0447 308.804 18.1756C308.875 18.3065 308.976 18.4179 309.1 18.5L313.2 20.3L313.6 20.7L315.5 24.8C315.557 24.9531 315.659 25.0852 315.793 25.1784C315.927 25.2717 316.087 25.3216 316.25 25.3216C316.413 25.3216 316.573 25.2717 316.707 25.1784C316.841 25.0852 316.943 24.9531 317 24.8L318.8 20.7C318.9 20.6 319 20.4 319.2 20.3Z" fill="#AEC7FF"/>
<path d="M393.6 52.5L397.9 54.2C398.058 54.2646 398.231 54.2829 398.399 54.2528C398.567 54.2228 398.723 54.1456 398.849 54.0303C398.974 53.915 399.065 53.7664 399.109 53.6017C399.154 53.4369 399.151 53.263 399.1 53.1L397.4 48.7C397.347 48.6088 397.32 48.5053 397.32 48.4C397.32 48.2947 397.347 48.1912 397.4 48.1L399.1 43.7C399.151 43.5371 399.154 43.3631 399.109 43.1984C399.065 43.0337 398.974 42.885 398.849 42.7697C398.723 42.6544 398.567 42.5772 398.399 42.5472C398.231 42.5171 398.058 42.5355 397.9 42.6L393.6 44.3C393.509 44.3527 393.405 44.3804 393.3 44.3804C393.195 44.3804 393.091 44.3527 393 44.3L388.6 42.6C388.447 42.5062 388.266 42.4667 388.088 42.4879C387.91 42.509 387.744 42.5896 387.617 42.7166C387.49 42.8436 387.409 43.0097 387.388 43.1881C387.367 43.3665 387.406 43.5468 387.5 43.7L389.2 48.1V48.7L387.5 53.1C387.46 53.2522 387.46 53.4123 387.501 53.5643C387.542 53.7163 387.622 53.8549 387.734 53.9663C387.845 54.0776 387.984 54.1578 388.136 54.1988C388.288 54.2398 388.448 54.2402 388.6 54.2L393 52.5C393.091 52.4474 393.195 52.4196 393.3 52.4196C393.405 52.4196 393.509 52.4474 393.6 52.5Z" fill="#FFD836"/>
<path d="M151.3 32.5C151.3 31.4507 150.472 30.6 149.45 30.6C148.428 30.6 147.6 31.4507 147.6 32.5V36.03C147.6 37.0793 148.428 37.93 149.45 37.93C150.472 37.93 151.3 37.0793 151.3 36.03V32.5Z" fill="#3E70DD"/>
<path d="M151.3 49C151.3 47.9507 150.472 47.1 149.45 47.1C148.428 47.1 147.6 47.9507 147.6 49V52.53C147.6 53.5793 148.428 54.43 149.45 54.43C150.472 54.43 151.3 53.5793 151.3 52.53V49Z" fill="#3E70DD"/>
<path d="M159.4 44.4C160.449 44.4 161.3 43.5717 161.3 42.55C161.3 41.5283 160.449 40.7 159.4 40.7H155.87C154.821 40.7 153.97 41.5283 153.97 42.55C153.97 43.5717 154.821 44.4 155.87 44.4H159.4Z" fill="#3E70DD"/>
<path d="M142.9 44.4C143.949 44.4 144.8 43.5717 144.8 42.55C144.8 41.5283 143.949 40.7 142.9 40.7H139.37C138.321 40.7 137.47 41.5283 137.47 42.55C137.47 43.5717 138.321 44.4 139.37 44.4H142.9Z" fill="#3E70DD"/>
<path d="M640.176 84.3554C640.761 83.7696 640.777 82.8357 640.211 82.2694C639.645 81.7032 638.711 81.719 638.125 82.3048L636.138 84.2917C635.552 84.8775 635.536 85.8115 636.103 86.3777C636.669 86.944 637.603 86.9281 638.189 86.3423L640.176 84.3554Z" fill="#51BC9D"/>
<path d="M630.965 93.6554C631.551 93.0696 631.566 92.1357 631 91.5694C630.434 91.0032 629.5 91.019 628.914 91.6048L626.927 93.5917C626.341 94.1775 626.326 95.1114 626.892 95.6777C627.458 96.244 628.392 96.2281 628.978 95.6424L630.965 93.6554Z" fill="#51BC9D"/>
<path d="M638.239 95.5702C638.825 96.156 639.759 96.1719 640.325 95.6056C640.891 95.0394 640.876 94.1054 640.29 93.5197L638.303 91.5327C637.717 90.9469 636.783 90.9311 636.217 91.4973C635.651 92.0636 635.666 92.9975 636.252 93.5833L638.239 95.5702Z" fill="#51BC9D"/>
<path d="M628.95 86.3703C629.536 86.9561 630.47 86.9719 631.036 86.4056C631.602 85.8394 631.586 84.9054 631.001 84.3196L629.014 82.3327C628.428 81.7469 627.494 81.7311 626.928 82.2973C626.361 82.8636 626.377 83.7975 626.963 84.3833L628.95 86.3703Z" fill="#51BC9D"/>
<path d="M660 179.5H0V188H660V179.5Z" fill="#373E5B"/>
</g>
<defs>
<clipPath id="clip0">
<rect width="660" height="188" fill="white"/>
</clipPath>
</defs>
</svg>
