<svg width="258" height="142" viewBox="0 0 258 142" fill="none" xmlns="http://www.w3.org/2000/svg">
<path fill-rule="evenodd" clip-rule="evenodd" d="M183.404 75.4302C183.404 106.194 158.436 131.134 127.636 131.134C96.8367 131.134 71.8687 106.194 71.8687 75.4302C71.8687 44.6662 96.8367 19.7267 127.636 19.7267C158.436 19.7267 183.404 44.6662 183.404 75.4302Z" fill="#7A8EC7"/>
<path fill-rule="evenodd" clip-rule="evenodd" d="M164.76 55.1258C159.221 60.6585 150.243 60.6585 144.704 55.1258C139.168 49.5931 139.168 40.626 144.704 35.0933C150.243 29.5632 159.221 29.5632 164.76 35.0933C170.299 40.626 170.299 49.5931 164.76 55.1258ZM176.794 23.0759C164.61 10.9059 144.857 10.9059 132.673 23.0759C122.406 33.3288 120.826 48.9383 127.86 60.8821L75.8734 112.809C74.7677 113.916 74.7677 115.71 75.8734 116.817L83.5028 124.438C84.6112 125.545 86.4067 125.545 87.515 124.438L92.5276 119.428L108.571 135.456C109.679 136.56 111.475 136.56 112.583 135.456L118.599 129.444C119.707 128.34 119.707 126.544 118.599 125.439L102.555 109.415L109.074 102.904L125.117 118.929C126.226 120.036 128.021 120.036 129.129 118.929L135.145 112.92C136.253 111.813 136.253 110.019 135.145 108.912L119.102 92.8873L139.647 72.3656C151.507 78.9213 166.729 77.1989 176.794 67.1458C188.977 54.9759 188.977 35.2458 176.794 23.0759" fill="#FFCD85"/>
<path fill-rule="evenodd" clip-rule="evenodd" d="M73.4571 66.9273C74.6813 66.9273 75.7791 66.07 76.0345 64.8236C76.5163 62.4648 77.1718 60.1139 77.9774 57.8393C78.4644 56.4693 77.7457 54.9677 76.3767 54.4839C76.253 54.4392 76.1266 54.455 76.0029 54.4287C74.7445 54.1841 73.4597 54.8389 73.0175 56.0827C72.1276 58.5861 71.4063 61.1737 70.8745 63.7717C70.6086 65.0787 71.3852 66.3172 72.6147 66.7432C72.7226 66.78 72.8121 66.851 72.928 66.8747C73.1043 66.9115 73.2834 66.9273 73.4571 66.9273ZM180.31 75.43C180.31 104.44 156.679 128.044 127.636 128.044C126.182 128.044 125.003 129.222 125.003 130.673C125.003 130.789 125.056 130.891 125.071 131.005C125.24 132.293 126.301 133.303 127.636 133.303C159.583 133.303 185.575 107.341 185.575 75.43C185.575 74.0941 184.564 73.037 183.274 72.8661C183.161 72.8529 183.061 72.8003 182.942 72.8003C181.489 72.8003 180.31 73.9784 180.31 75.43Z" fill="#0F1011"/>
<path fill-rule="evenodd" clip-rule="evenodd" d="M134.533 24.934C139.927 19.5459 147.101 16.5771 154.733 16.5771C162.363 16.5771 169.537 19.5459 174.931 24.934C180.328 30.3221 183.297 37.4879 183.297 45.1085C183.297 52.7318 180.328 59.8976 174.931 65.2857C163.795 76.4116 145.672 76.4116 134.533 65.2857C123.397 54.1624 123.397 36.0573 134.533 24.934V24.934ZM94.3901 117.571C93.8952 117.076 93.2265 116.8 92.5288 116.8C91.8312 116.8 91.1599 117.076 90.6676 117.571L85.6524 122.577C85.5734 122.659 85.4444 122.659 85.3654 122.577L77.736 114.957C77.6675 114.888 77.6675 114.738 77.736 114.67L127.443 65.0175C128.459 66.4059 129.557 67.7523 130.81 69.004C132.258 70.4529 133.822 71.7125 135.446 72.8406L117.239 91.0271C116.212 92.0553 116.212 93.7199 117.239 94.7454L133.282 110.773C133.351 110.839 133.351 110.991 133.282 111.06L127.267 117.068C127.185 117.15 127.056 117.147 126.977 117.068L110.934 101.043C109.907 100.018 108.241 100.018 107.211 101.043L100.693 107.554C99.666 108.583 99.666 110.244 100.693 111.273L116.739 127.3C116.807 127.366 116.805 127.518 116.739 127.587L110.723 133.596C110.644 133.674 110.513 133.677 110.434 133.596L94.3901 117.571V117.571ZM120.461 123.579L106.279 109.413L109.072 106.621L123.255 120.787C125.384 122.917 128.857 122.919 130.989 120.787L137.005 114.778C139.14 112.648 139.14 109.185 137.005 107.055L122.823 92.8863L140.161 75.5675C144.761 77.7554 149.739 78.8861 154.731 78.8861C163.395 78.8861 172.059 75.5938 178.653 69.004C180.036 67.6261 181.239 66.1377 182.331 64.5967C191.667 51.4118 190.464 33.0122 178.653 21.2157C166.662 9.23775 147.854 8.18853 134.62 17.9865C132.319 17.7104 129.989 17.5579 127.635 17.5579C107.295 17.5579 88.1955 28.4209 77.7939 45.9079C77.1199 47.0387 77.4332 48.4376 78.4205 49.2502C78.5231 49.3343 78.5942 49.4422 78.7127 49.5132C79.1339 49.763 79.5973 49.8813 80.0553 49.8813C80.9531 49.8813 81.8271 49.4211 82.3194 48.5954C91.7785 32.6941 109.144 22.8172 127.635 22.8172C128.199 22.8172 128.757 22.8461 129.318 22.8645C120.053 33.4172 118.466 48.3745 124.595 60.4261L82.4642 102.508C77.6096 94.4509 74.9638 85.1552 74.9638 75.4308C74.9638 73.9766 73.7844 72.8012 72.3311 72.8012C72.2127 72.8012 72.1126 72.8511 71.9994 72.8669C70.7094 73.0378 69.6985 74.0949 69.6985 75.4308C69.6985 86.5804 72.8445 97.2278 78.6232 106.345L74.0134 110.949C72.9788 111.983 72.4101 113.355 72.4101 114.815C72.4101 116.272 72.9788 117.644 74.0134 118.675L81.6428 126.298C83.7753 128.426 87.2451 128.423 89.3749 126.296L92.5288 123.148L106.711 137.314C107.775 138.379 109.178 138.91 110.578 138.91C111.979 138.91 113.379 138.379 114.446 137.314L120.461 131.305C120.648 131.116 120.804 130.905 120.962 130.698C121.664 129.759 122.065 128.636 122.065 127.442C122.065 125.983 121.493 124.61 120.461 123.579Z" fill="#0F1011"/>
<path fill-rule="evenodd" clip-rule="evenodd" d="M154.731 33.5805C157.69 33.5805 160.647 34.7059 162.898 36.9543C167.4 41.4509 167.4 48.7692 162.898 53.2659C158.396 57.7625 151.069 57.7652 146.565 53.2659C142.063 48.7692 142.063 41.4509 146.565 36.9543C148.816 34.7059 151.775 33.5805 154.731 33.5805V33.5805ZM142.842 56.9842C146.12 60.2607 150.427 61.8963 154.731 61.8963C159.038 61.8963 163.343 60.2607 166.62 56.9842C173.176 50.4364 173.176 39.7838 166.62 33.236C160.065 26.6856 149.4 26.6882 142.842 33.236C136.287 39.7838 136.287 50.4364 142.842 56.9842ZM50.8239 34.8761L47.8727 37.8239C46.846 38.8494 46.846 40.514 47.8727 41.5422C48.3887 42.055 49.0627 42.3127 49.734 42.3127C50.408 42.3127 51.0819 42.055 51.5953 41.5422L54.5465 38.5944C55.5759 37.5662 55.5759 35.9043 54.5465 34.8761C53.5171 33.8479 51.8533 33.8479 50.8239 34.8761ZM36.0756 49.6086L33.1243 52.5538C32.0976 53.5793 32.0976 55.2465 33.1243 56.2721C33.6377 56.7848 34.3143 57.0425 34.9856 57.0425C35.6596 57.0425 36.3336 56.7848 36.8469 56.2721L39.7981 53.3269C40.8275 52.3013 40.8275 50.6368 39.7981 49.6086C38.7714 48.5804 37.1049 48.5804 36.0756 49.6086V49.6086ZM51.5964 49.6086C50.567 48.5804 48.9005 48.5804 47.8738 49.6086C46.8444 50.6368 46.8444 52.3013 47.8738 53.3269L50.825 56.2721C51.3384 56.7848 52.0123 57.0425 52.6863 57.0425C53.3576 57.0425 54.0342 56.7848 54.5476 56.2721C55.5743 55.2465 55.5743 53.5793 54.5476 52.5538L51.5964 49.6086ZM36.8482 34.8761C35.8189 33.8479 34.155 33.8479 33.1257 34.8761C32.0963 35.9043 32.0963 37.5662 33.1257 38.5944L36.0769 41.5422C36.5902 42.055 37.2642 42.3127 37.9382 42.3127C38.6095 42.3127 39.2834 42.055 39.7994 41.5422C40.8262 40.514 40.8262 38.8494 39.7994 37.8239L36.8482 34.8761V34.8761Z" fill="#0F1011"/>
<mask id="mask0" mask-type="alpha" maskUnits="userSpaceOnUse" x="248" y="54" width="9" height="9">
<path d="M256.489 62.5714V54.3656H248.274V62.5714H256.489V62.5714Z" fill="white"/>
</mask>
<g mask="url(#mask0)">
<path fill-rule="evenodd" clip-rule="evenodd" d="M250.907 62.5714C251.581 62.5714 252.255 62.3137 252.768 61.8009L255.719 58.8531C256.746 57.8275 256.746 56.163 255.719 55.1348C254.69 54.1092 253.024 54.1092 251.997 55.1348L249.046 58.0826C248.016 59.1108 248.016 60.7727 249.046 61.8009C249.559 62.3137 250.233 62.5714 250.907 62.5714" fill="#0F1011"/>
</g>
<path fill-rule="evenodd" clip-rule="evenodd" d="M237.247 69.8688L234.296 72.814C233.27 73.8395 233.27 75.5067 234.296 76.5323C234.81 77.0451 235.486 77.3028 236.158 77.3028C236.831 77.3028 237.505 77.0451 238.019 76.5323L240.97 73.5871C241.999 72.5615 241.999 70.897 240.97 69.8688C239.943 68.8406 238.277 68.8406 237.247 69.8688" fill="#0F1011"/>
<mask id="mask1" mask-type="alpha" maskUnits="userSpaceOnUse" x="248" y="69" width="9" height="9">
<path d="M256.489 77.3022V69.0971H248.274V77.3022H256.489Z" fill="white"/>
</mask>
<g mask="url(#mask1)">
<path fill-rule="evenodd" clip-rule="evenodd" d="M252.768 69.8682C251.739 68.8401 250.072 68.8401 249.046 69.8682C248.016 70.8964 248.016 72.561 249.046 73.5865L251.997 76.5317C252.51 77.0445 253.184 77.3022 253.858 77.3022C254.529 77.3022 255.206 77.0445 255.719 76.5317C256.746 75.5062 256.746 73.839 255.719 72.8134L252.768 69.8682V69.8682Z" fill="#0F1011"/>
</g>
<path fill-rule="evenodd" clip-rule="evenodd" d="M238.019 55.1356C236.99 54.1074 235.326 54.1074 234.297 55.1356C233.267 56.1638 233.267 57.8257 234.297 58.8539L237.248 61.8017C237.761 62.3145 238.435 62.5722 239.109 62.5722C239.78 62.5722 240.454 62.3145 240.97 61.8017C241.997 60.7735 241.997 59.109 240.97 58.0834L238.019 55.1356V55.1356ZM37.9364 12.4991C35.9382 12.4991 34.3113 10.8739 34.3113 8.87806C34.3113 6.88217 35.9382 5.25969 37.9364 5.25969C39.9346 5.25969 41.5616 6.88217 41.5616 8.87806C41.5616 10.8739 39.9346 12.4991 37.9364 12.4991ZM37.9364 0.000427246C33.0344 0.000427246 29.046 3.98169 29.046 8.87806C29.046 13.7744 33.0344 17.7583 37.9364 17.7583C42.8384 17.7583 46.8269 13.7744 46.8269 8.87806C46.8269 3.98169 42.8384 0.000427246 37.9364 0.000427246V0.000427246ZM207.213 110.473C205.215 110.473 203.59 108.848 203.59 106.855C203.59 104.856 205.215 103.234 207.213 103.234C209.211 103.234 210.838 104.856 210.838 106.855C210.838 108.848 209.211 110.473 207.213 110.473ZM207.213 97.9746C202.311 97.9746 198.325 101.959 198.325 106.855C198.325 111.749 202.311 115.733 207.213 115.733C212.115 115.733 216.103 111.749 216.103 106.855C216.103 101.959 212.115 97.9746 207.213 97.9746ZM15.1461 92.8902H11.5209V89.2719C11.5209 87.8177 10.3415 86.6422 8.88826 86.6422C7.43504 86.6422 6.25561 87.8177 6.25561 89.2719V92.8902H2.63308C1.17722 92.8902 0.000427246 94.0683 0.000427246 95.5199C0.000427246 96.9714 1.17722 98.1495 2.63308 98.1495H6.25561V101.77C6.25561 103.222 7.43504 104.4 8.88826 104.4C10.3415 104.4 11.5209 103.222 11.5209 101.77V98.1495H15.1461C16.5993 98.1495 17.7787 96.9714 17.7787 95.5199C17.7787 94.0683 16.5993 92.8902 15.1461 92.8902ZM215.111 12.6674H211.488V9.04635C211.488 7.5948 210.309 6.41672 208.856 6.41672C207.4 6.41672 206.223 7.5948 206.223 9.04635V12.6674H202.598C201.142 12.6674 199.965 13.8454 199.965 15.297C199.965 16.7485 201.142 17.9266 202.598 17.9266H206.223V21.545C206.223 22.9992 207.4 24.1746 208.856 24.1746C210.309 24.1746 211.488 22.9992 211.488 21.545V17.9266H215.111C216.564 17.9266 217.743 16.7485 217.743 15.297C217.743 13.8454 216.564 12.6674 215.111 12.6674" fill="#0F1011"/>
</svg>
