<svg width="390" height="301" viewBox="0 0 390 301" fill="none" xmlns="http://www.w3.org/2000/svg">
<mask id="mask0" mask-type="alpha" maskUnits="userSpaceOnUse" x="11" y="67" width="367" height="215">
<path d="M11.4707 281.382V67.5948H377.813V281.382H11.4707Z" fill="white"/>
</mask>
<g mask="url(#mask0)">
<path fill-rule="evenodd" clip-rule="evenodd" d="M377.812 100.858C377.812 119.228 362.063 134.121 342.636 134.121H300.902C287.552 134.121 276.728 144.356 276.728 156.981C276.728 169.607 287.552 179.841 300.902 179.841H346.228C361.296 179.841 373.511 191.391 373.511 205.641C373.511 219.89 361.296 231.44 346.228 231.44H257.969C243.386 231.44 231.562 242.621 231.562 256.411C231.562 270.202 219.739 281.382 205.156 281.382H73.9665C39.4515 281.382 11.4705 254.924 11.4705 222.286C11.4705 189.646 39.4515 163.188 73.9665 163.188H112.815C124.55 163.188 134.062 154.192 134.062 143.095C134.062 131.999 124.55 123.003 112.815 123.003H46.5045C30.3224 123.003 17.2058 110.6 17.2058 95.2988C17.2058 79.998 30.3224 67.5946 46.5045 67.5946H342.636C362.063 67.5946 377.812 82.4873 377.812 100.858Z" fill="#4F545C" fill-opacity="0.3"/>
</g>
<path d="M55.0403 57.3707H283.064V137.533H55.0403V110.419L35.3831 96.2728L55.0403 81.7337V57.3707Z" fill="#697E99"/>
<path d="M55.0403 188.616H192.641V258.561H55.0403V233.806L35.3831 220.052L55.0403 206.299V188.616Z" fill="#697E99"/>
<path fill-rule="evenodd" clip-rule="evenodd" d="M93.1243 58.2832H94.1595C94.9509 58.2832 95.5933 57.6758 95.5933 56.9274C95.5933 56.179 94.9509 55.5715 94.1595 55.5715H93.1243C92.3313 55.5715 91.6904 56.179 91.6904 56.9274C91.6904 57.6758 92.3313 58.2832 93.1243 58.2832ZM99.5653 58.2832H278.056C279.17 58.2832 280.076 59.1401 280.076 60.1923V103.087C280.076 103.837 280.717 104.443 281.51 104.443C282.302 104.443 282.944 103.837 282.944 103.087V60.1923C282.944 57.6446 280.75 55.5715 278.056 55.5715H99.5653C98.7724 55.5715 98.1314 56.179 98.1314 56.9274C98.1314 57.6758 98.7724 58.2832 99.5653 58.2832Z" fill="#202225"/>
<path fill-rule="evenodd" clip-rule="evenodd" d="M128.346 204.828L130.742 197.185H118.804L116.406 204.828H128.346Z" fill="#697E99"/>
<path fill-rule="evenodd" clip-rule="evenodd" d="M188.919 188.423H170.08L167.84 196.188C167.669 196.776 167.103 197.186 166.456 197.186H149.44L147.245 204.829H165.377C165.811 204.829 166.223 205.014 166.494 205.336C166.616 205.478 166.692 205.645 166.743 205.817H190.938V190.332C190.938 189.28 190.031 188.423 188.919 188.423Z" fill="#697E99"/>
<path fill-rule="evenodd" clip-rule="evenodd" d="M193.246 165.73L192.604 165.915C191.654 166.188 191.277 167.27 191.871 168.021L192.317 168.588C192.787 169.184 192.661 170.028 192.034 170.476L191.596 170.792C190.962 171.248 190.059 171.127 189.581 170.527L189.036 169.839C188.456 169.107 187.291 169.118 186.726 169.861L186.213 170.532C185.756 171.134 184.871 171.276 184.229 170.852L183.741 170.529C183.079 170.091 182.93 169.222 183.411 168.609L183.906 167.979C184.495 167.229 184.124 166.153 183.181 165.876L182.464 165.666C181.717 165.448 181.295 164.704 181.51 163.994L181.675 163.454C181.899 162.721 182.72 162.307 183.489 162.539L184.31 162.787C185.235 163.067 186.18 162.413 186.18 161.495V160.802C186.18 160.054 186.823 159.446 187.614 159.446H188.186C188.978 159.446 189.62 160.054 189.62 160.802V161.529C189.62 162.447 190.565 163.099 191.49 162.82L192.221 162.599C192.985 162.368 193.801 162.776 194.03 163.502L194.202 164.044C194.429 164.759 194 165.511 193.246 165.73ZM174.457 140.492L173.815 140.676C172.866 140.95 172.49 142.031 173.082 142.783L173.53 143.35C174 143.946 173.872 144.79 173.247 145.238L172.807 145.554C172.175 146.01 171.27 145.889 170.792 145.287L170.248 144.601C169.668 143.869 168.503 143.88 167.938 144.623L167.426 145.294C166.967 145.896 166.084 146.038 165.44 145.614L164.952 145.291C164.29 144.853 164.141 143.984 164.624 143.371L165.117 142.741C165.707 141.991 165.337 140.915 164.392 140.638L163.675 140.427C162.929 140.208 162.506 139.465 162.723 138.756L162.888 138.217C163.111 137.483 163.932 137.068 164.701 137.301L165.522 137.548C166.448 137.827 167.391 137.175 167.391 136.257V135.563C167.391 134.815 168.034 134.207 168.825 134.207H169.399C170.19 134.207 170.833 134.815 170.833 135.563V136.29C170.833 137.208 171.777 137.861 172.702 137.582L173.433 137.361C174.198 137.13 175.014 137.539 175.243 138.264L175.414 138.806C175.64 139.519 175.213 140.273 174.457 140.492ZM155.671 140.492L155.029 140.676C154.08 140.95 153.704 142.031 154.296 142.783L154.742 143.35C155.212 143.946 155.086 144.79 154.46 145.238L154.021 145.554C153.387 146.01 152.484 145.889 152.006 145.287L151.462 144.601C150.881 143.869 149.717 143.88 149.152 144.623L148.64 145.294C148.181 145.896 147.296 146.038 146.654 145.614L146.166 145.291C145.504 144.853 145.355 143.984 145.837 143.371L146.331 142.741C146.921 141.991 146.549 140.915 145.606 140.638L144.889 140.427C144.143 140.208 143.719 139.465 143.935 138.756L144.1 138.217C144.324 137.483 145.146 137.068 145.914 137.301L146.736 137.548C147.66 137.827 148.605 137.175 148.605 136.257V135.563C148.605 134.815 149.248 134.207 150.039 134.207H150.611C151.404 134.207 152.045 134.815 152.045 135.563V136.29C152.045 137.208 152.99 137.861 153.915 137.582L154.647 137.361C155.41 137.13 156.226 137.539 156.456 138.264L156.628 138.806C156.854 139.519 156.425 140.273 155.671 140.492ZM183.489 137.301L184.31 137.548C185.235 137.827 186.18 137.175 186.18 136.257V135.563C186.18 134.815 186.823 134.207 187.614 134.207H188.186C188.978 134.207 189.62 134.815 189.62 135.563V136.29C189.62 137.208 190.565 137.861 191.49 137.582L192.221 137.361C192.985 137.13 193.801 137.539 194.03 138.264L194.202 138.806C194.428 139.519 194 140.273 193.246 140.492L192.604 140.676C191.654 140.95 191.277 142.031 191.871 142.783L192.317 143.35C192.787 143.946 192.661 144.79 192.034 145.238L191.596 145.554C190.962 146.01 190.059 145.889 189.581 145.287L189.036 144.601C188.456 143.869 187.291 143.88 186.726 144.623L186.213 145.294C185.756 145.896 184.871 146.038 184.229 145.614L183.741 145.291C183.079 144.853 182.93 143.984 183.411 143.371L183.906 142.741C184.495 141.991 184.124 140.915 183.181 140.638L182.464 140.427C181.717 140.208 181.295 139.465 181.51 138.756L181.675 138.217C181.899 137.483 182.72 137.068 183.489 137.301ZM202.279 137.301L203.099 137.548C204.026 137.827 204.969 137.175 204.969 136.257V135.563C204.969 134.815 205.611 134.207 206.403 134.207H206.976C207.768 134.207 208.41 134.815 208.41 135.563V136.29C208.41 137.208 209.355 137.861 210.28 137.582L211.011 137.361C211.775 137.13 212.591 137.539 212.821 138.264L212.991 138.806C213.218 139.519 212.79 140.273 212.035 140.492L211.392 140.676C210.443 140.95 210.068 142.031 210.661 142.783L211.107 143.35C211.577 143.946 211.45 144.79 210.825 145.238L210.385 145.554C209.752 146.01 208.847 145.889 208.37 145.287L207.825 144.601C207.246 143.869 206.08 143.88 205.515 144.623L205.003 145.294C204.545 145.896 203.661 146.038 203.018 145.614L202.53 145.291C201.868 144.853 201.719 143.984 202.202 143.371L202.695 142.741C203.284 141.991 202.914 140.915 201.969 140.638L201.253 140.427C200.507 140.208 200.084 139.465 200.3 138.756L200.465 138.217C200.689 137.483 201.509 137.068 202.279 137.301ZM221.067 137.301L221.888 137.548C222.813 137.827 223.758 137.175 223.758 136.257V135.563C223.758 134.815 224.4 134.207 225.192 134.207H225.764C226.555 134.207 227.198 134.815 227.198 135.563V136.29C227.198 137.208 228.142 137.861 229.067 137.582L229.798 137.361C230.563 137.13 231.379 137.539 231.608 138.264L231.78 138.806C232.005 139.519 231.578 140.273 230.824 140.492L230.181 140.676C229.232 140.95 228.855 142.031 229.449 142.783L229.895 143.35C230.365 143.946 230.239 144.79 229.612 145.238L229.173 145.554C228.54 146.01 227.636 145.889 227.159 145.287L226.614 144.601C226.033 143.869 224.869 143.88 224.304 144.623L223.791 145.294C223.333 145.896 222.449 146.038 221.806 145.614L221.319 145.291C220.656 144.853 220.507 143.984 220.989 143.371L221.484 142.741C222.073 141.991 221.702 140.915 220.758 140.638L220.041 140.427C219.294 140.208 218.873 139.465 219.088 138.756L219.253 138.217C219.476 137.483 220.298 137.068 221.067 137.301ZM239.857 137.301L240.677 137.548C241.603 137.827 242.547 137.175 242.547 136.257V135.563C242.547 134.815 243.189 134.207 243.98 134.207H244.554C245.345 134.207 245.988 134.815 245.988 135.563V136.29C245.988 137.208 246.933 137.861 247.858 137.582L248.589 137.361C249.353 137.13 250.169 137.539 250.398 138.264L250.569 138.806C250.795 139.519 250.368 140.273 249.614 140.492L248.97 140.676C248.021 140.95 247.645 142.031 248.239 142.783L248.685 143.35C249.155 143.946 249.028 144.79 248.402 145.238L247.962 145.554C247.33 146.01 246.425 145.889 245.948 145.287L245.403 144.601C244.824 143.869 243.658 143.88 243.093 144.623L242.581 145.294C242.122 145.896 241.239 146.038 240.595 145.614L240.108 145.291C239.445 144.853 239.296 143.984 239.779 143.371L240.273 142.741C240.862 141.991 240.492 140.915 239.547 140.638L238.83 140.427C238.085 140.208 237.662 139.465 237.878 138.756L238.043 138.217C238.267 137.483 239.087 137.068 239.857 137.301ZM258.644 137.301L259.466 137.548C260.391 137.827 261.335 137.175 261.335 136.257V135.563C261.335 134.815 261.978 134.207 262.769 134.207H263.341C264.133 134.207 264.775 134.815 264.775 135.563V136.29C264.775 137.208 265.72 137.861 266.645 137.582L267.376 137.361C268.14 137.13 268.956 137.539 269.186 138.264L269.358 138.806C269.583 139.519 269.156 140.273 268.401 140.492L267.759 140.676C266.81 140.95 266.433 142.031 267.026 142.783L267.472 143.35C267.942 143.946 267.816 144.79 267.19 145.238L266.751 145.554C266.117 146.01 265.214 145.889 264.736 145.287L264.192 144.601C263.611 143.869 262.447 143.88 261.882 144.623L261.368 145.294C260.911 145.896 260.026 146.038 259.384 145.614L258.897 145.291C258.234 144.853 258.085 143.984 258.567 143.371L259.061 142.741C259.651 141.991 259.279 140.915 258.336 140.638L257.619 140.427C256.872 140.208 256.45 139.465 256.665 138.756L256.83 138.217C257.054 137.483 257.876 137.068 258.644 137.301ZM277.434 137.301L278.255 137.548C279.181 137.827 280.124 137.175 280.124 136.257V135.563C280.124 134.815 280.767 134.207 281.558 134.207H282.132C282.923 134.207 283.565 134.815 283.565 135.563V136.29C283.565 137.208 284.51 137.861 285.435 137.582L286.166 137.361C286.931 137.13 287.746 137.539 287.976 138.264L288.147 138.806C288.373 139.519 287.946 140.273 287.192 140.492L286.548 140.676C285.599 140.95 285.223 142.031 285.817 142.783L286.262 143.35C286.733 143.946 286.605 144.79 285.98 145.238L285.54 145.554C284.908 146.01 284.003 145.889 283.525 145.287L282.98 144.601C282.401 143.869 281.235 143.88 280.671 144.623L280.159 145.294C279.7 145.896 278.817 146.038 278.173 145.614L277.685 145.291C277.023 144.853 276.874 143.984 277.357 143.371L277.85 142.741C278.44 141.991 278.07 140.915 277.125 140.638L276.408 140.427C275.662 140.208 275.239 139.465 275.456 138.756L275.621 138.217C275.844 137.483 276.664 137.068 277.434 137.301ZM294.243 163.994L294.408 163.454C294.632 162.721 295.453 162.307 296.222 162.539L297.043 162.787C297.968 163.067 298.913 162.413 298.913 161.495V160.802C298.913 160.054 299.555 159.446 300.347 159.446H300.919C301.71 159.446 302.353 160.054 302.353 160.802V161.529C302.353 162.447 303.298 163.099 304.223 162.82L304.954 162.599C305.718 162.368 306.534 162.776 306.763 163.502L306.935 164.044C307.162 164.759 306.733 165.511 305.979 165.73L305.337 165.915C304.387 166.188 304.01 167.27 304.604 168.021L305.05 168.588C305.52 169.184 305.394 170.028 304.767 170.476L304.329 170.792C303.695 171.248 302.792 171.127 302.314 170.527L301.769 169.839C301.189 169.107 300.024 169.118 299.459 169.861L298.946 170.532C298.489 171.134 297.604 171.276 296.962 170.852L296.474 170.529C295.812 170.091 295.663 169.222 296.144 168.609L296.639 167.979C297.228 167.229 296.857 166.153 295.914 165.876L295.197 165.666C294.45 165.448 294.028 164.704 294.243 163.994ZM294.243 138.756L294.408 138.217C294.632 137.483 295.453 137.068 296.222 137.301L297.043 137.548C297.968 137.827 298.913 137.175 298.913 136.257V135.563C298.913 134.815 299.555 134.207 300.347 134.207H300.919C301.71 134.207 302.353 134.815 302.353 135.563V136.29C302.353 137.208 303.298 137.861 304.223 137.582L304.954 137.361C305.718 137.13 306.534 137.539 306.763 138.264L306.935 138.806C307.16 139.519 306.733 140.273 305.979 140.492L305.337 140.676C304.387 140.95 304.01 142.031 304.604 142.783L305.05 143.35C305.52 143.946 305.394 144.79 304.767 145.238L304.329 145.554C303.695 146.01 302.792 145.889 302.314 145.287L301.769 144.601C301.189 143.869 300.024 143.88 299.459 144.623L298.946 145.294C298.489 145.896 297.604 146.038 296.962 145.614L296.474 145.291C295.812 144.853 295.663 143.984 296.144 143.371L296.639 142.741C297.228 141.991 296.857 140.915 295.914 140.638L295.197 140.427C294.45 140.208 294.028 139.465 294.243 138.756ZM287.19 165.73L286.546 165.915C285.597 166.188 285.222 167.27 285.815 168.021L286.261 168.588C286.73 169.184 286.604 170.028 285.977 170.476L285.538 170.792C284.906 171.248 284.001 171.127 283.524 170.527L282.979 169.839C282.4 169.107 281.234 169.118 280.669 169.861L280.157 170.532C279.698 171.134 278.815 171.276 278.171 170.852L277.684 170.529C277.021 170.091 276.872 169.222 277.356 168.609L277.849 167.979C278.44 167.229 278.068 166.153 277.125 165.876L276.408 165.666C275.661 165.448 275.238 164.704 275.454 163.994L275.619 163.454C275.843 162.721 276.663 162.307 277.433 162.539L278.253 162.787C279.179 163.067 280.123 162.413 280.123 161.495V160.802C280.123 160.054 280.765 159.446 281.557 159.446H282.13C282.922 159.446 283.564 160.054 283.564 160.802V161.529C283.564 162.447 284.509 163.099 285.434 162.82L286.165 162.599C286.929 162.368 287.745 162.776 287.974 163.502L288.145 164.044C288.372 164.759 287.944 165.511 287.19 165.73ZM268.401 165.73L267.759 165.915C266.81 166.188 266.433 167.27 267.026 168.021L267.472 168.588C267.942 169.184 267.816 170.028 267.19 170.476L266.751 170.792C266.117 171.248 265.214 171.127 264.736 170.527L264.192 169.839C263.611 169.107 262.447 169.118 261.882 169.861L261.368 170.532C260.911 171.134 260.026 171.276 259.384 170.852L258.897 170.529C258.234 170.091 258.085 169.222 258.567 168.609L259.061 167.979C259.651 167.229 259.279 166.153 258.336 165.876L257.619 165.666C256.872 165.448 256.45 164.704 256.665 163.994L256.83 163.454C257.054 162.721 257.876 162.307 258.644 162.539L259.466 162.787C260.391 163.067 261.335 162.413 261.335 161.495V160.802C261.335 160.054 261.978 159.446 262.769 159.446H263.341C264.133 159.446 264.775 160.054 264.775 160.802V161.529C264.775 162.447 265.72 163.099 266.645 162.82L267.376 162.599C268.14 162.368 268.956 162.776 269.186 163.502L269.358 164.044C269.584 164.759 269.156 165.511 268.401 165.73ZM249.613 165.73L248.969 165.915C248.02 166.188 247.644 167.27 248.237 168.021L248.683 168.588C249.152 169.184 249.026 170.028 248.4 170.476L247.961 170.792C247.328 171.248 246.424 171.127 245.946 170.527L245.401 169.839C244.822 169.107 243.656 169.118 243.091 169.861L242.58 170.532C242.121 171.134 241.238 171.276 240.594 170.852L240.106 170.529C239.444 170.091 239.295 169.222 239.778 168.609L240.271 167.979C240.86 167.229 240.491 166.153 239.547 165.876L238.83 165.666C238.083 165.448 237.66 164.704 237.877 163.994L238.042 163.454C238.265 162.721 239.085 162.307 239.855 162.539L240.675 162.787C241.602 163.067 242.545 162.413 242.545 161.495V160.802C242.545 160.054 243.188 159.446 243.979 159.446H244.553C245.344 159.446 245.986 160.054 245.986 160.802V161.529C245.986 162.447 246.931 163.099 247.856 162.82L248.587 162.599C249.352 162.368 250.167 162.776 250.397 163.502L250.567 164.044C250.794 164.759 250.367 165.511 249.613 165.73ZM230.824 165.73L230.181 165.915C229.232 166.188 228.855 167.27 229.449 168.021L229.895 168.588C230.365 169.184 230.239 170.028 229.612 170.476L229.173 170.792C228.54 171.248 227.636 171.127 227.159 170.527L226.614 169.839C226.033 169.107 224.869 169.118 224.304 169.861L223.791 170.532C223.333 171.134 222.449 171.276 221.806 170.852L221.319 170.529C220.656 170.091 220.507 169.222 220.989 168.609L221.484 167.979C222.073 167.229 221.702 166.153 220.758 165.876L220.041 165.666C219.294 165.448 218.873 164.704 219.088 163.994L219.253 163.454C219.476 162.721 220.298 162.307 221.067 162.539L221.888 162.787C222.813 163.067 223.758 162.413 223.758 161.495V160.802C223.758 160.054 224.4 159.446 225.192 159.446H225.764C226.555 159.446 227.198 160.054 227.198 160.802V161.529C227.198 162.447 228.142 163.099 229.067 162.82L229.798 162.599C230.563 162.368 231.379 162.776 231.608 163.502L231.78 164.044C232.007 164.759 231.578 165.511 230.824 165.73ZM212.035 165.73L211.391 165.915C210.442 166.188 210.066 167.27 210.66 168.021L211.106 168.588C211.575 169.184 211.448 170.028 210.822 170.476L210.383 170.792C209.751 171.248 208.846 171.127 208.369 170.527L207.824 169.839C207.244 169.107 206.079 169.118 205.514 169.861L205.002 170.532C204.543 171.134 203.66 171.276 203.016 170.852L202.529 170.529C201.866 170.091 201.717 169.222 202.2 168.609L202.694 167.979C203.283 167.229 202.913 166.153 201.968 165.876L201.251 165.666C200.505 165.448 200.082 164.704 200.299 163.994L200.464 163.454C200.688 162.721 201.508 162.307 202.278 162.539L203.098 162.787C204.024 163.067 204.968 162.413 204.968 161.495V160.802C204.968 160.054 205.61 159.446 206.401 159.446H206.975C207.766 159.446 208.409 160.054 208.409 160.802V161.529C208.409 162.447 209.354 163.099 210.278 162.82L211.01 162.599C211.774 162.368 212.59 162.776 212.819 163.502L212.99 164.044C213.216 164.759 212.789 165.511 212.035 165.73ZM200.242 204.461H327.162C328.275 204.461 329.181 203.605 329.181 202.552V166.063C329.181 165.633 329.398 165.229 329.762 164.973L348.159 152.091L329.762 139.208C329.398 138.953 329.181 138.549 329.181 138.119V113.765C329.181 112.712 328.275 111.856 327.162 111.856H107.32C106.206 111.856 105.301 112.712 105.301 113.765V180.413H105.31C107.277 174.201 109.228 167.921 110.972 162.192C111.148 161.61 111.71 161.21 112.35 161.21H128.269C128.721 161.21 129.146 161.411 129.417 161.753C129.687 162.094 129.772 162.538 129.646 162.947L124.242 180.413H136.186L141.822 162.187C142.001 161.608 142.562 161.21 143.198 161.21H158.959C159.414 161.21 159.841 161.414 160.11 161.758C160.383 162.103 160.463 162.549 160.331 162.96L154.736 180.413H170.513C170.96 180.413 171.38 180.611 171.653 180.946C171.924 181.283 172.014 181.719 171.896 182.127L170.861 185.711H188.919C191.613 185.711 193.805 187.785 193.805 190.333V205.817H198.808C198.808 205.068 199.45 204.461 200.242 204.461Z" fill="#546F92"/>
<path fill-rule="evenodd" clip-rule="evenodd" d="M351.423 151.002L332.049 137.435V113.765C332.049 111.213 329.861 109.144 327.162 109.144H107.32C104.621 109.144 102.433 111.213 102.433 113.765V131.907C102.433 134.902 99.8654 137.331 96.6981 137.331H61.9322C58.7634 137.331 56.1969 134.902 56.1969 131.907V111.068C56.1969 110.638 55.9804 110.234 55.6162 109.979L37.2159 97.0944L55.6148 84.2124C55.9804 83.9561 56.1969 83.5507 56.1969 83.1223V60.192C56.1969 59.1385 57.1002 58.283 58.2157 58.283H83.2087C84.0016 58.283 84.6425 57.6756 84.6425 56.9271C84.6425 56.1787 84.0016 55.5713 83.2087 55.5713H58.2157C55.5173 55.5713 53.3292 57.6403 53.3292 60.192V82.4389L33.954 96.0043C33.5884 96.2605 33.3733 96.6646 33.3733 97.0944C33.3733 97.5242 33.5884 97.9282 33.954 98.1845L53.3292 111.751V135.422C53.3292 137.973 55.5173 140.042 58.2157 140.042H99.5658C101.149 140.042 102.433 141.257 102.433 142.754V180.413H85.2906C84.611 180.413 84.026 180.863 83.8869 181.491L80.7769 195.551C80.6895 195.951 80.7956 196.367 81.0666 196.685C81.3404 197.002 81.7491 197.186 82.1806 197.186H94.7495C97.5082 197.186 99.4396 199.762 98.5262 202.225L98.5033 202.286C97.9384 203.808 96.4171 204.828 94.7094 204.828H80.2851C79.6026 204.828 79.0162 205.284 78.8814 205.915L75.9091 219.848C75.8231 220.248 75.932 220.662 76.2059 220.976C76.4769 221.291 76.8841 221.474 77.3142 221.474H87.9288C90.1111 221.474 91.6826 223.456 91.0689 225.436L86.8133 239.176C86.6872 239.587 86.7717 240.029 87.0413 240.37C87.3137 240.712 87.7381 240.913 88.1898 240.913H103.975C104.613 240.913 105.175 240.514 105.351 239.932L109.763 225.444C110.479 223.093 112.753 221.474 115.341 221.474C119.202 221.474 121.986 224.972 120.918 228.481L117.661 239.183C117.536 239.592 117.62 240.033 117.893 240.373C118.162 240.713 118.587 240.913 119.039 240.913H134.639C135.275 240.913 135.839 240.515 136.015 239.935C136.527 238.259 137.135 236.308 137.863 233.999C138.088 233.282 137.657 232.527 136.898 232.314C136.14 232.1 135.341 232.508 135.116 233.226C134.524 235.106 134.008 236.75 133.562 238.201H120.943L126.335 220.492C126.46 220.083 126.374 219.642 126.103 219.302C125.832 218.961 125.408 218.762 124.957 218.762H109.891C109.253 218.762 108.691 219.162 108.514 219.742L102.895 238.201H90.104L95.5869 220.499C95.7131 220.088 95.6299 219.646 95.3589 219.304C95.0879 218.963 94.6635 218.762 94.2104 218.762H79.0664L81.4609 207.54H98.3915C99.0209 207.54 99.7149 207.081 99.9314 206.521C101.391 202.76 102.355 200.272 103.443 196.16C103.55 195.755 103.454 195.325 103.182 194.995C102.911 194.666 102.494 194.475 102.052 194.475H83.9442L86.4549 183.125H106.376C107.01 183.125 107.568 182.734 107.75 182.161C109.711 175.977 111.667 169.695 113.429 163.922H126.355L120.951 181.388C120.825 181.799 120.908 182.241 121.181 182.582C121.45 182.924 121.876 183.125 122.328 183.125H137.26C137.896 183.125 138.457 182.728 138.635 182.15L144.272 163.922H157.028L151.433 181.376C151.301 181.787 151.381 182.233 151.654 182.577C151.923 182.921 152.351 183.125 152.805 183.125H168.636L165.361 194.475H148.344C147.696 194.475 147.13 194.884 146.959 195.475L143.986 205.83C143.868 206.235 143.96 206.673 144.231 207.008C144.502 207.343 144.922 207.54 145.369 207.54H163.593L160.979 218.762H140.771C140.139 218.762 139.581 219.154 139.397 219.727L138.202 223.489C137.974 224.204 138.404 224.961 139.162 225.178C139.922 225.389 140.719 224.985 140.949 224.27C141.476 222.61 143.092 221.474 144.925 221.474H162.131C162.803 221.474 163.387 221.03 163.531 220.408L166.778 206.475C166.829 206.253 166.808 206.031 166.743 205.818C166.692 205.646 166.616 205.477 166.494 205.335C166.223 205.015 165.811 204.828 165.377 204.828H152.53C149.866 204.828 147.931 202.435 148.63 200.005C149.107 198.342 150.706 197.186 152.53 197.186H166.456C167.103 197.186 167.67 196.777 167.84 196.187L170.08 188.423H188.919C190.033 188.423 190.938 189.278 190.938 190.332V205.818V256.07C190.938 257.125 190.033 257.979 188.919 257.979H58.2157C57.1002 257.979 56.1969 257.125 56.1969 256.07V234.428C56.1969 233.998 55.9804 233.595 55.6162 233.339L37.2159 220.456L55.6148 207.574C55.9804 207.317 56.1969 206.912 56.1969 206.482V190.332C56.1969 189.278 57.1002 188.423 58.2157 188.423H74.7979C75.5908 188.423 76.2317 187.816 76.2317 187.068C76.2317 186.318 75.5908 185.712 74.7979 185.712H58.2157C55.5173 185.712 53.3292 187.779 53.3292 190.332V205.8L33.954 219.365C33.5884 219.62 33.3733 220.024 33.3733 220.456C33.3733 220.885 33.5884 221.289 33.954 221.544L53.3292 235.111V256.07C53.3292 258.623 55.5173 260.691 58.2157 260.691H188.919C191.617 260.691 193.805 258.623 193.805 256.07V205.818V190.332C193.805 187.779 191.617 185.712 188.919 185.712H170.861L171.896 182.127C172.014 181.719 171.925 181.282 171.653 180.946C171.382 180.611 170.96 180.413 170.513 180.413H160.535C157.649 180.413 155.581 177.779 156.418 175.166L160.333 162.959C160.463 162.55 160.383 162.104 160.11 161.759C159.841 161.415 159.414 161.21 158.96 161.21H143.198C142.562 161.21 142.001 161.607 141.822 162.186L137.09 177.488C136.554 179.221 134.872 180.413 132.961 180.413H129.981C127.112 180.413 125.048 177.808 125.853 175.204L129.646 162.948C129.772 162.537 129.688 162.095 129.417 161.754C129.147 161.412 128.721 161.21 128.269 161.21H112.35C111.71 161.21 111.151 161.601 110.975 162.182C110.18 164.791 108.933 168.803 107.81 172.401C107.392 173.742 105.3 173.453 105.3 172.054L105.301 113.765C105.301 112.71 106.204 111.856 107.32 111.856H327.162C328.276 111.856 329.181 112.71 329.181 113.765V138.119C329.181 138.547 329.396 138.952 329.763 139.209L348.161 152.092L329.763 164.974C329.396 165.23 329.181 165.634 329.181 166.064V202.553C329.181 203.606 328.276 204.462 327.162 204.462H200.243C199.45 204.462 198.809 205.068 198.809 205.818C198.809 206.566 199.45 207.174 200.243 207.174H327.162C329.861 207.174 332.049 205.105 332.049 202.553V166.746L351.423 153.181C351.788 152.926 352.003 152.522 352.003 152.092C352.003 151.662 351.788 151.257 351.423 151.002Z" fill="#202225"/>
<path fill-rule="evenodd" clip-rule="evenodd" d="M83.5368 79.981H82.9647C82.1718 79.981 81.5309 80.5884 81.5309 81.3369V82.0297C81.5309 82.9476 80.586 83.6012 79.6598 83.3219L78.8396 83.0737C78.0697 82.8419 77.2495 83.2554 77.0258 83.9903L76.8609 84.5286C76.6444 85.239 77.0688 85.982 77.8144 86.2003L78.5313 86.4105C79.4748 86.6884 79.8462 87.7636 79.2569 88.5134L78.7622 89.1439C78.279 89.7567 78.4281 90.6258 79.0905 91.0638L79.5795 91.3865C80.2218 91.8122 81.1065 91.6699 81.5639 91.0679L82.0758 90.3954C82.6407 89.6523 83.8064 89.6415 84.3871 90.375L84.9319 91.0611C85.4094 91.6631 86.3127 91.7824 86.9465 91.3282L87.3852 91.0123C88.0118 90.5621 88.138 89.7188 87.6677 89.1222L87.2218 88.5568C86.6282 87.8043 87.0038 86.7223 87.9544 86.4498L88.5968 86.2641C89.351 86.0471 89.7783 85.2933 89.5517 84.5787L89.3811 84.0377C89.1517 83.311 88.3358 82.9043 87.5716 83.1347L86.8404 83.3544C85.9155 83.6337 84.9707 82.9815 84.9707 82.0636V81.3369C84.9707 80.5884 84.3297 79.981 83.5368 79.981ZM96.6023 86.2002L97.3192 86.4104C98.2626 86.6883 98.634 87.7635 98.0447 88.5146L97.55 89.1438C97.0683 89.758 97.2174 90.6257 97.8798 91.0637L98.3673 91.3863C99.0097 91.8121 99.8943 91.6697 100.352 91.0677L100.865 90.3952C101.43 89.6522 102.594 89.6427 103.175 90.3749L103.72 91.0609C104.197 91.6629 105.101 91.7823 105.734 91.328L106.173 91.0121C106.8 90.562 106.926 89.7186 106.456 89.1221L106.01 88.5567C105.416 87.8042 105.793 86.7222 106.742 86.4497L107.385 86.2639C108.139 86.047 108.566 85.2931 108.341 84.5786L108.169 84.0376C107.94 83.3109 107.124 82.9041 106.359 83.1346L105.628 83.3543C104.703 83.6336 103.758 82.9814 103.758 82.0635V81.3367C103.758 80.5883 103.118 79.9809 102.325 79.9809H101.753C100.961 79.9809 100.319 80.5883 100.319 81.3367V82.0296C100.319 82.9489 99.3738 83.601 98.449 83.3217L97.6274 83.0736C96.8589 82.8417 96.0373 83.2553 95.8137 83.9902L95.6488 84.5298C95.4337 85.2389 95.8567 85.9819 96.6023 86.2002ZM125.531 86.4491L126.174 86.2647C126.929 86.0464 127.355 85.2926 127.13 84.5794L126.959 84.0371C126.729 83.3117 125.914 82.9036 125.149 83.1341L124.419 83.3551C123.494 83.6344 122.548 82.9809 122.548 82.0629V81.3362C122.548 80.5878 121.907 79.9803 121.114 79.9803H120.542C119.75 79.9803 119.108 80.5878 119.108 81.3362V82.0304C119.108 82.9483 118.163 83.6005 117.238 83.3212L116.418 83.0744C115.648 82.8412 114.828 83.2561 114.603 83.9896L114.439 84.5292C114.223 85.2384 114.646 85.9814 115.391 86.1997L116.108 86.4112C117.052 86.6878 117.423 87.7643 116.834 88.5141L116.339 89.1446C115.857 89.7574 116.006 90.6265 116.669 91.0645L117.156 91.3872C117.799 91.8115 118.683 91.6692 119.141 91.0672L119.654 90.396C120.219 89.653 121.383 89.6422 121.964 90.3743L122.509 91.0604C122.986 91.6624 123.89 91.7831 124.523 91.3275L124.964 91.0116C125.59 90.5628 125.715 89.7195 125.245 89.1229L124.799 88.5561C124.207 87.8036 124.582 86.723 125.531 86.4491ZM144.319 86.4491L144.962 86.2647C145.717 86.0464 146.143 85.2926 145.918 84.5794L145.748 84.0371C145.517 83.3117 144.702 82.9036 143.937 83.1341L143.207 83.3551C142.282 83.6344 141.336 82.9809 141.336 82.0629V81.3362C141.336 80.5878 140.695 79.9803 139.902 79.9803H139.33C138.538 79.9803 137.896 80.5878 137.896 81.3362V82.0304C137.896 82.9483 136.951 83.6005 136.026 83.3212L135.206 83.0744C134.436 82.8412 133.616 83.2561 133.391 83.9896L133.227 84.5292C133.011 85.2384 133.434 85.9814 134.179 86.1997L134.896 86.4112C135.84 86.6878 136.211 87.7643 135.622 88.5141L135.127 89.1446C134.645 89.7574 134.795 90.6265 135.457 91.0645L135.945 91.3872C136.587 91.8115 137.472 91.6692 137.929 91.0672L138.442 90.396C139.007 89.653 140.171 89.6422 140.752 90.3743L141.297 91.0604C141.774 91.6624 142.678 91.7831 143.312 91.3275L143.752 91.0116C144.378 90.5628 144.503 89.7195 144.033 89.1229L143.587 88.5561C142.995 87.8036 143.37 86.723 144.319 86.4491ZM163.109 86.4491L163.751 86.2647C164.507 86.0464 164.933 85.2926 164.708 84.5794L164.537 84.0371C164.306 83.3117 163.492 82.9036 162.726 83.1341L161.996 83.3551C161.072 83.6344 160.125 82.9809 160.125 82.0629V81.3362C160.125 80.5878 159.484 79.9803 158.691 79.9803H158.119C157.328 79.9803 156.685 80.5878 156.685 81.3362V82.0304C156.685 82.9483 155.741 83.6005 154.816 83.3212L153.996 83.0744C153.226 82.8412 152.406 83.2561 152.18 83.9896L152.017 84.5292C151.8 85.2384 152.223 85.9814 152.969 86.1997L153.686 86.4112C154.629 86.6878 155.001 87.7643 154.411 88.5141L153.917 89.1446C153.435 89.7574 153.584 90.6265 154.247 91.0645L154.734 91.3872C155.376 91.8115 156.261 91.6692 156.718 91.0672L157.232 90.396C157.797 89.653 158.961 89.6422 159.542 90.3743L160.087 91.0604C160.564 91.6624 161.467 91.7831 162.101 91.3275L162.541 91.0116C163.166 90.5628 163.293 89.7195 162.822 89.1229L162.376 88.5561C161.784 87.8036 162.16 86.723 163.109 86.4491ZM181.897 86.4491L182.539 86.2647C183.295 86.0464 183.721 85.2926 183.496 84.5794L183.325 84.0371C183.094 83.3117 182.28 82.9036 181.514 83.1341L180.784 83.3551C179.86 83.6344 178.913 82.9809 178.913 82.0629V81.3362C178.913 80.5878 178.272 79.9803 177.48 79.9803H176.907C176.116 79.9803 175.474 80.5878 175.474 81.3362V82.0304C175.474 82.9483 174.529 83.6005 173.604 83.3212L172.784 83.0744C172.014 82.8412 171.194 83.2561 170.969 83.9896L170.805 84.5292C170.589 85.2384 171.012 85.9814 171.757 86.1997L172.474 86.4112C173.417 86.6878 173.789 87.7643 173.2 88.5141L172.705 89.1446C172.223 89.7574 172.372 90.6265 173.035 91.0645L173.522 91.3872C174.165 91.8115 175.049 91.6692 175.507 91.0672L176.02 90.396C176.585 89.653 177.749 89.6422 178.33 90.3743L178.875 91.0604C179.352 91.6624 180.255 91.7831 180.889 91.3275L181.329 91.0116C181.954 90.5628 182.081 89.7195 181.61 89.1229L181.164 88.5561C180.572 87.8036 180.948 86.723 181.897 86.4491ZM200.687 86.4491L201.329 86.2647C202.085 86.0464 202.511 85.2926 202.285 84.5794L202.115 84.0371C201.884 83.3117 201.07 82.9036 200.304 83.1341L199.574 83.3551C198.649 83.6344 197.703 82.9809 197.703 82.0629V81.3362C197.703 80.5878 197.062 79.9803 196.269 79.9803H195.697C194.906 79.9803 194.263 80.5878 194.263 81.3362V82.0304C194.263 82.9483 193.318 83.6005 192.393 83.3212L191.573 83.0744C190.803 82.8412 189.983 83.2561 189.758 83.9896L189.595 84.5292C189.378 85.2384 189.801 85.9814 190.547 86.1997L191.264 86.4112C192.207 86.6878 192.578 87.7643 191.989 88.5141L191.494 89.1446C191.013 89.7574 191.162 90.6265 191.824 91.0645L192.312 91.3872C192.954 91.8115 193.839 91.6692 194.296 91.0672L194.809 90.396C195.374 89.653 196.539 89.6422 197.119 90.3743L197.664 91.0604C198.142 91.6624 199.045 91.7831 199.679 91.3275L200.119 91.0116C200.744 90.5628 200.87 89.7195 200.4 89.1229L199.954 88.5561C199.362 87.8036 199.737 86.723 200.687 86.4491ZM219.475 86.4491L220.117 86.2647C220.873 86.0464 221.299 85.2926 221.074 84.5794L220.903 84.0371C220.672 83.3117 219.858 82.9036 219.092 83.1341L218.362 83.3551C217.437 83.6344 216.491 82.9809 216.491 82.0629V81.3362C216.491 80.5878 215.85 79.9803 215.057 79.9803H214.485C213.694 79.9803 213.051 80.5878 213.051 81.3362V82.0304C213.051 82.9483 212.107 83.6005 211.182 83.3212L210.362 83.0744C209.592 82.8412 208.771 83.2561 208.546 83.9896L208.383 84.5292C208.166 85.2384 208.589 85.9814 209.335 86.1997L210.052 86.4112C210.995 86.6878 211.367 87.7643 210.777 88.5141L210.283 89.1446C209.801 89.7574 209.95 90.6265 210.612 91.0645L211.1 91.3872C211.742 91.8115 212.627 91.6692 213.084 91.0672L213.598 90.396C214.163 89.653 215.327 89.6422 215.908 90.3743L216.452 91.0604C216.93 91.6624 217.833 91.7831 218.467 91.3275L218.907 91.0116C219.532 90.5628 219.658 89.7195 219.188 89.1229L218.742 88.5561C218.15 87.8036 218.526 86.723 219.475 86.4491ZM238.264 86.4491L238.907 86.2647C239.662 86.0464 240.088 85.2926 239.863 84.5794L239.692 84.0371C239.462 83.3117 238.647 82.9036 237.882 83.1341L237.152 83.3551C236.227 83.6344 235.281 82.9809 235.281 82.0629V81.3362C235.281 80.5878 234.64 79.9803 233.847 79.9803H233.275C232.483 79.9803 231.841 80.5878 231.841 81.3362V82.0304C231.841 82.9483 230.896 83.6005 229.971 83.3212L229.151 83.0744C228.381 82.8412 227.561 83.2561 227.336 83.9896L227.172 84.5292C226.956 85.2384 227.379 85.9814 228.124 86.1997L228.841 86.4112C229.785 86.6878 230.156 87.7643 229.567 88.5141L229.072 89.1446C228.59 89.7574 228.739 90.6265 229.402 91.0645L229.889 91.3872C230.532 91.8115 231.416 91.6692 231.874 91.0672L232.387 90.396C232.952 89.653 234.116 89.6422 234.697 90.3743L235.242 91.0604C235.719 91.6624 236.623 91.7831 237.256 91.3275L237.697 91.0116C238.322 90.5628 238.448 89.7195 237.978 89.1229L237.532 88.5561C236.939 87.8036 237.315 86.723 238.264 86.4491ZM257.053 86.4491L257.695 86.2647C258.451 86.0464 258.876 85.2926 258.651 84.5794L258.481 84.0371C258.25 83.3117 257.435 82.9036 256.67 83.1341L255.94 83.3551C255.015 83.6344 254.069 82.9809 254.069 82.0629V81.3362C254.069 80.5878 253.428 79.9803 252.635 79.9803H252.063C251.271 79.9803 250.629 80.5878 250.629 81.3362V82.0304C250.629 82.9483 249.684 83.6005 248.759 83.3212L247.939 83.0744C247.169 82.8412 246.349 83.2561 246.124 83.9896L245.961 84.5292C245.744 85.2384 246.167 85.9814 246.913 86.1997L247.629 86.4112C248.573 86.6878 248.944 87.7643 248.355 88.5141L247.86 89.1446C247.379 89.7574 247.528 90.6265 248.19 91.0645L248.678 91.3872C249.32 91.8115 250.205 91.6692 250.662 91.0672L251.175 90.396C251.74 89.653 252.905 89.6422 253.485 90.3743L254.03 91.0604C254.508 91.6624 255.411 91.7831 256.045 91.3275L256.485 91.0116C257.11 90.5628 257.236 89.7195 256.766 89.1229L256.32 88.5561C255.728 87.8036 256.103 86.723 257.053 86.4491ZM175.414 138.806L175.243 138.265C175.013 137.538 174.198 137.131 173.433 137.362L172.702 137.581C171.777 137.861 170.832 137.209 170.832 136.291V135.564C170.832 134.816 170.19 134.208 169.399 134.208H168.825C168.034 134.208 167.391 134.816 167.391 135.564V136.257C167.391 137.175 166.448 137.828 165.522 137.549L164.701 137.301C163.931 137.069 163.111 137.482 162.888 138.216L162.723 138.756C162.506 139.466 162.929 140.209 163.675 140.427L164.392 140.638C165.337 140.915 165.707 141.991 165.117 142.74L164.624 143.371C164.141 143.984 164.29 144.853 164.952 145.291L165.44 145.614C166.084 146.038 166.967 145.896 167.426 145.295L167.938 144.622C168.503 143.879 169.668 143.869 170.247 144.601L170.792 145.288C171.27 145.89 172.175 146.009 172.807 145.555L173.247 145.239C173.872 144.789 174 143.946 173.529 143.349L173.084 142.784C172.49 142.03 172.866 140.949 173.815 140.676L174.457 140.491C175.213 140.274 175.64 139.52 175.414 138.806ZM181.675 138.217L181.51 138.756C181.294 139.465 181.717 140.208 182.464 140.427L183.181 140.638C184.124 140.915 184.496 141.991 183.906 142.741L183.412 143.372C182.93 143.984 183.079 144.853 183.74 145.291L184.229 145.614C184.871 146.038 185.756 145.896 186.213 145.294L186.725 144.623C187.292 143.88 188.456 143.869 189.037 144.601L189.581 145.287C190.059 145.889 190.962 146.01 191.595 145.554L192.035 145.239C192.661 144.79 192.787 143.946 192.317 143.35L191.871 142.783C191.278 142.031 191.653 140.95 192.604 140.676L193.246 140.492C194 140.273 194.428 139.52 194.201 138.806L194.031 138.264C193.801 137.539 192.985 137.13 192.221 137.361L191.49 137.582C190.565 137.861 189.62 137.208 189.62 136.29V135.563C189.62 134.815 188.978 134.207 188.186 134.207H187.614C186.821 134.207 186.18 134.815 186.18 135.563V136.257C186.18 137.175 185.236 137.827 184.309 137.548L183.489 137.301C182.721 137.068 181.899 137.482 181.675 138.217ZM156.627 138.806L156.455 138.265C156.226 137.538 155.41 137.131 154.647 137.362L153.915 137.581C152.99 137.861 152.045 137.209 152.045 136.291V135.564C152.045 134.816 151.404 134.208 150.611 134.208H150.039C149.248 134.208 148.605 134.816 148.605 135.564V136.257C148.605 137.175 147.66 137.828 146.735 137.549L145.914 137.301C145.145 137.069 144.324 137.482 144.1 138.216L143.935 138.756C143.72 139.466 144.143 140.209 144.889 140.427L145.606 140.638C146.549 140.915 146.92 141.991 146.331 142.74L145.836 143.371C145.355 143.984 145.504 144.853 146.166 145.291L146.654 145.614C147.296 146.038 148.181 145.896 148.64 145.295L149.151 144.622C149.716 143.879 150.881 143.869 151.461 144.601L152.006 145.288C152.484 145.89 153.387 146.009 154.021 145.555L154.459 145.239C155.086 144.789 155.212 143.946 154.742 143.349L154.297 142.784C153.704 142.03 154.08 140.949 155.029 140.676L155.671 140.491C156.425 140.274 156.854 139.52 156.627 138.806ZM200.465 138.217L200.3 138.756C200.083 139.465 200.506 140.208 201.253 140.427L201.97 140.638C202.914 140.915 203.285 141.991 202.696 142.741L202.201 143.372C201.719 143.984 201.869 144.853 202.53 145.291L203.019 145.614C203.661 146.038 204.546 145.896 205.003 145.294L205.515 144.623C206.081 143.88 207.245 143.869 207.826 144.601L208.371 145.287C208.848 145.889 209.752 146.01 210.384 145.554L210.824 145.239C211.451 144.79 211.577 143.946 211.107 143.35L210.661 142.783C210.067 142.031 210.443 140.95 211.393 140.676L212.036 140.492C212.79 140.273 213.217 139.52 212.991 138.806L212.82 138.264C212.591 137.539 211.775 137.13 211.011 137.361L210.279 137.582C209.355 137.861 208.41 137.208 208.41 136.29V135.563C208.41 134.815 207.767 134.207 206.976 134.207H206.404C205.611 134.207 204.97 134.815 204.97 135.563V136.257C204.97 137.175 204.025 137.827 203.099 137.548L202.279 137.301C201.51 137.068 200.689 137.482 200.465 138.217ZM219.253 138.217L219.088 138.756C218.872 139.465 219.295 140.208 220.042 140.427L220.758 140.638C221.702 140.915 222.073 141.991 221.484 142.741L220.989 143.372C220.508 143.984 220.657 144.853 221.318 145.291L221.807 145.614C222.449 146.038 223.334 145.896 223.791 145.294L224.303 144.623C224.869 143.88 226.034 143.869 226.614 144.601L227.159 145.287C227.637 145.889 228.54 146.01 229.172 145.554L229.612 145.239C230.239 144.79 230.365 143.946 229.895 143.35L229.449 142.783C228.855 142.031 229.231 140.95 230.182 140.676L230.824 140.492C231.578 140.273 232.005 139.52 231.779 138.806L231.608 138.264C231.379 137.539 230.563 137.13 229.799 137.361L229.068 137.582C228.143 137.861 227.198 137.208 227.198 136.29V135.563C227.198 134.815 226.555 134.207 225.764 134.207H225.192C224.399 134.207 223.758 134.815 223.758 135.563V136.257C223.758 137.175 222.813 137.827 221.887 137.548L221.067 137.301C220.298 137.068 219.477 137.482 219.253 138.217ZM238.043 138.217L237.878 138.756C237.661 139.465 238.084 140.208 238.831 140.427L239.548 140.638C240.491 140.915 240.863 141.991 240.274 142.741L239.779 143.372C239.297 143.984 239.446 144.853 240.107 145.291L240.596 145.614C241.239 146.038 242.123 145.896 242.581 145.294L243.092 144.623C243.659 143.88 244.823 143.869 245.404 144.601L245.949 145.287C246.426 145.889 247.329 146.01 247.962 145.554L248.402 145.239C249.028 144.79 249.155 143.946 248.684 143.35L248.238 142.783C247.645 142.031 248.021 140.95 248.971 140.676L249.613 140.492C250.368 140.273 250.795 139.52 250.568 138.806L250.398 138.264C250.168 137.539 249.353 137.13 248.588 137.361L247.857 137.582C246.932 137.861 245.987 137.208 245.987 136.29V135.563C245.987 134.815 245.345 134.207 244.554 134.207H243.981C243.189 134.207 242.548 134.815 242.548 135.563V136.257C242.548 137.175 241.603 137.827 240.676 137.548L239.856 137.301C239.088 137.068 238.266 137.482 238.043 138.217ZM256.831 138.217L256.666 138.756C256.449 139.465 256.872 140.208 257.619 140.427L258.336 140.638C259.28 140.915 259.651 141.991 259.062 142.741L258.567 143.372C258.085 143.984 258.234 144.853 258.895 145.291L259.384 145.614C260.027 146.038 260.911 145.896 261.369 145.294L261.881 144.623C262.447 143.88 263.611 143.869 264.192 144.601L264.737 145.287C265.214 145.889 266.117 146.01 266.75 145.554L267.19 145.239C267.817 144.79 267.943 143.946 267.472 143.35L267.027 142.783C266.433 142.031 266.809 140.95 267.759 140.676L268.402 140.492C269.156 140.273 269.583 139.52 269.357 138.806L269.186 138.264C268.956 137.539 268.141 137.13 267.376 137.361L266.645 137.582C265.72 137.861 264.775 137.208 264.775 136.29V135.563C264.775 134.815 264.133 134.207 263.342 134.207H262.77C261.977 134.207 261.336 134.815 261.336 135.563V136.257C261.336 137.175 260.391 137.827 259.465 137.548L258.644 137.301C257.876 137.068 257.054 137.482 256.831 138.217ZM275.62 138.217L275.455 138.756C275.239 139.465 275.662 140.208 276.409 140.427L277.126 140.638C278.069 140.915 278.441 141.991 277.851 142.741L277.357 143.372C276.875 143.984 277.024 144.853 277.685 145.291L278.174 145.614C278.816 146.038 279.701 145.896 280.158 145.294L280.67 144.623C281.236 143.88 282.401 143.869 282.981 144.601L283.526 145.287C284.004 145.889 284.907 146.01 285.539 145.554L285.98 145.239C286.606 144.79 286.732 143.946 286.262 143.35L285.816 142.783C285.222 142.031 285.598 140.95 286.549 140.676L287.191 140.492C287.945 140.273 288.373 139.52 288.146 138.806L287.975 138.264C287.746 137.539 286.93 137.13 286.166 137.361L285.435 137.582C284.51 137.861 283.565 137.208 283.565 136.29V135.563C283.565 134.815 282.923 134.207 282.131 134.207H281.559C280.766 134.207 280.125 134.815 280.125 135.563V136.257C280.125 137.175 279.18 137.827 278.254 137.548L277.434 137.301C276.665 137.068 275.844 137.482 275.62 138.217ZM295.197 140.427L295.914 140.637C296.857 140.915 297.228 141.99 296.639 142.742L296.144 143.371C295.663 143.985 295.812 144.853 296.474 145.291L296.962 145.613C297.604 146.039 298.489 145.897 298.946 145.295L299.459 144.622C300.024 143.879 301.189 143.87 301.769 144.602L302.314 145.288C302.792 145.89 303.695 146.009 304.329 145.555L304.767 145.239C305.394 144.789 305.52 143.946 305.05 143.349L304.604 142.784C304.01 142.031 304.387 140.949 305.337 140.677L305.979 140.491C306.733 140.274 307.16 139.52 306.935 138.806L306.763 138.265C306.534 137.538 305.718 137.131 304.954 137.362L304.223 137.581C303.298 137.86 302.353 137.208 302.353 136.29V135.564C302.353 134.815 301.71 134.208 300.919 134.208H300.347C299.555 134.208 298.913 134.815 298.913 135.564V136.257C298.913 137.176 297.968 137.828 297.043 137.549L296.222 137.301C295.453 137.069 294.632 137.482 294.408 138.217L294.243 138.757C294.028 139.466 294.45 140.209 295.197 140.427ZM194.031 163.503C193.801 162.776 192.986 162.369 192.221 162.6L191.49 162.821C190.565 163.1 189.62 162.446 189.62 161.528V160.803C189.62 160.055 188.978 159.447 188.187 159.447H187.613C186.822 159.447 186.179 160.055 186.179 160.803V161.496C186.179 162.414 185.236 163.066 184.31 162.787L183.489 162.54C182.719 162.307 181.899 162.72 181.676 163.455L181.511 163.995C181.294 164.704 181.717 165.447 182.464 165.665L183.181 165.875C184.125 166.153 184.496 167.23 183.905 167.98L183.412 168.61C182.929 169.223 183.078 170.091 183.74 170.53L184.229 170.851C184.872 171.277 185.756 171.135 186.214 170.533L186.726 169.86C187.29 169.119 188.456 169.108 189.037 169.84L189.58 170.526C190.058 171.128 190.962 171.247 191.595 170.793L192.034 170.477C192.66 170.027 192.786 169.184 192.317 168.587L191.872 168.022C191.278 167.269 191.654 166.189 192.603 165.915L193.247 165.73C194.001 165.512 194.428 164.759 194.201 164.044L194.031 163.503ZM212.819 163.503C212.59 162.776 211.774 162.369 211.009 162.6L210.278 162.821C209.353 163.1 208.409 162.446 208.409 161.528V160.803C208.409 160.055 207.766 159.447 206.975 159.447H206.401C205.61 159.447 204.967 160.055 204.967 160.803V161.496C204.967 162.414 204.024 163.066 203.098 162.787L202.278 162.54C201.508 162.307 200.687 162.72 200.464 163.455L200.299 163.995C200.082 164.704 200.505 165.447 201.252 165.665L201.969 165.875C202.913 166.153 203.284 167.23 202.693 167.98L202.2 168.61C201.717 169.223 201.866 170.091 202.528 170.53L203.017 170.851C203.66 171.277 204.544 171.135 205.002 170.533L205.514 169.86C206.079 169.119 207.244 169.108 207.825 169.84L208.368 170.526C208.846 171.128 209.751 171.247 210.383 170.793L210.822 170.477C211.448 170.027 211.574 169.184 211.106 168.587L210.66 168.022C210.066 167.269 210.442 166.189 211.391 165.915L212.035 165.73C212.789 165.512 213.216 164.759 212.99 164.044L212.819 163.503ZM231.609 163.503C231.379 162.776 230.563 162.369 229.799 162.6L229.068 162.821C228.143 163.1 227.198 162.446 227.198 161.528V160.803C227.198 160.055 226.556 159.447 225.764 159.447H225.191C224.399 159.447 223.757 160.055 223.757 160.803V161.496C223.757 162.414 222.813 163.066 221.887 162.787L221.067 162.54C220.297 162.307 219.477 162.72 219.253 163.455L219.088 163.995C218.872 164.704 219.295 165.447 220.042 165.665L220.759 165.875C221.702 166.153 222.074 167.23 221.483 167.98L220.99 168.61C220.506 169.223 220.656 170.091 221.318 170.53L221.807 170.851C222.449 171.277 223.334 171.135 223.791 170.533L224.303 169.86C224.868 169.119 226.034 169.108 226.615 169.84L227.158 170.526C227.635 171.128 228.54 171.247 229.172 170.793L229.611 170.477C230.238 170.027 230.364 169.184 229.895 168.587L229.449 168.022C228.856 167.269 229.231 166.189 230.18 165.915L230.824 165.73C231.578 165.512 232.006 164.759 231.779 164.044L231.609 163.503ZM250.397 163.503C250.167 162.776 249.351 162.369 248.587 162.6L247.856 162.821C246.931 163.1 245.986 162.446 245.986 161.528V160.803C245.986 160.055 245.344 159.447 244.552 159.447H243.979C243.187 159.447 242.545 160.055 242.545 160.803V161.496C242.545 162.414 241.602 163.066 240.675 162.787L239.855 162.54C239.085 162.307 238.265 162.72 238.041 163.455L237.876 163.995C237.66 164.704 238.083 165.447 238.83 165.665L239.547 165.875C240.49 166.153 240.862 167.23 240.271 167.98L239.778 168.61C239.295 169.223 239.444 170.091 240.106 170.53L240.595 170.851C241.237 171.277 242.122 171.135 242.579 170.533L243.091 169.86C243.656 169.119 244.822 169.108 245.403 169.84L245.946 170.526C246.424 171.128 247.328 171.247 247.961 170.793L248.399 170.477C249.026 170.027 249.152 169.184 248.683 168.587L248.237 168.022C247.644 167.269 248.019 166.189 248.969 165.915L249.612 165.73C250.367 165.512 250.794 164.759 250.567 164.044L250.397 163.503ZM269.186 163.503C268.957 162.776 268.141 162.369 267.377 162.6L266.645 162.821C265.721 163.1 264.776 162.446 264.776 161.528V160.803C264.776 160.055 264.133 159.447 263.342 159.447H262.768C261.977 159.447 261.335 160.055 261.335 160.803V161.496C261.335 162.414 260.391 163.066 259.465 162.787L258.645 162.54C257.875 162.307 257.055 162.72 256.831 163.455L256.666 163.995C256.45 164.704 256.872 165.447 257.62 165.665L258.336 165.875C259.28 166.153 259.651 167.23 259.061 167.98L258.567 168.61C258.084 169.223 258.233 170.091 258.896 170.53L259.385 170.851C260.027 171.277 260.912 171.135 261.369 170.533L261.881 169.86C262.446 169.119 263.611 169.108 264.192 169.84L264.736 170.526C265.213 171.128 266.118 171.247 266.75 170.793L267.189 170.477C267.815 170.027 267.942 169.184 267.473 168.587L267.027 168.022C266.433 167.269 266.809 166.189 267.758 165.915L268.402 165.73C269.156 165.512 269.583 164.759 269.357 164.044L269.186 163.503ZM287.974 163.503C287.745 162.776 286.929 162.369 286.165 162.6L285.434 162.821C284.509 163.1 283.564 162.446 283.564 161.528V160.803C283.564 160.055 282.921 159.447 282.13 159.447H281.556C280.765 159.447 280.123 160.055 280.123 160.803V161.496C280.123 162.414 279.179 163.066 278.253 162.787L277.433 162.54C276.663 162.307 275.843 162.72 275.619 163.455L275.454 163.995C275.238 164.704 275.661 165.447 276.408 165.665L277.125 165.875C278.068 166.153 278.439 167.23 277.849 167.98L277.355 168.61C276.872 169.223 277.021 170.091 277.684 170.53L278.173 170.851C278.815 171.277 279.7 171.135 280.157 170.533L280.669 169.86C281.234 169.119 282.4 169.108 282.98 169.84L283.524 170.526C284.001 171.128 284.906 171.247 285.538 170.793L285.977 170.477C286.604 170.027 286.73 169.184 286.261 168.587L285.815 168.022C285.221 167.269 285.597 166.189 286.546 165.915L287.19 165.73C287.944 165.512 288.371 164.759 288.145 164.044L287.974 163.503ZM295.197 165.665L295.914 165.876C296.857 166.154 297.228 167.229 296.639 167.98L296.144 168.609C295.663 169.223 295.812 170.091 296.474 170.529L296.962 170.852C297.604 171.277 298.489 171.135 298.946 170.533L299.459 169.86C300.024 169.117 301.189 169.108 301.769 169.84L302.314 170.526C302.792 171.128 303.695 171.247 304.329 170.793L304.767 170.477C305.394 170.027 305.52 169.184 305.05 168.587L304.604 168.022C304.01 167.269 304.387 166.189 305.337 165.915L305.979 165.729C306.733 165.512 307.162 164.76 306.935 164.044L306.763 163.503C306.534 162.776 305.718 162.369 304.954 162.6L304.223 162.821C303.298 163.099 302.353 162.447 302.353 161.529V160.803C302.353 160.054 301.71 159.447 300.919 159.447H300.347C299.555 159.447 298.913 160.054 298.913 160.803V161.495C298.913 162.414 297.968 163.066 297.043 162.787L296.222 162.539C295.453 162.307 294.632 162.721 294.408 163.455L294.243 163.995C294.028 164.704 294.45 165.447 295.197 165.665Z" fill="#202225"/>
<path fill-rule="evenodd" clip-rule="evenodd" d="M129.418 207.54H114.488C114.034 207.54 113.61 207.339 113.338 206.996C113.068 206.653 112.984 206.21 113.113 205.799L116.357 195.444C116.538 194.868 117.097 194.473 117.732 194.473H132.663C133.114 194.473 133.54 194.676 133.811 195.019C134.082 195.362 134.167 195.805 134.038 196.214L130.793 206.569C130.612 207.145 130.052 207.54 129.418 207.54ZM138.202 223.489L139.399 219.726C139.582 219.153 140.14 218.761 140.772 218.761H160.979L163.593 207.54H145.369C144.922 207.54 144.502 207.342 144.231 207.007C143.96 206.672 143.868 206.236 143.986 205.829L146.959 195.475C147.13 194.884 147.696 194.473 148.343 194.473H165.361L168.636 183.125H152.805C152.351 183.125 151.923 182.922 151.654 182.577C151.381 182.233 151.301 181.787 151.433 181.376L157.028 163.922H144.272L138.636 182.149C138.457 182.728 137.896 183.125 137.26 183.125H122.328C121.876 183.125 121.45 182.924 121.181 182.583C120.908 182.241 120.825 181.799 120.951 181.388L126.355 163.922H113.429C111.667 169.694 109.713 175.976 107.751 182.158C107.569 182.732 107.01 183.125 106.378 183.125H86.4549L83.9443 194.473H102.052C102.494 194.473 102.911 194.666 103.182 194.996C103.454 195.325 103.55 195.755 103.443 196.159C102.353 200.278 101.388 202.766 99.9271 206.535C99.7206 207.069 99.1385 207.54 98.5363 207.54H81.4609L79.0664 218.761H94.2105C94.6635 218.761 95.0879 218.963 95.3589 219.305C95.6299 219.646 95.7131 220.088 95.5869 220.499L90.104 238.201H102.895L108.514 219.743C108.691 219.161 109.254 218.761 109.892 218.761H124.957C125.408 218.761 125.832 218.962 126.102 219.302C126.374 219.642 126.46 220.083 126.335 220.492L120.943 238.201H133.562C134.008 236.75 134.524 235.106 135.116 233.225C135.341 232.508 136.138 232.099 136.898 232.313V232.314C137.559 230.225 138.311 227.856 139.162 225.178C138.404 224.961 137.974 224.205 138.202 223.489Z" fill="#7A8EC7"/>
<path fill-rule="evenodd" clip-rule="evenodd" d="M130.196 198.927L128.651 203.858C128.47 204.434 127.911 204.829 127.276 204.829H118.327C117.369 204.829 116.68 203.956 116.952 203.087L118.498 198.157C118.678 197.58 119.238 197.186 119.873 197.186H128.821C129.779 197.186 130.469 198.058 130.196 198.927ZM134.037 196.215C134.166 195.804 134.082 195.361 133.811 195.018C133.54 194.675 133.114 194.474 132.662 194.474H117.732C117.097 194.474 116.538 194.869 116.357 195.445L113.112 205.798C112.983 206.209 113.068 206.652 113.337 206.996C113.61 207.339 114.036 207.541 114.487 207.541H129.418C130.051 207.541 130.612 207.146 130.793 206.57L134.037 196.215ZM323.66 84.4504C322.464 84.4504 321.495 83.5339 321.495 82.4031C321.495 81.6533 320.852 81.0472 320.061 81.0472C319.268 81.0472 318.627 81.6533 318.627 82.4031C318.627 83.5339 317.658 84.4504 316.462 84.4504C315.67 84.4504 315.028 85.0565 315.028 85.8063C315.028 86.5561 315.67 87.1621 316.462 87.1621C317.658 87.1621 318.627 88.0787 318.627 89.2095C318.627 89.9579 319.268 90.5653 320.061 90.5653C320.852 90.5653 321.495 89.9579 321.495 89.2095C321.495 88.0787 322.464 87.1621 323.66 87.1621C324.451 87.1621 325.093 86.5561 325.093 85.8063C325.093 85.0565 324.451 84.4504 323.66 84.4504ZM254.228 245.338C253.033 245.338 252.063 244.421 252.063 243.29C252.063 242.541 251.421 241.935 250.629 241.935C249.837 241.935 249.196 242.541 249.196 243.29C249.196 244.421 248.226 245.338 247.031 245.338C246.239 245.338 245.597 245.944 245.597 246.694C245.597 247.443 246.239 248.049 247.031 248.049C248.226 248.049 249.196 248.966 249.196 250.097C249.196 250.845 249.837 251.453 250.629 251.453C251.421 251.453 252.063 250.845 252.063 250.097C252.063 248.966 253.033 248.049 254.228 248.049C255.02 248.049 255.662 247.443 255.662 246.694C255.662 245.944 255.02 245.338 254.228 245.338ZM224.527 226.341C224.894 226.341 225.261 226.208 225.541 225.943L227.238 224.339C227.797 223.812 227.797 222.952 227.238 222.422C226.678 221.893 225.77 221.893 225.211 222.422L223.513 224.026C222.953 224.555 222.953 225.413 223.512 225.943C223.793 226.208 224.16 226.341 224.527 226.341ZM216.044 234.363C216.411 234.363 216.779 234.23 217.058 233.966L218.754 232.36C219.315 231.832 219.315 230.973 218.754 230.443C218.195 229.915 217.286 229.915 216.727 230.443L215.031 232.049C214.47 232.579 214.47 233.436 215.031 233.966C215.31 234.23 215.677 234.363 216.044 234.363ZM225.541 230.444C224.98 229.914 224.074 229.914 223.513 230.444C222.953 230.974 222.953 231.831 223.513 232.361L225.211 233.966C225.49 234.231 225.858 234.364 226.225 234.364C226.59 234.364 226.957 234.231 227.238 233.966C227.797 233.436 227.797 232.578 227.238 232.049L225.541 230.444ZM216.727 225.943C217.007 226.208 217.374 226.341 217.741 226.341C218.108 226.341 218.475 226.208 218.755 225.943C219.315 225.413 219.315 224.556 218.755 224.026L217.058 222.422C216.498 221.893 215.59 221.893 215.031 222.422C214.47 222.952 214.47 223.811 215.031 224.339L216.727 225.943ZM90.2046 21.6944C91.399 21.6944 92.3697 22.6136 92.3697 23.7417C92.3697 24.8711 91.399 25.7904 90.2046 25.7904C89.0102 25.7904 88.0395 24.8711 88.0395 23.7417C88.0395 22.6136 89.0102 21.6944 90.2046 21.6944ZM90.2046 28.5021C92.979 28.5021 95.2373 26.3653 95.2373 23.7417C95.2373 21.1168 92.979 18.9827 90.2046 18.9827C87.4287 18.9827 85.1719 21.1168 85.1719 23.7417C85.1719 26.3653 87.4287 28.5021 90.2046 28.5021Z" fill="#202225"/>
</svg>
