<svg width="378" height="192" viewBox="0 0 378 192" fill="none" xmlns="http://www.w3.org/2000/svg">
<g clip-path="url(#clip0)">
<mask id="mask0" mask-type="alpha" maskUnits="userSpaceOnUse" x="0" y="1" width="327" height="191">
<path d="M0 96.334V191.667H326.916V1H0V96.334Z" fill="white"/>
</mask>
<g mask="url(#mask0)">
<path fill-rule="evenodd" clip-rule="evenodd" d="M287.648 23.2201V23.2301C287.648 35.5011 277.7 45.4491 265.428 45.4491H259.24C248.062 45.4491 239.76 54.5111 239.76 65.6901C239.76 76.8671 248.822 85.9301 260 85.9301H303.248C316.32 85.9301 326.916 96.5271 326.916 109.598C326.916 122.669 316.32 133.266 303.248 133.266H258.2C242.073 133.266 229 146.339 229 162.466C229 178.593 215.927 191.667 199.8 191.667H41.957C29.282 191.667 19.007 181.392 19.007 168.717C19.007 156.042 29.282 145.766 41.957 145.766H49.694C66.18 145.766 79.544 132.402 79.544 115.916V115.908C79.544 99.4231 66.18 86.0591 49.694 86.0591H42.529C19.041 86.0591 0 67.0181 0 43.5301C0 20.0411 19.041 1.00012 42.529 1.00012H265.428C277.7 1.00012 287.648 10.9491 287.648 23.2201Z" fill="#4F545C" fill-opacity="0.3"/>
</g>
<rect x="184.5" y="22" width="49" height="42" rx="3" fill="#98A3BF"/>
<rect x="244.5" y="22" width="49" height="42" rx="3" fill="#98A3BF"/>
<rect x="274.5" y="73" width="49" height="42" rx="3" fill="#98A3BF"/>
<rect x="175" y="124" width="49" height="43" rx="3" fill="#98A3BF"/>
<path d="M235 127C235 125.343 236.343 124 238 124H344C345.657 124 347 125.343 347 127V167H238C236.343 167 235 165.657 235 164V127Z" fill="#98A3BF"/>
<path d="M30 76C30 74.3431 31.3431 73 33 73H139C140.657 73 142 74.3431 142 76V116H30V76Z" fill="#98A3BF"/>
<path fill-rule="evenodd" clip-rule="evenodd" d="M176.892 95.0706C176.601 95.0106 176.394 94.7556 176.394 94.4586V93.2936C176.394 92.8736 176.797 92.5806 177.2 92.6946C178.771 93.1366 179.97 92.7576 179.97 91.3216C179.97 89.8476 177.685 89.3616 176.527 90.5136C176.288 90.7526 175.915 90.7876 175.659 90.5686L174.225 89.3456C173.988 89.1436 173.934 88.7966 174.1 88.5336C177.075 83.8256 184.004 86.0066 184.004 91.0696C183.488 96.0136 178.501 95.4006 176.892 95.0706ZM178.747 101.842C177.551 101.842 176.595 100.885 176.595 99.6886C176.595 98.4706 177.551 97.4926 178.747 97.4926C179.965 97.4926 180.944 98.4706 180.944 99.6886C180.944 100.885 179.965 101.842 178.747 101.842ZM203.004 86.2656V76.2656C203.004 74.6116 201.659 73.2656 200.004 73.2656H158.004C156.35 73.2656 155.004 74.6116 155.004 76.2656V86.2656V112.266C155.004 113.921 156.35 115.266 158.004 115.266H200.004C201.659 115.266 203.004 113.921 203.004 112.266V86.2656ZM224.58 125.266H233.428C234.201 123.503 235.959 122.266 238.004 122.266H263.004V116.241C262.165 116.875 261.134 117.266 260.004 117.266H218.004C216.874 117.266 215.842 116.875 215.004 116.241V122.266H220.004C222.049 122.266 223.806 123.503 224.58 125.266ZM323.004 116.241C322.166 116.876 321.134 117.266 320.004 117.266H278.004C276.874 117.266 275.842 116.876 275.004 116.241V122.266H323.004V116.241ZM113.004 167.241C112.166 167.876 111.134 168.266 110.004 168.266H78.0039C76.8739 168.266 75.8419 167.876 75.0039 167.241V173.266C75.0039 174.921 76.3499 176.266 78.0039 176.266H110.004C111.658 176.266 113.004 174.921 113.004 173.266V167.241ZM163.004 167.241C162.166 167.876 161.134 168.266 160.004 168.266H128.004C126.874 168.266 125.842 167.876 125.004 167.241V173.266C125.004 174.921 126.35 176.266 128.004 176.266H160.004C161.658 176.266 163.004 174.921 163.004 173.266V167.241ZM160.004 124.266H128.004C126.35 124.266 125.004 125.612 125.004 127.266V137.266V163.266C125.004 164.92 126.35 166.266 128.004 166.266H160.004C161.658 166.266 163.004 164.92 163.004 163.266V137.266V127.266C163.004 125.612 161.658 124.266 160.004 124.266ZM188.255 168.266H178.004C176.874 168.266 175.842 167.875 175.004 167.241V173.266C175.004 174.92 176.35 176.266 178.004 176.266H220.004C221.658 176.266 223.004 174.92 223.004 173.266V167.241C222.166 167.875 221.134 168.266 220.004 168.266H193.922C193.37 168.266 192.922 167.819 192.922 167.266H189.255C189.255 167.819 188.807 168.266 188.255 168.266Z" fill="#697184"/>
<path d="M30 116H142V123C142 124.657 140.657 126 139 126H33C31.3431 126 30 124.657 30 123V116Z" fill="#7F879C"/>
<path fill-rule="evenodd" clip-rule="evenodd" d="M215.004 22.266H216.587C217.14 22.266 217.587 21.819 217.587 21.266C217.587 20.713 217.14 20.266 216.587 20.266H215.004C214.452 20.266 214.004 20.713 214.004 21.266C214.004 21.819 214.452 22.266 215.004 22.266ZM91.422 116.266C91.422 115.713 90.974 115.266 90.422 115.266H45.01C44.458 115.266 44.01 115.713 44.01 116.266C44.011 116.819 44.458 117.266 45.01 117.266H90.422C90.974 117.266 91.422 116.819 91.422 116.266ZM95.752 117.266C96.304 117.266 96.752 116.819 96.752 116.266C96.752 115.713 96.304 115.266 95.752 115.266H95.211C94.659 115.266 94.211 115.713 94.211 116.266C94.212 116.819 94.659 117.266 95.211 117.266H95.752Z" fill="#1F2225"/>
<rect x="125" y="22" width="49" height="43" rx="3" fill="#818AA1"/>
<rect x="154.5" y="73" width="49" height="42" rx="3" fill="#818AA1"/>
<rect x="125" y="124" width="38" height="42" rx="3" fill="#818AA1"/>
<path d="M235 170C235 168.343 236.343 167 238 167H347V174C347 175.657 345.657 177 344 177H238C236.343 177 235 175.657 235 174V170Z" fill="#7F879C"/>
<path d="M175 170C175 168.343 176.343 167 178 167H221C222.657 167 224 168.343 224 170V174C224 175.657 222.657 177 221 177H178C176.343 177 175 175.657 175 174V170Z" fill="#7F879C"/>
<path d="M245 68C245 66.3431 246.343 65 248 65H291C292.657 65 294 66.3431 294 68V69.5C294 71.1569 292.657 72.5 291 72.5H286H277.942C277.031 72.5 276.169 72.9143 275.599 73.6259L274.5 75V75C274.18 75.3201 273.746 75.5 273.293 75.5H272H265L247.925 75.0731C246.298 75.0324 245 73.7017 245 72.0741V68Z" fill="#7F879C"/>
<path d="M274 117C274 115.343 275.343 114 277 114H320C321.657 114 323 115.343 323 117V121C323 122.657 321.657 124 320 124H277C275.343 124 274 122.657 274 121V117Z" fill="#7F879C"/>
<path d="M184 65H234V72H217.5L213 74.5L209 75L205 74.5L201 72H184V65Z" fill="#7F879C"/>
<path fill-rule="evenodd" clip-rule="evenodd" d="M164.576 126H173.424C174.197 124.047 175.955 122.676 178 122.676H203V116C202.161 116.702 201.13 117.136 200 117.136H158C156.87 117.136 155.838 116.702 155 116V122.676H160C162.045 122.676 163.802 124.047 164.576 126Z" fill="#697184"/>
<path fill-rule="evenodd" clip-rule="evenodd" d="M233.428 125.266H224.58C223.806 123.503 222.049 122.266 220.004 122.266H215.004V116.241C215.843 116.875 216.874 117.266 218.004 117.266H260.004C261.134 117.266 262.166 116.875 263.004 116.241V122.266H238.004C235.959 122.266 234.201 123.503 233.428 125.266ZM223.004 137.266V163.266C223.004 164.923 221.661 166.266 220.004 166.266H193.922C193.37 166.266 192.922 166.713 192.922 167.266C192.922 167.819 193.37 168.266 193.922 168.266H220.004H220.038C221.651 168.254 223.004 169.453 223.004 171.066V173.266C223.004 174.923 221.661 176.266 220.004 176.266H178.004C176.347 176.266 175.004 174.923 175.004 173.266V171.066C175.004 169.453 176.358 168.254 177.97 168.266H178.004H188.255C188.807 168.266 189.255 167.819 189.255 167.266C189.255 166.713 188.807 166.266 188.255 166.266H178.004C176.347 166.266 175.004 164.923 175.004 163.266V137.266V127.266C175.004 125.609 176.347 124.266 178.004 124.266H220.004C221.661 124.266 223.004 125.609 223.004 127.266V137.266ZM173.428 125.266H164.58C163.806 123.503 162.049 122.266 160.004 122.266H155.004V116.241C155.843 116.875 156.874 117.266 158.004 117.266H200.004C201.134 117.266 202.166 116.875 203.004 116.241V122.266H178.004C175.959 122.266 174.201 123.503 173.428 125.266ZM163.004 137.266V162.265C163.004 163.919 161.658 165.265 160.004 165.265H128.004C126.35 165.265 125.004 163.919 125.004 162.265V137.266V127.266C125.004 125.612 126.35 124.266 128.004 124.266H160.004C161.658 124.266 163.004 125.612 163.004 127.266V137.266ZM163.004 173.266C163.004 174.923 161.661 176.266 160.004 176.266H128.004C126.347 176.266 125.004 174.923 125.004 173.266V171.066C125.004 169.453 126.358 168.254 127.97 168.266H128.004H160.004H160.038C161.651 168.254 163.004 169.453 163.004 171.066V173.266ZM149.004 121.265H147.004C144.795 121.265 143.004 119.474 143.004 117.265V112.266V86.266V78.266C143.004 77.162 143.9 76.266 145.004 76.266H151.004C152.109 76.266 153.004 77.162 153.004 78.266V86.266V112.266V117.265C153.004 119.474 151.213 121.265 149.004 121.265ZM138.004 71.266H127.514C126.128 71.266 125.004 70.142 125.004 68.756V68.752C125.004 67.309 126.217 66.151 127.656 66.253C127.771 66.262 127.887 66.266 128.004 66.266H170.004C170.121 66.266 170.238 66.262 170.353 66.253C171.792 66.151 173.004 67.309 173.004 68.752V68.756C173.004 70.142 171.881 71.266 170.494 71.266H158.004C156.368 71.266 154.916 72.058 154.005 73.277C153.514 73.933 152.702 74.266 151.883 74.266H144.125C143.306 74.266 142.494 73.933 142.004 73.277C141.092 72.058 139.64 71.266 138.004 71.266ZM125.004 35.266V25.266C125.004 23.612 126.35 22.266 128.004 22.266H170.004C171.658 22.266 173.004 23.612 173.004 25.266V35.266V61.266C173.004 62.92 171.658 64.266 170.004 64.266H128.004C126.35 64.266 125.004 62.92 125.004 61.266V35.266ZM200.004 73.266C201.658 73.266 203.004 74.612 203.004 76.266V86.266V112.266C203.004 113.92 201.658 115.266 200.004 115.266H158.004C156.35 115.266 155.004 113.92 155.004 112.266V86.266V76.266C155.004 74.612 156.35 73.266 158.004 73.266H200.004ZM205.004 112.266V86.266V78.266C205.004 77.162 205.9 76.266 207.004 76.266H211.004C212.109 76.266 213.004 77.162 213.004 78.266V86.266V112.266V117.265C213.004 119.474 211.213 121.265 209.004 121.265C206.795 121.265 205.004 119.474 205.004 117.265V112.266ZM185.004 68.752C185.004 67.309 186.217 66.151 187.656 66.253C187.771 66.262 187.887 66.266 188.004 66.266H230.004C230.121 66.266 230.238 66.262 230.353 66.253C231.792 66.151 233.004 67.309 233.004 68.752V68.756C233.004 70.142 231.881 71.266 230.494 71.266H218.004C216.368 71.266 214.916 72.058 214.005 73.277C213.514 73.933 212.702 74.266 211.883 74.266H206.125C205.306 74.266 204.494 73.933 204.004 73.277C203.092 72.058 201.64 71.266 200.004 71.266H187.514C186.128 71.266 185.004 70.142 185.004 68.756V68.752ZM260.004 73.266C261.658 73.266 263.004 74.612 263.004 76.266V86.266V111.265C263.004 112.919 261.658 114.265 260.004 114.265H218.004C216.35 114.265 215.004 112.919 215.004 111.265V86.266V76.266C215.004 74.612 216.35 73.266 218.004 73.266H260.004ZM245.004 68.752C245.004 67.309 246.217 66.151 247.656 66.253C247.771 66.262 247.887 66.266 248.004 66.266H290.004C290.121 66.266 290.238 66.262 290.353 66.253C291.792 66.151 293.004 67.309 293.004 68.752V68.756C293.004 70.142 291.881 71.266 290.494 71.266H278.004C275.59 71.266 273.57 72.987 273.105 75.266C273.039 75.589 273.004 75.924 273.004 76.266V86.266V112.266V117.265C273.004 119.474 271.213 121.265 269.004 121.265C266.795 121.265 265.004 119.474 265.004 117.265V112.266V86.266V78.266C265.004 77.162 265.9 76.266 267.004 76.266H269.004C269.556 76.266 270.004 75.819 270.004 75.266C270.004 74.713 269.556 74.266 269.004 74.266H266.125C265.306 74.266 264.494 73.933 264.004 73.277C263.092 72.058 261.64 71.266 260.004 71.266H247.514C246.128 71.266 245.004 70.142 245.004 68.756V68.752ZM245.004 35.266V25.266C245.004 23.612 246.35 22.266 248.004 22.266H290.004C291.658 22.266 293.004 23.612 293.004 25.266V35.266V61.266C293.004 62.92 291.658 64.266 290.004 64.266H248.004C246.35 64.266 245.004 62.92 245.004 61.266V35.266ZM320.004 73.266C321.658 73.266 323.004 74.612 323.004 76.266V86.266V111.265C323.004 112.919 321.658 114.265 320.004 114.265H278.004C276.35 114.265 275.004 112.919 275.004 111.265V86.266V76.266C275.004 74.612 276.35 73.266 278.004 73.266H320.004ZM323.004 122.266H275.004V116.241C275.843 116.875 276.874 117.266 278.004 117.266H320.004C321.134 117.266 322.166 116.875 323.004 116.241V122.266ZM113.004 137.266V163.266C113.004 164.92 111.658 166.266 110.004 166.266H78.0037C76.3497 166.266 75.0037 164.92 75.0037 163.266V137.266V127.266C75.0037 125.612 76.3497 124.266 78.0037 124.266H110.004C111.658 124.266 113.004 125.612 113.004 127.266V137.266ZM113.004 173.266C113.004 174.92 111.658 176.266 110.004 176.266H78.0037C76.3497 176.266 75.0037 174.92 75.0037 173.266V167.241C75.8427 167.875 76.8737 168.266 78.0037 168.266H110.004C111.134 168.266 112.166 167.875 113.004 167.241V173.266ZM322.741 166.266H238.004C236.347 166.266 235.004 164.923 235.004 163.266V137.266V127.266C235.004 125.609 236.347 124.266 238.004 124.266H345.669C346.221 124.266 346.668 123.819 346.669 123.266C346.669 122.713 346.221 122.266 345.669 122.266H329.004C326.795 122.266 325.004 120.475 325.004 118.266V112.266V86.266V76.266C325.004 73.504 322.765 71.266 320.004 71.266H305.004C299.481 71.266 295.004 66.788 295.004 61.266V35.266V25.266C295.004 22.504 292.765 20.266 290.004 20.266H248.004C245.243 20.266 243.004 22.504 243.004 25.266V35.266V61.266V65.264C243.004 67.474 241.213 69.264 239.004 69.264C236.795 69.264 235.004 67.474 235.004 65.264V61.266V35.266V25.266C235.004 22.504 232.765 20.266 230.004 20.266H220.255C219.703 20.266 219.255 20.713 219.255 21.266C219.255 21.819 219.703 22.266 220.255 22.266H230.004C231.661 22.266 233.004 23.609 233.004 25.266V35.266V59.264C233.004 60.921 231.661 62.264 230.004 62.264H188.004C186.347 62.264 185.004 60.921 185.004 59.264V35.266V25.266C185.004 23.609 186.347 22.266 188.004 22.266H211.088C211.64 22.266 212.088 21.819 212.088 21.266C212.088 20.713 211.64 20.266 211.088 20.266H188.004C185.243 20.266 183.004 22.504 183.004 25.266V35.266V61.266V65.264C183.004 67.474 181.213 69.264 179.004 69.264C176.795 69.264 175.004 67.474 175.004 65.264V61.266V35.266V25.266C175.004 22.504 172.765 20.266 170.004 20.266H128.004C125.243 20.266 123.004 22.504 123.004 25.266V35.266V61.266C123.004 66.788 118.527 71.266 113.004 71.266H68.4217C67.8687 71.266 67.4217 71.713 67.4217 72.266C67.4217 72.819 67.8687 73.266 68.4217 73.266H138.004C139.661 73.266 141.004 74.609 141.004 76.266V86.266V112.266C141.004 113.923 139.661 115.266 138.004 115.266H106.419C105.866 115.266 105.419 115.713 105.419 116.266C105.419 116.819 105.866 117.266 106.419 117.266H138.004C139.134 117.266 140.166 116.875 141.004 116.241V118.266C141.004 120.475 139.213 122.266 137.004 122.266H128.004C125.959 122.266 124.201 123.503 123.428 125.266H114.58C113.806 123.503 112.049 122.266 110.004 122.266H78.0037C75.9587 122.266 74.2007 123.503 73.4277 125.266H64.6387C64.0867 125.266 63.6387 125.713 63.6387 126.266C63.6387 126.819 64.0867 127.266 64.6387 127.266H65.0037C69.4227 127.266 73.0037 130.848 73.0037 135.266V137.266V163.266V173.266C73.0037 176.028 75.2427 178.266 78.0037 178.266H110.004C112.765 178.266 115.004 176.028 115.004 173.266V163.266V137.266V129.266C115.004 128.162 115.9 127.266 117.004 127.266H121.004C122.109 127.266 123.004 128.162 123.004 129.266V137.266V163.266V173.266C123.004 176.028 125.243 178.266 128.004 178.266H160.004C162.765 178.266 165.004 176.028 165.004 173.266V163.266V137.266V129.266C165.004 128.162 165.9 127.266 167.004 127.266H171.004C172.109 127.266 173.004 128.162 173.004 129.266V137.266V163.266V173.266C173.004 176.028 175.243 178.266 178.004 178.266H220.004C222.765 178.266 225.004 176.028 225.004 173.266V163.266V137.266V129.266C225.004 128.162 225.9 127.266 227.004 127.266H231.004C232.109 127.266 233.004 128.162 233.004 129.266V137.266V163.266V173.266C233.004 176.028 235.243 178.266 238.004 178.266H309.737C310.289 178.266 310.737 177.819 310.737 177.266C310.737 176.713 310.289 176.266 309.737 176.266H238.004C236.347 176.266 235.004 174.923 235.004 173.266V171.222C235.004 169.585 236.334 168.26 237.97 168.266H238.004H322.741C323.293 168.266 323.741 167.819 323.741 167.266C323.741 166.713 323.293 166.266 322.741 166.266ZM329.987 166.266H327.741C327.189 166.266 326.741 166.713 326.741 167.266C326.741 167.819 327.189 168.266 327.741 168.266H329.987C330.539 168.266 330.987 167.819 330.987 167.266C330.987 166.713 330.539 166.266 329.987 166.266Z" fill="#1F2225"/>
<path fill-rule="evenodd" clip-rule="evenodd" d="M178.747 97.4925C177.551 97.4925 176.594 98.4715 176.594 99.6885C176.594 100.885 177.551 101.842 178.747 101.842C179.965 101.842 180.943 100.885 180.943 99.6885C180.943 98.4715 179.965 97.4925 178.747 97.4925ZM175.659 90.5687C175.915 90.7877 176.288 90.7527 176.527 90.5137C177.685 89.3617 179.97 89.8477 179.97 91.3217C179.97 92.7577 178.771 93.1367 177.2 92.6947C176.797 92.5807 176.394 92.8737 176.394 93.2937V94.4587C176.394 94.7557 176.601 95.0107 176.892 95.0707C178.501 95.4007 183.488 96.0137 184.004 91.0697C184.004 86.0067 177.075 83.8257 174.1 88.5337C173.934 88.7967 173.988 89.1437 174.224 89.3457L175.659 90.5687ZM198.747 148.492C197.551 148.492 196.594 149.471 196.594 150.688C196.594 151.885 197.551 152.842 198.747 152.842C199.965 152.842 200.943 151.885 200.943 150.688C200.943 149.471 199.965 148.492 198.747 148.492ZM194.1 139.533C193.934 139.796 193.987 140.143 194.224 140.345L195.659 141.568C195.915 141.787 196.288 141.752 196.527 141.513C197.684 140.361 199.97 140.847 199.97 142.321C199.97 143.758 198.771 144.137 197.199 143.694C196.796 143.58 196.393 143.873 196.393 144.293V145.458C196.393 145.755 196.6 146.011 196.892 146.07C198.5 146.4 203.488 147.013 204.004 142.069C204.004 137.006 197.074 134.825 194.1 139.533ZM98.188 41.266C99.022 41.266 99.698 41.942 99.698 42.776V42.777C99.698 43.329 100.146 43.777 100.698 43.777C101.251 43.777 101.698 43.329 101.698 42.777V42.776C101.698 41.942 102.374 41.266 103.208 41.266C103.76 41.266 104.208 40.819 104.208 40.266C104.208 39.713 103.76 39.266 103.208 39.266C102.374 39.266 101.698 38.59 101.698 37.756C101.698 37.204 101.251 36.756 100.698 36.756C100.146 36.756 99.698 37.204 99.698 37.756C99.698 38.59 99.022 39.266 98.188 39.266C97.636 39.266 97.188 39.713 97.188 40.266C97.188 40.819 97.636 41.266 98.188 41.266ZM338.578 101.669C339.412 101.669 340.088 102.346 340.088 103.179C340.088 103.732 340.536 104.179 341.088 104.179C341.641 104.179 342.088 103.732 342.088 103.179C342.088 102.346 342.765 101.669 343.598 101.669H343.599C344.151 101.669 344.599 101.222 344.599 100.669C344.599 100.116 344.151 99.6693 343.599 99.6693H343.598C342.765 99.6693 342.088 98.9933 342.088 98.1593C342.088 97.6073 341.641 97.1593 341.088 97.1593C340.536 97.1593 340.088 97.6073 340.088 98.1593C340.088 98.9933 339.412 99.6693 338.578 99.6693C338.026 99.6693 337.578 100.116 337.578 100.669C337.578 101.222 338.026 101.669 338.578 101.669ZM61.9272 58.2181C62.1832 58.2181 62.4392 58.1201 62.6342 57.9251L63.8182 56.7411C64.2082 56.3511 64.2082 55.7181 63.8182 55.3271C63.4272 54.9371 62.7942 54.9371 62.4042 55.3271L61.2202 56.5111C60.8292 56.9021 60.8292 57.5341 61.2202 57.9251C61.4152 58.1201 61.6712 58.2181 61.9272 58.2181ZM56.0112 64.1341C56.2672 64.1341 56.5232 64.0361 56.7182 63.8411L57.9012 62.6571C58.2922 62.2671 58.2922 61.6341 57.9012 61.2431C57.5112 60.8531 56.8772 60.8531 56.4872 61.2431L55.3042 62.4271C54.9132 62.8181 54.9132 63.4501 55.3042 63.8411C55.4992 64.0361 55.7552 64.1341 56.0112 64.1341ZM62.4038 63.8411C62.5988 64.0361 62.8548 64.1341 63.1108 64.1341C63.3668 64.1341 63.6228 64.0361 63.8178 63.8411C64.2088 63.4501 64.2088 62.8181 63.8178 62.4271L62.6338 61.2431C62.2438 60.8531 61.6108 60.8531 61.2198 61.2431C60.8298 61.6341 60.8298 62.2671 61.2198 62.6571L62.4038 63.8411ZM56.4873 57.9251C56.6823 58.1201 56.9383 58.2181 57.1943 58.2181C57.4503 58.2181 57.7063 58.1201 57.9013 57.9251C58.2923 57.5341 58.2923 56.9021 57.9013 56.5111L56.7183 55.3271C56.3273 54.9371 55.6953 54.9371 55.3043 55.3271C54.9133 55.7181 54.9133 56.3511 55.3043 56.7411L56.4873 57.9251ZM321.46 48.4515C321.716 48.4515 321.972 48.3535 322.167 48.1585L323.35 46.9745C323.741 46.5845 323.741 45.9515 323.35 45.5605C322.96 45.1705 322.326 45.1705 321.936 45.5605L320.753 46.7445C320.362 47.1355 320.362 47.7675 320.753 48.1585C320.948 48.3535 321.204 48.4515 321.46 48.4515ZM315.543 54.3675C315.799 54.3675 316.055 54.2695 316.25 54.0745L317.433 52.8905C317.824 52.5005 317.824 51.8675 317.433 51.4765C317.043 51.0865 316.409 51.0865 316.019 51.4765L314.836 52.6605C314.445 53.0515 314.445 53.6835 314.836 54.0745C315.031 54.2695 315.287 54.3675 315.543 54.3675ZM321.936 54.0745C322.131 54.2695 322.387 54.3675 322.643 54.3675C322.899 54.3675 323.155 54.2695 323.35 54.0745C323.741 53.6835 323.741 53.0515 323.35 52.6605L322.167 51.4765C321.776 51.0865 321.144 51.0865 320.753 51.4765C320.362 51.8675 320.362 52.5005 320.753 52.8905L321.936 54.0745ZM316.02 48.1585C316.215 48.3535 316.471 48.4515 316.727 48.4515C316.983 48.4515 317.239 48.3535 317.434 48.1585C317.825 47.7675 317.825 47.1355 317.434 46.7445L316.251 45.5605C315.86 45.1705 315.228 45.1705 314.837 45.5605C314.446 45.9515 314.446 46.5845 314.837 46.9745L316.02 48.1585ZM89.875 19.266C90.708 19.266 91.385 19.944 91.385 20.777C91.385 21.609 90.708 22.287 89.875 22.287C89.042 22.287 88.365 21.609 88.365 20.777C88.365 19.944 89.042 19.266 89.875 19.266ZM89.875 24.287C91.811 24.287 93.385 22.712 93.385 20.777C93.385 18.841 91.811 17.266 89.875 17.266C87.94 17.266 86.365 18.841 86.365 20.777C86.365 22.712 87.94 24.287 89.875 24.287Z" fill="#1F2225"/>
<path fill-rule="evenodd" clip-rule="evenodd" d="M260.004 73.266C261.658 73.266 263.004 74.612 263.004 76.266V86.266V111.265C263.004 112.919 261.658 114.265 260.004 114.265H218.004C216.35 114.265 215.004 112.919 215.004 111.265V86.266V76.266C215.004 74.612 216.35 73.266 218.004 73.266H260.004ZM113.004 137.266V163.266C113.004 164.92 111.658 166.266 110.004 166.266H78.0039C76.3499 166.266 75.0039 164.92 75.0039 163.266V137.266V127.266C75.0039 125.612 76.3499 124.266 78.0039 124.266H110.004C111.658 124.266 113.004 125.612 113.004 127.266V137.266Z" fill="#36393E"/>
<rect x="75" y="124" width="38" height="42" rx="3" fill="#818AA1"/>
<path fill-rule="evenodd" clip-rule="evenodd" d="M138.004 71.266H127.514C126.128 71.266 125.004 70.142 125.004 68.756V68.752C125.004 67.309 126.216 66.151 127.655 66.253C127.771 66.262 127.887 66.266 128.004 66.266H170.004C170.121 66.266 170.237 66.262 170.353 66.253C171.792 66.151 173.004 67.309 173.004 68.752V68.756C173.004 70.142 171.88 71.266 170.494 71.266H158.004C156.368 71.266 154.916 72.058 154.004 73.277C153.514 73.933 152.702 74.266 151.883 74.266H144.125C143.306 74.266 142.494 73.933 142.004 73.277C141.092 72.058 139.64 71.266 138.004 71.266Z" fill="#697184"/>
<rect x="214.5" y="73" width="49" height="42" rx="3" fill="#818AA1"/>
</g>
<defs>
<clipPath id="clip0">
<rect width="378" height="192" fill="white"/>
</clipPath>
</defs>
</svg>
