<svg width="378" height="192" viewBox="0 0 378 192" fill="none" xmlns="http://www.w3.org/2000/svg">
<g clip-path="url(#clip0)">
<mask id="mask0" mask-type="alpha" maskUnits="userSpaceOnUse" x="0" y="1" width="327" height="191">
<path d="M0 96.334V191.667H326.916V1H0V96.334Z" fill="white"/>
</mask>
<g mask="url(#mask0)">
<path fill-rule="evenodd" clip-rule="evenodd" d="M287.648 23.2201V23.2301C287.648 35.5011 277.7 45.4491 265.428 45.4491H259.24C248.062 45.4491 239.76 54.5111 239.76 65.6901C239.76 76.8671 248.822 85.9301 260 85.9301H303.248C316.32 85.9301 326.916 96.5271 326.916 109.598C326.916 122.669 316.32 133.266 303.248 133.266H258.2C242.073 133.266 229 146.339 229 162.466C229 178.593 215.927 191.667 199.8 191.667H41.957C29.282 191.667 19.007 181.392 19.007 168.717C19.007 156.042 29.282 145.766 41.957 145.766H49.694C66.18 145.766 79.544 132.402 79.544 115.916V115.908C79.544 99.4231 66.18 86.0591 49.694 86.0591H42.529C19.041 86.0591 0 67.0181 0 43.5301C0 20.0411 19.041 1.00012 42.529 1.00012H265.428C277.7 1.00012 287.648 10.9491 287.648 23.2201Z" fill="#4F545C" fill-opacity="0.3"/>
</g>
<rect x="153.5" y="22" width="49" height="42" rx="3" fill="#98A3BF"/>
<rect x="213.5" y="22" width="49" height="42" rx="3" fill="#98A3BF"/>
<rect x="243.5" y="73" width="49" height="42" rx="3" fill="#98A3BF"/>
<rect x="144" y="124" width="49" height="43" rx="3" fill="#98A3BF"/>
<path d="M204 127C204 125.343 205.343 124 207 124H313C314.657 124 316 125.343 316 127V167H207C205.343 167 204 165.657 204 164V127Z" fill="#98A3BF"/>
<path d="M-1 76C-1 74.3431 0.343146 73 2 73H108C109.657 73 111 74.3431 111 76V116H-1V76Z" fill="#98A3BF"/>
<path fill-rule="evenodd" clip-rule="evenodd" d="M145.892 95.0706C145.601 95.0106 145.394 94.7556 145.394 94.4586V93.2936C145.394 92.8736 145.797 92.5806 146.2 92.6946C147.771 93.1366 148.97 92.7576 148.97 91.3216C148.97 89.8476 146.685 89.3616 145.527 90.5136C145.288 90.7526 144.915 90.7876 144.659 90.5686L143.225 89.3456C142.988 89.1436 142.934 88.7966 143.1 88.5336C146.075 83.8256 153.004 86.0066 153.004 91.0696C152.488 96.0136 147.501 95.4006 145.892 95.0706ZM147.747 101.842C146.551 101.842 145.595 100.885 145.595 99.6886C145.595 98.4706 146.551 97.4926 147.747 97.4926C148.965 97.4926 149.944 98.4706 149.944 99.6886C149.944 100.885 148.965 101.842 147.747 101.842ZM172.004 86.2656V76.2656C172.004 74.6116 170.659 73.2656 169.004 73.2656H127.004C125.35 73.2656 124.004 74.6116 124.004 76.2656V86.2656V112.266C124.004 113.921 125.35 115.266 127.004 115.266H169.004C170.659 115.266 172.004 113.921 172.004 112.266V86.2656ZM193.58 125.266H202.428C203.201 123.503 204.959 122.266 207.004 122.266H232.004V116.241C231.165 116.875 230.134 117.266 229.004 117.266H187.004C185.874 117.266 184.842 116.875 184.004 116.241V122.266H189.004C191.049 122.266 192.806 123.503 193.58 125.266ZM292.004 116.241C291.166 116.876 290.134 117.266 289.004 117.266H247.004C245.874 117.266 244.842 116.876 244.004 116.241V122.266H292.004V116.241ZM82.004 167.241C81.166 167.876 80.134 168.266 79.004 168.266H47.004C45.874 168.266 44.842 167.876 44.004 167.241V173.266C44.004 174.921 45.35 176.266 47.004 176.266H79.004C80.658 176.266 82.004 174.921 82.004 173.266V167.241ZM132.004 167.241C131.166 167.876 130.134 168.266 129.004 168.266H97.004C95.874 168.266 94.842 167.876 94.004 167.241V173.266C94.004 174.921 95.35 176.266 97.004 176.266H129.004C130.658 176.266 132.004 174.921 132.004 173.266V167.241ZM129.004 124.266H97.004C95.35 124.266 94.004 125.612 94.004 127.266V137.266V163.266C94.004 164.92 95.35 166.266 97.004 166.266H129.004C130.658 166.266 132.004 164.92 132.004 163.266V137.266V127.266C132.004 125.612 130.658 124.266 129.004 124.266ZM157.255 168.266H147.004C145.874 168.266 144.842 167.875 144.004 167.241V173.266C144.004 174.92 145.35 176.266 147.004 176.266H189.004C190.658 176.266 192.004 174.92 192.004 173.266V167.241C191.166 167.875 190.134 168.266 189.004 168.266H162.922C162.37 168.266 161.922 167.819 161.922 167.266H158.255C158.255 167.819 157.807 168.266 157.255 168.266Z" fill="#697184"/>
<path d="M-1 116H111V123C111 124.657 109.657 126 108 126H2C0.343148 126 -1 124.657 -1 123V116Z" fill="#7F879C"/>
<path fill-rule="evenodd" clip-rule="evenodd" d="M184.004 22.266H185.587C186.14 22.266 186.587 21.819 186.587 21.266C186.587 20.713 186.14 20.266 185.587 20.266H184.004C183.452 20.266 183.004 20.713 183.004 21.266C183.004 21.819 183.452 22.266 184.004 22.266ZM60.422 116.266C60.422 115.713 59.974 115.266 59.422 115.266H14.01C13.458 115.266 13.01 115.713 13.01 116.266C13.011 116.819 13.458 117.266 14.01 117.266H59.422C59.974 117.266 60.422 116.819 60.422 116.266ZM64.752 117.266C65.304 117.266 65.752 116.819 65.752 116.266C65.752 115.713 65.304 115.266 64.752 115.266H64.211C63.659 115.266 63.211 115.713 63.211 116.266C63.212 116.819 63.659 117.266 64.211 117.266H64.752Z" fill="#1F2225"/>
<rect x="94" y="22" width="49" height="43" rx="3" fill="#818AA1"/>
<rect x="123.5" y="73" width="49" height="42" rx="3" fill="#818AA1"/>
<rect x="94" y="124" width="38" height="42" rx="3" fill="#818AA1"/>
<path d="M204 170C204 168.343 205.343 167 207 167H316V174C316 175.657 314.657 177 313 177H207C205.343 177 204 175.657 204 174V170Z" fill="#7F879C"/>
<path d="M144 170C144 168.343 145.343 167 147 167H190C191.657 167 193 168.343 193 170V174C193 175.657 191.657 177 190 177H147C145.343 177 144 175.657 144 174V170Z" fill="#7F879C"/>
<path d="M214 68C214 66.3431 215.343 65 217 65H260C261.657 65 263 66.3431 263 68V69.5C263 71.1569 261.657 72.5 260 72.5H255H246.942C246.031 72.5 245.169 72.9143 244.599 73.6259L243.5 75C243.18 75.3201 242.746 75.5 242.293 75.5H241H234L216.925 75.0731C215.298 75.0324 214 73.7017 214 72.0741V68Z" fill="#7F879C"/>
<path d="M243 117C243 115.343 244.343 114 246 114H289C290.657 114 292 115.343 292 117V121C292 122.657 290.657 124 289 124H246C244.343 124 243 122.657 243 121V117Z" fill="#7F879C"/>
<path d="M153 65H203V72H186.5L182 74.5L178 75L174 74.5L170 72H153V65Z" fill="#7F879C"/>
<path fill-rule="evenodd" clip-rule="evenodd" d="M133.576 126H142.424C143.197 124.047 144.955 122.676 147 122.676H172V116C171.161 116.702 170.13 117.136 169 117.136H127C125.87 117.136 124.838 116.702 124 116V122.676H129C131.045 122.676 132.802 124.047 133.576 126Z" fill="#697184"/>
<path fill-rule="evenodd" clip-rule="evenodd" d="M202.428 125.266H193.58C192.806 123.503 191.049 122.266 189.004 122.266H184.004V116.241C184.843 116.875 185.874 117.266 187.004 117.266H229.004C230.134 117.266 231.166 116.875 232.004 116.241V122.266H207.004C204.959 122.266 203.201 123.503 202.428 125.266ZM192.004 137.266V163.266C192.004 164.923 190.661 166.266 189.004 166.266H162.922C162.37 166.266 161.922 166.713 161.922 167.266C161.922 167.819 162.37 168.266 162.922 168.266H189.004H189.038C190.651 168.254 192.004 169.453 192.004 171.066V173.266C192.004 174.923 190.661 176.266 189.004 176.266H147.004C145.347 176.266 144.004 174.923 144.004 173.266V171.066C144.004 169.453 145.358 168.254 146.97 168.266H147.004H157.255C157.807 168.266 158.255 167.819 158.255 167.266C158.255 166.713 157.807 166.266 157.255 166.266H147.004C145.347 166.266 144.004 164.923 144.004 163.266V137.266V127.266C144.004 125.609 145.347 124.266 147.004 124.266H189.004C190.661 124.266 192.004 125.609 192.004 127.266V137.266ZM142.428 125.266H133.58C132.806 123.503 131.049 122.266 129.004 122.266H124.004V116.241C124.843 116.875 125.874 117.266 127.004 117.266H169.004C170.134 117.266 171.166 116.875 172.004 116.241V122.266H147.004C144.959 122.266 143.201 123.503 142.428 125.266ZM132.004 137.266V162.265C132.004 163.919 130.658 165.265 129.004 165.265H97.0038C95.3498 165.265 94.0038 163.919 94.0038 162.265V137.266V127.266C94.0038 125.612 95.3498 124.266 97.0038 124.266H129.004C130.658 124.266 132.004 125.612 132.004 127.266V137.266ZM132.004 173.266C132.004 174.923 130.661 176.266 129.004 176.266H97.0038C95.3468 176.266 94.0038 174.923 94.0038 173.266V171.066C94.0038 169.453 95.3578 168.254 96.9698 168.266H97.0038H129.004H129.038C130.651 168.254 132.004 169.453 132.004 171.066V173.266ZM118.004 121.265H116.004C113.795 121.265 112.004 119.474 112.004 117.265V112.266V86.266V78.266C112.004 77.162 112.9 76.266 114.004 76.266H120.004C121.109 76.266 122.004 77.162 122.004 78.266V86.266V112.266V117.265C122.004 119.474 120.213 121.265 118.004 121.265ZM107.004 71.266H96.5138C95.1278 71.266 94.0038 70.142 94.0038 68.756V68.752C94.0038 67.309 95.2168 66.151 96.6558 66.253C96.7708 66.262 96.8868 66.266 97.0038 66.266H139.004C139.121 66.266 139.238 66.262 139.353 66.253C140.792 66.151 142.004 67.309 142.004 68.752V68.756C142.004 70.142 140.881 71.266 139.494 71.266H127.004C125.368 71.266 123.916 72.058 123.005 73.277C122.514 73.933 121.702 74.266 120.883 74.266H113.125C112.306 74.266 111.494 73.933 111.004 73.277C110.092 72.058 108.64 71.266 107.004 71.266ZM94.0038 35.266V25.266C94.0038 23.612 95.3498 22.266 97.0038 22.266H139.004C140.658 22.266 142.004 23.612 142.004 25.266V35.266V61.266C142.004 62.92 140.658 64.266 139.004 64.266H97.0038C95.3498 64.266 94.0038 62.92 94.0038 61.266V35.266ZM169.004 73.266C170.658 73.266 172.004 74.612 172.004 76.266V86.266V112.266C172.004 113.92 170.658 115.266 169.004 115.266H127.004C125.35 115.266 124.004 113.92 124.004 112.266V86.266V76.266C124.004 74.612 125.35 73.266 127.004 73.266H169.004ZM174.004 112.266V86.266V78.266C174.004 77.162 174.9 76.266 176.004 76.266H180.004C181.109 76.266 182.004 77.162 182.004 78.266V86.266V112.266V117.265C182.004 119.474 180.213 121.265 178.004 121.265C175.795 121.265 174.004 119.474 174.004 117.265V112.266ZM154.004 68.752C154.004 67.309 155.217 66.151 156.656 66.253C156.771 66.262 156.887 66.266 157.004 66.266H199.004C199.121 66.266 199.238 66.262 199.353 66.253C200.792 66.151 202.004 67.309 202.004 68.752V68.756C202.004 70.142 200.881 71.266 199.494 71.266H187.004C185.368 71.266 183.916 72.058 183.005 73.277C182.514 73.933 181.702 74.266 180.883 74.266H175.125C174.306 74.266 173.494 73.933 173.004 73.277C172.092 72.058 170.64 71.266 169.004 71.266H156.514C155.128 71.266 154.004 70.142 154.004 68.756V68.752ZM229.004 73.266C230.658 73.266 232.004 74.612 232.004 76.266V86.266V111.265C232.004 112.919 230.658 114.265 229.004 114.265H187.004C185.35 114.265 184.004 112.919 184.004 111.265V86.266V76.266C184.004 74.612 185.35 73.266 187.004 73.266H229.004ZM214.004 68.752C214.004 67.309 215.217 66.151 216.656 66.253C216.771 66.262 216.887 66.266 217.004 66.266H259.004C259.121 66.266 259.238 66.262 259.353 66.253C260.792 66.151 262.004 67.309 262.004 68.752V68.756C262.004 70.142 260.881 71.266 259.494 71.266H247.004C244.59 71.266 242.57 72.987 242.105 75.266C242.039 75.589 242.004 75.924 242.004 76.266V86.266V112.266V117.265C242.004 119.474 240.213 121.265 238.004 121.265C235.795 121.265 234.004 119.474 234.004 117.265V112.266V86.266V78.266C234.004 77.162 234.9 76.266 236.004 76.266H238.004C238.556 76.266 239.004 75.819 239.004 75.266C239.004 74.713 238.556 74.266 238.004 74.266H235.125C234.306 74.266 233.494 73.933 233.004 73.277C232.092 72.058 230.64 71.266 229.004 71.266H216.514C215.128 71.266 214.004 70.142 214.004 68.756V68.752ZM214.004 35.266V25.266C214.004 23.612 215.35 22.266 217.004 22.266H259.004C260.658 22.266 262.004 23.612 262.004 25.266V35.266V61.266C262.004 62.92 260.658 64.266 259.004 64.266H217.004C215.35 64.266 214.004 62.92 214.004 61.266V35.266ZM289.004 73.266C290.658 73.266 292.004 74.612 292.004 76.266V86.266V111.265C292.004 112.919 290.658 114.265 289.004 114.265H247.004C245.35 114.265 244.004 112.919 244.004 111.265V86.266V76.266C244.004 74.612 245.35 73.266 247.004 73.266H289.004ZM292.004 122.266H244.004V116.241C244.843 116.875 245.874 117.266 247.004 117.266H289.004C290.134 117.266 291.166 116.875 292.004 116.241V122.266ZM82.0038 137.266V163.266C82.0038 164.92 80.6578 166.266 79.0038 166.266H47.0038C45.3498 166.266 44.0038 164.92 44.0038 163.266V137.266V127.266C44.0038 125.612 45.3498 124.266 47.0038 124.266H79.0038C80.6578 124.266 82.0038 125.612 82.0038 127.266V137.266ZM82.0038 173.266C82.0038 174.92 80.6578 176.266 79.0038 176.266H47.0038C45.3498 176.266 44.0038 174.92 44.0038 173.266V167.241C44.8428 167.875 45.8738 168.266 47.0038 168.266H79.0038C80.1338 168.266 81.1658 167.875 82.0038 167.241V173.266ZM291.741 166.266H207.004C205.347 166.266 204.004 164.923 204.004 163.266V137.266V127.266C204.004 125.609 205.347 124.266 207.004 124.266H314.669C315.221 124.266 315.668 123.819 315.669 123.266C315.669 122.713 315.221 122.266 314.669 122.266H298.004C295.795 122.266 294.004 120.475 294.004 118.266V112.266V86.266V76.266C294.004 73.504 291.765 71.266 289.004 71.266H274.004C268.481 71.266 264.004 66.788 264.004 61.266V35.266V25.266C264.004 22.504 261.765 20.266 259.004 20.266H217.004C214.243 20.266 212.004 22.504 212.004 25.266V35.266V61.266V65.264C212.004 67.474 210.213 69.264 208.004 69.264C205.795 69.264 204.004 67.474 204.004 65.264V61.266V35.266V25.266C204.004 22.504 201.765 20.266 199.004 20.266H189.255C188.703 20.266 188.255 20.713 188.255 21.266C188.255 21.819 188.703 22.266 189.255 22.266H199.004C200.661 22.266 202.004 23.609 202.004 25.266V35.266V59.264C202.004 60.921 200.661 62.264 199.004 62.264H157.004C155.347 62.264 154.004 60.921 154.004 59.264V35.266V25.266C154.004 23.609 155.347 22.266 157.004 22.266H180.088C180.64 22.266 181.088 21.819 181.088 21.266C181.088 20.713 180.64 20.266 180.088 20.266H157.004C154.243 20.266 152.004 22.504 152.004 25.266V35.266V61.266V65.264C152.004 67.474 150.213 69.264 148.004 69.264C145.795 69.264 144.004 67.474 144.004 65.264V61.266V35.266V25.266C144.004 22.504 141.765 20.266 139.004 20.266H97.0038C94.2428 20.266 92.0038 22.504 92.0038 25.266V35.266V61.266C92.0038 66.788 87.5268 71.266 82.0038 71.266H37.4218C36.8688 71.266 36.4218 71.713 36.4218 72.266C36.4218 72.819 36.8688 73.266 37.4218 73.266H107.004C108.661 73.266 110.004 74.609 110.004 76.266V86.266V112.266C110.004 113.923 108.661 115.266 107.004 115.266H75.4188C74.8658 115.266 74.4188 115.713 74.4188 116.266C74.4188 116.819 74.8658 117.266 75.4188 117.266H107.004C108.134 117.266 109.166 116.875 110.004 116.241V118.266C110.004 120.475 108.213 122.266 106.004 122.266H97.0038C94.9588 122.266 93.2008 123.503 92.4278 125.266H83.5798C82.8058 123.503 81.0488 122.266 79.0038 122.266H47.0038C44.9588 122.266 43.2008 123.503 42.4278 125.266H33.6388C33.0868 125.266 32.6388 125.713 32.6388 126.266C32.6388 126.819 33.0868 127.266 33.6388 127.266H34.0038C38.4228 127.266 42.0038 130.848 42.0038 135.266V137.266V163.266V173.266C42.0038 176.028 44.2428 178.266 47.0038 178.266H79.0038C81.7648 178.266 84.0038 176.028 84.0038 173.266V163.266V137.266V129.266C84.0038 128.162 84.8998 127.266 86.0038 127.266H90.0038C91.1088 127.266 92.0038 128.162 92.0038 129.266V137.266V163.266V173.266C92.0038 176.028 94.2428 178.266 97.0038 178.266H129.004C131.765 178.266 134.004 176.028 134.004 173.266V163.266V137.266V129.266C134.004 128.162 134.9 127.266 136.004 127.266H140.004C141.109 127.266 142.004 128.162 142.004 129.266V137.266V163.266V173.266C142.004 176.028 144.243 178.266 147.004 178.266H189.004C191.765 178.266 194.004 176.028 194.004 173.266V163.266V137.266V129.266C194.004 128.162 194.9 127.266 196.004 127.266H200.004C201.109 127.266 202.004 128.162 202.004 129.266V137.266V163.266V173.266C202.004 176.028 204.243 178.266 207.004 178.266H278.737C279.289 178.266 279.737 177.819 279.737 177.266C279.737 176.713 279.289 176.266 278.737 176.266H207.004C205.347 176.266 204.004 174.923 204.004 173.266V171.222C204.004 169.585 205.334 168.26 206.97 168.266H207.004H291.741C292.293 168.266 292.741 167.819 292.741 167.266C292.741 166.713 292.293 166.266 291.741 166.266ZM298.987 166.266H296.741C296.189 166.266 295.741 166.713 295.741 167.266C295.741 167.819 296.189 168.266 296.741 168.266H298.987C299.539 168.266 299.987 167.819 299.987 167.266C299.987 166.713 299.539 166.266 298.987 166.266Z" fill="#1F2225"/>
<path fill-rule="evenodd" clip-rule="evenodd" d="M147.747 97.4925C146.551 97.4925 145.594 98.4715 145.594 99.6885C145.594 100.885 146.551 101.842 147.747 101.842C148.965 101.842 149.943 100.885 149.943 99.6885C149.943 98.4715 148.965 97.4925 147.747 97.4925ZM144.659 90.5687C144.915 90.7877 145.288 90.7527 145.527 90.5137C146.685 89.3617 148.97 89.8477 148.97 91.3217C148.97 92.7577 147.771 93.1367 146.2 92.6947C145.797 92.5807 145.394 92.8737 145.394 93.2937V94.4587C145.394 94.7557 145.601 95.0107 145.892 95.0707C147.501 95.4007 152.488 96.0137 153.004 91.0697C153.004 86.0067 146.075 83.8257 143.1 88.5337C142.934 88.7967 142.988 89.1437 143.224 89.3457L144.659 90.5687ZM167.747 148.492C166.551 148.492 165.594 149.471 165.594 150.688C165.594 151.885 166.551 152.842 167.747 152.842C168.965 152.842 169.943 151.885 169.943 150.688C169.943 149.471 168.965 148.492 167.747 148.492ZM163.1 139.533C162.934 139.796 162.987 140.143 163.224 140.345L164.659 141.568C164.915 141.787 165.288 141.752 165.527 141.513C166.684 140.361 168.97 140.847 168.97 142.321C168.97 143.758 167.771 144.137 166.199 143.694C165.796 143.58 165.393 143.873 165.393 144.293V145.458C165.393 145.755 165.6 146.011 165.892 146.07C167.5 146.4 172.488 147.013 173.004 142.069C173.004 137.006 166.074 134.825 163.1 139.533ZM67.188 41.266C68.022 41.266 68.698 41.942 68.698 42.776V42.777C68.698 43.329 69.146 43.777 69.698 43.777C70.251 43.777 70.698 43.329 70.698 42.777V42.776C70.698 41.942 71.374 41.266 72.208 41.266C72.76 41.266 73.208 40.819 73.208 40.266C73.208 39.713 72.76 39.266 72.208 39.266C71.374 39.266 70.698 38.59 70.698 37.756C70.698 37.204 70.251 36.756 69.698 36.756C69.146 36.756 68.698 37.204 68.698 37.756C68.698 38.59 68.022 39.266 67.188 39.266C66.636 39.266 66.188 39.713 66.188 40.266C66.188 40.819 66.636 41.266 67.188 41.266ZM307.578 101.669C308.412 101.669 309.088 102.346 309.088 103.179C309.088 103.732 309.536 104.179 310.088 104.179C310.641 104.179 311.088 103.732 311.088 103.179C311.088 102.346 311.765 101.669 312.598 101.669H312.599C313.151 101.669 313.599 101.222 313.599 100.669C313.599 100.116 313.151 99.6693 312.599 99.6693H312.598C311.765 99.6693 311.088 98.9933 311.088 98.1593C311.088 97.6073 310.641 97.1593 310.088 97.1593C309.536 97.1593 309.088 97.6073 309.088 98.1593C309.088 98.9933 308.412 99.6693 307.578 99.6693C307.026 99.6693 306.578 100.116 306.578 100.669C306.578 101.222 307.026 101.669 307.578 101.669ZM30.9272 58.2181C31.1832 58.2181 31.4392 58.1201 31.6342 57.9251L32.8182 56.7411C33.2082 56.3511 33.2082 55.7181 32.8182 55.3271C32.4272 54.9371 31.7942 54.9371 31.4042 55.3271L30.2202 56.5111C29.8292 56.9021 29.8292 57.5341 30.2202 57.9251C30.4152 58.1201 30.6712 58.2181 30.9272 58.2181ZM25.0112 64.1341C25.2672 64.1341 25.5232 64.0361 25.7182 63.8411L26.9012 62.6571C27.2922 62.2671 27.2922 61.6341 26.9012 61.2431C26.5112 60.8531 25.8772 60.8531 25.4872 61.2431L24.3042 62.4271C23.9132 62.8181 23.9132 63.4501 24.3042 63.8411C24.4992 64.0361 24.7552 64.1341 25.0112 64.1341ZM31.4038 63.8411C31.5988 64.0361 31.8548 64.1341 32.1108 64.1341C32.3668 64.1341 32.6228 64.0361 32.8178 63.8411C33.2088 63.4501 33.2088 62.8181 32.8178 62.4271L31.6338 61.2431C31.2438 60.8531 30.6108 60.8531 30.2198 61.2431C29.8298 61.6341 29.8298 62.2671 30.2198 62.6571L31.4038 63.8411ZM25.4873 57.9251C25.6823 58.1201 25.9383 58.2181 26.1943 58.2181C26.4503 58.2181 26.7063 58.1201 26.9013 57.9251C27.2923 57.5341 27.2923 56.9021 26.9013 56.5111L25.7183 55.3271C25.3273 54.9371 24.6953 54.9371 24.3043 55.3271C23.9133 55.7181 23.9133 56.3511 24.3043 56.7411L25.4873 57.9251ZM290.46 48.4515C290.716 48.4515 290.972 48.3535 291.167 48.1585L292.35 46.9745C292.741 46.5845 292.741 45.9515 292.35 45.5605C291.96 45.1705 291.326 45.1705 290.936 45.5605L289.753 46.7445C289.362 47.1355 289.362 47.7675 289.753 48.1585C289.948 48.3535 290.204 48.4515 290.46 48.4515ZM284.543 54.3675C284.799 54.3675 285.055 54.2695 285.25 54.0745L286.433 52.8905C286.824 52.5005 286.824 51.8675 286.433 51.4765C286.043 51.0865 285.409 51.0865 285.019 51.4765L283.836 52.6605C283.445 53.0515 283.445 53.6835 283.836 54.0745C284.031 54.2695 284.287 54.3675 284.543 54.3675ZM290.936 54.0745C291.131 54.2695 291.387 54.3675 291.643 54.3675C291.899 54.3675 292.155 54.2695 292.35 54.0745C292.741 53.6835 292.741 53.0515 292.35 52.6605L291.167 51.4765C290.776 51.0865 290.144 51.0865 289.753 51.4765C289.362 51.8675 289.362 52.5005 289.753 52.8905L290.936 54.0745ZM285.02 48.1585C285.215 48.3535 285.471 48.4515 285.727 48.4515C285.983 48.4515 286.239 48.3535 286.434 48.1585C286.825 47.7675 286.825 47.1355 286.434 46.7445L285.251 45.5605C284.86 45.1705 284.228 45.1705 283.837 45.5605C283.446 45.9515 283.446 46.5845 283.837 46.9745L285.02 48.1585ZM58.875 19.266C59.708 19.266 60.385 19.944 60.385 20.777C60.385 21.609 59.708 22.287 58.875 22.287C58.042 22.287 57.365 21.609 57.365 20.777C57.365 19.944 58.042 19.266 58.875 19.266ZM58.875 24.287C60.811 24.287 62.385 22.712 62.385 20.777C62.385 18.841 60.811 17.266 58.875 17.266C56.94 17.266 55.365 18.841 55.365 20.777C55.365 22.712 56.94 24.287 58.875 24.287Z" fill="#1F2225"/>
<mask id="mask1" mask-type="alpha" maskUnits="userSpaceOnUse" x="334" y="85" width="43" height="49">
<path d="M376.06 85.9301V133.266H334.06V85.9301H376.06Z" fill="white"/>
</mask>
<g mask="url(#mask1)">
<path fill-rule="evenodd" clip-rule="evenodd" d="M357.81 133.266C369.36 133.266 378.81 123.816 378.81 112.266V106.93C378.81 95.3801 369.36 85.9301 357.81 85.9301C346.26 85.9301 336.81 95.3801 336.81 106.93V112.266C336.81 123.816 346.26 133.266 357.81 133.266Z" fill="#697184"/>
</g>
<path fill-rule="evenodd" clip-rule="evenodd" d="M229.004 73.266C230.658 73.266 232.004 74.612 232.004 76.266V86.266V111.265C232.004 112.919 230.658 114.265 229.004 114.265H187.004C185.35 114.265 184.004 112.919 184.004 111.265V86.266V76.266C184.004 74.612 185.35 73.266 187.004 73.266H229.004ZM82.004 137.266V163.266C82.004 164.92 80.658 166.266 79.004 166.266H47.004C45.35 166.266 44.004 164.92 44.004 163.266V137.266V127.266C44.004 125.612 45.35 124.266 47.004 124.266H79.004C80.658 124.266 82.004 125.612 82.004 127.266V137.266Z" fill="#36393E"/>
<rect x="44" y="124" width="38" height="42" rx="3" fill="#818AA1"/>
<path fill-rule="evenodd" clip-rule="evenodd" d="M107.004 71.266H96.514C95.128 71.266 94.004 70.142 94.004 68.756V68.752C94.004 67.309 95.216 66.151 96.655 66.253C96.771 66.262 96.887 66.266 97.004 66.266H139.004C139.121 66.266 139.237 66.262 139.353 66.253C140.792 66.151 142.004 67.309 142.004 68.752V68.756C142.004 70.142 140.88 71.266 139.494 71.266H127.004C125.368 71.266 123.916 72.058 123.004 73.277C122.514 73.933 121.702 74.266 120.883 74.266H113.125C112.306 74.266 111.494 73.933 111.004 73.277C110.092 72.058 108.64 71.266 107.004 71.266Z" fill="#697184"/>
<rect x="183.5" y="73" width="49" height="42" rx="3" fill="#818AA1"/>
</g>
<defs>
<clipPath id="clip0">
<rect width="378" height="192" fill="white"/>
</clipPath>
</defs>
</svg>
