<svg width="232" height="114" viewBox="0 0 232 114" fill="none" xmlns="http://www.w3.org/2000/svg">
<path fill-rule="evenodd" clip-rule="evenodd" d="M25.6834 18.548H22.361C15.385 18.548 9.62664 23.8474 8.85544 30.6432H16.0482C16.6538 25.0187 20.5138 20.3463 25.6834 18.548ZM15.9608 59.3309V58.2608H8.7608V59.3309C8.7608 66.8565 14.8616 72.9788 22.3608 72.9788H25.684C20.0448 71.0175 15.9608 65.6354 15.9608 59.3309Z" fill="#7A8EC7"/>
<path fill-rule="evenodd" clip-rule="evenodd" d="M74.1522 35.0861H87.7138V32.1959C87.7138 24.6703 81.613 18.548 74.1138 18.548H25.6834C20.5138 20.3463 16.6538 25.0179 16.0482 30.6433H19.6802C20.1218 30.6433 20.4802 31.0029 20.4802 31.4461C20.4802 31.89 20.1218 32.2489 19.6802 32.2489H8.00016C4.47056 32.2489 1.60016 35.1302 1.60016 38.6714V50.232C1.60016 53.7732 4.47056 56.6545 8.00016 56.6545H19.6802C20.1218 56.6545 20.4802 57.0142 20.4802 57.4574C20.4802 57.9005 20.1218 58.2602 19.6802 58.2602H15.961V59.3311C15.961 65.6357 20.045 71.0169 25.6842 72.979H74.1138C80.941 72.979 86.5922 67.9004 87.5538 61.3133C85.389 62.5047 82.9074 63.1847 80.269 63.1847H64.909C56.5274 63.1847 49.709 56.3422 49.709 47.9311V41.6692C49.709 38.0388 52.6522 35.0861 56.269 35.0861H64.909C65.3514 35.0861 65.709 35.4457 65.709 35.8889H73.3522C73.3522 35.4457 73.7106 35.0861 74.1522 35.0861Z" fill="#A0B2DC"/>
<path fill-rule="evenodd" clip-rule="evenodd" d="M57.2291 47.9311V41.6692C57.2291 39.5538 58.3795 37.6992 60.0811 36.6917H56.2691C53.5339 36.6917 51.3091 38.9243 51.3091 41.6692V47.9311C51.3091 55.4568 57.4099 61.579 64.9091 61.579H66.9523C61.3123 59.6178 57.2291 54.2357 57.2291 47.9311Z" fill="#B3CAFB"/>
<path fill-rule="evenodd" clip-rule="evenodd" d="M11.2003 35.4605C8.99066 35.4605 7.20026 37.258 7.20026 39.4746V49.4295C7.20026 51.6469 8.99066 53.4436 11.2003 53.4436H16.4803C17.3643 53.4436 18.0803 52.7251 18.0803 51.838V37.0661C18.0803 36.1798 17.3643 35.4605 16.4803 35.4605H11.2003Z" fill="#8BA0D2"/>
<path fill-rule="evenodd" clip-rule="evenodd" d="M86.0147 55.7602H83.1939C81.9003 55.7602 80.8427 54.6989 80.8427 53.4007C80.8427 52.1034 81.9003 51.0421 83.1939 51.0421H86.0147C87.3075 51.0421 88.3651 52.1034 88.3651 53.4007C88.3651 54.6989 87.3075 55.7602 86.0147 55.7602ZM74.7563 55.7602H70.0539C68.7611 55.7602 67.7035 54.6989 67.7035 53.4007C67.7035 52.1034 68.7611 51.0421 70.0539 51.0421H74.7563C76.0491 51.0421 77.1075 52.1034 77.1075 53.4007C77.1075 54.6989 76.0491 55.7602 74.7563 55.7602ZM88.9091 36.6917H74.1523C73.7107 36.6917 73.3523 36.332 73.3523 35.8889H65.7091C65.7091 36.332 65.3507 36.6917 64.9091 36.6917H60.0811C58.3803 37.6992 57.2291 39.5537 57.2291 41.6692V47.9311C57.2291 54.2357 61.3131 59.6177 66.9523 61.579H80.2691C87.7683 61.579 93.8691 55.4567 93.8691 47.9311V41.6692C93.8691 38.9243 91.6443 36.6917 88.9091 36.6917Z" fill="#C2D2F1"/>
<path fill-rule="evenodd" clip-rule="evenodd" d="M93.869 47.9311C93.869 55.4688 87.7802 61.579 80.269 61.579H66.9522H64.909C57.3978 61.579 51.309 55.4688 51.309 47.9311V41.6692C51.309 38.9203 53.5298 36.6917 56.269 36.6917H60.0818H64.909C65.3514 36.6917 65.709 36.332 65.709 35.8889C65.709 35.4457 65.3514 35.0861 64.909 35.0861H56.269C52.6458 35.0861 49.709 38.0332 49.709 41.6692V47.9311C49.709 56.3559 56.5146 63.1847 64.909 63.1847H80.269C82.3386 63.1847 84.3122 62.7664 86.1114 62.0109C86.745 61.7452 87.3874 62.3144 87.2034 62.9783C85.6106 68.7369 80.353 72.979 74.1138 72.979H25.6842H22.361C18.309 72.979 14.6658 71.192 12.1714 68.3612C8.97538 64.7333 11.1874 58.9699 15.961 58.2602H19.6802C20.1218 58.2602 20.4802 57.9005 20.4802 57.4574C20.4802 57.0142 20.1218 56.6546 19.6802 56.6546H8.00018C4.46578 56.6546 1.60018 53.7797 1.60018 50.232V38.6715C1.60018 35.1246 4.46578 32.2489 8.00018 32.2489H19.6802C20.1218 32.2489 20.4802 31.8901 20.4802 31.4461C20.4802 31.0029 20.1218 30.6433 19.6802 30.6433H16.0482H10.793C9.73618 30.6433 8.96658 29.6325 9.24498 28.6089C10.8178 22.819 16.0994 18.548 22.361 18.548H25.6834H74.1138C81.625 18.548 87.7138 24.6583 87.7138 32.1959V33.4804C87.7138 34.3668 86.9978 35.0861 86.1138 35.0861H74.1522C73.7106 35.0861 73.3522 35.4457 73.3522 35.8889C73.3522 36.332 73.7106 36.6917 74.1522 36.6917H88.909C91.6482 36.6917 93.869 38.9203 93.869 41.6692V47.9311ZM89.3138 35.1069V32.1959C89.3138 23.7848 82.4954 16.9424 74.1138 16.9424H22.361C14.489 16.9424 7.99698 22.9796 7.23698 30.6826C3.18258 31.0696 0.000183105 34.5032 0.000183105 38.6715V50.232C0.000183105 54.3746 3.14258 57.7929 7.16098 58.216V59.3311C7.16098 67.7415 13.9794 74.5847 22.361 74.5847H74.1138C82.205 74.5847 88.8202 68.2023 89.2706 60.1942C93.021 57.414 95.469 52.9592 95.469 47.9311V41.6692C95.469 38.1761 92.7426 35.3189 89.3138 35.1069Z" fill="#202225"/>
<path fill-rule="evenodd" clip-rule="evenodd" d="M74.7565 51.0417H70.0541C68.7613 51.0417 67.7037 52.1031 67.7037 53.4004C67.7037 54.6986 68.7613 55.7599 70.0541 55.7599H74.7565C76.0493 55.7599 77.1069 54.6986 77.1069 53.4004C77.1069 52.1031 76.0493 51.0417 74.7565 51.0417ZM86.0148 51.0417H83.194C81.9004 51.0417 80.8428 52.1031 80.8428 53.4004C80.8428 54.6986 81.9004 55.7599 83.194 55.7599H86.0148C87.3076 55.7599 88.3652 54.6986 88.3652 53.4004C88.3652 52.1031 87.3076 51.0417 86.0148 51.0417Z" fill="#A0B2DC"/>
<path fill-rule="evenodd" clip-rule="evenodd" d="M112.443 46.2216H111.235V45.0094C111.235 44.5654 110.877 44.2066 110.435 44.2066C109.994 44.2066 109.635 44.5654 109.635 45.0094V46.2216H108.427C107.986 46.2216 107.627 46.5813 107.627 47.0245C107.627 47.4676 107.986 47.8273 108.427 47.8273H109.635V49.0395C109.635 49.4827 109.994 49.8423 110.435 49.8423C110.877 49.8423 111.235 49.4827 111.235 49.0395V47.8273H112.443C112.885 47.8273 113.243 47.4676 113.243 47.0245C113.243 46.5813 112.885 46.2216 112.443 46.2216ZM106.798 23.7338L105.851 24.6835C105.538 24.9974 105.538 25.5056 105.851 25.8187C106.007 25.9752 106.212 26.0539 106.417 26.0539C106.622 26.0539 106.826 25.9752 106.982 25.8187L107.929 24.869C108.242 24.5551 108.242 24.0477 107.929 23.7338C107.616 23.4199 107.11 23.4199 106.798 23.7338ZM102.065 28.4836L101.118 29.4334C100.806 29.7473 100.806 30.2555 101.118 30.5686C101.274 30.7251 101.479 30.8038 101.684 30.8038C101.889 30.8038 102.094 30.7251 102.25 30.5686L103.196 29.6188C103.509 29.3049 103.509 28.7975 103.196 28.4836C102.883 28.1697 102.378 28.1697 102.065 28.4836ZM106.982 28.4836C106.669 28.1697 106.164 28.1697 105.851 28.4836C105.538 28.7975 105.538 29.3049 105.851 29.6188L106.797 30.5686C106.953 30.7251 107.158 30.8038 107.363 30.8038C107.568 30.8038 107.773 30.7251 107.929 30.5686C108.241 30.2555 108.241 29.7473 107.929 29.4334L106.982 28.4836ZM102.249 23.7338C101.937 23.4199 101.431 23.4199 101.118 23.7338C100.805 24.0477 100.805 24.5551 101.118 24.869L102.065 25.8187C102.221 25.9752 102.425 26.0539 102.63 26.0539C102.835 26.0539 103.04 25.9752 103.196 25.8187C103.509 25.5056 103.509 24.9974 103.196 24.6835L102.249 23.7338ZM140.352 9.94323C139.686 9.94323 139.144 9.39892 139.144 8.73097C139.144 8.06223 139.686 7.51872 140.352 7.51872C141.019 7.51872 141.56 8.06223 141.56 8.73097C141.56 9.39892 141.019 9.94323 140.352 9.94323ZM140.352 5.91309C138.804 5.91309 137.544 7.17752 137.544 8.73097C137.544 10.2844 138.804 11.5489 140.352 11.5489C141.901 11.5489 143.16 10.2844 143.16 8.73097C143.16 7.17752 141.901 5.91309 140.352 5.91309Z" fill="#202225"/>
<path fill-rule="evenodd" clip-rule="evenodd" d="M209.226 6.90438C203.652 3.96286 197.352 2.40781 191.009 2.40781C169.395 2.40781 151.809 20.0553 151.809 41.7458C151.809 53.0479 156.59 63.2437 164.22 70.4257C166.494 66.8676 169.446 63.8 172.88 61.3956C167.613 56.4984 164.308 49.5043 164.308 41.7458C164.308 26.9708 176.286 14.9502 191.009 14.9502C205.733 14.9502 217.711 26.9708 217.711 41.7458C217.711 49.5043 214.406 56.4984 209.138 61.3964C212.572 63.8008 215.525 66.8676 217.8 70.4257C225.429 63.2437 230.209 53.0479 230.209 41.7458C230.209 33.8927 227.911 26.3117 223.562 19.8217C223.319 19.4596 223.413 18.9723 223.766 18.7218C222.12 16.368 220.233 14.198 218.135 12.2528C217.977 12.4237 217.764 12.5145 217.548 12.5145C217.359 12.5145 217.169 12.4478 217.017 12.3122C216.18 11.5663 215.3 10.8486 214.404 10.1775C214.054 9.91736 213.981 9.42683 214.231 9.07279C212.972 8.16882 211.66 7.33229 210.298 6.57764C210.088 6.96058 209.614 7.1091 209.226 6.90438Z" fill="#AEB9CF"/>
<path fill-rule="evenodd" clip-rule="evenodd" d="M165.425 71.5124C172.297 77.4693 181.238 81.0844 191.01 81.0844C200.782 81.0844 209.723 77.4685 216.595 71.5124C214.345 67.923 211.374 64.849 207.899 62.4831C203.294 66.2668 197.412 68.542 191.01 68.542C184.608 68.542 178.726 66.2676 174.122 62.4839C170.646 64.849 167.675 67.9238 165.425 71.5124Z" fill="#A0B2DC"/>
<path fill-rule="evenodd" clip-rule="evenodd" d="M175.94 36.7866C177.806 36.7866 179.318 38.3047 179.318 40.1769C179.318 42.0491 177.806 43.5672 175.94 43.5672C174.074 43.5672 172.562 42.0491 172.562 40.1769C172.562 38.3047 174.074 36.7866 175.94 36.7866ZM206.349 36.7866C208.214 36.7866 209.727 38.3047 209.727 40.1769C209.727 42.0491 208.214 43.5672 206.349 43.5672C204.482 43.5672 202.97 42.0491 202.97 40.1769C202.97 38.3047 204.482 36.7866 206.349 36.7866ZM191.01 66.9364C204.85 66.9364 216.111 55.6359 216.111 41.7464C216.111 27.8561 204.85 16.5564 191.01 16.5564C177.169 16.5564 165.908 27.8561 165.908 41.7464C165.908 55.6359 177.169 66.9364 191.01 66.9364Z" fill="#FED2A4"/>
<path fill-rule="evenodd" clip-rule="evenodd" d="M175.94 43.567C177.806 43.567 179.319 42.0489 179.319 40.1767C179.319 38.3046 177.806 36.7864 175.94 36.7864C174.074 36.7864 172.562 38.3046 172.562 40.1767C172.562 42.0489 174.074 43.567 175.94 43.567ZM206.349 43.567C208.214 43.567 209.727 42.0489 209.727 40.1767C209.727 38.3046 208.214 36.7864 206.349 36.7864C204.482 36.7864 202.97 38.3046 202.97 40.1767C202.97 42.0489 204.482 43.567 206.349 43.567ZM214.403 10.1776C215.301 10.8488 216.18 11.5665 217.017 12.3123C217.17 12.448 217.359 12.5146 217.547 12.5146C217.763 12.5146 217.977 12.4239 218.135 12.2529C218.138 12.2497 218.143 12.2481 218.147 12.2441C218.439 11.9125 218.409 11.4051 218.079 11.1113C217.208 10.3358 216.293 9.58837 215.359 8.88992C215.005 8.62499 214.503 8.69885 214.239 9.0545C214.235 9.06012 214.235 9.06654 214.231 9.07297C213.982 9.42701 214.054 9.91753 214.403 10.1776Z" fill="#202225"/>
<mask id="mask0" mask-type="alpha" maskUnits="userSpaceOnUse" x="150" y="0" width="82" height="83">
<path d="M150.209 0.803009H231.81V41.747V82.69H150.209V0.803009Z" fill="white"/>
</mask>
<g mask="url(#mask0)">
<path fill-rule="evenodd" clip-rule="evenodd" d="M191.01 68.5419C197.412 68.5419 203.294 66.2675 207.899 62.4831C211.374 64.849 214.345 67.923 216.594 71.5123C209.722 77.4692 200.782 81.0843 191.01 81.0843C181.238 81.0843 172.297 77.4692 165.425 71.5123C167.674 67.9238 170.646 64.849 174.122 62.4839C178.726 66.2675 184.608 68.5419 191.01 68.5419ZM191.01 16.5563C204.85 16.5563 216.111 27.8568 216.111 41.7463C216.111 55.6358 204.85 66.9363 191.01 66.9363C177.169 66.9363 165.908 55.6358 165.908 41.7463C165.908 27.8568 177.169 16.5563 191.01 16.5563ZM224.89 18.9262C224.643 18.5577 224.146 18.4606 223.779 18.7079C223.774 18.7119 223.771 18.7175 223.766 18.7215C223.413 18.9728 223.319 19.4593 223.562 19.8222C227.91 26.3113 230.21 33.8932 230.21 41.7463C230.21 50.8655 227.097 59.2662 221.886 65.9432C220.07 68.2706 216.574 68.4167 214.598 66.2242C213.543 65.0545 212.405 63.9635 211.193 62.9615C210.167 62.113 210.048 60.5563 210.933 59.5608C215.647 54.2582 218.299 47.0722 217.6 39.2801C216.437 26.3057 205.862 15.9237 192.914 15.0173C177.333 13.9271 164.308 26.3386 164.308 41.7463C164.308 48.5791 166.872 54.8202 171.082 59.5576C171.969 60.5539 171.854 62.1106 170.826 62.9607C169.614 63.9627 168.476 65.0537 167.422 66.2242C165.446 68.4167 161.95 68.2706 160.134 65.9432C154.922 59.2662 151.81 50.8655 151.81 41.7463C151.81 20.055 169.394 2.40828 191.01 2.40828C197.352 2.40828 203.651 3.96333 209.226 6.90485C209.614 7.10957 210.088 6.96105 210.298 6.57811C210.3 6.57409 210.304 6.57169 210.306 6.56767C210.512 6.17509 210.362 5.68939 209.97 5.48307C204.167 2.42112 197.61 0.802643 191.01 0.802643C167.476 0.802643 148.533 20.9004 150.327 44.8901C151.825 64.9084 167.929 81.0691 187.877 82.572C211.782 84.3727 231.81 65.3628 231.81 41.7463C231.81 33.572 229.417 25.6811 224.89 18.9262Z" fill="#202225"/>
</g>
<path fill-rule="evenodd" clip-rule="evenodd" d="M39.4687 40.438C37.4887 40.438 35.8687 42.0638 35.8687 44.0507C35.8687 46.0377 37.4887 47.6634 39.4687 47.6634C41.4487 47.6634 43.0687 46.0377 43.0687 44.0507C43.0687 42.0638 41.4487 40.438 39.4687 40.438ZM195.986 48.1926C194.691 47.21 193.165 46.6633 191.611 46.5493C191.552 46.5444 191.493 46.5444 191.434 46.5412C191.284 46.5332 191.135 46.5252 190.985 46.5252C190.835 46.5252 190.686 46.5332 190.536 46.5412C190.477 46.5444 190.418 46.5444 190.358 46.5493C188.805 46.6633 187.279 47.21 185.984 48.1926C185.631 48.46 185.562 48.9633 185.829 49.3166C185.986 49.5261 186.225 49.6353 186.467 49.6353C186.635 49.6353 186.805 49.5823 186.949 49.4731C186.953 49.4699 186.958 49.4675 186.963 49.4643L186.971 49.4771L187.02 49.4402C187.903 48.7819 188.915 48.3724 189.959 48.2095C190.037 48.1974 190.116 48.199 190.195 48.1894C190.457 48.1581 190.72 48.1308 190.985 48.1308C191.25 48.1308 191.513 48.1581 191.775 48.1894C191.854 48.199 191.933 48.1974 192.011 48.2095C193.055 48.3724 194.067 48.7819 194.95 49.4402L194.999 49.4771L195.007 49.4643C195.011 49.4675 195.017 49.4699 195.021 49.4731C195.165 49.5823 195.335 49.6353 195.503 49.6353C195.745 49.6353 195.984 49.5261 196.141 49.3166C196.408 48.9633 196.339 48.46 195.986 48.1926ZM151.227 105.867H148.027C147.586 105.867 147.227 106.227 147.227 106.67C147.227 107.113 147.586 107.473 148.027 107.473H151.227C151.669 107.473 152.027 107.113 152.027 106.67C152.027 106.227 151.669 105.867 151.227 105.867ZM158.427 105.867H155.227C154.786 105.867 154.427 106.227 154.427 106.67C154.427 107.113 154.786 107.473 155.227 107.473H158.427C158.869 107.473 159.227 107.113 159.227 106.67C159.227 106.227 158.869 105.867 158.427 105.867ZM144.027 105.867H140.827C140.386 105.867 140.027 106.227 140.027 106.67C140.027 107.113 140.386 107.473 140.827 107.473H144.027C144.469 107.473 144.827 107.113 144.827 106.67C144.827 106.227 144.469 105.867 144.027 105.867ZM136.827 105.867H133.627C133.186 105.867 132.827 106.227 132.827 106.67C132.827 107.113 133.186 107.473 133.627 107.473H136.827C137.269 107.473 137.627 107.113 137.627 106.67C137.627 106.227 137.269 105.867 136.827 105.867ZM193.514 90.5004C193.073 90.5004 192.714 90.8601 192.714 91.3032V94.5145C192.714 94.9577 193.073 95.3173 193.514 95.3173C193.956 95.3173 194.314 94.9577 194.314 94.5145V91.3032C194.314 90.8601 193.956 90.5004 193.514 90.5004ZM187.227 105.867H184.027C183.586 105.867 183.227 106.227 183.227 106.67C183.227 107.113 183.586 107.473 184.027 107.473H187.227C187.669 107.473 188.027 107.113 188.027 106.67C188.027 106.227 187.669 105.867 187.227 105.867ZM193.514 104.951C193.073 104.951 192.714 105.311 192.714 105.754V105.867H191.227C190.786 105.867 190.427 106.227 190.427 106.67C190.427 107.113 190.786 107.473 191.227 107.473H193.514C193.956 107.473 194.314 107.113 194.314 106.67V105.754C194.314 105.311 193.956 104.951 193.514 104.951ZM193.514 97.7258C193.073 97.7258 192.714 98.0854 192.714 98.5286V101.74C192.714 102.183 193.073 102.543 193.514 102.543C193.956 102.543 194.314 102.183 194.314 101.74V98.5286C194.314 98.0854 193.956 97.7258 193.514 97.7258ZM165.627 105.867H162.427C161.986 105.867 161.627 106.227 161.627 106.67C161.627 107.113 161.986 107.473 162.427 107.473H165.627C166.069 107.473 166.427 107.113 166.427 106.67C166.427 106.227 166.069 105.867 165.627 105.867ZM172.827 105.867H169.627C169.186 105.867 168.827 106.227 168.827 106.67C168.827 107.113 169.186 107.473 169.627 107.473H172.827C173.269 107.473 173.627 107.113 173.627 106.67C173.627 106.227 173.269 105.867 172.827 105.867ZM180.027 105.867H176.827C176.386 105.867 176.027 106.227 176.027 106.67C176.027 107.113 176.386 107.473 176.827 107.473H180.027C180.469 107.473 180.827 107.113 180.827 106.67C180.827 106.227 180.469 105.867 180.027 105.867Z" fill="#202225"/>
<path fill-rule="evenodd" clip-rule="evenodd" d="M124.981 107.806C124.356 107.179 124.356 106.162 124.981 105.534L126.678 103.832C127.303 103.205 127.303 102.188 126.678 101.561L125.547 100.426C124.922 99.7982 123.909 99.7982 123.284 100.426L121.587 102.129C120.962 102.756 119.949 102.756 119.324 102.129L117.628 100.426C117.002 99.7982 115.989 99.7982 115.364 100.426L114.233 101.561C113.608 102.188 113.608 103.205 114.233 103.832L115.93 105.534C116.555 106.162 116.555 107.179 115.93 107.806L114.233 109.508C113.608 110.135 113.608 111.152 114.233 111.779L115.364 112.915C115.989 113.542 117.002 113.542 117.628 112.915L119.324 111.212C119.949 110.584 120.962 110.584 121.587 111.212L123.284 112.915C123.909 113.542 124.922 113.542 125.547 112.915L126.678 111.779C127.303 111.152 127.303 110.135 126.678 109.508L124.981 107.806Z" fill="#F04747"/>
<path fill-rule="evenodd" clip-rule="evenodd" d="M89.6839 105.867H92.8839C93.3255 105.867 93.6839 106.227 93.6839 106.67C93.6839 107.113 93.3255 107.473 92.8839 107.473H89.6839C89.2423 107.473 88.8839 107.113 88.8839 106.67C88.8839 106.227 89.2423 105.867 89.6839 105.867ZM82.4839 105.867H85.6839C86.1255 105.867 86.4839 106.227 86.4839 106.67C86.4839 107.113 86.1255 107.473 85.6839 107.473H82.4839C82.0423 107.473 81.6839 107.113 81.6839 106.67C81.6839 106.227 82.0423 105.867 82.4839 105.867ZM96.8839 105.867H100.084C100.525 105.867 100.884 106.227 100.884 106.67C100.884 107.113 100.525 107.473 100.084 107.473H96.8839C96.4423 107.473 96.0839 107.113 96.0839 106.67C96.0839 106.227 96.4423 105.867 96.8839 105.867ZM104.084 105.867H107.284C107.725 105.867 108.084 106.227 108.084 106.67C108.084 107.113 107.725 107.473 107.284 107.473H104.084C103.642 107.473 103.284 107.113 103.284 106.67C103.284 106.227 103.642 105.867 104.084 105.867ZM47.3967 90.5004C47.8383 90.5004 48.1967 90.8601 48.1967 91.3032V94.5145C48.1967 94.9577 47.8383 95.3173 47.3967 95.3173C46.9551 95.3173 46.5967 94.9577 46.5967 94.5145V91.3032C46.5967 90.8601 46.9551 90.5004 47.3967 90.5004ZM53.6839 105.867H56.8839C57.3255 105.867 57.6839 106.227 57.6839 106.67C57.6839 107.113 57.3255 107.473 56.8839 107.473H53.6839C53.2423 107.473 52.8839 107.113 52.8839 106.67C52.8839 106.227 53.2423 105.867 53.6839 105.867ZM47.3967 104.951C47.8383 104.951 48.1967 105.311 48.1967 105.754V105.867H49.6839C50.1255 105.867 50.4839 106.227 50.4839 106.67C50.4839 107.113 50.1255 107.473 49.6839 107.473H47.3967C46.9551 107.473 46.5967 107.113 46.5967 106.67V105.754C46.5967 105.311 46.9551 104.951 47.3967 104.951ZM47.3967 97.7258C47.8383 97.7258 48.1967 98.0854 48.1967 98.5286V101.74C48.1967 102.183 47.8383 102.543 47.3967 102.543C46.9551 102.543 46.5967 102.183 46.5967 101.74V98.5286C46.5967 98.0854 46.9551 97.7258 47.3967 97.7258ZM75.2839 105.867H78.4839C78.9255 105.867 79.2839 106.227 79.2839 106.67C79.2839 107.113 78.9255 107.473 78.4839 107.473H75.2839C74.8423 107.473 74.4839 107.113 74.4839 106.67C74.4839 106.227 74.8423 105.867 75.2839 105.867ZM68.0839 105.867H71.2839C71.7255 105.867 72.0839 106.227 72.0839 106.67C72.0839 107.113 71.7255 107.473 71.2839 107.473H68.0839C67.6423 107.473 67.2839 107.113 67.2839 106.67C67.2839 106.227 67.6423 105.867 68.0839 105.867ZM60.8839 105.867H64.0839C64.5255 105.867 64.8839 106.227 64.8839 106.67C64.8839 107.113 64.5255 107.473 64.0839 107.473H60.8839C60.4423 107.473 60.0839 107.113 60.0839 106.67C60.0839 106.227 60.4423 105.867 60.8839 105.867Z" fill="#202225"/>
</svg>
