<svg width="160" height="160" viewBox="0 0 160 160" fill="none" xmlns="http://www.w3.org/2000/svg">
<g clip-path="url(#clip0)">
<path fill-rule="evenodd" clip-rule="evenodd" d="M51.1263 109.76C34.1383 92.7719 34.1383 65.2289 51.1263 48.2409C68.1143 31.2539 95.6573 31.2539 112.645 48.2409C129.632 65.2289 129.632 92.7719 112.645 109.76C95.6573 126.748 68.1143 126.748 51.1263 109.76Z" fill="#AABFF2"/>
<path fill-rule="evenodd" clip-rule="evenodd" d="M130.894 128.498C103.558 155.835 59.2359 155.835 31.8989 128.498C4.56187 101.162 4.56187 56.8396 31.8989 29.5026C59.2359 2.16662 103.558 2.16562 130.894 29.5026C158.231 56.8396 158.231 101.162 130.894 128.498Z" stroke="#1E2126" stroke-width="2" stroke-linecap="round" stroke-linejoin="round" stroke-dasharray="4 5"/>
<path fill-rule="evenodd" clip-rule="evenodd" d="M10.8314 149.566C8.39036 147.125 8.39036 143.166 10.8314 140.725L47.6024 103.954L56.4434 112.795L19.6724 149.566C17.2304 152.007 13.2724 152.007 10.8314 149.566Z" fill="#C9D2F0"/>
<path fill-rule="evenodd" clip-rule="evenodd" d="M10.8314 149.566C8.39036 147.125 8.39036 143.166 10.8314 140.725L47.6024 103.954L56.4434 112.795L19.6724 149.566C17.2304 152.007 13.2724 152.007 10.8314 149.566Z" stroke="#1E2126" stroke-width="2" stroke-linecap="round" stroke-linejoin="round"/>
<path fill-rule="evenodd" clip-rule="evenodd" d="M21.1457 148.092L12.3047 139.251C10.6767 137.623 10.6767 134.985 12.3047 133.357L29.7417 115.92C31.3687 114.292 34.0077 114.292 35.6357 115.92L44.4767 124.761C46.1037 126.389 46.1037 129.028 44.4767 130.655L27.0397 148.092C25.4127 149.719 22.7727 149.719 21.1457 148.092Z" fill="#9F7373"/>
<path fill-rule="evenodd" clip-rule="evenodd" d="M21.1457 148.092L12.3047 139.251C10.6767 137.623 10.6767 134.985 12.3047 133.357L29.7417 115.92C31.3687 114.292 34.0077 114.292 35.6357 115.92L44.4767 124.761C46.1037 126.389 46.1037 129.028 44.4767 130.655L27.0397 148.092C25.4127 149.719 22.7727 149.719 21.1457 148.092Z" stroke="#1E2126" stroke-width="2" stroke-linecap="round" stroke-linejoin="round"/>
<path fill-rule="evenodd" clip-rule="evenodd" d="M53.112 107.285C37.491 91.6638 37.491 66.3378 53.112 50.7168C68.733 35.0958 94.06 35.0958 109.681 50.7158C125.302 66.3368 125.302 91.6638 109.681 107.285C94.06 122.906 68.733 122.906 53.112 107.285ZM117.007 43.3898C97.34 23.7228 65.453 23.7228 45.786 43.3898C26.119 63.0568 26.119 94.9438 45.786 114.611C65.453 134.278 97.34 134.278 117.007 114.611C136.674 94.9438 136.674 63.0568 117.007 43.3898Z" fill="#F3F9FF"/>
<path d="M117.007 114.611C97.3401 134.278 65.4531 134.278 45.7861 114.611C26.1191 94.9439 26.1191 63.0569 45.7861 43.3899C65.4531 23.7229 97.3401 23.7229 117.007 43.3899C131.77 58.1529 135.451 79.7999 128.051 97.9969M125.386 103.545C124.853 104.498 124.287 105.438 123.688 106.362L125.386 103.545Z" stroke="#1E2126" stroke-width="2" stroke-linecap="round" stroke-linejoin="round"/>
<path fill-rule="evenodd" clip-rule="evenodd" d="M53.1121 107.285C37.4911 91.6637 37.4911 66.3377 53.1121 50.7167C68.7331 35.0957 94.0601 35.0957 109.681 50.7157C125.302 66.3367 125.302 91.6637 109.681 107.285C94.0601 122.906 68.7331 122.906 53.1121 107.285Z" stroke="#1E2126" stroke-width="2" stroke-linecap="round" stroke-linejoin="round"/>
</g>
<defs>
<clipPath id="clip0">
<rect width="160" height="160" fill="white"/>
</clipPath>
</defs>
</svg>
