<svg width="206" height="214" viewBox="0 0 206 214" fill="none" xmlns="http://www.w3.org/2000/svg">
<g clip-path="url(#clip0)">
<path d="M168.104 198.876L166.712 204.871M29.751 204.872H202.904H29.751ZM12.2151 204.872H19.4864H12.2151Z" stroke="#282B32" stroke-width="2" stroke-linecap="round" stroke-linejoin="round"/>
<path d="M137 197C137 194.791 138.791 193 141 193H153C156.314 193 159 195.686 159 199V204H137V197Z" fill="#72767D"/>
<path fill-rule="evenodd" clip-rule="evenodd" d="M159.056 204.871H135.394V199.31C135.394 195.471 138.51 192.358 142.353 192.358H152.097C155.94 192.358 159.056 195.471 159.056 199.31V204.871Z" stroke="#282B32" stroke-width="2" stroke-linecap="round" stroke-linejoin="round"/>
<path fill-rule="evenodd" clip-rule="evenodd" d="M140.962 204.871H131.218V200.7C131.218 199.164 132.464 197.92 134.002 197.92H138.178C139.716 197.92 140.962 199.164 140.962 200.7V204.871Z" fill="#35383E"/>
<path d="M71.1349 200.874L72.9903 204.871M140.962 204.871H131.218V200.7C131.218 199.164 132.464 197.92 134.002 197.92H138.178C139.716 197.92 140.962 199.164 140.962 200.7V204.871ZM153.257 197.92C153.257 197.92 150.009 198.962 147.225 198.615L153.257 197.92ZM77.6304 196.877L79.4858 204.871L77.6304 196.877Z" stroke="#282B32" stroke-width="2" stroke-linecap="round" stroke-linejoin="round"/>
<path fill-rule="evenodd" clip-rule="evenodd" d="M90.1608 54.7153V204.871C90.1608 207.175 97.0159 209.042 105.472 209.042C113.927 209.042 120.782 207.175 120.782 204.871V54.7153C120.782 54.7153 116.218 50.5443 105.472 50.5443C94.7248 50.5443 90.1608 54.7153 90.1608 54.7153Z" fill="#E7AA6C"/>
<path fill-rule="evenodd" clip-rule="evenodd" d="M109.471 73.594C108.89 73.594 108.419 74.0639 108.419 74.6451V111.494C108.419 112.076 108.89 112.547 109.471 112.547C110.053 112.547 110.524 112.076 110.524 111.494V74.6451C110.524 74.0639 110.053 73.594 109.471 73.594ZM109.471 116.224C108.89 116.224 108.419 116.694 108.419 117.275V132.751C108.419 133.332 108.89 133.802 109.471 133.802C110.053 133.802 110.524 133.332 110.524 132.751V117.275C110.524 116.694 110.053 116.224 109.471 116.224Z" fill="#A6723E"/>
<mask id="mask0" mask-type="alpha" maskUnits="userSpaceOnUse" x="114" y="51" width="7" height="83">
<path d="M120.782 133.804V54.716C120.782 54.716 118.931 53.0246 114.812 51.796V133.804H120.782Z" fill="white"/>
</mask>
<g mask="url(#mask0)">
<path fill-rule="evenodd" clip-rule="evenodd" d="M126.668 116.255C125.64 114.116 124.269 112.134 122.54 110.407C118.914 106.787 116.917 101.97 116.917 96.8471V85.0098C117.947 87.1509 119.321 89.1363 121.052 90.8659C124.674 94.4835 126.668 99.2955 126.668 104.413V116.255ZM116.917 75.8183V65.8177V44.7889C116.917 44.2077 116.446 43.7378 115.865 43.7378C115.283 43.7378 114.812 44.2077 114.812 44.7889V65.8177V75.8183V96.8471C114.812 102.532 117.028 107.875 121.052 111.893C124.674 115.512 126.668 120.324 126.668 125.442V126.443V132.752C126.668 133.334 127.139 133.804 127.721 133.804C128.303 133.804 128.773 133.334 128.773 132.752V126.443V125.442V104.413C128.773 98.7352 126.56 93.3949 122.54 89.3782C118.914 85.7578 116.917 80.9431 116.917 75.8183Z" fill="#A6723E"/>
</g>
<mask id="mask1" mask-type="alpha" maskUnits="userSpaceOnUse" x="120" y="54" width="1" height="4">
<path d="M120.783 57.8711V54.7152C120.783 54.7152 120.769 54.7025 120.741 54.6785V57.8711H120.783Z" fill="white"/>
</mask>
<g mask="url(#mask1)">
<path fill-rule="evenodd" clip-rule="evenodd" d="M132.005 43.7369C131.423 43.7369 130.953 44.2069 130.953 44.788V51.7216C130.953 53.9531 129.134 55.7689 126.9 55.7689C124.664 55.7689 122.847 53.9531 122.847 51.7216V44.788C122.847 44.2069 122.376 43.7369 121.794 43.7369C121.212 43.7369 120.741 44.2069 120.741 44.788V51.7216C120.741 55.1112 123.504 57.8711 126.9 57.8711C130.295 57.8711 133.057 55.1112 133.057 51.7216V44.788C133.057 44.2069 132.587 43.7369 132.005 43.7369Z" fill="#34373D"/>
</g>
<mask id="mask2" mask-type="alpha" maskUnits="userSpaceOnUse" x="90" y="102" width="8" height="23">
<path d="M90.1621 102.434V124.163H97.4627V102.434H90.1621Z" fill="white"/>
</mask>
<g mask="url(#mask2)">
<path fill-rule="evenodd" clip-rule="evenodd" d="M92.5515 124.163C95.2601 124.163 97.4635 121.962 97.4635 119.257V107.34C97.4635 104.636 95.2601 102.434 92.5515 102.434C91.9697 102.434 91.4992 102.905 91.4992 103.486C91.4992 104.067 91.9697 104.537 92.5515 104.537C94.0979 104.537 95.3576 105.794 95.3576 107.34V119.257C95.3576 120.804 94.0979 122.061 92.5515 122.061C91.0037 122.061 89.7441 120.804 89.7441 119.257V107.34C89.7441 106.759 89.2736 106.289 88.6918 106.289C88.11 106.289 87.6395 106.759 87.6395 107.34V119.257C87.6395 121.962 89.8429 124.163 92.5515 124.163Z" fill="#34373D"/>
</g>
<mask id="mask3" mask-type="alpha" maskUnits="userSpaceOnUse" x="90" y="95" width="13" height="14">
<path d="M90.1621 95.7754V108.57H102.026V95.7754H90.1621Z" fill="white"/>
</mask>
<g mask="url(#mask3)">
<path fill-rule="evenodd" clip-rule="evenodd" d="M94.8314 95.7756C90.8659 95.7756 87.6395 98.9998 87.6395 102.961C87.6395 103.542 88.11 104.012 88.6918 104.012C89.2736 104.012 89.7441 103.542 89.7441 102.961C89.7441 100.158 92.0268 97.8778 94.8314 97.8778C97.6361 97.8778 99.9202 100.158 99.9202 102.961V107.518C99.9202 108.1 100.391 108.569 100.972 108.569C101.554 108.569 102.025 108.1 102.025 107.518V102.961C102.025 98.9998 98.7983 95.7756 94.8314 95.7756Z" fill="#34373D"/>
</g>
<mask id="mask4" mask-type="alpha" maskUnits="userSpaceOnUse" x="90" y="112" width="13" height="22">
<path d="M90.1621 112.249V133.804H102.026V112.249H90.1621Z" fill="white"/>
</mask>
<g mask="url(#mask4)">
<path fill-rule="evenodd" clip-rule="evenodd" d="M100.972 112.249C100.391 112.249 99.9201 112.719 99.9201 113.3V124.341C99.9201 128.398 96.6144 131.701 92.5515 131.701C88.4885 131.701 85.1828 128.398 85.1828 124.341V120.199C85.1828 119.618 84.7123 119.146 84.1305 119.146C83.5487 119.146 83.0782 119.618 83.0782 120.199V124.341C83.0782 129.559 87.3277 133.803 92.5515 133.803C97.7752 133.803 102.025 129.559 102.025 124.341V113.3C102.025 112.719 101.554 112.249 100.972 112.249Z" fill="#34373D"/>
</g>
<mask id="mask5" mask-type="alpha" maskUnits="userSpaceOnUse" x="90" y="50" width="14" height="42">
<path d="M90.1621 91.5172V54.7153C90.1621 54.7153 94.171 51.0504 103.526 50.5913V91.5172H90.1621Z" fill="white"/>
</mask>
<g mask="url(#mask5)">
<path fill-rule="evenodd" clip-rule="evenodd" d="M102.473 43.7371C101.891 43.7371 101.421 44.207 101.421 44.7882V83.7494C101.421 86.8721 98.8766 89.4151 95.749 89.4151C92.62 89.4151 90.0757 86.8721 90.0757 83.7494V48.7019C90.0757 48.1208 89.6038 47.6508 89.022 47.6508C88.4402 47.6508 87.9697 48.1208 87.9697 48.7019V83.7494C87.9697 88.0331 91.4606 91.5172 95.749 91.5172C100.037 91.5172 103.526 88.0331 103.526 83.7494V44.7882C103.526 44.207 103.055 43.7371 102.473 43.7371Z" fill="#A6723E"/>
<mask id="mask6" mask-type="alpha" maskUnits="userSpaceOnUse" x="92" y="51" width="7" height="34">
<path d="M98.8753 51.1313C96.1018 51.6581 94.04 52.455 92.6202 53.1637V84.7428H98.8753V51.1313Z" fill="white"/>
</mask>
<g mask="url(#mask6)">
<path fill-rule="evenodd" clip-rule="evenodd" d="M95.7478 84.7428C97.4709 84.7428 98.8753 83.3427 98.8753 81.6187V61.6118C98.8753 61.0307 98.4035 60.5594 97.8217 60.5594C97.2399 60.5594 96.7694 61.0307 96.7694 61.6118V81.6187C96.7694 82.1818 96.3115 82.6406 95.7478 82.6406C95.184 82.6406 94.7247 82.1818 94.7247 81.6187V44.7888C94.7247 44.2077 94.2543 43.7363 93.6724 43.7363C93.0906 43.7363 92.6202 44.2077 92.6202 44.7888V81.6187C92.6202 83.3427 94.0232 84.7428 95.7478 84.7428Z" fill="#A6723E"/>
</g>
<mask id="mask7" mask-type="alpha" maskUnits="userSpaceOnUse" x="96" y="51" width="3" height="3">
<path d="M98.8743 51.1316C98.1207 51.2747 97.4196 51.4378 96.7697 51.6137V53.6661H98.8743V51.1316Z" fill="white"/>
</mask>
<g mask="url(#mask7)">
<path fill-rule="evenodd" clip-rule="evenodd" d="M97.822 53.6662C98.4038 53.6662 98.8743 53.1962 98.8743 52.6151V44.7889C98.8743 44.2077 98.4038 43.7378 97.822 43.7378C97.2402 43.7378 96.7697 44.2077 96.7697 44.7889V52.6151C96.7697 53.1962 97.2402 53.6662 97.822 53.6662Z" fill="#34373D"/>
</g>
</g>
<path d="M120.782 54.7152V204.871C120.782 207.175 113.927 209.042 105.472 209.042C97.0159 209.042 90.1608 207.175 90.1608 204.871V54.7152" stroke="#282B32" stroke-width="2" stroke-linecap="round" stroke-linejoin="round"/>
<path fill-rule="evenodd" clip-rule="evenodd" d="M105.47 58.8863C97.0142 58.8863 90.1592 57.0191 90.1592 54.7153C90.1592 52.4115 97.0142 50.5443 105.47 50.5443C113.926 50.5443 120.781 52.4115 120.781 54.7153C120.781 56.0612 118.441 57.2582 114.811 58.0201" fill="#A6723E"/>
<path d="M105.47 58.8863C97.0142 58.8863 90.1592 57.0191 90.1592 54.7153C90.1592 52.4115 97.0142 50.5443 105.47 50.5443C113.926 50.5443 120.781 52.4115 120.781 54.7153C120.781 56.0612 118.441 57.2582 114.811 58.0201" stroke="#282B32" stroke-width="2" stroke-linecap="round" stroke-linejoin="round"/>
<path fill-rule="evenodd" clip-rule="evenodd" d="M109.412 138.255C109.118 138.255 109.118 138.711 109.412 138.711C109.706 138.711 109.706 138.255 109.412 138.255Z" fill="#D5DBED"/>
<path fill-rule="evenodd" clip-rule="evenodd" d="M68.7257 149.386L137.081 154.278L149.286 163.729L135.857 171.348L67.5021 166.457L68.7257 149.386Z" fill="#E7AA6C"/>
<path fill-rule="evenodd" clip-rule="evenodd" d="M141.47 157.826C140 155.5 138.5 154.656 136.788 153.742L124.893 153C122.192 152.793 119.988 153.464 119.78 156.162C119.736 156.741 120.17 157.246 120.749 157.291C121.329 157.335 121.835 156.903 121.879 156.323C121.998 154.782 123.349 153.624 124.893 153.742L136.788 154.656C138.331 154.774 139.489 156.124 139.371 157.665C139.253 159.206 137.901 160.365 136.358 160.246L124.463 159.333C123.882 159.288 123.377 159.722 123.332 160.301C123.288 160.88 123.722 161.385 124.301 161.43L136.196 162.343C138.896 162.55 141.263 160.523 141.47 157.826Z" fill="#A6723E"/>
<mask id="mask8" mask-type="alpha" maskUnits="userSpaceOnUse" x="113" y="152" width="14" height="10">
<path d="M126.552 153.522L113.286 152.574V161.097H126.552V153.522Z" fill="white"/>
</mask>
<g mask="url(#mask8)">
<path fill-rule="evenodd" clip-rule="evenodd" d="M113.307 153.38C113.004 157.33 115.974 160.791 119.928 161.094C120.509 161.138 121.014 160.706 121.059 160.126C121.103 159.547 120.67 159.042 120.09 158.997C117.292 158.783 115.192 156.335 115.406 153.542C115.62 150.747 118.072 148.648 120.869 148.863L125.418 149.212C125.998 149.257 126.504 148.823 126.548 148.244C126.593 147.665 126.158 147.16 125.579 147.116L121.031 146.767C117.076 146.463 113.611 149.429 113.307 153.38Z" fill="#A6723E"/>
</g>
<mask id="mask9" mask-type="alpha" maskUnits="userSpaceOnUse" x="130" y="153" width="20" height="15">
<path d="M142.985 167.303L149.286 163.728L137.081 154.277L130.219 153.786V167.303H142.985Z" fill="white"/>
</mask>
<g mask="url(#mask9)">
<path fill-rule="evenodd" clip-rule="evenodd" d="M130.221 148.527C130.177 149.106 130.609 149.611 131.19 149.656L142.209 150.501C146.26 150.812 149.304 154.356 148.992 158.404C148.682 162.449 145.132 165.489 141.082 165.177L136.947 164.86C136.366 164.816 135.861 165.25 135.816 165.828C135.772 166.408 136.206 166.912 136.785 166.957L140.921 167.274C146.129 167.674 150.692 163.767 151.091 158.563C151.492 153.361 147.579 148.803 142.371 148.404L131.351 147.559C130.771 147.514 130.266 147.947 130.221 148.527Z" fill="#A6723E"/>
</g>
<path fill-rule="evenodd" clip-rule="evenodd" d="M130.74 165.439C130.785 164.859 130.352 164.354 129.771 164.31L77.9818 160.336C77.4013 160.292 76.8961 160.726 76.8515 161.304C76.807 161.884 77.2399 162.389 77.8203 162.433L129.61 166.407C130.19 166.451 130.695 166.019 130.74 165.439Z" fill="#A6723E"/>
<mask id="mask10" mask-type="alpha" maskUnits="userSpaceOnUse" x="68" y="149" width="42" height="11">
<path d="M109.151 152.279L68.7257 149.386L68.0129 159.317H109.151V152.279Z" fill="white"/>
</mask>
<g mask="url(#mask10)">
<path fill-rule="evenodd" clip-rule="evenodd" d="M61.9499 141.786C61.9053 142.365 62.3382 142.87 62.9186 142.914L101.808 145.898C104.926 146.137 107.268 148.865 107.029 151.981C106.79 155.097 104.057 157.436 100.94 157.197L65.9571 154.514C65.3767 154.47 64.8714 154.902 64.8269 155.482C64.7824 156.061 65.2152 156.566 65.7957 156.611L100.778 159.294C105.054 159.622 108.801 156.413 109.128 152.142C109.457 147.871 106.245 144.13 101.97 143.801L63.0801 140.818C62.4997 140.773 61.9944 141.206 61.9499 141.786Z" fill="#A6723E"/>
<mask id="mask11" mask-type="alpha" maskUnits="userSpaceOnUse" x="68" y="149" width="35" height="6">
<path d="M102.376 151.794L68.7257 149.386L68.3591 154.51H102.376V151.794Z" fill="white"/>
</mask>
<g mask="url(#mask11)">
<path fill-rule="evenodd" clip-rule="evenodd" d="M102.367 151.623C102.499 149.906 101.209 148.402 99.4884 148.27L79.5162 146.738C78.9372 146.693 78.4319 147.125 78.3874 147.705C78.3428 148.285 78.7757 148.79 79.3561 148.834L99.327 150.366C99.8893 150.409 100.311 150.902 100.268 151.462C100.225 152.024 99.732 152.446 99.1711 152.403L62.407 149.582C61.8266 149.538 61.3214 149.97 61.2768 150.55C61.2323 151.13 61.6652 151.634 62.2456 151.679L99.0096 154.5C100.73 154.632 102.235 153.342 102.367 151.623Z" fill="#A6723E"/>
</g>
<mask id="mask12" mask-type="alpha" maskUnits="userSpaceOnUse" x="67" y="159" width="7" height="4">
<path d="M68.0294 159.082L67.8214 162.008H73.3566V159.082H68.0294Z" fill="white"/>
</mask>
<g mask="url(#mask12)">
<path fill-rule="evenodd" clip-rule="evenodd" d="M73.3526 161.037C73.3971 160.457 72.9643 159.952 72.3839 159.908L61.6746 159.086C61.0956 159.042 60.5904 159.475 60.5458 160.054C60.5013 160.634 60.9342 161.138 61.5146 161.183L72.2224 162.004C72.8028 162.049 73.3081 161.617 73.3526 161.037Z" fill="#31343A"/>
</g>
</g>
<path d="M85.5622 167.749L135.859 171.348L149.288 163.731L137.083 154.278L68.7258 149.389L67.5021 166.459L75.1756 167.009" stroke="#282B32" stroke-width="2" stroke-linecap="round" stroke-linejoin="round"/>
<path fill-rule="evenodd" clip-rule="evenodd" d="M31.621 127.39L58.0653 157.977V144.073H128.795V110.706H58.0653V96.8021L31.621 127.39Z" fill="#E7AA6C"/>
<mask id="mask13" mask-type="alpha" maskUnits="userSpaceOnUse" x="33" y="129" width="96" height="15">
<path d="M33.6234 129.707L45.6805 143.652H128.793V129.707H33.6234Z" fill="white"/>
</mask>
<g mask="url(#mask13)">
<path fill-rule="evenodd" clip-rule="evenodd" d="M105.146 131.808C103.005 132.836 101.02 134.205 99.2916 135.932C95.6671 139.554 90.8456 141.549 85.7165 141.549H73.8659C76.0094 140.52 77.9971 139.148 79.7286 137.418C83.3503 133.801 88.1676 131.808 93.2912 131.808H105.146ZM64.6641 141.549H54.6522H33.5999C33.0181 141.549 32.5476 142.019 32.5476 142.6C32.5476 143.181 33.0181 143.651 33.5999 143.651H54.6522H64.6641H85.7165C91.4079 143.651 96.757 141.438 100.781 137.418C104.403 133.801 109.22 131.808 114.344 131.808H115.346H132.797C133.379 131.808 133.85 131.338 133.85 130.757C133.85 130.176 133.379 129.706 132.797 129.706H115.346H114.344H93.2912C87.6067 129.706 82.2604 131.917 78.2392 135.932C74.6148 139.554 69.7946 141.549 64.6641 141.549Z" fill="#A6723E"/>
</g>
<mask id="mask14" mask-type="alpha" maskUnits="userSpaceOnUse" x="44" y="120" width="85" height="3">
<path d="M128.793 122.272V120.169H44.6526V122.272H128.793Z" fill="white"/>
</mask>
<g mask="url(#mask14)">
<path fill-rule="evenodd" clip-rule="evenodd" d="M44.6522 121.22C44.6522 121.802 45.1226 122.271 45.7044 122.271H132.796C133.378 122.271 133.849 121.802 133.849 121.22C133.849 120.639 133.378 120.169 132.796 120.169H45.7044C45.1226 120.169 44.6522 120.639 44.6522 121.22Z" fill="#A6723E"/>
</g>
<path fill-rule="evenodd" clip-rule="evenodd" d="M65.6064 135.626C67.8404 135.626 69.6582 133.81 69.6582 131.577C69.6582 129.344 67.8404 127.529 65.6064 127.529H65.5465C66.5042 128.613 67.1055 130.02 67.1055 131.577C67.1055 133.134 66.5042 134.541 65.5465 135.626H65.6064ZM64.9995 131.577C64.9995 129.419 63.2945 127.665 61.1607 127.551C59.0283 127.665 57.3232 129.419 57.3232 131.577C57.3232 133.735 59.0283 135.49 61.1607 135.604C63.2945 135.49 64.9995 133.735 64.9995 131.577ZM56.7164 127.529C54.481 127.529 52.6646 129.344 52.6646 131.577C52.6646 133.81 54.481 135.626 56.7164 135.626H56.7762C55.8186 134.541 55.2173 133.134 55.2173 131.577C55.2173 130.02 55.8186 128.613 56.7762 127.529H56.7164ZM56.7164 137.728C53.3216 137.728 50.5587 134.968 50.5587 131.577C50.5587 128.186 53.3216 125.426 56.7164 125.426H60.945C60.985 125.426 61.0239 125.432 61.0626 125.437C61.0952 125.442 61.1276 125.446 61.1607 125.447C61.1946 125.446 61.2274 125.442 61.2601 125.437C61.2984 125.432 61.3366 125.426 61.3764 125.426H65.6064C68.9998 125.426 71.7627 128.186 71.7627 131.577C71.7627 134.968 68.9998 137.728 65.6064 137.728H61.3764C61.3366 137.728 61.2984 137.723 61.2601 137.718C61.2274 137.713 61.1946 137.709 61.1607 137.707C61.1276 137.709 61.0952 137.713 61.0626 137.717C61.0239 137.723 60.985 137.728 60.945 137.728H56.7164ZM80.8248 116.313C80.243 116.313 79.7725 115.843 79.7725 115.262C79.7725 114.681 80.243 114.211 80.8248 114.211H110.595C111.176 114.211 111.648 114.681 111.648 115.262C111.648 115.843 111.176 116.313 110.595 116.313H80.8248Z" fill="#A6723E"/>
<mask id="mask15" mask-type="alpha" maskUnits="userSpaceOnUse" x="98" y="110" width="31" height="2">
<path d="M128.793 111.056V110.704H98.4763V111.056H128.793Z" fill="white"/>
</mask>
<g mask="url(#mask15)">
<path fill-rule="evenodd" clip-rule="evenodd" d="M98.4753 110.004C98.4753 110.585 98.9458 111.055 99.5276 111.055H132.797C133.378 111.055 133.849 110.585 133.849 110.004C133.849 109.423 133.378 108.953 132.797 108.953H99.5276C98.9458 108.953 98.4753 109.423 98.4753 110.004Z" fill="#31343A"/>
</g>
<mask id="mask16" mask-type="alpha" maskUnits="userSpaceOnUse" x="106" y="141" width="23" height="3">
<path d="M128.793 143.65V141.549H106.053V143.65H128.793Z" fill="white"/>
</mask>
<g mask="url(#mask16)">
<path fill-rule="evenodd" clip-rule="evenodd" d="M106.053 142.599C106.053 143.181 106.523 143.651 107.105 143.651H132.797C133.379 143.651 133.849 143.181 133.849 142.599C133.849 142.018 133.379 141.548 132.797 141.548H107.105C106.523 141.548 106.053 142.018 106.053 142.599Z" fill="#A6723E"/>
</g>
<mask id="mask17" mask-type="alpha" maskUnits="userSpaceOnUse" x="112" y="135" width="17" height="3">
<path d="M128.795 137.419V135.316H112.773V137.419H128.795Z" fill="white"/>
</mask>
<g mask="url(#mask17)">
<path fill-rule="evenodd" clip-rule="evenodd" d="M112.773 136.368C112.773 136.949 113.243 137.419 113.825 137.419H132.798C133.38 137.419 133.85 136.949 133.85 136.368C133.85 135.786 133.38 135.316 132.798 135.316H113.825C113.243 135.316 112.773 135.786 112.773 136.368Z" fill="#A6723E"/>
</g>
<path fill-rule="evenodd" clip-rule="evenodd" d="M74.872 126.477C74.872 127.058 75.3425 127.528 75.9243 127.528H79.7367C80.3185 127.528 80.7889 127.058 80.7889 126.477C80.7889 125.896 80.3185 125.426 79.7367 125.426H75.9243C75.3425 125.426 74.872 125.896 74.872 126.477Z" fill="#A6723E"/>
<path d="M128.793 122.176V110.704H58.0652V96.8021L31.619 127.39L58.0652 157.975V144.073H128.793V128.433" stroke="#282B32" stroke-width="2" stroke-linecap="round" stroke-linejoin="round"/>
<path fill-rule="evenodd" clip-rule="evenodd" d="M163.62 67.6755L138.284 49.6151L139.697 61.7925L71.1813 69.7249L78.2883 77.5545L73.1651 86.7997L141.679 78.8693L143.092 91.0467L163.62 67.6755Z" fill="#E7AA6C"/>
<path fill-rule="evenodd" clip-rule="evenodd" d="M78.7514 109.096C78.8279 109.672 79.3569 110.077 79.9331 110L109.118 106.118C109.695 106.042 110.1 105.514 110.023 104.938C109.946 104.361 109.418 103.958 108.841 104.034L79.6561 107.916C79.0785 107.992 78.6748 108.521 78.7514 109.096Z" fill="#31343A"/>
<mask id="mask18" mask-type="alpha" maskUnits="userSpaceOnUse" x="92" y="71" width="50" height="14">
<path d="M92.9926 84.5054L141.489 78.8899V71.1592H92.9926V84.5054Z" fill="white"/>
</mask>
<g mask="url(#mask18)">
<path fill-rule="evenodd" clip-rule="evenodd" d="M93.0966 89.2502C93.9484 95.6415 99.8458 100.149 106.243 99.2981L120.549 97.3961C121.126 97.3183 121.53 96.7899 121.454 96.2143C121.377 95.6387 120.848 95.2342 120.272 95.3106L105.966 97.214C100.72 97.9106 95.8817 94.2137 95.1816 88.9624C94.4829 83.7208 98.1839 78.8908 103.43 78.1929L140.575 73.253C141.152 73.1765 141.557 72.6482 141.48 72.0712C141.402 71.4956 140.873 71.091 140.297 71.1689L103.153 76.1087C96.7558 76.9596 92.2433 82.8505 93.0966 89.2502Z" fill="#A6723E"/>
</g>
<mask id="mask19" mask-type="alpha" maskUnits="userSpaceOnUse" x="98" y="76" width="40" height="8">
<path d="M98.1158 83.9127L137.717 79.3281V76.933H98.1158V83.9127Z" fill="white"/>
</mask>
<g mask="url(#mask19)">
<path fill-rule="evenodd" clip-rule="evenodd" d="M129.653 79.082C132.53 78.6996 135.182 80.7253 135.564 83.5992C135.947 86.473 133.919 89.1216 131.042 89.5039L106.18 92.8101C103.302 93.1938 100.651 91.1681 100.269 88.2929C99.8846 85.4191 101.913 82.7705 104.791 82.3882L129.653 79.082ZM98.1809 88.571C98.7182 92.5932 102.43 95.4309 106.457 94.8956L131.32 91.5894C135.347 91.0527 138.188 87.3447 137.651 83.3211C137.115 79.2989 133.401 76.4626 129.375 76.9979L104.513 80.3041C100.486 80.8393 97.645 84.5488 98.1809 88.571Z" fill="#A6723E"/>
</g>
<mask id="mask20" mask-type="alpha" maskUnits="userSpaceOnUse" x="158" y="72" width="2" height="2">
<path d="M158.509 73.4925L159.458 72.4122H158.509V73.4925Z" fill="white"/>
</mask>
<g mask="url(#mask20)">
<path fill-rule="evenodd" clip-rule="evenodd" d="M158.518 74.18C158.594 74.7556 159.123 75.1602 159.7 75.0838L164.041 74.5068C164.617 74.4289 165.022 73.902 164.946 73.325C164.869 72.7494 164.34 72.3448 163.763 72.4213L159.423 72.9996C158.845 73.0761 158.441 73.6044 158.518 74.18Z" fill="#31343A"/>
</g>
<mask id="mask21" mask-type="alpha" maskUnits="userSpaceOnUse" x="139" y="73" width="20" height="17">
<path d="M139.913 79.071L141.677 78.8673L142.898 89.4006H144.536L158.315 73.7128H139.913V79.071Z" fill="white"/>
</mask>
<g mask="url(#mask21)">
<path fill-rule="evenodd" clip-rule="evenodd" d="M139.978 83.0106C140.514 87.0328 144.228 89.8705 148.254 89.3352L165.707 87.0134C166.284 86.9369 166.689 86.4086 166.612 85.833C166.534 85.2574 166.007 84.8528 165.429 84.9293L147.976 87.2497C145.099 87.6335 142.449 85.6078 142.065 82.7325C141.729 80.2188 143.239 77.8775 145.55 77.0739C145.347 77.6509 145.258 78.2751 145.344 78.9203C145.636 81.1142 147.661 82.6616 149.858 82.3697L164.824 80.3801C165.4 80.3036 165.805 79.7753 165.727 79.1983C165.65 78.6227 165.121 78.2181 164.545 78.296L149.581 80.2856C148.536 80.4246 147.57 79.6863 147.43 78.6422C147.291 77.5981 148.03 76.6359 149.076 76.4969L154.27 75.8059C154.846 75.7294 155.251 75.2011 155.175 74.6255C155.098 74.0499 154.569 73.6453 153.993 73.7218L146.31 74.7437C142.283 75.279 139.442 78.9884 139.978 83.0106Z" fill="#A6723E"/>
</g>
<path fill-rule="evenodd" clip-rule="evenodd" d="M93.4421 99.9394C93.3656 99.3638 92.8367 98.9592 92.2604 99.0356L78.7117 100.838C78.1355 100.914 77.7305 101.442 77.807 102.019C77.8836 102.595 78.4125 102.999 78.9901 102.922L92.5374 101.12C93.1151 101.043 93.5187 100.515 93.4421 99.9394Z" fill="#31343A"/>
<path fill-rule="evenodd" clip-rule="evenodd" d="M86.0951 96.541C86.0185 95.9654 85.4896 95.5609 84.9134 95.6373L78.139 96.5383C77.5614 96.6147 77.1577 97.1431 77.2343 97.7201C77.3108 98.2957 77.8398 98.7002 78.416 98.6224L85.1903 97.7214C85.768 97.645 86.1716 97.1166 86.0951 96.541Z" fill="#31343A"/>
<mask id="mask22" mask-type="alpha" maskUnits="userSpaceOnUse" x="74" y="73" width="17" height="14">
<path d="M74.1848 73.0316L78.2903 77.5544L74.1848 84.9621V86.6823L90.4979 84.7933V73.0131H74.1848V73.0316Z" fill="white"/>
</mask>
<g mask="url(#mask22)">
<path fill-rule="evenodd" clip-rule="evenodd" d="M74.1937 74.8975C74.2703 75.4731 74.7992 75.8777 75.3754 75.8012L80.0536 75.1783C83.9189 74.6653 87.4849 77.389 87.9985 81.2513L88.3312 83.7442C88.8462 87.6065 86.118 91.1672 82.2528 91.6816L77.576 92.3031C76.9984 92.3809 76.5947 92.9092 76.6713 93.4848C76.7478 94.0604 77.2767 94.465 77.853 94.3886L82.5311 93.7657C87.5475 93.0983 91.0857 88.4783 90.4176 83.4675L90.0863 80.9732C89.4182 75.9611 84.793 72.4269 79.7752 73.0942L75.0984 73.7171C74.5208 73.7936 74.1171 74.3219 74.1937 74.8975Z" fill="#A6723E"/>
</g>
<path fill-rule="evenodd" clip-rule="evenodd" d="M77.0093 74.34C77.0859 74.9155 77.6148 75.3201 78.191 75.2437L133.492 67.8888C134.069 67.8123 134.474 67.284 134.397 66.7084C134.32 66.1314 133.792 65.7282 133.214 65.8047L77.914 73.1596C77.3364 73.236 76.9328 73.7644 77.0093 74.34ZM137.788 66.2571C137.864 66.8327 138.393 67.2373 138.969 67.1608L154.512 65.0934C155.09 65.0169 155.494 64.4886 155.417 63.913C155.341 63.336 154.812 62.9328 154.236 63.0093L138.692 65.0767C138.115 65.1532 137.711 65.6815 137.788 66.2571Z" fill="#A6723E"/>
<mask id="mask23" mask-type="alpha" maskUnits="userSpaceOnUse" x="138" y="49" width="11" height="9">
<path d="M148.759 57.0804L138.284 49.6151L139.151 57.0804H148.759Z" fill="white"/>
</mask>
<g mask="url(#mask23)">
<path fill-rule="evenodd" clip-rule="evenodd" d="M117.829 56.1683C117.906 56.7439 118.434 57.1485 119.011 57.072L160.973 51.4912C161.551 51.4148 161.955 50.8864 161.878 50.3108C161.802 49.7339 161.273 49.3307 160.696 49.4071L118.734 54.9879C118.156 55.0644 117.752 55.5927 117.829 56.1683Z" fill="#A6723E"/>
</g>
<path fill-rule="evenodd" clip-rule="evenodd" d="M163.62 67.6755L138.282 49.6151L139.695 61.7925L71.1813 69.7249L78.2883 77.5545L73.163 86.7997L141.677 78.8693L143.09 91.0467L163.62 67.6755Z" stroke="#282B32" stroke-width="2" stroke-linecap="round" stroke-linejoin="round"/>
<path fill-rule="evenodd" clip-rule="evenodd" d="M137.843 110.706H77.5281L65.4647 102.319L77.5281 91.2402H137.843L128.795 100.93L137.843 110.706Z" fill="#E7AA6C"/>
<mask id="mask24" mask-type="alpha" maskUnits="userSpaceOnUse" x="75" y="91" width="52" height="20">
<path d="M75.9604 92.6806L77.5281 91.2402H126.189V110.704H77.5281L75.9604 109.615V92.6806Z" fill="white"/>
</mask>
<g mask="url(#mask24)">
<path fill-rule="evenodd" clip-rule="evenodd" d="M75.9609 99.8393C75.9609 106.288 81.2112 111.532 87.6654 111.532H102.098C102.68 111.532 103.15 111.062 103.15 110.481C103.15 109.9 102.68 109.43 102.098 109.43H87.6654C82.3734 109.43 78.0655 105.127 78.0655 99.8296C78.0655 94.5408 82.3734 90.2405 87.6654 90.2405H125.138C125.72 90.2405 126.19 89.7706 126.19 89.1894C126.19 88.6082 125.72 88.1383 125.138 88.1383H87.6654C81.2112 88.1383 75.9609 93.3826 75.9609 99.8393Z" fill="#A6723E"/>
</g>
<mask id="mask25" mask-type="alpha" maskUnits="userSpaceOnUse" x="107" y="109" width="22" height="2">
<path d="M107.456 110.706H128.054V109.43H107.456V110.706Z" fill="white"/>
</mask>
<g mask="url(#mask25)">
<path fill-rule="evenodd" clip-rule="evenodd" d="M107.456 110.481C107.456 111.062 107.926 111.532 108.508 111.532H126.999C127.581 111.532 128.053 111.062 128.053 110.481C128.053 109.9 127.581 109.43 126.999 109.43H108.508C107.926 109.43 107.456 109.9 107.456 110.481Z" fill="#A6723E"/>
</g>
<path fill-rule="evenodd" clip-rule="evenodd" d="M113.543 94.578C116.446 94.578 118.805 96.936 118.805 99.8349C118.805 102.735 116.446 105.092 113.543 105.092H88.4608C85.5587 105.092 83.198 102.735 83.198 99.8349C83.198 96.936 85.5587 94.578 88.4608 94.578H113.543ZM81.0921 99.8349C81.0921 103.893 84.3978 107.195 88.4608 107.195H113.543C117.606 107.195 120.911 103.893 120.911 99.8349C120.911 95.7779 117.606 92.4758 113.543 92.4758H88.4608C84.3978 92.4758 81.0921 95.7779 81.0921 99.8349Z" fill="#A6723E"/>
<mask id="mask26" mask-type="alpha" maskUnits="userSpaceOnUse" x="123" y="92" width="14" height="16">
<path d="M134.596 107.196L128.797 100.93L136.691 92.4749H123.258V107.196H134.596Z" fill="white"/>
</mask>
<g mask="url(#mask26)">
<path fill-rule="evenodd" clip-rule="evenodd" d="M123.258 99.8355C123.258 103.894 126.564 107.196 130.627 107.196H148.233C148.815 107.196 149.285 106.725 149.285 106.143C149.285 105.562 148.815 105.092 148.233 105.092H130.627C127.723 105.092 125.363 102.736 125.363 99.8355C125.363 97.2982 127.17 95.1765 129.566 94.6857C129.289 95.2307 129.118 95.8369 129.118 96.4876C129.118 98.7024 130.921 100.503 133.137 100.503H148.233C148.815 100.503 149.285 100.033 149.285 99.4518C149.285 98.8706 148.815 98.4007 148.233 98.4007H133.137C132.082 98.4007 131.223 97.5415 131.223 96.4876C131.223 95.4351 132.082 94.5787 133.137 94.5787H138.377C138.959 94.5787 139.429 94.1087 139.429 93.5276C139.429 92.9464 138.959 92.4751 138.377 92.4751H130.627C126.564 92.4751 123.258 95.7771 123.258 99.8355Z" fill="#A6723E"/>
</g>
<path fill-rule="evenodd" clip-rule="evenodd" d="M112.013 99.0465C112.449 99.0465 112.802 99.3997 112.802 99.8348C112.802 100.262 112.44 100.623 112.013 100.623H90.063C89.6343 100.623 89.2724 100.262 89.2724 99.8348C89.2724 99.3997 89.6259 99.0465 90.063 99.0465H112.013ZM87.1678 99.8348C87.1678 101.428 88.4665 102.727 90.063 102.727H112.013C113.608 102.727 114.908 101.428 114.908 99.8348C114.908 98.2415 113.608 96.9443 112.013 96.9443H90.063C88.4665 96.9443 87.1678 98.2415 87.1678 99.8348Z" fill="#A6723E"/>
<path fill-rule="evenodd" clip-rule="evenodd" d="M71.7729 115.051C71.7729 114.47 71.3025 114 70.7206 114H57.0523C56.4705 114 56 114.47 56 115.051C56 115.632 56.4705 116.102 57.0523 116.102H70.7206C71.3025 116.102 71.7729 115.632 71.7729 115.051Z" fill="#A6723E"/>
<mask id="mask27" mask-type="alpha" maskUnits="userSpaceOnUse" x="65" y="94" width="10" height="9">
<path d="M74.0693 94.4172L65.4647 102.319L66.334 102.924H74.0693V94.4172Z" fill="white"/>
</mask>
<g mask="url(#mask27)">
<path fill-rule="evenodd" clip-rule="evenodd" d="M59.1187 83.1204C59.1187 83.7016 59.5891 84.1715 60.1709 84.1715H64.8894C68.7895 84.1715 71.9644 87.3429 71.9644 91.2386V93.7537C71.9644 97.6494 68.7895 100.821 64.8894 100.821H60.1709C59.5891 100.821 59.1187 101.291 59.1187 101.872C59.1187 102.453 59.5891 102.923 60.1709 102.923H64.8894C69.9517 102.923 74.069 98.8103 74.069 93.7537V91.2386C74.069 86.1819 69.9517 82.0693 64.8894 82.0693H60.1709C59.5891 82.0693 59.1187 82.5393 59.1187 83.1204Z" fill="#A6723E"/>
</g>
<path fill-rule="evenodd" clip-rule="evenodd" d="M137.845 110.706H77.5281L65.4647 102.321L77.5281 91.2402H137.845L128.797 100.93L137.845 110.706Z" stroke="#282B32" stroke-width="2" stroke-linecap="round" stroke-linejoin="round"/>
<path fill-rule="evenodd" clip-rule="evenodd" d="M63.2182 26.4109C65.0569 23.2271 65.9783 19.811 68.9305 17.3752C72.0289 14.8183 76.7168 14.1065 79.1164 17.9883C81.5995 22.005 78.6014 26.6195 75.1592 28.6869C70.8151 31.2952 65.5454 31.4773 60.5444 30.3331C60.9661 30.4262 62.9426 26.8892 63.2182 26.4109Z" fill="#A5D388"/>
<path d="M72.5552 23.3213C72.5552 23.3213 78.3482 19.2087 79.4756 14.0562M66.555 20.0785C67.1953 19.0983 67.9511 18.1835 68.9309 17.3743C72.0293 14.8189 76.7172 14.1056 79.1168 17.9875C81.5999 22.0055 78.6004 26.62 75.1597 28.6861C70.8142 31.2957 65.5445 31.4765 60.5448 30.3322C60.9665 30.4254 62.943 26.8884 63.2186 26.4115L66.555 20.0785Z" stroke="#1E2126" stroke-width="2" stroke-linecap="round" stroke-linejoin="round"/>
<path fill-rule="evenodd" clip-rule="evenodd" d="M30.798 54.2685C35.5193 54.0405 39.8536 52.6627 44.5401 54.1573C49.4563 55.7256 53.4831 60.29 50.9512 65.5761C48.3303 71.047 41.2567 71.0151 36.6314 68.7363C30.791 65.8597 26.9341 60.2984 24.6987 54.1058C24.8908 54.6258 30.0895 54.3033 30.798 54.2685Z" fill="#A5D388"/>
<path d="M40.6248 62.1993C40.6248 62.1993 49.0973 65.5945 55.4526 63.2337M51.374 64.5233C51.2612 64.8709 51.1207 65.2212 50.9508 65.5758C48.3313 71.0467 41.2563 71.0147 36.6311 68.736C30.7907 65.8594 26.9351 60.2981 24.6984 54.1069C24.8918 54.6269 30.0892 54.3029 30.7976 54.2682C35.5189 54.0416 39.8533 52.6623 44.5398 54.157C46.2643 54.7075 47.8803 55.6265 49.1414 56.8153L51.374 64.5233Z" stroke="#1E2126" stroke-width="2" stroke-linecap="round" stroke-linejoin="round"/>
<path d="M96.7333 4.17212C96.7333 4.17212 101.726 23.1349 86.2468 32.3931" stroke="#282B32" stroke-width="2" stroke-linecap="round" stroke-linejoin="round" stroke-dasharray="3 6"/>
<path fill-rule="evenodd" clip-rule="evenodd" d="M161.054 112.749C158.117 114.965 154.838 116.301 152.782 119.531C150.624 122.918 150.496 127.654 154.65 129.554C158.949 131.518 163.164 127.974 164.792 124.306C166.847 119.677 166.375 114.43 164.62 109.612C164.764 110.019 161.495 112.416 161.054 112.749Z" fill="#A5D388"/>
<path d="M159.139 122.388C159.139 122.388 155.767 128.64 150.789 130.395M161.054 112.749C158.117 114.965 154.838 116.301 152.782 119.531C150.624 122.918 150.496 127.654 154.65 129.554C158.949 131.518 163.164 127.974 164.792 124.306C166.847 119.677 166.375 114.43 164.62 109.612C164.764 110.019 161.495 112.416 161.054 112.749Z" stroke="#1E2126" stroke-width="2" stroke-linecap="round" stroke-linejoin="round"/>
<path d="M2.78308 50.1713C2.78308 50.1713 4.52295 77.9779 39.4942 82.1489" stroke="#282B32" stroke-width="2" stroke-linecap="round" stroke-linejoin="round" stroke-dasharray="3 6"/>
</g>
<defs>
<clipPath id="clip0">
<rect width="206" height="214" fill="white"/>
</clipPath>
</defs>
</svg>
