<svg width="241" height="192" viewBox="0 0 241 192" fill="none" xmlns="http://www.w3.org/2000/svg">
<g clip-path="url(#clip0)">
<path d="M104.943 169.524C105.646 169.524 106.174 168.983 106.174 168.262C106.174 167.541 105.646 167 104.943 167H75.763C75.0598 167 74.5325 167.541 74.5325 168.262C74.5325 168.983 75.0598 169.524 75.763 169.524H104.943ZM70.3137 9.61442C70.1379 9.79471 69.9621 10.1553 69.9621 10.5158C69.9621 10.8764 70.1379 11.237 70.3137 11.4172L70.4895 11.5975C70.4895 11.5975 70.6652 11.5975 70.6652 11.7778H71.0168C71.3684 11.7778 71.7199 11.5975 71.8957 11.4172C72.0715 11.237 72.2473 10.8764 72.2473 10.5158C72.2473 10.1553 72.0715 9.79471 71.8957 9.61442C71.7199 9.25386 70.841 9.25386 70.3137 9.61442ZM80.1576 9.25386C79.4544 9.25386 78.9271 9.79471 78.9271 10.5158C78.9271 11.237 79.4544 11.7778 80.1576 11.7778H109.514C110.217 11.7778 110.744 11.237 110.744 10.5158C110.744 9.79471 110.217 9.25386 109.514 9.25386H80.1576ZM54.4931 159.609H116.193V178.719H110.744C110.744 177.998 110.217 177.457 109.514 177.457H47.4617C45.3523 177.457 43.5945 175.654 43.5945 173.491V6.54963C43.5945 4.38625 45.3523 2.58344 47.4617 2.58344H64.6886C65.3917 2.58344 65.9191 2.04259 65.9191 1.32146H69.259C69.259 2.04259 69.7863 2.58344 70.4895 2.58344H133.069C135.178 2.58344 136.936 4.38625 136.936 6.54963V31.4285H128.498V26.2003C129.201 26.2003 129.729 25.6595 129.729 24.9384V23.1356C129.729 20.9722 127.971 19.3496 126.037 19.3496H54.4931C52.3837 19.3496 50.8016 21.1525 50.8016 23.1356V155.823C50.8016 157.806 52.5595 159.609 54.4931 159.609Z" fill="#B9BBBE"/>
<path d="M127.443 24.9384V21.5189H53.2626V157.085H116.193L116.357 40.7298C116.357 35.8622 120.225 31.7157 125.147 31.7157L128.674 31.4285V26.2003C127.971 26.2003 127.443 25.6595 127.443 24.9384Z" fill="#1C1C1C"/>
<path d="M199.163 80.1046H200.921V65.8623H199.163V80.1046ZM157.327 184.127C153.987 184.127 151.174 181.243 151.174 177.817C151.174 174.392 153.987 171.507 157.327 171.507C160.667 171.507 163.479 174.392 163.479 177.817C163.479 181.243 160.842 184.127 157.327 184.127ZM196.702 183.045V167.541H183.87C183.167 167.541 182.64 167 182.64 166.279H174.378C174.378 167 173.85 167.541 173.147 167.541H118.83V183.045C118.83 186.651 121.643 189.355 124.983 189.355H190.374C193.89 189.536 196.702 186.651 196.702 183.045ZM166.819 45.4905H155.393C154.69 45.4905 154.163 44.9496 154.163 44.2285C154.163 43.5074 154.69 42.9665 155.393 42.9665H166.819C167.522 42.9665 168.05 43.5074 168.05 44.2285C168.05 44.9496 167.522 45.4905 166.819 45.4905ZM147.659 45.1299L147.483 45.3102L147.307 45.4905H146.956C146.604 45.4905 146.252 45.3102 146.077 45.1299C145.901 44.9496 145.725 44.5891 145.725 44.2285C145.725 43.8679 145.901 43.5074 146.077 43.3271C146.428 42.9665 146.78 42.9665 147.131 42.9665H147.307C147.307 42.9665 147.483 42.9665 147.483 43.1468L147.659 43.3271C147.834 43.5074 148.01 43.8679 148.01 44.2285C148.01 44.5891 148.01 44.9496 147.659 45.1299ZM190.374 33.9525H124.983C121.467 33.9525 118.83 36.837 118.83 40.2623V53.2426H196.702V40.2623C196.702 36.837 193.89 33.9525 190.374 33.9525Z" fill="#DCDDDE"/>
<path d="M183.87 165.017H196.702V55.9468H118.83V165.198H173.147C173.851 165.198 174.378 165.738 174.378 166.459H182.64C182.464 165.738 183.167 165.017 183.87 165.017Z" fill="#E4E4E4"/>
<path d="M157.327 171.507C153.987 171.507 151.174 174.392 151.174 177.817C151.174 181.243 153.987 184.127 157.327 184.127C160.667 184.127 163.479 181.243 163.479 177.817C163.479 174.392 160.843 171.507 157.327 171.507ZM109.689 177.457H47.4618C45.3524 177.457 43.5945 175.654 43.5945 173.49V6.54963C43.5945 4.38625 45.3524 2.58344 47.4618 2.58344H64.6886C65.3917 2.58344 65.9191 2.04259 65.9191 1.32146C65.9191 0.600337 65.3917 0.059494 64.6886 0.059494H47.4618C43.9461 0.059494 41.1335 2.944 41.1335 6.54963V173.49C41.1335 177.096 43.9461 179.981 47.4618 179.981H109.514C110.217 179.981 110.744 179.44 110.744 178.719C110.92 177.998 110.217 177.457 109.689 177.457Z" fill="black"/>
<path d="M104.943 167H75.7629C75.0598 167 74.5325 167.541 74.5325 168.262C74.5325 168.983 75.0598 169.524 75.7629 169.524H105.119C105.822 169.524 106.349 168.983 106.349 168.262C106.174 167.541 105.646 167 104.943 167ZM80.1575 11.7778H109.513C110.217 11.7778 110.744 11.237 110.744 10.5158C110.744 9.79471 110.217 9.25386 109.513 9.25386H80.1575C79.4544 9.25386 78.9271 9.79471 78.9271 10.5158C78.9271 11.237 79.4544 11.7778 80.1575 11.7778ZM70.4894 11.5975C70.4894 11.5975 70.6652 11.5975 70.6652 11.7778H71.0168C71.3683 11.7778 71.7199 11.5975 71.8957 11.4172C72.0715 11.237 72.2473 10.8764 72.2473 10.5158C72.2473 10.1553 72.0715 9.79471 71.8957 9.61442C71.3683 9.07358 70.6652 9.07358 70.1379 9.61442C69.9621 9.79471 69.7863 10.1553 69.7863 10.5158C69.7863 10.8764 69.9621 11.237 70.1379 11.4172L70.4894 11.5975ZM8.26185 95.7891C8.26185 95.0679 7.7345 94.5271 7.03136 94.5271H1.23049C0.527354 94.5271 0 95.0679 0 95.7891C0 96.5102 0.527354 97.051 1.23049 97.051H7.03136C7.7345 97.051 8.26185 96.5102 8.26185 95.7891ZM11.0744 120.488L5.62509 122.471C4.92196 122.651 4.57038 123.372 4.92195 124.093C5.09774 124.634 5.62509 124.995 6.15244 124.995H6.50401L11.9533 123.012C12.6565 122.831 13.008 122.11 12.6565 121.389C12.3049 120.668 11.6018 120.307 11.0744 120.488ZM23.5551 143.564L19.1605 147.35C18.6331 147.89 18.6331 148.612 18.9847 149.152C19.1605 149.513 19.512 149.693 19.8636 149.693C20.2152 149.693 20.391 149.513 20.7425 149.333L25.1371 145.547C25.6645 145.006 25.6645 144.285 25.3129 143.744C24.7856 143.203 24.0824 143.023 23.5551 143.564ZM20.7425 42.2454C20.2152 41.7046 19.512 41.8848 18.9847 42.4257C18.4573 42.9665 18.6331 43.6877 19.1605 44.2285L23.5551 48.0144C23.7309 48.1947 24.0824 48.375 24.434 48.375C24.7856 48.375 25.1371 48.1947 25.3129 47.8341C25.8403 47.2933 25.6645 46.5722 25.1371 46.0313L20.7425 42.2454ZM11.7775 68.5665L6.32823 66.5834C5.62509 66.4032 4.92196 66.7637 4.74617 67.3046C4.57039 68.0257 4.92196 68.7468 5.44931 68.9271L10.8986 70.9102H11.2502C11.7775 70.9102 12.3049 70.5496 12.4807 70.0088C12.8322 69.6482 12.4807 68.9271 11.7775 68.5665ZM232.738 95.7891C232.738 95.0679 233.265 94.5271 233.969 94.5271H239.769C240.473 94.5271 241 95.0679 241 95.7891C241 96.5102 240.473 97.051 239.769 97.051H233.969C233.265 97.051 232.738 96.5102 232.738 95.7891ZM229.926 120.488L235.375 122.471C236.078 122.651 236.43 123.372 236.078 124.093C235.902 124.634 235.375 124.995 234.848 124.995H234.496L229.047 123.012C228.344 122.831 227.992 122.11 228.344 121.389C228.519 120.668 229.398 120.307 229.926 120.488ZM217.445 143.564L221.84 147.35C222.367 147.89 222.367 148.612 222.015 149.152C221.84 149.513 221.488 149.693 221.136 149.693C220.785 149.693 220.609 149.513 220.257 149.333L215.863 145.547C215.336 145.006 215.335 144.285 215.687 143.744C216.214 143.203 216.918 143.023 217.445 143.564ZM220.257 42.2454C220.785 41.7046 221.488 41.8848 222.015 42.4257C222.543 42.9665 222.367 43.6877 221.84 44.2285L217.445 48.0144C217.269 48.1947 216.918 48.375 216.566 48.375C216.214 48.375 215.863 48.1947 215.687 47.8341C215.16 47.2933 215.336 46.5722 215.863 46.0313L220.257 42.2454ZM229.047 68.5665L234.496 66.5834C235.199 66.4032 235.902 66.7637 236.078 67.3046C236.254 68.0257 235.902 68.7468 235.375 68.9271L229.926 70.9102H229.574C229.047 70.9102 228.519 70.5496 228.344 70.0088C228.168 69.6482 228.519 68.9271 229.047 68.5665ZM99.4938 67.6651C98.7907 67.6651 98.0875 66.944 98.0875 66.2229C98.0875 65.5018 98.7907 64.7806 99.4938 64.7806C100.197 64.7806 100.9 65.5018 100.9 66.2229C100.9 66.944 100.373 67.6651 99.4938 67.6651ZM84.2006 67.6651C83.4974 67.6651 82.7943 66.944 82.7943 66.2229C82.7943 65.5018 83.4974 64.7806 84.2006 64.7806C84.9037 64.7806 85.6068 65.5018 85.6068 66.2229C85.6068 66.944 84.9037 67.6651 84.2006 67.6651ZM100.197 60.0933L102.834 55.2257C103.009 55.0454 102.834 54.6848 102.658 54.5046C102.482 54.3243 102.131 54.5046 101.955 54.6848L99.8454 58.651C99.4938 59.1919 98.9664 59.5525 98.2633 59.1919C96.3297 58.4708 94.2203 57.9299 91.9351 57.9299C89.6499 57.9299 87.5405 58.2905 85.6068 59.0116C85.0795 59.1919 84.3764 59.0116 84.0248 58.4708L81.9154 54.6848C81.7396 54.5046 81.388 54.3243 81.2122 54.5046C80.8607 54.6848 80.8607 55.0454 81.0365 55.2257L83.1459 59.0116C83.4974 59.5525 83.3217 60.2736 82.7943 60.6341C78.5755 63.1581 75.7629 67.4848 75.2356 72.5327C75.2356 73.2539 75.7629 73.975 76.4661 73.975H107.58C108.283 73.975 108.81 73.2539 108.81 72.5327C108.107 67.1243 104.767 62.6172 100.197 60.0933ZM69.9621 74.5158C67.8527 74.5158 66.2706 76.3187 66.2706 78.3018V95.7891C66.2706 96.1496 66.4464 96.5102 66.6222 96.6905C69.7863 99.9356 73.8293 97.7722 73.8293 94.5271V78.482C73.6535 76.3187 72.0715 74.5158 69.9621 74.5158ZM107.404 75.237H76.4661C75.7629 75.237 75.2356 75.7778 75.2356 76.4989V100.116C75.2356 102.459 76.9934 104.262 79.2786 104.262H80.6849C81.388 104.262 81.9154 104.803 81.9154 105.524V113.998C81.9154 114.358 82.0912 114.719 82.267 114.899C85.4311 118.144 89.4741 115.981 89.4741 112.736V105.524C89.4741 104.803 90.0014 104.262 90.7046 104.262H93.3413C94.0445 104.262 94.5718 104.803 94.5718 105.524V113.998C94.5718 114.358 94.7476 114.719 94.9234 114.899C98.0875 118.144 102.131 115.981 102.131 112.736V105.524C102.131 104.803 102.658 104.262 103.361 104.262H104.767C107.053 104.262 108.81 102.459 108.81 100.116V76.4989C108.635 75.7778 108.107 75.237 107.404 75.237Z" fill="black"/>
<path d="M99.4938 67.6651C98.7907 67.6651 98.0875 66.944 98.0875 66.2229C98.0875 65.5017 98.7907 64.7806 99.4938 64.7806C100.197 64.7806 100.9 65.5017 100.9 66.2229C100.9 66.944 100.373 67.6651 99.4938 67.6651ZM84.2006 67.6651C83.4975 67.6651 82.7943 66.944 82.7943 66.2229C82.7943 65.5017 83.4975 64.7806 84.2006 64.7806C84.9037 64.7806 85.6069 65.5017 85.6069 66.2229C85.6069 66.944 84.9037 67.6651 84.2006 67.6651ZM100.197 60.0933L102.834 55.2257C103.01 55.0454 102.834 54.6848 102.658 54.5046C102.482 54.3243 102.131 54.5046 101.955 54.6848L99.8454 58.651C99.4938 59.1919 98.9665 59.5525 98.2633 59.1919C96.3297 58.4708 94.2203 57.9299 91.9351 57.9299C89.6499 57.9299 87.5405 58.2905 85.6069 59.0116C85.0795 59.1919 84.3764 59.0116 84.0248 58.4708L81.9154 54.6848C81.7396 54.5046 81.3881 54.3243 81.2123 54.5046C80.8607 54.6848 80.8607 55.0454 81.0365 55.2257L83.1459 59.0116C83.4975 59.5525 83.3217 60.2736 82.7943 60.6341C78.5755 63.1581 75.763 67.4848 75.2356 72.5327C75.2356 73.2539 75.763 73.975 76.4661 73.975H107.58C108.283 73.975 108.81 73.2539 108.81 72.5327C108.107 67.1243 104.767 62.6172 100.197 60.0933ZM69.9621 74.5158C67.8527 74.5158 66.2706 76.3187 66.2706 78.3018V95.7891C66.2706 96.1496 66.4464 96.5102 66.6222 96.6905C69.7863 99.9356 73.8293 97.7722 73.8293 94.5271V78.482C73.6536 76.3186 72.0715 74.5158 69.9621 74.5158ZM107.404 75.237H76.4661C75.763 75.237 75.2356 75.7778 75.2356 76.4989V100.116C75.2356 102.459 76.9935 104.262 79.2786 104.262H80.6849C81.3881 104.262 81.9154 104.803 81.9154 105.524V113.998C81.9154 114.358 82.0912 114.719 82.267 114.899C85.4311 118.144 89.4741 115.981 89.4741 112.736V105.524C89.4741 104.803 90.0015 104.262 90.7046 104.262H93.3414C94.0445 104.262 94.5719 104.803 94.5719 105.524V113.998C94.5719 114.358 94.7477 114.719 94.9234 114.899C98.0876 118.144 102.131 115.981 102.131 112.736V105.524C102.131 104.803 102.658 104.262 103.361 104.262H104.767C107.053 104.262 108.81 102.459 108.81 100.116V76.4989C108.635 75.7778 108.107 75.237 107.404 75.237Z" fill="#3DDC84"/>
<path d="M200.042 65.8623C200.57 65.8623 200.921 66.2229 200.921 66.7637V79.2032C200.921 79.744 200.57 80.1046 200.042 80.1046C199.515 80.1046 199.163 79.744 199.163 79.2032V66.7637C199.163 66.2229 199.515 65.8623 200.042 65.8623ZM191.605 53.2426H123.752C120.939 53.2426 118.83 50.8989 118.83 48.1947V40.4426C118.83 36.837 121.643 34.1327 124.983 34.1327H190.374C193.89 34.1327 196.527 37.0172 196.527 40.4426V48.1947C196.702 51.0792 194.417 53.2426 191.605 53.2426ZM124.983 189.536C121.467 189.536 118.83 186.651 118.83 183.226V172.95C118.83 170.065 121.115 167.902 123.752 167.902H173.147C173.85 167.902 174.378 167.361 174.378 166.64C174.378 165.919 173.85 165.378 173.147 165.378H121.291C119.885 165.378 118.83 164.296 118.83 162.854V58.4708C118.83 57.0285 119.885 55.9468 121.291 55.9468H194.241C195.648 55.9468 196.702 57.0285 196.702 58.4708V162.674C196.702 164.116 195.648 165.198 194.241 165.198H183.87C183.167 165.198 182.64 165.738 182.64 166.459C182.64 167.181 183.167 167.721 183.87 167.721H191.605C194.417 167.721 196.527 170.065 196.527 172.769V183.045C196.527 186.651 193.714 189.355 190.374 189.355H124.983V189.536ZM201.273 63.1581C200.042 63.1581 199.163 62.2567 199.163 60.9947V40.4426C199.163 35.575 195.296 31.4285 190.374 31.4285H144.495C141.682 31.4285 139.573 29.0848 139.573 26.3806V6.54963C139.573 2.944 136.76 0.059494 133.244 0.059494H70.6652C69.9621 0.059494 69.4347 0.600337 69.4347 1.32146C69.4347 2.04259 69.9621 2.58344 70.6652 2.58344H133.244C135.354 2.58344 137.112 4.38625 137.112 6.54963V28.9046C137.112 30.3468 136.057 31.4285 134.651 31.4285H124.983C120.236 31.4285 116.193 35.3947 116.193 40.4426V75.5975C114.787 74.3355 112.326 74.1553 110.217 76.1384C110.041 76.3186 109.865 76.6792 109.865 77.0398V95.7891C109.865 96.1496 110.041 96.5102 110.217 96.6905C112.326 98.8539 114.611 98.6736 116.018 97.2313V151.857C116.018 153.299 114.963 154.381 113.557 154.381H56.2509C54.6689 154.381 53.2626 152.938 53.2626 151.316V24.7581C53.2626 23.1355 54.6689 21.6933 56.2509 21.6933H124.455C126.037 21.6933 127.443 23.1355 127.443 24.7581C127.443 25.4792 127.971 26.0201 128.674 26.0201C129.377 26.0201 129.904 25.4792 129.904 24.7581V22.2341C129.904 20.6116 128.498 19.1693 126.916 19.1693H53.79C52.2079 19.1693 50.8016 20.6116 50.8016 22.2341V156.364C50.8016 157.986 52.2079 159.428 53.79 159.428H108.81C112.853 159.428 116.369 162.854 116.369 167.181V183.045C116.369 187.913 120.236 192.059 125.158 192.059H190.55C195.296 192.059 199.339 188.093 199.339 183.045V84.7919C199.339 83.5299 200.218 82.6285 201.449 82.6285C202.679 82.6285 203.558 81.5468 203.558 80.4651V65.5017C203.382 64.2398 202.503 63.1581 201.273 63.1581Z" fill="black"/>
<rect x="109.2" y="73" width="7" height="26" fill="#1C1C1C"/>
<path fill-rule="evenodd" clip-rule="evenodd" d="M113.691 74C111.582 74 110 75.8028 110 77.7859V95.2732C110 95.6338 110.176 95.9944 110.352 96.1746C113.516 99.4197 117.559 97.2563 117.559 94.0113V77.9662C117.383 75.8028 115.801 74 113.691 74Z" fill="#3DDC84"/>
<rect x="116.25" y="72" width="2.5" height="29" fill="black"/>
<path d="M166.819 42.9665H155.393C154.69 42.9665 154.163 43.5074 154.163 44.2285C154.163 44.9496 154.69 45.4905 155.393 45.4905H166.819C167.522 45.4905 168.05 44.9496 168.05 44.2285C168.05 43.5074 167.522 42.9665 166.819 42.9665ZM147.483 43.1468C147.483 43.1468 147.307 43.1468 147.307 42.9665H147.131C146.78 42.9665 146.252 42.9665 146.077 43.3271C145.901 43.5074 145.725 43.8679 145.725 44.2285C145.725 44.5891 145.901 44.9496 146.077 45.1299C146.252 45.3102 146.604 45.4905 146.956 45.4905H147.307C147.307 45.4905 147.483 45.4905 147.483 45.3102L147.659 45.1299C147.835 44.9496 148.01 44.5891 148.01 44.2285C148.01 43.8679 147.835 43.5074 147.659 43.3271C147.659 43.3271 147.659 43.1468 147.483 43.1468Z" fill="black"/>
<path d="M174.554 97.7722C175.257 97.2313 175.257 96.3299 174.729 95.7891C172.444 93.4454 169.456 92.0032 166.643 92.0032C162.425 92.0032 160.667 94.1665 157.678 94.1665C154.69 94.1665 152.405 92.1834 148.713 92.1834C145.022 92.1834 141.33 94.5271 138.869 98.313C135.53 103.721 136.057 113.998 141.506 122.651C143.44 125.716 146.077 129.321 149.592 129.321C152.756 129.321 153.635 127.338 157.678 127.338C161.897 127.338 162.6 129.321 165.764 129.321C169.28 129.321 172.093 125.355 174.026 122.29C175.433 120.127 175.96 118.865 177.015 116.341C169.456 113.276 167.874 102.64 174.554 97.7722Z" fill="#181717"/>
<path d="M157.503 92.3637C159.788 92.0032 162.073 90.5609 163.479 88.5778C164.71 86.9553 165.764 84.6116 165.94 82.2679C165.94 81.3665 165.237 80.8257 164.358 81.006C162.249 81.5468 159.964 82.9891 158.557 84.7919C157.151 86.4144 156.096 88.7581 156.096 91.1018C156.096 91.8229 156.799 92.544 157.503 92.3637Z" fill="#181717"/>
</g>
<defs>
<clipPath id="clip0">
<rect width="241" height="192" fill="white"/>
</clipPath>
</defs>
</svg>
