<svg width="94" height="120" viewBox="0 0 94 120" fill="none" xmlns="http://www.w3.org/2000/svg">
<path fill-rule="evenodd" clip-rule="evenodd" d="M91.1172 73.1473C91.1172 97.7033 71.168 117.61 46.5583 117.61C21.9493 117.61 2 97.7033 2 73.1473C2 48.5912 21.9493 28.6841 46.5583 28.6841C71.168 28.6841 91.1172 48.5912 91.1172 73.1473Z" fill="#FDCA59"/>
<path d="M80.1858 43.9741C86.9943 51.782 91.117 61.9841 91.117 73.147C91.117 97.7031 71.1678 117.61 46.5588 117.61C21.9498 117.61 1.99979 97.7031 1.99979 73.147C1.99979 48.5909 21.9498 28.6846 46.5588 28.6846" stroke="#222426" stroke-width="3" stroke-linecap="round" stroke-linejoin="round"/>
<path fill-rule="evenodd" clip-rule="evenodd" d="M24.2793 74.972C24.2793 78.0419 21.7855 80.5295 18.7098 80.5295C15.6333 80.5295 13.1395 78.0419 13.1395 74.972C13.1395 71.9021 15.6333 69.4145 18.7098 69.4145C21.7855 69.4145 24.2793 71.9021 24.2793 74.972ZM79.9776 74.972C79.9776 78.0419 77.4838 80.5295 74.4081 80.5295C71.3316 80.5295 68.8378 78.0419 68.8378 74.972C68.8378 71.9021 71.3316 69.4145 74.4081 69.4145C77.4838 69.4145 79.9776 71.9021 79.9776 74.972Z" fill="#222426"/>
<path d="M57.6983 94.8038C51.1853 89.6047 41.9318 89.6047 35.4188 94.8038" stroke="#222426" stroke-width="3" stroke-linecap="round" stroke-linejoin="round"/>
<path fill-rule="evenodd" clip-rule="evenodd" d="M63.5229 34.498L48.7471 46.4332C47.8216 47.1816 46.6021 45.9647 47.3514 45.0412L52.6156 38.552L59.3131 30.2973L63.5229 34.498ZM85.4995 12.3168L91.5903 18.3945C91.9773 18.7806 91.9773 19.4078 91.5903 19.7947L90.1863 21.1949C88.6368 22.7418 86.1235 22.7418 84.5733 21.1949L72.6445 9.29184C71.0943 7.74492 71.0943 5.23708 72.6445 3.69091L74.0478 2.29068C74.4355 1.90376 75.064 1.90376 75.4518 2.29068L79.093 5.92409" fill="#E20F23"/>
<path fill-rule="evenodd" clip-rule="evenodd" d="M63.4043 34.2007L48.6285 46.136C47.703 46.8844 46.4835 45.6675 47.2328 44.744L52.497 38.2547L59.1945 30L63.4043 34.2007Z" fill="#DBB8BB"/>
<path d="M59.3128 30.297L47.3518 45.041C46.6018 45.9645 47.8213 47.1814 48.7468 46.4337L63.5226 34.4977" stroke="#222426" stroke-width="3" stroke-linecap="round" stroke-linejoin="round"/>
<path fill-rule="evenodd" clip-rule="evenodd" d="M66.2841 37.2532L51.9456 22.9455C51.5578 22.5586 51.5578 21.9315 51.9456 21.5446L52.9978 20.4946C56.0983 17.4007 61.1241 17.4007 64.2246 20.4946L73.3461 29.5965C76.4466 32.6903 76.4466 37.706 73.3461 40.7998L72.2938 41.8498C71.9061 42.2367 71.2783 42.2367 70.8906 41.8498L68.8896 39.8531" fill="#E20F23"/>
<path fill-rule="evenodd" clip-rule="evenodd" d="M72.9955 29.2468L64.5753 20.8446L74.3988 11.0422L82.819 19.4444" fill="#E20F23"/>
<path d="M82.819 19.4444L72.9955 29.2468M85.4995 12.3168L91.5903 18.3945C91.9773 18.7806 91.9773 19.4078 91.5903 19.7947L90.1863 21.1949C88.6368 22.7418 86.1235 22.7418 84.5733 21.1949L72.6445 9.29184C71.0943 7.74492 71.0943 5.23708 72.6445 3.69091L74.0478 2.29068C74.4355 1.90376 75.064 1.90376 75.4518 2.29068L79.093 5.92409L85.4995 12.3168ZM66.2841 37.2532L51.9456 22.9456C51.5578 22.5586 51.5578 21.9315 51.9456 21.5446L52.9978 20.4946C56.0983 17.4008 61.1241 17.4008 64.2246 20.4946L73.3461 29.5965C76.4466 32.6903 76.4466 37.706 73.3461 40.7998L72.2938 41.8498C71.9061 42.2367 71.2783 42.2367 70.8906 41.8498L68.8896 39.8531L66.2841 37.2532ZM64.5754 20.8447L74.3989 11.0423L64.5754 20.8447Z" stroke="#222426" stroke-width="3" stroke-linecap="round" stroke-linejoin="round"/>
</svg>
