<svg width="200" height="104" viewBox="0 0 200 104" fill="none" xmlns="http://www.w3.org/2000/svg">
<path fill-rule="evenodd" clip-rule="evenodd" d="M92.8138 75.2268C97.2278 71.8898 103.411 71.8668 107.851 75.1668C108.301 75.4968 108.414 75.9059 108.084 76.3479C107.754 76.7929 107.174 76.9139 106.724 76.5879L106.654 76.5319C102.924 73.7519 97.7238 73.7719 94.0138 76.5719C93.8338 76.7019 93.6238 76.7719 93.4138 76.7719C93.1138 76.7719 92.9214 76.7515 92.7214 76.4915C92.3914 76.0515 92.4814 75.4215 92.9214 75.0915L92.8138 75.2268ZM77.1428 57.5112C80.0248 57.5112 82.3608 59.8463 82.3608 62.7283C82.3608 65.6083 80.0248 67.6749 77.1438 67.6749C74.2638 67.6749 72.0155 65.5375 72.0155 62.6575C72.0155 59.7745 74.3555 57.4375 77.2355 57.4375L77.1428 57.5112ZM124.009 57.4707C126.889 57.4707 129.159 59.726 129.159 62.609C129.159 65.489 126.934 67.5923 124.054 67.5923C121.174 67.5923 118.952 65.6017 118.952 62.7217C118.952 59.8417 121.292 57.5017 124.172 57.5017L124.009 57.4707ZM132.233 74.9583C132.723 74.8983 133.189 74.8452 133.669 74.7252C134.209 74.5852 134.607 74.7202 134.747 75.2602C134.897 75.7902 134.6 76.2455 134.07 76.3955C133.51 76.5455 133.034 76.6561 132.454 76.7261C132.414 76.7361 132.374 76.7441 132.334 76.7441C131.844 76.7441 131.466 76.4991 131.406 75.9991C131.336 75.4591 131.726 74.9989 132.276 74.9289L132.233 74.9583ZM83.0328 19.1629C80.1968 19.8449 78.4628 20.4529 78.0698 20.5929L78.0068 20.6229C74.4668 22.0529 72.1093 25.4749 72.1093 29.2889C72.1093 31.3849 72.8293 33.3889 74.1893 35.0859C74.1993 35.0959 74.1833 35.2414 74.1893 35.2484C74.1853 35.2444 74.1933 35.2554 74.1893 35.2484C74.2173 35.2864 76.9318 39.0123 81.8818 39.4053C82.4318 39.4473 82.9433 39.7809 82.9003 40.3319C82.8603 40.8549 82.4608 41.2549 81.9438 41.2549C81.9238 41.2549 81.8938 41.2549 81.8638 41.2529C77.2138 40.8829 74.2738 38.1179 73.1638 36.8709L72.0338 37.2939C71.9938 37.3139 71.9538 37.3339 71.9138 37.3439C65.6038 39.7039 61.4926 45.2874 61.4926 51.5374C61.4926 54.1474 62.1927 56.7374 63.5827 59.0174C63.7327 59.2674 63.804 59.5439 63.724 59.8139C63.644 60.0939 63.3881 60.3139 63.1281 60.4339C55.3881 63.9039 50.31 71.5745 50.31 79.7745C50.31 91.4845 60.2592 101.13 72.3292 101.13C80.2992 101.13 89.2063 99.5839 98.5763 96.5539C99.3163 96.2339 108.222 92.348 120.962 92.918C121.512 92.948 121.791 93.1953 121.771 93.7553C121.751 94.3153 121.332 94.7263 120.762 94.6763C111.992 94.2863 105.109 96.3145 101.649 97.4545C108.109 99.8245 117.363 101.05 129.173 101.05C139.853 101.05 148.527 92.2295 148.527 81.5395C148.527 76.5495 146.422 71.6802 142.962 68.0802C142.172 69.9402 140.442 73.0083 137.232 74.9983C137.072 75.0983 137.004 75.1164 136.824 75.1164C136.494 75.1164 136.164 74.9783 135.974 74.6783C135.684 74.2083 135.873 73.772 136.343 73.482C140.333 71.022 141.693 66.412 141.763 66.192C142.763 61.842 142.314 57.3539 140.504 53.0039C139.484 50.5439 138.004 48.3239 136.134 46.4039C135.764 46.0139 135.764 45.4039 136.134 45.0219C135.224 44.1719 134.244 43.4019 133.214 42.7119C132.784 43.8719 130.814 48.0519 124.534 49.4219C124.464 49.4349 124.394 49.4419 124.324 49.4419C123.864 49.4419 123.454 49.1219 123.354 48.6559C123.234 48.1159 123.617 47.6489 124.157 47.5359C130.047 46.2559 131.357 42.1959 131.437 41.9459C132.293 38.7259 131.972 35.3759 130.548 32.1209C128.508 27.4709 124.101 24.0045 118.801 22.8745C117.941 24.1445 115.661 26.8245 111.011 27.8945C110.941 27.9145 110.928 27.9959 110.858 27.9959C110.401 27.9959 109.988 27.6779 109.882 27.2159C109.756 26.6759 110.159 26.2223 110.699 26.0923C115.659 24.9523 117.392 21.7573 117.531 21.4823C118.211 19.9023 118.166 18.0459 117.524 16.1259C116.368 12.6559 113.584 11.9609 109.724 11.0059C105.574 9.97592 100.355 8.70592 95.9254 3.25592C92.0654 5.94992 88.259 11.5609 88.712 15.8509C88.962 18.2809 90.6405 20.0059 93.4905 20.9859C94.0105 21.1659 94.2756 21.6209 94.0956 22.1509C93.9156 22.6709 93.2746 22.7988 92.7546 22.6188C89.0946 21.3588 87.6709 19.1688 87.0959 17.1988C85.8759 17.4188 84.7728 17.8009 83.7728 18.0309C83.8958 18.5609 83.5678 19.1009 83.0328 19.2309" fill="#714033"/>
<path d="M88 17L91 21L111 27L124 24L131.5 31L133 40.5L129.5 46L125 48.5L77 39L72.5 34L71 27L74.5 22.5L81 18.5L88 17Z" fill="#905546"/>
<path d="M52 70L56 65L62.5 60L67 67L73 73L91.5 81.5H113.5L133.5 76L143.5 69.5L148.5 76L149.5 85L146.5 91L142.5 97.5L132 101.5H121L103.5 95.5L93.5 98.5L80.5 101.5H67L53 93L49 80L52 70Z" fill="#905546"/>
<path d="M92.6709 21C92.5828 21.37 92.7487 21.7967 93.1593 22.2557C93.5699 22.7147 94.217 23.197 95.0638 23.675C95.9105 24.1531 96.9403 24.6176 98.0943 25.042C99.2483 25.4664 100.504 25.8424 101.79 26.1484C103.075 26.4545 104.365 26.6847 105.587 26.8259C106.808 26.9671 107.937 27.0165 108.908 26.9713C109.88 26.9261 110.675 26.7871 111.248 26.5624C111.821 26.3377 112.162 26.0316 112.25 25.6616L102.46 23.3308L92.6709 21Z" fill="#714033"/>
<path d="M82.5647 40C82.4906 40.3731 82.9542 40.8492 83.9293 41.4014C84.9043 41.9535 86.3716 42.5707 88.2475 43.2179C90.1233 43.865 92.3709 44.5293 94.8619 45.1729C97.3529 45.8165 100.039 46.4268 102.765 46.9689C105.492 47.511 108.207 47.9743 110.755 48.3324C113.303 48.6904 115.634 48.9363 117.614 49.0558C119.595 49.1753 121.187 49.1662 122.299 49.029C123.411 48.8918 124.022 48.6291 124.096 48.2561L103.33 44.128L82.5647 40Z" fill="#905546"/>
<path d="M63.1314 59.4655C62.6842 60.1434 62.6631 61.0929 63.0693 62.2597C63.4755 63.4266 64.301 64.7878 65.4987 66.2659C66.6964 67.7439 68.2429 69.3097 70.0498 70.8739C71.8567 72.4382 73.8887 73.9701 76.0297 75.3824C78.1707 76.7947 80.3789 78.0596 82.5281 79.105C84.6773 80.1503 86.7254 80.9556 88.5556 81.4748C90.3857 81.9941 91.962 82.2171 93.1945 82.1312C94.427 82.0453 95.2916 81.6521 95.7388 80.9742L79.4351 70.2198L63.1314 59.4655Z" fill="#714033"/>
<path d="M85.1585 79C85.1376 79.4791 85.5669 79.973 86.4218 80.4535C87.2767 80.934 88.5404 81.3918 90.1407 81.8007C91.7411 82.2096 93.6469 82.5616 95.7491 82.8365C97.8514 83.1115 100.109 83.3041 102.393 83.4033C104.677 83.5025 106.943 83.5064 109.061 83.4147C111.179 83.323 113.108 83.1376 114.738 82.869C116.368 82.6004 117.667 82.2539 118.56 81.8493C119.453 81.4447 119.924 80.9898 119.945 80.5108L102.552 79.7554L85.1585 79Z" fill="#714033"/>
<path d="M80.3999 76C80.3474 76.3354 80.6994 76.7309 81.4357 77.1637C82.1721 77.5965 83.2785 78.0582 84.6916 78.5225C86.1048 78.9868 87.7971 79.4445 89.6719 79.8696C91.5467 80.2946 93.5673 80.6787 95.6183 80.9998C97.6693 81.321 99.7106 81.5729 101.626 81.7412C103.541 81.9095 105.292 81.991 106.779 81.9808C108.267 81.9707 109.461 81.8692 110.295 81.6822C111.128 81.4952 111.584 81.2263 111.637 80.8908L96.0182 78.4454L80.3999 76Z" fill="#714033"/>
<path fill-rule="evenodd" clip-rule="evenodd" d="M198 94.104H192C191.448 94.104 191 94.551 191 95.104C191 95.657 191.448 96.104 192 96.104H198C198.552 96.104 199 95.657 199 95.104C199 94.551 198.552 94.104 198 94.104Z" fill="#202225"/>
<mask id="mask0" mask-type="alpha" maskUnits="userSpaceOnUse" x="0" y="17" width="187" height="87">
<path d="M0 103.002V17.342H186.092V103.002H0Z" fill="white"/>
</mask>
<g mask="url(#mask0)">
<path fill-rule="evenodd" clip-rule="evenodd" d="M185.092 94.104H155.712C151.818 94.104 148.967 90.454 149.894 86.671C150.29 85.051 150.5 83.361 150.5 81.631C150.5 76.491 148.627 71.541 145.288 67.671C144.388 66.631 143.958 65.281 144.1 63.921C144.5 60.051 143.898 56.091 142.32 52.311C141.196 49.611 139.584 47.181 137.53 45.081C137.144 44.681 136.51 44.671 136.116 45.061C136.106 45.071 136.104 45.081 136.096 45.091C135.726 45.471 135.723 46.081 136.1 46.471C137.976 48.391 139.448 50.611 140.475 53.071C142.288 57.421 142.699 61.821 141.699 66.181C141.629 66.391 140.269 71.011 136.279 73.471C135.809 73.761 135.659 74.371 135.949 74.841C136.139 75.151 136.459 75.311 136.799 75.311C136.979 75.311 137.159 75.261 137.319 75.161C138.429 74.471 139.369 73.651 140.149 72.791C142.109 70.621 145.629 71.131 146.819 73.811C147.899 76.241 148.479 78.891 148.479 81.601C148.479 92.281 139.789 100.971 129.109 100.971C125.569 100.971 122.259 100.861 119.189 100.641C115.419 100.381 115.619 94.731 119.399 94.801C119.879 94.811 120.359 94.821 120.849 94.851C121.409 94.901 121.869 94.451 121.889 93.891C121.909 93.341 121.489 92.871 120.939 92.841C108.199 92.261 99.239 96.071 98.499 96.391C89.159 99.451 80.369 100.991 72.399 100.991C60.319 100.991 50.499 91.471 50.499 79.761C50.499 71.561 55.489 64.031 63.229 60.561C63.489 60.441 63.689 60.221 63.769 59.941C63.849 59.661 63.809 59.361 63.659 59.121C62.259 56.841 61.529 54.251 61.529 51.641C61.529 51.321 61.539 51.011 61.559 50.711C62.079 42.721 70.409 37.801 77.959 40.471C79.229 40.921 80.569 41.271 81.869 41.371H81.949C82.469 41.371 82.899 40.971 82.949 40.451C82.999 39.901 82.589 39.411 82.039 39.371C77.089 38.981 74.339 35.251 74.309 35.211C74.309 35.201 74.299 35.201 74.299 35.201C74.299 35.191 74.289 35.181 74.279 35.171C72.919 33.471 72.199 31.471 72.199 29.371C72.199 25.551 74.489 22.161 78.029 20.731L78.099 20.701C78.489 20.551 80.229 19.951 83.059 19.261C83.599 19.131 83.929 18.591 83.799 18.061C83.669 17.531 83.129 17.201 82.599 17.331C79.239 18.141 77.389 18.841 77.309 18.871C77.269 18.881 77.239 18.901 77.199 18.921C72.959 20.691 70.219 24.781 70.219 29.381C70.219 31.491 70.819 33.521 71.949 35.321L71.249 35.581C71.209 35.591 71.169 35.611 71.129 35.631C64.099 38.311 59.559 44.581 59.559 51.631C59.559 53.111 59.769 54.581 60.179 56.011C60.719 57.901 59.969 59.901 58.369 61.041C52.279 65.361 48.529 72.301 48.529 79.741C48.529 82.061 48.879 84.291 49.529 86.401C50.709 90.221 47.729 94.061 43.729 94.061H1C0.448 94.061 0 94.511 0 95.061C0 95.613 0.448 96.061 1 96.061H53.866C54.816 96.061 55.739 96.391 56.454 97.021C60.687 100.752 66.278 103.002 72.4 103.002C80.484 103.002 89.368 101.47 98.813 98.448C105.65 101.512 115.573 103.002 129.13 103.002C134.784 103.002 139.916 100.782 143.74 97.184C144.477 96.49 145.45 96.104 146.464 96.104H185.092C185.644 96.104 186.092 95.657 186.092 95.104C186.092 94.551 185.644 94.104 185.092 94.104" fill="#202225"/>
</g>
<path d="M105 81.0969C105.115 81.5998 105.63 82.0059 106.513 82.2922C107.396 82.5785 108.632 82.7393 110.149 82.7654C111.665 82.7915 113.434 82.6824 115.354 82.4443C117.273 82.2063 119.305 81.8439 121.335 81.3779C123.365 80.9119 125.352 80.3514 127.183 79.7285C129.014 79.1055 130.653 78.4323 132.007 77.7471C133.36 77.062 134.402 76.3785 135.072 75.7356C135.742 75.0926 136.028 74.5029 135.912 74L120.456 77.5484L105 81.0969Z" fill="#714033"/>
<mask id="mask1" mask-type="alpha" maskUnits="userSpaceOnUse" x="86" y="1" width="48" height="49">
<path d="M86.8 1H133.82V49.524H86.8V1Z" fill="white"/>
</mask>
<g mask="url(#mask1)">
<path fill-rule="evenodd" clip-rule="evenodd" d="M87.123 17.436C87.7 19.413 89.215 21.598 92.871 22.856C93.401 23.033 93.971 22.756 94.151 22.236C94.331 21.712 94.051 21.143 93.531 20.964C90.681 19.984 89.101 18.256 88.851 15.832C88.551 12.909 90.171 9.42897 92.461 6.65497C94.031 4.75197 96.861 4.56497 98.751 6.15697C102.461 9.28897 106.391 10.264 109.701 11.087C113.561 12.043 116.341 12.735 117.501 16.207C118.141 18.131 118.121 19.909 117.441 21.491C117.301 21.761 115.571 24.951 110.611 26.091C110.081 26.211 109.741 26.751 109.861 27.291C109.971 27.751 110.381 28.061 110.841 28.061C110.921 28.061 110.991 28.051 111.071 28.031C112.481 27.701 113.671 27.231 114.671 26.691C120.451 23.591 127.781 26.061 130.481 32.041L130.541 32.181C131.971 35.431 132.251 38.711 131.391 41.931C131.321 42.181 130.001 46.241 124.121 47.521C123.581 47.641 123.241 48.171 123.361 48.711C123.461 49.181 123.881 49.501 124.341 49.501C124.411 49.501 124.481 49.491 124.561 49.481C130.841 48.111 132.811 43.931 133.241 42.761C133.301 42.591 133.331 42.491 133.341 42.461V42.441C134.311 38.821 133.981 34.991 132.391 31.361C130.151 26.241 125.461 22.481 119.711 21.121C120.191 19.381 120.101 17.511 119.441 15.531C117.931 11.011 114.191 10.081 110.221 9.10097C105.991 8.05097 101.191 6.86097 97.071 1.35097C96.761 0.94097 96.201 0.83097 95.761 1.09097C90.96 3.97197 86.28 10.642 86.85 16.032C86.896 16.478 86.983 16.949 87.125 17.432" fill="#202225"/>
</g>
<path fill-rule="evenodd" clip-rule="evenodd" d="M132.188 74.923C131.64 74.993 131.252 75.493 131.321 76.04C131.391 76.546 131.821 76.915 132.321 76.915C132.361 76.915 132.411 76.912 132.451 76.907C133.041 76.834 133.621 76.719 134.181 76.567C134.721 76.422 135.031 75.872 134.891 75.339C134.751 74.799 134.201 74.489 133.671 74.629C133.201 74.759 132.711 74.849 132.211 74.909L132.188 74.923ZM77.17 57.4C74.29 57.4 71.953 59.736 71.953 62.618C71.953 65.498 74.289 67.835 77.17 67.835C80.05 67.835 82.387 65.499 82.387 62.618C82.387 59.736 80.051 57.4 77.17 57.4V57.4ZM118.913 62.618C118.913 65.498 121.249 67.835 124.131 67.835C127.013 67.835 129.351 65.499 129.351 62.618C129.351 59.736 127.021 57.4 124.141 57.4C121.261 57.4 118.931 59.736 118.931 62.618H118.913ZM92.83 75.14C92.39 75.474 92.304 76.102 92.637 76.542C92.832 76.802 93.132 76.939 93.434 76.939C93.644 76.939 93.854 76.869 94.037 76.729C97.747 73.919 102.947 73.899 106.682 76.679L106.759 76.729C107.199 77.049 107.789 76.929 108.119 76.489C108.449 76.049 108.319 75.389 107.869 75.059C103.429 71.759 97.249 71.779 92.829 75.119L92.83 75.14ZM161.159 50.359H161.669C162.219 50.359 162.669 50.799 162.669 51.359V51.869C162.669 52.419 163.119 52.869 163.669 52.869C164.219 52.869 164.669 52.419 164.669 51.869V51.359C164.669 50.799 165.119 50.359 165.669 50.359H166.179C166.729 50.359 167.179 49.909 167.179 49.359C167.179 48.799 166.729 48.359 166.179 48.359H165.669C165.119 48.359 164.669 47.909 164.669 47.359V46.849C164.669 46.299 164.219 45.849 163.669 45.849C163.119 45.849 162.669 46.299 162.669 46.849V47.359C162.669 47.909 162.219 48.359 161.669 48.359H161.159C160.609 48.359 160.159 48.799 160.159 49.359C160.159 49.909 160.609 50.359 161.159 50.359ZM21.69 43.75C22.524 43.75 23.2 44.426 23.2 45.26C23.2 45.813 23.648 46.26 24.2 46.26C24.753 46.26 25.2 45.813 25.2 45.26C25.2 44.426 25.876 43.75 26.71 43.75C27.263 43.75 27.71 43.303 27.71 42.75C27.71 42.197 27.263 41.75 26.71 41.75C25.876 41.75 25.2 41.074 25.2 40.24C25.2 39.688 24.753 39.24 24.2 39.24C23.648 39.24 23.2 39.688 23.2 40.24C23.2 41.074 22.524 41.75 21.69 41.75C21.138 41.75 20.69 42.197 20.69 42.75C20.69 43.303 21.138 43.75 21.69 43.75ZM157.3 18.52C157.556 18.52 157.812 18.42 158.007 18.226L159.191 17.042C159.581 16.652 159.581 16.019 159.191 15.628C158.801 15.238 158.171 15.238 157.781 15.628L156.601 16.812C156.211 17.202 156.211 17.835 156.601 18.226C156.801 18.421 157.051 18.519 157.311 18.519L157.3 18.52ZM151.401 24.429C151.661 24.429 151.911 24.329 152.111 24.129L153.301 22.939C153.691 22.549 153.691 21.909 153.301 21.519C152.911 21.129 152.281 21.129 151.891 21.519L150.711 22.699C150.321 23.089 150.321 23.719 150.711 24.109C150.911 24.299 151.161 24.399 151.421 24.399L151.401 24.429ZM157.811 24.099C158.011 24.289 158.261 24.389 158.521 24.389C158.781 24.389 159.031 24.289 159.231 24.089C159.621 23.699 159.621 23.069 159.231 22.679L158.051 21.489C157.661 21.099 157.031 21.099 156.641 21.489C156.251 21.879 156.251 22.519 156.641 22.909L157.831 24.089L157.811 24.099ZM151.901 18.179C152.101 18.379 152.351 18.469 152.611 18.469C152.871 18.469 153.121 18.369 153.321 18.169C153.711 17.779 153.711 17.149 153.321 16.749L152.141 15.559C151.751 15.169 151.121 15.169 150.731 15.559C150.341 15.949 150.341 16.582 150.731 16.972L151.921 18.152L151.901 18.179ZM45.6 20.84C46.43 20.84 47.11 21.52 47.11 22.35C47.11 23.187 46.43 23.86 45.6 23.86C44.768 23.86 44.09 23.187 44.09 22.35C44.09 21.52 44.768 20.84 45.6 20.84ZM45.6 25.86C47.537 25.86 49.11 24.29 49.11 22.35C49.11 20.418 47.537 18.84 45.6 18.84C43.666 18.84 42.09 20.418 42.09 22.35C42.09 24.29 43.666 25.86 45.6 25.86Z" fill="#202225"/>
</svg>
