<svg width="200" height="104" viewBox="0 0 200 104" fill="none" xmlns="http://www.w3.org/2000/svg">
<path fill-rule="evenodd" clip-rule="evenodd" d="M92.8139 75.2269C97.2279 71.8899 103.411 71.8669 107.851 75.1669C108.301 75.4969 108.414 75.906 108.084 76.348C107.754 76.793 107.174 76.914 106.724 76.588L106.654 76.532C102.924 73.752 97.7239 73.772 94.0139 76.572C93.8339 76.702 93.6239 76.772 93.4139 76.772C93.1139 76.772 92.9215 76.7516 92.7215 76.4916C92.3915 76.0516 92.4815 75.4216 92.9215 75.0916L92.8139 75.2269ZM77.1429 57.5113C80.0249 57.5113 82.3609 59.8463 82.3609 62.7283C82.3609 65.6083 80.0249 67.675 77.1439 67.675C74.2639 67.675 72.0156 65.5375 72.0156 62.6575C72.0156 59.7745 74.3556 57.4375 77.2356 57.4375L77.1429 57.5113ZM124.009 57.4707C126.889 57.4707 129.159 59.7261 129.159 62.6091C129.159 65.4891 126.934 67.5923 124.054 67.5923C121.174 67.5923 118.952 65.6018 118.952 62.7218C118.952 59.8418 121.292 57.5018 124.172 57.5018L124.009 57.4707ZM132.233 74.9584C132.723 74.8984 133.19 74.8452 133.67 74.7252C134.21 74.5852 134.607 74.7202 134.747 75.2602C134.897 75.7902 134.601 76.2456 134.071 76.3956C133.511 76.5456 133.034 76.6562 132.454 76.7262C132.414 76.7362 132.374 76.7441 132.334 76.7441C131.844 76.7441 131.466 76.4991 131.406 75.9991C131.336 75.4591 131.726 74.999 132.276 74.929L132.233 74.9584ZM83.0329 19.163C80.1969 19.845 78.4629 20.453 78.0699 20.593L78.0069 20.623C74.4669 22.053 72.1093 25.475 72.1093 29.289C72.1093 31.385 72.8293 33.389 74.1893 35.086C74.1993 35.096 74.1833 35.2414 74.1893 35.2484C74.1853 35.2444 74.1933 35.2554 74.1893 35.2484C74.2173 35.2864 76.9318 39.0124 81.8818 39.4054C82.4318 39.4474 82.9434 39.7809 82.9004 40.3319C82.8604 40.8549 82.4609 41.255 81.9439 41.255C81.9239 41.255 81.8939 41.255 81.8639 41.253C77.2139 40.883 74.2739 38.118 73.1639 36.871L72.0339 37.294C71.9939 37.314 71.9539 37.334 71.9139 37.344C65.6039 39.704 61.4927 45.2874 61.4927 51.5374C61.4927 54.1474 62.1928 56.7374 63.5828 59.0174C63.7328 59.2674 63.8041 59.544 63.7241 59.814C63.6441 60.094 63.3882 60.314 63.1282 60.434C55.3882 63.904 50.3101 71.5746 50.3101 79.7746C50.3101 91.4846 60.2592 101.13 72.3292 101.13C80.2992 101.13 89.2064 99.584 98.5764 96.554C99.3164 96.234 108.222 92.348 120.962 92.918C121.512 92.948 121.791 93.1954 121.771 93.7554C121.751 94.3154 121.332 94.7263 120.762 94.6763C111.992 94.2863 105.11 96.3146 101.65 97.4546C108.11 99.8246 117.363 101.05 129.173 101.05C139.853 101.05 148.527 92.2296 148.527 81.5396C148.527 76.5496 146.422 71.6802 142.962 68.0802C142.172 69.9402 140.442 73.0084 137.232 74.9984C137.072 75.0984 137.004 75.1165 136.824 75.1165C136.494 75.1165 136.164 74.9784 135.974 74.6784C135.684 74.2084 135.873 73.7721 136.343 73.4821C140.333 71.0221 141.693 66.4121 141.763 66.1921C142.763 61.8421 142.314 57.354 140.504 53.004C139.484 50.544 138.004 48.324 136.134 46.404C135.764 46.014 135.764 45.404 136.134 45.022C135.224 44.172 134.244 43.402 133.214 42.712C132.784 43.872 130.814 48.052 124.534 49.422C124.464 49.435 124.394 49.442 124.324 49.442C123.864 49.442 123.454 49.122 123.354 48.656C123.234 48.116 123.617 47.649 124.157 47.536C130.047 46.256 131.357 42.196 131.437 41.946C132.293 38.726 131.972 35.376 130.548 32.121C128.508 27.471 124.101 24.0046 118.801 22.8746C117.941 24.1446 115.661 26.8246 111.011 27.8946C110.941 27.9146 110.928 27.996 110.858 27.996C110.401 27.996 109.988 27.678 109.882 27.216C109.756 26.676 110.159 26.2224 110.699 26.0924C115.659 24.9524 117.392 21.7574 117.531 21.4824C118.211 19.9024 118.166 18.046 117.524 16.126C116.368 12.656 113.584 11.961 109.724 11.006C105.574 9.97598 100.355 8.70598 95.9255 3.25598C92.0655 5.94998 88.2591 11.561 88.7121 15.851C88.9621 18.281 90.6405 20.006 93.4905 20.986C94.0105 21.166 94.2756 21.621 94.0956 22.151C93.9156 22.671 93.2747 22.7989 92.7547 22.6189C89.0947 21.3589 87.6709 19.1689 87.0959 17.1989C85.8759 17.4189 84.7729 17.801 83.7729 18.031C83.8959 18.561 83.5679 19.101 83.0329 19.231" fill="#905546"/>
<path fill-rule="evenodd" clip-rule="evenodd" d="M198 94.104H192C191.448 94.104 191 94.551 191 95.104C191 95.657 191.448 96.104 192 96.104H198C198.552 96.104 199 95.657 199 95.104C199 94.551 198.552 94.104 198 94.104Z" fill="#202225"/>
<mask id="mask0" mask-type="alpha" maskUnits="userSpaceOnUse" x="0" y="17" width="187" height="87">
<path d="M0 103.002V17.342H186.092V103.002H0Z" fill="white"/>
</mask>
<g mask="url(#mask0)">
<path fill-rule="evenodd" clip-rule="evenodd" d="M185.092 94.1041H155.712C151.818 94.1041 148.967 90.4541 149.894 86.6711C150.29 85.0511 150.5 83.3611 150.5 81.6311C150.5 76.4911 148.627 71.5411 145.288 67.6711C144.388 66.6311 143.958 65.2811 144.1 63.9211C144.5 60.0511 143.898 56.0911 142.32 52.3111C141.196 49.6111 139.584 47.1811 137.53 45.0811C137.144 44.6811 136.51 44.6711 136.116 45.0611C136.106 45.0711 136.104 45.0811 136.096 45.0911C135.726 45.4711 135.723 46.0811 136.1 46.4711C137.976 48.3911 139.448 50.6111 140.475 53.0711C142.288 57.4211 142.699 61.8211 141.699 66.1811C141.629 66.3911 140.269 71.0111 136.279 73.4711C135.809 73.7611 135.659 74.3711 135.949 74.8411C136.139 75.1511 136.459 75.3111 136.799 75.3111C136.979 75.3111 137.159 75.2611 137.319 75.1611C138.429 74.4711 139.369 73.6511 140.149 72.7911C142.109 70.6211 145.629 71.1311 146.819 73.8111C147.899 76.2411 148.479 78.8911 148.479 81.6011C148.479 92.2811 139.789 100.971 129.109 100.971C125.569 100.971 122.259 100.861 119.189 100.641C115.419 100.381 115.619 94.7311 119.399 94.8011C119.879 94.8111 120.359 94.8211 120.849 94.8511C121.409 94.9011 121.869 94.4511 121.889 93.8911C121.909 93.3411 121.489 92.8711 120.939 92.8411C108.199 92.2611 99.239 96.0711 98.499 96.3911C89.159 99.4511 80.369 100.991 72.399 100.991C60.319 100.991 50.499 91.4711 50.499 79.7611C50.499 71.5611 55.489 64.0311 63.229 60.5611C63.489 60.4411 63.689 60.2211 63.769 59.9411C63.849 59.6611 63.809 59.3611 63.659 59.1211C62.259 56.8411 61.529 54.2511 61.529 51.6411C61.529 51.3211 61.539 51.0111 61.559 50.7111C62.079 42.7211 70.409 37.8011 77.959 40.4711C79.229 40.9211 80.569 41.2711 81.869 41.3711H81.949C82.469 41.3711 82.899 40.9711 82.949 40.4511C82.999 39.9011 82.589 39.4111 82.039 39.3711C77.089 38.9811 74.339 35.2511 74.309 35.2111C74.309 35.2011 74.299 35.2011 74.299 35.2011C74.299 35.1911 74.289 35.1811 74.279 35.1711C72.919 33.4711 72.199 31.4711 72.199 29.3711C72.199 25.5511 74.489 22.1611 78.029 20.7311L78.099 20.7011C78.489 20.5511 80.229 19.9511 83.059 19.2611C83.599 19.1311 83.929 18.5911 83.799 18.0611C83.669 17.5311 83.129 17.2011 82.599 17.3311C79.239 18.1411 77.389 18.8411 77.309 18.8711C77.269 18.8811 77.239 18.9011 77.199 18.9211C72.959 20.6911 70.219 24.7811 70.219 29.3811C70.219 31.4911 70.819 33.5211 71.949 35.3211L71.249 35.5811C71.209 35.5911 71.169 35.6111 71.129 35.6311C64.099 38.3111 59.559 44.5811 59.559 51.6311C59.559 53.1111 59.769 54.5811 60.179 56.0111C60.719 57.9011 59.969 59.9011 58.369 61.0411C52.279 65.3611 48.529 72.3011 48.529 79.7411C48.529 82.0611 48.879 84.2911 49.529 86.4011C50.709 90.2211 47.729 94.0611 43.729 94.0611H1C0.448 94.0611 0 94.5111 0 95.0611C0 95.6131 0.448 96.0611 1 96.0611H53.866C54.816 96.0611 55.739 96.3911 56.454 97.0211C60.687 100.752 66.278 103.002 72.4 103.002C80.484 103.002 89.368 101.47 98.813 98.4481C105.65 101.512 115.573 103.002 129.13 103.002C134.784 103.002 139.916 100.782 143.74 97.1841C144.477 96.4901 145.45 96.1041 146.464 96.1041H185.092C185.644 96.1041 186.092 95.6571 186.092 95.1041C186.092 94.5511 185.644 94.1041 185.092 94.1041Z" fill="#202225"/>
</g>
<mask id="mask1" mask-type="alpha" maskUnits="userSpaceOnUse" x="86" y="1" width="48" height="49">
<path d="M86.8 1H133.82V49.524H86.8V1Z" fill="white"/>
</mask>
<g mask="url(#mask1)">
<path fill-rule="evenodd" clip-rule="evenodd" d="M87.123 17.436C87.7 19.413 89.215 21.598 92.871 22.856C93.401 23.033 93.971 22.756 94.151 22.236C94.331 21.712 94.051 21.143 93.531 20.964C90.681 19.984 89.101 18.256 88.851 15.832C88.551 12.909 90.171 9.42903 92.461 6.65503C94.031 4.75203 96.861 4.56503 98.751 6.15703C102.461 9.28903 106.391 10.264 109.701 11.087C113.561 12.043 116.341 12.735 117.501 16.207C118.141 18.131 118.121 19.909 117.441 21.491C117.301 21.761 115.571 24.951 110.611 26.091C110.081 26.211 109.741 26.751 109.861 27.291C109.971 27.751 110.381 28.061 110.841 28.061C110.921 28.061 110.991 28.051 111.071 28.031C112.481 27.701 113.671 27.231 114.671 26.691C120.451 23.591 127.781 26.061 130.481 32.041L130.541 32.181C131.971 35.431 132.251 38.711 131.391 41.931C131.321 42.181 130.001 46.241 124.121 47.521C123.581 47.641 123.241 48.171 123.361 48.711C123.461 49.181 123.881 49.501 124.341 49.501C124.411 49.501 124.481 49.491 124.561 49.481C130.841 48.111 132.811 43.931 133.241 42.761C133.301 42.591 133.331 42.491 133.341 42.461V42.441C134.311 38.821 133.981 34.991 132.391 31.361C130.151 26.241 125.461 22.481 119.711 21.121C120.191 19.381 120.101 17.511 119.441 15.531C117.931 11.011 114.191 10.081 110.221 9.10103C105.991 8.05103 101.191 6.86103 97.071 1.35103C96.761 0.941031 96.201 0.831031 95.761 1.09103C90.96 3.97203 86.28 10.642 86.85 16.032C86.896 16.478 86.983 16.949 87.125 17.432" fill="#202225"/>
</g>
<path fill-rule="evenodd" clip-rule="evenodd" d="M132.188 74.923C131.64 74.993 131.252 75.493 131.321 76.04C131.391 76.546 131.821 76.915 132.321 76.915C132.361 76.915 132.411 76.912 132.451 76.907C133.041 76.834 133.621 76.719 134.181 76.567C134.721 76.422 135.031 75.872 134.891 75.339C134.751 74.799 134.201 74.489 133.671 74.629C133.201 74.759 132.711 74.849 132.211 74.909L132.188 74.923ZM77.1699 57.4C74.2899 57.4 71.9529 59.736 71.9529 62.618C71.9529 65.498 74.2889 67.835 77.1699 67.835C80.0499 67.835 82.3869 65.499 82.3869 62.618C82.3869 59.736 80.0509 57.4 77.1699 57.4ZM118.913 62.618C118.913 65.498 121.249 67.835 124.131 67.835C127.013 67.835 129.351 65.499 129.351 62.618C129.351 59.736 127.021 57.4 124.141 57.4C121.261 57.4 118.931 59.736 118.931 62.618H118.913ZM92.8299 75.14C92.3899 75.474 92.3039 76.102 92.6369 76.542C92.8319 76.802 93.1319 76.939 93.4339 76.939C93.6439 76.939 93.8539 76.869 94.0369 76.729C97.7469 73.919 102.947 73.899 106.682 76.679L106.759 76.729C107.199 77.049 107.789 76.929 108.119 76.489C108.449 76.049 108.319 75.389 107.869 75.059C103.429 71.759 97.2489 71.779 92.8289 75.119L92.8299 75.14ZM161.159 50.359H161.669C162.219 50.359 162.669 50.799 162.669 51.359V51.869C162.669 52.419 163.119 52.869 163.669 52.869C164.219 52.869 164.669 52.419 164.669 51.869V51.359C164.669 50.799 165.119 50.359 165.669 50.359H166.179C166.729 50.359 167.179 49.909 167.179 49.359C167.179 48.799 166.729 48.359 166.179 48.359H165.669C165.119 48.359 164.669 47.909 164.669 47.359V46.849C164.669 46.299 164.219 45.849 163.669 45.849C163.119 45.849 162.669 46.299 162.669 46.849V47.359C162.669 47.909 162.219 48.359 161.669 48.359H161.159C160.609 48.359 160.159 48.799 160.159 49.359C160.159 49.909 160.609 50.359 161.159 50.359ZM21.6899 43.75C22.5239 43.75 23.1999 44.426 23.1999 45.26C23.1999 45.813 23.6479 46.26 24.1999 46.26C24.7529 46.26 25.1999 45.813 25.1999 45.26C25.1999 44.426 25.8759 43.75 26.7099 43.75C27.2629 43.75 27.7099 43.303 27.7099 42.75C27.7099 42.197 27.2629 41.75 26.7099 41.75C25.8759 41.75 25.1999 41.074 25.1999 40.24C25.1999 39.688 24.7529 39.24 24.1999 39.24C23.6479 39.24 23.1999 39.688 23.1999 40.24C23.1999 41.074 22.5239 41.75 21.6899 41.75C21.1379 41.75 20.6899 42.197 20.6899 42.75C20.6899 43.303 21.1379 43.75 21.6899 43.75ZM157.3 18.52C157.556 18.52 157.812 18.42 158.007 18.226L159.191 17.042C159.581 16.652 159.581 16.019 159.191 15.628C158.801 15.238 158.171 15.238 157.781 15.628L156.601 16.812C156.211 17.202 156.211 17.835 156.601 18.226C156.801 18.421 157.051 18.519 157.311 18.519L157.3 18.52ZM151.401 24.429C151.661 24.429 151.911 24.329 152.111 24.129L153.301 22.939C153.691 22.549 153.691 21.909 153.301 21.519C152.911 21.129 152.281 21.129 151.891 21.519L150.711 22.699C150.321 23.089 150.321 23.719 150.711 24.109C150.911 24.299 151.161 24.399 151.421 24.399L151.401 24.429ZM157.811 24.099C158.011 24.289 158.261 24.389 158.521 24.389C158.781 24.389 159.031 24.289 159.231 24.089C159.621 23.699 159.621 23.069 159.231 22.679L158.051 21.489C157.661 21.099 157.031 21.099 156.641 21.489C156.251 21.879 156.251 22.519 156.641 22.909L157.831 24.089L157.811 24.099ZM151.901 18.179C152.101 18.379 152.351 18.469 152.611 18.469C152.871 18.469 153.121 18.369 153.321 18.169C153.711 17.779 153.711 17.149 153.321 16.749L152.141 15.559C151.751 15.169 151.121 15.169 150.731 15.559C150.341 15.949 150.341 16.582 150.731 16.972L151.921 18.152L151.901 18.179ZM45.5999 20.84C46.4299 20.84 47.1099 21.52 47.1099 22.35C47.1099 23.187 46.4299 23.86 45.5999 23.86C44.7679 23.86 44.0899 23.187 44.0899 22.35C44.0899 21.52 44.7679 20.84 45.5999 20.84ZM45.5999 25.86C47.5369 25.86 49.1099 24.29 49.1099 22.35C49.1099 20.418 47.5369 18.84 45.5999 18.84C43.6659 18.84 42.0899 20.418 42.0899 22.35C42.0899 24.29 43.6659 25.86 45.5999 25.86Z" fill="#202225"/>
</svg>
