<svg width="320" height="280" viewBox="0 0 320 280" fill="none" xmlns="http://www.w3.org/2000/svg">
<path fill-rule="evenodd" clip-rule="evenodd" d="M112.884 250.836C112.884 261.516 104.226 270.174 93.5459 270.174C82.8659 270.174 74.2079 261.516 74.2079 250.836C74.2079 240.156 82.8659 231.498 93.5459 231.498C104.226 231.498 112.884 240.156 112.884 250.836Z" fill="#2F3136"/>
<path fill-rule="evenodd" clip-rule="evenodd" d="M112.884 250.836C112.884 261.516 104.226 270.174 93.5459 270.174C82.8659 270.174 74.2079 261.516 74.2079 250.836C74.2079 240.156 82.8659 231.498 93.5459 231.498C104.226 231.498 112.884 240.156 112.884 250.836Z" fill="#2F3136"/>
<path fill-rule="evenodd" clip-rule="evenodd" d="M112.884 250.836C112.884 261.516 104.226 270.174 93.5459 270.174C82.8659 270.174 74.2079 261.516 74.2079 250.836C74.2079 240.156 82.8659 231.498 93.5459 231.498C104.226 231.498 112.884 240.156 112.884 250.836Z" fill="#FCC22F"/>
<path fill-rule="evenodd" clip-rule="evenodd" d="M112.884 250.836C112.884 261.516 104.226 270.174 93.5459 270.174C82.8659 270.174 74.2079 261.516 74.2079 250.836C74.2079 240.156 82.8659 231.498 93.5459 231.498C104.226 231.498 112.884 240.156 112.884 250.836V250.836Z" stroke="#1E2126" stroke-width="2" stroke-linecap="round" stroke-linejoin="round"/>
<path fill-rule="evenodd" clip-rule="evenodd" d="M104.973 250.836C104.973 257.147 99.857 262.263 93.546 262.263C87.235 262.263 82.119 257.147 82.119 250.836C82.119 244.525 87.235 239.409 93.546 239.409C99.857 239.409 104.973 244.525 104.973 250.836V250.836Z" stroke="#1E2126" stroke-width="2" stroke-linecap="round" stroke-linejoin="round"/>
<path fill-rule="evenodd" clip-rule="evenodd" d="M126.948 234.135C126.948 244.815 118.29 253.473 107.61 253.473C96.9299 253.473 88.2719 244.815 88.2719 234.135C88.2719 223.455 96.9299 214.797 107.61 214.797C118.29 214.797 126.948 223.455 126.948 234.135Z" fill="#2F3136"/>
<path fill-rule="evenodd" clip-rule="evenodd" d="M126.948 234.135C126.948 244.815 118.29 253.473 107.61 253.473C96.9299 253.473 88.2719 244.815 88.2719 234.135C88.2719 223.455 96.9299 214.797 107.61 214.797C118.29 214.797 126.948 223.455 126.948 234.135Z" fill="#2F3136"/>
<path fill-rule="evenodd" clip-rule="evenodd" d="M126.948 234.135C126.948 244.815 118.29 253.473 107.61 253.473C96.9299 253.473 88.2719 244.815 88.2719 234.135C88.2719 223.455 96.9299 214.797 107.61 214.797C118.29 214.797 126.948 223.455 126.948 234.135Z" fill="#FCC22F"/>
<path fill-rule="evenodd" clip-rule="evenodd" d="M126.948 234.135C126.948 244.815 118.29 253.473 107.61 253.473C96.9299 253.473 88.2719 244.815 88.2719 234.135C88.2719 223.455 96.9299 214.797 107.61 214.797C118.29 214.797 126.948 223.455 126.948 234.135Z" stroke="#1E2126" stroke-width="2" stroke-linecap="round" stroke-linejoin="round"/>
<path d="M107.61 245.562C101.299 245.562 96.183 240.446 96.183 234.135C96.183 227.824 101.299 222.708 107.61 222.708C113.921 222.708 119.037 227.824 119.037 234.135C119.037 236.862 118.082 239.366 116.487 241.331" stroke="#1E2126" stroke-width="2" stroke-linecap="round" stroke-linejoin="round"/>
<path fill-rule="evenodd" clip-rule="evenodd" d="M115.521 220.95C115.521 231.63 106.863 240.288 96.1829 240.288C85.5029 240.288 76.8449 231.63 76.8449 220.95C76.8449 210.27 85.5029 201.612 96.1829 201.612C106.863 201.612 115.521 210.27 115.521 220.95Z" fill="#2F3136"/>
<path fill-rule="evenodd" clip-rule="evenodd" d="M115.521 220.95C115.521 231.63 106.863 240.288 96.1829 240.288C85.5029 240.288 76.8449 231.63 76.8449 220.95C76.8449 210.27 85.5029 201.612 96.1829 201.612C106.863 201.612 115.521 210.27 115.521 220.95Z" fill="#2F3136"/>
<path fill-rule="evenodd" clip-rule="evenodd" d="M115.521 220.95C115.521 231.63 106.863 240.288 96.1829 240.288C85.5029 240.288 76.8449 231.63 76.8449 220.95C76.8449 210.27 85.5029 201.612 96.1829 201.612C106.863 201.612 115.521 210.27 115.521 220.95Z" fill="#FCC22F"/>
<path fill-rule="evenodd" clip-rule="evenodd" d="M115.521 220.95C115.521 231.63 106.863 240.288 96.1829 240.288C85.5029 240.288 76.8449 231.63 76.8449 220.95C76.8449 210.27 85.5029 201.612 96.1829 201.612C106.863 201.612 115.521 210.27 115.521 220.95V220.95Z" stroke="#1E2126" stroke-width="2" stroke-linecap="round" stroke-linejoin="round"/>
<path d="M96.183 209.523C102.494 209.523 107.61 214.639 107.61 220.95C107.61 227.261 102.494 232.377 96.183 232.377C89.872 232.377 84.756 227.261 84.756 220.95" stroke="#1E2126" stroke-width="2" stroke-linecap="round" stroke-linejoin="round"/>
<path fill-rule="evenodd" clip-rule="evenodd" d="M220.534 64.6911C209.896 65.6321 200.508 57.7721 199.567 47.1331C198.625 36.4951 206.486 27.1071 217.125 26.1661C227.763 25.2241 237.15 33.0851 238.092 43.7241C239.033 54.3621 231.172 63.7501 220.534 64.6911Z" fill="#2F3136"/>
<path fill-rule="evenodd" clip-rule="evenodd" d="M220.534 64.6911C209.896 65.6321 200.508 57.7721 199.567 47.1331C198.625 36.4951 206.486 27.1071 217.125 26.1661C227.763 25.2241 237.15 33.0851 238.092 43.7241C239.033 54.3621 231.172 63.7501 220.534 64.6911Z" fill="#2F3136"/>
<path fill-rule="evenodd" clip-rule="evenodd" d="M220.534 64.6911C209.896 65.6321 200.508 57.7721 199.567 47.1331C198.625 36.4951 206.486 27.1071 217.125 26.1661C227.763 25.2241 237.15 33.0851 238.092 43.7241C239.033 54.3621 231.172 63.7501 220.534 64.6911Z" fill="#FCC22F"/>
<path fill-rule="evenodd" clip-rule="evenodd" d="M220.534 64.6911C209.896 65.6321 200.508 57.7721 199.567 47.1331C198.625 36.4951 206.486 27.1071 217.125 26.1661C227.763 25.2241 237.15 33.0851 238.092 43.7241C239.033 54.3621 231.172 63.7501 220.534 64.6911V64.6911Z" stroke="#1E2126" stroke-width="2" stroke-linecap="round" stroke-linejoin="round"/>
<path d="M230.212 44.4212C230.768 50.7071 226.123 56.2541 219.837 56.8111C213.55 57.3671 208.003 52.7221 207.447 46.4361C206.891 40.1491 211.536 34.6022 217.822 34.0462" stroke="#1E2126" stroke-width="2" stroke-linecap="round" stroke-linejoin="round"/>
<path fill-rule="evenodd" clip-rule="evenodd" d="M43.5121 202.393L58.2161 208.17L50.0831 232.528L24.8141 227.959L26.8111 212.287" fill="#ADC1F4"/>
<path d="M24.8141 227.958L58.2161 208.17M43.5121 202.393L58.2161 208.17L50.0831 232.528L24.8141 227.959L26.8111 212.287L43.5121 202.393Z" stroke="#1E2126" stroke-width="2" stroke-linecap="round" stroke-linejoin="round"/>
<path d="M26.8111 212.287L50.0831 232.528L43.5121 202.393" stroke="#1E2126" stroke-width="2" stroke-linecap="round" stroke-linejoin="round"/>
<path fill-rule="evenodd" clip-rule="evenodd" d="M271.517 16.6593L275.794 29.6493L255.07 37.6913L244.15 18.3293L255.695 10.9993" fill="#ADC1F4"/>
<path fill-rule="evenodd" clip-rule="evenodd" d="M271.517 16.6593L275.794 29.6493L255.07 37.6913L244.15 18.3293L255.695 10.9993L271.517 16.6593Z" stroke="#1E2126" stroke-width="2" stroke-linecap="round" stroke-linejoin="round"/>
<path d="M244.149 18.3298L275.793 29.6488M255.695 10.9996L255.07 37.6916L271.517 16.6596L255.695 10.9996Z" stroke="#1E2126" stroke-width="2" stroke-linecap="round" stroke-linejoin="round"/>
<path fill-rule="evenodd" clip-rule="evenodd" d="M179.79 93.2502L77.619 118.305C75.165 118.907 72.689 117.406 72.087 114.953L54.294 42.3962C53.692 39.9432 55.193 37.4662 57.647 36.8642L159.818 11.8092C162.272 11.2072 164.748 12.7082 165.35 15.1622L183.143 87.7182C183.745 90.1722 182.243 92.6482 179.79 93.2502Z" fill="#363940"/>
<path d="M160.439 11.2596L152.073 33.1036M180.733 92.6216L78.562 117.677C76.108 118.279 73.632 116.778 73.03 114.325L55.237 41.7676C54.635 39.3146 56.136 36.8376 58.59 36.2356L160.761 11.1806C163.215 10.5786 165.691 12.0796 166.293 14.5336L184.086 87.0896C184.688 89.5436 183.186 92.0196 180.733 92.6216V92.6216ZM58.726 55.9952L169.782 28.7612L58.726 55.9952ZM73.8659 32.4898L65.4999 54.3338L73.8659 32.4898ZM95.5091 27.1823L87.1431 49.0263L95.5091 27.1823ZM117.152 21.8747L108.786 43.7187L117.152 21.8747ZM138.795 16.5672L130.429 38.4112L138.795 16.5672Z" stroke="#1E2126" stroke-width="2" stroke-linecap="round" stroke-linejoin="round"/>
<path fill-rule="evenodd" clip-rule="evenodd" d="M148.693 60.0614C152.679 76.3154 142.734 92.7224 126.48 96.7084C110.227 100.694 93.8189 90.7494 89.8329 74.4954C85.8469 58.2414 95.7919 41.8344 112.046 37.8484C128.3 33.8624 144.707 43.8074 148.693 60.0614Z" fill="#2F3136"/>
<path fill-rule="evenodd" clip-rule="evenodd" d="M148.693 60.0614C152.679 76.3154 142.734 92.7224 126.48 96.7084C110.227 100.694 93.8189 90.7494 89.8329 74.4954C85.8469 58.2414 95.7919 41.8344 112.046 37.8484C128.3 33.8624 144.707 43.8074 148.693 60.0614V60.0614Z" stroke="#1E2126" stroke-width="2" stroke-linecap="round" stroke-linejoin="round"/>
<path fill-rule="evenodd" clip-rule="evenodd" d="M103.695 53.8063L111.694 86.4243L138.235 62.6263L103.695 53.8063Z" stroke="#1E2126" stroke-width="2" stroke-linecap="round" stroke-linejoin="round"/>
<path fill-rule="evenodd" clip-rule="evenodd" d="M221.59 103.794L254.726 139.312L225.08 138.284C222.495 138.194 220.472 136.025 220.561 133.44L221.59 103.794Z" fill="#2F3136"/>
<path fill-rule="evenodd" clip-rule="evenodd" d="M254.726 139.313L251.532 231.372C251.442 233.957 249.273 235.98 246.688 235.891L153.069 232.642C150.484 232.552 148.461 230.384 148.55 227.798L152.774 106.093C152.863 103.508 155.032 101.485 157.617 101.575L221.59 103.795" fill="#D7D9DD"/>
<path d="M254.726 139.313L251.532 231.372C251.442 233.957 249.273 235.98 246.688 235.891L153.069 232.642C150.484 232.552 148.461 230.384 148.55 227.798L152.774 106.093C152.863 103.508 155.032 101.485 157.617 101.575L221.59 103.795" stroke="#1E2126" stroke-width="2" stroke-linecap="round" stroke-linejoin="round"/>
<path fill-rule="evenodd" clip-rule="evenodd" d="M221.59 103.794L254.726 139.312L225.08 138.284C222.495 138.194 220.472 136.025 220.561 133.44L221.59 103.794V103.794Z" stroke="#1E2126" stroke-width="2" stroke-linecap="round" stroke-linejoin="round"/>
<path fill-rule="evenodd" clip-rule="evenodd" d="M224.15 86.4352L263.959 114.269L234.75 119.44C232.202 119.891 229.772 118.192 229.321 115.645L224.15 86.4352Z" fill="#2F3136"/>
<path fill-rule="evenodd" clip-rule="evenodd" d="M263.959 114.27L280.017 204.974C280.468 207.521 278.768 209.952 276.221 210.403L183.98 226.732C181.433 227.183 179.002 225.484 178.551 222.937L157.322 103.023C156.872 100.476 158.571 98.0445 161.118 97.5935L224.15 86.4355" fill="#D7D9DD"/>
<path d="M263.959 114.27L280.017 204.974C280.468 207.521 278.768 209.952 276.221 210.403L183.98 226.732C181.433 227.183 179.002 225.484 178.551 222.937L157.322 103.023C156.872 100.476 158.571 98.0445 161.118 97.5935L224.15 86.4355" stroke="#1E2126" stroke-width="2" stroke-linecap="round" stroke-linejoin="round"/>
<path fill-rule="evenodd" clip-rule="evenodd" d="M224.15 86.4352L263.959 114.269L234.75 119.44C232.202 119.891 229.772 118.192 229.321 115.645L224.15 86.4352V86.4352Z" stroke="#1E2126" stroke-width="2" stroke-linecap="round" stroke-linejoin="round"/>
<path fill-rule="evenodd" clip-rule="evenodd" d="M130.761 53.9573H248.593C251.422 53.9573 253.716 56.2513 253.716 59.0803V66.4213C253.716 67.9863 254.431 69.4663 255.659 70.4373L262.659 75.9793C263.317 76.5013 263.304 77.5043 262.632 78.0083L255.765 83.1593C254.475 84.1263 253.716 85.6453 253.716 87.2573V94.9423C253.716 97.7713 251.422 100.065 248.593 100.065H130.761C127.932 100.065 125.638 97.7713 125.638 94.9423V59.0803C125.638 56.2513 127.932 53.9573 130.761 53.9573Z" fill="#F2F4F9" fill-opacity="0.9"/>
<path d="M203.797 65.0574H141.012M130.761 53.9573H248.593C251.422 53.9573 253.716 56.2513 253.716 59.0803V66.4213C253.716 67.9863 254.431 69.4663 255.659 70.4373L262.659 75.9793C263.317 76.5013 263.304 77.5043 262.632 78.0083L255.765 83.1593C254.475 84.1263 253.716 85.6453 253.716 87.2573V94.9423C253.716 97.7713 251.422 100.065 248.593 100.065H130.761C127.932 100.065 125.638 97.7713 125.638 94.9423V59.0803C125.638 56.2513 127.932 53.9573 130.761 53.9573V53.9573ZM184.159 81.2806H141.012H184.159ZM162.585 73.169H141.012H162.585ZM232.401 73.169H169.815H232.401Z" stroke="#1E2126" stroke-width="2" stroke-linecap="round" stroke-linejoin="round"/>
<path fill-rule="evenodd" clip-rule="evenodd" d="M260.758 97.3511L286.064 138.813L257.232 131.837C254.718 131.228 253.173 128.697 253.781 126.183L260.758 97.3511Z" fill="#2F3136"/>
<path fill-rule="evenodd" clip-rule="evenodd" d="M286.064 138.814L264.4 228.345C263.792 230.859 261.26 232.404 258.746 231.795L167.698 209.764C165.184 209.156 163.639 206.624 164.247 204.11L192.888 85.7475C193.496 83.2325 196.027 81.6875 198.542 82.2965L260.758 97.3515" fill="#D7D9DD"/>
<path d="M97.8421 25.1991L76.0616 29.9118L67.1004 51.5186L88.8808 46.8059L97.8421 25.1991Z" fill="#0B0C0F"/>
<path d="M141.403 15.7736L119.623 20.4863L110.661 42.0931L132.442 37.3804L141.403 15.7736Z" fill="#0B0C0F"/>
<path d="M163.508 10.9907L163.184 11.0608L154.222 32.6677L172.044 28.8114L168.946 14.4939C168.412 12.0251 165.977 10.4565 163.508 10.9907Z" fill="#0B0C0F"/>
<path d="M119.623 20.4863L97.8421 25.1991L88.8808 46.8059L110.661 42.0931L119.623 20.4863Z" fill="#0B0C0F"/>
<path d="M78.4221 115.196L181.242 92.9481C183.711 92.4139 185.279 89.9791 184.745 87.5102L172.044 28.8114L154.222 32.6677L132.442 37.3804L110.661 42.0931L88.8808 46.8059L67.1004 51.5186L76.0616 29.9118L60.6886 33.2382C58.2197 33.7724 56.6512 36.2072 57.1854 38.6761L72.9842 111.692C73.5184 114.161 75.9532 115.73 78.4221 115.196Z" fill="#0B0C0F"/>
<path d="M163.184 11.0608L141.403 15.7736L132.442 37.3804L154.222 32.6677L163.184 11.0608Z" fill="#0B0C0F"/>
<path d="M60.6886 33.2382C58.2197 33.7724 56.6512 36.2072 57.1854 38.6761L72.9842 111.692C73.5184 114.161 75.9532 115.73 78.4221 115.196L181.242 92.9481C183.711 92.4139 185.279 89.9791 184.745 87.5102M60.6886 33.2382L163.508 10.9907M60.6886 33.2382L76.0616 29.9118M163.508 10.9907C165.977 10.4565 168.412 12.0251 168.946 14.4939M163.508 10.9907L163.184 11.0608M168.946 14.4939L184.745 87.5102M168.946 14.4939L172.044 28.8114M184.745 87.5102L172.044 28.8114M60.2836 52.9936L172.044 28.8114M172.044 28.8114L154.222 32.6677M76.0616 29.9118L67.1004 51.5186L88.8808 46.8059M76.0616 29.9118L97.8421 25.1991M97.8421 25.1991L88.8808 46.8059M97.8421 25.1991L119.623 20.4863M88.8808 46.8059L110.661 42.0931M119.623 20.4863L110.661 42.0931M119.623 20.4863L141.403 15.7736M110.661 42.0931L132.442 37.3804M141.403 15.7736L132.442 37.3804M141.403 15.7736L163.184 11.0608M132.442 37.3804L154.222 32.6677M163.184 11.0608L154.222 32.6677" stroke="#1E2126" stroke-width="2" stroke-linecap="round" stroke-linejoin="round"/>
<path d="M97.8421 25.1991L76.0616 29.9118L67.1004 51.5186L88.8808 46.8059L97.8421 25.1991Z" fill="#C4C4C4"/>
<path d="M97.8421 25.1991L76.0616 29.9118L67.1004 51.5186L88.8808 46.8059L97.8421 25.1991Z" fill="#D9DADE"/>
<path d="M141.403 15.7736L119.623 20.4863L110.661 42.0931L132.442 37.3804L141.403 15.7736Z" fill="#C4C4C4"/>
<path d="M141.403 15.7736L119.623 20.4863L110.661 42.0931L132.442 37.3804L141.403 15.7736Z" fill="#D9DADE"/>
<path d="M163.508 10.9907L163.184 11.0608L154.222 32.6677L172.044 28.8114L168.946 14.4939C168.412 12.0251 165.977 10.4565 163.508 10.9907Z" fill="#C4C4C4"/>
<path d="M163.508 10.9907L163.184 11.0608L154.222 32.6677L172.044 28.8114L168.946 14.4939C168.412 12.0251 165.977 10.4565 163.508 10.9907Z" fill="#D9DADE"/>
<path d="M163.508 10.9907L60.6886 33.2382C58.2197 33.7724 56.6512 36.2072 57.1854 38.6761L72.9842 111.692C73.5184 114.161 75.9532 115.73 78.4221 115.196L181.242 92.9481C183.711 92.4139 185.279 89.9791 184.745 87.5102L168.946 14.4939M163.508 10.9907C165.977 10.4565 168.412 12.0251 168.946 14.4939M163.508 10.9907L163.184 11.0608L154.222 32.6677L172.044 28.8114M168.946 14.4939L172.044 28.8114M60.2836 52.9936L172.044 28.8114M76.0616 29.9118L67.1004 51.5186L88.8808 46.8059L97.8421 25.1991L76.0616 29.9118ZM119.623 20.4863L110.661 42.0931L132.442 37.3804L141.403 15.7736L119.623 20.4863Z" stroke="#1E2126" stroke-width="2" stroke-linecap="round" stroke-linejoin="round"/>
<path d="M286.064 138.814L264.4 228.345C263.792 230.859 261.26 232.404 258.746 231.795L167.698 209.764C165.184 209.156 163.639 206.624 164.247 204.11L192.888 85.7475C193.496 83.2325 196.027 81.6875 198.542 82.2965L260.758 97.3515" stroke="#1E2126" stroke-width="2" stroke-linecap="round" stroke-linejoin="round"/>
<path fill-rule="evenodd" clip-rule="evenodd" d="M260.758 97.3511L286.064 138.813L257.232 131.837C254.718 131.228 253.173 128.697 253.781 126.183L260.758 97.3511V97.3511Z" stroke="#1E2126" stroke-width="2" stroke-linecap="round" stroke-linejoin="round"/>
<path fill-rule="evenodd" clip-rule="evenodd" d="M204.642 137.7H86.8099C83.9809 137.7 81.6869 135.406 81.6869 132.577V125.236C81.6869 123.671 80.9719 122.191 79.7439 121.22L72.7439 115.678C72.0859 115.156 72.0989 114.153 72.7709 113.649L79.6379 108.498C80.9279 107.531 81.6869 106.012 81.6869 104.4V96.7151C81.6869 93.8861 83.9809 91.5921 86.8099 91.5921H204.642C207.471 91.5921 209.765 93.8861 209.765 96.7151V132.577C209.765 135.406 207.471 137.7 204.642 137.7Z" fill="#BDC0C6" fill-opacity="0.88"/>
<path d="M93.6365 126.6H156.822M204.642 137.7H86.8099C83.9809 137.7 81.6869 135.406 81.6869 132.577V125.236C81.6869 123.671 80.9719 122.191 79.7439 121.22L72.7439 115.678C72.0859 115.156 72.0989 114.153 72.7709 113.649L79.6379 108.498C80.9279 107.531 81.6869 106.012 81.6869 104.4V96.7151C81.6869 93.8861 83.9809 91.5921 86.8099 91.5921H204.642C207.471 91.5921 209.765 93.8861 209.765 96.7151V132.577C209.765 135.406 207.471 137.7 204.642 137.7ZM93.6365 102.265H142.307H93.6365ZM126.082 110.377H194.391H126.082ZM93.6365 110.377H116.436H93.6365ZM169.629 118.488H184.571H169.629ZM160.237 118.488H164.771H160.237ZM93.6365 118.488H147.73H93.6365Z" stroke="#1E2126" stroke-width="2" stroke-linecap="round" stroke-linejoin="round"/>
<path fill-rule="evenodd" clip-rule="evenodd" d="M183.191 193.1H52.5518C49.7218 193.1 47.4288 190.806 47.4288 187.977V180.636C47.4288 179.071 46.7128 177.591 45.4848 176.62L38.4848 171.078C37.8268 170.556 37.8398 169.553 38.5118 169.049L45.3788 163.898C46.6688 162.931 47.4288 161.412 47.4288 159.8V152.115C47.4288 149.286 49.7218 146.992 52.5518 146.992H183.191C186.02 146.992 188.314 149.286 188.314 152.115V187.977C188.314 190.806 186.02 193.1 183.191 193.1Z" fill="#E0E5F0" fill-opacity="0.92"/>
<path d="M59.3776 182H175.5M183.191 193.1H52.5518C49.7218 193.1 47.4288 190.806 47.4288 187.977V180.636C47.4288 179.071 46.7128 177.591 45.4848 176.62L38.4848 171.078C37.8268 170.556 37.8398 169.553 38.5118 169.049L45.3788 163.898C46.6688 162.931 47.4288 161.412 47.4288 159.8V152.115C47.4288 149.286 49.7218 146.992 52.5518 146.992H183.191C186.02 146.992 188.314 149.286 188.314 152.115V187.977C188.314 190.806 186.02 193.1 183.191 193.1V193.1ZM59.3776 157.665H158.81H59.3776ZM135.37 165.777H143.32H135.37ZM123.63 165.777H59.378H123.63ZM59.3776 173.889H106.776H59.3776Z" stroke="#1E2126" stroke-width="2" stroke-linecap="round" stroke-linejoin="round"/>
<path fill-rule="evenodd" clip-rule="evenodd" d="M157.881 110.819H52.6819C50.1559 110.819 48.1079 108.771 48.1079 106.245V31.5389C48.1079 29.0129 50.1559 26.9649 52.6819 26.9649H157.881C160.407 26.9649 162.455 29.0129 162.455 31.5389V106.245C162.455 108.771 160.407 110.819 157.881 110.819Z" fill="#2F3136"/>
<path d="M90.6953 26.9648H68.4108L55.0828 46.1878H77.3673L90.6953 26.9648Z" fill="#0B0C0F"/>
<path d="M135.264 26.9648H112.98L99.6518 46.1878H121.936L135.264 26.9648Z" fill="#0B0C0F"/>
<path d="M157.881 26.9649L157.549 26.9648L144.221 46.1878H162.455L162.455 31.5389C162.455 29.0129 160.407 26.9649 157.881 26.9649Z" fill="#0B0C0F"/>
<path d="M112.98 26.9648H90.6953L77.3673 46.1878H99.6518L112.98 26.9648Z" fill="#0B0C0F"/>
<path d="M52.682 110.819H157.881C160.407 110.819 162.455 108.771 162.455 106.245L162.455 46.1878H144.221H121.936H99.6518H77.3673H55.0828L68.4108 26.9648L52.682 26.9649C50.156 26.9649 48.108 29.0129 48.108 31.5389V106.245C48.108 108.771 50.156 110.819 52.682 110.819Z" fill="#0B0C0F"/>
<path d="M157.549 26.9648H135.264L121.936 46.1878H144.221L157.549 26.9648Z" fill="#0B0C0F"/>
<path d="M52.682 26.9649C50.156 26.9649 48.108 29.0129 48.108 31.5389V106.245C48.108 108.771 50.156 110.819 52.682 110.819H157.881C160.407 110.819 162.455 108.771 162.455 106.245M52.682 26.9649H157.881M52.682 26.9649L68.4108 26.9648M157.881 26.9649C160.407 26.9649 162.455 29.0129 162.455 31.5389M157.881 26.9649L157.549 26.9648M162.455 31.5389V106.245M162.455 31.5389L162.455 46.1878M162.455 106.245L162.455 46.1878M48.1083 46.1878H162.455M162.455 46.1878H144.221M68.4108 26.9648L55.0828 46.1878H77.3673M68.4108 26.9648H90.6953M90.6953 26.9648L77.3673 46.1878M90.6953 26.9648H112.98M77.3673 46.1878H99.6518M112.98 26.9648L99.6518 46.1878M112.98 26.9648H135.264M99.6518 46.1878H121.936M135.264 26.9648L121.936 46.1878M135.264 26.9648H157.549M121.936 46.1878H144.221M157.549 26.9648L144.221 46.1878" stroke="#1E2126" stroke-width="2" stroke-linecap="round" stroke-linejoin="round"/>
<path d="M48.7031 46.6302H161.984V109.945H48.7031V46.6302Z" fill="#0B0C0F"/>
<path d="M90.6953 26.9648H68.4108L55.0828 46.1878H77.3673L90.6953 26.9648Z" fill="#C4C4C4"/>
<path d="M90.6953 26.9648H68.4108L55.0828 46.1878H77.3673L90.6953 26.9648Z" fill="white"/>
<path d="M135.264 26.9648H112.98L99.6518 46.1878H121.936L135.264 26.9648Z" fill="#C4C4C4"/>
<path d="M135.264 26.9648H112.98L99.6518 46.1878H121.936L135.264 26.9648Z" fill="white"/>
<path d="M157.881 26.9649L157.549 26.9648L144.221 46.1878H162.455L162.455 31.5389C162.455 29.0129 160.407 26.9649 157.881 26.9649Z" fill="#C4C4C4"/>
<path d="M157.881 26.9649L157.549 26.9648L144.221 46.1878H162.455L162.455 31.5389C162.455 29.0129 160.407 26.9649 157.881 26.9649Z" fill="white"/>
<path d="M157.881 26.9649H52.682C50.156 26.9649 48.108 29.0129 48.108 31.5389V106.245C48.108 108.771 50.156 110.819 52.682 110.819H157.881C160.407 110.819 162.455 108.771 162.455 106.245V31.5389M157.881 26.9649C160.407 26.9649 162.455 29.0129 162.455 31.5389M157.881 26.9649L157.549 26.9648L144.221 46.1878H162.455M162.455 31.5389L162.455 46.1878M48.1083 46.1878H162.455M68.4108 26.9648L55.0828 46.1878H77.3673L90.6953 26.9648H68.4108ZM112.98 26.9648L99.6518 46.1878H121.936L135.264 26.9648H112.98Z" stroke="#1E2126" stroke-width="2" stroke-linecap="round" stroke-linejoin="round"/>
<path fill-rule="evenodd" clip-rule="evenodd" d="M135.583 71.1788C135.583 87.9138 122.016 101.481 105.281 101.481C88.5463 101.481 74.9793 87.9138 74.9793 71.1788C74.9793 54.4438 88.5463 40.8768 105.281 40.8768C122.016 40.8768 135.583 54.4438 135.583 71.1788Z" fill="#D02937"/>
<path fill-rule="evenodd" clip-rule="evenodd" d="M135.583 71.1788C135.583 87.9138 122.016 101.481 105.281 101.481C88.5463 101.481 74.9793 87.9138 74.9793 71.1788C74.9793 54.4438 88.5463 40.8768 105.281 40.8768C122.016 40.8768 135.583 54.4438 135.583 71.1788Z" stroke="#1E2126" stroke-width="2" stroke-linecap="round" stroke-linejoin="round"/>
<path d="M123.456 70.8998L94.0411 87.3512L93.5883 55.2856L123.456 70.8998Z" fill="white"/>
<path fill-rule="evenodd" clip-rule="evenodd" d="M93.3705 54.3865V87.9715L124.815 71.1785L93.3705 54.3865ZM304.337 88.3773V94.8073V88.3773ZM307.552 91.5921H301.122H307.552ZM8.21477 170.674V177.104V170.674ZM11.4296 173.889H4.99957H11.4296ZM315.901 36.3305L314.386 37.8455L315.901 36.3305ZM308.323 43.9079L306.808 45.4229L308.323 43.9079ZM315.901 45.4234L314.386 43.9084L315.901 45.4234ZM308.323 37.846L306.808 36.331L308.323 37.846ZM31.3576 248.927L29.8426 250.442L31.3576 248.927ZM23.7802 256.504L22.2652 258.019L23.7802 256.504ZM31.3576 258.02L29.8426 256.505L31.3576 258.02ZM23.7802 250.442L22.2652 248.927L23.7802 250.442ZM294.346 71.1788C294.346 72.9538 292.907 74.3938 291.131 74.3938C289.356 74.3938 287.916 72.9538 287.916 71.1788C287.916 69.4038 289.356 67.9638 291.131 67.9638C292.907 67.9638 294.346 69.4038 294.346 71.1788Z" stroke="#1E2126" stroke-width="2" stroke-linecap="round" stroke-linejoin="round"/>
</svg>
