<svg width="239" height="96" viewBox="0 0 239 96" fill="none" xmlns="http://www.w3.org/2000/svg">
<path opacity="0.3" d="M14.4 95.7H238.9V78.8C238.892 74.3733 237.13 70.1302 234 67.0001C230.87 63.8699 226.627 62.1079 222.2 62.1H208.5C206.193 62.0974 203.982 61.1799 202.351 59.5489C200.72 57.9179 199.803 55.7066 199.8 53.4V14.7C199.795 10.8029 198.244 7.06701 195.489 4.31137C192.733 1.55574 188.997 0.00529133 185.1 0L80.3 0C76.403 0.00529133 72.667 1.55574 69.9114 4.31137C67.1557 7.06701 65.6053 10.8029 65.6 14.7V34.7H35.2C32.4678 34.6974 29.7618 35.2336 27.2371 36.2779C24.7123 37.3223 22.4183 38.8543 20.4863 40.7863C18.5543 42.7183 17.0223 45.0123 15.9779 47.5371C14.9336 50.0618 14.3974 52.7678 14.4 55.5V95.7Z" fill="#4F545C"/>
<path d="M1.8 45L0.499997 47.6C0.433156 47.74 0.411348 47.8972 0.437575 48.05C0.463802 48.2029 0.536774 48.3439 0.646444 48.4536C0.756113 48.5632 0.897085 48.6362 1.04995 48.6624C1.20281 48.6886 1.36004 48.6668 1.5 48.6L4.1 47.3C4.19239 47.251 4.2954 47.2253 4.4 47.2253C4.5046 47.2253 4.6076 47.251 4.7 47.3L7.5 48.6C7.63995 48.6668 7.79718 48.6886 7.95005 48.6624C8.10291 48.6362 8.24388 48.5632 8.35355 48.4536C8.46322 48.3439 8.53619 48.2029 8.56242 48.05C8.58865 47.8972 8.56684 47.74 8.5 47.6L7.2 45C7.15097 44.9076 7.12533 44.8046 7.12533 44.7C7.12533 44.5954 7.15097 44.4924 7.2 44.4L8.5 41.8C8.56684 41.66 8.58865 41.5028 8.56242 41.3499C8.53619 41.1971 8.46322 41.0561 8.35355 40.9464C8.24388 40.8368 8.10291 40.7638 7.95005 40.7376C7.79718 40.7114 7.63995 40.7332 7.5 40.8L4.8 42C4.7076 42.049 4.6046 42.0747 4.5 42.0747C4.3954 42.0747 4.29239 42.049 4.2 42L1.5 40.7C1.36004 40.6332 1.20281 40.6113 1.04995 40.6376C0.897085 40.6638 0.756113 40.7368 0.646444 40.8464C0.536774 40.9561 0.463802 41.0971 0.437575 41.2499C0.411348 41.4028 0.433156 41.56 0.499997 41.7L1.8 44.3C1.8497 44.41 1.8754 44.5293 1.8754 44.65C1.8754 44.7707 1.8497 44.89 1.8 45Z" fill="white"/>
<path d="M27.4 68.2C27.2664 68.2088 27.1324 68.189 27.0071 68.1419C26.8818 68.0948 26.768 68.0214 26.6733 67.9267C26.5786 67.832 26.5052 67.7182 26.4581 67.5929C26.411 67.4676 26.3912 67.3336 26.4 67.2V66.2C26.4 65.9348 26.5054 65.6804 26.6929 65.4929C26.8804 65.3054 27.1348 65.2 27.4 65.2C27.6652 65.2 27.9196 65.3054 28.1071 65.4929C28.2946 65.6804 28.4 65.9348 28.4 66.2V67.2C28.4 67.4652 28.2946 67.7196 28.1071 67.9071C27.9196 68.0946 27.6652 68.2 27.4 68.2ZM27.4 76.2C27.2664 76.2088 27.1324 76.189 27.0071 76.1419C26.8818 76.0948 26.768 76.0214 26.6733 75.9267C26.5786 75.832 26.5052 75.7182 26.4581 75.5929C26.411 75.4676 26.3912 75.3336 26.4 75.2V74.2C26.4 73.9348 26.5054 73.6804 26.6929 73.4929C26.8804 73.3054 27.1348 73.2 27.4 73.2C27.6652 73.2 27.9196 73.3054 28.1071 73.4929C28.2946 73.6804 28.4 73.9348 28.4 74.2V75.2C28.4 75.4652 28.2946 75.7196 28.1071 75.9071C27.9196 76.0946 27.6652 76.2 27.4 76.2ZM29.9 70.7C29.8912 70.5664 29.911 70.4324 29.9581 70.3071C30.0052 70.1818 30.0786 70.0679 30.1733 69.9733C30.268 69.8786 30.3818 69.8052 30.5071 69.7581C30.6324 69.711 30.7664 69.6912 30.9 69.7H31.9C32.1652 69.7 32.4196 69.8054 32.6071 69.9929C32.7946 70.1804 32.9 70.4348 32.9 70.7C32.9 70.9652 32.7946 71.2196 32.6071 71.4071C32.4196 71.5946 32.1652 71.7 31.9 71.7H30.9C30.6409 71.6814 30.3972 71.5701 30.2136 71.3864C30.0299 71.2028 29.9186 70.9591 29.9 70.7ZM21.9 70.7C21.8912 70.5664 21.911 70.4324 21.9581 70.3071C22.0052 70.1818 22.0786 70.0679 22.1733 69.9733C22.268 69.8786 22.3818 69.8052 22.5071 69.7581C22.6324 69.711 22.7664 69.6912 22.9 69.7H23.9C24.1652 69.7 24.4196 69.8054 24.6071 69.9929C24.7946 70.1804 24.9 70.4348 24.9 70.7C24.9 70.9652 24.7946 71.2196 24.6071 71.4071C24.4196 71.5946 24.1652 71.7 23.9 71.7H22.9C22.6409 71.6814 22.3972 71.5701 22.2136 71.3864C22.0299 71.2028 21.9186 70.9591 21.9 70.7ZM218.4 48C218.266 48.0088 218.132 47.989 218.007 47.9419C217.882 47.8948 217.768 47.8214 217.673 47.7267C217.579 47.632 217.505 47.5182 217.458 47.3929C217.411 47.2676 217.391 47.1336 217.4 47V46C217.4 45.7348 217.505 45.4804 217.693 45.2929C217.88 45.1054 218.135 45 218.4 45C218.665 45 218.92 45.1054 219.107 45.2929C219.295 45.4804 219.4 45.7348 219.4 46V47C219.409 47.1336 219.389 47.2676 219.342 47.3929C219.295 47.5182 219.221 47.632 219.127 47.7267C219.032 47.8214 218.918 47.8948 218.793 47.9419C218.668 47.989 218.534 48.0088 218.4 48ZM218.4 56C218.266 56.0088 218.132 55.989 218.007 55.9419C217.882 55.8948 217.768 55.8214 217.673 55.7267C217.579 55.632 217.505 55.5182 217.458 55.3929C217.411 55.2676 217.391 55.1336 217.4 55V54C217.4 53.7348 217.505 53.4804 217.693 53.2929C217.88 53.1054 218.135 53 218.4 53C218.665 53 218.92 53.1054 219.107 53.2929C219.295 53.4804 219.4 53.7348 219.4 54V55C219.409 55.1336 219.389 55.2676 219.342 55.3929C219.295 55.5182 219.221 55.632 219.127 55.7267C219.032 55.8214 218.918 55.8948 218.793 55.9419C218.668 55.989 218.534 56.0088 218.4 56ZM220.9 50.5C220.891 50.3664 220.911 50.2324 220.958 50.1071C221.005 49.9818 221.079 49.868 221.173 49.7733C221.268 49.6786 221.382 49.6052 221.507 49.5581C221.632 49.511 221.766 49.4912 221.9 49.5H222.9C223.165 49.5 223.42 49.6054 223.607 49.7929C223.795 49.9804 223.9 50.2348 223.9 50.5C223.9 50.7652 223.795 51.0196 223.607 51.2071C223.42 51.3946 223.165 51.5 222.9 51.5H221.9C221.635 51.5 221.38 51.3946 221.193 51.2071C221.005 51.0196 220.9 50.7652 220.9 50.5ZM212.9 50.5C212.891 50.3664 212.911 50.2324 212.958 50.1071C213.005 49.9818 213.079 49.868 213.173 49.7733C213.268 49.6786 213.382 49.6052 213.507 49.5581C213.632 49.511 213.766 49.4912 213.9 49.5H214.9C215.165 49.5 215.42 49.6054 215.607 49.7929C215.795 49.9804 215.9 50.2348 215.9 50.5C215.9 50.7652 215.795 51.0196 215.607 51.2071C215.42 51.3946 215.165 51.5 214.9 51.5H213.9C213.635 51.5 213.38 51.3946 213.193 51.2071C213.005 51.0196 212.9 50.7652 212.9 50.5Z" fill="#72767D"/>
<path d="M191.7 13.7H75.7V95.7H191.7V13.7Z" fill="#646E7A"/>
<path d="M181.6 23.7H85.6V77.7H181.6V23.7Z" fill="#55689E"/>
<path d="M75.7 13.7H47.7V95.7H75.7V13.7Z" fill="#3E4854"/>
<path d="M37.7 64.7L47.7 74.7V34.7L37.7 44.7V64.7Z" fill="#2D333C"/>
<path d="M171.6 77L159 65L146.4 77L133.7 65L121.1 77L108.5 65L95.9 77L85.7 67.3L85.6 67.4V76.9L86.4 77.7H105.3L108.5 74.7L111.7 77.7H130.6L133.7 74.7L136.9 77.7H155.8L159 74.7L162.2 77.7H181.1L181.6 77.2V67.5L171.6 77Z" fill="#99ABD8"/>
<path d="M171.6 57.7L159 45.7L146.4 57.7L133.7 45.7L121.1 57.7L108.5 45.7L95.9 57.7L85.7 48H85.6V57.5L95.9 67.3L108.5 55.3L121.1 67.3L133.7 55.3L146.4 67.3L159 55.3L171.6 67.3L181.6 57.9V48.2L171.6 57.7Z" fill="#99ABD8"/>
<path d="M171.6 38.3L159 26.3L146.4 38.3L133.7 26.3L121.1 38.3L108.5 26.3L95.9 38.3L85.7 28.6L85.6 28.7V38.2L95.9 48L108.5 36L121.1 48L133.7 36L146.4 48L159 36L171.6 48L181.6 38.5V28.9L171.6 38.3Z" fill="#99ABD8"/>
<path d="M171.6 28.7L176.9 23.7H166.4L171.6 28.7ZM151.6 23.7H141.1L146.4 28.7L151.6 23.7ZM115.9 23.7L121.1 28.7L126.4 23.7H115.9ZM101.1 23.7H90.6L95.9 28.7L101.1 23.7Z" fill="#99ABD8"/>
<path d="M55.6 29.7C55.7978 29.7 55.9911 29.6413 56.1556 29.5315C56.32 29.4216 56.4482 29.2654 56.5239 29.0827C56.5996 28.9 56.6194 28.6989 56.5808 28.5049C56.5422 28.3109 56.447 28.1327 56.3071 27.9929C56.1673 27.853 55.9891 27.7578 55.7951 27.7192C55.6011 27.6806 55.4 27.7004 55.2173 27.7761C55.0346 27.8518 54.8784 27.98 54.7685 28.1444C54.6587 28.3089 54.6 28.5022 54.6 28.7C54.6 28.9652 54.7054 29.2196 54.8929 29.4071C55.0804 29.5946 55.3348 29.7 55.6 29.7ZM59.6 29.7C59.7978 29.7 59.9911 29.6413 60.1556 29.5315C60.32 29.4216 60.4482 29.2654 60.5239 29.0827C60.5996 28.9 60.6194 28.6989 60.5808 28.5049C60.5422 28.3109 60.447 28.1327 60.3071 27.9929C60.1673 27.853 59.9891 27.7578 59.7951 27.7192C59.6011 27.6806 59.4 27.7004 59.2173 27.7761C59.0346 27.8518 58.8784 27.98 58.7685 28.1444C58.6587 28.3089 58.6 28.5022 58.6 28.7C58.6 28.9652 58.7054 29.2196 58.8929 29.4071C59.0804 29.5946 59.3348 29.7 59.6 29.7ZM63.6 29.7C63.7978 29.7 63.9911 29.6413 64.1556 29.5315C64.32 29.4216 64.4482 29.2654 64.5239 29.0827C64.5996 28.9 64.6194 28.6989 64.5808 28.5049C64.5422 28.3109 64.447 28.1327 64.3071 27.9929C64.1673 27.853 63.9891 27.7578 63.7951 27.7192C63.6011 27.6806 63.4 27.7004 63.2173 27.7761C63.0346 27.8518 62.8784 27.98 62.7685 28.1444C62.6587 28.3089 62.6 28.5022 62.6 28.7C62.6 28.9652 62.7054 29.2196 62.8929 29.4071C63.0804 29.5946 63.3348 29.7 63.6 29.7ZM67.6 29.7C67.7978 29.7 67.9911 29.6413 68.1556 29.5315C68.32 29.4216 68.4482 29.2654 68.5239 29.0827C68.5996 28.9 68.6194 28.6989 68.5808 28.5049C68.5422 28.3109 68.447 28.1327 68.3071 27.9929C68.1673 27.853 67.9891 27.7578 67.7951 27.7192C67.6011 27.6806 67.4 27.7004 67.2173 27.7761C67.0346 27.8518 66.8784 27.98 66.7685 28.1444C66.6587 28.3089 66.6 28.5022 66.6 28.7C66.6 28.9652 66.7054 29.2196 66.8929 29.4071C67.0804 29.5946 67.3348 29.7 67.6 29.7ZM55.6 35.7C55.7978 35.7 55.9911 35.6413 56.1556 35.5315C56.32 35.4216 56.4482 35.2654 56.5239 35.0827C56.5996 34.9 56.6194 34.6989 56.5808 34.5049C56.5422 34.3109 56.447 34.1327 56.3071 33.9929C56.1673 33.853 55.9891 33.7578 55.7951 33.7192C55.6011 33.6806 55.4 33.7004 55.2173 33.7761C55.0346 33.8518 54.8784 33.98 54.7685 34.1444C54.6587 34.3089 54.6 34.5022 54.6 34.7C54.6 34.9652 54.7054 35.2196 54.8929 35.4071C55.0804 35.5946 55.3348 35.7 55.6 35.7ZM59.6 35.7C59.7978 35.7 59.9911 35.6413 60.1556 35.5315C60.32 35.4216 60.4482 35.2654 60.5239 35.0827C60.5996 34.9 60.6194 34.6989 60.5808 34.5049C60.5422 34.3109 60.447 34.1327 60.3071 33.9929C60.1673 33.853 59.9891 33.7578 59.7951 33.7192C59.6011 33.6806 59.4 33.7004 59.2173 33.7761C59.0346 33.8518 58.8784 33.98 58.7685 34.1444C58.6587 34.3089 58.6 34.5022 58.6 34.7C58.6 34.9652 58.7054 35.2196 58.8929 35.4071C59.0804 35.5946 59.3348 35.7 59.6 35.7ZM63.6 35.7C63.7978 35.7 63.9911 35.6413 64.1556 35.5315C64.32 35.4216 64.4482 35.2654 64.5239 35.0827C64.5996 34.9 64.6194 34.6989 64.5808 34.5049C64.5422 34.3109 64.447 34.1327 64.3071 33.9929C64.1673 33.853 63.9891 33.7578 63.7951 33.7192C63.6011 33.6806 63.4 33.7004 63.2173 33.7761C63.0346 33.8518 62.8784 33.98 62.7685 34.1444C62.6587 34.3089 62.6 34.5022 62.6 34.7C62.6 34.9652 62.7054 35.2196 62.8929 35.4071C63.0804 35.5946 63.3348 35.7 63.6 35.7ZM67.6 35.7C67.7978 35.7 67.9911 35.6413 68.1556 35.5315C68.32 35.4216 68.4482 35.2654 68.5239 35.0827C68.5996 34.9 68.6194 34.6989 68.5808 34.5049C68.5422 34.3109 68.447 34.1327 68.3071 33.9929C68.1673 33.853 67.9891 33.7578 67.7951 33.7192C67.6011 33.6806 67.4 33.7004 67.2173 33.7761C67.0346 33.8518 66.8784 33.98 66.7685 34.1444C66.6587 34.3089 66.6 34.5022 66.6 34.7C66.6 34.9652 66.7054 35.2196 66.8929 35.4071C67.0804 35.5946 67.3348 35.7 67.6 35.7ZM55.6 41.7C55.7978 41.7 55.9911 41.6413 56.1556 41.5315C56.32 41.4216 56.4482 41.2654 56.5239 41.0827C56.5996 40.9 56.6194 40.6989 56.5808 40.5049C56.5422 40.3109 56.447 40.1327 56.3071 39.9929C56.1673 39.853 55.9891 39.7578 55.7951 39.7192C55.6011 39.6806 55.4 39.7004 55.2173 39.7761C55.0346 39.8518 54.8784 39.98 54.7685 40.1444C54.6587 40.3089 54.6 40.5022 54.6 40.7C54.6 40.9652 54.7054 41.2196 54.8929 41.4071C55.0804 41.5946 55.3348 41.7 55.6 41.7ZM59.6 41.7C59.7978 41.7 59.9911 41.6413 60.1556 41.5315C60.32 41.4216 60.4482 41.2654 60.5239 41.0827C60.5996 40.9 60.6194 40.6989 60.5808 40.5049C60.5422 40.3109 60.447 40.1327 60.3071 39.9929C60.1673 39.853 59.9891 39.7578 59.7951 39.7192C59.6011 39.6806 59.4 39.7004 59.2173 39.7761C59.0346 39.8518 58.8784 39.98 58.7685 40.1444C58.6587 40.3089 58.6 40.5022 58.6 40.7C58.6 40.9652 58.7054 41.2196 58.8929 41.4071C59.0804 41.5946 59.3348 41.7 59.6 41.7ZM63.6 41.7C63.7978 41.7 63.9911 41.6413 64.1556 41.5315C64.32 41.4216 64.4482 41.2654 64.5239 41.0827C64.5996 40.9 64.6194 40.6989 64.5808 40.5049C64.5422 40.3109 64.447 40.1327 64.3071 39.9929C64.1673 39.853 63.9891 39.7578 63.7951 39.7192C63.6011 39.6806 63.4 39.7004 63.2173 39.7761C63.0346 39.8518 62.8784 39.98 62.7685 40.1444C62.6587 40.3089 62.6 40.5022 62.6 40.7C62.6 40.9652 62.7054 41.2196 62.8929 41.4071C63.0804 41.5946 63.3348 41.7 63.6 41.7ZM67.6 41.7C67.7978 41.7 67.9911 41.6413 68.1556 41.5315C68.32 41.4216 68.4482 41.2654 68.5239 41.0827C68.5996 40.9 68.6194 40.6989 68.5808 40.5049C68.5422 40.3109 68.447 40.1327 68.3071 39.9929C68.1673 39.853 67.9891 39.7578 67.7951 39.7192C67.6011 39.6806 67.4 39.7004 67.2173 39.7761C67.0346 39.8518 66.8784 39.98 66.7685 40.1444C66.6587 40.3089 66.6 40.5022 66.6 40.7C66.6 40.9652 66.7054 41.2196 66.8929 41.4071C67.0804 41.5946 67.3348 41.7 67.6 41.7ZM55.6 47.7C55.7978 47.7 55.9911 47.6413 56.1556 47.5315C56.32 47.4216 56.4482 47.2654 56.5239 47.0827C56.5996 46.9 56.6194 46.6989 56.5808 46.5049C56.5422 46.3109 56.447 46.1327 56.3071 45.9929C56.1673 45.853 55.9891 45.7578 55.7951 45.7192C55.6011 45.6806 55.4 45.7004 55.2173 45.7761C55.0346 45.8518 54.8784 45.98 54.7685 46.1444C54.6587 46.3089 54.6 46.5022 54.6 46.7C54.6 46.9652 54.7054 47.2196 54.8929 47.4071C55.0804 47.5946 55.3348 47.7 55.6 47.7ZM59.6 47.7C59.7978 47.7 59.9911 47.6413 60.1556 47.5315C60.32 47.4216 60.4482 47.2654 60.5239 47.0827C60.5996 46.9 60.6194 46.6989 60.5808 46.5049C60.5422 46.3109 60.447 46.1327 60.3071 45.9929C60.1673 45.853 59.9891 45.7578 59.7951 45.7192C59.6011 45.6806 59.4 45.7004 59.2173 45.7761C59.0346 45.8518 58.8784 45.98 58.7685 46.1444C58.6587 46.3089 58.6 46.5022 58.6 46.7C58.6 46.9652 58.7054 47.2196 58.8929 47.4071C59.0804 47.5946 59.3348 47.7 59.6 47.7ZM63.6 47.7C63.7978 47.7 63.9911 47.6413 64.1556 47.5315C64.32 47.4216 64.4482 47.2654 64.5239 47.0827C64.5996 46.9 64.6194 46.6989 64.5808 46.5049C64.5422 46.3109 64.447 46.1327 64.3071 45.9929C64.1673 45.853 63.9891 45.7578 63.7951 45.7192C63.6011 45.6806 63.4 45.7004 63.2173 45.7761C63.0346 45.8518 62.8784 45.98 62.7685 46.1444C62.6587 46.3089 62.6 46.5022 62.6 46.7C62.6 46.9652 62.7054 47.2196 62.8929 47.4071C63.0804 47.5946 63.3348 47.7 63.6 47.7ZM67.6 47.7C67.7978 47.7 67.9911 47.6413 68.1556 47.5315C68.32 47.4216 68.4482 47.2654 68.5239 47.0827C68.5996 46.9 68.6194 46.6989 68.5808 46.5049C68.5422 46.3109 68.447 46.1327 68.3071 45.9929C68.1673 45.853 67.9891 45.7578 67.7951 45.7192C67.6011 45.6806 67.4 45.7004 67.2173 45.7761C67.0346 45.8518 66.8784 45.98 66.7685 46.1444C66.6587 46.3089 66.6 46.5022 66.6 46.7C66.6 46.9652 66.7054 47.2196 66.8929 47.4071C67.0804 47.5946 67.3348 47.7 67.6 47.7ZM55.6 53.7C55.7978 53.7 55.9911 53.6413 56.1556 53.5315C56.32 53.4216 56.4482 53.2654 56.5239 53.0827C56.5996 52.9 56.6194 52.6989 56.5808 52.5049C56.5422 52.3109 56.447 52.1327 56.3071 51.9929C56.1673 51.853 55.9891 51.7578 55.7951 51.7192C55.6011 51.6806 55.4 51.7004 55.2173 51.7761C55.0346 51.8518 54.8784 51.98 54.7685 52.1444C54.6587 52.3089 54.6 52.5022 54.6 52.7C54.6 52.9652 54.7054 53.2196 54.8929 53.4071C55.0804 53.5946 55.3348 53.7 55.6 53.7ZM59.6 53.7C59.7978 53.7 59.9911 53.6413 60.1556 53.5315C60.32 53.4216 60.4482 53.2654 60.5239 53.0827C60.5996 52.9 60.6194 52.6989 60.5808 52.5049C60.5422 52.3109 60.447 52.1327 60.3071 51.9929C60.1673 51.853 59.9891 51.7578 59.7951 51.7192C59.6011 51.6806 59.4 51.7004 59.2173 51.7761C59.0346 51.8518 58.8784 51.98 58.7685 52.1444C58.6587 52.3089 58.6 52.5022 58.6 52.7C58.6 52.9652 58.7054 53.2196 58.8929 53.4071C59.0804 53.5946 59.3348 53.7 59.6 53.7ZM63.6 53.7C63.7978 53.7 63.9911 53.6413 64.1556 53.5315C64.32 53.4216 64.4482 53.2654 64.5239 53.0827C64.5996 52.9 64.6194 52.6989 64.5808 52.5049C64.5422 52.3109 64.447 52.1327 64.3071 51.9929C64.1673 51.853 63.9891 51.7578 63.7951 51.7192C63.6011 51.6806 63.4 51.7004 63.2173 51.7761C63.0346 51.8518 62.8784 51.98 62.7685 52.1444C62.6587 52.3089 62.6 52.5022 62.6 52.7C62.6 52.9652 62.7054 53.2196 62.8929 53.4071C63.0804 53.5946 63.3348 53.7 63.6 53.7ZM67.6 53.7C67.7978 53.7 67.9911 53.6413 68.1556 53.5315C68.32 53.4216 68.4482 53.2654 68.5239 53.0827C68.5996 52.9 68.6194 52.6989 68.5808 52.5049C68.5422 52.3109 68.447 52.1327 68.3071 51.9929C68.1673 51.853 67.9891 51.7578 67.7951 51.7192C67.6011 51.6806 67.4 51.7004 67.2173 51.7761C67.0346 51.8518 66.8784 51.98 66.7685 52.1444C66.6587 52.3089 66.6 52.5022 66.6 52.7C66.6 52.9652 66.7054 53.2196 66.8929 53.4071C67.0804 53.5946 67.3348 53.7 67.6 53.7ZM55.6 59.7C55.7978 59.7 55.9911 59.6413 56.1556 59.5315C56.32 59.4216 56.4482 59.2654 56.5239 59.0827C56.5996 58.9 56.6194 58.6989 56.5808 58.5049C56.5422 58.3109 56.447 58.1327 56.3071 57.9929C56.1673 57.853 55.9891 57.7578 55.7951 57.7192C55.6011 57.6806 55.4 57.7004 55.2173 57.7761C55.0346 57.8518 54.8784 57.98 54.7685 58.1444C54.6587 58.3089 54.6 58.5022 54.6 58.7C54.6 58.9652 54.7054 59.2196 54.8929 59.4071C55.0804 59.5946 55.3348 59.7 55.6 59.7ZM59.6 59.7C59.7978 59.7 59.9911 59.6413 60.1556 59.5315C60.32 59.4216 60.4482 59.2654 60.5239 59.0827C60.5996 58.9 60.6194 58.6989 60.5808 58.5049C60.5422 58.3109 60.447 58.1327 60.3071 57.9929C60.1673 57.853 59.9891 57.7578 59.7951 57.7192C59.6011 57.6806 59.4 57.7004 59.2173 57.7761C59.0346 57.8518 58.8784 57.98 58.7685 58.1444C58.6587 58.3089 58.6 58.5022 58.6 58.7C58.6 58.9652 58.7054 59.2196 58.8929 59.4071C59.0804 59.5946 59.3348 59.7 59.6 59.7ZM63.6 59.7C63.7978 59.7 63.9911 59.6413 64.1556 59.5315C64.32 59.4216 64.4482 59.2654 64.5239 59.0827C64.5996 58.9 64.6194 58.6989 64.5808 58.5049C64.5422 58.3109 64.447 58.1327 64.3071 57.9929C64.1673 57.853 63.9891 57.7578 63.7951 57.7192C63.6011 57.6806 63.4 57.7004 63.2173 57.7761C63.0346 57.8518 62.8784 57.98 62.7685 58.1444C62.6587 58.3089 62.6 58.5022 62.6 58.7C62.6 58.9652 62.7054 59.2196 62.8929 59.4071C63.0804 59.5946 63.3348 59.7 63.6 59.7ZM67.6 59.7C67.7978 59.7 67.9911 59.6413 68.1556 59.5315C68.32 59.4216 68.4482 59.2654 68.5239 59.0827C68.5996 58.9 68.6194 58.6989 68.5808 58.5049C68.5422 58.3109 68.447 58.1327 68.3071 57.9929C68.1673 57.853 67.9891 57.7578 67.7951 57.7192C67.6011 57.6806 67.4 57.7004 67.2173 57.7761C67.0346 57.8518 66.8784 57.98 66.7685 58.1444C66.6587 58.3089 66.6 58.5022 66.6 58.7C66.6 58.9652 66.7054 59.2196 66.8929 59.4071C67.0804 59.5946 67.3348 59.7 67.6 59.7ZM55.6 65.7C55.7978 65.7 55.9911 65.6413 56.1556 65.5315C56.32 65.4216 56.4482 65.2654 56.5239 65.0827C56.5996 64.8999 56.6194 64.6989 56.5808 64.5049C56.5422 64.3109 56.447 64.1327 56.3071 63.9929C56.1673 63.853 55.9891 63.7578 55.7951 63.7192C55.6011 63.6806 55.4 63.7004 55.2173 63.7761C55.0346 63.8518 54.8784 63.98 54.7685 64.1444C54.6587 64.3089 54.6 64.5022 54.6 64.7C54.6 64.9652 54.7054 65.2196 54.8929 65.4071C55.0804 65.5946 55.3348 65.7 55.6 65.7ZM59.6 65.7C59.7978 65.7 59.9911 65.6413 60.1556 65.5315C60.32 65.4216 60.4482 65.2654 60.5239 65.0827C60.5996 64.8999 60.6194 64.6989 60.5808 64.5049C60.5422 64.3109 60.447 64.1327 60.3071 63.9929C60.1673 63.853 59.9891 63.7578 59.7951 63.7192C59.6011 63.6806 59.4 63.7004 59.2173 63.7761C59.0346 63.8518 58.8784 63.98 58.7685 64.1444C58.6587 64.3089 58.6 64.5022 58.6 64.7C58.6 64.9652 58.7054 65.2196 58.8929 65.4071C59.0804 65.5946 59.3348 65.7 59.6 65.7ZM63.6 65.7C63.7978 65.7 63.9911 65.6413 64.1556 65.5315C64.32 65.4216 64.4482 65.2654 64.5239 65.0827C64.5996 64.8999 64.6194 64.6989 64.5808 64.5049C64.5422 64.3109 64.447 64.1327 64.3071 63.9929C64.1673 63.853 63.9891 63.7578 63.7951 63.7192C63.6011 63.6806 63.4 63.7004 63.2173 63.7761C63.0346 63.8518 62.8784 63.98 62.7685 64.1444C62.6587 64.3089 62.6 64.5022 62.6 64.7C62.6 64.9652 62.7054 65.2196 62.8929 65.4071C63.0804 65.5946 63.3348 65.7 63.6 65.7ZM67.6 65.7C67.7978 65.7 67.9911 65.6413 68.1556 65.5315C68.32 65.4216 68.4482 65.2654 68.5239 65.0827C68.5996 64.8999 68.6194 64.6989 68.5808 64.5049C68.5422 64.3109 68.447 64.1327 68.3071 63.9929C68.1673 63.853 67.9891 63.7578 67.7951 63.7192C67.6011 63.6806 67.4 63.7004 67.2173 63.7761C67.0346 63.8518 66.8784 63.98 66.7685 64.1444C66.6587 64.3089 66.6 64.5022 66.6 64.7C66.6 64.9652 66.7054 65.2196 66.8929 65.4071C67.0804 65.5946 67.3348 65.7 67.6 65.7ZM55.6 71.7C55.7978 71.7 55.9911 71.6413 56.1556 71.5315C56.32 71.4216 56.4482 71.2654 56.5239 71.0827C56.5996 70.8999 56.6194 70.6989 56.5808 70.5049C56.5422 70.3109 56.447 70.1327 56.3071 69.9929C56.1673 69.853 55.9891 69.7578 55.7951 69.7192C55.6011 69.6806 55.4 69.7004 55.2173 69.7761C55.0346 69.8518 54.8784 69.98 54.7685 70.1444C54.6587 70.3089 54.6 70.5022 54.6 70.7C54.6 70.9652 54.7054 71.2196 54.8929 71.4071C55.0804 71.5946 55.3348 71.7 55.6 71.7ZM59.6 71.7C59.7978 71.7 59.9911 71.6413 60.1556 71.5315C60.32 71.4216 60.4482 71.2654 60.5239 71.0827C60.5996 70.8999 60.6194 70.6989 60.5808 70.5049C60.5422 70.3109 60.447 70.1327 60.3071 69.9929C60.1673 69.853 59.9891 69.7578 59.7951 69.7192C59.6011 69.6806 59.4 69.7004 59.2173 69.7761C59.0346 69.8518 58.8784 69.98 58.7685 70.1444C58.6587 70.3089 58.6 70.5022 58.6 70.7C58.6 70.9652 58.7054 71.2196 58.8929 71.4071C59.0804 71.5946 59.3348 71.7 59.6 71.7ZM63.6 71.7C63.7978 71.7 63.9911 71.6413 64.1556 71.5315C64.32 71.4216 64.4482 71.2654 64.5239 71.0827C64.5996 70.8999 64.6194 70.6989 64.5808 70.5049C64.5422 70.3109 64.447 70.1327 64.3071 69.9929C64.1673 69.853 63.9891 69.7578 63.7951 69.7192C63.6011 69.6806 63.4 69.7004 63.2173 69.7761C63.0346 69.8518 62.8784 69.98 62.7685 70.1444C62.6587 70.3089 62.6 70.5022 62.6 70.7C62.6 70.9652 62.7054 71.2196 62.8929 71.4071C63.0804 71.5946 63.3348 71.7 63.6 71.7ZM67.6 71.7C67.7978 71.7 67.9911 71.6413 68.1556 71.5315C68.32 71.4216 68.4482 71.2654 68.5239 71.0827C68.5996 70.8999 68.6194 70.6989 68.5808 70.5049C68.5422 70.3109 68.447 70.1327 68.3071 69.9929C68.1673 69.853 67.9891 69.7578 67.7951 69.7192C67.6011 69.6806 67.4 69.7004 67.2173 69.7761C67.0346 69.8518 66.8784 69.98 66.7685 70.1444C66.6587 70.3089 66.6 70.5022 66.6 70.7C66.6 70.9652 66.7054 71.2196 66.8929 71.4071C67.0804 71.5946 67.3348 71.7 67.6 71.7ZM55.6 77.7C55.7978 77.7 55.9911 77.6413 56.1556 77.5315C56.32 77.4216 56.4482 77.2654 56.5239 77.0827C56.5996 76.8999 56.6194 76.6989 56.5808 76.5049C56.5422 76.3109 56.447 76.1327 56.3071 75.9929C56.1673 75.853 55.9891 75.7578 55.7951 75.7192C55.6011 75.6806 55.4 75.7004 55.2173 75.7761C55.0346 75.8518 54.8784 75.98 54.7685 76.1444C54.6587 76.3089 54.6 76.5022 54.6 76.7C54.6 76.9652 54.7054 77.2196 54.8929 77.4071C55.0804 77.5946 55.3348 77.7 55.6 77.7ZM59.6 77.7C59.7978 77.7 59.9911 77.6413 60.1556 77.5315C60.32 77.4216 60.4482 77.2654 60.5239 77.0827C60.5996 76.8999 60.6194 76.6989 60.5808 76.5049C60.5422 76.3109 60.447 76.1327 60.3071 75.9929C60.1673 75.853 59.9891 75.7578 59.7951 75.7192C59.6011 75.6806 59.4 75.7004 59.2173 75.7761C59.0346 75.8518 58.8784 75.98 58.7685 76.1444C58.6587 76.3089 58.6 76.5022 58.6 76.7C58.6 76.9652 58.7054 77.2196 58.8929 77.4071C59.0804 77.5946 59.3348 77.7 59.6 77.7ZM63.6 77.7C63.7978 77.7 63.9911 77.6413 64.1556 77.5315C64.32 77.4216 64.4482 77.2654 64.5239 77.0827C64.5996 76.8999 64.6194 76.6989 64.5808 76.5049C64.5422 76.3109 64.447 76.1327 64.3071 75.9929C64.1673 75.853 63.9891 75.7578 63.7951 75.7192C63.6011 75.6806 63.4 75.7004 63.2173 75.7761C63.0346 75.8518 62.8784 75.98 62.7685 76.1444C62.6587 76.3089 62.6 76.5022 62.6 76.7C62.6 76.9652 62.7054 77.2196 62.8929 77.4071C63.0804 77.5946 63.3348 77.7 63.6 77.7ZM67.6 77.7C67.7978 77.7 67.9911 77.6413 68.1556 77.5315C68.32 77.4216 68.4482 77.2654 68.5239 77.0827C68.5996 76.8999 68.6194 76.6989 68.5808 76.5049C68.5422 76.3109 68.447 76.1327 68.3071 75.9929C68.1673 75.853 67.9891 75.7578 67.7951 75.7192C67.6011 75.6806 67.4 75.7004 67.2173 75.7761C67.0346 75.8518 66.8784 75.98 66.7685 76.1444C66.6587 76.3089 66.6 76.5022 66.6 76.7C66.6 76.9652 66.7054 77.2196 66.8929 77.4071C67.0804 77.5946 67.3348 77.7 67.6 77.7ZM55.6 83.7C55.7978 83.7 55.9911 83.6413 56.1556 83.5315C56.32 83.4216 56.4482 83.2654 56.5239 83.0827C56.5996 82.8999 56.6194 82.6989 56.5808 82.5049C56.5422 82.3109 56.447 82.1327 56.3071 81.9929C56.1673 81.853 55.9891 81.7578 55.7951 81.7192C55.6011 81.6806 55.4 81.7004 55.2173 81.7761C55.0346 81.8518 54.8784 81.98 54.7685 82.1444C54.6587 82.3089 54.6 82.5022 54.6 82.7C54.6 82.9652 54.7054 83.2196 54.8929 83.4071C55.0804 83.5946 55.3348 83.7 55.6 83.7ZM59.6 83.7C59.7978 83.7 59.9911 83.6413 60.1556 83.5315C60.32 83.4216 60.4482 83.2654 60.5239 83.0827C60.5996 82.8999 60.6194 82.6989 60.5808 82.5049C60.5422 82.3109 60.447 82.1327 60.3071 81.9929C60.1673 81.853 59.9891 81.7578 59.7951 81.7192C59.6011 81.6806 59.4 81.7004 59.2173 81.7761C59.0346 81.8518 58.8784 81.98 58.7685 82.1444C58.6587 82.3089 58.6 82.5022 58.6 82.7C58.6 82.9652 58.7054 83.2196 58.8929 83.4071C59.0804 83.5946 59.3348 83.7 59.6 83.7ZM63.6 83.7C63.7978 83.7 63.9911 83.6413 64.1556 83.5315C64.32 83.4216 64.4482 83.2654 64.5239 83.0827C64.5996 82.8999 64.6194 82.6989 64.5808 82.5049C64.5422 82.3109 64.447 82.1327 64.3071 81.9929C64.1673 81.853 63.9891 81.7578 63.7951 81.7192C63.6011 81.6806 63.4 81.7004 63.2173 81.7761C63.0346 81.8518 62.8784 81.98 62.7685 82.1444C62.6587 82.3089 62.6 82.5022 62.6 82.7C62.6 82.9652 62.7054 83.2196 62.8929 83.4071C63.0804 83.5946 63.3348 83.7 63.6 83.7ZM67.6 83.7C67.7978 83.7 67.9911 83.6413 68.1556 83.5315C68.32 83.4216 68.4482 83.2654 68.5239 83.0827C68.5996 82.8999 68.6194 82.6989 68.5808 82.5049C68.5422 82.3109 68.447 82.1327 68.3071 81.9929C68.1673 81.853 67.9891 81.7578 67.7951 81.7192C67.6011 81.6806 67.4 81.7004 67.2173 81.7761C67.0346 81.8518 66.8784 81.98 66.7685 82.1444C66.6587 82.3089 66.6 82.5022 66.6 82.7C66.6 82.9652 66.7054 83.2196 66.8929 83.4071C67.0804 83.5946 67.3348 83.7 67.6 83.7ZM68.6 21.7H54.6V23.7H68.6V21.7Z" fill="#4F545C"/>
<path d="M187.7 48.7C191.853 48.7 195.914 47.4684 199.367 45.1609C202.82 42.8534 205.512 39.5736 207.101 35.7363C208.691 31.8991 209.107 27.6767 208.296 23.6031C207.486 19.5295 205.486 15.7877 202.549 12.8508C199.612 9.91385 195.87 7.9138 191.797 7.10351C187.723 6.29322 183.501 6.70909 179.664 8.29853C175.826 9.88797 172.547 12.5796 170.239 16.033C167.932 19.4865 166.7 23.5466 166.7 27.7C166.7 33.2695 168.912 38.611 172.851 42.5492C176.789 46.4875 182.13 48.7 187.7 48.7Z" fill="#FCC22F"/>
<path d="M187.7 41.7C188.689 41.7 189.656 41.4068 190.478 40.8573C191.3 40.3079 191.941 39.527 192.319 38.6134C192.698 37.6998 192.797 36.6945 192.604 35.7245C192.411 34.7546 191.935 33.8637 191.236 33.1645C190.536 32.4652 189.645 31.989 188.675 31.7961C187.706 31.6031 186.7 31.7022 185.787 32.0806C184.873 32.459 184.092 33.0999 183.543 33.9221C182.993 34.7444 182.7 35.7111 182.7 36.7C182.7 37.3566 182.829 38.0068 183.081 38.6134C183.332 39.22 183.7 39.7712 184.164 40.2355C184.629 40.6998 185.18 41.0681 185.787 41.3194C186.393 41.5707 187.043 41.7 187.7 41.7ZM191.7 13.7H183.7V27.7H191.7V13.7Z" fill="#040505"/>
</svg>
