<svg width="156" height="136" viewBox="0 0 156 136" fill="none" xmlns="http://www.w3.org/2000/svg">
<path d="M40.7912 123.167H131.237C144.637 123.167 155.5 112.304 155.5 98.9043C155.5 85.5043 144.637 74.6423 131.237 74.6423H101.523C91.4512 74.6423 83.2862 66.4773 83.2862 56.4043C83.2862 46.3323 91.4512 38.1673 101.523 38.1673H108.624C115.162 38.1673 120.462 32.8673 120.462 26.3293C120.462 19.7913 115.162 14.4913 108.624 14.4913H28.1052C12.5832 14.4913 0.000183105 27.0743 0.000183105 42.5973C0.000183105 58.1183 12.5832 70.7023 28.1052 70.7023H42.7522C53.0542 70.7023 61.4062 79.0543 61.4062 89.3563C61.4062 99.6583 53.0542 108.011 42.7522 108.011H40.7912C36.6062 108.011 33.2132 111.403 33.2132 115.589C33.2132 119.773 36.6062 123.167 40.7912 123.167Z" fill="#4F545C" fill-opacity="0.3"/>
<path d="M143.075 67.7483V63.0503C143.075 62.4983 142.626 62.0503 142.075 62.0503H126.556V83.8273H142.075C142.626 83.8273 143.075 83.3793 143.075 82.8273V78.1293V67.7483ZM93.7956 11.4915C93.7956 12.0445 93.3476 12.4915 92.7956 12.4915H75.5736C75.0216 12.4915 74.5736 12.0445 74.5736 11.4915C74.5736 10.9385 75.0216 10.4915 75.5736 10.4915H92.7956C93.3476 10.4915 93.7956 10.9385 93.7956 11.4915ZM92.7956 18.4915H75.5736C75.0216 18.4915 74.5736 18.0445 74.5736 17.4915C74.5736 16.9385 75.0216 16.4915 75.5736 16.4915H92.7956C93.3476 16.4915 93.7956 16.9385 93.7956 17.4915C93.7956 18.0445 93.3476 18.4915 92.7956 18.4915ZM92.7956 24.4915H75.5736C75.0216 24.4915 74.5736 24.0445 74.5736 23.4915C74.5736 22.9385 75.0216 22.4915 75.5736 22.4915H92.7956C93.3476 22.4915 93.7956 22.9385 93.7956 23.4915C93.7956 24.0445 93.3476 24.4915 92.7956 24.4915ZM90.7056 3.41349C88.6196 2.47549 86.3916 2.00049 84.0836 2.00049C75.1646 2.00049 67.9086 9.25649 67.9086 18.1755C67.9086 21.1315 68.7316 24.0405 70.2886 26.5875C70.5296 26.9815 70.4686 27.4895 70.1426 27.8155L53.6266 44.3315L56.3236 44.0865H62.4726L74.4426 32.1165C74.7696 31.7895 75.2766 31.7295 75.6716 31.9705C78.2196 33.5265 81.1286 34.3495 84.0836 34.3495C93.0026 34.3495 100.259 27.0945 100.259 18.1755C100.259 13.7455 98.5026 9.61149 95.3146 6.53549C94.9276 6.16149 94.9136 5.55549 95.2666 5.15749C94.2706 4.30049 93.1786 3.55749 92.0036 2.94549C91.7646 3.42049 91.1956 3.63249 90.7056 3.41349ZM40.2531 83.8274V62.0504H24.9971C24.4441 62.0504 23.9971 62.4984 23.9971 63.0504V67.7484V78.1294V82.8274C23.9971 83.3804 24.4441 83.8274 24.9971 83.8274H40.2531Z" fill="#A0B2DC"/>
<path d="M117.005 80.0813C116.675 80.0813 116.342 79.9733 116.066 79.7493L111.953 76.4383C111.343 75.9483 111.003 75.2173 111.021 74.4343C111.039 73.6503 111.412 72.9353 112.045 72.4743L116.12 69.4913C116.788 69.0003 117.726 69.1463 118.216 69.8153C118.706 70.4833 118.56 71.4223 117.892 71.9113L114.341 74.5113L117.946 77.4133C118.592 77.9323 118.694 78.8763 118.174 79.5213C117.878 79.8903 117.443 80.0813 117.005 80.0813ZM105.482 78.8733C105.482 88.1143 97.9626 95.6323 88.7216 95.6323H77.1656C67.9246 95.6323 60.4066 88.1143 60.4066 78.8733V71.8693C60.4066 67.9383 63.6046 64.7403 67.5346 64.7403H88.2366C88.7896 64.7403 89.2366 65.1873 89.2366 65.7403H93.8506C93.8506 65.1873 94.2976 64.7403 94.8506 64.7403H98.3526C102.284 64.7403 105.482 67.9383 105.482 71.8693V78.8733ZM83.4046 129.167C78.4336 129.167 74.4046 125.138 74.4046 120.167C74.4046 115.196 78.4336 111.167 83.4046 111.167C88.3756 111.167 92.4046 115.196 92.4046 120.167C92.4046 125.138 88.3756 129.167 83.4046 129.167ZM54.1506 76.8093L50.0726 79.7923C49.8056 79.9873 49.4956 80.0813 49.1886 80.0813C48.7266 80.0813 48.2706 79.8683 47.9766 79.4673C47.4876 78.7983 47.6326 77.8593 48.3016 77.3703L51.8526 74.7723L48.2466 71.8693C47.6016 71.3503 47.4996 70.4053 48.0186 69.7613C48.5386 69.1163 49.4826 69.0143 50.1286 69.5333L54.2406 72.8453C54.8506 73.3353 55.1896 74.0653 55.1716 74.8493C55.1546 75.6313 54.7816 76.3463 54.1506 76.8093ZM124.557 60.1563C124.557 52.3973 118.245 46.0863 110.486 46.0863H56.3236C48.5656 46.0863 42.2536 52.3973 42.2536 60.1563V88.4553C42.2536 97.3383 63.7666 106.082 70.3606 108.551C71.2226 108.873 71.7106 109.731 71.5466 110.637C71.3816 111.546 70.6216 112.181 69.6966 112.181H68.9046C63.1146 112.181 58.4046 116.891 58.4046 122.681C58.4046 128.471 63.1146 133.181 68.9046 133.181H97.9046C103.694 133.181 108.405 128.471 108.405 122.681C108.405 116.891 103.694 112.181 97.9046 112.181C96.9626 112.181 96.1986 111.531 96.0486 110.602C95.8986 109.677 96.4156 108.824 97.3056 108.528C105.5 105.808 124.557 98.4033 124.557 88.4553V60.1563Z" fill="#7A8EC7"/>
<path d="M89.6188 78.0335C89.6188 78.8615 88.9478 79.5335 88.1188 79.5335C87.2898 79.5335 86.6188 78.8615 86.6188 78.0335C86.6188 77.2045 87.2898 76.5335 88.1188 76.5335C88.9478 76.5335 89.6188 77.2045 89.6188 78.0335ZM91.1188 72.5335C91.9478 72.5335 92.6188 73.2045 92.6188 74.0335C92.6188 74.8615 91.9478 75.5335 91.1188 75.5335C90.2898 75.5335 89.6188 74.8615 89.6188 74.0335C89.6188 73.2045 90.2898 72.5335 91.1188 72.5335ZM85.1188 83.5335C84.2898 83.5335 83.6188 82.8615 83.6188 82.0335C83.6188 81.2045 84.2898 80.5335 85.1188 80.5335C85.9478 80.5335 86.6188 81.2045 86.6188 82.0335C86.6188 82.8615 85.9478 83.5335 85.1188 83.5335ZM82.1188 87.5335C81.2898 87.5335 80.6188 86.8615 80.6188 86.0335C80.6188 85.2045 81.2898 84.5335 82.1188 84.5335C82.9478 84.5335 83.6188 85.2045 83.6188 86.0335C83.6188 86.8615 82.9478 87.5335 82.1188 87.5335ZM79.1188 83.5335C78.2898 83.5335 77.6188 82.8615 77.6188 82.0335C77.6188 81.2045 78.2898 80.5335 79.1188 80.5335C79.9478 80.5335 80.6188 81.2045 80.6188 82.0335C80.6188 82.8615 79.9478 83.5335 79.1188 83.5335ZM76.1188 79.5335C75.2898 79.5335 74.6188 78.8615 74.6188 78.0335C74.6188 77.2045 75.2898 76.5335 76.1188 76.5335C76.9478 76.5335 77.6188 77.2045 77.6188 78.0335C77.6188 78.8615 76.9478 79.5335 76.1188 79.5335ZM73.1188 75.5335C72.2898 75.5335 71.6188 74.8615 71.6188 74.0335C71.6188 73.2045 72.2898 72.5335 73.1188 72.5335C73.9478 72.5335 74.6188 73.2045 74.6188 74.0335C74.6188 74.8615 73.9478 75.5335 73.1188 75.5335ZM79.1188 72.5335C79.9478 72.5335 80.6188 73.2045 80.6188 74.0335C80.6188 74.8615 79.9478 75.5335 79.1188 75.5335C78.2898 75.5335 77.6188 74.8615 77.6188 74.0335C77.6188 73.2045 78.2898 72.5335 79.1188 72.5335ZM82.1188 76.5335C82.9478 76.5335 83.6188 77.2045 83.6188 78.0335C83.6188 78.8615 82.9478 79.5335 82.1188 79.5335C81.2898 79.5335 80.6188 78.8615 80.6188 78.0335C80.6188 77.2045 81.2898 76.5335 82.1188 76.5335ZM85.1188 72.5335C85.9478 72.5335 86.6188 73.2045 86.6188 74.0335C86.6188 74.8615 85.9478 75.5335 85.1188 75.5335C84.2898 75.5335 83.6188 74.8615 83.6188 74.0335C83.6188 73.2045 84.2898 72.5335 85.1188 72.5335ZM88.2368 66.7405H67.5348C64.7068 66.7405 62.4068 69.0415 62.4068 71.8695V78.8735C62.4068 87.0115 69.0278 93.6325 77.1658 93.6325H88.7218C96.8598 93.6325 103.481 87.0115 103.481 78.8735V71.8695C103.481 69.0415 101.181 66.7405 98.3528 66.7405H94.8498C94.2978 66.7405 93.8498 66.2935 93.8498 65.7405H89.2368C89.2368 66.2935 88.7888 66.7405 88.2368 66.7405Z" fill="#C2D2F1"/>
<path d="M98.3527 64.7405H94.8507C94.2977 64.7405 93.8507 65.1875 93.8507 65.7405C93.8507 66.2935 94.2977 66.7405 94.8507 66.7405H98.3527C101.181 66.7405 103.481 69.0415 103.481 71.8695V78.8735C103.481 87.0115 96.8597 93.6325 88.7217 93.6325H77.1657C69.0277 93.6325 62.4067 87.0115 62.4067 78.8735V71.8695C62.4067 69.0415 64.7067 66.7405 67.5347 66.7405H88.2367C88.7887 66.7405 89.2367 66.2935 89.2367 65.7405C89.2367 65.1875 88.7897 64.7405 88.2367 64.7405H67.5347C63.6037 64.7405 60.4067 67.9385 60.4067 71.8695V78.8735C60.4067 88.1145 67.9247 95.6325 77.1657 95.6325H88.7217C97.9627 95.6325 105.481 88.1145 105.481 78.8735V71.8695C105.481 67.9385 102.284 64.7405 98.3527 64.7405ZM74.5734 11.4915C74.5734 12.0445 75.0214 12.4915 75.5734 12.4915H92.7954C93.3474 12.4915 93.7954 12.0445 93.7954 11.4915C93.7954 10.9385 93.3474 10.4915 92.7954 10.4915H75.5734C75.0214 10.4915 74.5734 10.9385 74.5734 11.4915ZM92.7956 22.4915H75.5736C75.0216 22.4915 74.5736 22.9385 74.5736 23.4915C74.5736 24.0445 75.0216 24.4915 75.5736 24.4915H92.7956C93.3476 24.4915 93.7956 24.0445 93.7956 23.4915C93.7956 22.9385 93.3476 22.4915 92.7956 22.4915ZM92.7956 16.4915H75.5736C75.0216 16.4915 74.5736 16.9385 74.5736 17.4915C74.5736 18.0445 75.0216 18.4915 75.5736 18.4915H92.7956C93.3476 18.4915 93.7956 18.0445 93.7956 17.4915C93.7956 16.9385 93.3476 16.4915 92.7956 16.4915ZM83.4045 111.167C78.4335 111.167 74.4045 115.196 74.4045 120.167C74.4045 125.138 78.4335 129.167 83.4045 129.167C88.3755 129.167 92.4045 125.138 92.4045 120.167C92.4045 115.196 88.3755 111.167 83.4045 111.167Z" fill="#202225"/>
<path fill-rule="evenodd" clip-rule="evenodd" d="M83.4045 111.167C78.4335 111.167 74.4045 115.196 74.4045 120.167C74.4045 125.138 78.4335 129.167 83.4045 129.167C88.3755 129.167 92.4045 125.138 92.4045 120.167C92.4045 115.196 88.3755 111.167 83.4045 111.167Z" fill="#1FAF52"/>
<path d="M82.3542 123.184V117.15C82.3542 116.739 81.8862 116.503 81.5562 116.748L77.4922 119.766C77.2232 119.965 77.2232 120.369 77.4922 120.569L81.5562 123.585C81.8862 123.83 82.3542 123.595 82.3542 123.184ZM85.253 123.585L89.3161 120.568C89.5861 120.368 89.5861 119.965 89.3161 119.766L85.253 116.748C84.923 116.503 84.4551 116.738 84.4551 117.149V123.184C84.4551 123.595 84.923 123.83 85.253 123.585Z" fill="#1DDA60"/>
<path d="M73.1188 72.5335C72.2898 72.5335 71.6188 73.2045 71.6188 74.0335C71.6188 74.8615 72.2898 75.5335 73.1188 75.5335C73.9478 75.5335 74.6188 74.8615 74.6188 74.0335C74.6188 73.2045 73.9478 72.5335 73.1188 72.5335ZM79.1188 75.5335C79.9478 75.5335 80.6188 74.8615 80.6188 74.0335C80.6188 73.2045 79.9478 72.5335 79.1188 72.5335C78.2898 72.5335 77.6188 73.2045 77.6188 74.0335C77.6188 74.8615 78.2898 75.5335 79.1188 75.5335ZM85.1188 75.5335C85.9478 75.5335 86.6188 74.8615 86.6188 74.0335C86.6188 73.2045 85.9478 72.5335 85.1188 72.5335C84.2898 72.5335 83.6188 73.2045 83.6188 74.0335C83.6188 74.8615 84.2898 75.5335 85.1188 75.5335ZM91.1188 75.5335C91.9478 75.5335 92.6188 74.8615 92.6188 74.0335C92.6188 73.2045 91.9478 72.5335 91.1188 72.5335C90.2898 72.5335 89.6188 73.2045 89.6188 74.0335C89.6188 74.8615 90.2898 75.5335 91.1188 75.5335ZM76.1188 76.5335C75.2898 76.5335 74.6188 77.2045 74.6188 78.0335C74.6188 78.8615 75.2898 79.5335 76.1188 79.5335C76.9478 79.5335 77.6188 78.8615 77.6188 78.0335C77.6188 77.2045 76.9478 76.5335 76.1188 76.5335ZM82.1188 79.5335C82.9478 79.5335 83.6188 78.8615 83.6188 78.0335C83.6188 77.2045 82.9478 76.5335 82.1188 76.5335C81.2898 76.5335 80.6188 77.2045 80.6188 78.0335C80.6188 78.8615 81.2898 79.5335 82.1188 79.5335ZM86.6188 78.0335C86.6188 78.8615 87.2898 79.5335 88.1188 79.5335C88.9478 79.5335 89.6188 78.8615 89.6188 78.0335C89.6188 77.2045 88.9478 76.5335 88.1188 76.5335C87.2898 76.5335 86.6188 77.2045 86.6188 78.0335ZM79.1188 80.5335C78.2898 80.5335 77.6188 81.2045 77.6188 82.0335C77.6188 82.8615 78.2898 83.5335 79.1188 83.5335C79.9478 83.5335 80.6188 82.8615 80.6188 82.0335C80.6188 81.2045 79.9478 80.5335 79.1188 80.5335ZM85.1188 80.5335C84.2898 80.5335 83.6188 81.2045 83.6188 82.0335C83.6188 82.8615 84.2898 83.5335 85.1188 83.5335C85.9478 83.5335 86.6188 82.8615 86.6188 82.0335C86.6188 81.2045 85.9478 80.5335 85.1188 80.5335ZM82.1188 84.5335C81.2898 84.5335 80.6188 85.2045 80.6188 86.0335C80.6188 86.8615 81.2898 87.5335 82.1188 87.5335C82.9478 87.5335 83.6188 86.8615 83.6188 86.0335C83.6188 85.2045 82.9478 84.5335 82.1188 84.5335ZM131.763 133.181H125.556C125.004 133.181 124.556 133.628 124.556 134.181C124.556 134.734 125.004 135.181 125.556 135.181H131.763C132.315 135.181 132.763 134.734 132.763 134.181C132.763 133.628 132.315 133.181 131.763 133.181ZM137.679 31.9251C137.935 31.9251 138.191 31.8271 138.386 31.6321L139.569 30.4481C139.96 30.0581 139.96 29.4251 139.569 29.0341C139.179 28.6441 138.545 28.6441 138.155 29.0341L136.972 30.2181C136.581 30.6091 136.581 31.2411 136.972 31.6321C137.167 31.8271 137.423 31.9251 137.679 31.9251ZM131.763 37.8411C132.019 37.8411 132.275 37.7431 132.47 37.5481L133.654 36.3641C134.044 35.9741 134.044 35.3411 133.654 34.9501C133.263 34.5601 132.63 34.5601 132.24 34.9501L131.056 36.1341C130.665 36.5251 130.665 37.1571 131.056 37.5481C131.251 37.7431 131.507 37.8411 131.763 37.8411ZM138.155 37.5481C138.35 37.7431 138.606 37.8411 138.862 37.8411C139.118 37.8411 139.374 37.7431 139.569 37.5481C139.96 37.1571 139.96 36.5251 139.569 36.1341L138.386 34.9501C137.995 34.5601 137.363 34.5601 136.972 34.9501C136.581 35.3411 136.581 35.9741 136.972 36.3641L138.155 37.5481ZM132.239 31.6321C132.434 31.8271 132.69 31.9251 132.946 31.9251C133.202 31.9251 133.458 31.8271 133.653 31.6321C134.044 31.2411 134.044 30.6091 133.653 30.2181L132.469 29.0341C132.079 28.6441 131.446 28.6441 131.055 29.0341C130.665 29.4251 130.665 30.0581 131.055 30.4481L132.239 31.6321ZM133.333 103.499H131.823V101.989C131.823 101.436 131.375 100.989 130.823 100.989C130.271 100.989 129.823 101.436 129.823 101.989V103.499H128.313C127.761 103.499 127.313 103.946 127.313 104.499C127.313 105.052 127.761 105.499 128.313 105.499H129.823V107.01C129.823 107.562 130.271 108.01 130.823 108.01C131.375 108.01 131.823 107.562 131.823 107.01V105.499H133.333C133.885 105.499 134.333 105.052 134.333 104.499C134.333 103.946 133.885 103.499 133.333 103.499ZM29.6149 40.7591H31.1249V42.2701C31.1249 42.8221 31.5729 43.2701 32.1249 43.2701C32.6779 43.2701 33.1249 42.8221 33.1249 42.2701V40.7591H34.6349C35.1869 40.7591 35.6349 40.3121 35.6349 39.7591C35.6349 39.2061 35.1869 38.7591 34.6349 38.7591H33.1249V37.2491C33.1249 36.6971 32.6779 36.2491 32.1249 36.2491C31.5729 36.2491 31.1249 36.6971 31.1249 37.2491V38.7591H29.6149C29.0629 38.7591 28.6149 39.2061 28.6149 39.7591C28.6149 40.3121 29.0629 40.7591 29.6149 40.7591ZM117.946 77.4134L116.369 76.1434C115.345 75.3194 115.382 73.7494 116.442 72.9734L117.891 71.9114C118.56 71.4224 118.705 70.4834 118.216 69.8154C117.726 69.1464 116.787 69.0004 116.12 69.4914L112.044 72.4744C111.412 72.9354 111.039 73.6504 111.021 74.4344C111.003 75.2174 111.342 75.9484 111.953 76.4384L116.065 79.7494C116.342 79.9734 116.675 80.0814 117.005 80.0814C117.443 80.0814 117.878 79.8904 118.174 79.5214C118.694 78.8764 118.592 77.9324 117.946 77.4134ZM50.1281 69.5335C49.4821 69.0135 48.5391 69.1165 48.0191 69.7615C47.4991 70.4055 47.6011 71.3495 48.2461 71.8695L49.8231 73.1385C50.8471 73.9635 50.8111 75.5345 49.7501 76.3105L48.3681 77.3215C47.7661 77.7625 47.5071 78.5805 47.8421 79.2465C48.1151 79.7905 48.6481 80.0815 49.1881 80.0815C49.4961 80.0815 49.8061 79.9875 50.0731 79.7925L54.1501 76.8085C54.7821 76.3455 55.1541 75.6315 55.1721 74.8485C55.1901 74.0655 54.8501 73.3355 54.2411 72.8455L50.1281 69.5335Z" fill="#202225"/>
<mask id="mask0" mask-type="alpha" maskUnits="userSpaceOnUse" x="21" y="0" width="125" height="136">
<path d="M21.997 0H145.076V135.181H21.997V0Z" fill="white"/>
</mask>
<g mask="url(#mask0)">
<path d="M23.9967 82.8274V78.1294H30.7077C31.8127 78.1294 32.7077 77.2344 32.7077 76.1294V69.7484C32.7077 68.6424 31.8127 67.7484 30.7077 67.7484H23.9967V63.0504C23.9967 62.4984 24.4447 62.0504 24.9967 62.0504H36.2527C38.4617 62.0504 40.2527 63.8414 40.2527 66.0504V79.8274C40.2527 82.0364 38.4617 83.8274 36.2527 83.8274H24.9967C24.4447 83.8274 23.9967 83.3804 23.9967 82.8274ZM97.3057 108.528C96.4157 108.824 95.8987 109.677 96.0487 110.601C96.1987 111.531 96.9617 112.181 97.9047 112.181C103.694 112.181 108.405 116.89 108.405 122.681C108.405 128.471 103.694 133.181 97.9047 133.181H68.9047C63.1147 133.181 58.4047 128.471 58.4047 122.681C58.4047 116.89 63.1147 112.181 68.9047 112.181H69.6967C70.6217 112.181 71.3817 111.546 71.5467 110.637C71.7107 109.731 71.2227 108.873 70.3607 108.551C63.7667 106.082 42.2527 97.3384 42.2527 88.4554V60.1564C42.2527 52.3974 48.5647 46.0864 56.3237 46.0864H110.486C118.245 46.0864 124.557 52.3974 124.557 60.1564V88.4554C124.557 98.4034 105.499 105.807 97.3057 108.528ZM142.076 83.8274H130.557C128.347 83.8274 126.557 82.0364 126.557 79.8274V66.0504C126.557 63.8414 128.347 62.0504 130.557 62.0504H142.076C142.628 62.0504 143.076 62.4984 143.076 63.0504V67.7484H136.364C135.259 67.7484 134.364 68.6424 134.364 69.7484V76.1294C134.364 77.2344 135.259 78.1294 136.364 78.1294H143.076V82.8274C143.076 83.3804 142.628 83.8274 142.076 83.8274ZM142.076 60.0504H128.973C127.674 60.0504 126.569 59.0994 126.381 57.8144C125.244 50.0594 118.551 44.0864 110.486 44.0864H69.8097C68.1457 44.0864 67.3117 42.0744 68.4887 40.8974L72.0277 37.3584C73.8377 35.5494 76.4927 34.8714 78.9467 35.6004C80.6097 36.0954 82.3387 36.3494 84.0827 36.3494C94.1047 36.3494 102.259 28.1964 102.259 18.1754C102.259 13.1974 100.286 8.55337 96.7037 5.09637C96.3067 4.71237 95.6737 4.72437 95.2887 5.12137C95.2787 5.13237 95.2757 5.14637 95.2667 5.15737C94.9137 5.55637 94.9277 6.16137 95.3147 6.53537C98.5027 9.61137 100.259 13.7454 100.259 18.1754C100.259 27.0944 93.0017 34.3494 84.0827 34.3494C81.1357 34.3494 78.2357 33.5314 75.6927 31.9824C75.2897 31.7374 74.7767 31.7824 74.4427 32.1164L64.7927 41.7654C63.3077 43.2514 61.2927 44.0864 59.1917 44.0864H56.5107C55.5887 44.0864 55.1257 42.9744 55.7737 42.3204L70.1427 27.8154C70.4757 27.4824 70.5207 26.9694 70.2757 26.5664C68.7267 24.0244 67.9087 21.1234 67.9087 18.1754C67.9087 9.25637 75.1637 2.00037 84.0827 2.00037C86.3917 2.00037 88.6197 2.47537 90.7057 3.41337C91.1957 3.63237 91.7647 3.42037 92.0037 2.94537C92.0097 2.93237 92.0217 2.92437 92.0277 2.91137C92.2547 2.40737 92.0297 1.81537 91.5257 1.58937C89.1807 0.534366 86.6767 0.000366211 84.0827 0.000366211C74.0617 0.000366211 65.9087 8.15337 65.9087 18.1754C65.9087 19.9194 66.1627 21.6484 66.6577 23.3104C67.3867 25.7644 66.7087 28.4204 64.8987 30.2294L52.2607 42.8684C50.8807 44.2484 49.4057 45.5424 47.7567 46.5864C43.8697 49.0454 41.1037 53.1194 40.4217 57.8624C40.2397 59.1314 39.1167 60.0504 37.8357 60.0504H24.9917C23.3347 60.0504 21.9967 61.3924 21.9967 63.0504V82.8274C21.9967 84.4844 23.3397 85.8274 24.9967 85.8274H37.6247C39.0767 85.8274 40.2527 87.0044 40.2527 88.4554C40.2527 97.7794 57.8647 105.94 68.9147 110.143C68.9357 110.151 68.9287 110.181 68.9067 110.181H68.9047C63.5877 110.181 58.7157 113.488 57.0737 118.544C55.6837 122.824 56.5557 126.936 58.7867 130.002C59.7497 131.327 58.8167 133.181 57.1787 133.181H35.3087C34.7567 133.181 34.3087 133.628 34.3087 134.181C34.3087 134.733 34.7567 135.181 35.3087 135.181H68.9047H97.9047H119.5C120.052 135.181 120.5 134.733 120.5 134.181C120.5 133.628 120.052 133.181 119.5 133.181H109.631C108.009 133.181 107.044 131.339 108.002 130.03C109.512 127.968 110.405 125.428 110.405 122.681C110.405 116.054 105.221 110.616 98.6937 110.205C98.6747 110.204 98.6687 110.181 98.6867 110.174C109.442 106.525 126.557 99.0514 126.557 88.4554C126.557 87.0044 127.733 85.8274 129.185 85.8274H142.076C143.732 85.8274 145.076 84.4844 145.076 82.8274V63.0504C145.076 61.3924 143.732 60.0504 142.076 60.0504Z" fill="#202225"/>
</g>
</svg>
