<svg width="90" height="90" viewBox="0 0 90 90" fill="none" xmlns="http://www.w3.org/2000/svg">
<g clip-path="url(#clip0)">
<path d="M78.7 74.1C77.7304 74.0961 76.7748 73.8686 75.9075 73.4349C75.0403 73.0013 74.2848 72.3734 73.7 71.6C72.3 69.6 69.5 66.2 64.8 60.9C64.2138 60.0179 63.9653 58.954 64.1004 57.9036C64.2354 56.8531 64.7448 55.8866 65.535 55.1814C66.3252 54.4763 67.3433 54.0799 68.4023 54.0649C69.4613 54.0499 70.4902 54.4175 71.3 55.1L77.3 62C77.3 61.2 77.4 60.3 77.4 59.3C77.4 58.1596 77.853 57.0658 78.6595 56.2594C79.4659 55.453 80.5596 55 81.7 55C82.8498 54.9997 83.9541 55.4495 84.7765 56.2532C85.5988 57.0568 86.0739 58.1505 86.1 59.3C86.1112 62.7815 85.64 66.2478 84.7 69.6C84.3765 70.701 83.7585 71.6928 82.9125 72.4682C82.0666 73.2436 81.025 73.7733 79.9 74L78.7 74.1Z" fill="#3F86E9"/>
<path d="M77.3001 62C77.2001 63.4 76.9001 64.9 76.8001 65.6C75.0001 63.3 73.6001 61.4 72.4001 60C72.273 59.819 72.1848 59.6136 72.141 59.3968C72.0972 59.18 72.0989 58.9565 72.1459 58.7404C72.1929 58.5243 72.2842 58.3202 72.414 58.1411C72.5438 57.9621 72.7093 57.8119 72.9001 57.7L73.4001 57.5L77.3001 62Z" fill="#0655B5"/>
<path d="M73.9001 58.1C70.4001 57.1 67.6001 58.7 66.4001 62.6L67.0001 63.5C68.8001 58.1 72.9001 58.5 74.6001 58.8L73.9001 58.1Z" fill="#17191F"/>
<path d="M77.2 62.3999V63.2999C75 63.0999 71.8 65.7999 72.2 69.4999L71.5 68.6999C71.2 64.7999 74.6 62.1999 77.2 62.3999Z" fill="#17191F"/>
<path d="M18.6001 74H17.5001C16.5113 73.8034 15.5924 73.3481 14.837 72.6806C14.0816 72.013 13.5168 71.1569 13.2001 70.1999C12.5001 67.8999 11.3001 63.8999 9.90008 58.0999C9.78575 57.0335 10.0648 55.9622 10.6849 55.0871C11.3049 54.212 12.2233 53.5935 13.2672 53.3479C14.3112 53.1022 15.409 53.2463 16.3542 53.7531C17.2994 54.2599 18.0269 55.0944 18.4001 56.0999C19.0001 58.4999 19.5001 60.5999 20.0001 62.2999L27.1001 54.9999C27.4993 54.5916 27.9776 54.2692 28.5057 54.0521C29.0338 53.835 29.6007 53.7278 30.1716 53.7372C30.7425 53.7465 31.3055 53.8721 31.8263 54.1064C32.347 54.3407 32.8144 54.6788 33.2001 55.0999C33.6022 55.4995 33.9213 55.9747 34.1391 56.4982C34.3569 57.0216 34.469 57.583 34.469 58.15C34.469 58.7169 34.3569 59.2782 34.1391 59.8017C33.9213 60.3251 33.6022 60.8003 33.2001 61.2C27.6001 66.7 24.6001 70.1999 23.0001 72.0999C22.4486 72.717 21.7693 73.2067 21.0095 73.5348C20.2496 73.8629 19.4275 74.0217 18.6001 74Z" fill="#3F86E9"/>
<path d="M27.1 54.8999L20 62.1999L20.6 64.9999L28.2 56.5999C28.3473 56.4811 28.4534 56.319 28.5033 56.1364C28.5532 55.9539 28.5443 55.7603 28.4779 55.5832C28.4114 55.406 28.2908 55.2543 28.1332 55.1496C27.9757 55.0449 27.7891 54.9925 27.6 54.9999L27.1 54.8999Z" fill="#0655B5"/>
<path d="M23.8001 58.2999C27.3001 57.3999 30.1001 59.2999 31.0001 63.2999L30.4001 64.0999C28.9001 58.5999 24.7001 58.6999 23.1001 58.8999L23.8001 58.2999Z" fill="#17191F"/>
<path d="M20.1001 62.8999L20.3001 63.7999C22.6001 63.6999 24.7001 64.9999 25.0001 69.5999L25.8001 68.7999C26.0001 64.2999 22.8001 62.7999 20.1001 62.8999Z" fill="#17191F"/>
<path d="M13.8 55.7999L12.8 53.8999L11.9 53.2999C11.1191 53.7778 10.5067 54.4875 10.1482 55.33C9.7897 56.1724 9.70294 57.1058 9.90001 57.9999C10.7 61.1999 11.4 63.7999 12 65.8999L12.8 68.6999C12.9167 69.091 13.1784 69.4227 13.5316 69.6272C13.8848 69.8317 14.3028 69.8934 14.7 69.7999L15.5 69.5999C15.7136 69.5535 15.9154 69.4639 16.093 69.3366C16.2706 69.2092 16.4202 69.0469 16.5327 68.8595C16.6451 68.6721 16.718 68.4636 16.7467 68.247C16.7755 68.0304 16.7596 67.8101 16.7 67.5999C15.9 64.7999 14.6 59.8999 13.8 55.7999Z" fill="#0655B5"/>
<path d="M68.7 59.4999C68.3575 58.3284 67.648 57.2977 66.6759 56.5597C65.7038 55.8216 64.5204 55.4151 63.3 55.3999H34.1C32.8795 55.4151 31.6962 55.8216 30.7241 56.5597C29.752 57.2977 29.0425 58.3284 28.7 59.4999L24.4 74.2999C23.3177 77.9265 23.6759 81.8307 25.4 85.1999C26.082 86.6377 27.1584 87.8522 28.5039 88.702C29.8494 89.5518 31.4086 90.0019 33 89.9999H64.4C65.9914 90.0019 67.5506 89.5518 68.8961 88.702C70.2415 87.8522 71.318 86.6377 72 85.1999C73.724 81.8307 74.0822 77.9265 73 74.2999L68.7 59.4999Z" fill="#FD735E"/>
<path d="M25.4 85.1999C26.082 86.6377 27.1585 87.8522 28.504 88.702C29.8494 89.5518 31.4087 90.0019 33 89.9999H64.4C65.9914 90.0019 67.5506 89.5518 68.8961 88.702C70.2416 87.8522 71.318 86.6377 72 85.1999C73.3001 82.6391 73.8215 79.7537 73.5 76.8999H23.9C23.5785 79.7537 24.1 82.6391 25.4 85.1999Z" fill="#D24242"/>
<path d="M68.9036 3.33946L24.1337 4.9811C18.3386 5.19359 13.813 10.0638 14.0255 15.8589L15.0178 42.9207C15.2303 48.7158 20.1004 53.2414 25.8955 53.0289L70.6654 51.3872C76.4605 51.1747 80.9861 46.3046 80.7736 40.5095L79.7813 13.4477C79.5688 7.65255 74.6987 3.12696 68.9036 3.33946Z" fill="#FD735E"/>
<path d="M80.7 35.7V40.4C80.8086 43.1687 79.8184 45.868 77.9452 47.9098C76.0721 49.9516 73.4678 51.1701 70.7 51.2999L26 53C24.6077 53.0534 23.2186 52.832 21.912 52.3482C20.6054 51.8644 19.407 51.1278 18.3854 50.1804C17.3637 49.2331 16.5389 48.0936 15.958 46.8272C15.3771 45.5608 15.0515 44.1923 15 42.7999V38.2C15.1043 40.9675 16.2978 43.5818 18.3206 45.4734C20.3434 47.3651 23.0317 48.381 25.8 48.2999L70.5 46.7C71.8923 46.6484 73.2608 46.3229 74.5272 45.742C75.7937 45.1611 76.9331 44.3362 77.8805 43.3146C78.8278 42.2929 79.5645 41.0944 80.0483 39.7878C80.5321 38.4813 80.7535 37.0922 80.7 35.7Z" fill="#D24242"/>
<path d="M43.1421 44.8859L53.3421 44.4779C53.9091 44.481 54.4531 44.7027 54.8607 45.0969C55.2683 45.4911 55.5081 46.0273 55.5301 46.5939L55.7381 51.7939L41.2381 52.3739L41.0301 47.1739C41.0068 46.5904 41.2162 46.0216 41.6123 45.5925C42.0084 45.1634 42.5587 44.9092 43.1421 44.8859Z" fill="#FFF993"/>
<path d="M55.4033 47.2344L40.9131 47.7657L41.0838 52.4226L55.5741 51.8912L55.4033 47.2344Z" fill="#FDDB5E"/>
<path d="M80.7 36.5998L80 17.2C81.2824 17.9955 82.3469 19.0975 83.0975 20.4067C83.8481 21.7159 84.2614 23.1913 84.3 24.7V28.7999C84.4069 30.2982 84.1329 31.7992 83.5034 33.1631C82.8739 34.5269 81.9095 35.7092 80.7 36.5998Z" fill="#FFF993"/>
<path d="M84.3001 25.6V28.8C84.3959 30.3072 84.1065 31.8141 83.4592 33.1786C82.8119 34.5432 81.828 35.7206 80.6001 36.6L80.4001 30.4C82.9001 29.3 84.4001 27.5 84.3001 25.6Z" fill="#FDDB5E"/>
<path d="M14.9 39.1L14.2 19.6C12.9803 20.4933 11.9968 21.6705 11.3347 23.0297C10.6725 24.3888 10.3517 25.8889 10.4 27.4L10.6 31.6C10.6643 33.103 11.0884 34.5686 11.8366 35.8736C12.5849 37.1787 13.6354 38.2852 14.9 39.1Z" fill="#FFF993"/>
<path d="M14.7001 32.8999L14.9001 39.0999C13.6356 38.2851 12.585 37.1786 11.8368 35.8736C11.0885 34.5685 10.6644 33.1029 10.6001 31.5999L10.4001 28.2999C10.5001 30.1999 12.1001 31.8999 14.7001 32.8999Z" fill="#FDDB5E"/>
<path d="M38.5621 0.505964L56.0621 -0.194036C56.566 -0.214193 57.0573 -0.0333452 57.4278 0.308721C57.7984 0.650787 58.0179 1.12605 58.0381 1.62996L58.1141 3.52996L36.9141 4.37796L36.8381 2.47796C36.8179 1.99094 36.9856 1.51476 37.3064 1.14779C37.6272 0.780812 38.0767 0.551053 38.5621 0.505964Z" fill="#4086EA"/>
<path d="M41.2834 0.586319L56.1734 0.0403275C56.624 0.023806 57.0627 0.186948 57.3929 0.493863C57.7232 0.800779 57.9181 1.22632 57.9346 1.67689L58.0079 3.67555L39.7202 4.34613L39.6469 2.34747C39.6303 1.8969 39.7935 1.45823 40.1004 1.12795C40.4073 0.797672 40.8329 0.602841 41.2834 0.586319Z" fill="#4086EA"/>
<path d="M67.6014 11.4963L29.2272 12.9034C26.3021 13.0107 24.0177 15.469 24.125 18.3941L24.7336 34.9929C24.8409 37.9181 27.2991 40.2024 30.2243 40.0952L68.5985 38.6881C71.5236 38.5808 73.808 36.1225 73.7007 33.1974L73.0921 16.5986C72.9848 13.6734 70.5266 11.3891 67.6014 11.4963Z" fill="#1A1C1F"/>
<path d="M67.5611 10.3971L29.1869 11.8042C26.2618 11.9115 23.9774 14.3697 24.0847 17.2949L24.6933 33.8937C24.8006 36.8188 27.2589 39.1032 30.184 38.9959L68.5582 37.5888C71.4833 37.4815 73.7677 35.0233 73.6604 32.0982L73.0518 15.4993C72.9445 12.5742 70.4863 10.2898 67.5611 10.3971Z" fill="#212126"/>
<path d="M34.6917 26.4509L36.6903 26.3776C38.4565 26.3129 39.8357 24.8286 39.7709 23.0625L39.7684 22.9926C39.7036 21.2264 38.2194 19.8472 36.4532 19.912L34.4546 19.9853C32.6885 20.05 31.3092 21.5343 31.374 23.3004L31.3766 23.3703C31.4413 25.1365 32.9256 26.5157 34.6917 26.4509Z" fill="#FFF993"/>
<path d="M61.146 25.4139L62.9448 25.3479C64.711 25.2832 66.0902 23.7989 66.0254 22.0328L66.0229 21.9629C65.9581 20.1967 64.4739 18.8175 62.7077 18.8823L60.909 18.9482C59.1428 19.013 57.7636 20.4972 57.8284 22.2633L57.8309 22.3333C57.8957 24.0994 59.3799 25.4787 61.146 25.4139Z" fill="#FFF993"/>
<path d="M56.0001 55.3999H41.4002L39.4002 65.5999C39.3524 65.829 39.359 66.0661 39.4193 66.2922C39.4796 66.5184 39.5921 66.7273 39.7475 66.9022C39.903 67.0771 40.0973 67.2132 40.3148 67.2996C40.5323 67.3861 40.767 67.4204 41.0001 67.3999H56.4002C56.6282 67.4017 56.854 67.3547 57.0624 67.2621C57.2708 67.1694 57.457 67.0333 57.6086 66.8629C57.7601 66.6924 57.8734 66.4916 57.9409 66.2737C58.0085 66.0559 58.0287 65.8261 58.0001 65.5999L56.0001 55.3999Z" fill="#FFF993"/>
<path d="M46.4002 29.7L46.0002 29.5C45.9296 29.4512 45.8703 29.3878 45.8263 29.3141C45.7823 29.2404 45.7546 29.1581 45.7451 29.0728C45.7356 28.9875 45.7446 28.9011 45.7713 28.8196C45.7981 28.738 45.842 28.6631 45.9002 28.6C47.3771 27.1486 49.2758 26.2023 51.3238 25.8969C53.3719 25.5915 55.4641 25.9426 57.3002 26.9C57.3845 26.916 57.4633 26.9535 57.5289 27.0087C57.5946 27.064 57.6449 27.1353 57.6751 27.2157C57.7052 27.296 57.7141 27.3828 57.701 27.4676C57.6879 27.5525 57.6532 27.6325 57.6002 27.7C57.5678 27.7726 57.5213 27.838 57.4634 27.8925C57.4055 27.947 57.3373 27.9894 57.2629 28.0173C57.1885 28.0452 57.1092 28.0581 57.0298 28.0551C56.9504 28.0521 56.8723 28.0334 56.8002 28C55.2076 27.1543 53.3851 26.8435 51.6022 27.1137C49.8194 27.3838 48.1708 28.2205 46.9002 29.5L46.4002 29.7Z" fill="#FFF993"/>
<path d="M83.8002 6.69993L82.8002 9.39993C82.728 9.49621 82.6929 9.61532 82.7015 9.73537C82.71 9.85543 82.7615 9.96838 82.8466 10.0534C82.9317 10.1385 83.0447 10.1901 83.1648 10.1986C83.2848 10.2072 83.4039 10.1721 83.5002 10.0999L86.2002 9.09993H86.6002L89.3002 10.0999C89.7002 10.2999 90.1002 9.79993 90.0002 9.39993L88.9002 6.69993V6.29993L90.0002 3.59993C90.1002 3.19993 89.7002 2.69993 89.3002 2.89993L86.6002 3.99993H86.2002L83.5002 2.89993C83.4039 2.82771 83.2848 2.79265 83.1648 2.80119C83.0447 2.80972 82.9317 2.86127 82.8466 2.94638C82.7615 3.03148 82.71 3.14443 82.7015 3.26448C82.6929 3.38454 82.728 3.50364 82.8002 3.59993L83.8002 6.29993C83.8494 6.35493 83.8766 6.42614 83.8766 6.49993C83.8766 6.57372 83.8494 6.64493 83.8002 6.69993Z" fill="#FF78BA"/>
<path d="M3.00008 72L0.300076 73.1C0.217566 73.1547 0.149883 73.229 0.103062 73.3162C0.0562412 73.4035 0.0317383 73.501 0.0317383 73.6C0.0317383 73.699 0.0562412 73.7965 0.103062 73.8837C0.149883 73.9709 0.217566 74.0452 0.300076 74.1L3.00008 75.3L3.20008 75.6L4.40008 78.2C4.45481 78.2825 4.52911 78.3502 4.61635 78.397C4.70359 78.4438 4.80106 78.4683 4.90008 78.4683C4.99909 78.4683 5.09656 78.4438 5.1838 78.397C5.27105 78.3502 5.34534 78.2825 5.40008 78.2L6.60008 75.6L6.80008 75.3L9.50008 74.1C9.58259 74.0452 9.65027 73.9709 9.69709 73.8837C9.74391 73.7965 9.76841 73.699 9.76841 73.6C9.76841 73.501 9.74391 73.4035 9.69709 73.3162C9.65027 73.229 9.58259 73.1547 9.50008 73.1L6.80008 72L6.60008 71.7L5.40008 69C5.34534 68.9175 5.27105 68.8498 5.1838 68.803C5.09656 68.7561 4.99909 68.7316 4.90008 68.7316C4.80106 68.7316 4.70359 68.7561 4.61635 68.803C4.52911 68.8498 4.45481 68.9175 4.40008 69L3.20008 71.7L3.00008 72Z" fill="#F480FF"/>
<path d="M80.8 56.9C80.8077 56.6826 80.866 56.47 80.9701 56.2791C81.0743 56.0881 81.2215 55.9241 81.4 55.8L85.9 53.2C86.0285 53.1116 86.1744 53.0515 86.3279 53.0238C86.4813 52.996 86.639 53.0012 86.7903 53.0391C86.9416 53.0769 87.0831 53.1465 87.2055 53.2432C87.3279 53.3399 87.4283 53.4615 87.5 53.6C87.5884 53.7285 87.6485 53.8743 87.6762 54.0278C87.704 54.1812 87.6988 54.3389 87.6609 54.4902C87.6231 54.6415 87.5535 54.783 87.4568 54.9054C87.3601 55.0278 87.2385 55.1282 87.1 55.2L82.6 57.9C82.3328 58.0504 82.018 58.0928 81.7204 58.0184C81.4229 57.944 81.1651 57.7585 81 57.5C80.8885 57.3178 80.8201 57.1126 80.8 56.9Z" fill="#17191F"/>
<path d="M81.2001 57.8C81.0631 57.6528 80.9571 57.4796 80.8884 57.2906C80.8197 57.1017 80.7897 56.9008 80.8001 56.7L81.6001 51.5C81.6495 51.1995 81.8112 50.9289 82.0526 50.7432C82.294 50.5575 82.597 50.4706 82.9001 50.5C83.0587 50.5242 83.2108 50.5799 83.3475 50.6638C83.4841 50.7478 83.6026 50.8583 83.6958 50.9888C83.789 51.1193 83.8551 51.2672 83.8902 51.4237C83.9253 51.5802 83.9287 51.7422 83.9001 51.9L83.2001 57C83.176 57.1586 83.1202 57.3107 83.0363 57.4473C82.9523 57.584 82.8418 57.7024 82.7113 57.7957C82.5808 57.8889 82.4329 57.955 82.2764 57.9901C82.1199 58.0252 81.958 58.0286 81.8001 58L81.2001 57.8Z" fill="#17191F"/>
<path d="M13.3 55.7C13.1122 55.6283 12.9477 55.5064 12.8243 55.3478C12.7009 55.1891 12.6233 54.9997 12.6 54.8L12 49.6C11.9706 49.2969 12.0575 48.9939 12.2432 48.7525C12.4289 48.5111 12.6995 48.3493 13 48.3C13.1578 48.2714 13.3198 48.2748 13.4763 48.3099C13.6328 48.345 13.7807 48.4111 13.9112 48.5043C14.0417 48.5976 14.1522 48.716 14.2362 48.8527C14.3201 48.9893 14.3758 49.1414 14.4 49.3L15 54.5C15.0296 54.6602 15.0233 54.8251 14.9815 54.9826C14.9397 55.1401 14.8633 55.2863 14.7581 55.4107C14.6528 55.5351 14.5212 55.6346 14.3728 55.7019C14.2244 55.7692 14.0629 55.8027 13.9 55.8C13.7989 55.8295 13.6924 55.8359 13.5886 55.8186C13.4847 55.8013 13.386 55.7607 13.3 55.7Z" fill="#17191F"/>
<path d="M14.2001 55.8C13.7891 55.8836 13.3617 55.8124 13.0001 55.6L9.00011 52.2C8.76141 51.9878 8.61678 51.6895 8.59803 51.3707C8.57927 51.0519 8.68793 50.7387 8.90011 50.5C9.11228 50.2613 9.41059 50.1167 9.7294 50.0979C10.0482 50.0792 10.3614 50.1878 10.6001 50.4L14.6001 53.7C14.7188 53.8047 14.8156 53.9319 14.8849 54.0742C14.9542 54.2165 14.9946 54.3712 15.0039 54.5292C15.0132 54.6872 14.9912 54.8455 14.939 54.9949C14.8869 55.1444 14.8057 55.282 14.7001 55.4C14.5818 55.5845 14.4061 55.7251 14.2001 55.8Z" fill="#17191F"/>
<path d="M14.8002 55.2999C14.7022 55.4734 14.5547 55.6137 14.3766 55.7028C14.1984 55.7918 13.9977 55.8257 13.8002 55.7999L8.50015 55.5998C8.19953 55.5747 7.91941 55.4374 7.71556 55.215C7.51172 54.9926 7.3991 54.7016 7.40015 54.4C7.40015 54.0817 7.52658 53.7764 7.75163 53.5513C7.97667 53.3263 8.28189 53.2 8.60015 53.2L13.9002 53.5C14.0534 53.4993 14.2051 53.5306 14.3456 53.592C14.486 53.6535 14.612 53.7437 14.7156 53.8566C14.8191 53.9696 14.898 54.1029 14.947 54.2481C14.996 54.3934 15.0141 54.5473 15.0002 54.7C14.9801 54.9126 14.9117 55.1178 14.8002 55.2999Z" fill="#17191F"/>
<path d="M81.1001 56.0999C81.2112 55.9447 81.3645 55.8246 81.5416 55.7537C81.7188 55.6829 81.9126 55.6642 82.1001 55.6999L87.3001 56.2999C87.6272 56.3495 87.923 56.5219 88.1274 56.782C88.3318 57.0421 88.4293 57.3704 88.4001 57.6999C88.3759 57.8584 88.3202 58.0105 88.2363 58.1472C88.1523 58.2839 88.0418 58.4023 87.9113 58.4955C87.7808 58.5888 87.6329 58.6549 87.4764 58.69C87.3199 58.7251 87.1579 58.7284 87.0001 58.6999L81.9001 57.9999C81.7372 58.0026 81.5757 57.9691 81.4273 57.9017C81.2789 57.8344 81.1473 57.735 81.042 57.6106C80.9368 57.4862 80.8604 57.3399 80.8186 57.1824C80.7768 57.0249 80.7705 56.8601 80.8001 56.6999C80.819 56.4687 80.9265 56.2537 81.1001 56.0999Z" fill="#17191F"/>
<path d="M34 31.2L32 27.2L29.9 31.2C29.6696 31.6337 29.5842 32.1299 29.6562 32.6157C29.7282 33.1014 29.9538 33.5516 30.3 33.9C30.5064 34.134 30.7603 34.3215 31.0448 34.45C31.3293 34.5784 31.6379 34.6447 31.95 34.6447C32.2621 34.6447 32.5707 34.5784 32.8552 34.45C33.1396 34.3215 33.3935 34.134 33.6 33.9C33.9462 33.5516 34.1718 33.1014 34.2438 32.6157C34.3158 32.1299 34.2303 31.6337 34 31.2Z" fill="#698BE5"/>
<path d="M82.4001 63.5C79.8001 63.6 77.3001 62 77.4001 60.1V61.2C77.2001 63.4 80.3001 64.7 82.5001 64.6C83.3045 64.5157 84.0659 64.1954 84.6887 63.6794C85.3115 63.1634 85.7678 62.4747 86.0001 61.7V61.2C85.6606 61.8703 85.1475 62.4373 84.5143 62.8419C83.8811 63.2464 83.151 63.4737 82.4001 63.5Z" fill="#17191F"/>
<path d="M84.1 70.9999C83.713 71.4232 83.2278 71.7449 82.6873 71.9368C82.1467 72.1286 81.5673 72.1846 81 72.0999C79.3 71.9999 76 69.9999 76.5 66.7999L76.3 67.9999C76.2454 68.6254 76.3167 69.2555 76.5097 69.8529C76.7027 70.4504 77.0134 71.0032 77.4236 71.4786C77.8337 71.954 78.335 72.3424 78.8977 72.6208C79.4604 72.8993 80.0733 73.0622 80.7 73.0999C81.4034 73.0891 82.0909 72.8882 82.6894 72.5185C83.288 72.1488 83.7754 71.624 84.1 70.9999Z" fill="#17191F"/>
<path d="M14.4001 61.0998C16.9001 60.5998 19.1001 58.6 18.6001 56.7L18.8001 57.7999C19.5001 59.8999 16.7001 61.8 14.6001 62.2C13.7732 62.2823 12.9399 62.1286 12.1966 61.757C11.4533 61.3853 10.8305 60.8108 10.4001 60.0998V59.5C10.8799 60.0799 11.4974 60.5302 12.1962 60.8097C12.895 61.0893 13.6528 61.1889 14.4001 61.0998Z" fill="#17191F"/>
<path d="M12.2002 66.5999C12.5302 67.0547 12.9679 67.4207 13.4739 67.665C13.98 67.9093 14.5388 68.0244 15.1002 67.9999C16.8002 68.0999 20.3002 66.5999 20.2002 63.2999V64.4999C20.1227 65.7821 19.5448 66.9826 18.591 67.8429C17.6371 68.7033 16.3836 69.1547 15.1002 69.0999C14.4426 68.9677 13.8303 68.6682 13.3223 68.2303C12.8143 67.7923 12.4278 67.2308 12.2002 66.5999Z" fill="#17191F"/>
</g>
<defs>
<clipPath id="clip0">
<rect width="90" height="90" fill="white"/>
</clipPath>
</defs>
</svg>
