<svg width="400" height="220" viewBox="0 0 400 220" fill="none" xmlns="http://www.w3.org/2000/svg">
<g clip-path="url(#clip0)">
<path fill-rule="evenodd" clip-rule="evenodd" d="M3.80298 161.11V161.113C3.80298 186.308 24.228 206.733 49.423 206.733H353.857C377.24 206.733 396.197 187.777 396.197 164.393V161.34C396.197 137.956 377.24 119 353.857 119H353.856C337.873 119 324.916 106.043 324.916 90.0599V90.0569C324.916 74.0739 337.873 61.1169 353.856 61.1169H364.624C376.73 61.1169 386.544 51.3029 386.544 39.1969V39.1889C386.544 27.0829 376.73 17.2689 364.624 17.2689H149.792C122.669 17.2689 100.682 39.2559 100.682 66.3789V66.3799C100.682 93.5029 78.695 115.49 51.572 115.49H49.423C24.228 115.49 3.80298 135.915 3.80298 161.11Z" fill="#4F545C" fill-opacity="0.3"/>
<rect x="51.448" y="79.5433" width="199.602" height="119.019" fill="#36393F"/>
<path fill-rule="evenodd" clip-rule="evenodd" d="M252.05 194H281.901V190H252.05V194Z" fill="#303338"/>
<ellipse cx="78.5569" cy="160.257" rx="24.8015" ry="25.1647" fill="#2B2D31"/>
<path fill-rule="evenodd" clip-rule="evenodd" d="M288.401 218V207.355L287.261 207.308C286.208 207.308 285.231 206.992 284.401 206.465V213C284.401 213.552 283.953 214 283.401 214H227.413C226.861 214 226.413 213.552 226.413 213V199.675H222.413V218H288.401Z" fill="#303338"/>
<path fill-rule="evenodd" clip-rule="evenodd" d="M255.157 198.769C258.041 198.769 260.387 201.116 260.387 204C260.387 206.884 258.041 209.23 255.157 209.23C252.273 209.23 249.926 206.884 249.926 204C249.926 201.116 252.273 198.769 255.157 198.769ZM270.67 198.769C273.554 198.769 275.901 201.116 275.901 204C275.901 206.884 273.554 209.23 270.67 209.23C267.785 209.23 265.439 206.884 265.439 204C265.439 201.116 267.785 198.769 270.67 198.769ZM282.401 212V204.224C282.087 203.543 281.9 202.792 281.9 201.994V198.505V196H252.05V198.675C252.05 199.227 251.602 199.675 251.05 199.675H242.58C243.964 200.617 244.875 202.204 244.875 204C244.875 206.884 242.529 209.23 239.644 209.23C236.76 209.23 234.413 206.884 234.413 204C234.413 202.204 235.324 200.617 236.708 199.675H228.413V212H282.401Z" fill="#72767D"/>
<path fill-rule="evenodd" clip-rule="evenodd" d="M270.67 207.231C272.452 207.231 273.901 205.782 273.901 204.001C273.901 202.219 272.452 200.77 270.67 200.77C268.888 200.77 267.439 202.219 267.439 204.001C267.439 205.782 268.888 207.231 270.67 207.231Z" fill="#B1B9C7"/>
<path fill-rule="evenodd" clip-rule="evenodd" d="M251.926 204C251.926 205.781 253.375 207.23 255.157 207.23C256.938 207.23 258.387 205.781 258.387 204C258.387 202.218 256.938 200.769 255.157 200.769C253.375 200.769 251.926 202.218 251.926 204Z" fill="#2F4F6E"/>
<path fill-rule="evenodd" clip-rule="evenodd" d="M239.644 207.231C241.425 207.231 242.874 205.782 242.874 204.001C242.874 202.219 241.425 200.77 239.644 200.77C237.862 200.77 236.413 202.219 236.413 204.001C236.413 205.782 237.862 207.231 239.644 207.231Z" fill="#833431"/>
<path fill-rule="evenodd" clip-rule="evenodd" d="M296.046 162.514C295.494 162.514 295.046 162.066 295.046 161.514V137.514C295.046 136.962 295.494 136.514 296.046 136.514H336.046C336.598 136.514 337.046 136.962 337.046 137.514V161.514C337.046 162.066 336.598 162.514 336.046 162.514H296.046ZM316.046 133.553C316.598 133.553 317.046 134.001 317.046 134.553C317.046 135.105 316.598 135.553 316.046 135.553C315.494 135.553 315.046 135.105 315.046 134.553C315.046 134.001 315.494 133.553 316.046 133.553ZM329.046 164.514H348.177V155.767C347.219 155.686 346.462 154.889 346.462 153.911V151.423C346.417 151.309 346.388 151.187 346.388 151.057V147.441C346.388 147.218 346.475 147.022 346.598 146.856C346.856 146.214 347.459 145.754 348.177 145.693V135.831C348.177 133.977 346.669 132.47 344.816 132.47H287.247C285.394 132.47 283.886 133.977 283.886 135.831V164.514H322.683C323.235 164.514 323.683 164.962 323.683 165.514H328.046C328.046 164.962 328.494 164.514 329.046 164.514Z" fill="#2F3438"/>
<path fill-rule="evenodd" clip-rule="evenodd" d="M314.046 212.115H318.046V207.355H314.046V212.115Z" fill="#36393E"/>
<rect x="309.38" y="46.3728" width="55.5707" height="48.3522" fill="#67ADEA"/>
<path fill-rule="evenodd" clip-rule="evenodd" d="M305.27 217.785H326.821V214.116H305.27V217.785Z" fill="#4F545C"/>
<path fill-rule="evenodd" clip-rule="evenodd" d="M297.046 160.514H335.046V138.514H297.046V160.514Z" fill="#4F545C"/>
<rect x="286.523" y="185.855" width="9.90846" height="9.55552" fill="#1F2225"/>
<path fill-rule="evenodd" clip-rule="evenodd" d="M292.656 179.037C292.656 177.659 291.534 176.537 290.156 176.537C288.778 176.537 287.656 177.659 287.656 179.037C287.656 180.415 288.778 181.537 290.156 181.537C291.534 181.537 292.656 180.415 292.656 179.037Z" fill="#72767D"/>
<path fill-rule="evenodd" clip-rule="evenodd" d="M298.046 173.514C298.046 172.962 298.494 172.514 299.046 172.514H333.046C333.598 172.514 334.046 172.962 334.046 173.514V197.514C334.046 198.066 333.598 198.514 333.046 198.514H299.046C298.494 198.514 298.046 198.066 298.046 197.514V173.514ZM344.664 184.156C343.559 184.156 342.664 183.26 342.664 182.156C342.664 181.051 343.559 180.156 344.664 180.156C345.768 180.156 346.664 181.051 346.664 182.156C346.664 183.26 345.768 184.156 344.664 184.156ZM341.164 187.656C340.059 187.656 339.164 186.76 339.164 185.656C339.164 184.551 340.059 183.656 341.164 183.656C342.268 183.656 343.164 184.551 343.164 185.656C343.164 186.76 342.268 187.656 341.164 187.656ZM339.164 178.656C339.164 177.551 340.059 176.656 341.164 176.656C342.268 176.656 343.164 177.551 343.164 178.656C343.164 179.76 342.268 180.656 341.164 180.656C340.059 180.656 339.164 179.76 339.164 178.656ZM337.664 184.156C336.559 184.156 335.664 183.26 335.664 182.156C335.664 181.051 336.559 180.156 337.664 180.156C338.768 180.156 339.664 181.051 339.664 182.156C339.664 183.26 338.768 184.156 337.664 184.156ZM309.016 203.867H307.849C307.297 203.867 306.849 203.419 306.849 202.867C306.849 202.314 307.297 201.867 307.849 201.867H309.016C309.568 201.867 310.016 202.314 310.016 202.867C310.016 203.419 309.568 203.867 309.016 203.867ZM285.657 179.037C285.657 176.556 287.675 174.537 290.157 174.537C292.638 174.537 294.657 176.556 294.657 179.037C294.657 181.519 292.638 183.537 290.157 183.537C287.675 183.537 285.657 181.519 285.657 179.037ZM296.123 191.613C296.123 191.889 295.899 192.113 295.623 192.113H293.623C293.347 192.113 293.123 192.337 293.123 192.613V194.613C293.123 194.889 292.899 195.113 292.623 195.113H290.623C290.347 195.113 290.123 194.889 290.123 194.613V192.613C290.123 192.337 289.899 192.113 289.623 192.113H287.623C287.347 192.113 287.123 191.889 287.123 191.613V189.613C287.123 189.337 287.347 189.113 287.623 189.113H289.623C289.899 189.113 290.123 188.889 290.123 188.613V186.613C290.123 186.337 290.347 186.113 290.623 186.113H292.623C292.899 186.113 293.123 186.337 293.123 186.613V188.613C293.123 188.889 293.347 189.113 293.623 189.113H295.623C295.899 189.113 296.123 189.337 296.123 189.613V191.613ZM283.9 198.505C283.9 200.359 285.408 201.867 287.262 201.867H303.183C303.735 201.867 304.183 202.314 304.183 202.867C304.183 203.419 303.735 203.867 303.183 203.867H287.262C286.021 203.867 284.892 203.426 283.983 202.716C284.314 204.222 285.656 205.355 287.262 205.355H340.664V203.867H317.046C316.494 203.867 316.046 203.419 316.046 202.867C316.046 202.314 316.494 201.867 317.046 201.867H340.664V191C340.664 190.448 341.111 190 341.664 190H348.192V174.465V170.514H283.9V174.465V198.505Z" fill="#0093B2"/>
<path fill-rule="evenodd" clip-rule="evenodd" d="M300.046 196.514H332.046V174.514H300.046V196.514Z" fill="#4F545C"/>
<path fill-rule="evenodd" clip-rule="evenodd" d="M282.046 168.514H350.046C350.597 168.514 351.046 168.065 351.046 167.514C351.046 166.963 350.597 166.514 350.046 166.514H329.046C328.494 166.514 328.046 166.066 328.046 165.514H323.683C323.683 166.066 323.235 166.514 322.683 166.514H282.046C281.495 166.514 281.046 166.963 281.046 167.514C281.046 168.065 281.495 168.514 282.046 168.514Z" fill="#027DA3"/>
<path fill-rule="evenodd" clip-rule="evenodd" d="M356.016 192H342.663V213C342.663 215.757 344.907 218 347.663 218H359.663C362.42 218 364.663 215.757 364.663 213V192H359.89C359.337 192 358.89 191.552 358.89 191H357.016C357.016 191.552 356.568 192 356.016 192Z" fill="#98B0AC"/>
<path fill-rule="evenodd" clip-rule="evenodd" d="M148.057 77.514H152.057V74.219H148.057V77.514Z" fill="#4F545C"/>
<path fill-rule="evenodd" clip-rule="evenodd" d="M150.057 60.6826C152.617 60.6826 154.7 62.7656 154.7 65.3256C154.7 67.8856 152.617 69.9686 150.057 69.9686C147.497 69.9686 145.414 67.8856 145.414 65.3256C145.414 62.7656 147.497 60.6826 150.057 60.6826ZM156.95 70.7896V58.4326H143.164V72.2186H155.521C156.31 72.2186 156.95 71.5786 156.95 70.7896Z" fill="#4F545C"/>
<path fill-rule="evenodd" clip-rule="evenodd" d="M150.057 67.9683C151.515 67.9683 152.7 66.7823 152.7 65.3253C152.7 63.8683 151.515 62.6823 150.057 62.6823C148.6 62.6823 147.414 63.8683 147.414 65.3253C147.414 66.7823 148.6 67.9683 150.057 67.9683Z" fill="#36393F"/>
<path fill-rule="evenodd" clip-rule="evenodd" d="M136.057 206.215H169.057V199.675H136.057V206.215Z" fill="#72767D"/>
<path fill-rule="evenodd" clip-rule="evenodd" d="M251.05 77.675V77.514H154.058H152.058H148.058H146.058H51.066V77.675H251.05Z" fill="#4F545C"/>
<path fill-rule="evenodd" clip-rule="evenodd" d="M240.05 187.739V89.6748H62.0657V134.686C66.8007 131.557 72.267 129.93 78.355 129.93C94.897 129.93 108.153 143.388 108.153 159.93C108.153 172.632 100.416 183.37 89.243 187.739H240.05Z" fill="#1F2022"/>
<path fill-rule="evenodd" clip-rule="evenodd" d="M202.942 211.215H206.942V208.215H200.942V211.215H202.942Z" fill="#36393F"/>
<path fill-rule="evenodd" clip-rule="evenodd" d="M203.942 213.215V216.215C203.942 217.319 204.838 218.215 205.942 218.215H207.942C209.046 218.215 209.942 217.319 209.942 216.215V213.215H203.942Z" fill="#36393F"/>
<path fill-rule="evenodd" clip-rule="evenodd" d="M104.958 208.215V211.215H108.958H121.057H139.057H144.415H154.586H171.049H181.049H198.942V208.215H104.958Z" fill="#2D3034"/>
<path fill-rule="evenodd" clip-rule="evenodd" d="M109.958 218.215H122.057H140.057H170.049H180.049H199.942C201.046 218.215 201.942 217.319 201.942 216.215V213.215H180.049H170.049H154.586H144.415H140.057H122.057H109.958H101.958V216.215C101.958 217.319 102.854 218.215 103.958 218.215H109.958Z" fill="#6E7176"/>
<path fill-rule="evenodd" clip-rule="evenodd" d="M358.38 44.3862C360.037 44.3862 361.38 45.7292 361.38 47.3862V89.3862C361.38 91.0432 360.037 92.3862 358.38 92.3862H312.38C310.723 92.3862 309.38 91.0432 309.38 89.3862V47.3862C309.38 45.7292 310.723 44.3862 312.38 44.3862H358.38ZM350.38 39.3862H307.38C305.723 39.3862 304.38 40.7292 304.38 42.3862V94.3862C304.38 96.0432 305.723 97.3862 307.38 97.3862H363.38C365.037 97.3862 366.38 96.0432 366.38 94.3862V42.3862C366.38 40.7292 365.037 39.3862 363.38 39.3862H355.247C354.695 39.3862 354.247 38.9382 354.247 38.3862H351.38C351.381 38.9382 350.933 39.3862 350.38 39.3862Z" fill="#897E72"/>
<rect x="182.454" y="7.72522" width="109.474" height="57.6002" fill="#70665D"/>
<rect x="188.616" y="14.0034" width="96.3029" height="44.4238" fill="#4D84E4"/>
<path fill-rule="evenodd" clip-rule="evenodd" d="M331.747 73.9194C331.747 71.4194 333.781 69.3864 336.28 69.3864C338.78 69.3864 340.813 71.4194 340.813 73.9194V76.3424C340.813 78.8414 338.78 80.8754 336.28 80.8754C333.781 80.8754 331.747 78.8414 331.747 76.3424V73.9194ZM343.247 72.9524C343.247 70.9854 344.847 69.3864 346.813 69.3864C348.78 69.3864 350.38 70.9854 350.38 72.9524V77.3094C350.38 79.2754 348.78 80.8754 346.813 80.8754C344.847 80.8754 343.247 79.2754 343.247 77.3094V72.9524ZM317.38 83.8754C317.932 83.8754 318.38 84.3224 318.38 84.8754V85.6254C318.38 86.1774 317.932 86.6254 317.38 86.6254V90.3864H352.38V70.3864C352.38 61.0124 344.754 53.3864 335.38 53.3864C326.006 53.3864 318.38 61.0124 318.38 70.3864V81.2504C318.38 81.8024 317.932 82.2504 317.38 82.2504V83.8754Z" fill="#009F00"/>
<path fill-rule="evenodd" clip-rule="evenodd" d="M346.814 78.8755C347.678 78.8755 348.38 78.1725 348.38 77.3095V72.9525C348.38 72.0885 347.678 71.3865 346.814 71.3865C345.95 71.3865 345.248 72.0885 345.248 72.9525V77.3095C345.248 78.1725 345.95 78.8755 346.814 78.8755ZM336.281 78.8755C337.678 78.8755 338.814 77.7395 338.814 76.3425V73.9195C338.814 72.5225 337.678 71.3865 336.281 71.3865C334.884 71.3865 333.748 72.5225 333.748 73.9195V76.3425C333.748 77.7395 334.884 78.8755 336.281 78.8755Z" fill="#D7E5F3"/>
<path fill-rule="evenodd" clip-rule="evenodd" d="M201.424 49.3306C193.378 50.2746 190.408 53.3086 189.761 54.1016V57.1196H193.636L201.424 49.3306ZM283.761 48.3032C280.607 49.0422 271.702 50.9652 260.309 52.0622L265.193 57.1192H283.761V48.3032Z" fill="#E0BC84"/>
<path fill-rule="evenodd" clip-rule="evenodd" d="M230.011 23.572L196.464 57.119H262.411L230.011 23.572Z" fill="#AE916C"/>
<path fill-rule="evenodd" clip-rule="evenodd" d="M47.666 168.822L37.792 159.708V168.822H47.666Z" fill="#656668"/>
<path fill-rule="evenodd" clip-rule="evenodd" d="M37.7924 156.985L49.7264 168.001C48.9704 165.371 48.5574 162.598 48.5574 159.728C48.5574 159.095 48.5834 158.468 48.6224 157.844L40.4014 150.256C38.8014 151.735 37.7924 153.843 37.7924 156.189V156.985ZM49.5165 148.1H45.8805C44.4985 148.1 43.1975 148.45 42.0585 149.063L48.8785 155.359C49.2435 152.868 49.9155 150.475 50.8555 148.221C50.4185 148.147 49.9735 148.1 49.5165 148.1Z" fill="#666668"/>
<path fill-rule="evenodd" clip-rule="evenodd" d="M57.6053 215.819C57.6053 214.616 56.6263 213.638 55.4243 213.638H39.9733C38.7713 213.638 37.7923 214.616 37.7923 215.819C37.7923 217.022 38.7713 218 39.9733 218H55.4243C56.6263 218 57.6053 217.022 57.6053 215.819ZM47.6986 176.173C51.2576 176.173 54.1525 179.068 54.1525 182.626C54.1525 186.184 51.2576 189.079 47.6986 189.079C44.1406 189.079 41.2456 186.184 41.2456 182.626C41.2456 179.068 44.1406 176.173 47.6986 176.173ZM42.2456 196.945H53.1525C57.1115 196.945 60.3316 193.724 60.3316 189.765V183.535C56.0716 180.266 52.7136 175.882 50.6916 170.822H35.8836C35.4326 170.822 35.0656 171.189 35.0656 171.64V189.765C35.0656 193.724 38.2866 196.945 42.2456 196.945ZM83.0101 189.396C81.5561 189.613 80.0701 189.729 78.5571 189.729C77.0441 189.729 75.557 189.613 74.104 189.396V193.081H83.0101V189.396Z" fill="#8A8B91"/>
<path fill-rule="evenodd" clip-rule="evenodd" d="M78.5569 183.229C65.5989 183.229 55.0569 172.687 55.0569 159.729C55.0569 146.771 65.5989 136.229 78.5569 136.229C80.4979 136.229 82.4289 136.466 84.2949 136.935C84.8299 137.069 85.1559 137.613 85.0209 138.148C85.0179 138.158 85.0119 138.164 85.0089 138.173C86.3289 138.567 87.5979 139.082 88.8039 139.7C88.8089 139.691 88.8079 139.681 88.8129 139.672C89.0869 139.191 89.6969 139.023 90.1769 139.298C91.0409 139.791 91.8849 140.346 92.6839 140.948C93.1249 141.28 93.2139 141.907 92.8819 142.348C92.8769 142.354 92.8689 142.356 92.8639 142.363C93.4319 142.832 93.9759 143.328 94.4959 143.85C94.5019 143.844 94.5039 143.836 94.5099 143.831C94.9179 143.459 95.5509 143.488 95.9219 143.896C99.8779 148.231 102.057 153.855 102.057 159.729C102.057 172.687 91.5149 183.229 78.5569 183.229ZM106.557 159.729C106.557 144.29 93.9959 131.729 78.5569 131.729C63.1179 131.729 50.5569 144.29 50.5569 159.729C50.5569 175.168 63.1179 187.729 78.5569 187.729C93.9959 187.729 106.557 175.168 106.557 159.729Z" fill="#48494F"/>
<path fill-rule="evenodd" clip-rule="evenodd" d="M255.157 200.769C256.938 200.769 258.387 202.218 258.387 204C258.387 205.781 256.938 207.23 255.157 207.23C253.375 207.23 251.926 205.781 251.926 204C251.926 202.218 253.375 200.769 255.157 200.769ZM255.157 209.23C258.041 209.23 260.387 206.884 260.387 204C260.387 201.116 258.041 198.769 255.157 198.769C252.273 198.769 249.926 201.116 249.926 204C249.926 206.884 252.273 209.23 255.157 209.23ZM270.67 200.769C272.452 200.769 273.901 202.218 273.901 204C273.901 205.781 272.452 207.23 270.67 207.23C268.888 207.23 267.439 205.781 267.439 204C267.439 202.218 268.888 200.769 270.67 200.769ZM270.67 209.23C273.554 209.23 275.901 206.884 275.901 204C275.901 201.116 273.554 198.769 270.67 198.769C267.786 198.769 265.439 201.116 265.439 204C265.439 206.884 267.786 209.23 270.67 209.23ZM316.046 135.552C316.598 135.552 317.046 135.105 317.046 134.552C317.046 134 316.598 133.552 316.046 133.552C315.494 133.552 315.046 134 315.046 134.552C315.046 135.105 315.494 135.552 316.046 135.552ZM334.046 160.514H298.046C297.494 160.514 297.046 160.066 297.046 159.514V139.514C297.046 138.962 297.494 138.514 298.046 138.514H334.046C334.598 138.514 335.046 138.962 335.046 139.514V159.514C335.046 160.066 334.598 160.514 334.046 160.514ZM337.046 161.514V137.514C337.046 136.962 336.598 136.514 336.046 136.514H296.046C295.494 136.514 295.046 136.962 295.046 137.514V161.514C295.046 162.066 295.494 162.514 296.046 162.514H336.046C336.598 162.514 337.046 162.066 337.046 161.514ZM309.016 201.866H307.849C307.297 201.866 306.849 202.314 306.849 202.866C306.849 203.418 307.297 203.866 307.849 203.866H309.016C309.568 203.866 310.016 203.418 310.016 202.866C310.016 202.314 309.568 201.866 309.016 201.866ZM287.657 179.037C287.657 177.659 288.779 176.537 290.157 176.537C291.535 176.537 292.657 177.659 292.657 179.037C292.657 180.415 291.535 181.537 290.157 181.537C288.779 181.537 287.657 180.415 287.657 179.037ZM294.657 179.037C294.657 176.556 292.638 174.537 290.157 174.537C287.676 174.537 285.657 176.556 285.657 179.037C285.657 181.518 287.676 183.537 290.157 183.537C292.638 183.537 294.657 181.518 294.657 179.037ZM295.122 189.113C294.018 189.113 293.122 188.217 293.122 187.113C293.122 186.561 292.675 186.113 292.122 186.113H291.122C290.57 186.113 290.122 186.561 290.122 187.113C290.122 188.217 289.227 189.113 288.122 189.113C287.57 189.113 287.122 189.561 287.122 190.113V191.113C287.122 191.665 287.57 192.113 288.122 192.113C289.227 192.113 290.122 193.009 290.122 194.113C290.122 194.665 290.57 195.113 291.122 195.113H292.122C292.675 195.113 293.122 194.665 293.122 194.113C293.122 193.009 294.018 192.113 295.122 192.113C295.675 192.113 296.122 191.665 296.122 191.113V190.113C296.122 189.561 295.675 189.113 295.122 189.113ZM341.163 180.655C342.267 180.655 343.163 179.759 343.163 178.655C343.163 177.551 342.267 176.655 341.163 176.655C340.058 176.655 339.163 177.551 339.163 178.655C339.163 179.759 340.058 180.655 341.163 180.655ZM341.163 183.655C340.058 183.655 339.163 184.551 339.163 185.655C339.163 186.759 340.058 187.655 341.163 187.655C342.267 187.655 343.163 186.759 343.163 185.655C343.163 184.551 342.267 183.655 341.163 183.655ZM344.663 184.155C345.767 184.155 346.663 183.259 346.663 182.155C346.663 181.051 345.767 180.155 344.663 180.155C343.558 180.155 342.663 181.051 342.663 182.155C342.663 183.259 343.558 184.155 344.663 184.155ZM337.663 184.155C338.767 184.155 339.663 183.259 339.663 182.155C339.663 181.051 338.767 180.155 337.663 180.155C336.558 180.155 335.663 181.051 335.663 182.155C335.663 183.259 336.558 184.155 337.663 184.155ZM330.046 195.513H302.046C300.942 195.513 300.046 194.618 300.046 193.513V175.514C300.046 174.962 300.494 174.514 301.046 174.514H331.046C331.598 174.514 332.046 174.962 332.046 175.514V193.513C332.046 194.618 331.15 195.513 330.046 195.513ZM334.046 197.514V173.514C334.046 172.962 333.598 172.514 333.046 172.514H299.046C298.494 172.514 298.046 172.962 298.046 173.514V197.514C298.046 198.066 298.494 198.514 299.046 198.514H333.046C333.598 198.514 334.046 198.066 334.046 197.514ZM385.544 218H383.779C383.227 218 382.779 218.448 382.779 219C382.779 219.552 383.227 220 383.779 220H385.544C386.096 220 386.544 219.552 386.544 219C386.544 218.448 386.096 218 385.544 218ZM150.057 67.9683C148.6 67.9683 147.414 66.7823 147.414 65.3253C147.414 63.8683 148.6 62.6823 150.057 62.6823C151.515 62.6823 152.7 63.8683 152.7 65.3253C152.7 66.7823 151.515 67.9683 150.057 67.9683ZM150.057 60.6823C147.497 60.6823 145.414 62.7653 145.414 65.3253C145.414 67.8853 147.497 69.9683 150.057 69.9683C152.617 69.9683 154.7 67.8853 154.7 65.3253C154.7 62.7653 152.617 60.6823 150.057 60.6823ZM305.38 99.3862H365.38C367.037 99.3862 368.38 98.0432 368.38 96.3862V40.3862C368.38 38.7292 367.037 37.3862 365.38 37.3862H355.247C354.695 37.3862 354.247 37.8342 354.247 38.3862C354.247 38.9382 354.695 39.3862 355.247 39.3862H363.38C365.037 39.3862 366.38 40.7292 366.38 42.3862V94.3862C366.38 96.0432 365.037 97.3862 363.38 97.3862H307.38C305.723 97.3862 304.38 96.0432 304.38 94.3862V42.3862C304.38 40.7292 305.723 39.3862 307.38 39.3862H350.38C350.933 39.3862 351.38 38.9382 351.38 38.3862C351.38 37.8342 350.933 37.3862 350.38 37.3862H305.38C303.723 37.3862 302.38 38.7292 302.38 40.3862V96.3862C302.38 98.0432 303.723 99.3862 305.38 99.3862Z" fill="#1F2225"/>
<path fill-rule="evenodd" clip-rule="evenodd" d="M314.38 46.3862H356.38C358.037 46.3862 359.38 47.7292 359.38 49.3862V78.3792C359.38 80.0362 358.037 81.3792 356.38 81.3792C355.276 81.3792 354.38 80.4842 354.38 79.3792V70.8532C354.38 60.5642 346.395 51.7892 336.113 51.4002C325.304 50.9912 316.38 59.6662 316.38 70.3862V81.2502C316.38 81.8022 316.828 82.2502 317.38 82.2502C317.932 82.2502 318.38 81.8022 318.38 81.2502V70.8362C318.38 61.3272 326.161 53.2292 335.669 53.3882C344.91 53.5432 352.38 61.1092 352.38 70.3862V86.3862C352.38 88.5952 350.589 90.3862 348.38 90.3862H317.38H314.38C312.723 90.3862 311.38 89.0432 311.38 87.3862V49.3862C311.38 47.7292 312.723 46.3862 314.38 46.3862ZM309.38 47.3862V89.3862C309.38 91.0432 310.723 92.3862 312.38 92.3862H358.38C360.037 92.3862 361.38 91.0432 361.38 89.3862V47.3862C361.38 45.7292 360.037 44.3862 358.38 44.3862H312.38C310.723 44.3862 309.38 45.7292 309.38 47.3862Z" fill="#1F2225"/>
<path fill-rule="evenodd" clip-rule="evenodd" d="M318.38 85.6255V84.8755C318.38 84.3225 317.932 83.8755 317.38 83.8755C316.828 83.8755 316.38 84.3225 316.38 84.8755V85.6255C316.38 86.1775 316.828 86.6255 317.38 86.6255C317.932 86.6255 318.38 86.1775 318.38 85.6255ZM345.247 72.9521C345.247 72.0891 345.95 71.3861 346.813 71.3861C347.677 71.3861 348.38 72.0891 348.38 72.9521V77.3091C348.38 78.1731 347.677 78.8751 346.813 78.8751C345.95 78.8751 345.247 78.1731 345.247 77.3091V72.9521ZM346.813 80.8751C348.78 80.8751 350.38 79.2751 350.38 77.3091V72.9521C350.38 70.9861 348.78 69.3861 346.813 69.3861C344.847 69.3861 343.247 70.9861 343.247 72.9521V77.3091C343.247 79.2751 344.847 80.8751 346.813 80.8751ZM333.747 73.9194C333.747 72.5224 334.883 71.3864 336.28 71.3864C337.677 71.3864 338.813 72.5224 338.813 73.9194V76.3424C338.813 77.7394 337.677 78.8754 336.28 78.8754C334.883 78.8754 333.747 77.7394 333.747 76.3424V73.9194ZM336.28 80.8754C338.78 80.8754 340.813 78.8414 340.813 76.3424V73.9194C340.813 71.4194 338.78 69.3864 336.28 69.3864C333.781 69.3864 331.747 71.4194 331.747 73.9194V76.3424C331.747 78.8414 333.781 80.8754 336.28 80.8754ZM181.76 66.1191H201.162C201.715 66.1191 202.162 65.6711 202.162 65.1191C202.162 64.5671 201.715 64.1191 201.162 64.1191H186.76C184.551 64.1191 182.76 62.3281 182.76 60.1191V12.1201C182.76 9.91112 184.551 8.12012 186.76 8.12012H286.76C288.969 8.12012 290.76 9.91112 290.76 12.1201V60.1191C290.76 62.3281 288.969 64.1191 286.76 64.1191H214.537C213.985 64.1191 213.537 64.5671 213.537 65.1191C213.537 65.6711 213.985 66.1191 214.537 66.1191H291.76C292.312 66.1191 292.76 65.6711 292.76 65.1191V7.12012C292.76 6.56812 292.312 6.12012 291.76 6.12012H181.76C181.208 6.12012 180.76 6.56812 180.76 7.12012V65.1191C180.76 65.6711 181.208 66.1191 181.76 66.1191Z" fill="#1F2225"/>
<path fill-rule="evenodd" clip-rule="evenodd" d="M208.787 64.1191C208.235 64.1191 207.787 64.5671 207.787 65.1191C207.787 65.6711 208.235 66.1191 208.787 66.1191H210.975C211.527 66.1191 211.975 65.6711 211.975 65.1191C211.975 64.5671 211.527 64.1191 210.975 64.1191H208.787ZM252.342 30.9746C251.761 31.0826 251.178 31.1966 250.592 31.3136C249.471 31.5366 248.331 31.8216 247.109 32.1826C246.579 32.3396 246.277 32.8956 246.433 33.4256C246.562 33.8606 246.96 34.1416 247.392 34.1416C247.486 34.1416 247.581 34.1286 247.676 34.1006C248.84 33.7566 249.922 33.4866 250.983 33.2746C251.561 33.1596 252.136 33.0476 252.709 32.9406C253.252 32.8386 253.61 32.3166 253.509 31.7736C253.407 31.2306 252.882 30.8716 252.342 30.9746Z" fill="#1F2225"/>
<path fill-rule="evenodd" clip-rule="evenodd" d="M283.76 25.3833C271.389 21.4213 256.734 23.3883 242.781 26.8003C239.335 27.6423 235.701 26.5843 233.236 24.0313L230.742 21.4503C230.556 21.2573 230.3 21.1473 230.032 21.1453C229.729 21.1143 229.506 21.2483 229.316 21.4383L222.416 28.3383C218.64 32.1133 213.304 33.9173 208.02 33.1563C198.535 31.7913 191.476 27.3983 189.76 26.2473V17.1203C189.76 16.0163 190.656 15.1203 191.76 15.1203H281.76C282.864 15.1203 283.76 16.0163 283.76 17.1203V25.3833ZM283.76 36.9323C273.685 29.1263 264.48 29.1253 256.01 30.3583C255.464 30.4373 255.085 30.9453 255.165 31.4913C255.244 32.0383 255.756 32.4133 256.299 32.3373C264.082 31.2043 272.511 31.1663 281.682 37.8733C283.006 38.8413 283.76 40.4073 283.76 42.0473C283.76 44.5503 281.985 46.6813 279.531 47.1793C276.318 47.8323 271.712 48.1893 266.219 48.6073C261.321 48.9803 256.495 47.2173 252.995 43.7713L238.871 29.8673C251.594 26.4783 265.158 23.9313 277.048 25.8473C280.92 26.4713 283.76 29.8273 283.76 33.7493V36.9323ZM281.76 57.1193H269.012C266.571 57.1193 264.234 56.1273 262.538 54.3713L260.308 52.0623C269.526 51.1753 277.116 49.7463 281.348 48.8423C282.593 48.5763 283.76 49.5263 283.76 50.7993V55.1193C283.76 56.2233 282.864 57.1193 281.76 57.1193ZM198.17 55.4123L225.694 27.8883C228.066 25.5163 231.922 25.5503 234.252 27.9633L260.775 55.4243C261.387 56.0593 260.938 57.1193 260.055 57.1193H198.877C197.987 57.1193 197.54 56.0423 198.17 55.4123ZM189.76 55.1193C189.76 54.3993 190.066 53.7153 190.613 53.2473C192.048 52.0193 195.233 50.0563 201.423 49.3303L194.36 56.3943C193.896 56.8583 193.266 57.1193 192.61 57.1193H191.76C190.656 57.1193 189.76 56.2233 189.76 55.1193ZM189.76 32.0763C189.76 30.5813 191.344 29.6043 192.67 30.2953C197.138 32.6253 204.581 35.5993 213.463 35.5993C214.034 35.5993 214.614 35.5823 215.197 35.5563L213.588 37.1663C210.836 39.9173 206.913 41.2033 203.084 40.5093C199.214 39.8093 196.094 38.9043 193.758 38.0793C193.238 37.8943 192.665 38.1673 192.482 38.6883C192.298 39.2093 192.571 39.7803 193.091 39.9653C196.416 41.1403 201.272 42.4703 207.564 43.1903L203.635 47.1183C198.556 47.4053 195.018 48.4543 192.603 49.6063C191.281 50.2373 189.76 49.2613 189.76 47.7963V32.0763ZM285.76 58.1193V14.1203C285.76 13.5683 285.312 13.1203 284.76 13.1203H188.76C188.208 13.1203 187.76 13.5683 187.76 14.1203V58.1193C187.76 58.6713 188.208 59.1193 188.76 59.1193H284.76C285.312 59.1193 285.76 58.6713 285.76 58.1193ZM30.1321 111.994H30.6421C31.1941 111.994 31.6421 112.442 31.6421 112.994V113.504C31.6421 114.056 32.0901 114.504 32.6421 114.504C33.1951 114.504 33.6421 114.056 33.6421 113.504V112.994C33.6421 112.441 34.0901 111.994 34.6421 111.994H35.1521C35.7041 111.994 36.1521 111.546 36.1521 110.994C36.1521 110.441 35.7041 109.994 35.1521 109.994H34.6421C34.0901 109.994 33.6421 109.546 33.6421 108.994V108.484C33.6421 107.932 33.1951 107.484 32.6421 107.484C32.0901 107.484 31.6421 107.932 31.6421 108.484V108.994C31.6421 109.546 31.1941 109.994 30.6421 109.994H30.1321C29.5801 109.994 29.1321 110.442 29.1321 110.994C29.1321 111.546 29.5801 111.994 30.1321 111.994ZM110.616 14.1187H112.126V15.6287C112.126 16.1817 112.574 16.6287 113.126 16.6287C113.678 16.6287 114.126 16.1817 114.126 15.6287V14.1187H115.636C116.188 14.1187 116.636 13.6707 116.636 13.1187C116.636 12.5667 116.188 12.1187 115.636 12.1187H114.126V10.6087C114.126 10.0567 113.678 9.6087 113.126 9.6087C112.574 9.6087 112.126 10.0567 112.126 10.6087V12.1187H110.616C110.064 12.1187 109.616 12.5667 109.616 13.1187C109.616 13.6707 110.064 14.1187 110.616 14.1187ZM83.3089 43.0132C83.5649 43.0132 83.8209 42.9152 84.0159 42.7202L85.1989 41.5372C85.5899 41.1462 85.5899 40.5132 85.1989 40.1232C84.8089 39.7322 84.1759 39.7322 83.7849 40.1232L82.6019 41.3062C82.2109 41.6972 82.2109 42.3292 82.6019 42.7202C82.7969 42.9152 83.0529 43.0132 83.3089 43.0132ZM77.3928 48.9292C77.6488 48.9292 77.9048 48.8312 78.0998 48.6362L79.2828 47.4532C79.6738 47.0622 79.6738 46.4292 79.2828 46.0392C78.8928 45.6482 78.2598 45.6482 77.8688 46.0392L76.6858 47.2222C76.2948 47.6132 76.2948 48.2452 76.6858 48.6362C76.8808 48.8312 77.1368 48.9292 77.3928 48.9292ZM83.7849 48.6362C83.9799 48.8312 84.2359 48.9292 84.4919 48.9292C84.7479 48.9292 85.0039 48.8312 85.1989 48.6362C85.5899 48.2452 85.5899 47.6132 85.1989 47.2222L84.0159 46.0392C83.6249 45.6482 82.9929 45.6482 82.6019 46.0392C82.2109 46.4292 82.2109 47.0622 82.6019 47.4532L83.7849 48.6362ZM77.8689 42.7202C78.0639 42.9152 78.3199 43.0132 78.5759 43.0132C78.8319 43.0132 79.0879 42.9152 79.2829 42.7202C79.6739 42.3292 79.6739 41.6972 79.2829 41.3062L78.0999 40.1232C77.7089 39.7322 77.0769 39.7322 76.6859 40.1232C76.2949 40.5132 76.2949 41.1462 76.6859 41.5372L77.8689 42.7202ZM287.371 99.6353C286.98 99.2443 286.347 99.2443 285.957 99.6353L284.774 100.819C284.383 101.209 284.383 101.843 284.774 102.233C284.969 102.428 285.225 102.526 285.481 102.526C285.737 102.526 285.993 102.428 286.188 102.233L287.371 101.049C287.762 100.658 287.762 100.025 287.371 99.6353ZM280.041 105.552L278.858 106.735C278.467 107.126 278.467 107.759 278.858 108.149C279.053 108.344 279.309 108.442 279.565 108.442C279.821 108.442 280.077 108.344 280.272 108.149L281.455 106.966C281.846 106.575 281.846 105.943 281.455 105.552C281.064 105.161 280.432 105.161 280.041 105.552ZM286.188 105.552C285.797 105.161 285.165 105.161 284.774 105.552C284.383 105.943 284.383 106.575 284.774 106.966L285.957 108.149C286.152 108.344 286.408 108.442 286.664 108.442C286.92 108.442 287.176 108.344 287.371 108.149C287.762 107.759 287.762 107.126 287.371 106.735L286.188 105.552ZM281.455 100.819L280.272 99.6348C279.881 99.2448 279.248 99.2448 278.858 99.6348C278.467 100.026 278.467 100.659 278.858 101.049L280.041 102.233C280.236 102.428 280.492 102.526 280.748 102.526C281.004 102.526 281.26 102.428 281.455 102.233C281.846 101.843 281.846 101.21 281.455 100.819ZM137.651 30.0991C138.484 30.0991 139.161 30.7761 139.161 31.6091C139.161 32.4411 138.484 33.1191 137.651 33.1191C136.818 33.1191 136.141 32.4411 136.141 31.6091C136.141 30.7761 136.818 30.0991 137.651 30.0991ZM137.651 35.1191C139.587 35.1191 141.161 33.5441 141.161 31.6091C141.161 29.6741 139.587 28.0991 137.651 28.0991C135.716 28.0991 134.141 29.6741 134.141 31.6091C134.141 33.5441 135.716 35.1191 137.651 35.1191ZM47.6985 178.173C50.1545 178.173 52.1525 180.171 52.1525 182.626C52.1525 185.082 50.1545 187.079 47.6985 187.079C45.2425 187.079 43.2455 185.082 43.2455 182.626C43.2455 180.171 45.2425 178.173 47.6985 178.173ZM47.6985 189.079C51.2575 189.079 54.1525 186.184 54.1525 182.626C54.1525 179.068 51.2575 176.173 47.6985 176.173C44.1405 176.173 41.2455 179.068 41.2455 182.626C41.2455 186.184 44.1405 189.079 47.6985 189.079ZM78.5569 183.229C91.5149 183.229 102.057 172.686 102.057 159.729C102.057 153.855 99.8779 148.23 95.9219 143.895C95.5509 143.487 94.9179 143.459 94.5099 143.831C94.5039 143.836 94.5019 143.844 94.4959 143.85C94.1039 144.223 94.0779 144.84 94.4449 145.242C98.0639 149.209 100.057 154.354 100.057 159.729C100.057 171.583 90.4119 181.229 78.5569 181.229C66.7019 181.229 57.0569 171.583 57.0569 159.729C57.0569 147.874 66.7019 138.229 78.5569 138.229C80.3339 138.229 82.1009 138.445 83.8069 138.874C84.3329 139.003 84.8629 138.691 85.0089 138.173C85.0119 138.163 85.0179 138.158 85.0209 138.148C85.1559 137.613 84.8299 137.068 84.2949 136.934C82.4289 136.465 80.4979 136.229 78.5569 136.229C65.5989 136.229 55.0569 146.771 55.0569 159.729C55.0569 172.686 65.5989 183.229 78.5569 183.229Z" fill="#1F2225"/>
<path fill-rule="evenodd" clip-rule="evenodd" d="M89.1869 141.035C89.9779 141.486 90.7489 141.994 91.4809 142.545C91.6619 142.681 91.8729 142.746 92.0819 142.746C92.3779 142.746 92.6669 142.611 92.8639 142.362C92.8689 142.356 92.8769 142.354 92.8819 142.347C93.2139 141.906 93.1249 141.279 92.6849 140.947C91.8849 140.345 91.0409 139.79 90.1769 139.298C89.6969 139.022 89.0869 139.191 88.8129 139.671C88.8079 139.68 88.8089 139.69 88.8039 139.699C88.5519 140.175 88.7159 140.766 89.1869 141.035Z" fill="#1F2225"/>
<path fill-rule="evenodd" clip-rule="evenodd" d="M328.821 217V213.115C328.821 212.563 328.373 212.115 327.821 212.115H322.425C321.111 212.115 320.046 211.05 320.046 209.735C320.046 208.42 321.111 207.355 322.425 207.355H340.663V213C340.663 214.286 341.012 215.49 341.621 216.526C342.004 217.179 341.5 218 340.742 218H329.821C329.269 218 328.821 217.552 328.821 217ZM305.27 217.785H326.821V214.116H305.27V217.785ZM303.27 213.115V217C303.27 217.552 302.822 218 302.27 218H290.401V207.355H309.666C310.98 207.355 312.046 208.42 312.046 209.735C312.046 211.05 310.98 212.115 309.666 212.115H304.27C303.718 212.115 303.27 212.563 303.27 213.115ZM318.046 208.355V211.115C318.046 211.667 317.598 212.115 317.046 212.115H315.046C314.493 212.115 314.046 211.667 314.046 211.115V208.355C314.046 207.803 314.493 207.355 315.046 207.355H317.046C317.598 207.355 318.046 207.803 318.046 208.355ZM287.261 205.355C285.656 205.355 284.314 204.222 283.982 202.715C284.892 203.425 286.021 203.866 287.261 203.866H303.183C303.735 203.866 304.183 203.418 304.183 202.866C304.183 202.314 303.735 201.866 303.183 201.866H287.261C285.405 201.866 283.9 200.361 283.9 198.505V174.465V172.514C283.9 171.409 284.796 170.514 285.9 170.514H346.191C347.296 170.514 348.191 171.409 348.191 172.514V174.465V188C348.191 189.104 347.296 190 346.191 190H341.663C341.111 190 340.663 190.448 340.663 191V201.866H317.046C316.494 201.866 316.046 202.314 316.046 202.866C316.046 203.418 316.494 203.866 317.046 203.866H340.663V205.355H287.261ZM286.401 218H224.413C223.309 218 222.413 217.104 222.413 216V201.675C222.413 200.57 223.309 199.675 224.413 199.675C225.518 199.675 226.413 200.57 226.413 201.675V213C226.413 213.552 226.861 214 227.413 214H283.401C283.953 214 284.401 213.552 284.401 213V209.3C284.401 208.078 285.481 207.192 286.696 207.324C286.882 207.345 287.071 207.355 287.261 207.355H288.401V216C288.401 217.104 287.506 218 286.401 218ZM220.413 218H213.942C212.838 218 211.942 217.104 211.942 216V212.215C211.942 211.663 211.494 211.215 210.942 211.215H208.942V207.215C208.942 206.663 208.494 206.215 207.942 206.215H199.942H175.597C173.09 206.215 171.057 204.182 171.057 201.675V200.675C171.057 200.123 171.505 199.675 172.057 199.675H220.413V218ZM207.942 218.215H205.942C204.838 218.215 203.942 217.319 203.942 216.215V213.215H209.942V216.215C209.942 217.319 209.047 218.215 207.942 218.215ZM200.942 211.215V210.215C200.942 209.11 201.838 208.215 202.942 208.215H204.942C206.047 208.215 206.942 209.11 206.942 210.215V211.215H202.942H200.942ZM199.942 218.215H103.958C102.854 218.215 101.958 217.319 101.958 216.215V213.215H201.942V216.215C201.942 217.319 201.047 218.215 199.942 218.215ZM99.9581 212.215V216C99.9581 217.104 99.0631 218 97.9581 218H61.7481C60.7861 218 59.9611 217.316 59.7821 216.372L59.5701 215.248C59.1741 213.154 57.3441 211.638 55.2141 211.638C54.1261 211.638 53.2431 210.756 53.2431 209.667V206.485H69.4681C73.6411 206.485 77.2221 203.935 78.7541 200.314C78.9151 199.934 79.2711 199.675 79.6831 199.675H133.057C133.61 199.675 134.057 200.123 134.057 200.675V201.675C134.057 204.182 132.025 206.215 129.517 206.215H103.958C103.406 206.215 102.958 206.663 102.958 207.215V211.215H100.958C100.406 211.215 99.9581 211.663 99.9581 212.215ZM55.4241 218H39.9731C38.7711 218 37.7921 217.021 37.7921 215.819C37.7921 214.616 38.7711 213.638 39.9731 213.638H55.4241C56.6271 213.638 57.6051 214.616 57.6051 215.819C57.6051 217.021 56.6271 218 55.4241 218ZM51.2431 206.485V209.325C51.2431 210.43 50.3471 211.325 49.2431 211.325H46.1541C45.0501 211.325 44.1541 210.43 44.1541 209.325V206.485H51.2431ZM44.1541 204.486H51.2431V198.945H44.1541V204.486ZM35.0661 189.765V171.64C35.0661 171.188 35.4321 170.822 35.8831 170.822H50.6921C52.7141 175.882 56.0711 180.266 60.3321 183.535V189.765C60.3321 193.724 57.1111 196.945 53.1521 196.945H42.2451C38.2861 196.945 35.0661 193.724 35.0661 189.765ZM39.4701 161.256L45.7871 167.087C46.4561 167.705 46.0191 168.822 45.1091 168.822H39.7921C38.6881 168.822 37.7921 167.926 37.7921 166.822V161.991C37.7921 161.12 38.8301 160.665 39.4701 161.256ZM38.8931 152.129C39.5331 151.038 41.0361 150.842 41.9651 151.7L47.1441 156.48C48.0451 157.312 48.5571 158.483 48.5571 159.709V159.729C48.5571 161.497 48.7141 163.229 49.0111 164.914C49.1771 165.852 48.0531 166.458 47.3531 165.811L38.9461 158.05C38.2081 157.37 37.8551 156.365 38.0181 155.374C38.2051 154.234 38.5031 152.796 38.8931 152.129ZM45.8811 148.1H49.5161C49.9731 148.1 50.4191 148.147 50.8561 148.221C50.1401 149.937 49.5791 151.735 49.1921 153.595C49.0331 154.354 48.1111 154.651 47.5411 154.125L43.2111 150.127C42.6411 149.603 42.8561 148.648 43.5981 148.429C44.3221 148.215 45.0881 148.1 45.8811 148.1ZM78.5571 131.729C93.9961 131.729 106.557 144.289 106.557 159.729C106.557 175.168 93.9961 187.729 78.5571 187.729C63.1171 187.729 50.5571 175.168 50.5571 159.729C50.5571 144.289 63.1171 131.729 78.5571 131.729ZM93.3401 185.817C103.105 180.264 109.469 169.395 108.45 157.171C107.214 142.334 94.9701 130.519 80.1011 129.768C74.6441 129.492 69.4841 130.687 64.9761 132.988C63.6431 133.668 62.0661 132.712 62.0661 131.215V93.675C62.0661 91.466 63.8571 89.675 66.0661 89.675H236.05C238.258 89.675 240.05 91.466 240.05 93.675V183.675C240.05 185.884 238.258 187.675 236.05 187.675H93.8481C92.8311 187.675 92.4561 186.32 93.3401 185.817ZM74.1041 191.081V189.396C75.5571 189.613 77.0441 189.729 78.5571 189.729C80.0701 189.729 81.5561 189.613 83.0101 189.396V191.081C83.0101 192.186 82.1141 193.081 81.0101 193.081H76.1041C74.9991 193.081 74.1041 192.186 74.1041 191.081ZM76.8561 199.675C75.5951 202.505 72.7611 204.485 69.4681 204.485H53.2431V202.675C53.2431 201.018 54.5861 199.675 56.2431 199.675H76.8561ZM57.7881 197.675C57.8771 197.622 57.9661 197.569 58.0531 197.514C60.6191 195.884 62.3321 193.024 62.3321 189.765V189.675H72.1041V193.172C72.1041 194.227 72.9581 195.081 74.0121 195.081H77.5571C77.5571 195.081 77.5211 195.979 77.4891 196.719C77.4671 197.254 77.0261 197.675 76.4901 197.675H57.7881ZM198.942 210.215V211.215H104.958V210.215C104.958 209.11 105.854 208.215 106.958 208.215H196.942C198.047 208.215 198.942 209.11 198.942 210.215ZM167.057 206.215H138.057C136.953 206.215 136.057 205.319 136.057 204.215V201.675C136.057 200.57 136.953 199.675 138.057 199.675H167.057C168.162 199.675 169.057 200.57 169.057 201.675V204.215C169.057 205.319 168.162 206.215 167.057 206.215ZM79.5571 195.081H83.1011C84.1551 195.081 85.0101 194.227 85.0101 193.172V189.675H238.05C240.258 189.675 242.05 187.884 242.05 185.675V91.675C242.05 89.466 240.258 87.675 238.05 87.675H64.0661C61.8571 87.675 60.0661 89.466 60.0661 91.675V135.187C60.0661 135.785 59.7911 136.342 59.3321 136.726C57.2591 138.46 55.4241 140.468 53.8811 142.694C53.3231 143.5 52.0661 143.109 52.0661 142.129V81.675C52.0661 80.57 52.9611 79.675 54.0661 79.675H248.05C249.154 79.675 250.05 80.57 250.05 81.675V195.675C250.05 196.779 249.154 197.675 248.05 197.675H80.5021C79.9361 197.675 79.4831 197.206 79.5031 196.64L79.5571 195.081ZM148.057 74.218H152.057V75.675C152.057 76.779 151.162 77.675 150.057 77.675C148.953 77.675 148.057 76.779 148.057 75.675V74.218ZM143.165 65.328V65.323C143.165 61.518 146.25 58.433 150.055 58.433H150.06C153.865 58.433 156.95 61.518 156.95 65.323V65.328C156.95 69.133 153.865 72.218 150.06 72.218H150.055C146.25 72.218 143.165 69.133 143.165 65.328ZM239.644 200.769C241.425 200.769 242.875 202.218 242.875 204C242.875 205.781 241.425 207.23 239.644 207.23C237.863 207.23 236.413 205.781 236.413 204C236.413 202.218 237.863 200.769 239.644 200.769ZM252.05 198.675V196H281.9V198.505V201.994C281.9 202.792 282.087 203.543 282.401 204.224V212H228.413V199.675H234.379C235.149 199.675 235.662 200.528 235.245 201.174C234.525 202.291 234.217 203.698 234.543 205.179C234.972 207.128 236.555 208.697 238.508 209.11C241.886 209.825 244.875 207.255 244.875 204C244.875 202.966 244.573 202.002 244.053 201.19C243.633 200.534 244.126 199.675 244.905 199.675H251.05C251.602 199.675 252.05 199.227 252.05 198.675ZM254.05 190H279.9C281.005 190 281.9 190.896 281.9 192C281.9 193.104 281.005 194 279.9 194H254.05C252.945 194 252.05 193.104 252.05 192C252.05 190.896 252.945 190 254.05 190ZM281.046 167.514C281.046 166.962 281.494 166.514 282.046 166.514H322.683C323.235 166.514 323.683 166.066 323.683 165.514C323.682 164.961 323.235 164.514 322.683 164.514H288.885C286.124 164.514 283.885 162.275 283.885 159.514V135.831C283.885 133.974 285.39 132.469 287.247 132.469H344.815C346.672 132.469 348.176 133.974 348.176 135.831V145.693C347.459 145.754 346.855 146.214 346.598 146.856C346.474 147.022 346.387 147.217 346.387 147.44V151.057C346.387 151.187 346.416 151.309 346.461 151.422V153.911C346.461 154.889 347.218 155.686 348.176 155.767V159.514C348.176 162.275 345.938 164.514 343.176 164.514H329.046C328.493 164.514 328.046 164.961 328.046 165.514C328.046 166.066 328.493 166.514 329.046 166.514H350.046C350.597 166.514 351.046 166.962 351.046 167.514C351.046 168.065 350.597 168.514 350.046 168.514H282.046C281.494 168.514 281.046 168.065 281.046 167.514ZM141.165 69.79H137.058C135.953 69.79 135.058 68.894 135.058 67.79V62.861C135.058 61.757 135.953 60.861 137.058 60.861H141.165V69.79ZM158.95 60.861H163.056C164.161 60.861 165.056 61.757 165.056 62.861V67.79C165.056 68.894 164.161 69.79 163.056 69.79H158.95V60.861ZM350.206 150.057H351.004V148.44H350.206V150.057ZM368.663 197C369.768 197 370.663 197.896 370.663 199V207C370.663 208.104 369.768 209 368.663 209C367.559 209 366.663 208.104 366.663 207V199C366.663 197.896 367.559 197 368.663 197ZM377.547 218H366.584C365.827 218 365.323 217.179 365.706 216.526C366.314 215.49 366.663 214.286 366.663 213C366.663 211.896 367.559 211 368.663 211C370.872 211 372.663 209.209 372.663 207V199C372.663 196.791 370.872 195 368.663 195C367.559 195 366.663 194.104 366.663 193V191C366.663 190.448 366.216 190 365.663 190H359.889C359.337 190 358.889 190.448 358.889 191C358.889 191.552 359.337 192 359.889 192H363.663C364.216 192 364.663 192.448 364.663 193V213C364.663 215.761 362.425 218 359.663 218H347.663C344.902 218 342.663 215.761 342.663 213V193C342.663 192.448 343.111 192 343.663 192H356.016C356.568 192 357.016 191.552 357.016 191C357.015 190.448 356.568 190 356.016 190H353.191C351.534 190 350.191 188.657 350.191 187V173.465V172.098C350.191 171.315 350.598 170.553 351.308 170.224C352.333 169.75 353.046 168.716 353.046 167.514C353.046 166.308 352.329 165.271 351.3 164.798C350.587 164.471 350.176 163.706 350.176 162.921V154.928C350.184 154.878 350.206 154.834 350.206 154.783V152.983C350.206 152.472 350.62 152.057 351.132 152.057C352.166 152.057 353.004 151.219 353.004 150.185V148.312C353.004 147.279 352.166 146.44 351.132 146.44H351.102C350.591 146.44 350.176 146.026 350.176 145.515V135.831C350.176 132.87 347.776 130.469 344.815 130.469H287.246C284.285 130.469 281.885 132.869 281.885 135.83V162.937C281.885 163.717 281.481 164.478 280.774 164.808C279.754 165.285 279.046 166.315 279.046 167.514C279.046 168.716 279.758 169.75 280.783 170.224C281.493 170.553 281.9 171.315 281.9 172.098V173.465V188H252.05V78.675C252.05 78.123 251.602 77.675 251.05 77.675H156.057C154.953 77.675 154.057 76.779 154.057 75.675V74.218H157.95C158.503 74.218 158.95 73.771 158.95 73.218C158.95 72.429 159.59 71.79 160.379 71.79H166.056C166.609 71.79 167.056 71.342 167.056 70.79V59.861C167.056 59.309 166.609 58.861 166.056 58.861H160.379C159.59 58.861 158.95 58.222 158.95 57.433C158.95 56.88 158.503 56.433 157.95 56.433H142.165C141.613 56.433 141.165 56.88 141.165 57.433C141.165 58.222 140.525 58.861 139.736 58.861H134.058C133.506 58.861 133.058 59.309 133.058 59.861V70.79C133.058 71.342 133.506 71.79 134.058 71.79H139.736C140.525 71.79 141.165 72.429 141.165 73.218C141.165 73.771 141.613 74.218 142.165 74.218H146.057V75.675C146.057 76.779 145.162 77.675 144.057 77.675H51.0661C50.5141 77.675 50.0661 78.123 50.0661 78.675V141.94C50.0661 144.245 48.1921 146.11 45.8871 146.1H45.8811C40.3161 146.075 35.7921 150.579 35.7921 156.144V168.831C34.2811 168.88 33.0661 170.117 33.0661 171.64V189.765C33.0661 194.041 36.0061 197.641 39.9691 198.655C41.2801 198.99 42.1541 200.233 42.1541 201.586V209.667C42.1541 210.756 41.2721 211.638 40.1841 211.638C38.0531 211.638 36.2231 213.154 35.8271 215.248L35.6151 216.372C35.4361 217.316 34.6111 218 33.6501 218H20.5941C20.0421 218 19.5941 218.448 19.5941 219C19.5941 219.552 20.0421 220 20.5941 220H39.9731H55.4241H289.401H347.663H359.663H377.547C378.099 220 378.547 219.552 378.547 219C378.547 218.448 378.099 218 377.547 218Z" fill="#1F2225"/>
<circle cx="155.069" cy="60.4148" r="1.5" fill="#DC3F3F"/>
</g>
<defs>
<clipPath id="clip0">
<rect width="400" height="220" fill="white"/>
</clipPath>
</defs>
</svg>
