<svg width="101" height="55" viewBox="0 0 101 55" fill="none" xmlns="http://www.w3.org/2000/svg">
<path fill-rule="evenodd" clip-rule="evenodd" d="M70.6038 27.0616C70.6038 40.8686 59.4108 52.0616 45.6038 52.0616C35.2518 52.0616 26.3698 45.7696 22.5718 36.8016C21.3048 33.8086 20.6038 30.5166 20.6038 27.0616C20.6038 25.8896 20.6848 24.7356 20.8408 23.6056C22.5238 11.4346 32.9698 2.06165 45.6038 2.06165C59.4108 2.06165 70.6038 13.2546 70.6038 27.0616Z" fill="#7A8EC7"/>
<path d="M22.572 36.8014C21.305 33.8084 20.604 30.5164 20.604 27.0614C20.604 25.8894 20.685 24.7354 20.841 23.6054C22.524 11.4344 32.969 2.0614 45.604 2.0614M62.698 8.819C67.564 13.381 70.604 19.866 70.604 27.062C70.604 40.869 59.411 52.062 45.604 52.062L62.698 8.819Z" stroke="#1E2126" stroke-width="2" stroke-linecap="round" stroke-linejoin="round"/>
<path fill-rule="evenodd" clip-rule="evenodd" d="M38.001 27.492L32.347 21.833L16.688 37.478L32.347 53.124L38.001 47.465L32.01 41.478H49.981V33.478H32.01L38.001 27.492Z" fill="white"/>
<path fill-rule="evenodd" clip-rule="evenodd" d="M58.861 1L53.2071 6.659L59.1981 12.646H41.2271V20.646H59.1981L53.2071 26.632L58.861 32.291L74.519 16.646L58.861 1Z" fill="white"/>
<path fill-rule="evenodd" clip-rule="evenodd" d="M38.001 27.492L32.347 21.833L16.688 37.478L32.347 53.124L38.001 47.465L32.01 41.478H49.981V33.478H32.01L38.001 27.492Z" stroke="#1E2126" stroke-width="2" stroke-linecap="round" stroke-linejoin="round"/>
<path fill-rule="evenodd" clip-rule="evenodd" d="M58.861 1L53.2071 6.659L59.1981 12.646H41.2271V20.646H59.1981L53.2071 26.632L58.861 32.291L74.519 16.646L58.861 1Z" stroke="#1E2126" stroke-width="2" stroke-linecap="round" stroke-linejoin="round"/>
<path d="M79.822 38.9137L78.989 38.0797M83.9885 38.0802L83.1555 38.9142L83.9885 38.0802ZM79.822 42.2467L78.989 43.0797L79.822 42.2467ZM83.9885 43.0802L83.1555 42.2472L83.9885 43.0802Z" stroke="#C5D3FF" stroke-linecap="round" stroke-linejoin="round"/>
<path fill-rule="evenodd" clip-rule="evenodd" d="M89.7068 24.0851C89.7068 25.4661 88.5868 26.5851 87.2068 26.5851C85.8258 26.5851 84.7068 25.4661 84.7068 24.0851C84.7068 22.7051 85.8258 21.5851 87.2068 21.5851C88.5868 21.5851 89.7068 22.7051 89.7068 24.0851Z" stroke="#F4D862" stroke-linecap="round" stroke-linejoin="round"/>
<path fill-rule="evenodd" clip-rule="evenodd" d="M15.6746 6.06165C15.6746 7.16565 14.7786 8.06165 13.6746 8.06165C12.5696 8.06165 11.6746 7.16565 11.6746 6.06165C11.6746 4.95765 12.5696 4.06165 13.6746 4.06165C14.7786 4.06165 15.6746 4.95765 15.6746 6.06165Z" stroke="#C5D3FF" stroke-linecap="round" stroke-linejoin="round"/>
<path d="M99.6082 33.5289H94.6082M97.1082 31.0289V36.0289V31.0289Z" stroke="#43B581" stroke-linecap="round" stroke-linejoin="round"/>
<path d="M4.50024 16.6456H0.500244M2.50024 14.6456V18.6456V14.6456Z" stroke="#7187DD" stroke-linecap="round" stroke-linejoin="round"/>
</svg>
