<svg width="326" height="178" viewBox="0 0 326 178" fill="none" xmlns="http://www.w3.org/2000/svg">
<path fill-rule="evenodd" clip-rule="evenodd" d="M227.889 87.5815C227.889 132.266 191.761 168.491 147.196 168.491C113.783 168.491 85.1141 148.127 72.8552 119.104C68.7657 109.417 66.5031 98.7631 66.5031 87.5815C66.5031 83.7884 66.7645 80.0537 67.268 76.3966C72.7003 37.0068 106.417 6.67236 147.196 6.67236C191.761 6.67236 227.889 42.897 227.889 87.5815Z" fill="#7A8EC7"/>
<path d="M72.8562 119.103C68.7667 109.416 66.504 98.7621 66.504 87.5805C66.504 83.7875 66.7655 80.0527 67.269 76.3956C72.7013 37.0058 106.415 6.67139 147.197 6.67139M202.372 28.5414C218.078 43.3057 227.89 64.2936 227.89 87.5824C227.89 132.267 191.762 168.492 147.197 168.492L202.372 28.5414Z" stroke="#1E2126" stroke-width="2" stroke-linecap="round" stroke-linejoin="round"/>
<path fill-rule="evenodd" clip-rule="evenodd" d="M122.657 88.9741L104.407 70.6595L53.8643 121.292L104.407 171.929L122.657 153.614L103.319 134.238H161.325V108.347H103.319L122.657 88.9741Z" fill="white"/>
<path fill-rule="evenodd" clip-rule="evenodd" d="M189.987 3.23633L171.738 21.5509L191.075 40.927H133.069V66.8179H191.075L171.738 86.1908L189.987 104.505L240.527 53.8725L189.987 3.23633Z" fill="white"/>
<path fill-rule="evenodd" clip-rule="evenodd" d="M122.657 88.9741L104.407 70.6595L53.8643 121.292L104.407 171.929L122.657 153.614L103.319 134.238H161.325V108.347H103.319L122.657 88.9741Z" stroke="#1E2126" stroke-width="2" stroke-linecap="round" stroke-linejoin="round"/>
<path fill-rule="evenodd" clip-rule="evenodd" d="M189.987 3.23633L171.738 21.5509L191.075 40.927H133.069V66.8179H191.075L171.738 86.1908L189.987 104.505L240.527 53.8725L189.987 3.23633Z" stroke="#1E2126" stroke-width="2" stroke-linecap="round" stroke-linejoin="round"/>
<path d="M257.643 125.939L254.955 123.24M271.092 123.241L268.403 125.94L271.092 123.241ZM257.643 136.726L254.955 139.422L257.643 136.726ZM271.092 139.423L268.403 136.727L271.092 139.423Z" stroke="#C5D3FF" stroke-linecap="round" stroke-linejoin="round"/>
<path fill-rule="evenodd" clip-rule="evenodd" d="M289.549 77.9481C289.549 82.4175 285.934 86.039 281.479 86.039C277.022 86.039 273.41 82.4175 273.41 77.9481C273.41 73.4819 277.022 69.8572 281.479 69.8572C285.934 69.8572 289.549 73.4819 289.549 77.9481Z" stroke="#F4D862" stroke-linecap="round" stroke-linejoin="round"/>
<path fill-rule="evenodd" clip-rule="evenodd" d="M50.593 19.6179C50.593 23.1908 47.7009 26.0906 44.1375 26.0906C40.5709 26.0906 37.6821 23.1908 37.6821 19.6179C37.6821 16.0449 40.5709 13.1451 44.1375 13.1451C47.7009 13.1451 50.593 16.0449 50.593 19.6179Z" stroke="#C5D3FF" stroke-linecap="round" stroke-linejoin="round"/>
<path d="M321.507 108.512H305.369M313.438 100.421V116.603V100.421Z" stroke="#43B581" stroke-linecap="round" stroke-linejoin="round"/>
<path d="M14.5255 53.8712H1.61456M8.07001 47.3985V60.3439V47.3985Z" stroke="#7187DD" stroke-linecap="round" stroke-linejoin="round"/>
</svg>
