<svg width="247" height="152" viewBox="0 0 247 152" fill="none" xmlns="http://www.w3.org/2000/svg">
<g clip-path="url(#clip0)">
<path d="M23.75 114L39.9 115.9L64.6 114V133L34.2 132.05L25.65 126.35L23.75 121.6V114Z" fill="#578CC0"/>
<path fill-rule="evenodd" clip-rule="evenodd" d="M90.9281 41.7791V48.3626C91.4113 48.2242 91.9093 48.121 92.4196 48.0572C93.3669 39.8954 99.5813 33.3282 107.568 31.8421V23.6164C107.568 20.9836 110.444 19.1799 114.275 18.2489V12.971C110.71 15.5699 104.16 16.9407 97.8713 16.9407C91.5809 16.9407 85.0327 15.5699 81.4675 12.971V31.2897C81.4675 32.0389 80.8609 32.6469 80.1104 32.6469V37.0915C80.4673 37.0739 80.8256 37.0617 81.1825 37.0617C86.0261 37.0617 90.9281 38.6821 90.9281 41.7791Z" fill="#FFC88F"/>
<path fill-rule="evenodd" clip-rule="evenodd" d="M97.8711 2.71417C88.4824 2.71417 81.4673 5.75281 81.4673 8.46981C81.4673 11.1882 88.4824 14.2268 97.8711 14.2268C107.26 14.2268 114.275 11.1882 114.275 8.46981C114.275 5.75281 107.26 2.71417 97.8711 2.71417ZM110.283 23.6168C110.283 24.9671 114.471 27.0096 120.786 27.0096C127.099 27.0096 131.289 24.9671 131.289 23.6168C131.289 22.2664 127.099 20.2239 120.786 20.2239C114.471 20.2239 110.283 22.2664 110.283 23.6168Z" fill="#E7AA6C"/>
<path fill-rule="evenodd" clip-rule="evenodd" d="M110.996 31.5125H131.288V27.46C128.746 28.9529 124.756 29.7237 120.785 29.7237C116.815 29.7237 112.827 28.9529 110.283 27.46V31.5491C110.521 31.5396 110.756 31.5125 110.996 31.5125ZM83.6527 71.6177V58.0028C83.6527 54.4878 85.4713 51.3962 88.2141 49.6034V45.1344C86.3507 46.0314 83.7627 46.4956 81.1827 46.4956C78.6042 46.4956 76.0161 46.0314 74.1514 45.1344V71.6177H83.6527Z" fill="#FFC88F"/>
<path fill-rule="evenodd" clip-rule="evenodd" d="M74.1514 41.7791C74.1514 42.2934 76.5684 43.7822 81.1827 43.7822C85.797 43.7822 88.2141 42.2934 88.2141 41.7791C88.2141 41.2647 85.797 39.7759 81.1827 39.7759C76.5684 39.7759 74.1514 41.2647 74.1514 41.7791Z" fill="#E7AA6C"/>
<path fill-rule="evenodd" clip-rule="evenodd" d="M113.933 34.2267H110.996C102.943 34.2267 96.2791 40.2145 95.1758 47.9678H103.448C104.263 41.7752 108.359 36.5814 113.933 34.2267Z" fill="#7A8EC7"/>
<path fill-rule="evenodd" clip-rule="evenodd" d="M153.019 61.6022C153.019 59.31 154.158 57.2838 155.884 56.0176H151.862C148.782 56.0176 146.277 58.5229 146.277 61.6022V69.1235C146.277 69.9731 146.364 70.8023 146.492 71.6179H153.222C153.102 70.8009 153.019 69.9717 153.019 69.1235V61.6022Z" fill="#B3CAFB"/>
<path fill-rule="evenodd" clip-rule="evenodd" d="M127.276 64.2554C127.276 61.9836 129.135 60.1243 131.408 60.1243H131.821C134.094 60.1243 135.953 61.9836 135.953 64.2554V64.6694C135.953 66.9412 134.094 68.8019 131.821 68.8019H131.408C129.135 68.8019 127.276 66.9412 127.276 64.6694V64.2554ZM86.3672 58.0031V71.6179H92.7933C92.7607 71.3886 92.724 71.1606 92.724 70.9231V58.9667C92.724 56.3039 94.8819 54.1461 97.5446 54.1461H103.908C104.972 54.1461 105.837 55.0092 105.837 56.0746V71.6179H112.643H143.75C143.64 70.7996 143.563 69.9704 143.563 69.1221V61.6022C143.563 57.0259 147.287 53.3033 151.863 53.3033H162.276C163.025 53.3033 163.633 53.9099 163.633 54.6604H172.059C172.059 53.9099 172.667 53.3033 173.416 53.3033H189.368V50.2253C189.368 41.4039 182.191 34.2273 173.37 34.2273H113.932C108.36 36.5806 104.262 41.7757 103.448 47.9684H107.765C108.514 47.9684 109.122 48.575 109.122 49.3255C109.122 50.0747 108.514 50.6827 107.765 50.6827H93.6876C89.6515 50.6827 86.3672 53.9656 86.3672 58.0031Z" fill="#99ABD8"/>
<path fill-rule="evenodd" clip-rule="evenodd" d="M103.908 54.1458H97.5456C94.8828 54.1458 92.7236 56.3037 92.7236 58.9664V70.9228C92.7236 71.1603 92.7603 71.3897 92.7942 71.6177H105.836V56.0743C105.836 55.009 104.973 54.1458 103.908 54.1458Z" fill="#8BA0D2"/>
<path fill-rule="evenodd" clip-rule="evenodd" d="M163.633 54.66C163.633 55.4092 163.025 56.0172 162.276 56.0172H155.885C154.159 57.2834 153.02 59.3096 153.02 61.6018V69.1231C153.02 69.9713 153.103 70.8005 153.222 71.6175H166.492H172.085H194.646H196.571C196.7 70.8032 196.785 69.974 196.785 69.1231V61.6018C196.785 58.5225 194.28 56.0172 191.201 56.0172H173.415C172.666 56.0172 172.058 55.4092 172.058 54.66H163.633Z" fill="#C2D2F1"/>
<path fill-rule="evenodd" clip-rule="evenodd" d="M63.7849 114.063V76.2509L25.9749 114.063H63.7849Z" fill="#578CC0"/>
<path fill-rule="evenodd" clip-rule="evenodd" d="M114 139.567V148.975H184.571C190.422 148.975 195.32 144.837 196.507 139.336C195.869 139.419 195.226 139.475 194.575 139.475H143.353C139 139.475 134.873 137.581 132.035 134.28C129.196 130.978 127.942 126.616 128.593 122.31L132.316 97.7439C132.823 94.4012 135.643 91.9746 139.024 91.9746H196.785V84.5606C194.201 83.6784 192.325 81.2546 192.325 78.3747V74.3318H176.632C177.043 75.0769 177.298 75.921 177.298 76.8316V78.3747C177.298 81.9942 174.355 84.9379 170.735 84.9379C167.116 84.9379 164.171 81.9942 164.171 78.3747V74.3318H114V132.988C114 133.737 113.392 134.345 112.643 134.345V138.21C113.392 138.21 114 138.818 114 139.567Z" fill="#6FA4D8"/>
<path fill-rule="evenodd" clip-rule="evenodd" d="M75.3212 82.8201C75.3212 82.071 75.9292 81.4629 76.6783 81.4629H103.821C104.57 81.4629 105.178 82.071 105.178 82.8201V110.681C105.178 118.912 98.4808 125.609 90.2498 125.609C82.0187 125.609 75.3212 118.912 75.3212 110.681V82.8201ZM78.714 148.975H111.285V139.566C111.285 138.817 111.893 138.209 112.643 138.209V134.344C111.893 134.344 111.285 133.737 111.285 132.987V74.3325H109.561H66.4998V136.761C66.4998 143.495 71.9799 148.975 78.714 148.975Z" fill="#578CC0"/>
<path fill-rule="evenodd" clip-rule="evenodd" d="M78.0354 94.6891V110.68C78.0354 117.416 83.5155 122.895 90.2497 122.895C96.9838 122.895 102.464 117.416 102.464 110.68V94.6891H78.0354Z" fill="#353744"/>
<path fill-rule="evenodd" clip-rule="evenodd" d="M78.0349 91.9752H102.465V84.1776H78.0349V91.9752Z" fill="#4C4F5F"/>
<path fill-rule="evenodd" clip-rule="evenodd" d="M206.651 122.717L203.772 103.719L202.34 111.387C201.74 114.598 198.935 116.927 195.67 116.927H193.682V118.284C193.682 121.278 191.247 123.713 188.253 123.713C185.261 123.713 182.825 121.278 182.825 118.284V116.927H171.967V118.284C171.967 121.278 169.533 123.713 166.539 123.713C163.546 123.713 161.11 121.278 161.11 118.284V116.927H151.709C147.403 116.927 143.626 114.02 142.526 109.856L138.526 94.7338C136.726 94.9523 135.278 96.3135 135 98.1511L131.278 122.717C130.743 126.238 131.77 129.809 134.092 132.51C136.416 135.212 139.791 136.76 143.353 136.76H194.575C198.137 136.76 201.512 135.212 203.836 132.51C206.158 129.809 207.185 126.238 206.651 122.717Z" fill="#F68820"/>
<path fill-rule="evenodd" clip-rule="evenodd" d="M198.903 94.6891H141.323L145.15 109.163C145.935 112.137 148.633 114.213 151.71 114.213H161.111V112.856C161.111 109.863 163.546 107.427 166.54 107.427C169.532 107.427 171.968 109.863 171.968 112.856V114.213H182.825V112.856C182.825 109.863 185.26 107.427 188.254 107.427C191.246 107.427 193.682 109.863 193.682 112.856V114.213H195.669C197.629 114.213 199.312 112.815 199.672 110.889L202.238 97.1537C202.268 96.9894 202.336 96.8415 202.418 96.7072C201.71 95.4844 200.4 94.6891 198.903 94.6891Z" fill="#FBBE18"/>
<path fill-rule="evenodd" clip-rule="evenodd" d="M188.254 110.142C186.757 110.142 185.539 111.359 185.539 112.856V118.285C185.539 119.782 186.757 120.999 188.254 120.999C189.75 120.999 190.968 119.782 190.968 118.285V112.856C190.968 111.359 189.75 110.142 188.254 110.142ZM166.539 110.142C165.042 110.142 163.825 111.359 163.825 112.856V118.285C163.825 119.782 165.042 120.999 166.539 120.999C168.036 120.999 169.254 119.782 169.254 118.285V112.856C169.254 111.359 168.036 110.142 166.539 110.142Z" fill="#B9BBBE"/>
<path fill-rule="evenodd" clip-rule="evenodd" d="M196.785 74.332H195.039V78.3749C195.039 80.4961 196.766 82.2238 198.889 82.2238H200.238C201.617 82.2238 202.738 81.1028 202.738 79.7239V76.8318C202.738 75.453 201.617 74.332 200.238 74.332H196.785ZM166.885 78.3744C166.885 80.4969 168.612 82.2232 170.734 82.2232C172.857 82.2232 174.584 80.4969 174.584 78.3744V76.8313C174.584 75.4538 173.463 74.3314 172.084 74.3314H166.885V78.3744Z" fill="#99ABD8"/>
<path fill-rule="evenodd" clip-rule="evenodd" d="M131.408 68.8014H131.82C134.094 68.8014 135.953 66.9421 135.953 64.6688V64.2549C135.953 61.9831 134.094 60.1238 131.82 60.1238H131.408C129.135 60.1238 127.275 61.9831 127.275 64.2549V64.6688C127.275 66.9421 129.135 68.8014 131.408 68.8014Z" fill="#202225"/>
<path fill-rule="evenodd" clip-rule="evenodd" d="M184.571 148.975H120.366C116.851 148.975 114 146.123 114 142.608V139.567C114 138.818 113.392 138.21 112.643 138.21C111.893 138.21 111.285 138.818 111.285 139.567V142.608C111.285 146.123 108.435 148.975 104.919 148.975H78.714C71.969 148.975 66.4998 143.507 66.4998 136.761V84.9286C66.4998 79.0766 71.2443 74.332 77.0963 74.332H108.153C109.884 74.332 111.285 75.7339 111.285 77.4643V132.988C111.285 133.737 111.893 134.345 112.643 134.345C113.392 134.345 114 133.737 114 132.988V77.4643C114 75.7339 115.402 74.332 117.132 74.332H160.421C162.492 74.332 164.171 76.0108 164.171 78.0818C164.171 81.5086 166.67 84.573 170.08 84.9069C173.992 85.2869 177.298 82.2102 177.298 78.3749V76.8319C177.298 75.9212 177.043 75.0771 176.632 74.332H188.575C190.647 74.332 192.325 76.0108 192.325 78.0818V78.3749C192.325 81.2548 194.201 83.6786 196.785 84.5608V86.796C196.785 89.6569 194.467 91.9749 191.607 91.9749H139.024C135.671 91.9749 132.819 94.4272 132.316 97.7441L128.649 121.942C128.149 125.245 128.605 128.669 130.196 131.608C132.865 136.539 137.933 139.475 143.353 139.475C143.353 139.475 175.728 139.441 189.947 139.385C193.456 139.372 195.16 143.767 192.491 146.047C190.359 147.873 187.592 148.975 184.571 148.975ZM74.1513 46.6884C74.1513 45.9623 74.853 45.4615 75.5451 45.6854C77.2063 46.2215 79.1972 46.4956 81.1827 46.4956C83.1695 46.4956 85.1605 46.2215 86.8216 45.6854C87.5124 45.4615 88.214 45.9636 88.214 46.6897V49.6035C85.4713 51.3963 83.6527 54.4879 83.6527 58.0029V66.8677C83.6527 69.4911 81.526 71.6177 78.9027 71.6177C76.2793 71.6177 74.1513 69.4911 74.1513 66.8677V46.6884ZM81.1827 39.7764C85.797 39.7764 88.214 41.2639 88.214 41.7796C88.214 42.2939 85.797 43.7814 81.1827 43.7814C76.5684 43.7814 74.1513 42.2939 74.1513 41.7796C74.1513 41.2639 76.5684 39.7764 81.1827 39.7764ZM174.584 76.8319V78.3749C174.584 80.4961 172.858 82.2238 170.735 82.2238C168.613 82.2238 166.885 80.4961 166.885 78.3749V74.332H172.084C173.463 74.332 174.584 75.453 174.584 76.8319ZM93.6874 50.6824H107.765C108.514 50.6824 109.122 50.0744 109.122 49.3253C109.122 48.5748 108.514 47.9681 107.765 47.9681H103.448H100.925C97.7629 47.9681 95.7489 44.4898 97.4155 41.804C100.236 37.2603 105.264 34.2271 110.996 34.2271H113.933H173.369C182.206 34.2271 189.367 41.3901 189.367 50.2251C189.367 51.9242 187.99 53.3031 186.289 53.3031H173.415C172.666 53.3031 172.058 53.9111 172.058 54.6602C172.058 55.4094 172.666 56.0174 173.415 56.0174H191.201C194.28 56.0174 196.785 58.5226 196.785 61.602C196.785 61.602 196.772 63.0514 196.747 64.8524C196.697 68.6022 193.644 71.6177 189.893 71.6177H172.084H166.493H153.221H148.775C147.396 71.6177 146.279 70.5008 146.278 69.1233V61.602C146.278 58.5172 148.778 56.0174 151.863 56.0174H155.884H162.276C163.025 56.0174 163.633 55.4094 163.633 54.6602C163.633 53.9111 163.025 53.3031 162.276 53.3031H151.863C147.28 53.3031 143.564 57.0189 143.564 61.602V69.1233C143.564 69.9715 143.64 70.7994 143.75 71.6177H112.643H105.837H92.7944H86.367V58.0029C86.367 53.9599 89.6445 50.6824 93.6874 50.6824ZM110.283 27.4604C112.826 28.9519 116.816 29.7241 120.785 29.7241C124.755 29.7241 128.745 28.9519 131.288 27.4604C131.288 29.6997 129.478 31.5155 127.239 31.5182C123.526 31.5236 118.054 31.5304 114.338 31.5372C112.093 31.5426 110.283 29.7241 110.283 27.4807V27.4604ZM120.785 20.2241C127.099 20.2241 131.288 22.2666 131.288 23.6169C131.288 24.9673 127.099 27.0098 120.785 27.0098C114.472 27.0098 110.283 24.9673 110.283 23.6169C110.283 22.2666 114.472 20.2241 120.785 20.2241ZM97.8715 14.2269C88.4828 14.2269 81.4677 11.1882 81.4677 8.46987C81.4677 5.75287 88.4828 2.71422 97.8715 2.71422C107.26 2.71422 114.275 5.75287 114.275 8.46987C114.275 11.1882 107.26 14.2269 97.8715 14.2269ZM200.238 74.332C201.617 74.332 202.738 75.453 202.738 76.8319V79.7239C202.738 81.1028 201.617 82.2238 200.238 82.2238H198.889C196.766 82.2238 195.039 80.4961 195.039 78.3749V74.332H196.785H200.238ZM202.418 96.7072C202.336 96.8416 202.268 96.9895 202.237 97.1537L199.672 110.889C199.312 112.817 197.631 114.213 195.67 114.213H193.682V113.097C193.682 110.265 191.616 107.729 188.796 107.454C185.561 107.138 182.825 109.684 182.825 112.856V114.213H171.967V113.097C171.967 110.265 169.902 107.729 167.082 107.454C163.846 107.138 161.11 109.684 161.11 112.856V114.213H151.709C148.631 114.213 145.937 112.139 145.15 109.163L142.193 97.9829C141.753 96.3191 143.009 94.6891 144.73 94.6891H198.904C200.401 94.6891 201.709 95.4844 202.418 96.7072ZM185.539 118.284V112.856C185.539 111.359 186.756 110.142 188.253 110.142C189.75 110.142 190.967 111.359 190.967 112.856V118.284C190.967 119.781 189.75 120.999 188.253 120.999C186.756 120.999 185.539 119.781 185.539 118.284ZM163.825 118.284V112.856C163.825 111.359 165.042 110.142 166.539 110.142C168.036 110.142 169.253 111.359 169.253 112.856V118.284C169.253 119.781 168.036 120.999 166.539 120.999C165.042 120.999 163.825 119.781 163.825 118.284ZM204.565 108.949L206.607 122.43C206.969 124.816 206.743 127.288 205.752 129.489C203.711 134.026 199.307 136.761 194.575 136.761H143.645C141.232 136.761 138.825 136.169 136.797 134.861C132.614 132.163 130.568 127.398 131.278 122.717L135 98.1512C135.003 98.1322 135.006 98.1146 135.008 98.0956C135.394 95.764 138.787 95.7192 139.392 98.0046L142.526 109.857C143.629 114.024 147.399 116.927 151.711 116.927H161.11V118.043C161.11 120.877 163.177 123.412 165.997 123.687C169.233 124.003 171.967 121.457 171.967 118.284V116.927H182.825V118.043C182.825 120.877 184.891 123.412 187.712 123.687C190.947 124.003 193.682 121.457 193.682 118.284V116.927H195.67C198.937 116.927 201.74 114.6 202.34 111.387L202.802 108.919C202.986 107.928 204.414 107.953 204.565 108.949ZM41.2854 114.062H34.858C31.5805 114.062 29.9383 110.098 32.2563 107.78L61.1825 78.854C62.1433 77.8945 63.7855 78.5731 63.7855 79.9329V91.5623C63.7855 103.99 53.7128 114.062 41.2854 114.062ZM63.7855 128.41C63.7855 130.188 62.3428 131.631 60.565 131.631H40.2648C33.3271 131.631 27.3991 127.246 25.0947 121.103C24.3103 119.011 25.8968 116.777 28.132 116.777H60.565C62.3428 116.777 63.7855 118.219 63.7855 119.997V128.41ZM245.643 148.975H193.128C196.476 146.622 198.812 142.933 199.361 138.685C203.102 137.42 206.303 134.685 208.111 130.858C209.414 128.101 209.739 124.979 209.282 121.964L205.612 97.7441C205.136 94.6023 202.608 92.2979 199.5 92.0291V84.9381H200.238C203.119 84.9381 205.452 82.6038 205.452 79.7239V76.8319C205.452 73.952 203.119 71.6177 200.238 71.6177H199.314C199.424 70.7994 199.5 69.9715 199.5 69.1233V61.602C199.5 57.3229 196.245 53.793 192.082 53.3519V50.2251C192.082 39.8904 183.704 31.5128 173.369 31.5128H138.476C136.006 31.5128 134.003 29.5097 134.003 27.0383V23.6169C134.003 19.6079 127.353 17.5098 120.785 17.5098C119.506 17.5098 118.225 17.5912 116.99 17.75V8.46987C116.99 2.96937 107.139 -6.10352e-05 97.8715 -6.10352e-05C88.6035 -6.10352e-05 78.7534 2.96937 78.7534 8.46987V31.2889C78.7534 32.038 79.3614 32.646 80.1105 32.646C80.861 32.646 81.4677 32.038 81.4677 31.2889V15.2176C81.4677 14.2798 82.4489 13.646 83.2849 14.0694C87.0143 15.9545 92.5365 16.9412 97.8715 16.9412C103.206 16.9412 108.729 15.9545 112.457 14.0694C113.293 13.646 114.275 14.2798 114.275 15.2176V18.2494C110.444 19.1804 107.568 20.9827 107.568 23.6169V31.8412C99.5815 33.3286 93.3671 39.8945 92.4198 48.0577C91.9095 48.1215 91.4115 48.2246 90.9283 48.3631V41.7796C90.9283 38.6826 86.0263 37.0621 81.1827 37.0621C80.8258 37.0621 80.4675 37.0744 80.1105 37.092C75.6428 37.3132 71.437 38.9119 71.437 41.7796V67.5327C71.437 69.7883 69.609 71.6177 67.352 71.6177H65.1426C64.9621 71.6177 64.7843 71.6544 64.6201 71.7236C64.4559 71.7914 64.3066 71.8919 64.1831 72.0154L21.7385 114.46C21.7385 114.461 21.7371 114.461 21.7371 114.463C21.6231 114.577 21.5403 114.71 21.4752 114.85C21.4562 114.892 21.4453 114.934 21.4304 114.977C21.3897 115.095 21.3653 115.213 21.3571 115.337C21.3558 115.365 21.3408 115.39 21.3408 115.42V116.778C21.3408 126.792 29.4755 134.345 40.2648 134.345H61.3698C62.7038 134.345 63.7855 135.427 63.7855 136.761C63.7855 141.809 66.3111 146.271 70.1573 148.975H1.3569C0.607756 148.975 -0.000244141 149.583 -0.000244141 150.332C-0.000244141 151.081 0.607756 151.689 1.3569 151.689H78.714H112.643H184.571H245.643C246.392 151.689 247 151.081 247 150.332C247 149.583 246.392 148.975 245.643 148.975ZM16.3822 43.2834C16.7297 43.2834 17.0771 43.1504 17.3417 42.8858L18.9472 41.2803C19.4779 40.751 19.4779 39.8919 18.9472 39.3613C18.418 38.832 17.5589 38.832 17.0282 39.3613L15.4227 40.9668C14.8921 41.4974 14.8921 42.3551 15.4227 42.8858C15.6874 43.1504 16.0348 43.2834 16.3822 43.2834ZM8.35338 51.3136C8.70081 51.3136 9.04824 51.1806 9.31288 50.916L10.9184 49.3091C11.449 48.7799 11.449 47.9208 10.9184 47.3901C10.3891 46.8609 9.52866 46.8609 8.99938 47.3901L7.39388 48.997C6.86323 49.5276 6.86323 50.3854 7.39388 50.916C7.65852 51.1806 8.00595 51.3136 8.35338 51.3136ZM17.0284 50.916C17.293 51.1806 17.6404 51.3136 17.9879 51.3136C18.3353 51.3136 18.6827 51.1806 18.9474 50.916C19.478 50.3854 19.478 49.5276 18.9474 48.997L17.3419 47.3901C16.8112 46.8609 15.9535 46.8609 15.4229 47.3901C14.8922 47.9208 14.8922 48.7799 15.4229 49.3091L17.0284 50.916ZM8.99951 42.8858C9.26416 43.1504 9.61159 43.2834 9.95901 43.2834C10.3064 43.2834 10.6539 43.1504 10.9185 42.8858C11.4492 42.3551 11.4492 41.4974 10.9185 40.9668L9.31301 39.3613C8.78237 38.832 7.9233 38.832 7.39401 39.3613C6.86337 39.8919 6.86337 40.751 7.39401 41.2803L8.99951 42.8858ZM39.9037 52.6105C41.0342 52.6105 41.953 53.5293 41.953 54.6598C41.953 55.789 41.0342 56.7091 39.9037 56.7091C38.7732 56.7091 37.8544 55.789 37.8544 54.6598C37.8544 53.5293 38.7732 52.6105 39.9037 52.6105ZM39.9037 59.4234C42.5311 59.4234 44.6673 57.2859 44.6673 54.6598C44.6673 52.0337 42.5311 49.8962 39.9037 49.8962C37.2776 49.8962 35.1401 52.0337 35.1401 54.6598C35.1401 57.2859 37.2776 59.4234 39.9037 59.4234ZM224.881 63.8042H225.573C226.322 63.8042 226.93 64.4122 226.93 65.1614V65.8549C226.93 66.604 227.538 67.212 228.287 67.212C229.036 67.212 229.644 66.604 229.644 65.8549V65.1614C229.644 64.4122 230.252 63.8042 231.001 63.8042H231.694C232.443 63.8042 233.051 63.1976 233.051 62.4471C233.051 61.6966 232.443 61.09 231.694 61.09H231.001C230.252 61.09 229.644 60.482 229.644 59.7328V59.0407C229.644 58.2915 229.036 57.6835 228.287 57.6835C227.538 57.6835 226.93 58.2915 226.93 59.0407V59.7328C226.93 60.482 226.322 61.09 225.573 61.09H224.881C224.132 61.09 223.524 61.6966 223.524 62.4471C223.524 63.1976 224.132 63.8042 224.881 63.8042Z" fill="#202225"/>
<path fill-rule="evenodd" clip-rule="evenodd" d="M100.168 91.9748H80.3311C79.0636 91.9748 78.0348 90.9475 78.0348 89.6799V86.473C78.0348 85.2054 79.0636 84.1767 80.3311 84.1767H100.168C101.436 84.1767 102.463 85.2054 102.463 86.473V89.6799C102.463 90.9475 101.436 91.9748 100.168 91.9748ZM102.463 110.68C102.463 117.693 96.5245 123.344 89.4131 122.867C82.9287 122.432 78.0348 116.748 78.0348 110.249V99.6888C78.0348 96.927 80.2741 94.6891 83.0346 94.6891H97.465C100.225 94.6891 102.463 96.927 102.463 99.6888V110.68ZM103.821 81.4624H76.6777C75.9286 81.4624 75.3206 82.0704 75.3206 82.8195V110.68C75.3206 118.913 82.0181 125.609 90.2491 125.609C98.4816 125.609 105.178 118.913 105.178 110.68V82.8195C105.178 82.0704 104.571 81.4624 103.821 81.4624Z" fill="#202225"/>
</g>
<defs>
<clipPath id="clip0">
<rect width="247" height="152" fill="white"/>
</clipPath>
</defs>
</svg>
