<svg width="306" height="105" viewBox="0 0 306 105" fill="none" xmlns="http://www.w3.org/2000/svg">
<g clip-path="url(#clip0)">
<path opacity="0.2" d="M299.25 93.7097H290.554C290.114 94.3864 289.553 94.9758 288.9 95.4484V103.871H299.25V93.7097Z" fill="#72767D"/>
<path opacity="0.2" d="M211.5 83.5484V90.3226H222.75V97.0968H231.75V91.4516H229.5V89.1936H231.502C231.063 88.708 230.773 88.1047 230.668 87.457C230.564 86.8093 230.649 86.145 230.914 85.545C231.178 84.9449 231.611 84.4349 232.159 84.0769C232.706 83.7189 233.346 83.5283 234 83.5283C234.654 83.5283 235.294 83.7189 235.841 84.0769C236.389 84.4349 236.822 84.9449 237.086 85.545C237.351 86.145 237.436 86.8093 237.332 87.457C237.227 88.1047 236.937 88.708 236.498 89.1936H238.5V91.4516H243.326C243.198 90.9725 243.126 90.4799 243.113 89.9839C243.117 88.7602 243.426 87.557 244.012 86.4839C245.187 84.3844 245.771 82.0036 245.7 79.5968C245.705 78.9652 245.846 78.3421 246.113 77.7703C246.38 77.1984 246.768 76.6914 247.249 76.2839C247.73 75.8763 248.292 75.578 248.899 75.4093C249.506 75.2406 250.141 75.2055 250.762 75.3065C251.808 75.5086 252.751 76.0701 253.428 76.8944C254.106 77.7186 254.476 78.754 254.475 79.8226C254.425 82.1646 254.926 84.4855 255.938 86.5968C256.537 87.5823 256.848 88.7166 256.838 89.871C256.835 90.4029 256.775 90.9329 256.657 91.4516H260.201C260.073 90.9725 260.001 90.4799 259.988 89.9839C259.992 88.7602 260.301 87.557 260.887 86.4839C262.062 84.3844 262.646 82.0036 262.575 79.5968C262.58 78.9652 262.721 78.3421 262.988 77.7703C263.255 77.1984 263.643 76.6914 264.124 76.2839C264.605 75.8763 265.167 75.578 265.774 75.4093C266.381 75.2406 267.016 75.2055 267.637 75.3065C268.683 75.5086 269.626 76.0701 270.303 76.8944C270.981 77.7186 271.351 78.754 271.35 79.8226C271.3 82.1646 271.801 84.4855 272.812 86.5968C273.412 87.5823 273.723 88.7166 273.713 89.871C273.71 90.4029 273.65 90.9329 273.532 91.4516H278.201C278.073 90.9725 278.001 90.4799 277.988 89.9839C277.992 88.7602 278.301 87.557 278.887 86.4839C280.062 84.3844 280.646 82.0036 280.575 79.5968C280.58 78.9652 280.721 78.3421 280.988 77.7703C281.255 77.1984 281.643 76.6914 282.124 76.2839C282.605 75.8763 283.167 75.578 283.774 75.4093C284.381 75.2406 285.016 75.2055 285.637 75.3065C286.683 75.5086 287.626 76.0701 288.303 76.8944C288.981 77.7186 289.351 78.754 289.35 79.8226C289.3 82.1646 289.801 84.4855 290.812 86.5968C291.412 87.5823 291.723 88.7166 291.712 89.871C291.71 90.4029 291.65 90.9329 291.533 91.4516H297V89.1936H299.002C298.569 88.7074 298.285 88.1059 298.184 87.4615C298.083 86.8171 298.17 86.1572 298.433 85.561C298.697 84.9648 299.127 84.4577 299.671 84.1007C300.215 83.7437 300.85 83.5519 301.5 83.5484V71.129C301.485 65.7437 299.347 60.5833 295.553 56.7753C291.758 52.9673 286.616 50.8214 281.25 50.8065H252.338C250.507 50.8074 248.704 50.3669 247.079 49.522C245.454 48.6771 244.055 47.4526 243 45.9516L231.188 28.7903C228.919 25.4747 225.879 22.7647 222.33 20.8955C218.782 19.0264 214.833 18.0546 210.825 18.0645H202.5V83.5484H211.5ZM217.463 40.1936L216 37.2581C215.925 37.1001 215.9 36.9225 215.93 36.75C215.959 36.5774 216.041 36.4182 216.165 36.2944C216.288 36.1706 216.447 36.0882 216.619 36.0586C216.791 36.029 216.968 36.0536 217.125 36.129L220.05 37.7097C220.154 37.765 220.27 37.794 220.387 37.794C220.505 37.794 220.621 37.765 220.725 37.7097L223.65 36.2419C223.807 36.1665 223.984 36.1419 224.156 36.1715C224.328 36.2011 224.487 36.2835 224.61 36.4073C224.734 36.5311 224.816 36.6903 224.845 36.8629C224.875 37.0354 224.85 37.213 224.775 37.371L223.312 40.3065C223.257 40.4108 223.229 40.5271 223.229 40.6452C223.229 40.7633 223.257 40.8796 223.312 40.9839L224.775 43.9194C224.85 44.0774 224.875 44.2549 224.845 44.4275C224.816 44.6001 224.734 44.7592 224.61 44.8831C224.487 45.0069 224.328 45.0893 224.156 45.1189C223.984 45.1485 223.807 45.1239 223.65 45.0484L220.725 43.5807C220.621 43.5253 220.505 43.4964 220.387 43.4964C220.27 43.4964 220.154 43.5253 220.05 43.5807L217.125 45.0484C216.968 45.1239 216.791 45.1485 216.619 45.1189C216.447 45.0893 216.288 45.0069 216.165 44.8831C216.041 44.7592 215.959 44.6001 215.93 44.4275C215.9 44.2549 215.925 44.0774 216 43.9194L217.463 40.9839C217.518 40.8597 217.547 40.725 217.547 40.5887C217.547 40.4525 217.518 40.3177 217.463 40.1936V40.1936Z" fill="#72767D"/>
<path opacity="0.2" d="M40.5 83.5484V68.871L29.25 57.5807V35.0001L40.5 23.7097V18.0646H31.05C29.1864 18.0571 27.3398 18.42 25.6167 19.1322C23.8935 19.8445 22.3279 20.8921 21.0102 22.2146C19.6924 23.537 18.6486 25.1082 17.9389 26.8376C17.2291 28.5669 16.8676 30.4201 16.875 32.2904V69.0968C16.875 70.2347 16.4246 71.326 15.6229 72.1305C14.8212 72.9351 13.7338 73.3872 12.6 73.3872H12.375C9.09295 73.3872 5.94532 74.6956 3.62455 77.0247C1.30379 79.3538 0 82.5127 0 85.8065L0 103.871H40.5V83.5484Z" fill="#72767D"/>
<path opacity="0.2" d="M249.637 96.7581C249.102 96.7197 248.574 96.6173 248.062 96.4532V103.871H252V96.4645C251.237 96.7055 250.436 96.8049 249.637 96.7581V96.7581Z" fill="#72767D"/>
<path opacity="0.2" d="M266.512 96.7581C265.977 96.7197 265.449 96.6173 264.938 96.4532V103.871H268.875V96.4645C268.112 96.7055 267.311 96.8049 266.512 96.7581V96.7581Z" fill="#72767D"/>
<path opacity="0.2" d="M261.225 93.7097H255.679C255.239 94.3864 254.678 94.9758 254.025 95.4484V103.871H262.912V95.4371C262.257 94.9604 261.687 94.3765 261.225 93.7097V93.7097Z" fill="#72767D"/>
<path opacity="0.2" d="M279.225 93.7097H272.554C272.114 94.3864 271.553 94.9758 270.9 95.4484V103.871H280.912V95.4371C280.257 94.9604 279.687 94.3765 279.225 93.7097V93.7097Z" fill="#72767D"/>
<path opacity="0.2" d="M244.35 93.7097H236.25V103.871H246.037V95.4371C245.382 94.9604 244.812 94.3765 244.35 93.7097V93.7097Z" fill="#72767D"/>
<path d="M272.813 86.5968C271.801 84.4854 271.3 82.1646 271.35 79.8226C271.351 78.754 270.981 77.7186 270.303 76.8943C269.626 76.0701 268.683 75.5086 267.638 75.3064C267.016 75.2055 266.381 75.2406 265.774 75.4093C265.168 75.578 264.605 75.8763 264.124 76.2838C263.643 76.6913 263.255 77.1984 262.988 77.7702C262.721 78.3421 262.58 78.9652 262.575 79.5968C262.646 82.0036 262.062 84.3844 260.888 86.4839C260.301 87.557 259.992 88.7601 259.988 89.9839C260.001 90.4799 260.073 90.9725 260.201 91.4516H273.533C273.65 90.9329 273.71 90.4029 273.713 89.871C273.723 88.7166 273.412 87.5823 272.813 86.5968V86.5968Z" fill="#7687B2"/>
<path d="M272.554 93.7097H261.225C261.687 94.3765 262.258 94.9604 262.913 95.4371V103.984C262.913 104.253 263.019 104.512 263.209 104.702C263.399 104.893 263.657 105 263.925 105C264.194 105 264.451 104.893 264.641 104.702C264.831 104.512 264.938 104.253 264.938 103.984V96.4533C265.449 96.6173 265.977 96.7197 266.513 96.7581C267.311 96.8049 268.112 96.7055 268.875 96.4646V103.984C268.875 104.253 268.982 104.512 269.172 104.702C269.362 104.893 269.619 105 269.888 105C270.156 105 270.414 104.893 270.604 104.702C270.793 104.512 270.9 104.253 270.9 103.984V95.4484C271.553 94.9758 272.114 94.3864 272.554 93.7097Z" fill="#7687B2"/>
<path d="M290.554 93.7097H279.225C279.687 94.3765 280.258 94.9604 280.913 95.4371V103.984C280.913 104.253 281.019 104.512 281.209 104.702C281.399 104.893 281.657 105 281.925 105C282.194 105 282.451 104.893 282.641 104.702C282.831 104.512 282.938 104.253 282.938 103.984V96.4533C283.449 96.6173 283.977 96.7197 284.513 96.7581C285.311 96.8049 286.112 96.7055 286.875 96.4646V103.984C286.875 104.253 286.982 104.512 287.172 104.702C287.362 104.893 287.619 105 287.888 105C288.156 105 288.414 104.893 288.604 104.702C288.793 104.512 288.9 104.253 288.9 103.984V95.4484C289.553 94.9758 290.114 94.3864 290.554 93.7097Z" fill="#7687B2"/>
<path d="M290.813 86.5968C289.801 84.4854 289.3 82.1646 289.35 79.8226C289.351 78.754 288.981 77.7186 288.303 76.8943C287.626 76.0701 286.683 75.5086 285.638 75.3064C285.016 75.2055 284.381 75.2406 283.774 75.4093C283.168 75.578 282.605 75.8763 282.124 76.2838C281.643 76.6913 281.255 77.1984 280.988 77.7702C280.721 78.3421 280.58 78.9652 280.575 79.5968C280.646 82.0036 280.062 84.3844 278.888 86.4839C278.301 87.557 277.992 88.7601 277.988 89.9839C278.001 90.4799 278.073 90.9725 278.201 91.4516H291.533C291.65 90.9329 291.71 90.4029 291.713 89.871C291.723 88.7166 291.412 87.5823 290.813 86.5968V86.5968Z" fill="#7687B2"/>
<path d="M255.679 93.7097H244.35C244.812 94.3765 245.383 94.9604 246.038 95.4371V103.984C246.038 104.253 246.144 104.512 246.334 104.702C246.524 104.893 246.782 105 247.05 105C247.319 105 247.576 104.893 247.766 104.702C247.956 104.512 248.063 104.253 248.063 103.984V96.4533C248.574 96.6173 249.102 96.7197 249.638 96.7581C250.436 96.8049 251.237 96.7055 252 96.4646V103.984C252 104.253 252.107 104.512 252.297 104.702C252.486 104.893 252.744 105 253.013 105C253.281 105 253.539 104.893 253.728 104.702C253.918 104.512 254.025 104.253 254.025 103.984V95.4484C254.678 94.9758 255.239 94.3864 255.679 93.7097Z" fill="#7687B2"/>
<path d="M255.938 86.5968C254.926 84.4854 254.425 82.1646 254.475 79.8226C254.476 78.754 254.106 77.7186 253.428 76.8943C252.751 76.0701 251.808 75.5086 250.763 75.3064C250.141 75.2055 249.506 75.2406 248.899 75.4093C248.293 75.578 247.73 75.8763 247.249 76.2838C246.768 76.6913 246.38 77.1984 246.113 77.7702C245.846 78.3421 245.705 78.9652 245.7 79.5968C245.771 82.0036 245.187 84.3844 244.013 86.4839C243.426 87.557 243.117 88.7601 243.113 89.9839C243.126 90.4799 243.198 90.9725 243.326 91.4516H256.658C256.775 90.9329 256.835 90.4029 256.838 89.871C256.848 88.7166 256.537 87.5823 255.938 86.5968V86.5968Z" fill="#7687B2"/>
<path d="M216 43.9194C215.925 44.0774 215.9 44.2549 215.93 44.4275C215.959 44.6001 216.041 44.7592 216.165 44.8831C216.288 45.0069 216.447 45.0893 216.619 45.1189C216.791 45.1485 216.967 45.1239 217.125 45.0484L220.05 43.5807C220.154 43.5253 220.27 43.4964 220.387 43.4964C220.505 43.4964 220.621 43.5253 220.725 43.5807L223.65 45.0484C223.807 45.1239 223.984 45.1485 224.156 45.1189C224.328 45.0893 224.487 45.0069 224.61 44.8831C224.733 44.7592 224.816 44.6001 224.845 44.4275C224.875 44.2549 224.85 44.0774 224.775 43.9194L223.312 40.9839C223.257 40.8796 223.228 40.7633 223.228 40.6452C223.228 40.5271 223.257 40.4108 223.312 40.3065L224.775 37.371C224.85 37.213 224.875 37.0355 224.845 36.8629C224.816 36.6903 224.733 36.5311 224.61 36.4073C224.487 36.2835 224.328 36.2011 224.156 36.1715C223.984 36.1419 223.807 36.1665 223.65 36.242L220.725 37.7097C220.621 37.7651 220.505 37.794 220.387 37.794C220.27 37.794 220.154 37.7651 220.05 37.7097L217.125 36.1291C216.967 36.0536 216.791 36.029 216.619 36.0586C216.447 36.0882 216.288 36.1706 216.165 36.2944C216.041 36.4182 215.959 36.5774 215.93 36.75C215.9 36.9226 215.925 37.1001 216 37.2581L217.462 40.1936C217.518 40.3178 217.547 40.4525 217.547 40.5887C217.547 40.725 217.518 40.8597 217.462 40.9839L216 43.9194Z" fill="white"/>
<path d="M248.4 16.1452C248.55 16.1551 248.701 16.1328 248.842 16.0796C248.983 16.0263 249.111 15.9435 249.218 15.8366C249.324 15.7297 249.407 15.6012 249.46 15.4597C249.513 15.3182 249.535 15.167 249.525 15.0161V13.8871C249.525 13.5877 249.406 13.3005 249.195 13.0887C248.985 12.877 248.698 12.7581 248.4 12.7581C248.102 12.7581 247.815 12.877 247.605 13.0887C247.394 13.3005 247.275 13.5877 247.275 13.8871V15.0161C247.265 15.167 247.287 15.3182 247.34 15.4597C247.393 15.6012 247.476 15.7297 247.582 15.8366C247.689 15.9435 247.817 16.0263 247.958 16.0796C248.099 16.1328 248.25 16.1551 248.4 16.1452V16.1452Z" fill="#72767D"/>
<path d="M248.4 25.1775C248.55 25.1875 248.701 25.1651 248.842 25.1119C248.983 25.0587 249.111 24.9759 249.218 24.869C249.324 24.7621 249.407 24.6336 249.46 24.4921C249.513 24.3506 249.535 24.1993 249.525 24.0485V22.9194C249.525 22.62 249.406 22.3328 249.195 22.1211C248.985 21.9094 248.698 21.7904 248.4 21.7904C248.102 21.7904 247.815 21.9094 247.605 22.1211C247.394 22.3328 247.275 22.62 247.275 22.9194V24.0485C247.265 24.1993 247.287 24.3506 247.34 24.4921C247.393 24.6336 247.476 24.7621 247.582 24.869C247.689 24.9759 247.817 25.0587 247.958 25.1119C248.099 25.1651 248.25 25.1875 248.4 25.1775V25.1775Z" fill="#72767D"/>
<path d="M252.338 20.0968H253.463C253.761 20.0968 254.047 19.9779 254.258 19.7661C254.469 19.5544 254.588 19.2672 254.588 18.9678C254.588 18.6683 254.469 18.3812 254.258 18.1694C254.047 17.9577 253.761 17.8387 253.463 17.8387H252.338C252.187 17.8288 252.037 17.8511 251.896 17.9043C251.755 17.9575 251.626 18.0404 251.52 18.1473C251.413 18.2542 251.331 18.3827 251.278 18.5242C251.225 18.6657 251.203 18.8169 251.213 18.9678C251.213 19.2672 251.331 19.5544 251.542 19.7661C251.753 19.9779 252.039 20.0968 252.338 20.0968Z" fill="#72767D"/>
<path d="M243.338 20.0968H244.463C244.761 20.0968 245.047 19.9779 245.258 19.7661C245.469 19.5544 245.587 19.2672 245.587 18.9678C245.587 18.6683 245.469 18.3812 245.258 18.1694C245.047 17.9577 244.761 17.8387 244.463 17.8387H243.338C243.187 17.8288 243.036 17.8511 242.895 17.9043C242.754 17.9575 242.626 18.0404 242.52 18.1473C242.413 18.2542 242.331 18.3827 242.278 18.5242C242.225 18.6657 242.203 18.8169 242.213 18.9678C242.213 19.2672 242.331 19.5544 242.542 19.7661C242.753 19.9779 243.039 20.0968 243.338 20.0968Z" fill="#72767D"/>
<path d="M83.25 97.0968V90.3226H72V0H40.5V83.5484V103.871H94.5V97.0968H83.25ZM49.5 79.0323C49.2775 79.0323 49.06 78.966 48.875 78.842C48.69 78.7179 48.5458 78.5416 48.4606 78.3353C48.3755 78.129 48.3532 77.902 48.3966 77.683C48.44 77.464 48.5472 77.2628 48.7045 77.1049C48.8618 76.947 49.0623 76.8395 49.2805 76.7959C49.4987 76.7523 49.7249 76.7747 49.9305 76.8601C50.1361 76.9456 50.3118 77.0903 50.4354 77.276C50.559 77.4616 50.625 77.6799 50.625 77.9032C50.625 78.2027 50.5065 78.4898 50.2955 78.7016C50.0845 78.9133 49.7984 79.0323 49.5 79.0323ZM49.5 72.2581C49.2775 72.2581 49.06 72.1918 48.875 72.0678C48.69 71.9437 48.5458 71.7674 48.4606 71.5611C48.3755 71.3548 48.3532 71.1278 48.3966 70.9088C48.44 70.6898 48.5472 70.4886 48.7045 70.3307C48.8618 70.1728 49.0623 70.0653 49.2805 70.0217C49.4987 69.9781 49.7249 70.0005 49.9305 70.0859C50.1361 70.1714 50.3118 70.3161 50.4354 70.5018C50.559 70.6874 50.625 70.9057 50.625 71.129C50.625 71.4285 50.5065 71.7156 50.2955 71.9274C50.0845 72.1391 49.7984 72.2581 49.5 72.2581ZM49.5 65.4839C49.2775 65.4839 49.06 65.4177 48.875 65.2936C48.69 65.1695 48.5458 64.9932 48.4606 64.7869C48.3755 64.5806 48.3532 64.3536 48.3966 64.1346C48.44 63.9156 48.5472 63.7144 48.7045 63.5565C48.8618 63.3986 49.0623 63.2911 49.2805 63.2475C49.4987 63.2039 49.7249 63.2263 49.9305 63.3118C50.1361 63.3972 50.3118 63.5419 50.4354 63.7276C50.559 63.9133 50.625 64.1315 50.625 64.3548C50.625 64.6543 50.5065 64.9415 50.2955 65.1532C50.0845 65.3649 49.7984 65.4839 49.5 65.4839ZM49.5 58.7097C49.2775 58.7097 49.06 58.6435 48.875 58.5194C48.69 58.3953 48.5458 58.219 48.4606 58.0127C48.3755 57.8064 48.3532 57.5794 48.3966 57.3604C48.44 57.1414 48.5472 56.9402 48.7045 56.7823C48.8618 56.6244 49.0623 56.5169 49.2805 56.4733C49.4987 56.4297 49.7249 56.4521 49.9305 56.5376C50.1361 56.623 50.3118 56.7677 50.4354 56.9534C50.559 57.1391 50.625 57.3573 50.625 57.5806C50.625 57.8801 50.5065 58.1673 50.2955 58.379C50.0845 58.5907 49.7984 58.7097 49.5 58.7097ZM49.5 51.9355C49.2775 51.9355 49.06 51.8693 48.875 51.7452C48.69 51.6211 48.5458 51.4448 48.4606 51.2385C48.3755 51.0322 48.3532 50.8052 48.3966 50.5862C48.44 50.3672 48.5472 50.166 48.7045 50.0081C48.8618 49.8502 49.0623 49.7427 49.2805 49.6991C49.4987 49.6555 49.7249 49.6779 49.9305 49.7634C50.1361 49.8488 50.3118 49.9935 50.4354 50.1792C50.559 50.3649 50.625 50.5831 50.625 50.8065C50.625 51.1059 50.5065 51.3931 50.2955 51.6048C50.0845 51.8165 49.7984 51.9355 49.5 51.9355ZM49.5 45.1613C49.2775 45.1613 49.06 45.0951 48.875 44.971C48.69 44.847 48.5458 44.6706 48.4606 44.4643C48.3755 44.258 48.3532 44.031 48.3966 43.812C48.44 43.593 48.5472 43.3918 48.7045 43.2339C48.8618 43.076 49.0623 42.9685 49.2805 42.9249C49.4987 42.8814 49.7249 42.9037 49.9305 42.9892C50.1361 43.0746 50.3118 43.2193 50.4354 43.405C50.559 43.5907 50.625 43.809 50.625 44.0323C50.625 44.3317 50.5065 44.6189 50.2955 44.8306C50.0845 45.0423 49.7984 45.1613 49.5 45.1613ZM49.5 38.3871C49.2775 38.3871 49.06 38.3209 48.875 38.1968C48.69 38.0728 48.5458 37.8964 48.4606 37.6901C48.3755 37.4838 48.3532 37.2568 48.3966 37.0378C48.44 36.8188 48.5472 36.6176 48.7045 36.4597C48.8618 36.3018 49.0623 36.1943 49.2805 36.1507C49.4987 36.1072 49.7249 36.1295 49.9305 36.215C50.1361 36.3004 50.3118 36.4451 50.4354 36.6308C50.559 36.8165 50.625 37.0348 50.625 37.2581C50.625 37.5575 50.5065 37.8447 50.2955 38.0564C50.0845 38.2681 49.7984 38.3871 49.5 38.3871ZM49.5 31.6129C49.2775 31.6129 49.06 31.5467 48.875 31.4226C48.69 31.2986 48.5458 31.1222 48.4606 30.9159C48.3755 30.7096 48.3532 30.4826 48.3966 30.2636C48.44 30.0446 48.5472 29.8434 48.7045 29.6855C48.8618 29.5276 49.0623 29.4201 49.2805 29.3765C49.4987 29.333 49.7249 29.3553 49.9305 29.4408C50.1361 29.5262 50.3118 29.6709 50.4354 29.8566C50.559 30.0423 50.625 30.2606 50.625 30.4839C50.625 30.7833 50.5065 31.0705 50.2955 31.2822C50.0845 31.494 49.7984 31.6129 49.5 31.6129ZM49.5 24.8387C49.2775 24.8387 49.06 24.7725 48.875 24.6484C48.69 24.5244 48.5458 24.348 48.4606 24.1417C48.3755 23.9354 48.3532 23.7084 48.3966 23.4894C48.44 23.2704 48.5472 23.0692 48.7045 22.9113C48.8618 22.7534 49.0623 22.6459 49.2805 22.6023C49.4987 22.5588 49.7249 22.5811 49.9305 22.6666C50.1361 22.752 50.3118 22.8968 50.4354 23.0824C50.559 23.2681 50.625 23.4864 50.625 23.7097C50.625 24.0091 50.5065 24.2963 50.2955 24.508C50.0845 24.7198 49.7984 24.8387 49.5 24.8387ZM49.5 18.0645C49.2775 18.0645 49.06 17.9983 48.875 17.8742C48.69 17.7502 48.5458 17.5738 48.4606 17.3675C48.3755 17.1612 48.3532 16.9342 48.3966 16.7152C48.44 16.4962 48.5472 16.295 48.7045 16.1371C48.8618 15.9792 49.0623 15.8717 49.2805 15.8281C49.4987 15.7846 49.7249 15.8069 49.9305 15.8924C50.1361 15.9778 50.3118 16.1226 50.4354 16.3082C50.559 16.4939 50.625 16.7122 50.625 16.9355C50.625 17.2349 50.5065 17.5221 50.2955 17.7338C50.0845 17.9456 49.7984 18.0645 49.5 18.0645ZM54 79.0323C53.7775 79.0323 53.56 78.966 53.375 78.842C53.19 78.7179 53.0458 78.5416 52.9606 78.3353C52.8755 78.129 52.8532 77.902 52.8966 77.683C52.94 77.464 53.0472 77.2628 53.2045 77.1049C53.3618 76.947 53.5623 76.8395 53.7805 76.7959C53.9987 76.7523 54.2249 76.7747 54.4305 76.8601C54.6361 76.9456 54.8118 77.0903 54.9354 77.276C55.059 77.4616 55.125 77.6799 55.125 77.9032C55.125 78.2027 55.0065 78.4898 54.7955 78.7016C54.5845 78.9133 54.2984 79.0323 54 79.0323ZM54 72.2581C53.7775 72.2581 53.56 72.1918 53.375 72.0678C53.19 71.9437 53.0458 71.7674 52.9606 71.5611C52.8755 71.3548 52.8532 71.1278 52.8966 70.9088C52.94 70.6898 53.0472 70.4886 53.2045 70.3307C53.3618 70.1728 53.5623 70.0653 53.7805 70.0217C53.9987 69.9781 54.2249 70.0005 54.4305 70.0859C54.6361 70.1714 54.8118 70.3161 54.9354 70.5018C55.059 70.6874 55.125 70.9057 55.125 71.129C55.125 71.4285 55.0065 71.7156 54.7955 71.9274C54.5845 72.1391 54.2984 72.2581 54 72.2581ZM54 65.4839C53.7775 65.4839 53.56 65.4177 53.375 65.2936C53.19 65.1695 53.0458 64.9932 52.9606 64.7869C52.8755 64.5806 52.8532 64.3536 52.8966 64.1346C52.94 63.9156 53.0472 63.7144 53.2045 63.5565C53.3618 63.3986 53.5623 63.2911 53.7805 63.2475C53.9987 63.2039 54.2249 63.2263 54.4305 63.3118C54.6361 63.3972 54.8118 63.5419 54.9354 63.7276C55.059 63.9133 55.125 64.1315 55.125 64.3548C55.125 64.6543 55.0065 64.9415 54.7955 65.1532C54.5845 65.3649 54.2984 65.4839 54 65.4839ZM54 58.7097C53.7775 58.7097 53.56 58.6435 53.375 58.5194C53.19 58.3953 53.0458 58.219 52.9606 58.0127C52.8755 57.8064 52.8532 57.5794 52.8966 57.3604C52.94 57.1414 53.0472 56.9402 53.2045 56.7823C53.3618 56.6244 53.5623 56.5169 53.7805 56.4733C53.9987 56.4297 54.2249 56.4521 54.4305 56.5376C54.6361 56.623 54.8118 56.7677 54.9354 56.9534C55.059 57.1391 55.125 57.3573 55.125 57.5806C55.125 57.8801 55.0065 58.1673 54.7955 58.379C54.5845 58.5907 54.2984 58.7097 54 58.7097ZM54 51.9355C53.7775 51.9355 53.56 51.8693 53.375 51.7452C53.19 51.6211 53.0458 51.4448 52.9606 51.2385C52.8755 51.0322 52.8532 50.8052 52.8966 50.5862C52.94 50.3672 53.0472 50.166 53.2045 50.0081C53.3618 49.8502 53.5623 49.7427 53.7805 49.6991C53.9987 49.6555 54.2249 49.6779 54.4305 49.7634C54.6361 49.8488 54.8118 49.9935 54.9354 50.1792C55.059 50.3649 55.125 50.5831 55.125 50.8065C55.125 51.1059 55.0065 51.3931 54.7955 51.6048C54.5845 51.8165 54.2984 51.9355 54 51.9355ZM54 45.1613C53.7775 45.1613 53.56 45.0951 53.375 44.971C53.19 44.847 53.0458 44.6706 52.9606 44.4643C52.8755 44.258 52.8532 44.031 52.8966 43.812C52.94 43.593 53.0472 43.3918 53.2045 43.2339C53.3618 43.076 53.5623 42.9685 53.7805 42.9249C53.9987 42.8814 54.2249 42.9037 54.4305 42.9892C54.6361 43.0746 54.8118 43.2193 54.9354 43.405C55.059 43.5907 55.125 43.809 55.125 44.0323C55.125 44.3317 55.0065 44.6189 54.7955 44.8306C54.5845 45.0423 54.2984 45.1613 54 45.1613ZM54 38.3871C53.7775 38.3871 53.56 38.3209 53.375 38.1968C53.19 38.0728 53.0458 37.8964 52.9606 37.6901C52.8755 37.4838 52.8532 37.2568 52.8966 37.0378C52.94 36.8188 53.0472 36.6176 53.2045 36.4597C53.3618 36.3018 53.5623 36.1943 53.7805 36.1507C53.9987 36.1072 54.2249 36.1295 54.4305 36.215C54.6361 36.3004 54.8118 36.4451 54.9354 36.6308C55.059 36.8165 55.125 37.0348 55.125 37.2581C55.125 37.5575 55.0065 37.8447 54.7955 38.0564C54.5845 38.2681 54.2984 38.3871 54 38.3871ZM54 31.6129C53.7775 31.6129 53.56 31.5467 53.375 31.4226C53.19 31.2986 53.0458 31.1222 52.9606 30.9159C52.8755 30.7096 52.8532 30.4826 52.8966 30.2636C52.94 30.0446 53.0472 29.8434 53.2045 29.6855C53.3618 29.5276 53.5623 29.4201 53.7805 29.3765C53.9987 29.333 54.2249 29.3553 54.4305 29.4408C54.6361 29.5262 54.8118 29.6709 54.9354 29.8566C55.059 30.0423 55.125 30.2606 55.125 30.4839C55.125 30.7833 55.0065 31.0705 54.7955 31.2822C54.5845 31.494 54.2984 31.6129 54 31.6129ZM54 24.8387C53.7775 24.8387 53.56 24.7725 53.375 24.6484C53.19 24.5244 53.0458 24.348 52.9606 24.1417C52.8755 23.9354 52.8532 23.7084 52.8966 23.4894C52.94 23.2704 53.0472 23.0692 53.2045 22.9113C53.3618 22.7534 53.5623 22.6459 53.7805 22.6023C53.9987 22.5588 54.2249 22.5811 54.4305 22.6666C54.6361 22.752 54.8118 22.8968 54.9354 23.0824C55.059 23.2681 55.125 23.4864 55.125 23.7097C55.125 24.0091 55.0065 24.2963 54.7955 24.508C54.5845 24.7198 54.2984 24.8387 54 24.8387ZM54 18.0645C53.7775 18.0645 53.56 17.9983 53.375 17.8742C53.19 17.7502 53.0458 17.5738 52.9606 17.3675C52.8755 17.1612 52.8532 16.9342 52.8966 16.7152C52.94 16.4962 53.0472 16.295 53.2045 16.1371C53.3618 15.9792 53.5623 15.8717 53.7805 15.8281C53.9987 15.7846 54.2249 15.8069 54.4305 15.8924C54.6361 15.9778 54.8118 16.1226 54.9354 16.3082C55.059 16.4939 55.125 16.7122 55.125 16.9355C55.125 17.2349 55.0065 17.5221 54.7955 17.7338C54.5845 17.9456 54.2984 18.0645 54 18.0645ZM58.5 79.0323C58.2775 79.0323 58.06 78.966 57.875 78.842C57.69 78.7179 57.5458 78.5416 57.4606 78.3353C57.3755 78.129 57.3532 77.902 57.3966 77.683C57.44 77.464 57.5472 77.2628 57.7045 77.1049C57.8618 76.947 58.0623 76.8395 58.2805 76.7959C58.4987 76.7523 58.7249 76.7747 58.9305 76.8601C59.1361 76.9456 59.3118 77.0903 59.4354 77.276C59.559 77.4616 59.625 77.6799 59.625 77.9032C59.625 78.2027 59.5065 78.4898 59.2955 78.7016C59.0845 78.9133 58.7984 79.0323 58.5 79.0323ZM58.5 72.2581C58.2775 72.2581 58.06 72.1918 57.875 72.0678C57.69 71.9437 57.5458 71.7674 57.4606 71.5611C57.3755 71.3548 57.3532 71.1278 57.3966 70.9088C57.44 70.6898 57.5472 70.4886 57.7045 70.3307C57.8618 70.1728 58.0623 70.0653 58.2805 70.0217C58.4987 69.9781 58.7249 70.0005 58.9305 70.0859C59.1361 70.1714 59.3118 70.3161 59.4354 70.5018C59.559 70.6874 59.625 70.9057 59.625 71.129C59.625 71.4285 59.5065 71.7156 59.2955 71.9274C59.0845 72.1391 58.7984 72.2581 58.5 72.2581ZM58.5 65.4839C58.2775 65.4839 58.06 65.4177 57.875 65.2936C57.69 65.1695 57.5458 64.9932 57.4606 64.7869C57.3755 64.5806 57.3532 64.3536 57.3966 64.1346C57.44 63.9156 57.5472 63.7144 57.7045 63.5565C57.8618 63.3986 58.0623 63.2911 58.2805 63.2475C58.4987 63.2039 58.7249 63.2263 58.9305 63.3118C59.1361 63.3972 59.3118 63.5419 59.4354 63.7276C59.559 63.9133 59.625 64.1315 59.625 64.3548C59.625 64.6543 59.5065 64.9415 59.2955 65.1532C59.0845 65.3649 58.7984 65.4839 58.5 65.4839ZM58.5 58.7097C58.2775 58.7097 58.06 58.6435 57.875 58.5194C57.69 58.3953 57.5458 58.219 57.4606 58.0127C57.3755 57.8064 57.3532 57.5794 57.3966 57.3604C57.44 57.1414 57.5472 56.9402 57.7045 56.7823C57.8618 56.6244 58.0623 56.5169 58.2805 56.4733C58.4987 56.4297 58.7249 56.4521 58.9305 56.5376C59.1361 56.623 59.3118 56.7677 59.4354 56.9534C59.559 57.1391 59.625 57.3573 59.625 57.5806C59.625 57.8801 59.5065 58.1673 59.2955 58.379C59.0845 58.5907 58.7984 58.7097 58.5 58.7097ZM58.5 51.9355C58.2775 51.9355 58.06 51.8693 57.875 51.7452C57.69 51.6211 57.5458 51.4448 57.4606 51.2385C57.3755 51.0322 57.3532 50.8052 57.3966 50.5862C57.44 50.3672 57.5472 50.166 57.7045 50.0081C57.8618 49.8502 58.0623 49.7427 58.2805 49.6991C58.4987 49.6555 58.7249 49.6779 58.9305 49.7634C59.1361 49.8488 59.3118 49.9935 59.4354 50.1792C59.559 50.3649 59.625 50.5831 59.625 50.8065C59.625 51.1059 59.5065 51.3931 59.2955 51.6048C59.0845 51.8165 58.7984 51.9355 58.5 51.9355ZM58.5 45.1613C58.2775 45.1613 58.06 45.0951 57.875 44.971C57.69 44.847 57.5458 44.6706 57.4606 44.4643C57.3755 44.258 57.3532 44.031 57.3966 43.812C57.44 43.593 57.5472 43.3918 57.7045 43.2339C57.8618 43.076 58.0623 42.9685 58.2805 42.9249C58.4987 42.8814 58.7249 42.9037 58.9305 42.9892C59.1361 43.0746 59.3118 43.2193 59.4354 43.405C59.559 43.5907 59.625 43.809 59.625 44.0323C59.625 44.3317 59.5065 44.6189 59.2955 44.8306C59.0845 45.0423 58.7984 45.1613 58.5 45.1613ZM58.5 38.3871C58.2775 38.3871 58.06 38.3209 57.875 38.1968C57.69 38.0728 57.5458 37.8964 57.4606 37.6901C57.3755 37.4838 57.3532 37.2568 57.3966 37.0378C57.44 36.8188 57.5472 36.6176 57.7045 36.4597C57.8618 36.3018 58.0623 36.1943 58.2805 36.1507C58.4987 36.1072 58.7249 36.1295 58.9305 36.215C59.1361 36.3004 59.3118 36.4451 59.4354 36.6308C59.559 36.8165 59.625 37.0348 59.625 37.2581C59.625 37.5575 59.5065 37.8447 59.2955 38.0564C59.0845 38.2681 58.7984 38.3871 58.5 38.3871ZM58.5 31.6129C58.2775 31.6129 58.06 31.5467 57.875 31.4226C57.69 31.2986 57.5458 31.1222 57.4606 30.9159C57.3755 30.7096 57.3532 30.4826 57.3966 30.2636C57.44 30.0446 57.5472 29.8434 57.7045 29.6855C57.8618 29.5276 58.0623 29.4201 58.2805 29.3765C58.4987 29.333 58.7249 29.3553 58.9305 29.4408C59.1361 29.5262 59.3118 29.6709 59.4354 29.8566C59.559 30.0423 59.625 30.2606 59.625 30.4839C59.625 30.7833 59.5065 31.0705 59.2955 31.2822C59.0845 31.494 58.7984 31.6129 58.5 31.6129ZM58.5 24.8387C58.2775 24.8387 58.06 24.7725 57.875 24.6484C57.69 24.5244 57.5458 24.348 57.4606 24.1417C57.3755 23.9354 57.3532 23.7084 57.3966 23.4894C57.44 23.2704 57.5472 23.0692 57.7045 22.9113C57.8618 22.7534 58.0623 22.6459 58.2805 22.6023C58.4987 22.5588 58.7249 22.5811 58.9305 22.6666C59.1361 22.752 59.3118 22.8968 59.4354 23.0824C59.559 23.2681 59.625 23.4864 59.625 23.7097C59.625 24.0091 59.5065 24.2963 59.2955 24.508C59.0845 24.7198 58.7984 24.8387 58.5 24.8387ZM58.5 18.0645C58.2775 18.0645 58.06 17.9983 57.875 17.8742C57.69 17.7502 57.5458 17.5738 57.4606 17.3675C57.3755 17.1612 57.3532 16.9342 57.3966 16.7152C57.44 16.4962 57.5472 16.295 57.7045 16.1371C57.8618 15.9792 58.0623 15.8717 58.2805 15.8281C58.4987 15.7846 58.7249 15.8069 58.9305 15.8924C59.1361 15.9778 59.3118 16.1226 59.4354 16.3082C59.559 16.4939 59.625 16.7122 59.625 16.9355C59.625 17.2349 59.5065 17.5221 59.2955 17.7338C59.0845 17.9456 58.7984 18.0645 58.5 18.0645ZM63 79.0323C62.7775 79.0323 62.56 78.966 62.375 78.842C62.19 78.7179 62.0458 78.5416 61.9606 78.3353C61.8755 78.129 61.8532 77.902 61.8966 77.683C61.94 77.464 62.0472 77.2628 62.2045 77.1049C62.3618 76.947 62.5623 76.8395 62.7805 76.7959C62.9987 76.7523 63.2249 76.7747 63.4305 76.8601C63.6361 76.9456 63.8118 77.0903 63.9354 77.276C64.059 77.4616 64.125 77.6799 64.125 77.9032C64.125 78.2027 64.0065 78.4898 63.7955 78.7016C63.5845 78.9133 63.2984 79.0323 63 79.0323ZM63 72.2581C62.7775 72.2581 62.56 72.1918 62.375 72.0678C62.19 71.9437 62.0458 71.7674 61.9606 71.5611C61.8755 71.3548 61.8532 71.1278 61.8966 70.9088C61.94 70.6898 62.0472 70.4886 62.2045 70.3307C62.3618 70.1728 62.5623 70.0653 62.7805 70.0217C62.9987 69.9781 63.2249 70.0005 63.4305 70.0859C63.6361 70.1714 63.8118 70.3161 63.9354 70.5018C64.059 70.6874 64.125 70.9057 64.125 71.129C64.125 71.4285 64.0065 71.7156 63.7955 71.9274C63.5845 72.1391 63.2984 72.2581 63 72.2581ZM63 65.4839C62.7775 65.4839 62.56 65.4177 62.375 65.2936C62.19 65.1695 62.0458 64.9932 61.9606 64.7869C61.8755 64.5806 61.8532 64.3536 61.8966 64.1346C61.94 63.9156 62.0472 63.7144 62.2045 63.5565C62.3618 63.3986 62.5623 63.2911 62.7805 63.2475C62.9987 63.2039 63.2249 63.2263 63.4305 63.3118C63.6361 63.3972 63.8118 63.5419 63.9354 63.7276C64.059 63.9133 64.125 64.1315 64.125 64.3548C64.125 64.6543 64.0065 64.9415 63.7955 65.1532C63.5845 65.3649 63.2984 65.4839 63 65.4839ZM63 58.7097C62.7775 58.7097 62.56 58.6435 62.375 58.5194C62.19 58.3953 62.0458 58.219 61.9606 58.0127C61.8755 57.8064 61.8532 57.5794 61.8966 57.3604C61.94 57.1414 62.0472 56.9402 62.2045 56.7823C62.3618 56.6244 62.5623 56.5169 62.7805 56.4733C62.9987 56.4297 63.2249 56.4521 63.4305 56.5376C63.6361 56.623 63.8118 56.7677 63.9354 56.9534C64.059 57.1391 64.125 57.3573 64.125 57.5806C64.125 57.8801 64.0065 58.1673 63.7955 58.379C63.5845 58.5907 63.2984 58.7097 63 58.7097ZM63 51.9355C62.7775 51.9355 62.56 51.8693 62.375 51.7452C62.19 51.6211 62.0458 51.4448 61.9606 51.2385C61.8755 51.0322 61.8532 50.8052 61.8966 50.5862C61.94 50.3672 62.0472 50.166 62.2045 50.0081C62.3618 49.8502 62.5623 49.7427 62.7805 49.6991C62.9987 49.6555 63.2249 49.6779 63.4305 49.7634C63.6361 49.8488 63.8118 49.9935 63.9354 50.1792C64.059 50.3649 64.125 50.5831 64.125 50.8065C64.125 51.1059 64.0065 51.3931 63.7955 51.6048C63.5845 51.8165 63.2984 51.9355 63 51.9355ZM63 45.1613C62.7775 45.1613 62.56 45.0951 62.375 44.971C62.19 44.847 62.0458 44.6706 61.9606 44.4643C61.8755 44.258 61.8532 44.031 61.8966 43.812C61.94 43.593 62.0472 43.3918 62.2045 43.2339C62.3618 43.076 62.5623 42.9685 62.7805 42.9249C62.9987 42.8814 63.2249 42.9037 63.4305 42.9892C63.6361 43.0746 63.8118 43.2193 63.9354 43.405C64.059 43.5907 64.125 43.809 64.125 44.0323C64.125 44.3317 64.0065 44.6189 63.7955 44.8306C63.5845 45.0423 63.2984 45.1613 63 45.1613ZM63 38.3871C62.7775 38.3871 62.56 38.3209 62.375 38.1968C62.19 38.0728 62.0458 37.8964 61.9606 37.6901C61.8755 37.4838 61.8532 37.2568 61.8966 37.0378C61.94 36.8188 62.0472 36.6176 62.2045 36.4597C62.3618 36.3018 62.5623 36.1943 62.7805 36.1507C62.9987 36.1072 63.2249 36.1295 63.4305 36.215C63.6361 36.3004 63.8118 36.4451 63.9354 36.6308C64.059 36.8165 64.125 37.0348 64.125 37.2581C64.125 37.5575 64.0065 37.8447 63.7955 38.0564C63.5845 38.2681 63.2984 38.3871 63 38.3871ZM63 31.6129C62.7775 31.6129 62.56 31.5467 62.375 31.4226C62.19 31.2986 62.0458 31.1222 61.9606 30.9159C61.8755 30.7096 61.8532 30.4826 61.8966 30.2636C61.94 30.0446 62.0472 29.8434 62.2045 29.6855C62.3618 29.5276 62.5623 29.4201 62.7805 29.3765C62.9987 29.333 63.2249 29.3553 63.4305 29.4408C63.6361 29.5262 63.8118 29.6709 63.9354 29.8566C64.059 30.0423 64.125 30.2606 64.125 30.4839C64.125 30.7833 64.0065 31.0705 63.7955 31.2822C63.5845 31.494 63.2984 31.6129 63 31.6129ZM63 24.8387C62.7775 24.8387 62.56 24.7725 62.375 24.6484C62.19 24.5244 62.0458 24.348 61.9606 24.1417C61.8755 23.9354 61.8532 23.7084 61.8966 23.4894C61.94 23.2704 62.0472 23.0692 62.2045 22.9113C62.3618 22.7534 62.5623 22.6459 62.7805 22.6023C62.9987 22.5588 63.2249 22.5811 63.4305 22.6666C63.6361 22.752 63.8118 22.8968 63.9354 23.0824C64.059 23.2681 64.125 23.4864 64.125 23.7097C64.125 24.0091 64.0065 24.2963 63.7955 24.508C63.5845 24.7198 63.2984 24.8387 63 24.8387ZM63 18.0645C62.7775 18.0645 62.56 17.9983 62.375 17.8742C62.19 17.7502 62.0458 17.5738 61.9606 17.3675C61.8755 17.1612 61.8532 16.9342 61.8966 16.7152C61.94 16.4962 62.0472 16.295 62.2045 16.1371C62.3618 15.9792 62.5623 15.8717 62.7805 15.8281C62.9987 15.7846 63.2249 15.8069 63.4305 15.8924C63.6361 15.9778 63.8118 16.1226 63.9354 16.3082C64.059 16.4939 64.125 16.7122 64.125 16.9355C64.125 17.2349 64.0065 17.5221 63.7955 17.7338C63.5845 17.9456 63.2984 18.0645 63 18.0645ZM64.125 11.2903H48.375V9.03226H64.125V11.2903Z" fill="#3E4854"/>
<path d="M109.125 83.5484H166.5V72.2581H158.4H151.987H94.05H83.25V70.3387V57.4677V51.0323V11.2903H122.962H129.375H142.312H155.025H191.25V33.0806V39.5161V45.1613V72.2581V83.5484H202.5V18.0645V0H72V83.5484H109.125Z" fill="#646E7A"/>
<path d="M129.375 11.2903L99.5625 41.2096C93.9375 46.7419 88.425 52.2742 83.25 57.4677V70.3387C103.163 50.4677 126.45 27.2096 142.312 11.2903H129.375Z" fill="#5DB1D6"/>
<path d="M83.25 11.2903V51.0322C97.0875 37.1451 111.938 22.3548 122.963 11.2903H83.25Z" fill="#5DB1D6"/>
<path d="M185.625 45.1613H191.25V39.5161L189.562 41.2097L185.625 45.1613Z" fill="#5DB1D6"/>
<path opacity="0.2" d="M284.512 96.7581C283.977 96.7197 283.449 96.6173 282.938 96.4532V103.871H286.875V96.4645C286.112 96.7055 285.311 96.8049 284.512 96.7581V96.7581Z" fill="#72767D"/>
<path d="M166.5 45.1613H179.19L191.25 33.0806V11.2903H155.025L153.675 12.6451C145.462 20.8871 134.55 31.8387 123.525 42.7903C112.837 53.5161 102.15 64.129 94.0498 72.258H151.987L166.5 57.8177V45.1613Z" fill="#5DB1D6"/>
<path d="M158.4 72.2581H166.5V64.2081L158.4 72.2581Z" fill="#5DB1D6"/>
<path d="M129.375 11.2903H122.963C111.938 22.3548 97.0875 37.1451 83.25 51.0322V57.4677C88.425 52.2742 93.9375 46.7419 99.5625 41.2096L129.375 11.2903Z" fill="#89C6E1"/>
<path d="M153.675 12.6451L155.025 11.2903H142.313C126.45 27.2096 103.163 50.4677 83.25 70.3387V72.258H94.05C102.15 64.129 112.838 53.5161 123.525 42.7903C134.55 31.8387 145.463 20.8871 153.675 12.6451Z" fill="#89C6E1"/>
<path d="M166.5 57.8177L151.988 72.2581H158.4L166.5 64.2081V57.8177Z" fill="#89C6E1"/>
<path d="M185.625 45.1612L189.596 41.2096L191.25 39.516V33.0806L179.19 45.1612H185.625Z" fill="#89C6E1"/>
<path d="M29.25 57.5806L40.5 68.8709V23.7096L29.25 34.9999V57.5806Z" fill="#2D333B"/>
<path d="M211.5 83.5483H202.5H191.25H166.5H109.125H72V90.3225H83.25H211.5V83.5483Z" fill="#3C4754"/>
<path d="M211.5 90.3226H83.25V97.0968H94.5H222.75V90.3226H211.5Z" fill="#2F3944"/>
<path d="M231.75 103.871V97.0968H222.75H94.5V103.871H109.125H234H231.75Z" fill="#2A333F"/>
<path d="M191.25 72.258V45.1613H166.5V83.5483H191.25V72.258ZM173.25 66.0483C172.805 66.0483 172.37 65.9159 172 65.6678C171.63 65.4197 171.342 65.067 171.171 64.6544C171.001 64.2418 170.956 63.7878 171.043 63.3498C171.13 62.9117 171.344 62.5094 171.659 62.1936C171.974 61.8778 172.375 61.6627 172.811 61.5756C173.248 61.4885 173.7 61.5332 174.111 61.7041C174.522 61.875 174.874 62.1644 175.121 62.5358C175.368 62.9071 175.5 63.3437 175.5 63.7903C175.5 64.3892 175.263 64.9635 174.841 65.387C174.419 65.8104 173.847 66.0483 173.25 66.0483Z" fill="#829CB8"/>
<path d="M173.25 66.0484C174.493 66.0484 175.5 65.0374 175.5 63.7903C175.5 62.5432 174.493 61.5322 173.25 61.5322C172.007 61.5322 171 62.5432 171 63.7903C171 65.0374 172.007 66.0484 173.25 66.0484Z" fill="#2E3238"/>
<path d="M299.25 103.871H301.5H303.75V93.7097H299.25V103.871Z" fill="#E7AA6C"/>
<path d="M298.125 86.9355C298.13 87.771 298.443 88.5752 299.003 89.1935H303.998C304.367 88.7858 304.631 88.2937 304.768 87.7601C304.905 87.2265 304.91 86.6674 304.783 86.1314C304.656 85.5953 304.401 85.0984 304.039 84.6839C303.677 84.2694 303.22 83.9497 302.707 83.7525C302.195 83.5554 301.642 83.4867 301.097 83.5526C300.552 83.6184 300.031 83.8167 299.579 84.1303C299.128 84.4439 298.759 84.8633 298.506 85.3521C298.253 85.841 298.122 86.3845 298.125 86.9355V86.9355Z" fill="#C79059"/>
<path d="M303.998 89.1936H299.003H297V91.4517H303.75H306V89.1936H303.998Z" fill="#BA6E37"/>
<path d="M231.75 103.871H234H236.25V93.7097H231.75V97.0968V103.871Z" fill="#E7AA6C"/>
<path d="M237.375 86.9355C237.378 86.3845 237.247 85.841 236.994 85.3521C236.741 84.8633 236.372 84.4439 235.921 84.1303C235.469 83.8167 234.948 83.6184 234.403 83.5526C233.858 83.4867 233.305 83.5554 232.792 83.7525C232.28 83.9497 231.823 84.2694 231.461 84.6839C231.099 85.0984 230.844 85.5953 230.717 86.1314C230.59 86.6674 230.595 87.2265 230.732 87.7601C230.869 88.2937 231.133 88.7858 231.502 89.1935H236.497C237.057 88.5752 237.37 87.771 237.375 86.9355V86.9355Z" fill="#C79059"/>
<path d="M236.498 89.1936H231.503H229.5V91.4517H231.75H238.5V89.1936H236.498Z" fill="#BA6E37"/>
<path d="M291.533 91.4517H278.201H273.533H260.201H256.658H243.326H238.5H231.75V93.7097H236.25H244.35H255.679H261.225H272.554H279.225H290.554H299.25H303.75V91.4517H297H291.533Z" fill="#BE2E31"/>
<path d="M49.5 18.0645C50.1213 18.0645 50.625 17.559 50.625 16.9354C50.625 16.3119 50.1213 15.8064 49.5 15.8064C48.8787 15.8064 48.375 16.3119 48.375 16.9354C48.375 17.559 48.8787 18.0645 49.5 18.0645Z" fill="#4F545C"/>
<path d="M54 18.0645C54.6213 18.0645 55.125 17.559 55.125 16.9354C55.125 16.3119 54.6213 15.8064 54 15.8064C53.3787 15.8064 52.875 16.3119 52.875 16.9354C52.875 17.559 53.3787 18.0645 54 18.0645Z" fill="#4F545C"/>
<path d="M58.5 18.0645C59.1213 18.0645 59.625 17.559 59.625 16.9354C59.625 16.3119 59.1213 15.8064 58.5 15.8064C57.8787 15.8064 57.375 16.3119 57.375 16.9354C57.375 17.559 57.8787 18.0645 58.5 18.0645Z" fill="#4F545C"/>
<path d="M63 18.0645C63.6213 18.0645 64.125 17.559 64.125 16.9354C64.125 16.3119 63.6213 15.8064 63 15.8064C62.3787 15.8064 61.875 16.3119 61.875 16.9354C61.875 17.559 62.3787 18.0645 63 18.0645Z" fill="#4F545C"/>
<path d="M49.5 24.8388C50.1213 24.8388 50.625 24.3333 50.625 23.7097C50.625 23.0862 50.1213 22.5807 49.5 22.5807C48.8787 22.5807 48.375 23.0862 48.375 23.7097C48.375 24.3333 48.8787 24.8388 49.5 24.8388Z" fill="#4F545C"/>
<path d="M54 24.8388C54.6213 24.8388 55.125 24.3333 55.125 23.7097C55.125 23.0862 54.6213 22.5807 54 22.5807C53.3787 22.5807 52.875 23.0862 52.875 23.7097C52.875 24.3333 53.3787 24.8388 54 24.8388Z" fill="#4F545C"/>
<path d="M58.5 24.8388C59.1213 24.8388 59.625 24.3333 59.625 23.7097C59.625 23.0862 59.1213 22.5807 58.5 22.5807C57.8787 22.5807 57.375 23.0862 57.375 23.7097C57.375 24.3333 57.8787 24.8388 58.5 24.8388Z" fill="#4F545C"/>
<path d="M63 24.8388C63.6213 24.8388 64.125 24.3333 64.125 23.7097C64.125 23.0862 63.6213 22.5807 63 22.5807C62.3787 22.5807 61.875 23.0862 61.875 23.7097C61.875 24.3333 62.3787 24.8388 63 24.8388Z" fill="#4F545C"/>
<path d="M49.5 31.6129C50.1213 31.6129 50.625 31.1074 50.625 30.4839C50.625 29.8603 50.1213 29.3549 49.5 29.3549C48.8787 29.3549 48.375 29.8603 48.375 30.4839C48.375 31.1074 48.8787 31.6129 49.5 31.6129Z" fill="#4F545C"/>
<path d="M54 31.6129C54.6213 31.6129 55.125 31.1074 55.125 30.4839C55.125 29.8603 54.6213 29.3549 54 29.3549C53.3787 29.3549 52.875 29.8603 52.875 30.4839C52.875 31.1074 53.3787 31.6129 54 31.6129Z" fill="#4F545C"/>
<path d="M58.5 31.6129C59.1213 31.6129 59.625 31.1074 59.625 30.4839C59.625 29.8603 59.1213 29.3549 58.5 29.3549C57.8787 29.3549 57.375 29.8603 57.375 30.4839C57.375 31.1074 57.8787 31.6129 58.5 31.6129Z" fill="#4F545C"/>
<path d="M63 31.6129C63.6213 31.6129 64.125 31.1074 64.125 30.4839C64.125 29.8603 63.6213 29.3549 63 29.3549C62.3787 29.3549 61.875 29.8603 61.875 30.4839C61.875 31.1074 62.3787 31.6129 63 31.6129Z" fill="#4F545C"/>
<path d="M49.5 38.3871C50.1213 38.3871 50.625 37.8816 50.625 37.2581C50.625 36.6345 50.1213 36.129 49.5 36.129C48.8787 36.129 48.375 36.6345 48.375 37.2581C48.375 37.8816 48.8787 38.3871 49.5 38.3871Z" fill="#4F545C"/>
<path d="M54 38.3871C54.6213 38.3871 55.125 37.8816 55.125 37.2581C55.125 36.6345 54.6213 36.129 54 36.129C53.3787 36.129 52.875 36.6345 52.875 37.2581C52.875 37.8816 53.3787 38.3871 54 38.3871Z" fill="#4F545C"/>
<path d="M58.5 38.3871C59.1213 38.3871 59.625 37.8816 59.625 37.2581C59.625 36.6345 59.1213 36.129 58.5 36.129C57.8787 36.129 57.375 36.6345 57.375 37.2581C57.375 37.8816 57.8787 38.3871 58.5 38.3871Z" fill="#4F545C"/>
<path d="M63 38.3871C63.6213 38.3871 64.125 37.8816 64.125 37.2581C64.125 36.6345 63.6213 36.129 63 36.129C62.3787 36.129 61.875 36.6345 61.875 37.2581C61.875 37.8816 62.3787 38.3871 63 38.3871Z" fill="#4F545C"/>
<path d="M49.5 45.1613C50.1213 45.1613 50.625 44.6558 50.625 44.0322C50.625 43.4087 50.1213 42.9032 49.5 42.9032C48.8787 42.9032 48.375 43.4087 48.375 44.0322C48.375 44.6558 48.8787 45.1613 49.5 45.1613Z" fill="#4F545C"/>
<path d="M54 45.1613C54.6213 45.1613 55.125 44.6558 55.125 44.0322C55.125 43.4087 54.6213 42.9032 54 42.9032C53.3787 42.9032 52.875 43.4087 52.875 44.0322C52.875 44.6558 53.3787 45.1613 54 45.1613Z" fill="#4F545C"/>
<path d="M58.5 45.1613C59.1213 45.1613 59.625 44.6558 59.625 44.0322C59.625 43.4087 59.1213 42.9032 58.5 42.9032C57.8787 42.9032 57.375 43.4087 57.375 44.0322C57.375 44.6558 57.8787 45.1613 58.5 45.1613Z" fill="#4F545C"/>
<path d="M63 45.1613C63.6213 45.1613 64.125 44.6558 64.125 44.0322C64.125 43.4087 63.6213 42.9032 63 42.9032C62.3787 42.9032 61.875 43.4087 61.875 44.0322C61.875 44.6558 62.3787 45.1613 63 45.1613Z" fill="#4F545C"/>
<path d="M49.5 51.9356C50.1213 51.9356 50.625 51.4301 50.625 50.8065C50.625 50.183 50.1213 49.6775 49.5 49.6775C48.8787 49.6775 48.375 50.183 48.375 50.8065C48.375 51.4301 48.8787 51.9356 49.5 51.9356Z" fill="#4F545C"/>
<path d="M54 51.9356C54.6213 51.9356 55.125 51.4301 55.125 50.8065C55.125 50.183 54.6213 49.6775 54 49.6775C53.3787 49.6775 52.875 50.183 52.875 50.8065C52.875 51.4301 53.3787 51.9356 54 51.9356Z" fill="#4F545C"/>
<path d="M58.5 51.9356C59.1213 51.9356 59.625 51.4301 59.625 50.8065C59.625 50.183 59.1213 49.6775 58.5 49.6775C57.8787 49.6775 57.375 50.183 57.375 50.8065C57.375 51.4301 57.8787 51.9356 58.5 51.9356Z" fill="#4F545C"/>
<path d="M63 51.9356C63.6213 51.9356 64.125 51.4301 64.125 50.8065C64.125 50.183 63.6213 49.6775 63 49.6775C62.3787 49.6775 61.875 50.183 61.875 50.8065C61.875 51.4301 62.3787 51.9356 63 51.9356Z" fill="#4F545C"/>
<path d="M49.5 58.7096C50.1213 58.7096 50.625 58.2041 50.625 57.5806C50.625 56.957 50.1213 56.4515 49.5 56.4515C48.8787 56.4515 48.375 56.957 48.375 57.5806C48.375 58.2041 48.8787 58.7096 49.5 58.7096Z" fill="#4F545C"/>
<path d="M54 58.7096C54.6213 58.7096 55.125 58.2041 55.125 57.5806C55.125 56.957 54.6213 56.4515 54 56.4515C53.3787 56.4515 52.875 56.957 52.875 57.5806C52.875 58.2041 53.3787 58.7096 54 58.7096Z" fill="#4F545C"/>
<path d="M58.5 58.7096C59.1213 58.7096 59.625 58.2041 59.625 57.5806C59.625 56.957 59.1213 56.4515 58.5 56.4515C57.8787 56.4515 57.375 56.957 57.375 57.5806C57.375 58.2041 57.8787 58.7096 58.5 58.7096Z" fill="#4F545C"/>
<path d="M63 58.7096C63.6213 58.7096 64.125 58.2041 64.125 57.5806C64.125 56.957 63.6213 56.4515 63 56.4515C62.3787 56.4515 61.875 56.957 61.875 57.5806C61.875 58.2041 62.3787 58.7096 63 58.7096Z" fill="#4F545C"/>
<path d="M49.5 65.4839C50.1213 65.4839 50.625 64.9784 50.625 64.3549C50.625 63.7313 50.1213 63.2258 49.5 63.2258C48.8787 63.2258 48.375 63.7313 48.375 64.3549C48.375 64.9784 48.8787 65.4839 49.5 65.4839Z" fill="#4F545C"/>
<path d="M54 65.4839C54.6213 65.4839 55.125 64.9784 55.125 64.3549C55.125 63.7313 54.6213 63.2258 54 63.2258C53.3787 63.2258 52.875 63.7313 52.875 64.3549C52.875 64.9784 53.3787 65.4839 54 65.4839Z" fill="#4F545C"/>
<path d="M58.5 65.4839C59.1213 65.4839 59.625 64.9784 59.625 64.3549C59.625 63.7313 59.1213 63.2258 58.5 63.2258C57.8787 63.2258 57.375 63.7313 57.375 64.3549C57.375 64.9784 57.8787 65.4839 58.5 65.4839Z" fill="#4F545C"/>
<path d="M63 65.4839C63.6213 65.4839 64.125 64.9784 64.125 64.3549C64.125 63.7313 63.6213 63.2258 63 63.2258C62.3787 63.2258 61.875 63.7313 61.875 64.3549C61.875 64.9784 62.3787 65.4839 63 65.4839Z" fill="#4F545C"/>
<path d="M49.5 72.2581C50.1213 72.2581 50.625 71.7526 50.625 71.129C50.625 70.5055 50.1213 70 49.5 70C48.8787 70 48.375 70.5055 48.375 71.129C48.375 71.7526 48.8787 72.2581 49.5 72.2581Z" fill="#4F545C"/>
<path d="M54 72.2581C54.6213 72.2581 55.125 71.7526 55.125 71.129C55.125 70.5055 54.6213 70 54 70C53.3787 70 52.875 70.5055 52.875 71.129C52.875 71.7526 53.3787 72.2581 54 72.2581Z" fill="#4F545C"/>
<path d="M58.5 72.2581C59.1213 72.2581 59.625 71.7526 59.625 71.129C59.625 70.5055 59.1213 70 58.5 70C57.8787 70 57.375 70.5055 57.375 71.129C57.375 71.7526 57.8787 72.2581 58.5 72.2581Z" fill="#4F545C"/>
<path d="M63 72.2581C63.6213 72.2581 64.125 71.7526 64.125 71.129C64.125 70.5055 63.6213 70 63 70C62.3787 70 61.875 70.5055 61.875 71.129C61.875 71.7526 62.3787 72.2581 63 72.2581Z" fill="#4F545C"/>
<path d="M49.5 79.0322C50.1213 79.0322 50.625 78.5267 50.625 77.9032C50.625 77.2797 50.1213 76.7742 49.5 76.7742C48.8787 76.7742 48.375 77.2797 48.375 77.9032C48.375 78.5267 48.8787 79.0322 49.5 79.0322Z" fill="#4F545C"/>
<path d="M54 79.0322C54.6213 79.0322 55.125 78.5267 55.125 77.9032C55.125 77.2797 54.6213 76.7742 54 76.7742C53.3787 76.7742 52.875 77.2797 52.875 77.9032C52.875 78.5267 53.3787 79.0322 54 79.0322Z" fill="#4F545C"/>
<path d="M58.5 79.0322C59.1213 79.0322 59.625 78.5267 59.625 77.9032C59.625 77.2797 59.1213 76.7742 58.5 76.7742C57.8787 76.7742 57.375 77.2797 57.375 77.9032C57.375 78.5267 57.8787 79.0322 58.5 79.0322Z" fill="#4F545C"/>
<path d="M63 79.0322C63.6213 79.0322 64.125 78.5267 64.125 77.9032C64.125 77.2797 63.6213 76.7742 63 76.7742C62.3787 76.7742 61.875 77.2797 61.875 77.9032C61.875 78.5267 62.3787 79.0322 63 79.0322Z" fill="#4F545C"/>
<path d="M64.125 9.03223H48.375V11.2903H64.125V9.03223Z" fill="#4F545C"/>
</g>
<defs>
<clipPath id="clip0">
<rect width="306" height="105" fill="white"/>
</clipPath>
</defs>
</svg>
