<svg width="263" height="119" viewBox="0 0 263 119" fill="none" xmlns="http://www.w3.org/2000/svg">
<g clip-path="url(#clip0)">
<path fill-rule="evenodd" clip-rule="evenodd" d="M163.939 85.4396V30.6996C162.984 31.0871 161.854 31.3179 160.605 31.3179C159.357 31.3179 158.227 31.0871 157.272 30.6996V37.9064C157.272 38.7075 156.621 39.3576 155.819 39.3576V44.7286C156.621 44.7286 157.272 45.3787 157.272 46.1798V85.4396C157.272 85.5543 157.259 85.6675 157.231 85.7792L154.719 96.2106V113.862C154.719 115.095 155.723 116.097 156.958 116.097C158.1 116.097 159.058 115.242 159.183 114.107L161.383 94.2616C161.471 93.4634 162.208 92.8989 162.987 92.9773C163.071 92.9874 163.139 93.0281 163.218 93.0513L164.999 86.8125C164.392 86.6384 163.939 86.1029 163.939 85.4396Z" fill="#513727"/>
<path fill-rule="evenodd" clip-rule="evenodd" d="M204.661 110.82C204.661 113.73 207.031 116.097 209.944 116.097C212.857 116.097 215.227 113.73 215.227 110.82C215.227 110.79 215.218 110.761 215.218 110.73H204.669C204.669 110.761 204.661 110.79 204.661 110.82Z" fill="#5C57B3"/>
<path fill-rule="evenodd" clip-rule="evenodd" d="M207.355 102.446H212.532V60.8872H207.355V102.446Z" fill="#B9C2D0"/>
<path fill-rule="evenodd" clip-rule="evenodd" d="M203.208 105.348C202.523 105.348 201.967 105.904 201.967 106.587C201.967 107.272 202.523 107.828 203.208 107.828H216.68C217.365 107.828 217.921 107.272 217.921 106.587C217.921 105.904 217.365 105.348 216.68 105.348H203.208Z" fill="#747D83"/>
<path fill-rule="evenodd" clip-rule="evenodd" d="M216.663 27.9507C214.677 26.6098 212.353 25.9016 209.944 25.9016C203.316 25.9016 197.925 31.2871 197.925 37.9061C197.925 44.5251 203.316 49.9106 209.944 49.9106C215.957 49.9106 221.08 45.4278 221.861 39.4836C221.961 38.7202 222.642 38.1949 223.399 38.2399C223.402 38.1281 223.417 38.0178 223.417 37.9061C223.417 37.0687 223.33 36.2517 223.183 35.4564C223.074 35.4826 222.964 35.5058 222.856 35.5058C222.23 35.5058 221.651 35.098 221.464 34.4682C221.227 33.6758 220.908 32.9066 220.511 32.181C220.142 31.5019 220.382 30.6703 221.028 30.2654C220.347 29.2801 219.536 28.3905 218.62 27.6199C218.158 28.2236 217.305 28.3832 216.663 27.9507Z" fill="#6B66CC"/>
<path fill-rule="evenodd" clip-rule="evenodd" d="M207.355 99.8604V63.4711C207.355 62.0431 208.513 60.8865 209.943 60.8865H209.945C211.374 60.8865 212.532 62.0431 212.532 63.4711V99.8604C212.532 101.288 211.374 102.445 209.945 102.445H209.943C208.513 102.445 207.355 101.288 207.355 99.8604ZM215.226 110.82C215.226 113.73 212.858 116.097 209.945 116.097C207.031 116.097 204.661 113.73 204.661 110.82C204.661 110.79 204.669 110.761 204.67 110.73H215.218C215.219 110.761 215.226 110.79 215.226 110.82ZM217.922 106.588C217.922 107.272 217.365 107.828 216.679 107.828H203.208C202.523 107.828 201.966 107.272 201.966 106.588C201.966 105.905 202.523 105.347 203.208 105.347H216.679C217.365 105.347 217.922 105.905 217.922 106.588ZM219.269 55.398C219.269 56.8245 218.108 57.984 216.679 57.984H203.208C201.78 57.984 200.619 56.8245 200.619 55.398C200.619 53.9729 201.78 52.8133 203.208 52.8133H216.679C218.108 52.8133 219.269 53.9729 219.269 55.398ZM224.742 39.8612C224.847 39.0659 224.286 38.3374 223.49 38.2329C223.459 38.2286 223.43 38.2416 223.4 38.2402C222.643 38.1938 221.961 38.7205 221.861 39.4839C220.948 46.4309 214.105 51.3824 206.841 49.5133C202.39 48.3683 198.931 44.6256 198.123 40.1094C196.763 32.5253 202.594 25.9019 209.945 25.9019C212.354 25.9019 214.677 26.6101 216.663 27.951C217.306 28.3835 218.159 28.2239 218.621 27.6202C218.638 27.5969 218.664 27.5853 218.68 27.5607C219.131 26.896 218.955 25.9948 218.291 25.5464C215.183 23.4494 211.415 22.596 207.608 23.178C201.026 24.1822 195.815 29.6577 195.106 36.2709C194.489 42.0337 197.184 47.229 201.523 50.2011C199.044 51.0066 197.319 53.4969 197.79 56.3296C198.236 59.0071 200.7 60.8865 203.418 60.8865H203.425C203.99 60.8865 204.449 61.3451 204.449 61.9096V101.422C204.449 101.986 203.99 102.445 203.425 102.445C201.244 102.445 199.276 104.031 199.077 106.201C198.899 108.144 200.08 109.832 201.773 110.46C201.767 110.581 201.755 110.698 201.755 110.82C201.755 115.33 205.429 118.999 209.945 118.999C214.459 118.999 218.132 115.33 218.132 110.82C218.132 110.698 218.121 110.581 218.115 110.46C219.949 109.778 221.182 107.855 220.736 105.707C220.329 103.754 218.461 102.445 216.463 102.445C215.898 102.445 215.439 101.986 215.439 101.422V61.9096C215.439 61.3451 215.898 60.8865 216.463 60.8865H216.469C218.972 60.8865 221.325 59.3192 221.973 56.9043C222.797 53.8306 221.004 51.0501 218.349 50.1968C221.752 47.8719 224.176 44.1829 224.742 39.8612Z" fill="#202225"/>
<path fill-rule="evenodd" clip-rule="evenodd" d="M220.511 32.1803C220.907 32.9059 221.228 33.6751 221.463 34.4674C221.652 35.0973 222.23 35.5051 222.855 35.5051C222.964 35.5051 223.075 35.4818 223.184 35.4572C223.213 35.4499 223.242 35.4528 223.271 35.4441C224.041 35.2148 224.478 34.4065 224.249 33.6388C223.955 32.6534 223.556 31.6956 223.064 30.793C222.681 30.0877 221.797 29.8293 221.093 30.2125C221.068 30.2255 221.053 30.2502 221.029 30.2662C220.382 30.6696 220.142 31.5026 220.511 32.1803Z" fill="#202225"/>
<path fill-rule="evenodd" clip-rule="evenodd" d="M203.208 52.8127C201.781 52.8127 200.618 53.9723 200.618 55.3988C200.618 56.8239 201.781 57.9834 203.208 57.9834H216.68C218.107 57.9834 219.27 56.8239 219.27 55.3988C219.27 53.9723 218.107 52.8127 216.68 52.8127H203.208Z" fill="#747D83"/>
<path fill-rule="evenodd" clip-rule="evenodd" d="M161.383 94.261L159.183 114.108C159.057 115.243 158.101 116.098 156.959 116.098C155.723 116.098 154.719 115.095 154.719 113.861V96.21L157.232 85.7787C157.259 85.6684 157.272 85.5537 157.272 85.4391V46.1792C157.272 45.3782 156.621 44.728 155.819 44.728C155.017 44.728 154.366 45.3782 154.366 46.1792V85.2678L151.854 95.6992C151.826 95.8095 151.813 95.9241 151.813 96.0388V113.861C151.813 116.694 154.121 119 156.959 119C159.584 119 161.783 117.034 162.072 114.427L164.272 94.5803C164.35 93.8678 163.887 93.2437 163.218 93.0522C163.14 93.029 163.071 92.9869 162.987 92.9782C162.208 92.8983 161.472 93.4643 161.383 94.261Z" fill="#202225"/>
<path fill-rule="evenodd" clip-rule="evenodd" d="M160.606 25.9014C158.419 25.9014 157.272 26.836 157.272 27.1581C157.272 27.4817 158.419 28.4149 160.606 28.4149C162.792 28.4149 163.939 27.4817 163.939 27.1581C163.939 26.836 162.792 25.9014 160.606 25.9014Z" fill="#6D4B35"/>
<path fill-rule="evenodd" clip-rule="evenodd" d="M180.789 38.2077C180.682 38.0872 180.371 37.99 179.855 37.99C179.308 37.99 178.535 38.0988 177.528 38.4137C175.644 39.0015 173.899 39.9927 173.149 40.666C171.804 41.8764 171.696 43.9545 172.906 45.2983C174.118 46.6407 176.198 46.7496 177.544 45.5392C179.477 43.8007 181.569 39.0726 180.789 38.2077Z" fill="#329C50"/>
<path fill-rule="evenodd" clip-rule="evenodd" d="M177.544 45.5397C176.197 46.7485 174.118 46.6397 172.907 45.2973C171.695 43.9549 171.804 41.8768 173.148 40.6665C173.898 39.9931 175.643 39.0019 177.529 38.4142C178.535 38.0993 179.309 37.989 179.854 37.989C180.372 37.989 180.682 38.0877 180.789 38.2081C181.57 39.073 179.476 43.8011 177.544 45.5397ZM160.606 28.4153C158.418 28.4153 157.273 27.4821 157.273 27.1585C157.273 26.8349 158.418 25.9018 160.606 25.9018C162.793 25.9018 163.939 26.8349 163.939 27.1585C163.939 27.4821 162.793 28.4153 160.606 28.4153ZM171.204 38.51C168.983 40.5097 168.551 43.7619 170.014 46.2406L168.191 47.9487C167.679 48.4261 166.845 48.0648 166.845 47.3668V27.1411C166.845 27.1266 166.836 27.1135 166.836 27.099C166.79 24.7582 164.132 22.9993 160.606 22.9993C157.079 22.9993 154.42 24.7582 154.375 27.099C154.374 27.1135 154.366 27.1266 154.366 27.1411V37.9063C154.366 38.7073 155.017 39.3575 155.82 39.3575C156.622 39.3575 157.273 38.7073 157.273 37.9063V34.4611C157.273 32.6644 158.771 31.3119 160.568 31.3177H160.606H160.644C162.44 31.3119 163.939 32.6644 163.939 34.4611V85.4395C163.939 86.1027 164.392 86.6382 165 86.8123C165.128 86.8486 165.253 86.8907 165.392 86.8907C166.194 86.8907 166.845 86.2406 166.845 85.4395V57.9258C166.845 54.9029 168.098 52.0136 170.306 49.947L172.057 48.3071C173.058 48.937 174.196 49.2824 175.35 49.2824C176.826 49.2824 178.307 48.7585 179.488 47.6962C180.672 46.631 182.048 44.5732 182.911 42.5748C184.125 39.7653 184.138 37.5841 182.949 36.2649C180.233 33.2507 173.159 36.7525 171.204 38.51Z" fill="#202225"/>
<path fill-rule="evenodd" clip-rule="evenodd" d="M46.0397 47.5528C46.0397 46.7518 46.6907 46.1016 47.4927 46.1016C48.2948 46.1016 48.9458 46.7518 48.9458 47.5528V49.8675C48.9458 50.6686 48.2948 51.3187 47.4927 51.3187C46.6907 51.3187 46.0397 50.6686 46.0397 49.8675V47.5528ZM46.0397 86.0203V57.4313C46.0397 56.6302 46.6907 55.9801 47.4927 55.9801C48.2948 55.9801 48.9458 56.6302 48.9458 57.4313V86.0203H58.1653V40.0718L47.4927 26.7714L36.8202 40.0718V86.0203H46.0397Z" fill="#BAC4D3"/>
<path fill-rule="evenodd" clip-rule="evenodd" d="M47.4927 51.3183C48.2948 51.3183 48.9458 50.6681 48.9458 49.8671V47.5524C48.9458 46.7513 48.2948 46.1011 47.4927 46.1011C46.6906 46.1011 46.0397 46.7513 46.0397 47.5524V49.8671C46.0397 50.6681 46.6906 51.3183 47.4927 51.3183Z" fill="#202225"/>
<path fill-rule="evenodd" clip-rule="evenodd" d="M52.7763 101.852V95.8719H42.2098V108.023H54.2293V103.304C53.4272 103.304 52.7763 102.653 52.7763 101.852ZM39.2554 110.926C38.6553 110.926 38.1671 111.414 38.1671 112.013V115.011C38.1671 115.611 38.6553 116.097 39.2554 116.097H55.73C56.3301 116.097 56.8183 115.611 56.8183 115.011V112.013C56.8183 111.414 56.3301 110.926 55.73 110.926H39.2554ZM65.5733 88.9232H29.413C28.2971 88.9232 27.3889 89.8302 27.3889 90.9433C27.3889 92.0636 28.2971 92.9692 29.413 92.9692H36.8206H40.7569H54.2294H58.1657H65.5733C66.6893 92.9692 67.596 92.0636 67.596 90.9491C67.596 89.8302 66.6893 88.9232 65.5733 88.9232Z" fill="#4E3E3E"/>
<path fill-rule="evenodd" clip-rule="evenodd" d="M56.8182 112.012V115.011C56.8182 115.61 56.3299 116.098 55.7298 116.098H39.2553C38.6552 116.098 38.1684 115.61 38.1684 115.011V112.012C38.1684 111.413 38.6552 110.925 39.2553 110.925H55.7298C56.3299 110.925 56.8182 111.413 56.8182 112.012ZM47.4926 26.7706L54.7519 35.8175C56.962 38.5705 58.1651 41.9939 58.1651 45.5233V81.4163C58.1651 83.9588 56.1018 86.021 53.5561 86.021H53.5546C51.0089 86.021 48.9456 83.9588 48.9456 81.4163V57.432C48.9456 56.6295 48.2946 55.9808 47.4926 55.9808C46.6905 55.9808 46.0395 56.6295 46.0395 57.432V81.4163C46.0395 83.9588 43.9762 86.021 41.4305 86.021C38.8848 86.021 36.82 83.9588 36.82 81.4163V45.5233C36.82 41.9939 38.0246 38.5705 40.2332 35.8175L47.4926 26.7706ZM65.5727 92.9694H58.1651H54.2289H40.7563H36.82H29.4124C28.2965 92.9694 27.3898 92.0624 27.3898 90.9435C27.3898 89.829 28.2965 88.9234 29.4124 88.9234H65.5727C66.6887 88.9234 67.5954 89.829 67.5954 90.9494C67.5954 92.0624 66.6887 92.9694 65.5727 92.9694ZM65.442 86.021H63.3002C62.0695 86.021 61.0712 85.024 61.0712 83.7948V39.5617C61.0712 39.2322 60.9593 38.9115 60.753 38.6547L48.6259 23.5431C48.0447 22.8175 46.9404 22.8175 46.3592 23.5431L34.2336 38.6547C34.0273 38.9115 33.9139 39.2322 33.9139 39.5617V83.7948C33.9139 85.024 32.9171 86.021 31.6864 86.021H29.5606C27.2067 86.021 25.0635 87.6101 24.5898 89.9117C23.9388 93.0783 26.3552 95.8719 29.4124 95.8719H35.367H39.3032V108.023H39.2553C37.0496 108.023 35.2623 109.809 35.2623 112.012V115.011C35.2623 117.214 37.0496 119 39.2553 119H55.7298C57.937 119 59.7242 117.214 59.7242 115.011V112.012C59.7242 109.809 57.937 108.023 55.7298 108.023H54.2289H45.0689C43.4894 108.023 42.2093 106.746 42.2093 105.168V98.7264C42.2093 97.1504 43.4894 95.8719 45.0689 95.8719H49.9177C51.4957 95.8719 52.7758 97.1504 52.7758 98.7264V101.852C52.7758 102.653 53.4268 103.304 54.2289 103.304C55.0324 103.304 55.6819 102.653 55.6819 101.852V95.8719H59.6182H65.5727C68.6256 95.8719 71.0391 93.0855 70.3983 89.9175C69.9318 87.6144 67.7944 86.021 65.442 86.021Z" fill="#202225"/>
<path fill-rule="evenodd" clip-rule="evenodd" d="M108.311 102.07C108.08 102.208 107.823 102.277 107.563 102.277C107.304 102.277 107.045 102.208 106.816 102.07C92.9901 93.7864 84.7354 79.1958 84.7354 63.0423V43.075C84.7354 42.419 85.1742 41.8458 85.8078 41.6745C99.9705 37.8332 115.158 37.8346 129.319 41.6745C129.953 41.8458 130.391 42.419 130.391 43.075V63.0423C130.391 79.1958 122.137 93.7864 108.311 102.07ZM122.908 94.4801C130.204 85.6494 134.222 74.4852 134.222 63.0423V39.1378C116.989 33.597 98.1397 33.5956 80.9052 39.1378V63.0423C80.9052 81.6135 91.0997 98.3374 107.563 106.866C110.845 105.164 113.93 103.097 116.743 100.717C117.346 100.208 118.238 100.279 118.76 100.863C120.294 99.4897 121.725 98.021 123.072 96.4827C122.49 95.9661 122.41 95.0838 122.908 94.4801Z" fill="#757E84"/>
<path fill-rule="evenodd" clip-rule="evenodd" d="M136.136 36.7104C117.71 30.537 97.4152 30.5384 78.9892 36.7104C78.3978 36.9093 77.9983 37.4636 77.9983 38.0876V63.0428C77.9983 82.9623 89.0777 100.876 106.912 109.792C107.117 109.895 107.341 109.946 107.563 109.946C107.786 109.946 108.009 109.895 108.214 109.792C111.946 107.928 115.447 105.619 118.622 102.931C119.234 102.413 119.31 101.499 118.791 100.886C118.782 100.876 118.769 100.872 118.76 100.863C118.239 100.28 117.347 100.207 116.744 100.718C113.93 103.098 110.846 105.164 107.563 106.867C91.1003 98.3379 80.9043 81.6126 80.9043 63.0428L80.9058 39.1369C98.1388 33.5961 116.988 33.5961 134.222 39.1383V63.0428C134.222 74.4857 130.203 85.6499 122.909 94.4791C122.409 95.0843 122.49 95.9666 123.073 96.4833C123.086 96.4949 123.092 96.5108 123.105 96.5225C123.724 97.0333 124.641 96.9448 125.151 96.3265C132.874 86.9778 137.128 75.1576 137.128 63.0428L137.127 38.0862C137.127 37.4636 136.729 36.9093 136.136 36.7104Z" fill="#202225"/>
<path fill-rule="evenodd" clip-rule="evenodd" d="M87.6414 44.1919V63.0418C87.6414 77.8733 95.0707 91.2956 107.563 99.1235C120.056 91.2956 127.485 77.8733 127.485 63.0418V44.1919C114.492 40.8629 100.639 40.8614 87.6414 44.1919Z" fill="#553931"/>
<path fill-rule="evenodd" clip-rule="evenodd" d="M110.175 97.3518C121.084 89.36 127.485 76.8084 127.485 63.0421V47.7434C127.485 45.6173 125.98 43.7917 123.894 43.3607C113.164 41.1389 101.965 41.1389 91.2316 43.3607C89.1465 43.7917 87.6412 45.6173 87.6412 47.7434V63.0421C87.6412 76.8084 94.0418 89.36 104.951 97.3518C106.499 98.4838 108.627 98.4838 110.175 97.3518ZM129.319 41.6744C129.952 41.8456 130.391 42.4203 130.391 43.0748V63.0421C130.391 79.1956 122.136 93.7862 108.311 102.07C108.081 102.208 107.822 102.277 107.564 102.277C107.304 102.277 107.047 102.208 106.815 102.07C92.9898 93.7862 84.7351 79.1956 84.7351 63.0421V43.0748C84.7351 42.4203 85.1739 41.8456 85.8074 41.6744C99.9702 37.833 115.159 37.8344 129.319 41.6744Z" fill="#242520"/>
<path fill-rule="evenodd" clip-rule="evenodd" d="M12.0786 64.8634L10.3582 66.5801C9.79148 67.1461 9.79148 68.0647 10.3582 68.6322C10.643 68.9152 11.0149 69.0574 11.3855 69.0574C11.7574 69.0574 12.1294 68.9152 12.4128 68.6322L14.1332 66.9154C14.7013 66.3479 14.7013 65.4308 14.1332 64.8634C13.565 64.2959 12.6467 64.2959 12.0786 64.8634ZM3.48238 73.4488L1.76199 75.167C1.1953 75.733 1.1953 76.6516 1.76199 77.219C2.04678 77.502 2.41876 77.6442 2.78928 77.6442C3.16126 77.6442 3.53469 77.502 3.81658 77.219L5.53698 75.5008C6.10512 74.9334 6.10512 74.0162 5.53698 73.4488C4.96884 72.8813 4.04907 72.8813 3.48238 73.4488ZM12.4135 73.4488C11.8453 72.8813 10.927 72.8813 10.3589 73.4488C9.79075 74.0162 9.79075 74.9334 10.3589 75.5008L12.0793 77.219C12.3626 77.502 12.7346 77.6442 13.1066 77.6442C13.4771 77.6442 13.8491 77.502 14.1339 77.219C14.7006 76.6516 14.7006 75.733 14.1339 75.167L12.4135 73.4488ZM3.81731 64.8634C3.24917 64.2959 2.3294 64.2959 1.76271 64.8634C1.19457 65.4308 1.19457 66.3479 1.76271 66.9154L3.48311 68.6322C3.76645 68.9152 4.13843 69.0574 4.51041 69.0574C4.88093 69.0574 5.25291 68.9152 5.53771 68.6322C6.10439 68.0647 6.10439 67.1461 5.53771 66.5801L3.81731 64.8634Z" fill="#242520"/>
<path fill-rule="evenodd" clip-rule="evenodd" d="M243.119 80.0511L244.838 78.3343C245.406 77.7669 246.325 77.7669 246.893 78.3343C247.461 78.9018 247.461 79.8189 246.893 80.3864L245.174 82.1031C244.891 82.3861 244.519 82.5284 244.147 82.5284C243.775 82.5284 243.403 82.3861 243.119 82.1031C242.551 81.5357 242.551 80.6171 243.119 80.0511ZM234.523 88.638L236.242 86.9197C236.809 86.3523 237.729 86.3523 238.297 86.9197C238.865 87.4872 238.865 88.4043 238.297 88.9718L236.578 90.69C236.294 90.973 235.922 91.1152 235.55 91.1152C235.178 91.1152 234.807 90.973 234.523 90.69C233.955 90.1226 233.955 89.204 234.523 88.638ZM243.119 86.9197C243.687 86.3523 244.606 86.3523 245.174 86.9197L246.893 88.638C247.461 89.204 247.461 90.1226 246.893 90.69C246.609 90.973 246.237 91.1152 245.865 91.1152C245.493 91.1152 245.122 90.973 244.838 90.69L243.119 88.9718C242.551 88.4043 242.551 87.4872 243.119 86.9197ZM234.523 78.3343C235.09 77.7669 236.009 77.7669 236.578 78.3343L238.297 80.0511C238.865 80.6171 238.865 81.5357 238.297 82.1031C238.013 82.3861 237.641 82.5284 237.269 82.5284C236.897 82.5284 236.525 82.3861 236.242 82.1031L234.523 80.3864C233.955 79.8189 233.955 78.9018 234.523 78.3343ZM99.2303 6.55599C99.2303 5.34713 98.2466 4.36465 97.0362 4.36465C95.8258 4.36465 94.8421 5.34713 94.8421 6.55599C94.8421 7.76341 95.8258 8.74733 97.0362 8.74733C98.2466 8.74733 99.2303 7.76341 99.2303 6.55599ZM102.136 6.55599C102.136 9.3641 99.8493 11.6498 97.0362 11.6498C94.2246 11.6498 91.936 9.3641 91.936 6.55599C91.936 3.74788 94.2246 1.46221 97.0362 1.46221C99.8493 1.46221 102.136 3.74788 102.136 6.55599ZM117.709 18.1945H116.968C116.166 18.1945 115.515 17.5458 115.515 16.7433C115.515 15.9407 116.166 15.292 116.968 15.292H117.709C118.511 15.292 119.162 14.6419 119.162 13.8408V13.1007C119.162 12.2996 119.813 11.6495 120.615 11.6495C121.417 11.6495 122.068 12.2996 122.068 13.1007V13.8408C122.068 14.6419 122.719 15.292 123.521 15.292H124.262C125.064 15.292 125.715 15.9407 125.715 16.7433C125.715 17.5458 125.064 18.1945 124.262 18.1945H123.521C122.719 18.1945 122.068 18.8446 122.068 19.6457V20.3873C122.068 21.1883 121.417 21.8385 120.615 21.8385C119.813 21.8385 119.162 21.1883 119.162 20.3873V19.6457C119.162 18.8446 118.511 18.1945 117.709 18.1945ZM259.777 61.546H260.518C261.32 61.546 261.971 62.1947 261.971 62.9973C261.971 63.7998 261.32 64.4485 260.518 64.4485H259.777C258.975 64.4485 258.324 65.0986 258.324 65.8997V66.6413C258.324 67.4423 257.673 68.0925 256.871 68.0925C256.067 68.0925 255.418 67.4423 255.418 66.6413V65.8997C255.418 65.0986 254.767 64.4485 253.965 64.4485H253.224C252.422 64.4485 251.771 63.7998 251.771 62.9973C251.771 62.1947 252.422 61.546 253.224 61.546H253.965C254.767 61.546 255.418 60.8959 255.418 60.0948V59.3547C255.418 58.5522 256.067 57.9035 256.871 57.9035C257.673 57.9035 258.324 58.5522 258.324 59.3547V60.0948C258.324 60.8959 258.975 61.546 259.777 61.546Z" fill="#242520"/>
</g>
<defs>
<clipPath id="clip0">
<rect width="263" height="119" fill="white"/>
</clipPath>
</defs>
</svg>
