<svg width="376" height="162" viewBox="0 0 376 162" fill="none" xmlns="http://www.w3.org/2000/svg">
<path d="M81 120L98 128.5L106.5 129L114 127.5L115 144L114 152L107.5 157L88.5 157.5L91 153L88 149L80 147.5V144.5L76.5 139.5L77 127L81 120Z" fill="#DD6642"/>
<path d="M96 78C96 83.2467 84.5751 89.5 78.5 89.5C72.4249 89.5 73.0001 83.7467 73.0001 78.5C73.0001 73.2533 77.9249 69 84.0001 69C90.0752 69 96 72.7533 96 78Z" fill="#B2614A"/>
<path fill-rule="evenodd" clip-rule="evenodd" d="M115.176 78.9373H144.698C160.261 78.9373 172.993 66.2043 172.993 50.6423C172.993 35.0803 160.261 22.3473 144.698 22.3473H115.176C99.6139 22.3473 86.8809 35.0803 86.8809 50.6423C86.8809 66.2043 99.6139 78.9373 115.176 78.9373Z" fill="#4F545C" fill-opacity="0.3"/>
<path fill-rule="evenodd" clip-rule="evenodd" d="M372.214 68.1682C372.214 93.4672 351.705 113.976 326.406 113.976H290.31C285.93 113.976 282.38 117.526 282.38 121.906V121.909C282.38 126.289 285.93 129.839 290.31 129.839H337.648C345.584 129.839 352.017 136.272 352.017 144.208C352.017 152.143 345.584 158.576 337.648 158.576H56.0205C37.2145 158.576 21.9705 143.331 21.9705 124.526V124.518C21.9705 105.713 37.2145 90.4682 56.0205 90.4682H149.126C167.931 90.4682 183.175 75.2232 183.175 56.4182V56.4102C183.175 37.6052 198.421 22.3602 217.226 22.3602H326.406C351.705 22.3602 372.214 42.8692 372.214 68.1682Z" fill="#4F545C" fill-opacity="0.3"/>
<path d="M128 94.5C136.5 105.5 116.5 133.5 101.5 128.5C89.5 131 71 112.136 71 97.5C71 82.8644 82.6406 71 97 71C104 71 128 79.8644 128 94.5Z" fill="#B2614A"/>
<path d="M113 98L132 111L134 113.5L129.5 122L123 127L117 127.5L110 124L103 117.5L102.5 108.5L109 98.5L113 98Z" fill="#E7896E"/>
<path d="M251 3H252.5L263 15L274.5 1L281 9L287 14H287.5L297.5 3L298 16L292.5 22H280L275 16.5L269 22L275 28L280 22H292.5L298.5 28V34H278.5L251.5 33.5V28.5L256.5 23L251 16V3Z" fill="#FFC107"/>
<path d="M37.5 144L42 147L44.5 146.5L49.5 148L48.5 150.5L42 156L34 160.5V156L29 147L37.5 144Z" fill="#B2614A"/>
<rect x="144" y="141" width="55" height="8" fill="#F5A266"/>
<rect x="272.845" y="95.9794" width="20.7906" height="5.3489" transform="rotate(20.1797 272.845 95.9794)" fill="#8395B0"/>
<rect x="272.845" y="95.9794" width="20.7906" height="5.3489" transform="rotate(20.1797 272.845 95.9794)" fill="#8395B0"/>
<rect x="272.845" y="95.9794" width="20.7906" height="5.3489" transform="rotate(20.1797 272.845 95.9794)" fill="#8395B0"/>
<rect x="255.149" y="145.174" width="16.888" height="6.22867" transform="rotate(20.1797 255.149 145.174)" fill="#8395B0"/>
<rect x="255.149" y="145.174" width="16.888" height="6.22867" transform="rotate(20.1797 255.149 145.174)" fill="#8395B0"/>
<rect x="255.149" y="145.174" width="16.888" height="6.22867" transform="rotate(20.1797 255.149 145.174)" fill="#8395B0"/>
<path d="M286 80L288 79.5L294 82V84.5L292.5 85.5L289.5 84.5L285.5 83L286 80Z" fill="#8395B0"/>
<path fill-rule="evenodd" clip-rule="evenodd" d="M26.4078 150.731C25.6818 152.295 25.6498 154.097 26.3148 155.686L26.5078 155.993C26.5348 156.036 26.5588 156.081 26.5788 156.127C27.2848 157.756 28.6598 158.999 30.3528 159.536C30.9928 159.739 31.6538 159.833 32.3098 159.822C32.3618 152.179 29.0398 149.582 27.7538 148.872C27.1998 149.398 26.7368 150.023 26.4078 150.731Z" fill="#8B4835"/>
<path fill-rule="evenodd" clip-rule="evenodd" d="M118.094 131.222L116.479 128.423C115.98 128.336 115.485 128.227 114.998 128.087C115.003 128.149 115.015 128.208 115.019 128.27L115.365 133.672C116.514 133.527 117.679 133.468 118.851 133.464C118.745 132.683 118.497 131.921 118.094 131.222Z" fill="#8B4835"/>
<path fill-rule="evenodd" clip-rule="evenodd" d="M115.631 137.835L115.748 139.654C117.068 138.923 118.083 137.729 118.58 136.285C118.896 135.368 118.978 134.403 118.851 133.464C117.679 133.468 116.514 133.527 115.364 133.672L115.369 133.752C115.404 134.303 114.986 134.779 114.435 134.814L114.569 136.901C115.113 136.87 115.595 137.284 115.631 137.835Z" fill="#B2614A"/>
<path fill-rule="evenodd" clip-rule="evenodd" d="M112.447 154.759C111.611 155.651 110.67 156.397 109.662 157.019H117.32C119.466 157.019 121.211 155.274 121.211 153.128C121.211 150.983 119.466 149.237 117.32 149.237H115.573C114.995 151.273 113.947 153.16 112.447 154.759ZM66.2633 135.649C66.5003 135.625 66.7412 135.611 66.9842 135.611H68.4412C71.5892 135.611 74.4633 136.779 76.6772 138.691L77.2213 135.156C77.0943 135.165 76.9683 135.176 76.8393 135.176C73.7793 135.176 71.2933 132.69 71.2933 129.633V126.826C71.2933 123.77 73.7793 121.283 76.8363 121.283C77.3883 121.283 77.8373 121.731 77.8373 122.283C77.8373 122.835 77.3913 123.283 76.8393 123.283C74.8823 123.283 73.2933 124.872 73.2933 126.826V127.47C74.1263 126.424 75.4023 125.744 76.8363 125.744H76.8383C78.7753 125.744 80.4183 126.981 81.0683 128.696C81.1683 128.663 81.2703 128.633 81.3823 128.633V126.719C81.3823 125.22 80.6383 123.896 79.5112 123.067C79.8552 122.171 80.2633 121.31 80.7403 120.493L80.2773 120.193C78.2283 118.864 76.3953 117.291 74.7973 115.523C71.0363 118.065 68.3483 122.101 67.6073 126.915L66.2633 135.649ZM71.2804 157.019H76.3664H85.2344C86.3674 157.019 87.4444 156.52 88.1884 155.651C88.9404 154.773 89.2554 153.657 89.0764 152.507C88.7854 150.643 87.0704 149.237 85.0854 149.237H80.0664C79.5134 149.237 79.0664 148.789 79.0664 148.237C79.0664 142.378 74.3004 137.611 68.4414 137.611H66.9844C64.2564 137.611 62.0374 139.831 62.0374 142.558V147.776C62.0374 152.873 66.1834 157.019 71.2804 157.019ZM130.562 96.3499C131.372 100.147 131.381 103.981 130.64 107.663L132.09 108.603C132.238 108.307 132.378 108.003 132.501 107.688L132.717 107.135C133.774 104.423 133.712 101.463 132.543 98.7989C132.012 97.5899 131.274 96.5169 130.382 95.5969C130.443 95.8479 130.508 96.0969 130.562 96.3499ZM105.087 74.0979C105.027 73.7689 105.041 73.5219 105.072 73.3679C105.091 73.2709 105.131 73.1809 105.177 73.0939C102.098 71.8259 98.817 71.1609 95.481 71.1609C94.764 71.1609 94.045 71.1999 93.325 71.2599C93.364 71.2989 93.408 71.3309 93.447 71.3699L96.314 74.1989C99.195 73.6889 102.161 73.6479 105.087 74.0979ZM80.8531 118.165C74.1911 110.553 72.3261 99.6203 76.2801 90.1713C76.0901 90.3403 75.8571 90.4343 75.6191 90.4343C75.3651 90.4343 75.111 90.3383 74.916 90.1463C73.661 88.9073 72.7151 87.4713 72.0771 85.9363C69.6931 90.9913 69.0261 96.6743 70.2191 102.268C71.6151 108.813 75.3851 114.432 80.8531 118.165Z" fill="#8B4835"/>
<path fill-rule="evenodd" clip-rule="evenodd" d="M96.1685 93.5882C95.6195 93.2322 94.8795 93.3902 94.5235 93.9392C94.1675 94.4882 94.3255 95.2282 94.8745 95.5842C95.4235 95.9392 96.1635 95.7822 96.5195 95.2332C96.8755 94.6842 96.7175 93.9442 96.1685 93.5882ZM99.1625 95.5292C98.6135 95.1732 97.8735 95.3312 97.5175 95.8802C97.1615 96.4292 97.3185 97.1692 97.8675 97.5252C98.4165 97.8812 99.1565 97.7232 99.5125 97.1742C99.8685 96.6262 99.7105 95.8852 99.1625 95.5292ZM94.3935 99.0422C93.4915 98.4572 92.8705 97.5502 92.6445 96.4892C92.4185 95.4292 92.6155 94.3482 93.2005 93.4452L93.5335 92.9322C94.3075 91.7392 95.6085 91.0882 96.9355 91.0882C97.6885 91.0882 98.4505 91.2982 99.1285 91.7382L99.6435 92.0722C100.544 92.6572 101.166 93.5632 101.392 94.6242C101.618 95.6852 101.42 96.7662 100.836 97.6672L100.502 98.1812C99.9185 99.0832 99.0115 99.7052 97.9505 99.9312C96.8895 100.156 95.8095 99.9592 94.9075 99.3752L94.3935 99.0422Z" fill="#A7D8EC"/>
<path fill-rule="evenodd" clip-rule="evenodd" d="M129.615 71.263L125.772 77.715C125.489 78.19 125.645 78.803 126.119 79.086L125.358 80.1845C125 80.8215 125 80.8215 124.5 81.3215L123.077 82.239C122.505 82.367 122.267 85.5 111.5 79.086C105.707 75.635 107.674 73.532 107.522 72.984L114.065 62L114.584 66.654C114.637 67.126 114.901 67.535 115.309 67.778C115.717 68.021 116.203 68.057 116.643 67.88L122.516 65.498L123.218 71.798C123.271 72.269 123.535 72.678 123.943 72.921C124.351 73.164 124.836 73.2 125.276 73.023L129.615 71.263Z" fill="#FFC107"/>
<path fill-rule="evenodd" clip-rule="evenodd" d="M274.709 18.0862C274.648 18.0252 274.569 17.9962 274.49 17.9962C274.41 17.9962 274.331 18.0252 274.271 18.0862L270.229 22.1282C270.108 22.2492 270.108 22.4452 270.229 22.5662L274.271 26.6082C274.392 26.7292 274.588 26.7292 274.709 26.6082L278.751 22.5662C278.826 22.4912 278.842 22.4052 278.842 22.3472C278.842 22.2892 278.826 22.2032 278.751 22.1282L274.709 18.0862ZM298.495 18.0862C298.416 18.0072 298.324 17.9952 298.276 17.9952C298.217 17.9952 298.132 18.0112 298.057 18.0862L294.015 22.1282C293.939 22.2032 293.924 22.2892 293.924 22.3472C293.924 22.4052 293.939 22.4912 294.014 22.5652L298.057 26.6082C298.193 26.7442 298.319 26.7842 298.495 26.6082L302.537 22.5662C302.612 22.4912 302.627 22.4052 302.627 22.3472C302.627 22.2892 302.612 22.2032 302.537 22.1282L298.495 18.0862ZM250.485 26.6082C250.621 26.7442 250.748 26.7842 250.923 26.6082L254.965 22.5662C255.04 22.4912 255.056 22.4052 255.056 22.3472C255.056 22.2892 255.04 22.2032 254.965 22.1292L250.923 18.0862C250.844 18.0072 250.752 17.9952 250.704 17.9952C250.646 17.9952 250.56 18.0112 250.485 18.0862L246.443 22.1282C246.368 22.2032 246.352 22.2892 246.352 22.3472C246.352 22.4052 246.368 22.4912 246.443 22.5662L250.485 26.6082ZM308.48 98.7761H310.034H312.634C322.008 98.7761 329.634 91.1501 329.634 81.7761V80.4431H320.634V81.7761C320.634 89.6291 315.529 96.3331 308.48 98.7761ZM319.601 46.0427H328.543C326.128 39.5907 319.918 34.9767 312.633 34.9767H308.48C313.662 36.7727 317.779 40.8727 319.601 46.0427Z" fill="#7A8EC7"/>
<path fill-rule="evenodd" clip-rule="evenodd" d="M270.685 98.7761L271.457 96.8631C271.753 96.1301 272.307 95.5551 273.015 95.2151C272.845 94.9131 272.687 94.6031 272.55 94.2791C271.576 91.9871 271.553 89.4541 272.486 87.1441C273.146 85.5091 274.248 84.1021 275.673 83.0751C276.121 82.7531 276.747 82.8541 277.068 83.3021C277.081 83.3191 277.082 83.3411 277.094 83.3591C277.883 82.9221 278.741 82.6191 279.631 82.4551C279.628 82.4321 279.615 82.4131 279.614 82.3891C279.579 81.8381 279.998 81.3621 280.549 81.3281C281.782 81.2541 282.988 81.4301 284.151 81.8301C284.159 81.4101 284.235 80.9901 284.397 80.5891C284.407 80.5641 284.418 80.5401 284.43 80.5161L284.431 80.5141C284.746 79.7251 285.409 79.0491 286.265 78.6861C286.87 78.4291 287.52 78.3591 288.155 78.4581C288.489 77.6441 289.063 76.9751 289.777 76.5731C290.56 76.1341 291.449 76.0601 292.215 76.3701L292.517 76.4921C293.285 76.8011 293.873 77.4721 294.13 78.3311C294.365 79.1151 294.313 79.9951 293.989 80.8131C295.279 81.7231 295.831 83.4291 295.215 84.9541C295.053 85.3551 294.817 85.7111 294.531 86.0181C298.986 88.0971 301.097 93.3331 299.236 97.9441C299.118 98.2361 298.966 98.5031 298.823 98.7761H305.542H308.479C315.528 96.3331 320.633 89.6291 320.633 81.7761V80.4431H315.984C315.432 80.4431 314.984 79.9951 314.984 79.4431C314.984 78.8901 315.432 78.4431 315.984 78.4431H330.584C334.996 78.4431 338.584 74.8541 338.584 70.4431V56.0431C338.584 51.6311 334.996 48.0431 330.584 48.0431H315.984C315.432 48.0431 314.984 47.5951 314.984 47.0431C314.984 46.4901 315.432 46.0431 315.984 46.0431H319.601C317.779 40.8721 313.662 36.7731 308.48 34.9761H247.942C238.703 34.9761 231.177 42.3881 230.962 51.5761H247.893C248.446 51.5761 248.893 52.0241 248.893 52.5761H258.448C258.448 52.0241 258.895 51.5761 259.448 51.5761H270.248C274.769 51.5761 278.448 55.2551 278.448 59.7761V67.5761C278.448 78.0521 269.925 86.5761 259.448 86.5761H240.248C236.95 86.5761 233.848 85.7291 231.142 84.2451C232.344 92.4501 239.408 98.7761 247.942 98.7761H263.742H270.685Z" fill="#A0B2DC"/>
<path fill-rule="evenodd" clip-rule="evenodd" d="M269.048 59.7761V67.5761C269.048 75.4291 263.944 82.1321 256.895 84.5761H259.448C268.822 84.5761 276.448 76.9501 276.448 67.5761V59.7761C276.448 56.3571 273.667 53.5761 270.248 53.5761H265.482C267.609 54.8311 269.048 57.1411 269.048 59.7761Z" fill="#B3CAFB"/>
<path fill-rule="evenodd" clip-rule="evenodd" d="M326.584 74.4426C329.346 74.4426 331.584 72.2036 331.584 69.4426V57.0426C331.584 54.2806 329.346 52.0426 326.584 52.0426H319.984C318.88 52.0426 317.984 52.9386 317.984 54.0426V72.4426C317.984 73.5466 318.88 74.4426 319.984 74.4426H326.584Z" fill="#8BA0D2"/>
<path fill-rule="evenodd" clip-rule="evenodd" d="M255.955 74.3894C255.955 76.0054 254.633 77.3274 253.017 77.3274H247.139C245.522 77.3274 244.2 76.0054 244.2 74.3894C244.2 72.7734 245.522 71.4504 247.139 71.4504H253.017C254.633 71.4504 255.955 72.7734 255.955 74.3894ZM230.127 74.3894C230.127 72.7734 231.45 71.4504 233.066 71.4504H236.592C238.209 71.4504 239.531 72.7734 239.531 74.3894C239.531 76.0054 238.209 77.3274 236.592 77.3274H233.066C231.45 77.3274 230.127 76.0054 230.127 74.3894ZM247.893 53.5764H229.448C226.029 53.5764 223.248 56.3574 223.248 59.7764V67.5764C223.248 76.9504 230.874 84.5764 240.248 84.5764H256.894C263.943 82.1324 269.048 75.4294 269.048 67.5764V59.7764C269.048 57.1404 267.609 54.8304 265.482 53.5764H259.448C258.895 53.5764 258.448 53.1284 258.448 52.5764H248.893C248.893 53.1284 248.446 53.5764 247.893 53.5764Z" fill="#C2D2F1"/>
<path fill-rule="evenodd" clip-rule="evenodd" d="M247.139 71.4504C245.523 71.4504 244.201 72.7734 244.201 74.3894C244.201 76.0054 245.523 77.3274 247.139 77.3274H253.017C254.633 77.3274 255.955 76.0054 255.955 74.3894C255.955 72.7734 254.633 71.4504 253.017 71.4504H247.139ZM233.066 77.3279H236.592C238.209 77.3279 239.531 76.0059 239.531 74.3899C239.531 72.7729 238.209 71.4509 236.592 71.4509H233.066C231.45 71.4509 230.128 72.7729 230.128 74.3899C230.128 76.0059 231.45 77.3279 233.066 77.3279ZM232.742 140.576V131.218C229.6 133.157 227.494 136.62 227.494 140.576V145.376C227.494 147.251 225.969 148.776 224.095 148.776H213.294C210.868 148.776 208.894 150.75 208.894 153.176C208.894 155.602 210.868 157.576 213.294 157.576H243.307C237.056 154.462 232.742 148.021 232.742 140.576ZM237.115 113.976H227.094C224.668 113.976 222.694 115.95 222.694 118.376C222.694 120.802 224.668 122.776 227.094 122.776H233.55C234.268 119.686 235.468 116.729 237.115 113.976Z" fill="#7A8EC7"/>
<path fill-rule="evenodd" clip-rule="evenodd" d="M247.141 71.45C245.525 71.45 244.203 72.773 244.203 74.389C244.203 76.005 245.525 77.327 247.141 77.327H253.019C254.635 77.327 255.957 76.005 255.957 74.389C255.957 72.773 254.635 71.45 253.019 71.45H247.141ZM233.068 77.3275H236.594C238.211 77.3275 239.533 76.0055 239.533 74.3895C239.533 72.7725 238.211 71.4505 236.594 71.4505H233.068C231.452 71.4505 230.13 72.7725 230.13 74.3895C230.13 76.0055 231.452 77.3275 233.068 77.3275Z" fill="#A0B2DC"/>
<path fill-rule="evenodd" clip-rule="evenodd" d="M254.68 152.897C254.871 152.423 255.118 151.989 255.403 151.59L255.166 151.494C254.387 151.18 253.776 150.58 253.448 149.806C253.119 149.032 253.111 148.176 253.426 147.397L253.626 146.9C253.942 146.119 254.541 145.509 255.315 145.18C256.089 144.852 256.944 144.844 257.724 145.159L259.784 145.99L268.107 125.375C266.25 125.367 264.489 124.551 263.273 123.13C262.055 121.707 261.522 119.826 261.811 117.967C262.291 114.894 265.078 112.576 268.297 112.576H273.275L276.492 104.606L272.393 102.952C271.683 102.665 271.125 102.134 270.781 101.458L270.667 101.412L270.705 101.319C270.696 101.3 270.683 101.283 270.675 101.264C270.607 101.105 270.562 100.94 270.521 100.776H263.742C254.578 100.776 245.84 105.221 240.367 112.665C236.687 117.67 234.742 123.587 234.742 129.776V140.576C234.742 149.95 242.367 157.576 251.742 157.576H254.651C254.065 156.062 254.069 154.41 254.68 152.897ZM285.734 111.163C285.735 110.234 285.847 109.332 286.042 108.462L284.322 107.767L282.381 112.576H282.846H284.334C285.105 112.576 285.733 111.942 285.734 111.163ZM274.103 130.408C274.616 130.615 274.863 131.198 274.656 131.71L268.573 146.777H281.749C282.52 146.777 283.148 146.148 283.148 145.376V140.576C283.148 133.408 288.98 127.576 296.148 127.576H298.442C299.048 127.576 299.542 127.083 299.542 126.476C299.542 125.87 299.048 125.377 298.442 125.377H282.845H276.134L274.103 130.408ZM338.824 125.886L335.131 138.549V138.551C335.011 138.961 335.232 139.238 335.333 139.339C335.434 139.44 335.714 139.663 336.122 139.542L348.786 135.848C351.979 134.917 354.295 132.062 354.547 128.745C354.725 126.406 353.876 124.113 352.218 122.454C350.704 120.941 348.662 120.102 346.539 120.102C346.336 120.102 346.132 120.11 345.927 120.126C342.61 120.378 339.756 122.692 338.824 125.886Z" fill="#7A8EC7"/>
<path fill-rule="evenodd" clip-rule="evenodd" d="M255.661 151.814C255.376 152.213 255.129 152.647 254.938 153.121C254.327 154.634 254.323 156.286 254.909 157.8H252C242.625 157.8 235 150.174 235 140.8V130C235 123.811 236.945 117.894 240.625 112.889C246.098 105.445 254.836 101 264 101H270.779C270.82 101.164 270.865 101.329 270.933 101.488C270.937 101.498 270.943 101.508 270.949 101.518C270.954 101.526 270.959 101.534 270.963 101.543L270.925 101.636L271.039 101.682C271.383 102.358 271.941 102.889 272.651 103.176L276.75 104.83L273.533 112.8H268.555C265.336 112.8 262.549 115.118 262.069 118.191C261.78 120.05 262.313 121.931 263.531 123.354C264.747 124.775 266.508 125.591 268.365 125.599L260.042 146.214L257.982 145.383C257.202 145.068 256.347 145.076 255.573 145.404C254.799 145.733 254.2 146.343 253.884 147.124L253.684 147.621C253.369 148.4 253.377 149.256 253.706 150.03C254.034 150.804 254.645 151.404 255.424 151.718L255.661 151.814ZM286.299 108.686C286.104 109.556 285.992 110.458 285.991 111.387C285.99 112.166 285.362 112.8 284.591 112.8H283.103H282.638L284.579 107.991L286.299 108.686ZM274.914 131.933C275.121 131.421 274.874 130.838 274.361 130.631L276.392 125.6H283.103H298.7C299.306 125.6 299.8 126.093 299.8 126.699C299.8 127.306 299.306 127.799 298.7 127.799H296.406C289.238 127.799 283.406 133.631 283.406 140.799V145.6C283.406 146.372 282.778 147 282.007 147H268.831L274.914 131.933Z" fill="#99ABD8"/>
<path fill-rule="evenodd" clip-rule="evenodd" d="M311.949 157.576C312.671 157.576 313.374 157.42 314.039 157.113C314.095 157.087 314.152 157.067 314.211 157.052C321.761 155.125 327.033 148.35 327.033 140.576V117.776C327.033 108.402 319.407 100.776 310.033 100.776H305.542H298.134C297.877 100.776 297.625 100.796 297.373 100.815C296.235 102.024 294.816 102.915 293.251 103.383C293.525 104.12 293.525 104.919 293.229 105.653L292.425 107.644C291.93 108.869 290.747 109.614 289.502 109.614C289.11 109.614 288.712 109.54 288.327 109.385L287.925 109.222C287.804 109.852 287.734 110.501 287.734 111.165C287.732 113.046 286.206 114.576 284.333 114.576H282.845H268.297C266.055 114.576 264.117 116.166 263.788 118.275C263.586 119.575 263.942 120.837 264.792 121.829C265.634 122.812 266.852 123.376 268.134 123.376H282.845H298.442C300.152 123.376 301.542 124.767 301.542 126.476C301.542 128.185 300.152 129.576 298.442 129.576H296.149C290.083 129.576 285.149 134.511 285.149 140.576V145.376C285.149 147.251 283.623 148.776 281.749 148.776H267.766L267.615 149.152L269.675 149.983C271.284 150.633 272.065 152.472 271.415 154.081L271.215 154.578C270.72 155.803 269.537 156.548 268.291 156.548C267.899 156.548 267.502 156.474 267.117 156.319H267.116L266.881 156.224C266.813 156.674 266.699 157.119 266.532 157.554C266.605 157.558 266.675 157.576 266.749 157.576H305.542H311.949ZM291.769 78.3464L291.466 78.2244C291.192 78.1154 290.904 78.2344 290.757 78.3164C290.467 78.4794 290.219 78.7694 290.054 79.1164L292.156 79.9654C292.278 79.6014 292.31 79.2224 292.214 78.9054C292.166 78.7444 292.044 78.4574 291.769 78.3464Z" fill="#7A8EC7"/>
<path fill-rule="evenodd" clip-rule="evenodd" d="M276.842 84.6975C275.724 85.5035 274.859 86.6085 274.341 87.8935C273.608 89.7075 273.626 91.6975 274.391 93.4975C274.628 94.0575 274.936 94.5725 275.293 95.0455C275.38 95.0725 275.469 95.0885 275.555 95.1225L279.606 96.7585L284.687 84.1735L283.872 83.8445C282.846 83.4305 281.773 83.2555 280.675 83.3235C280.149 83.3595 279.7 82.9715 279.632 82.4555C278.741 82.6195 277.884 82.9225 277.094 83.3595C277.373 83.8015 277.272 84.3875 276.842 84.6975ZM297.381 97.1956C298.892 93.4516 297.076 89.1756 293.332 87.6636L292.516 87.3346L290.304 92.8156C290.293 92.9006 290.289 92.9876 290.256 93.0686L287.482 99.9386L291.487 101.556C291.571 101.59 291.644 101.639 291.724 101.679C294.181 101.29 296.384 99.6656 297.381 97.1956Z" fill="#DD4C3C"/>
<path fill-rule="evenodd" clip-rule="evenodd" d="M270.264 125.376L261.639 146.739L265.76 148.402L272.802 130.96C273.009 130.449 273.588 130.2 274.103 130.407L276.135 125.376H270.264Z" fill="#F0A93B"/>
<path fill-rule="evenodd" clip-rule="evenodd" d="M280.224 112.576L282.467 107.019L278.348 105.355L275.432 112.576H280.224Z" fill="#F0A93B"/>
<path d="M81 129.5C81 131.985 79.2091 133.5 77 133.5C74.7909 133.5 73 131.485 73 129C73 126.515 74.7909 125.5 77 125.5C79.2091 125.5 81 127.015 81 129.5Z" fill="#B2614A"/>
<path fill-rule="evenodd" clip-rule="evenodd" d="M264.638 156.917C264.831 156.439 264.921 155.94 264.94 155.44L257.339 152.372C257.009 152.739 256.73 153.162 256.534 153.646C256.097 154.728 256.108 155.916 256.564 156.99C257.021 158.064 257.868 158.896 258.951 159.334C261.184 160.235 263.736 159.151 264.638 156.917Z" fill="#F0A93B"/>
<path fill-rule="evenodd" clip-rule="evenodd" d="M285.582 99.171L290.563 86.831L286.443 85.168L281.461 97.507L285.582 99.171Z" fill="#F0A93B"/>
<path fill-rule="evenodd" clip-rule="evenodd" d="M270.781 101.458C270.757 101.411 270.727 101.368 270.705 101.319L270.668 101.412L270.781 101.458ZM185.176 139.576C187.933 139.576 190.176 137.333 190.176 134.576V124.576H176.176V134.576C176.176 137.333 178.419 139.576 181.176 139.576H185.176ZM159.543 139.576C162.3 139.576 164.543 137.333 164.543 134.576V129.576H153.543V134.576C153.543 137.333 155.786 139.576 158.543 139.576H159.543Z" fill="#E24D3A"/>
<path fill-rule="evenodd" clip-rule="evenodd" d="M148.696 157.576H152.696V150.576H148.696V157.576Z" fill="#BA6E37"/>
<path fill-rule="evenodd" clip-rule="evenodd" d="M190.692 157.576H194.692V150.576H190.692V157.576Z" fill="#BA6E37"/>
<path fill-rule="evenodd" clip-rule="evenodd" d="M56.3024 157.387V155.95C56.3024 155.381 55.8404 154.918 55.2714 154.918H54.0794C53.5914 154.918 53.1744 154.566 53.0934 154.085C52.8934 152.901 51.8404 152.008 50.6444 152.008H48.5004C47.1294 152.008 46.0134 153.124 46.0134 154.495V157.387C46.0134 157.49 46.1004 157.576 46.2024 157.576H50.6134H56.1134C56.2144 157.576 56.3024 157.488 56.3024 157.387ZM17.3562 157.387V157.116C17.3562 155.92 16.3832 154.947 15.1872 154.947C13.9862 154.947 13.0132 155.92 13.0132 157.116V157.387C13.0132 157.488 13.1022 157.576 13.2022 157.576H17.1672C17.2692 157.576 17.3562 157.49 17.3562 157.387Z" fill="#8B4835"/>
<path fill-rule="evenodd" clip-rule="evenodd" d="M6.69 157.576H1C0.447 157.576 0 158.024 0 158.576C0 159.128 0.447 159.576 1 159.576H6.69C7.242 159.576 7.69 159.128 7.69 158.576C7.69 158.024 7.242 157.576 6.69 157.576ZM314.211 157.052C314.151 157.067 314.094 157.087 314.039 157.113C313.374 157.42 312.67 157.576 311.949 157.576H305.542H266.749C266.674 157.576 266.605 157.558 266.532 157.554C266.698 157.119 266.813 156.674 266.881 156.224L267.116 156.319H267.117C267.502 156.474 267.899 156.548 268.291 156.548C269.537 156.548 270.719 155.803 271.214 154.578L271.415 154.081C272.065 152.471 271.284 150.633 269.674 149.983L267.614 149.152L267.766 148.776H281.749C283.623 148.776 285.149 147.251 285.149 145.376V140.576C285.149 134.51 290.083 129.576 296.149 129.576H298.442C300.151 129.576 301.542 128.185 301.542 126.476C301.542 124.767 300.151 123.376 298.442 123.376H282.845H268.133C266.852 123.376 265.634 122.812 264.792 121.829C263.942 120.837 263.586 119.574 263.788 118.275C264.117 116.166 266.055 114.576 268.297 114.576H282.845H284.333C286.206 114.576 287.732 113.046 287.733 111.165C287.734 110.501 287.804 109.852 287.924 109.222L288.327 109.385C288.712 109.54 289.109 109.614 289.502 109.614C290.747 109.614 291.93 108.869 292.424 107.644L293.229 105.653C293.525 104.919 293.524 104.12 293.251 103.383C294.816 102.915 296.235 102.024 297.373 100.815C297.625 100.796 297.877 100.776 298.133 100.776H305.542H310.033C319.407 100.776 327.033 108.402 327.033 117.776V140.576C327.033 148.35 321.76 155.125 314.211 157.052ZM255.915 149.64C255.631 149.525 255.408 149.306 255.289 149.024C255.169 148.742 255.166 148.43 255.281 148.145L255.482 147.648C255.718 147.061 256.388 146.776 256.976 147.013L268.925 151.838C269.512 152.075 269.797 152.745 269.56 153.333L269.359 153.83C269.123 154.416 268.454 154.701 267.865 154.465L255.915 149.64ZM263.374 158.573C262.086 159.594 260.315 159.942 258.812 159.275C257.795 158.824 257.001 158.018 256.565 156.99C256.108 155.916 256.098 154.728 256.535 153.646L256.541 153.631C256.853 152.866 257.773 152.547 258.54 152.856L263.737 154.955C264.532 155.276 264.948 156.186 264.614 156.975C264.37 157.552 263.975 158.096 263.374 158.573ZM274.104 130.407H274.103C273.588 130.2 273.008 130.449 272.802 130.96L266.591 146.343C266.132 147.48 264.837 148.031 263.7 147.571C262.562 147.112 262.012 145.817 262.471 144.679L269.139 128.163C269.818 126.479 271.453 125.376 273.27 125.376H276.134H282.845H298.442C299.048 125.376 299.542 125.869 299.542 126.476C299.542 127.082 299.048 127.576 298.442 127.576H296.149C288.969 127.576 283.149 133.396 283.149 140.576V145.376C283.149 146.149 282.522 146.776 281.749 146.776H271.057C269.869 146.776 269.058 145.574 269.503 144.473L274.656 131.709C274.863 131.197 274.616 130.614 274.104 130.407ZM254.68 152.897C254.069 154.41 254.065 156.062 254.651 157.576H251.742C242.353 157.576 234.742 149.965 234.742 140.576V129.776C234.742 123.587 236.687 117.67 240.367 112.665C245.84 105.221 254.579 100.776 263.742 100.776H270.522C270.562 100.941 270.607 101.105 270.675 101.264C270.683 101.283 270.696 101.3 270.705 101.32C270.726 101.366 270.754 101.408 270.778 101.453C271.103 102.079 271.57 102.619 272.225 102.884L274.772 103.912C275.722 104.296 276.181 105.377 275.798 106.326L273.275 112.576H268.297C265.079 112.576 262.291 114.894 261.812 117.968C261.522 119.826 262.055 121.707 263.273 123.13C264.489 124.551 266.251 125.367 268.107 125.375L259.785 145.99L257.831 145.202C257.213 144.952 256.528 144.852 255.878 144.999C254.834 145.236 254.015 145.939 253.627 146.9L253.47 147.288C253.221 147.907 253.119 148.592 253.267 149.243C253.503 150.288 254.207 151.107 255.167 151.494L255.403 151.59C255.119 151.99 254.872 152.423 254.68 152.897ZM239.795 157.576H213.294C210.723 157.576 208.66 155.36 208.916 152.737C209.138 150.451 211.193 148.776 213.489 148.776H224.094C225.972 148.776 227.494 147.254 227.494 145.376V140.576C227.494 137.372 228.876 134.49 231.07 132.481C231.708 131.897 232.742 132.366 232.742 133.23V140.576C232.742 146.801 235.757 152.323 240.399 155.786C241.166 156.358 240.752 157.576 239.795 157.576ZM232.773 122.776H227.094C224.523 122.776 222.46 120.56 222.715 117.937C222.938 115.651 224.993 113.976 227.289 113.976H235.411C236.159 113.976 236.646 114.769 236.296 115.43C235.187 117.531 234.328 119.738 233.735 122.022C233.62 122.464 233.23 122.776 232.773 122.776ZM287.714 99.358L292.283 87.92C292.412 87.597 292.779 87.441 293.101 87.571C296.599 88.983 298.668 92.781 297.648 96.413C296.831 99.322 294.433 101.249 291.724 101.679C291.645 101.639 291.571 101.589 291.488 101.555L288.063 100.173C287.742 100.043 287.586 99.678 287.714 99.358ZM288.503 86C289.641 86.459 290.19 87.754 289.731 88.892L285.582 99.171L281.461 97.507L285.61 87.228C286.07 86.091 287.365 85.54 288.503 86ZM290.054 79.116C290.219 78.769 290.467 78.48 290.757 78.317C290.904 78.234 291.192 78.115 291.466 78.224L291.769 78.346C292.044 78.458 292.166 78.744 292.214 78.905C292.31 79.222 292.278 79.602 292.156 79.965L290.054 79.116ZM292.542 82.278C293.299 82.583 293.667 83.448 293.36 84.207C293.212 84.574 292.93 84.861 292.566 85.015C292.203 85.17 291.8 85.174 291.433 85.026L287.07 83.265C286.704 83.117 286.417 82.835 286.262 82.471C286.107 82.107 286.104 81.704 286.252 81.337L286.253 81.335C286.401 80.969 286.683 80.682 287.047 80.527C287.233 80.448 287.429 80.408 287.626 80.408C287.814 80.408 288.001 80.445 288.18 80.517L292.542 82.278ZM273.142 101.097C272.858 100.983 272.636 100.764 272.516 100.482C272.396 100.2 272.393 99.888 272.508 99.604L273.312 97.612C273.427 97.327 273.646 97.105 273.928 96.985C274.072 96.924 274.224 96.893 274.376 96.893C274.521 96.893 274.667 96.921 274.806 96.977L290.739 103.41C291.024 103.525 291.246 103.743 291.366 104.026C291.486 104.308 291.489 104.619 291.374 104.904L290.57 106.895C290.333 107.482 289.662 107.766 289.076 107.53L273.142 101.097ZM279.057 112.576H277.993C276.768 112.576 275.932 111.337 276.391 110.2L277.515 107.416C277.974 106.278 279.269 105.728 280.407 106.187C281.544 106.646 282.095 107.941 281.635 109.079L280.66 111.494C280.396 112.148 279.762 112.576 279.057 112.576ZM286.042 108.462C285.847 109.329 285.735 110.227 285.733 111.152C285.732 111.934 285.115 112.576 284.333 112.576H282.845H282.38L283.627 109.488C284.011 108.538 285.092 108.078 286.042 108.462ZM247.942 98.776C240.952 98.776 234.947 94.531 232.343 88.486C231.661 86.902 233.135 85.277 234.787 85.774C236.517 86.295 238.35 86.576 240.248 86.576H259.448C269.941 86.576 278.448 78.07 278.448 67.576V59.776C278.448 55.247 274.777 51.576 270.248 51.576H259.448C258.896 51.576 258.448 52.024 258.448 52.576C258.448 53.128 258.896 53.576 259.448 53.576H265.482H270.248C273.672 53.576 276.448 56.352 276.448 59.776V67.576C276.448 76.965 268.837 84.576 259.448 84.576H256.895H240.248C230.859 84.576 223.248 76.965 223.248 67.576V59.776C223.248 56.352 226.024 53.576 229.448 53.576H247.894C248.446 53.576 248.893 53.128 248.894 52.576C248.894 52.024 248.446 51.576 247.894 51.576H233.156C231.919 51.576 230.979 50.465 231.177 49.244C232.487 41.166 239.499 34.976 247.942 34.976H308.481H312.633C318.695 34.976 324.013 38.171 327.019 42.962C327.859 44.3 326.908 46.043 325.328 46.043H319.601H315.984C315.432 46.043 314.984 46.49 314.984 47.043C314.984 47.595 315.432 48.043 315.984 48.043H330.585C335.003 48.043 338.585 51.624 338.585 56.043V70.443C338.585 74.861 335.003 78.443 330.585 78.443H315.984C315.432 78.443 314.984 78.89 314.984 79.443C314.984 79.995 315.432 80.443 315.984 80.443H320.633C326.603 81.327 329.371 88.51 325.374 93.031C322.259 96.554 317.706 98.776 312.633 98.776H310.033H308.48H305.542H298.823C298.966 98.503 299.118 98.237 299.236 97.945C301.097 93.333 298.986 88.097 294.531 86.018C294.817 85.711 295.053 85.355 295.215 84.954C295.831 83.429 295.279 81.723 293.989 80.813C294.314 79.995 294.365 79.115 294.13 78.331C293.873 77.472 293.285 76.802 292.517 76.492L292.215 76.37C291.449 76.06 290.56 76.135 289.777 76.573C289.064 76.975 288.489 77.644 288.155 78.458C287.521 78.359 286.87 78.429 286.265 78.686C285.409 79.05 284.746 79.725 284.431 80.514L284.43 80.516C284.419 80.54 284.407 80.564 284.398 80.589C284.235 80.99 284.159 81.41 284.151 81.83C282.988 81.43 281.782 81.254 280.549 81.328C279.998 81.363 279.579 81.838 279.614 82.389C279.615 82.413 279.628 82.432 279.631 82.455C279.701 82.976 280.158 83.367 280.69 83.323C281.444 83.26 283.103 83.702 284.028 83.973C284.384 84.077 284.569 84.466 284.43 84.81L279.841 96.177C279.711 96.498 279.346 96.653 279.024 96.524L275.555 95.123C275.469 95.088 275.38 95.073 275.293 95.046C274.936 94.572 274.628 94.057 274.391 93.498C273.423 91.22 273.65 88.639 275.081 86.496C275.574 85.756 276.304 85.224 276.948 84.609C277.287 84.285 277.348 83.763 277.094 83.36C277.083 83.341 277.081 83.32 277.068 83.302C276.747 82.854 276.121 82.753 275.673 83.075C274.248 84.102 273.146 85.509 272.486 87.144C271.553 89.454 271.576 91.988 272.55 94.28C272.687 94.603 272.845 94.913 273.015 95.215C272.307 95.555 271.753 96.13 271.458 96.863L270.685 98.776H263.742H247.942ZM246.442 22.566C246.367 22.491 246.352 22.406 246.352 22.347C246.352 22.289 246.367 22.203 246.442 22.128L250.485 18.086C250.56 18.011 250.645 17.995 250.704 17.995C250.752 17.995 250.844 18.007 250.923 18.086L254.965 22.129C255.04 22.203 255.055 22.289 255.055 22.347C255.055 22.406 255.04 22.491 254.964 22.566L250.923 26.608C250.747 26.784 250.621 26.744 250.485 26.609C250.485 26.608 250.484 26.608 250.484 26.608L246.442 22.566ZM189.692 148.576H153.695H147.695C146.039 148.576 144.695 147.233 144.695 145.576V144.576C144.695 142.919 146.039 141.576 147.695 141.576H158.543H159.543H181.176H185.176H195.692C197.349 141.576 198.692 142.919 198.692 144.576V145.576C198.692 147.233 197.349 148.576 195.692 148.576H189.692ZM193.692 157.576H191.692C191.14 157.576 190.692 157.128 190.692 156.576V152.576C190.692 151.471 191.587 150.576 192.692 150.576C193.797 150.576 194.692 151.471 194.692 152.576V156.576C194.692 157.128 194.245 157.576 193.692 157.576ZM187.692 157.576H155.695C155.143 157.576 154.695 157.128 154.695 156.576V152.576C154.695 151.471 155.591 150.576 156.695 150.576H186.692C187.797 150.576 188.692 151.471 188.692 152.576V156.576C188.692 157.128 188.245 157.576 187.692 157.576ZM151.695 157.576H149.695C149.143 157.576 148.695 157.128 148.695 156.576V152.576C148.695 151.471 149.591 150.576 150.695 150.576C151.8 150.576 152.695 151.471 152.695 152.576V156.576C152.695 157.128 152.248 157.576 151.695 157.576ZM153.543 134.576V133.576C153.543 131.367 155.334 129.576 157.543 129.576H160.543C162.752 129.576 164.543 131.367 164.543 133.576V134.576C164.543 137.337 162.304 139.576 159.543 139.576H158.543C155.782 139.576 153.543 137.337 153.543 134.576ZM176.176 134.576V127.576C176.176 125.919 177.519 124.576 179.176 124.576H187.176C188.833 124.576 190.176 125.919 190.176 127.576V134.576C190.176 137.337 187.938 139.576 185.176 139.576H181.176C178.415 139.576 176.176 137.337 176.176 134.576ZM117.32 157.019H109.662C110.669 156.397 111.61 155.651 112.447 154.759C113.947 153.16 114.995 151.273 115.573 149.237H117.32C119.465 149.237 121.211 150.983 121.211 153.128C121.211 155.274 119.465 157.019 117.32 157.019ZM93.852 157.019H89.644C89.664 156.996 89.687 156.976 89.708 156.952C90.829 155.643 91.319 153.911 91.053 152.2C90.611 149.37 88.046 147.237 85.086 147.237H81.027C80.758 143.828 79.122 140.804 76.677 138.692C74.463 136.779 71.589 135.612 68.441 135.612H66.984C66.741 135.612 66.501 135.625 66.263 135.649L67.607 126.915C68.248 122.751 70.346 119.169 73.335 116.633C74.107 115.977 75.261 116.051 75.986 116.759C77.286 118.031 78.719 119.183 80.277 120.193L80.74 120.493L88.341 125.423C92.867 128.358 98.044 129.874 103.34 129.874C105.295 129.874 107.267 129.667 109.227 129.249C110.445 128.99 111.631 128.65 112.784 128.241C112.884 128.307 112.922 128.333 113.023 128.399L113.374 133.88C113.41 134.431 113.889 134.854 114.436 134.814C114.987 134.779 115.405 134.303 115.37 133.752L115.364 133.672L115.019 128.271C115.015 128.209 115.003 128.149 114.998 128.088C115.485 128.228 115.98 128.336 116.479 128.423L118.094 131.222C118.497 131.921 118.745 132.684 118.851 133.465C118.979 134.404 118.896 135.368 118.581 136.285C118.084 137.729 117.068 138.923 115.748 139.654L115.631 137.835C115.596 137.284 115.113 136.87 114.569 136.901C114.018 136.937 113.6 137.412 113.635 137.963L114.052 144.453C114.258 147.663 113.27 150.89 111.102 153.267C108.897 155.685 105.874 157.019 102.609 157.019H93.852ZM88.189 155.651C87.444 156.521 86.367 157.019 85.234 157.019H76.366H71.28C66.184 157.019 62.037 152.873 62.037 147.776V142.558C62.037 139.831 64.256 137.612 66.984 137.612H68.441C74.3 137.612 79.066 142.378 79.066 148.237C79.066 148.789 79.514 149.237 80.066 149.237H85.086C87.07 149.237 88.786 150.643 89.076 152.508C89.255 153.657 88.94 154.774 88.189 155.651ZM70.219 102.268C69.283 97.88 69.492 93.438 70.775 89.286C71.183 87.969 72.9 87.719 73.739 88.813C74.096 89.278 74.488 89.723 74.916 90.146C75.111 90.338 75.365 90.434 75.619 90.434C75.857 90.434 76.09 90.34 76.28 90.171C76.295 90.157 76.315 90.152 76.331 90.137C77.027 89.37 75.969 88.392 75.522 87.843C72.059 83.592 72.283 77.307 76.22 73.318L76.638 72.895C80.868 68.615 87.765 68.573 92.048 72.8L97.544 78.224C97.937 78.611 98.57 78.608 98.959 78.215C99.346 77.822 99.342 77.188 98.949 76.8L96.314 74.198C96.314 74.198 93.364 71.299 93.325 71.26C94.044 71.2 94.764 71.161 95.481 71.161C98.817 71.161 102.098 71.825 105.177 73.094C105.131 73.18 105.091 73.271 105.072 73.368C105.041 73.522 105.027 73.769 105.087 74.098C105.315 75.355 106.688 77.874 112.935 81.595C117.686 84.426 120.496 85.117 122.108 85.117C122.347 85.117 122.551 85.098 122.739 85.073C127.143 90.058 129.395 96.528 129.179 103.031C129.126 104.615 127.34 105.523 126.011 104.661C126.068 104.527 126.106 104.381 126.11 104.227C126.121 103.862 126.127 103.498 126.127 103.136C126.126 102.677 126.118 102.221 126.102 101.77C126.078 101.114 125.546 100.604 124.87 100.624C124.213 100.648 123.701 101.199 123.724 101.855C123.739 102.279 123.747 102.707 123.748 103.138C123.748 103.156 123.747 103.175 123.747 103.193L114.973 97.503C113.567 96.592 111.887 96.283 110.238 96.635C108.59 96.987 107.18 97.954 106.27 99.36L103.15 104.169C98.873 110.764 100.752 119.578 107.347 123.855C107.347 123.855 108.253 124.44 109.223 125.065C110.131 125.651 109.895 127.06 108.838 127.287L108.81 127.293C102.061 128.733 95.178 127.471 89.429 123.745L81.365 118.515C81.19 118.403 81.024 118.282 80.853 118.165C75.385 114.432 71.615 108.814 70.219 102.268ZM131.067 110.323C132.024 110.944 132.684 111.906 132.923 113.031C133.164 114.156 132.954 115.304 132.334 116.261L129.213 121.072C127.443 123.801 124.704 125.68 121.498 126.364C118.291 127.048 115.024 126.448 112.295 124.68L108.435 122.177C102.776 118.507 101.158 110.918 104.827 105.258L107.948 100.448C108.568 99.49 109.53 98.831 110.655 98.591C111.78 98.351 112.927 98.561 113.885 99.181L131.067 110.323ZM132.543 98.799C133.712 101.463 133.774 104.423 132.717 107.135L132.501 107.688C132.378 108.003 132.238 108.306 132.089 108.603L130.639 107.663C131.38 103.981 131.371 100.147 130.562 96.35C130.507 96.096 130.442 95.847 130.382 95.596C131.274 96.517 132.012 97.59 132.543 98.799ZM56.302 156.576C56.302 157.126 55.852 157.576 55.302 157.576H50.613H47.013C46.463 157.576 46.013 157.126 46.013 156.576V154.495C46.013 153.121 47.127 152.008 48.5 152.008H50.458C51.621 152.008 52.924 152.908 53.089 154.06C53.16 154.554 53.583 154.918 54.079 154.918H55.271C55.84 154.918 56.302 155.38 56.302 155.949V156.576ZM30.372 159.541L30.353 159.535C28.66 158.999 27.285 157.756 26.579 156.127C26.559 156.08 26.535 156.035 26.508 155.992L26.315 155.685C25.649 154.097 25.682 152.295 26.408 150.731C26.508 150.513 26.622 150.304 26.747 150.103C27.241 149.308 28.362 149.186 29.041 149.831C30.34 151.067 31.926 153.47 32.251 157.946C32.326 158.985 31.365 159.853 30.372 159.541ZM298.057 18.086C298.131 18.011 298.217 17.995 298.275 17.995C298.323 17.995 298.416 18.007 298.495 18.086L302.537 22.129C302.611 22.203 302.627 22.289 302.627 22.347C302.627 22.406 302.611 22.491 302.536 22.566L298.495 26.608C298.319 26.784 298.192 26.744 298.057 26.609C298.057 26.608 298.056 26.608 298.056 26.608L294.014 22.566C293.939 22.491 293.923 22.406 293.923 22.347C293.923 22.289 293.939 22.203 294.014 22.128L298.057 18.086ZM374.98 157.576H326.977C324.43 157.576 323.058 154.616 324.682 152.654C327.422 149.343 329.033 145.114 329.033 140.576V117.776C329.033 111.339 325.812 105.645 320.899 102.209C319.625 101.318 319.764 99.432 321.152 98.733C327.368 95.604 331.644 89.173 331.633 81.749C331.632 80.979 332.192 80.342 332.94 80.16C337.321 79.099 340.585 75.145 340.585 70.443V56.043C340.585 50.889 336.665 46.637 331.65 46.103C331.064 46.041 330.548 45.656 330.335 45.106C327.575 38.017 320.686 32.976 312.633 32.976H298.275H251.704V28.462C251.934 28.351 252.15 28.209 252.337 28.022L256.378 23.981C256.815 23.545 257.055 22.965 257.055 22.347C257.055 21.73 256.815 21.15 256.378 20.714L252.337 16.672C252.152 16.488 251.934 16.35 251.704 16.244V3.759C251.704 3.721 251.704 3.622 251.833 3.579C251.962 3.537 252.021 3.615 252.044 3.644L260.852 15.271C261.728 16.427 263.465 16.427 264.341 15.271L274.338 2.074C274.421 1.965 274.558 1.965 274.641 2.074L284.637 15.271C285.055 15.822 285.691 16.138 286.382 16.138H286.383C287.074 16.137 287.71 15.822 288.127 15.271L296.936 3.644C296.958 3.615 297.018 3.537 297.146 3.579C297.275 3.622 297.275 3.721 297.275 3.759V16.243C297.044 16.35 296.827 16.487 296.642 16.672L292.601 20.714C292.164 21.15 291.923 21.73 291.923 22.347C291.923 22.965 292.164 23.545 292.6 23.98L296.642 28.022C297.078 28.459 297.658 28.699 298.275 28.699C298.892 28.699 299.472 28.459 299.909 28.022L303.95 23.981C304.387 23.545 304.627 22.965 304.627 22.347C304.627 21.73 304.387 21.15 303.95 20.714L299.909 16.672C299.724 16.488 299.506 16.35 299.275 16.244L299.276 3.864C299.276 2.949 298.762 2.073 297.914 1.732C296.969 1.351 295.945 1.638 295.341 2.436L289.57 10.053C287.816 12.368 284.947 12.368 283.193 10.053L276.234 0.866C275.817 0.315 275.181 0 274.489 0C273.797 0 273.162 0.316 272.745 0.866L265.785 10.053C264.031 12.368 261.162 12.368 259.408 10.053L253.731 2.558C253.162 1.808 252.193 1.393 251.289 1.655C250.33 1.932 249.704 2.77 249.704 3.759V16.243C249.473 16.35 249.255 16.487 249.07 16.672L245.029 20.714C244.592 21.15 244.352 21.73 244.352 22.347C244.352 22.965 244.592 23.545 245.028 23.98L249.07 28.022C249.256 28.209 249.473 28.351 249.704 28.463V32.976H247.942C238.125 32.976 230.037 40.464 229.057 50.027C228.971 50.87 228.39 51.61 227.565 51.804C223.949 52.656 221.248 55.903 221.248 59.776V67.576C221.248 73.52 224.004 78.821 228.294 82.305C228.733 82.663 229.009 83.173 229.067 83.737C230.053 93.293 238.129 100.776 247.942 100.776H248.33C249.354 100.776 249.731 102.151 248.835 102.645C244.926 104.8 241.465 107.795 238.755 111.481C238.636 111.642 238.535 111.813 238.42 111.976H227.317C224.065 111.976 221.163 114.307 220.748 117.533C220.247 121.436 223.288 124.776 227.094 124.776H233.148C232.926 126.137 232.814 127.522 232.775 128.919C228.47 131.04 225.494 135.461 225.494 140.576V145.376C225.494 146.149 224.867 146.776 224.094 146.776H213.569C210.009 146.776 206.856 149.686 206.895 153.246C206.913 154.923 207.583 156.444 208.658 157.576H197.692C197.14 157.576 196.692 157.128 196.692 156.576V152.576C196.692 151.471 197.587 150.576 198.692 150.576H199.692C200.245 150.576 200.692 150.128 200.692 149.576V140.576C200.692 140.024 200.245 139.576 199.692 139.576H192.097C191.34 139.576 190.836 138.755 191.219 138.102C191.827 137.066 192.176 135.862 192.176 134.576V125.576C192.176 123.919 190.833 122.576 189.176 122.576H177.176C175.519 122.576 174.176 123.919 174.176 125.576V134.576C174.176 135.862 174.525 137.066 175.133 138.102C175.517 138.755 175.012 139.576 174.255 139.576H166.464C165.707 139.576 165.203 138.755 165.586 138.102C166.194 137.066 166.543 135.862 166.543 134.576V131.576C166.543 129.367 164.752 127.576 162.543 127.576H155.543C153.334 127.576 151.543 129.367 151.543 131.576V134.576C151.543 135.862 151.892 137.066 152.501 138.102C152.883 138.755 152.379 139.576 151.622 139.576H143.695C143.143 139.576 142.695 140.024 142.695 140.576V149.576C142.695 150.128 143.143 150.576 143.695 150.576H144.695C145.8 150.576 146.695 151.471 146.695 152.576V156.576C146.695 157.128 146.248 157.576 145.695 157.576H124.814C123.444 157.576 122.503 156.239 122.926 154.937C123.234 153.987 123.307 152.932 123.073 151.84C122.486 149.098 119.912 147.237 117.109 147.237C116.523 147.237 116.05 146.752 116.08 146.167C116.104 145.672 116.102 145.172 116.07 144.669L115.931 142.509C115.904 142.084 116.149 141.702 116.527 141.506C119.359 140.037 121.185 136.982 120.888 133.496C120.784 132.273 120.336 131.104 119.721 130.042C119.357 129.41 119.76 128.632 120.484 128.552C120.961 128.499 121.439 128.422 121.915 128.32C125.643 127.525 128.831 125.338 130.891 122.16L133.847 117.602C134.858 116.044 135.282 114.126 134.812 112.329C134.695 111.881 134.53 111.453 134.323 111.05C133.962 110.346 133.885 109.537 134.201 108.811C134.257 108.68 134.312 108.548 134.364 108.414L134.468 108.148C135.554 105.364 135.786 102.28 134.905 99.425C133.956 96.344 131.976 93.833 129.342 92.213C128.367 89.64 127.026 87.252 125.363 85.106C124.791 84.368 124.762 83.344 125.257 82.553L125.258 82.551C125.541 82.076 125.385 81.463 124.911 81.18C124.436 80.898 123.822 81.053 123.54 81.528L123.538 81.531C122.9 82.615 121.627 83.169 120.41 82.851C119.037 82.492 116.968 81.67 113.959 79.878C110.984 78.106 109.29 76.696 108.324 75.67C107.46 74.75 107.336 73.362 107.982 72.278L112.095 65.374C112.586 64.551 113.842 64.822 113.948 65.775L114.137 67.471C114.19 67.943 114.454 68.352 114.862 68.595C115.27 68.838 115.755 68.874 116.195 68.697L120.846 66.811C121.46 66.562 122.142 66.968 122.215 67.627L122.771 72.614C122.824 73.086 123.088 73.495 123.496 73.738C123.904 73.981 124.389 74.017 124.829 73.84L126.41 73.198C127.298 72.839 128.135 73.814 127.645 74.637L125.325 78.532C125.042 79.007 125.197 79.62 125.672 79.903C126.145 80.185 126.76 80.03 127.043 79.555L131.644 71.832C131.975 71.277 131.914 70.575 131.493 70.084C131.072 69.594 130.388 69.429 129.788 69.671L124.686 71.739L123.983 65.44C123.931 64.969 123.667 64.559 123.259 64.316C122.851 64.074 122.366 64.038 121.925 64.215L116.052 66.596L115.441 61.125C115.37 60.483 114.898 59.959 114.267 59.823C113.636 59.685 112.989 59.966 112.658 60.522L107.213 69.661C106.646 70.613 105.491 71.031 104.444 70.669C100.18 69.196 95.605 68.788 91.048 69.517C88.469 67.953 85.403 67.313 82.254 67.829C79.482 68.283 76.963 69.72 74.988 71.719L74.796 71.913C72.071 74.674 70.859 78.363 71.136 81.957C71.202 82.81 70.977 83.651 70.591 84.414C67.757 90.028 66.925 96.41 68.263 102.685C68.961 105.956 70.21 109.011 71.936 111.75C72.719 112.993 72.555 114.606 71.473 115.601C68.43 118.402 66.307 122.218 65.631 126.612L64.608 133.26C64.371 134.797 63.673 136.265 62.488 137.273C60.99 138.547 60.037 140.442 60.037 142.558V147.776C60.037 150.507 61.017 153.011 62.644 154.96C63.513 156.002 62.825 157.576 61.468 157.576H59.929C59.03 157.576 58.302 156.848 58.302 155.949C58.302 154.275 56.945 152.918 55.271 152.918H54.842C54.197 151.191 52.547 150.008 50.644 150.008H50.194C50.506 148.796 50.502 147.495 50.088 146.231C49.983 145.909 49.722 145.663 49.395 145.576C49.066 145.486 48.718 145.573 48.467 145.801C48.236 146.01 47.959 146.182 47.643 146.313C45.804 147.074 44.786 145.719 44.518 145.286C44.362 145.035 44.104 144.865 43.811 144.823C43.518 144.781 43.222 144.87 43.002 145.067C42.772 145.273 42.498 145.442 42.186 145.571C41.469 145.869 40.797 145.877 40.191 145.594C39.521 145.281 38.97 144.615 38.717 143.812C38.551 143.285 37.99 142.992 37.463 143.158C36.94 143.323 36.65 143.877 36.808 144.4C36.81 144.405 36.808 144.408 36.81 144.412C37.234 145.761 38.159 146.852 39.346 147.406C40.465 147.927 41.712 147.932 42.951 147.419C43.127 147.346 43.296 147.265 43.459 147.176C44.736 148.523 46.586 148.917 48.409 148.161C48.413 148.159 48.418 148.157 48.422 148.155C48.447 148.808 48.333 149.451 48.1 150.049C46.107 150.228 44.483 151.695 44.102 153.622L35.403 158.926C35.053 159.138 34.685 159.31 34.307 159.448C34.258 152.955 31.911 149.651 30.065 148.069C30.127 147.783 30.139 147.725 30.201 147.439L33.491 146.447C34.02 146.287 34.319 145.729 34.16 145.2C34 144.672 33.444 144.376 32.913 144.531L29.773 145.479C28.713 145.798 27.699 146.284 26.846 146.989C23.901 149.42 23.113 153.327 24.509 156.548C24.529 156.594 24.552 156.639 24.58 156.682L24.775 156.994C25.72 159.119 27.529 160.738 29.748 161.442C30.553 161.697 31.383 161.823 32.209 161.823C33.687 161.823 35.154 161.42 36.444 160.634L42.845 156.731C43.348 156.424 44.02 156.773 44.013 157.363C44 158.583 44.985 159.576 46.202 159.576H50.613H56.113H147.695H153.695H189.692H195.692H213.294H251.742H255.909C256.542 160.266 257.308 160.827 258.202 161.188C258.981 161.503 259.785 161.651 260.578 161.651C262.357 161.651 264.062 160.888 265.269 159.576H266.749H305.542H311.949H374.98C375.532 159.576 375.98 159.128 375.98 158.576C375.98 158.024 375.532 157.576 374.98 157.576Z" fill="#202225"/>
<path fill-rule="evenodd" clip-rule="evenodd" d="M107.098 142.446C106.707 142.055 106.075 142.055 105.684 142.446L104.217 143.913L102.75 142.446C102.36 142.055 101.727 142.055 101.336 142.446C100.946 142.837 100.946 143.469 101.336 143.86L102.803 145.327L101.336 146.794C100.946 147.184 100.946 147.817 101.336 148.208C101.532 148.403 101.787 148.501 102.043 148.501C102.299 148.501 102.555 148.403 102.75 148.208L104.217 146.741L105.684 148.208C105.879 148.403 106.135 148.501 106.391 148.501C106.647 148.501 106.903 148.403 107.098 148.208C107.489 147.817 107.489 147.184 107.098 146.794L105.631 145.327L107.098 143.86C107.489 143.469 107.489 142.837 107.098 142.446ZM121.691 90.4973C121.853 91.0023 122.32 91.3243 122.823 91.3243C122.943 91.3243 123.066 91.3063 123.186 91.2673C123.812 91.0663 124.156 90.3963 123.956 89.7713C123.489 88.3163 123.13 87.4633 123.115 87.4283C122.86 86.8233 122.162 86.5393 121.558 86.7963C120.953 87.0513 120.67 87.7483 120.924 88.3543C120.928 88.3613 121.261 89.1543 121.691 90.4973ZM122.869 94.9792C123.026 95.7352 123.165 96.5022 123.282 97.2582C123.372 97.8472 123.879 98.2672 124.455 98.2672C124.516 98.2672 124.577 98.2632 124.638 98.2532C125.287 98.1532 125.733 97.5462 125.633 96.8972C125.51 96.0992 125.364 95.2912 125.198 94.4942C125.063 93.8512 124.435 93.4392 123.791 93.5722C123.148 93.7062 122.735 94.3362 122.869 94.9792ZM79.796 86.2019C80.054 86.2019 80.312 86.1029 80.508 85.9049C80.896 85.5109 80.892 84.8779 80.499 84.4899C79.558 83.5619 79.035 82.3239 79.026 81.0019C79.018 79.6809 79.525 78.4349 80.452 77.4949L80.871 77.0719C81.798 76.1319 83.037 75.6089 84.358 75.5999C85.662 75.5979 86.925 76.0979 87.865 77.0259C88.258 77.4129 88.891 77.4099 89.28 77.0169C89.668 76.6239 89.664 75.9909 89.271 75.6019C87.95 74.2989 86.189 73.5779 84.345 73.5999C82.49 73.6129 80.75 74.3469 79.447 75.6669L79.029 76.0899C77.726 77.4109 77.015 79.1599 77.027 81.0149C77.039 82.8709 77.773 84.6109 79.093 85.9139C79.289 86.1059 79.542 86.2019 79.796 86.2019ZM93.2003 93.4456L93.5333 92.9326C94.3073 91.7386 95.6083 91.0886 96.9353 91.0886C97.6883 91.0886 98.4503 91.2986 99.1293 91.7386L99.6433 92.0716C100.545 92.6566 101.166 93.5636 101.392 94.6246C101.618 95.6846 101.421 96.7656 100.836 97.6676L100.503 98.1816C99.9183 99.0836 99.0123 99.7046 97.9503 99.9306C96.8893 100.157 95.8093 99.9586 94.9073 99.3746L94.3933 99.0416C93.4923 98.4566 92.8703 97.5506 92.6443 96.4896C92.4183 95.4286 92.6153 94.3476 93.2003 93.4456ZM93.3053 100.72L93.8193 101.053C94.8053 101.693 95.9333 102.023 97.0873 102.023C97.5123 102.023 97.9413 101.978 98.3683 101.887C99.9513 101.55 101.305 100.62 102.18 99.2696L102.514 98.7556C104.328 95.9586 103.528 92.2076 100.731 90.3946L100.217 90.0606C97.4213 88.2466 93.6693 89.0476 91.8553 91.8436L91.5223 92.3576C90.6473 93.7076 90.3503 95.3236 90.6883 96.9066C91.0263 98.4896 91.9553 99.8436 93.3053 100.72Z" fill="#202225"/>
<path fill-rule="evenodd" clip-rule="evenodd" d="M94.8746 95.5837C95.4236 95.9397 96.1636 95.7817 96.5196 95.2327C96.8746 94.6847 96.7176 93.9437 96.1686 93.5877C95.6196 93.2317 94.8796 93.3907 94.5236 93.9387C94.1676 94.4877 94.3256 95.2277 94.8746 95.5837ZM97.8678 97.5251C98.4168 97.8811 99.1568 97.7231 99.5128 97.1741C99.8688 96.6261 99.7108 95.8851 99.1618 95.5291C98.6138 95.1731 97.8728 95.3311 97.5168 95.8801C97.1608 96.4291 97.3188 97.1691 97.8678 97.5251ZM81.3819 128.633C81.2709 128.633 81.1689 128.663 81.0689 128.696C80.6719 128.829 80.3819 129.192 80.3819 129.633C80.3819 131.587 78.7929 133.176 76.8359 133.176C74.8819 133.176 73.2929 131.587 73.2929 129.633V127.47V126.826C73.2929 124.872 74.8819 123.283 76.8389 123.283C77.3909 123.283 77.8379 122.835 77.8379 122.283C77.8379 121.731 77.3879 121.283 76.8359 121.283C73.7789 121.283 71.2929 123.77 71.2929 126.826V129.633C71.2929 132.69 73.7789 135.176 76.8389 135.176C76.9679 135.176 77.0939 135.165 77.2209 135.156C80.0989 134.959 82.3819 132.561 82.3819 129.633C82.3819 129.081 81.9339 128.633 81.3819 128.633ZM278.841 22.3469C278.841 22.4059 278.825 22.4909 278.75 22.5659L274.708 26.6079C274.587 26.7289 274.391 26.7289 274.27 26.6079L270.228 22.5659C270.107 22.4459 270.107 22.2489 270.228 22.1279L274.27 18.0859C274.33 18.0259 274.409 17.9959 274.489 17.9959C274.569 17.9959 274.648 18.0259 274.708 18.0859L278.751 22.1289C278.825 22.2029 278.841 22.2889 278.841 22.3469ZM272.856 16.6719L268.814 20.7139C267.913 21.6149 267.913 23.0799 268.814 23.9799L272.856 28.0219C273.306 28.4719 273.898 28.6979 274.489 28.6979C275.08 28.6979 275.672 28.4719 276.122 28.0219L280.164 23.9809C280.601 23.5449 280.841 22.9649 280.841 22.3469C280.841 21.7299 280.601 21.1499 280.164 20.7139L276.122 16.6719C275.222 15.7719 273.756 15.7719 272.856 16.6719ZM345.927 120.125C346.132 120.109 346.336 120.102 346.539 120.102C348.662 120.102 350.704 120.941 352.218 122.455C353.876 124.113 354.725 126.406 354.547 128.745C354.295 132.062 351.979 134.917 348.786 135.848L336.122 139.542C335.714 139.663 335.434 139.44 335.333 139.339C335.232 139.238 335.011 138.96 335.131 138.55V138.549L338.824 125.886C339.756 122.692 342.61 120.377 345.927 120.125ZM336.904 125.326L333.211 137.989C332.924 138.971 333.196 140.03 333.919 140.753C334.451 141.286 335.166 141.574 335.899 141.574C336.16 141.574 336.424 141.537 336.682 141.461L349.346 137.768C353.334 136.604 356.226 133.04 356.541 128.896C356.763 125.976 355.703 123.112 353.632 121.041C351.56 118.969 348.697 117.906 345.775 118.131C341.633 118.446 338.068 121.337 336.904 125.326ZM282.544 100.76C281.719 100.427 280.78 100.825 280.447 101.651C280.114 102.475 280.513 103.414 281.337 103.747C282.163 104.08 283.102 103.682 283.435 102.857C283.768 102.031 283.369 101.093 282.544 100.76ZM276.569 98.3479C275.744 98.0149 274.805 98.4129 274.472 99.2389C274.139 100.063 274.538 101.002 275.363 101.335C276.188 101.668 277.127 101.269 277.46 100.445C277.793 99.6189 277.394 98.6809 276.569 98.3479ZM288.519 103.172C287.694 102.839 286.755 103.238 286.422 104.063C286.089 104.888 286.488 105.826 287.313 106.159C288.138 106.492 289.077 106.094 289.41 105.269C289.743 104.444 289.344 103.505 288.519 103.172ZM17.3561 157.387C17.3561 157.49 17.2691 157.576 17.1671 157.576H13.2021C13.1021 157.576 13.0131 157.488 13.0131 157.387V157.116C13.0131 155.92 13.9861 154.947 15.1871 154.947C16.3831 154.947 17.3561 155.92 17.3561 157.116V157.387ZM15.1831 152.947C12.8841 152.947 11.0131 154.818 11.0131 157.116V157.387C11.0131 158.594 11.9951 159.576 13.2021 159.576H17.1671C18.3741 159.576 19.3561 158.594 19.3561 157.387V157.116C19.3561 154.818 17.4851 152.947 15.1831 152.947ZM138.675 59.2424C139.509 59.2424 140.185 59.9184 140.185 60.7524C140.185 61.3054 140.633 61.7524 141.185 61.7524C141.737 61.7524 142.185 61.3054 142.185 60.7524C142.185 59.9184 142.861 59.2424 143.695 59.2424C144.247 59.2424 144.695 58.7944 144.695 58.2424C144.695 57.6904 144.247 57.2424 143.695 57.2424C142.861 57.2424 142.185 56.5664 142.185 55.7324C142.185 55.1804 141.737 54.7324 141.185 54.7324C140.633 54.7324 140.185 55.1804 140.185 55.7324C140.185 56.5664 139.509 57.2424 138.675 57.2424C138.123 57.2424 137.675 57.6904 137.675 58.2424C137.675 58.7944 138.123 59.2424 138.675 59.2424ZM160.043 109.966H160.553C161.105 109.966 161.553 110.414 161.553 110.966V111.476C161.553 112.028 162.001 112.476 162.553 112.476C163.106 112.476 163.553 112.028 163.553 111.476V110.966C163.553 110.414 164.001 109.966 164.553 109.966H165.063C165.615 109.966 166.063 109.518 166.063 108.966C166.063 108.414 165.615 107.966 165.063 107.966H164.553C164.001 107.966 163.553 107.518 163.553 106.966V106.456C163.553 105.904 163.106 105.456 162.553 105.456C162.001 105.456 161.553 105.904 161.553 106.456V106.966C161.553 107.518 161.105 107.966 160.553 107.966H160.043C159.491 107.966 159.043 108.414 159.043 108.966C159.043 109.518 159.491 109.966 160.043 109.966ZM197.862 83.802C198.118 83.802 198.374 83.704 198.569 83.509L199.752 82.325C200.143 81.935 200.143 81.302 199.752 80.911C199.362 80.521 198.728 80.521 198.338 80.911L197.155 82.095C196.764 82.486 196.764 83.119 197.155 83.509C197.35 83.704 197.606 83.802 197.862 83.802ZM191.946 89.718C192.202 89.718 192.458 89.62 192.653 89.425L193.836 88.242C194.227 87.851 194.227 87.218 193.836 86.828C193.446 86.437 192.813 86.437 192.422 86.828L191.239 88.011C190.848 88.402 190.848 89.034 191.239 89.425C191.434 89.62 191.69 89.718 191.946 89.718ZM198.338 89.4251C198.533 89.6201 198.789 89.7181 199.045 89.7181C199.301 89.7181 199.557 89.6201 199.752 89.4251C200.143 89.0341 200.143 88.4021 199.752 88.0111L198.569 86.8281C198.178 86.4371 197.546 86.4371 197.155 86.8281C196.764 87.2181 196.764 87.8511 197.155 88.2421L198.338 89.4251ZM192.422 83.509C192.617 83.704 192.873 83.802 193.129 83.802C193.385 83.802 193.641 83.704 193.836 83.509C194.227 83.119 194.227 82.486 193.836 82.095L192.653 80.911C192.262 80.521 191.63 80.521 191.239 80.911C190.848 81.301 190.848 81.935 191.239 82.325L192.422 83.509ZM195.496 112.466C196.329 112.466 197.006 113.144 197.006 113.977C197.006 114.809 196.329 115.487 195.496 115.487C194.663 115.487 193.986 114.809 193.986 113.977C193.986 113.144 194.663 112.466 195.496 112.466ZM195.496 117.487C197.431 117.487 199.006 115.911 199.006 113.977C199.006 112.041 197.431 110.466 195.496 110.466C193.56 110.466 191.986 112.041 191.986 113.977C191.986 115.911 193.56 117.487 195.496 117.487ZM291.249 67.2424C293.724 67.2424 295.749 65.2174 295.749 62.7424C295.749 60.2674 293.724 58.2424 291.249 58.2424C288.774 58.2424 286.749 60.2674 286.749 62.7424C286.749 65.2174 288.774 67.2424 291.249 67.2424ZM299.503 57.3591C300.055 57.3591 300.503 56.9111 300.503 56.3591C300.503 55.8071 300.055 55.3591 299.503 55.3591C296.533 55.3591 295.486 52.8281 295.436 52.7021C295.238 52.1891 294.661 51.9341 294.147 52.1281C293.631 52.3251 293.372 52.9031 293.568 53.4191C293.63 53.5801 295.121 57.3591 299.503 57.3591Z" fill="#202225"/>
</svg>
